%TF.GenerationSoftware,KiCad,Pcbnew,8.0.8*%
%TF.CreationDate,2025-01-19T23:13:15+07:00*%
%TF.ProjectId,HW.ACIM-INV,48572e41-4349-44d2-9d49-4e562e6b6963,0.1*%
%TF.SameCoordinates,Original*%
%TF.FileFunction,Profile,NP*%
%FSLAX46Y46*%
G04 Gerber Fmt 4.6, Leading zero omitted, Abs format (unit mm)*
G04 Created by KiCad (PCBNEW 8.0.8) date 2025-01-19 23:13:15*
%MOMM*%
%LPD*%
G01*
G04 APERTURE LIST*
%TA.AperFunction,Profile*%
%ADD10C,0.050000*%
%TD*%
G04 APERTURE END LIST*
D10*
X241092499Y-61267503D02*
X241092501Y-62667501D01*
X278187500Y-117255000D02*
X278187500Y-23755000D01*
X234842499Y-56267500D02*
X239842499Y-56267502D01*
X241092501Y-62667501D02*
G75*
G02*
X239592501Y-64167501I-1500001J1D01*
G01*
X194312922Y-69584578D02*
G75*
G02*
X192812922Y-68084580I-22J1499978D01*
G01*
X229933741Y-69076257D02*
G75*
G02*
X229226434Y-68368950I-353553J353754D01*
G01*
X264085000Y-34260000D02*
G75*
G02*
X265585000Y-35760000I0J-1500000D01*
G01*
X192812500Y-57984998D02*
G75*
G02*
X194312498Y-56485000I1500000J-2D01*
G01*
X209312498Y-56485000D02*
X194312498Y-56485000D01*
X270597502Y-93535000D02*
X268167502Y-91104999D01*
X241895000Y-34210000D02*
X237395000Y-34210001D01*
X276347502Y-97495430D02*
G75*
G02*
X276347499Y-98495370I-2J-499970D01*
G01*
X265584999Y-40459999D02*
G75*
G02*
X264585001Y-40460000I-499999J-1D01*
G01*
X198312922Y-68584579D02*
G75*
G02*
X198312921Y-69584621I-22J-500021D01*
G01*
X276347502Y-97495430D02*
X273027500Y-97495003D01*
X192812924Y-68084580D02*
X192812500Y-57984998D01*
X243395000Y-35710000D02*
X243394999Y-40409999D01*
X259084999Y-40455000D02*
G75*
G02*
X258085001Y-40454999I-499999J0D01*
G01*
X209312499Y-57484998D02*
X194312499Y-57484998D01*
X241895000Y-35210000D02*
G75*
G02*
X242395000Y-35710000I0J-500000D01*
G01*
X259585000Y-35260001D02*
X264085000Y-35260000D01*
X193812499Y-68084579D02*
X193812499Y-57984998D01*
X234842500Y-57267498D02*
G75*
G02*
X234842499Y-56267502I0J499998D01*
G01*
X236894999Y-40405000D02*
G75*
G02*
X235895001Y-40404999I-499999J0D01*
G01*
X264085000Y-35260000D02*
G75*
G02*
X264585000Y-35760000I0J-500000D01*
G01*
X270597502Y-96565003D02*
X270597502Y-93535000D01*
X243394999Y-40409999D02*
G75*
G02*
X242395001Y-40410000I-499999J-1D01*
G01*
X194312922Y-69584578D02*
X198312921Y-69584578D01*
X240092501Y-62667500D02*
X240092501Y-61267502D01*
X272527924Y-98495425D02*
X276347499Y-98495428D01*
X234842500Y-64167499D02*
X239592501Y-64167500D01*
X275937500Y-21505000D02*
X182437500Y-21505000D01*
X182437500Y-119505000D02*
G75*
G02*
X180187500Y-117255000I0J2250000D01*
G01*
X193812499Y-57984998D02*
G75*
G02*
X194312499Y-57484999I500001J-2D01*
G01*
X259085000Y-35760001D02*
G75*
G02*
X259585000Y-35260000I500000J1D01*
G01*
X236895000Y-35710001D02*
X236894999Y-40405000D01*
X259085000Y-35760001D02*
X259084999Y-40455000D01*
X240620450Y-84877056D02*
X245847500Y-90105001D01*
X229933741Y-69076257D02*
X234842500Y-64167499D01*
X271597500Y-93065003D02*
X268667078Y-90105001D01*
X182437500Y-119505000D02*
X275937500Y-119505000D01*
X242395000Y-35710000D02*
X242395001Y-40410000D01*
X264585000Y-35760000D02*
X264585001Y-40460000D01*
X271597500Y-93065003D02*
X271597500Y-96065003D01*
X194312499Y-68584579D02*
G75*
G02*
X193812521Y-68084579I1J499979D01*
G01*
X270597502Y-96565003D02*
X272527924Y-98495425D01*
X240092501Y-62667500D02*
G75*
G02*
X239592501Y-63167501I-500001J0D01*
G01*
X239592501Y-63167500D02*
X234442501Y-63167501D01*
X271597500Y-96065003D02*
X273027500Y-97495003D01*
X237395000Y-35210001D02*
X241895000Y-35210000D01*
X235895001Y-40404999D02*
X235895000Y-35710000D01*
X239842499Y-56267502D02*
G75*
G02*
X239842500Y-57267498I1J-499998D01*
G01*
X180187500Y-23755000D02*
X180187500Y-117255000D01*
X241895000Y-34210000D02*
G75*
G02*
X243395000Y-35710000I0J-1500000D01*
G01*
X245847500Y-90105001D02*
X268667078Y-90105001D01*
X240092501Y-61267502D02*
G75*
G02*
X241092499Y-61267503I499999J2D01*
G01*
X198312922Y-68584579D02*
X194312499Y-68584579D01*
X275937500Y-21505000D02*
G75*
G02*
X278187500Y-23755000I0J-2250000D01*
G01*
X236895000Y-35710001D02*
G75*
G02*
X237395000Y-35210000I500000J1D01*
G01*
X229226636Y-68369151D02*
X234442501Y-63167501D01*
X278187500Y-117255000D02*
G75*
G02*
X275937500Y-119505000I-2250000J0D01*
G01*
X239913342Y-85584158D02*
X245447500Y-91105000D01*
X234842500Y-57267498D02*
X239842500Y-57267500D01*
X258085000Y-35760000D02*
G75*
G02*
X259585000Y-34260000I1500000J0D01*
G01*
X209312498Y-56485000D02*
G75*
G02*
X209312499Y-57485000I2J-500000D01*
G01*
X239913342Y-85584158D02*
G75*
G02*
X240620461Y-84877045I353558J353558D01*
G01*
X268167502Y-91104999D02*
X245447500Y-91105000D01*
X180187500Y-23755000D02*
G75*
G02*
X182437500Y-21505000I2250000J0D01*
G01*
X265585000Y-35760000D02*
X265584999Y-40459999D01*
X235895000Y-35710000D02*
G75*
G02*
X237395000Y-34210000I1500000J0D01*
G01*
X264085000Y-34260000D02*
X259585000Y-34260001D01*
X258085001Y-40454999D02*
X258085000Y-35760000D01*
M02*
