%TF.GenerationSoftware,KiCad,Pcbnew,8.0.8*%
%TF.CreationDate,2025-01-19T23:14:18+07:00*%
%TF.ProjectId,HW.ACIM-INV,48572e41-4349-44d2-9d49-4e562e6b6963,0.1*%
%TF.SameCoordinates,Original*%
%TF.FileFunction,Plated,1,4,PTH,Drill*%
%TF.FilePolarity,Positive*%
%FSLAX46Y46*%
G04 Gerber Fmt 4.6, Leading zero omitted, Abs format (unit mm)*
G04 Created by KiCad (PCBNEW 8.0.8) date 2025-01-19 23:14:18*
%MOMM*%
%LPD*%
G01*
G04 APERTURE LIST*
%TA.AperFunction,ViaDrill*%
%ADD10C,0.300000*%
%TD*%
%TA.AperFunction,ViaDrill*%
%ADD11C,0.400000*%
%TD*%
%TA.AperFunction,ComponentDrill*%
%ADD12C,0.700000*%
%TD*%
%TA.AperFunction,ComponentDrill*%
%ADD13C,0.800000*%
%TD*%
%TA.AperFunction,ComponentDrill*%
%ADD14C,0.900000*%
%TD*%
%TA.AperFunction,ComponentDrill*%
%ADD15C,1.000000*%
%TD*%
%TA.AperFunction,ComponentDrill*%
%ADD16C,1.200000*%
%TD*%
%TA.AperFunction,ComponentDrill*%
%ADD17C,1.500000*%
%TD*%
%TA.AperFunction,ComponentDrill*%
%ADD18C,2.000000*%
%TD*%
G04 APERTURE END LIST*
D10*
X180987500Y-56275001D03*
X180987500Y-63775001D03*
X180987500Y-66275001D03*
X181352500Y-85375002D03*
X181352500Y-87875002D03*
X182210310Y-59125716D03*
X183487500Y-61275001D03*
X183487500Y-66275001D03*
X183852500Y-87875002D03*
X183852500Y-90375002D03*
X183852500Y-92875002D03*
X183852500Y-97875002D03*
X185012499Y-58600002D03*
X185337500Y-114755000D03*
X185337500Y-117255000D03*
X185352500Y-85375002D03*
X185387500Y-103349999D03*
X185387500Y-105849999D03*
X185852500Y-91375002D03*
X185852500Y-94875002D03*
X185987500Y-66275001D03*
X185987500Y-68775001D03*
X185987500Y-73775001D03*
X185987500Y-78775001D03*
X186012499Y-59325001D03*
X186087500Y-100150001D03*
X186537500Y-109025000D03*
X186987500Y-100150001D03*
X187287500Y-104525000D03*
X187612499Y-53400002D03*
X187837500Y-114755000D03*
X188352500Y-87875002D03*
X188487500Y-68775001D03*
X188487500Y-73775001D03*
X188852500Y-97875002D03*
X189152500Y-91700001D03*
X189152500Y-93300001D03*
X189152500Y-94900001D03*
X189637500Y-101475000D03*
X190337500Y-114755000D03*
X190337500Y-117255000D03*
X190387500Y-108349999D03*
X190437500Y-105225000D03*
X190852500Y-96500001D03*
X190987500Y-56275001D03*
X190987500Y-58775001D03*
X190987500Y-61275001D03*
X190987500Y-63775001D03*
X190987500Y-66275001D03*
X190987500Y-68775001D03*
X190987500Y-73775001D03*
X191352500Y-87875002D03*
X192002500Y-91700001D03*
X192002500Y-94300001D03*
X192287500Y-99125000D03*
X192287500Y-103375000D03*
X192837500Y-114755000D03*
X192837500Y-117255000D03*
X194337500Y-108355000D03*
X194852500Y-86900001D03*
X194852500Y-91700001D03*
X194852500Y-93300001D03*
X194852500Y-94900001D03*
X194852500Y-96500001D03*
X194852500Y-98100001D03*
X194862499Y-59245001D03*
X194862499Y-61745001D03*
X194862499Y-64245001D03*
X194862499Y-66745001D03*
X195337500Y-114755000D03*
X195337500Y-117255000D03*
X196837500Y-108355000D03*
X196852500Y-101365001D03*
X197052500Y-91850001D03*
X197837500Y-114755000D03*
X197837500Y-117255000D03*
X199337500Y-108355000D03*
X199612499Y-66745001D03*
X199612499Y-98355000D03*
X200337500Y-114755000D03*
X200337500Y-117255000D03*
X200602500Y-106445001D03*
X200612499Y-59325001D03*
X200702500Y-91205001D03*
X200702500Y-92475001D03*
X201152500Y-101365001D03*
X201402500Y-106445001D03*
X201837500Y-108355000D03*
X202112499Y-95855000D03*
X202837500Y-114755000D03*
X202837500Y-117255000D03*
X203212499Y-68100000D03*
X203562499Y-62925001D03*
X204262499Y-60725001D03*
X204337500Y-108355000D03*
X204612499Y-93355000D03*
X204612499Y-98355000D03*
X205057500Y-102635001D03*
X205112499Y-66745001D03*
X205337500Y-114755000D03*
X205337500Y-117255000D03*
X205862499Y-62925001D03*
X206652500Y-86900001D03*
X206652500Y-91700001D03*
X207112499Y-95855000D03*
X207112499Y-100855000D03*
X207362499Y-59245001D03*
X207577500Y-61905000D03*
X207837500Y-112255000D03*
X207862499Y-66745001D03*
X208277500Y-62605000D03*
X208852500Y-85375002D03*
X209612499Y-93355000D03*
X209612499Y-98355000D03*
X209612499Y-103355000D03*
X209612499Y-108355000D03*
X209687500Y-117255000D03*
X210337500Y-114755000D03*
X212112499Y-90855000D03*
X212112499Y-95855000D03*
X212112499Y-100855000D03*
X212112499Y-105855000D03*
X212112499Y-110855000D03*
X212362499Y-59245001D03*
X212362499Y-61745001D03*
X212362499Y-64245001D03*
X212362499Y-66745001D03*
X213852500Y-85375002D03*
X214562501Y-114605000D03*
X214612499Y-88355000D03*
X214612499Y-93355000D03*
X217112499Y-90855000D03*
X217112499Y-98355000D03*
X217112499Y-103355000D03*
X217112499Y-108355000D03*
X217362499Y-59245001D03*
X217362499Y-61745001D03*
X217362499Y-64245001D03*
X217362499Y-66745001D03*
X218012499Y-114605000D03*
X218012499Y-118355000D03*
X218852500Y-85375002D03*
X219612499Y-93355000D03*
X219612499Y-110855000D03*
X221762501Y-114605000D03*
X222362499Y-59245001D03*
X222362499Y-61745001D03*
X222362499Y-64245001D03*
X222362499Y-66745001D03*
X223852500Y-85375002D03*
X224602500Y-89935002D03*
X224612499Y-110855000D03*
X224852500Y-106445002D03*
X225212499Y-114605000D03*
X225212499Y-118355000D03*
X225352500Y-92475002D03*
X225402500Y-89935002D03*
X227362499Y-59245001D03*
X227362499Y-61745001D03*
X227362499Y-64245001D03*
X227362499Y-66745001D03*
X228852500Y-85375002D03*
X228962501Y-114605000D03*
X229152500Y-103905002D03*
X229152500Y-105175002D03*
X229152500Y-106445002D03*
X230652500Y-86475002D03*
X230652500Y-89675002D03*
X230652500Y-92875002D03*
X231352500Y-85375002D03*
X232112499Y-100855000D03*
X232362499Y-59245001D03*
X232362499Y-61745001D03*
X232362499Y-64245001D03*
X232412499Y-114605000D03*
X232412499Y-118355000D03*
X233502500Y-89675002D03*
X233502500Y-94125002D03*
X234152500Y-103945002D03*
X234152500Y-106445002D03*
X234612499Y-110855000D03*
X235437500Y-58305000D03*
X235992500Y-61467500D03*
X236162501Y-114605000D03*
X236352500Y-85375002D03*
X236352500Y-88475002D03*
X236352500Y-90925002D03*
X236352500Y-94125002D03*
X237112499Y-100855000D03*
X237977500Y-58305000D03*
X238195000Y-36560000D03*
X238195000Y-39260000D03*
X238195000Y-40734999D03*
X238692500Y-61467500D03*
X238852500Y-86625002D03*
X238852500Y-89125002D03*
X238852500Y-91625002D03*
X238852500Y-94125002D03*
X239145000Y-40734999D03*
X239152500Y-103945002D03*
X239152500Y-106445002D03*
X239612499Y-110855000D03*
X239612499Y-114605000D03*
X239612499Y-118355000D03*
X240095000Y-40734999D03*
X241147500Y-81205000D03*
X241352500Y-89125002D03*
X241352500Y-91625002D03*
X241352500Y-94125002D03*
X241357500Y-36005000D03*
X242112499Y-100855000D03*
X243097500Y-83205000D03*
X243147500Y-79655000D03*
X243542500Y-86117500D03*
X243852500Y-91625002D03*
X243852500Y-94125002D03*
X244147500Y-83205000D03*
X244152500Y-103945002D03*
X244242500Y-86817500D03*
X244242500Y-95317500D03*
X244612499Y-110855000D03*
X244812502Y-114605000D03*
X245147500Y-83205000D03*
X245592500Y-92167500D03*
X246592500Y-84117500D03*
X246592500Y-89117500D03*
X246652500Y-106445002D03*
X246817500Y-96317500D03*
X246862500Y-92167500D03*
X247112499Y-100855000D03*
X247112499Y-113355000D03*
X247112499Y-118355000D03*
X248132500Y-92167500D03*
X248147500Y-79655000D03*
X249092500Y-89117500D03*
X249152500Y-103945002D03*
X249192500Y-84117500D03*
X249317500Y-96317500D03*
X249402500Y-92167500D03*
X249612499Y-115855000D03*
X251042500Y-86817500D03*
X251042500Y-95317500D03*
X251592500Y-89117500D03*
X251647500Y-81655000D03*
X251652500Y-106445002D03*
X252112499Y-100855000D03*
X252112499Y-110855000D03*
X252112499Y-118355000D03*
X252392500Y-92167500D03*
X253392500Y-84117500D03*
X253662500Y-92167500D03*
X254092500Y-89117500D03*
X254317500Y-96317500D03*
X254932500Y-92167500D03*
X255127500Y-110815000D03*
X255992500Y-84117500D03*
X256202500Y-92167500D03*
X256377500Y-112065000D03*
X256592500Y-89117500D03*
X257112499Y-100855000D03*
X257112499Y-105855000D03*
X257112499Y-118355000D03*
X257817500Y-96317500D03*
X257837500Y-95317500D03*
X257842500Y-86817500D03*
X259092500Y-89117500D03*
X259147500Y-74155000D03*
X259147500Y-79155000D03*
X259187500Y-92167500D03*
X260192500Y-84117500D03*
X260385000Y-36610000D03*
X260385000Y-39310000D03*
X260385000Y-40810000D03*
X260457500Y-92167500D03*
X260817500Y-96317500D03*
X261592500Y-89117500D03*
X261647500Y-71655000D03*
X261647500Y-79155000D03*
X261727500Y-92167500D03*
X262112499Y-105855000D03*
X262112499Y-118355000D03*
X262792500Y-84117500D03*
X262997500Y-92167500D03*
X263547500Y-36055000D03*
X263547500Y-38595000D03*
X263817500Y-96317500D03*
X263837500Y-95317500D03*
X264092500Y-89117500D03*
X264147500Y-71655000D03*
X264612499Y-100855000D03*
X264612499Y-110855000D03*
X265597500Y-83205000D03*
X266592500Y-89117500D03*
X266647500Y-66655000D03*
X266647500Y-69155000D03*
X266647500Y-71655000D03*
X266647500Y-79155000D03*
X266647500Y-83205000D03*
X267112499Y-103355000D03*
X267112499Y-118355000D03*
X267647500Y-83205000D03*
X269092500Y-89117500D03*
X269147500Y-66655000D03*
X269147500Y-71655000D03*
X269317500Y-93317500D03*
X269317500Y-96317500D03*
X269612499Y-100855000D03*
X269612499Y-105855000D03*
X269612499Y-110855000D03*
X269612499Y-115855000D03*
X271592500Y-84117500D03*
X271592500Y-89117500D03*
X271647500Y-79155000D03*
X272112499Y-113355000D03*
X272112499Y-118355000D03*
X272447498Y-99685000D03*
X272447498Y-101935000D03*
X272447498Y-104185000D03*
X272447498Y-106435000D03*
X272447498Y-108685000D03*
X272447500Y-65805000D03*
X273247500Y-69355000D03*
X273677500Y-93205001D03*
X273677500Y-96205001D03*
X274047500Y-65805000D03*
X274092500Y-89117500D03*
X274247500Y-32455000D03*
X274247500Y-33455000D03*
X274327500Y-95105001D03*
X275022499Y-66529999D03*
X275447498Y-112835000D03*
X275947500Y-70705000D03*
X276197498Y-78854999D03*
X276197498Y-90354999D03*
X276197498Y-100785000D03*
X276197498Y-103085000D03*
X276197498Y-105285000D03*
X276197498Y-107535000D03*
X276197498Y-109835000D03*
X276197498Y-114035000D03*
X276247500Y-32455000D03*
X276247500Y-33455000D03*
X277177500Y-65205001D03*
X277177500Y-68705001D03*
X277177500Y-76705001D03*
X277177500Y-79705001D03*
X277177500Y-83205001D03*
X277177500Y-87205001D03*
D11*
X226867500Y-27255000D03*
X226867500Y-28755000D03*
X228367500Y-27255000D03*
X228367500Y-28755000D03*
X228367500Y-30255000D03*
X229867500Y-27255000D03*
X229867500Y-28755000D03*
X229867500Y-30255000D03*
X244207500Y-35775000D03*
X244207500Y-37175000D03*
X244207500Y-38777009D03*
X247207500Y-38777009D03*
X266397500Y-35805000D03*
X266397500Y-37205000D03*
X266397500Y-38665000D03*
X266397500Y-40065000D03*
D12*
%TO.C,M5*%
X240707500Y-28005000D03*
X245707500Y-29505000D03*
%TO.C,M6*%
X251797500Y-28005000D03*
X256797500Y-29505000D03*
%TO.C,M7*%
X262897500Y-28005000D03*
X267897500Y-29505000D03*
D13*
%TO.C,C50*%
X229537500Y-36955000D03*
X229537500Y-51955000D03*
D14*
%TO.C,C88*%
X214537500Y-40705001D03*
X214537500Y-48204999D03*
D15*
%TO.C,J16*%
X181787500Y-27964999D03*
X181787500Y-30505000D03*
X181787500Y-35585000D03*
X181787500Y-38124999D03*
X181787500Y-40665001D03*
X181787500Y-45745000D03*
X181787500Y-48285000D03*
X181787500Y-50825001D03*
%TO.C,J15*%
X181787500Y-74955000D03*
X181787500Y-77495000D03*
X181787500Y-80035000D03*
X181787500Y-82574999D03*
X181787500Y-90195000D03*
X181787500Y-92735000D03*
%TO.C,J14*%
X181787500Y-95275000D03*
X181787500Y-97815000D03*
X181787500Y-100355000D03*
X181787500Y-102894999D03*
X181787500Y-105435001D03*
X181787500Y-107975000D03*
X181787500Y-110515000D03*
X181787500Y-113055000D03*
%TO.C,J1*%
X255087500Y-113314999D03*
X255087500Y-115855001D03*
X257627500Y-113315000D03*
X257627500Y-115855000D03*
%TO.C,U7*%
X259497500Y-76655000D03*
%TO.C,J1*%
X260167500Y-113315000D03*
X260167500Y-115855000D03*
%TO.C,U7*%
X261097500Y-73755000D03*
X262697500Y-76655000D03*
%TO.C,J1*%
X262707500Y-113315000D03*
X262707500Y-115855000D03*
%TO.C,U7*%
X264297500Y-73755001D03*
%TO.C,J1*%
X265247500Y-113315000D03*
X265247500Y-115855000D03*
%TO.C,U7*%
X265897500Y-76655000D03*
X267497500Y-73755000D03*
%TO.C,J1*%
X267787500Y-113314999D03*
X267787500Y-115855001D03*
%TO.C,U7*%
X269097500Y-76655000D03*
X270697500Y-73755000D03*
X272297500Y-76655000D03*
X274297500Y-73755000D03*
D16*
X244097500Y-76655000D03*
X246097500Y-73755000D03*
X247397500Y-47955000D03*
X249497500Y-76655000D03*
X251097500Y-73755000D03*
X252097500Y-47955000D03*
X254497500Y-76655000D03*
X256097500Y-73755000D03*
X256797500Y-47955000D03*
X261497500Y-47955000D03*
X266197500Y-47955000D03*
X270897500Y-47955000D03*
X275597500Y-47955000D03*
D17*
%TO.C,J5*%
X229577500Y-23755000D03*
X234657500Y-23755000D03*
%TO.C,J2*%
X240667500Y-23755000D03*
X245747500Y-23755000D03*
%TO.C,J3*%
X251757500Y-23755000D03*
X256837500Y-23755000D03*
%TO.C,J4*%
X262857500Y-23755000D03*
X267937500Y-23755000D03*
D18*
%TO.C,C9*%
X203237500Y-34455000D03*
X203237500Y-44455000D03*
M02*
