%TF.GenerationSoftware,KiCad,Pcbnew,8.0.8*%
%TF.CreationDate,2025-01-19T23:14:19+07:00*%
%TF.ProjectId,HW.ACIM-INV,48572e41-4349-44d2-9d49-4e562e6b6963,0.1*%
%TF.SameCoordinates,Original*%
%TF.FileFunction,Drillmap*%
%TF.FilePolarity,Positive*%
%FSLAX45Y45*%
G04 Gerber Fmt 4.5, Leading zero omitted, Abs format (unit mm)*
G04 Created by KiCad (PCBNEW 8.0.8) date 2025-01-19 23:14:19*
%MOMM*%
%LPD*%
G01*
G04 APERTURE LIST*
%ADD10C,0.050000*%
%ADD11C,0.200000*%
%ADD12C,0.120000*%
%ADD13C,0.220000*%
G04 APERTURE END LIST*
D10*
X24109250Y-6126750D02*
X24109250Y-6266750D01*
X27818750Y-11725500D02*
X27818750Y-2375500D01*
X23484250Y-5626750D02*
X23984250Y-5626750D01*
X24109250Y-6266750D02*
G75*
G02*
X23959250Y-6416750I-150000J0D01*
G01*
X19431292Y-6958458D02*
G75*
G02*
X19281292Y-6808458I-2J149998D01*
G01*
X22993374Y-6907626D02*
G75*
G02*
X22922643Y-6836895I-35355J35375D01*
G01*
X26408500Y-3426000D02*
G75*
G02*
X26558500Y-3576000I0J-150000D01*
G01*
X19281250Y-5798500D02*
G75*
G02*
X19431250Y-5648500I150000J0D01*
G01*
X20931250Y-5648500D02*
X19431250Y-5648500D01*
X27059750Y-9353500D02*
X26816750Y-9110500D01*
X24189500Y-3421000D02*
X23739500Y-3421000D01*
X27634750Y-9749543D02*
G75*
G02*
X27634750Y-9849537I0J-49997D01*
G01*
X26558500Y-4046000D02*
G75*
G02*
X26458500Y-4046000I-50000J0D01*
G01*
X19831292Y-6858458D02*
G75*
G02*
X19831292Y-6958462I-2J-50002D01*
G01*
X27634750Y-9749543D02*
X27302750Y-9749500D01*
X19281292Y-6808458D02*
X19281250Y-5798500D01*
X24339500Y-3571000D02*
X24339500Y-4041000D01*
X25908500Y-4045500D02*
G75*
G02*
X25808500Y-4045500I-50000J0D01*
G01*
X20931250Y-5748500D02*
X19431250Y-5748500D01*
X24189500Y-3521000D02*
G75*
G02*
X24239500Y-3571000I0J-50000D01*
G01*
X25958500Y-3526000D02*
X26408500Y-3526000D01*
X19381250Y-6808458D02*
X19381250Y-5798500D01*
X23484250Y-5726750D02*
G75*
G02*
X23484250Y-5626750I0J50000D01*
G01*
X23689500Y-4040500D02*
G75*
G02*
X23589500Y-4040500I-50000J0D01*
G01*
X26408500Y-3526000D02*
G75*
G02*
X26458500Y-3576000I0J-50000D01*
G01*
X27059750Y-9656500D02*
X27059750Y-9353500D01*
X24339500Y-4041000D02*
G75*
G02*
X24239500Y-4041000I-50000J0D01*
G01*
X19431292Y-6958458D02*
X19831292Y-6958458D01*
X24009250Y-6266750D02*
X24009250Y-6126750D01*
X27252792Y-9849543D02*
X27634750Y-9849543D01*
X23484250Y-6416750D02*
X23959250Y-6416750D01*
X27593750Y-2150500D02*
X18243750Y-2150500D01*
X18243750Y-11950500D02*
G75*
G02*
X18018750Y-11725500I0J225000D01*
G01*
X19381250Y-5798500D02*
G75*
G02*
X19431250Y-5748500I50000J0D01*
G01*
X25908500Y-3576000D02*
G75*
G02*
X25958500Y-3526000I50000J0D01*
G01*
X23689500Y-3571000D02*
X23689500Y-4040500D01*
X25908500Y-3576000D02*
X25908500Y-4045500D01*
X24062045Y-8487706D02*
X24584750Y-9010500D01*
X22993374Y-6907626D02*
X23484250Y-6416750D01*
X27159750Y-9306500D02*
X26866708Y-9010500D01*
X18243750Y-11950500D02*
X27593750Y-11950500D01*
X24239500Y-3571000D02*
X24239500Y-4041000D01*
X26458500Y-3576000D02*
X26458500Y-4046000D01*
X27159750Y-9306500D02*
X27159750Y-9606500D01*
X19431250Y-6858458D02*
G75*
G02*
X19381252Y-6808458I0J49998D01*
G01*
X27059750Y-9656500D02*
X27252792Y-9849543D01*
X24009250Y-6266750D02*
G75*
G02*
X23959250Y-6316750I-50000J0D01*
G01*
X23959250Y-6316750D02*
X23444250Y-6316750D01*
X27159750Y-9606500D02*
X27302750Y-9749500D01*
X23739500Y-3521000D02*
X24189500Y-3521000D01*
X23589500Y-4040500D02*
X23589500Y-3571000D01*
X23984250Y-5626750D02*
G75*
G02*
X23984250Y-5726750I0J-50000D01*
G01*
X18018750Y-2375500D02*
X18018750Y-11725500D01*
X24189500Y-3421000D02*
G75*
G02*
X24339500Y-3571000I0J-150000D01*
G01*
X24584750Y-9010500D02*
X26866708Y-9010500D01*
X24009250Y-6126750D02*
G75*
G02*
X24109250Y-6126750I50000J0D01*
G01*
X19831292Y-6858458D02*
X19431250Y-6858458D01*
X27593750Y-2150500D02*
G75*
G02*
X27818750Y-2375500I0J-225000D01*
G01*
X23689500Y-3571000D02*
G75*
G02*
X23739500Y-3521000I50000J0D01*
G01*
X22922664Y-6836915D02*
X23444250Y-6316750D01*
X27818750Y-11725500D02*
G75*
G02*
X27593750Y-11950500I-225000J0D01*
G01*
X23991334Y-8558416D02*
X24544750Y-9110500D01*
X23484250Y-5726750D02*
X23984250Y-5726750D01*
X25808500Y-3576000D02*
G75*
G02*
X25958500Y-3426000I150000J0D01*
G01*
X20931250Y-5648500D02*
G75*
G02*
X20931250Y-5748500I0J-50000D01*
G01*
X23991334Y-8558416D02*
G75*
G02*
X24062046Y-8487705I35356J35356D01*
G01*
X26816750Y-9110500D02*
X24544750Y-9110500D01*
X18018750Y-2375500D02*
G75*
G02*
X18243750Y-2150500I225000J0D01*
G01*
X26558500Y-3576000D02*
X26558500Y-4046000D01*
X23589500Y-3571000D02*
G75*
G02*
X23739500Y-3421000I150000J0D01*
G01*
X26408500Y-3426000D02*
X25958500Y-3426000D01*
X25808500Y-4045500D02*
X25808500Y-3576000D01*
D11*
D12*
X24209750Y-4735500D02*
X24329750Y-4855500D01*
X24329750Y-4735500D02*
X24209750Y-4855500D01*
D13*
X18353750Y-7050500D02*
G75*
G02*
X18133750Y-7050500I-110000J0D01*
G01*
X18133750Y-7050500D02*
G75*
G02*
X18353750Y-7050500I110000J0D01*
G01*
X18353750Y-2375500D02*
G75*
G02*
X18133750Y-2375500I-110000J0D01*
G01*
X18133750Y-2375500D02*
G75*
G02*
X18353750Y-2375500I110000J0D01*
G01*
X18353750Y-11725500D02*
G75*
G02*
X18133750Y-11725500I-110000J0D01*
G01*
X18133750Y-11725500D02*
G75*
G02*
X18353750Y-11725500I110000J0D01*
G01*
X22603750Y-2375500D02*
G75*
G02*
X22383750Y-2375500I-110000J0D01*
G01*
X22383750Y-2375500D02*
G75*
G02*
X22603750Y-2375500I110000J0D01*
G01*
X23028750Y-11100500D02*
G75*
G02*
X22808750Y-11100500I-110000J0D01*
G01*
X22808750Y-11100500D02*
G75*
G02*
X23028750Y-11100500I110000J0D01*
G01*
X24362270Y-5864685D02*
G75*
G02*
X24142270Y-5864685I-110000J0D01*
G01*
X24142270Y-5864685D02*
G75*
G02*
X24362270Y-5864685I110000J0D01*
G01*
X27687230Y-5864686D02*
G75*
G02*
X27467230Y-5864686I-110000J0D01*
G01*
X27467230Y-5864686D02*
G75*
G02*
X27687230Y-5864686I110000J0D01*
G01*
X27703750Y-11725500D02*
G75*
G02*
X27483750Y-11725500I-110000J0D01*
G01*
X27483750Y-11725500D02*
G75*
G02*
X27703750Y-11725500I110000J0D01*
G01*
X27703750Y-2375500D02*
G75*
G02*
X27483750Y-2375500I-110000J0D01*
G01*
X27483750Y-2375500D02*
G75*
G02*
X27703750Y-2375500I110000J0D01*
G01*
D11*
X18277027Y-12264484D02*
X18277027Y-12064484D01*
X18277027Y-12064484D02*
X18324646Y-12064484D01*
X18324646Y-12064484D02*
X18353217Y-12074008D01*
X18353217Y-12074008D02*
X18372265Y-12093055D01*
X18372265Y-12093055D02*
X18381789Y-12112103D01*
X18381789Y-12112103D02*
X18391313Y-12150198D01*
X18391313Y-12150198D02*
X18391313Y-12178769D01*
X18391313Y-12178769D02*
X18381789Y-12216865D01*
X18381789Y-12216865D02*
X18372265Y-12235912D01*
X18372265Y-12235912D02*
X18353217Y-12254960D01*
X18353217Y-12254960D02*
X18324646Y-12264484D01*
X18324646Y-12264484D02*
X18277027Y-12264484D01*
X18477027Y-12264484D02*
X18477027Y-12131150D01*
X18477027Y-12169246D02*
X18486551Y-12150198D01*
X18486551Y-12150198D02*
X18496074Y-12140674D01*
X18496074Y-12140674D02*
X18515122Y-12131150D01*
X18515122Y-12131150D02*
X18534170Y-12131150D01*
X18600836Y-12264484D02*
X18600836Y-12131150D01*
X18600836Y-12064484D02*
X18591313Y-12074008D01*
X18591313Y-12074008D02*
X18600836Y-12083531D01*
X18600836Y-12083531D02*
X18610360Y-12074008D01*
X18610360Y-12074008D02*
X18600836Y-12064484D01*
X18600836Y-12064484D02*
X18600836Y-12083531D01*
X18724646Y-12264484D02*
X18705598Y-12254960D01*
X18705598Y-12254960D02*
X18696074Y-12235912D01*
X18696074Y-12235912D02*
X18696074Y-12064484D01*
X18829408Y-12264484D02*
X18810360Y-12254960D01*
X18810360Y-12254960D02*
X18800836Y-12235912D01*
X18800836Y-12235912D02*
X18800836Y-12064484D01*
X19057979Y-12264484D02*
X19057979Y-12064484D01*
X19057979Y-12064484D02*
X19124646Y-12207341D01*
X19124646Y-12207341D02*
X19191313Y-12064484D01*
X19191313Y-12064484D02*
X19191313Y-12264484D01*
X19372265Y-12264484D02*
X19372265Y-12159722D01*
X19372265Y-12159722D02*
X19362741Y-12140674D01*
X19362741Y-12140674D02*
X19343694Y-12131150D01*
X19343694Y-12131150D02*
X19305598Y-12131150D01*
X19305598Y-12131150D02*
X19286551Y-12140674D01*
X19372265Y-12254960D02*
X19353217Y-12264484D01*
X19353217Y-12264484D02*
X19305598Y-12264484D01*
X19305598Y-12264484D02*
X19286551Y-12254960D01*
X19286551Y-12254960D02*
X19277027Y-12235912D01*
X19277027Y-12235912D02*
X19277027Y-12216865D01*
X19277027Y-12216865D02*
X19286551Y-12197817D01*
X19286551Y-12197817D02*
X19305598Y-12188293D01*
X19305598Y-12188293D02*
X19353217Y-12188293D01*
X19353217Y-12188293D02*
X19372265Y-12178769D01*
X19467503Y-12131150D02*
X19467503Y-12331150D01*
X19467503Y-12140674D02*
X19486551Y-12131150D01*
X19486551Y-12131150D02*
X19524646Y-12131150D01*
X19524646Y-12131150D02*
X19543694Y-12140674D01*
X19543694Y-12140674D02*
X19553217Y-12150198D01*
X19553217Y-12150198D02*
X19562741Y-12169246D01*
X19562741Y-12169246D02*
X19562741Y-12226388D01*
X19562741Y-12226388D02*
X19553217Y-12245436D01*
X19553217Y-12245436D02*
X19543694Y-12254960D01*
X19543694Y-12254960D02*
X19524646Y-12264484D01*
X19524646Y-12264484D02*
X19486551Y-12264484D01*
X19486551Y-12264484D02*
X19467503Y-12254960D01*
X19648455Y-12245436D02*
X19657979Y-12254960D01*
X19657979Y-12254960D02*
X19648455Y-12264484D01*
X19648455Y-12264484D02*
X19638932Y-12254960D01*
X19638932Y-12254960D02*
X19648455Y-12245436D01*
X19648455Y-12245436D02*
X19648455Y-12264484D01*
X19648455Y-12140674D02*
X19657979Y-12150198D01*
X19657979Y-12150198D02*
X19648455Y-12159722D01*
X19648455Y-12159722D02*
X19638932Y-12150198D01*
X19638932Y-12150198D02*
X19648455Y-12140674D01*
X19648455Y-12140674D02*
X19648455Y-12159722D01*
D12*
X17896250Y-12533000D02*
X18016250Y-12653000D01*
X18016250Y-12533000D02*
X17896250Y-12653000D01*
D11*
X18381789Y-12684484D02*
X18267503Y-12684484D01*
X18324646Y-12684484D02*
X18324646Y-12484484D01*
X18324646Y-12484484D02*
X18305598Y-12513055D01*
X18305598Y-12513055D02*
X18286551Y-12532103D01*
X18286551Y-12532103D02*
X18267503Y-12541627D01*
X18467503Y-12665436D02*
X18477027Y-12674960D01*
X18477027Y-12674960D02*
X18467503Y-12684484D01*
X18467503Y-12684484D02*
X18457979Y-12674960D01*
X18457979Y-12674960D02*
X18467503Y-12665436D01*
X18467503Y-12665436D02*
X18467503Y-12684484D01*
X18553217Y-12503531D02*
X18562741Y-12494008D01*
X18562741Y-12494008D02*
X18581789Y-12484484D01*
X18581789Y-12484484D02*
X18629408Y-12484484D01*
X18629408Y-12484484D02*
X18648455Y-12494008D01*
X18648455Y-12494008D02*
X18657979Y-12503531D01*
X18657979Y-12503531D02*
X18667503Y-12522579D01*
X18667503Y-12522579D02*
X18667503Y-12541627D01*
X18667503Y-12541627D02*
X18657979Y-12570198D01*
X18657979Y-12570198D02*
X18543694Y-12684484D01*
X18543694Y-12684484D02*
X18667503Y-12684484D01*
X18791313Y-12484484D02*
X18810360Y-12484484D01*
X18810360Y-12484484D02*
X18829408Y-12494008D01*
X18829408Y-12494008D02*
X18838932Y-12503531D01*
X18838932Y-12503531D02*
X18848455Y-12522579D01*
X18848455Y-12522579D02*
X18857979Y-12560674D01*
X18857979Y-12560674D02*
X18857979Y-12608293D01*
X18857979Y-12608293D02*
X18848455Y-12646388D01*
X18848455Y-12646388D02*
X18838932Y-12665436D01*
X18838932Y-12665436D02*
X18829408Y-12674960D01*
X18829408Y-12674960D02*
X18810360Y-12684484D01*
X18810360Y-12684484D02*
X18791313Y-12684484D01*
X18791313Y-12684484D02*
X18772265Y-12674960D01*
X18772265Y-12674960D02*
X18762741Y-12665436D01*
X18762741Y-12665436D02*
X18753217Y-12646388D01*
X18753217Y-12646388D02*
X18743694Y-12608293D01*
X18743694Y-12608293D02*
X18743694Y-12560674D01*
X18743694Y-12560674D02*
X18753217Y-12522579D01*
X18753217Y-12522579D02*
X18762741Y-12503531D01*
X18762741Y-12503531D02*
X18772265Y-12494008D01*
X18772265Y-12494008D02*
X18791313Y-12484484D01*
X18981789Y-12484484D02*
X19000836Y-12484484D01*
X19000836Y-12484484D02*
X19019884Y-12494008D01*
X19019884Y-12494008D02*
X19029408Y-12503531D01*
X19029408Y-12503531D02*
X19038932Y-12522579D01*
X19038932Y-12522579D02*
X19048455Y-12560674D01*
X19048455Y-12560674D02*
X19048455Y-12608293D01*
X19048455Y-12608293D02*
X19038932Y-12646388D01*
X19038932Y-12646388D02*
X19029408Y-12665436D01*
X19029408Y-12665436D02*
X19019884Y-12674960D01*
X19019884Y-12674960D02*
X19000836Y-12684484D01*
X19000836Y-12684484D02*
X18981789Y-12684484D01*
X18981789Y-12684484D02*
X18962741Y-12674960D01*
X18962741Y-12674960D02*
X18953217Y-12665436D01*
X18953217Y-12665436D02*
X18943694Y-12646388D01*
X18943694Y-12646388D02*
X18934170Y-12608293D01*
X18934170Y-12608293D02*
X18934170Y-12560674D01*
X18934170Y-12560674D02*
X18943694Y-12522579D01*
X18943694Y-12522579D02*
X18953217Y-12503531D01*
X18953217Y-12503531D02*
X18962741Y-12494008D01*
X18962741Y-12494008D02*
X18981789Y-12484484D01*
X19134170Y-12684484D02*
X19134170Y-12551150D01*
X19134170Y-12570198D02*
X19143694Y-12560674D01*
X19143694Y-12560674D02*
X19162741Y-12551150D01*
X19162741Y-12551150D02*
X19191313Y-12551150D01*
X19191313Y-12551150D02*
X19210360Y-12560674D01*
X19210360Y-12560674D02*
X19219884Y-12579722D01*
X19219884Y-12579722D02*
X19219884Y-12684484D01*
X19219884Y-12579722D02*
X19229408Y-12560674D01*
X19229408Y-12560674D02*
X19248455Y-12551150D01*
X19248455Y-12551150D02*
X19277027Y-12551150D01*
X19277027Y-12551150D02*
X19296075Y-12560674D01*
X19296075Y-12560674D02*
X19305598Y-12579722D01*
X19305598Y-12579722D02*
X19305598Y-12684484D01*
X19400836Y-12684484D02*
X19400836Y-12551150D01*
X19400836Y-12570198D02*
X19410360Y-12560674D01*
X19410360Y-12560674D02*
X19429408Y-12551150D01*
X19429408Y-12551150D02*
X19457979Y-12551150D01*
X19457979Y-12551150D02*
X19477027Y-12560674D01*
X19477027Y-12560674D02*
X19486551Y-12579722D01*
X19486551Y-12579722D02*
X19486551Y-12684484D01*
X19486551Y-12579722D02*
X19496075Y-12560674D01*
X19496075Y-12560674D02*
X19515122Y-12551150D01*
X19515122Y-12551150D02*
X19543694Y-12551150D01*
X19543694Y-12551150D02*
X19562741Y-12560674D01*
X19562741Y-12560674D02*
X19572265Y-12579722D01*
X19572265Y-12579722D02*
X19572265Y-12684484D01*
X19962741Y-12474960D02*
X19791313Y-12732103D01*
X20219884Y-12484484D02*
X20238932Y-12484484D01*
X20238932Y-12484484D02*
X20257979Y-12494008D01*
X20257979Y-12494008D02*
X20267503Y-12503531D01*
X20267503Y-12503531D02*
X20277027Y-12522579D01*
X20277027Y-12522579D02*
X20286551Y-12560674D01*
X20286551Y-12560674D02*
X20286551Y-12608293D01*
X20286551Y-12608293D02*
X20277027Y-12646388D01*
X20277027Y-12646388D02*
X20267503Y-12665436D01*
X20267503Y-12665436D02*
X20257979Y-12674960D01*
X20257979Y-12674960D02*
X20238932Y-12684484D01*
X20238932Y-12684484D02*
X20219884Y-12684484D01*
X20219884Y-12684484D02*
X20200837Y-12674960D01*
X20200837Y-12674960D02*
X20191313Y-12665436D01*
X20191313Y-12665436D02*
X20181789Y-12646388D01*
X20181789Y-12646388D02*
X20172265Y-12608293D01*
X20172265Y-12608293D02*
X20172265Y-12560674D01*
X20172265Y-12560674D02*
X20181789Y-12522579D01*
X20181789Y-12522579D02*
X20191313Y-12503531D01*
X20191313Y-12503531D02*
X20200837Y-12494008D01*
X20200837Y-12494008D02*
X20219884Y-12484484D01*
X20372265Y-12665436D02*
X20381789Y-12674960D01*
X20381789Y-12674960D02*
X20372265Y-12684484D01*
X20372265Y-12684484D02*
X20362741Y-12674960D01*
X20362741Y-12674960D02*
X20372265Y-12665436D01*
X20372265Y-12665436D02*
X20372265Y-12684484D01*
X20505598Y-12484484D02*
X20524646Y-12484484D01*
X20524646Y-12484484D02*
X20543694Y-12494008D01*
X20543694Y-12494008D02*
X20553218Y-12503531D01*
X20553218Y-12503531D02*
X20562741Y-12522579D01*
X20562741Y-12522579D02*
X20572265Y-12560674D01*
X20572265Y-12560674D02*
X20572265Y-12608293D01*
X20572265Y-12608293D02*
X20562741Y-12646388D01*
X20562741Y-12646388D02*
X20553218Y-12665436D01*
X20553218Y-12665436D02*
X20543694Y-12674960D01*
X20543694Y-12674960D02*
X20524646Y-12684484D01*
X20524646Y-12684484D02*
X20505598Y-12684484D01*
X20505598Y-12684484D02*
X20486551Y-12674960D01*
X20486551Y-12674960D02*
X20477027Y-12665436D01*
X20477027Y-12665436D02*
X20467503Y-12646388D01*
X20467503Y-12646388D02*
X20457979Y-12608293D01*
X20457979Y-12608293D02*
X20457979Y-12560674D01*
X20457979Y-12560674D02*
X20467503Y-12522579D01*
X20467503Y-12522579D02*
X20477027Y-12503531D01*
X20477027Y-12503531D02*
X20486551Y-12494008D01*
X20486551Y-12494008D02*
X20505598Y-12484484D01*
X20743694Y-12551150D02*
X20743694Y-12684484D01*
X20696075Y-12474960D02*
X20648456Y-12617817D01*
X20648456Y-12617817D02*
X20772265Y-12617817D01*
X20829408Y-12484484D02*
X20962741Y-12484484D01*
X20962741Y-12484484D02*
X20877027Y-12684484D01*
X21029408Y-12503531D02*
X21038932Y-12494008D01*
X21038932Y-12494008D02*
X21057979Y-12484484D01*
X21057979Y-12484484D02*
X21105599Y-12484484D01*
X21105599Y-12484484D02*
X21124646Y-12494008D01*
X21124646Y-12494008D02*
X21134170Y-12503531D01*
X21134170Y-12503531D02*
X21143694Y-12522579D01*
X21143694Y-12522579D02*
X21143694Y-12541627D01*
X21143694Y-12541627D02*
X21134170Y-12570198D01*
X21134170Y-12570198D02*
X21019884Y-12684484D01*
X21019884Y-12684484D02*
X21143694Y-12684484D01*
X21219884Y-12484484D02*
X21219884Y-12522579D01*
X21296075Y-12484484D02*
X21296075Y-12522579D01*
X21591313Y-12760674D02*
X21581789Y-12751150D01*
X21581789Y-12751150D02*
X21562741Y-12722579D01*
X21562741Y-12722579D02*
X21553218Y-12703531D01*
X21553218Y-12703531D02*
X21543694Y-12674960D01*
X21543694Y-12674960D02*
X21534170Y-12627341D01*
X21534170Y-12627341D02*
X21534170Y-12589246D01*
X21534170Y-12589246D02*
X21543694Y-12541627D01*
X21543694Y-12541627D02*
X21553218Y-12513055D01*
X21553218Y-12513055D02*
X21562741Y-12494008D01*
X21562741Y-12494008D02*
X21581789Y-12465436D01*
X21581789Y-12465436D02*
X21591313Y-12455912D01*
X21772265Y-12684484D02*
X21657980Y-12684484D01*
X21715122Y-12684484D02*
X21715122Y-12484484D01*
X21715122Y-12484484D02*
X21696075Y-12513055D01*
X21696075Y-12513055D02*
X21677027Y-12532103D01*
X21677027Y-12532103D02*
X21657980Y-12541627D01*
X22010361Y-12684484D02*
X22010361Y-12484484D01*
X22096075Y-12684484D02*
X22096075Y-12579722D01*
X22096075Y-12579722D02*
X22086551Y-12560674D01*
X22086551Y-12560674D02*
X22067503Y-12551150D01*
X22067503Y-12551150D02*
X22038932Y-12551150D01*
X22038932Y-12551150D02*
X22019884Y-12560674D01*
X22019884Y-12560674D02*
X22010361Y-12570198D01*
X22219884Y-12684484D02*
X22200837Y-12674960D01*
X22200837Y-12674960D02*
X22191313Y-12665436D01*
X22191313Y-12665436D02*
X22181789Y-12646388D01*
X22181789Y-12646388D02*
X22181789Y-12589246D01*
X22181789Y-12589246D02*
X22191313Y-12570198D01*
X22191313Y-12570198D02*
X22200837Y-12560674D01*
X22200837Y-12560674D02*
X22219884Y-12551150D01*
X22219884Y-12551150D02*
X22248456Y-12551150D01*
X22248456Y-12551150D02*
X22267503Y-12560674D01*
X22267503Y-12560674D02*
X22277027Y-12570198D01*
X22277027Y-12570198D02*
X22286551Y-12589246D01*
X22286551Y-12589246D02*
X22286551Y-12646388D01*
X22286551Y-12646388D02*
X22277027Y-12665436D01*
X22277027Y-12665436D02*
X22267503Y-12674960D01*
X22267503Y-12674960D02*
X22248456Y-12684484D01*
X22248456Y-12684484D02*
X22219884Y-12684484D01*
X22400837Y-12684484D02*
X22381789Y-12674960D01*
X22381789Y-12674960D02*
X22372265Y-12655912D01*
X22372265Y-12655912D02*
X22372265Y-12484484D01*
X22553218Y-12674960D02*
X22534170Y-12684484D01*
X22534170Y-12684484D02*
X22496075Y-12684484D01*
X22496075Y-12684484D02*
X22477027Y-12674960D01*
X22477027Y-12674960D02*
X22467503Y-12655912D01*
X22467503Y-12655912D02*
X22467503Y-12579722D01*
X22467503Y-12579722D02*
X22477027Y-12560674D01*
X22477027Y-12560674D02*
X22496075Y-12551150D01*
X22496075Y-12551150D02*
X22534170Y-12551150D01*
X22534170Y-12551150D02*
X22553218Y-12560674D01*
X22553218Y-12560674D02*
X22562741Y-12579722D01*
X22562741Y-12579722D02*
X22562741Y-12598769D01*
X22562741Y-12598769D02*
X22467503Y-12617817D01*
X22629408Y-12760674D02*
X22638932Y-12751150D01*
X22638932Y-12751150D02*
X22657980Y-12722579D01*
X22657980Y-12722579D02*
X22667503Y-12703531D01*
X22667503Y-12703531D02*
X22677027Y-12674960D01*
X22677027Y-12674960D02*
X22686551Y-12627341D01*
X22686551Y-12627341D02*
X22686551Y-12589246D01*
X22686551Y-12589246D02*
X22677027Y-12541627D01*
X22677027Y-12541627D02*
X22667503Y-12513055D01*
X22667503Y-12513055D02*
X22657980Y-12494008D01*
X22657980Y-12494008D02*
X22638932Y-12465436D01*
X22638932Y-12465436D02*
X22629408Y-12455912D01*
X22991313Y-12760674D02*
X22981789Y-12751150D01*
X22981789Y-12751150D02*
X22962741Y-12722579D01*
X22962741Y-12722579D02*
X22953218Y-12703531D01*
X22953218Y-12703531D02*
X22943694Y-12674960D01*
X22943694Y-12674960D02*
X22934170Y-12627341D01*
X22934170Y-12627341D02*
X22934170Y-12589246D01*
X22934170Y-12589246D02*
X22943694Y-12541627D01*
X22943694Y-12541627D02*
X22953218Y-12513055D01*
X22953218Y-12513055D02*
X22962741Y-12494008D01*
X22962741Y-12494008D02*
X22981789Y-12465436D01*
X22981789Y-12465436D02*
X22991313Y-12455912D01*
X23067503Y-12551150D02*
X23067503Y-12684484D01*
X23067503Y-12570198D02*
X23077027Y-12560674D01*
X23077027Y-12560674D02*
X23096075Y-12551150D01*
X23096075Y-12551150D02*
X23124646Y-12551150D01*
X23124646Y-12551150D02*
X23143694Y-12560674D01*
X23143694Y-12560674D02*
X23153218Y-12579722D01*
X23153218Y-12579722D02*
X23153218Y-12684484D01*
X23277027Y-12684484D02*
X23257980Y-12674960D01*
X23257980Y-12674960D02*
X23248456Y-12665436D01*
X23248456Y-12665436D02*
X23238932Y-12646388D01*
X23238932Y-12646388D02*
X23238932Y-12589246D01*
X23238932Y-12589246D02*
X23248456Y-12570198D01*
X23248456Y-12570198D02*
X23257980Y-12560674D01*
X23257980Y-12560674D02*
X23277027Y-12551150D01*
X23277027Y-12551150D02*
X23305599Y-12551150D01*
X23305599Y-12551150D02*
X23324646Y-12560674D01*
X23324646Y-12560674D02*
X23334170Y-12570198D01*
X23334170Y-12570198D02*
X23343694Y-12589246D01*
X23343694Y-12589246D02*
X23343694Y-12646388D01*
X23343694Y-12646388D02*
X23334170Y-12665436D01*
X23334170Y-12665436D02*
X23324646Y-12674960D01*
X23324646Y-12674960D02*
X23305599Y-12684484D01*
X23305599Y-12684484D02*
X23277027Y-12684484D01*
X23400837Y-12551150D02*
X23477027Y-12551150D01*
X23429408Y-12484484D02*
X23429408Y-12655912D01*
X23429408Y-12655912D02*
X23438932Y-12674960D01*
X23438932Y-12674960D02*
X23457980Y-12684484D01*
X23457980Y-12684484D02*
X23477027Y-12684484D01*
X23696075Y-12551150D02*
X23696075Y-12751150D01*
X23696075Y-12560674D02*
X23715122Y-12551150D01*
X23715122Y-12551150D02*
X23753218Y-12551150D01*
X23753218Y-12551150D02*
X23772265Y-12560674D01*
X23772265Y-12560674D02*
X23781789Y-12570198D01*
X23781789Y-12570198D02*
X23791313Y-12589246D01*
X23791313Y-12589246D02*
X23791313Y-12646388D01*
X23791313Y-12646388D02*
X23781789Y-12665436D01*
X23781789Y-12665436D02*
X23772265Y-12674960D01*
X23772265Y-12674960D02*
X23753218Y-12684484D01*
X23753218Y-12684484D02*
X23715122Y-12684484D01*
X23715122Y-12684484D02*
X23696075Y-12674960D01*
X23905599Y-12684484D02*
X23886551Y-12674960D01*
X23886551Y-12674960D02*
X23877027Y-12655912D01*
X23877027Y-12655912D02*
X23877027Y-12484484D01*
X24067503Y-12684484D02*
X24067503Y-12579722D01*
X24067503Y-12579722D02*
X24057980Y-12560674D01*
X24057980Y-12560674D02*
X24038932Y-12551150D01*
X24038932Y-12551150D02*
X24000837Y-12551150D01*
X24000837Y-12551150D02*
X23981789Y-12560674D01*
X24067503Y-12674960D02*
X24048456Y-12684484D01*
X24048456Y-12684484D02*
X24000837Y-12684484D01*
X24000837Y-12684484D02*
X23981789Y-12674960D01*
X23981789Y-12674960D02*
X23972265Y-12655912D01*
X23972265Y-12655912D02*
X23972265Y-12636865D01*
X23972265Y-12636865D02*
X23981789Y-12617817D01*
X23981789Y-12617817D02*
X24000837Y-12608293D01*
X24000837Y-12608293D02*
X24048456Y-12608293D01*
X24048456Y-12608293D02*
X24067503Y-12598769D01*
X24134170Y-12551150D02*
X24210361Y-12551150D01*
X24162742Y-12484484D02*
X24162742Y-12655912D01*
X24162742Y-12655912D02*
X24172265Y-12674960D01*
X24172265Y-12674960D02*
X24191313Y-12684484D01*
X24191313Y-12684484D02*
X24210361Y-12684484D01*
X24353218Y-12674960D02*
X24334170Y-12684484D01*
X24334170Y-12684484D02*
X24296075Y-12684484D01*
X24296075Y-12684484D02*
X24277027Y-12674960D01*
X24277027Y-12674960D02*
X24267503Y-12655912D01*
X24267503Y-12655912D02*
X24267503Y-12579722D01*
X24267503Y-12579722D02*
X24277027Y-12560674D01*
X24277027Y-12560674D02*
X24296075Y-12551150D01*
X24296075Y-12551150D02*
X24334170Y-12551150D01*
X24334170Y-12551150D02*
X24353218Y-12560674D01*
X24353218Y-12560674D02*
X24362742Y-12579722D01*
X24362742Y-12579722D02*
X24362742Y-12598769D01*
X24362742Y-12598769D02*
X24267503Y-12617817D01*
X24534170Y-12684484D02*
X24534170Y-12484484D01*
X24534170Y-12674960D02*
X24515123Y-12684484D01*
X24515123Y-12684484D02*
X24477027Y-12684484D01*
X24477027Y-12684484D02*
X24457980Y-12674960D01*
X24457980Y-12674960D02*
X24448456Y-12665436D01*
X24448456Y-12665436D02*
X24438932Y-12646388D01*
X24438932Y-12646388D02*
X24438932Y-12589246D01*
X24438932Y-12589246D02*
X24448456Y-12570198D01*
X24448456Y-12570198D02*
X24457980Y-12560674D01*
X24457980Y-12560674D02*
X24477027Y-12551150D01*
X24477027Y-12551150D02*
X24515123Y-12551150D01*
X24515123Y-12551150D02*
X24534170Y-12560674D01*
X24610361Y-12760674D02*
X24619884Y-12751150D01*
X24619884Y-12751150D02*
X24638932Y-12722579D01*
X24638932Y-12722579D02*
X24648456Y-12703531D01*
X24648456Y-12703531D02*
X24657980Y-12674960D01*
X24657980Y-12674960D02*
X24667503Y-12627341D01*
X24667503Y-12627341D02*
X24667503Y-12589246D01*
X24667503Y-12589246D02*
X24657980Y-12541627D01*
X24657980Y-12541627D02*
X24648456Y-12513055D01*
X24648456Y-12513055D02*
X24638932Y-12494008D01*
X24638932Y-12494008D02*
X24619884Y-12465436D01*
X24619884Y-12465436D02*
X24610361Y-12455912D01*
X18016250Y-12857000D02*
G75*
G02*
X17816250Y-12857000I-100000J0D01*
G01*
X17816250Y-12857000D02*
G75*
G02*
X18016250Y-12857000I100000J0D01*
G01*
X18267503Y-12767531D02*
X18277027Y-12758008D01*
X18277027Y-12758008D02*
X18296074Y-12748484D01*
X18296074Y-12748484D02*
X18343694Y-12748484D01*
X18343694Y-12748484D02*
X18362741Y-12758008D01*
X18362741Y-12758008D02*
X18372265Y-12767531D01*
X18372265Y-12767531D02*
X18381789Y-12786579D01*
X18381789Y-12786579D02*
X18381789Y-12805627D01*
X18381789Y-12805627D02*
X18372265Y-12834198D01*
X18372265Y-12834198D02*
X18257979Y-12948484D01*
X18257979Y-12948484D02*
X18381789Y-12948484D01*
X18467503Y-12929436D02*
X18477027Y-12938960D01*
X18477027Y-12938960D02*
X18467503Y-12948484D01*
X18467503Y-12948484D02*
X18457979Y-12938960D01*
X18457979Y-12938960D02*
X18467503Y-12929436D01*
X18467503Y-12929436D02*
X18467503Y-12948484D01*
X18553217Y-12767531D02*
X18562741Y-12758008D01*
X18562741Y-12758008D02*
X18581789Y-12748484D01*
X18581789Y-12748484D02*
X18629408Y-12748484D01*
X18629408Y-12748484D02*
X18648455Y-12758008D01*
X18648455Y-12758008D02*
X18657979Y-12767531D01*
X18657979Y-12767531D02*
X18667503Y-12786579D01*
X18667503Y-12786579D02*
X18667503Y-12805627D01*
X18667503Y-12805627D02*
X18657979Y-12834198D01*
X18657979Y-12834198D02*
X18543694Y-12948484D01*
X18543694Y-12948484D02*
X18667503Y-12948484D01*
X18791313Y-12748484D02*
X18810360Y-12748484D01*
X18810360Y-12748484D02*
X18829408Y-12758008D01*
X18829408Y-12758008D02*
X18838932Y-12767531D01*
X18838932Y-12767531D02*
X18848455Y-12786579D01*
X18848455Y-12786579D02*
X18857979Y-12824674D01*
X18857979Y-12824674D02*
X18857979Y-12872293D01*
X18857979Y-12872293D02*
X18848455Y-12910388D01*
X18848455Y-12910388D02*
X18838932Y-12929436D01*
X18838932Y-12929436D02*
X18829408Y-12938960D01*
X18829408Y-12938960D02*
X18810360Y-12948484D01*
X18810360Y-12948484D02*
X18791313Y-12948484D01*
X18791313Y-12948484D02*
X18772265Y-12938960D01*
X18772265Y-12938960D02*
X18762741Y-12929436D01*
X18762741Y-12929436D02*
X18753217Y-12910388D01*
X18753217Y-12910388D02*
X18743694Y-12872293D01*
X18743694Y-12872293D02*
X18743694Y-12824674D01*
X18743694Y-12824674D02*
X18753217Y-12786579D01*
X18753217Y-12786579D02*
X18762741Y-12767531D01*
X18762741Y-12767531D02*
X18772265Y-12758008D01*
X18772265Y-12758008D02*
X18791313Y-12748484D01*
X18981789Y-12748484D02*
X19000836Y-12748484D01*
X19000836Y-12748484D02*
X19019884Y-12758008D01*
X19019884Y-12758008D02*
X19029408Y-12767531D01*
X19029408Y-12767531D02*
X19038932Y-12786579D01*
X19038932Y-12786579D02*
X19048455Y-12824674D01*
X19048455Y-12824674D02*
X19048455Y-12872293D01*
X19048455Y-12872293D02*
X19038932Y-12910388D01*
X19038932Y-12910388D02*
X19029408Y-12929436D01*
X19029408Y-12929436D02*
X19019884Y-12938960D01*
X19019884Y-12938960D02*
X19000836Y-12948484D01*
X19000836Y-12948484D02*
X18981789Y-12948484D01*
X18981789Y-12948484D02*
X18962741Y-12938960D01*
X18962741Y-12938960D02*
X18953217Y-12929436D01*
X18953217Y-12929436D02*
X18943694Y-12910388D01*
X18943694Y-12910388D02*
X18934170Y-12872293D01*
X18934170Y-12872293D02*
X18934170Y-12824674D01*
X18934170Y-12824674D02*
X18943694Y-12786579D01*
X18943694Y-12786579D02*
X18953217Y-12767531D01*
X18953217Y-12767531D02*
X18962741Y-12758008D01*
X18962741Y-12758008D02*
X18981789Y-12748484D01*
X19134170Y-12948484D02*
X19134170Y-12815150D01*
X19134170Y-12834198D02*
X19143694Y-12824674D01*
X19143694Y-12824674D02*
X19162741Y-12815150D01*
X19162741Y-12815150D02*
X19191313Y-12815150D01*
X19191313Y-12815150D02*
X19210360Y-12824674D01*
X19210360Y-12824674D02*
X19219884Y-12843722D01*
X19219884Y-12843722D02*
X19219884Y-12948484D01*
X19219884Y-12843722D02*
X19229408Y-12824674D01*
X19229408Y-12824674D02*
X19248455Y-12815150D01*
X19248455Y-12815150D02*
X19277027Y-12815150D01*
X19277027Y-12815150D02*
X19296075Y-12824674D01*
X19296075Y-12824674D02*
X19305598Y-12843722D01*
X19305598Y-12843722D02*
X19305598Y-12948484D01*
X19400836Y-12948484D02*
X19400836Y-12815150D01*
X19400836Y-12834198D02*
X19410360Y-12824674D01*
X19410360Y-12824674D02*
X19429408Y-12815150D01*
X19429408Y-12815150D02*
X19457979Y-12815150D01*
X19457979Y-12815150D02*
X19477027Y-12824674D01*
X19477027Y-12824674D02*
X19486551Y-12843722D01*
X19486551Y-12843722D02*
X19486551Y-12948484D01*
X19486551Y-12843722D02*
X19496075Y-12824674D01*
X19496075Y-12824674D02*
X19515122Y-12815150D01*
X19515122Y-12815150D02*
X19543694Y-12815150D01*
X19543694Y-12815150D02*
X19562741Y-12824674D01*
X19562741Y-12824674D02*
X19572265Y-12843722D01*
X19572265Y-12843722D02*
X19572265Y-12948484D01*
X19962741Y-12738960D02*
X19791313Y-12996103D01*
X20219884Y-12748484D02*
X20238932Y-12748484D01*
X20238932Y-12748484D02*
X20257979Y-12758008D01*
X20257979Y-12758008D02*
X20267503Y-12767531D01*
X20267503Y-12767531D02*
X20277027Y-12786579D01*
X20277027Y-12786579D02*
X20286551Y-12824674D01*
X20286551Y-12824674D02*
X20286551Y-12872293D01*
X20286551Y-12872293D02*
X20277027Y-12910388D01*
X20277027Y-12910388D02*
X20267503Y-12929436D01*
X20267503Y-12929436D02*
X20257979Y-12938960D01*
X20257979Y-12938960D02*
X20238932Y-12948484D01*
X20238932Y-12948484D02*
X20219884Y-12948484D01*
X20219884Y-12948484D02*
X20200837Y-12938960D01*
X20200837Y-12938960D02*
X20191313Y-12929436D01*
X20191313Y-12929436D02*
X20181789Y-12910388D01*
X20181789Y-12910388D02*
X20172265Y-12872293D01*
X20172265Y-12872293D02*
X20172265Y-12824674D01*
X20172265Y-12824674D02*
X20181789Y-12786579D01*
X20181789Y-12786579D02*
X20191313Y-12767531D01*
X20191313Y-12767531D02*
X20200837Y-12758008D01*
X20200837Y-12758008D02*
X20219884Y-12748484D01*
X20372265Y-12929436D02*
X20381789Y-12938960D01*
X20381789Y-12938960D02*
X20372265Y-12948484D01*
X20372265Y-12948484D02*
X20362741Y-12938960D01*
X20362741Y-12938960D02*
X20372265Y-12929436D01*
X20372265Y-12929436D02*
X20372265Y-12948484D01*
X20505598Y-12748484D02*
X20524646Y-12748484D01*
X20524646Y-12748484D02*
X20543694Y-12758008D01*
X20543694Y-12758008D02*
X20553218Y-12767531D01*
X20553218Y-12767531D02*
X20562741Y-12786579D01*
X20562741Y-12786579D02*
X20572265Y-12824674D01*
X20572265Y-12824674D02*
X20572265Y-12872293D01*
X20572265Y-12872293D02*
X20562741Y-12910388D01*
X20562741Y-12910388D02*
X20553218Y-12929436D01*
X20553218Y-12929436D02*
X20543694Y-12938960D01*
X20543694Y-12938960D02*
X20524646Y-12948484D01*
X20524646Y-12948484D02*
X20505598Y-12948484D01*
X20505598Y-12948484D02*
X20486551Y-12938960D01*
X20486551Y-12938960D02*
X20477027Y-12929436D01*
X20477027Y-12929436D02*
X20467503Y-12910388D01*
X20467503Y-12910388D02*
X20457979Y-12872293D01*
X20457979Y-12872293D02*
X20457979Y-12824674D01*
X20457979Y-12824674D02*
X20467503Y-12786579D01*
X20467503Y-12786579D02*
X20477027Y-12767531D01*
X20477027Y-12767531D02*
X20486551Y-12758008D01*
X20486551Y-12758008D02*
X20505598Y-12748484D01*
X20686551Y-12834198D02*
X20667503Y-12824674D01*
X20667503Y-12824674D02*
X20657979Y-12815150D01*
X20657979Y-12815150D02*
X20648456Y-12796103D01*
X20648456Y-12796103D02*
X20648456Y-12786579D01*
X20648456Y-12786579D02*
X20657979Y-12767531D01*
X20657979Y-12767531D02*
X20667503Y-12758008D01*
X20667503Y-12758008D02*
X20686551Y-12748484D01*
X20686551Y-12748484D02*
X20724646Y-12748484D01*
X20724646Y-12748484D02*
X20743694Y-12758008D01*
X20743694Y-12758008D02*
X20753218Y-12767531D01*
X20753218Y-12767531D02*
X20762741Y-12786579D01*
X20762741Y-12786579D02*
X20762741Y-12796103D01*
X20762741Y-12796103D02*
X20753218Y-12815150D01*
X20753218Y-12815150D02*
X20743694Y-12824674D01*
X20743694Y-12824674D02*
X20724646Y-12834198D01*
X20724646Y-12834198D02*
X20686551Y-12834198D01*
X20686551Y-12834198D02*
X20667503Y-12843722D01*
X20667503Y-12843722D02*
X20657979Y-12853246D01*
X20657979Y-12853246D02*
X20648456Y-12872293D01*
X20648456Y-12872293D02*
X20648456Y-12910388D01*
X20648456Y-12910388D02*
X20657979Y-12929436D01*
X20657979Y-12929436D02*
X20667503Y-12938960D01*
X20667503Y-12938960D02*
X20686551Y-12948484D01*
X20686551Y-12948484D02*
X20724646Y-12948484D01*
X20724646Y-12948484D02*
X20743694Y-12938960D01*
X20743694Y-12938960D02*
X20753218Y-12929436D01*
X20753218Y-12929436D02*
X20762741Y-12910388D01*
X20762741Y-12910388D02*
X20762741Y-12872293D01*
X20762741Y-12872293D02*
X20753218Y-12853246D01*
X20753218Y-12853246D02*
X20743694Y-12843722D01*
X20743694Y-12843722D02*
X20724646Y-12834198D01*
X20934170Y-12748484D02*
X20896075Y-12748484D01*
X20896075Y-12748484D02*
X20877027Y-12758008D01*
X20877027Y-12758008D02*
X20867503Y-12767531D01*
X20867503Y-12767531D02*
X20848456Y-12796103D01*
X20848456Y-12796103D02*
X20838932Y-12834198D01*
X20838932Y-12834198D02*
X20838932Y-12910388D01*
X20838932Y-12910388D02*
X20848456Y-12929436D01*
X20848456Y-12929436D02*
X20857979Y-12938960D01*
X20857979Y-12938960D02*
X20877027Y-12948484D01*
X20877027Y-12948484D02*
X20915122Y-12948484D01*
X20915122Y-12948484D02*
X20934170Y-12938960D01*
X20934170Y-12938960D02*
X20943694Y-12929436D01*
X20943694Y-12929436D02*
X20953218Y-12910388D01*
X20953218Y-12910388D02*
X20953218Y-12862769D01*
X20953218Y-12862769D02*
X20943694Y-12843722D01*
X20943694Y-12843722D02*
X20934170Y-12834198D01*
X20934170Y-12834198D02*
X20915122Y-12824674D01*
X20915122Y-12824674D02*
X20877027Y-12824674D01*
X20877027Y-12824674D02*
X20857979Y-12834198D01*
X20857979Y-12834198D02*
X20848456Y-12843722D01*
X20848456Y-12843722D02*
X20838932Y-12862769D01*
X21124646Y-12748484D02*
X21086551Y-12748484D01*
X21086551Y-12748484D02*
X21067503Y-12758008D01*
X21067503Y-12758008D02*
X21057979Y-12767531D01*
X21057979Y-12767531D02*
X21038932Y-12796103D01*
X21038932Y-12796103D02*
X21029408Y-12834198D01*
X21029408Y-12834198D02*
X21029408Y-12910388D01*
X21029408Y-12910388D02*
X21038932Y-12929436D01*
X21038932Y-12929436D02*
X21048456Y-12938960D01*
X21048456Y-12938960D02*
X21067503Y-12948484D01*
X21067503Y-12948484D02*
X21105599Y-12948484D01*
X21105599Y-12948484D02*
X21124646Y-12938960D01*
X21124646Y-12938960D02*
X21134170Y-12929436D01*
X21134170Y-12929436D02*
X21143694Y-12910388D01*
X21143694Y-12910388D02*
X21143694Y-12862769D01*
X21143694Y-12862769D02*
X21134170Y-12843722D01*
X21134170Y-12843722D02*
X21124646Y-12834198D01*
X21124646Y-12834198D02*
X21105599Y-12824674D01*
X21105599Y-12824674D02*
X21067503Y-12824674D01*
X21067503Y-12824674D02*
X21048456Y-12834198D01*
X21048456Y-12834198D02*
X21038932Y-12843722D01*
X21038932Y-12843722D02*
X21029408Y-12862769D01*
X21219884Y-12748484D02*
X21219884Y-12786579D01*
X21296075Y-12748484D02*
X21296075Y-12786579D01*
X21591313Y-13024674D02*
X21581789Y-13015150D01*
X21581789Y-13015150D02*
X21562741Y-12986579D01*
X21562741Y-12986579D02*
X21553218Y-12967531D01*
X21553218Y-12967531D02*
X21543694Y-12938960D01*
X21543694Y-12938960D02*
X21534170Y-12891341D01*
X21534170Y-12891341D02*
X21534170Y-12853246D01*
X21534170Y-12853246D02*
X21543694Y-12805627D01*
X21543694Y-12805627D02*
X21553218Y-12777055D01*
X21553218Y-12777055D02*
X21562741Y-12758008D01*
X21562741Y-12758008D02*
X21581789Y-12729436D01*
X21581789Y-12729436D02*
X21591313Y-12719912D01*
X21677027Y-12948484D02*
X21715122Y-12948484D01*
X21715122Y-12948484D02*
X21734170Y-12938960D01*
X21734170Y-12938960D02*
X21743694Y-12929436D01*
X21743694Y-12929436D02*
X21762741Y-12900865D01*
X21762741Y-12900865D02*
X21772265Y-12862769D01*
X21772265Y-12862769D02*
X21772265Y-12786579D01*
X21772265Y-12786579D02*
X21762741Y-12767531D01*
X21762741Y-12767531D02*
X21753218Y-12758008D01*
X21753218Y-12758008D02*
X21734170Y-12748484D01*
X21734170Y-12748484D02*
X21696075Y-12748484D01*
X21696075Y-12748484D02*
X21677027Y-12758008D01*
X21677027Y-12758008D02*
X21667503Y-12767531D01*
X21667503Y-12767531D02*
X21657980Y-12786579D01*
X21657980Y-12786579D02*
X21657980Y-12834198D01*
X21657980Y-12834198D02*
X21667503Y-12853246D01*
X21667503Y-12853246D02*
X21677027Y-12862769D01*
X21677027Y-12862769D02*
X21696075Y-12872293D01*
X21696075Y-12872293D02*
X21734170Y-12872293D01*
X21734170Y-12872293D02*
X21753218Y-12862769D01*
X21753218Y-12862769D02*
X21762741Y-12853246D01*
X21762741Y-12853246D02*
X21772265Y-12834198D01*
X22010361Y-12948484D02*
X22010361Y-12748484D01*
X22096075Y-12948484D02*
X22096075Y-12843722D01*
X22096075Y-12843722D02*
X22086551Y-12824674D01*
X22086551Y-12824674D02*
X22067503Y-12815150D01*
X22067503Y-12815150D02*
X22038932Y-12815150D01*
X22038932Y-12815150D02*
X22019884Y-12824674D01*
X22019884Y-12824674D02*
X22010361Y-12834198D01*
X22219884Y-12948484D02*
X22200837Y-12938960D01*
X22200837Y-12938960D02*
X22191313Y-12929436D01*
X22191313Y-12929436D02*
X22181789Y-12910388D01*
X22181789Y-12910388D02*
X22181789Y-12853246D01*
X22181789Y-12853246D02*
X22191313Y-12834198D01*
X22191313Y-12834198D02*
X22200837Y-12824674D01*
X22200837Y-12824674D02*
X22219884Y-12815150D01*
X22219884Y-12815150D02*
X22248456Y-12815150D01*
X22248456Y-12815150D02*
X22267503Y-12824674D01*
X22267503Y-12824674D02*
X22277027Y-12834198D01*
X22277027Y-12834198D02*
X22286551Y-12853246D01*
X22286551Y-12853246D02*
X22286551Y-12910388D01*
X22286551Y-12910388D02*
X22277027Y-12929436D01*
X22277027Y-12929436D02*
X22267503Y-12938960D01*
X22267503Y-12938960D02*
X22248456Y-12948484D01*
X22248456Y-12948484D02*
X22219884Y-12948484D01*
X22400837Y-12948484D02*
X22381789Y-12938960D01*
X22381789Y-12938960D02*
X22372265Y-12919912D01*
X22372265Y-12919912D02*
X22372265Y-12748484D01*
X22553218Y-12938960D02*
X22534170Y-12948484D01*
X22534170Y-12948484D02*
X22496075Y-12948484D01*
X22496075Y-12948484D02*
X22477027Y-12938960D01*
X22477027Y-12938960D02*
X22467503Y-12919912D01*
X22467503Y-12919912D02*
X22467503Y-12843722D01*
X22467503Y-12843722D02*
X22477027Y-12824674D01*
X22477027Y-12824674D02*
X22496075Y-12815150D01*
X22496075Y-12815150D02*
X22534170Y-12815150D01*
X22534170Y-12815150D02*
X22553218Y-12824674D01*
X22553218Y-12824674D02*
X22562741Y-12843722D01*
X22562741Y-12843722D02*
X22562741Y-12862769D01*
X22562741Y-12862769D02*
X22467503Y-12881817D01*
X22638932Y-12938960D02*
X22657980Y-12948484D01*
X22657980Y-12948484D02*
X22696075Y-12948484D01*
X22696075Y-12948484D02*
X22715122Y-12938960D01*
X22715122Y-12938960D02*
X22724646Y-12919912D01*
X22724646Y-12919912D02*
X22724646Y-12910388D01*
X22724646Y-12910388D02*
X22715122Y-12891341D01*
X22715122Y-12891341D02*
X22696075Y-12881817D01*
X22696075Y-12881817D02*
X22667503Y-12881817D01*
X22667503Y-12881817D02*
X22648456Y-12872293D01*
X22648456Y-12872293D02*
X22638932Y-12853246D01*
X22638932Y-12853246D02*
X22638932Y-12843722D01*
X22638932Y-12843722D02*
X22648456Y-12824674D01*
X22648456Y-12824674D02*
X22667503Y-12815150D01*
X22667503Y-12815150D02*
X22696075Y-12815150D01*
X22696075Y-12815150D02*
X22715122Y-12824674D01*
X22791313Y-13024674D02*
X22800837Y-13015150D01*
X22800837Y-13015150D02*
X22819884Y-12986579D01*
X22819884Y-12986579D02*
X22829408Y-12967531D01*
X22829408Y-12967531D02*
X22838932Y-12938960D01*
X22838932Y-12938960D02*
X22848456Y-12891341D01*
X22848456Y-12891341D02*
X22848456Y-12853246D01*
X22848456Y-12853246D02*
X22838932Y-12805627D01*
X22838932Y-12805627D02*
X22829408Y-12777055D01*
X22829408Y-12777055D02*
X22819884Y-12758008D01*
X22819884Y-12758008D02*
X22800837Y-12729436D01*
X22800837Y-12729436D02*
X22791313Y-12719912D01*
X23153218Y-13024674D02*
X23143694Y-13015150D01*
X23143694Y-13015150D02*
X23124646Y-12986579D01*
X23124646Y-12986579D02*
X23115122Y-12967531D01*
X23115122Y-12967531D02*
X23105599Y-12938960D01*
X23105599Y-12938960D02*
X23096075Y-12891341D01*
X23096075Y-12891341D02*
X23096075Y-12853246D01*
X23096075Y-12853246D02*
X23105599Y-12805627D01*
X23105599Y-12805627D02*
X23115122Y-12777055D01*
X23115122Y-12777055D02*
X23124646Y-12758008D01*
X23124646Y-12758008D02*
X23143694Y-12729436D01*
X23143694Y-12729436D02*
X23153218Y-12719912D01*
X23229408Y-12815150D02*
X23229408Y-12948484D01*
X23229408Y-12834198D02*
X23238932Y-12824674D01*
X23238932Y-12824674D02*
X23257980Y-12815150D01*
X23257980Y-12815150D02*
X23286551Y-12815150D01*
X23286551Y-12815150D02*
X23305599Y-12824674D01*
X23305599Y-12824674D02*
X23315122Y-12843722D01*
X23315122Y-12843722D02*
X23315122Y-12948484D01*
X23438932Y-12948484D02*
X23419884Y-12938960D01*
X23419884Y-12938960D02*
X23410361Y-12929436D01*
X23410361Y-12929436D02*
X23400837Y-12910388D01*
X23400837Y-12910388D02*
X23400837Y-12853246D01*
X23400837Y-12853246D02*
X23410361Y-12834198D01*
X23410361Y-12834198D02*
X23419884Y-12824674D01*
X23419884Y-12824674D02*
X23438932Y-12815150D01*
X23438932Y-12815150D02*
X23467503Y-12815150D01*
X23467503Y-12815150D02*
X23486551Y-12824674D01*
X23486551Y-12824674D02*
X23496075Y-12834198D01*
X23496075Y-12834198D02*
X23505599Y-12853246D01*
X23505599Y-12853246D02*
X23505599Y-12910388D01*
X23505599Y-12910388D02*
X23496075Y-12929436D01*
X23496075Y-12929436D02*
X23486551Y-12938960D01*
X23486551Y-12938960D02*
X23467503Y-12948484D01*
X23467503Y-12948484D02*
X23438932Y-12948484D01*
X23562742Y-12815150D02*
X23638932Y-12815150D01*
X23591313Y-12748484D02*
X23591313Y-12919912D01*
X23591313Y-12919912D02*
X23600837Y-12938960D01*
X23600837Y-12938960D02*
X23619884Y-12948484D01*
X23619884Y-12948484D02*
X23638932Y-12948484D01*
X23857980Y-12815150D02*
X23857980Y-13015150D01*
X23857980Y-12824674D02*
X23877027Y-12815150D01*
X23877027Y-12815150D02*
X23915123Y-12815150D01*
X23915123Y-12815150D02*
X23934170Y-12824674D01*
X23934170Y-12824674D02*
X23943694Y-12834198D01*
X23943694Y-12834198D02*
X23953218Y-12853246D01*
X23953218Y-12853246D02*
X23953218Y-12910388D01*
X23953218Y-12910388D02*
X23943694Y-12929436D01*
X23943694Y-12929436D02*
X23934170Y-12938960D01*
X23934170Y-12938960D02*
X23915123Y-12948484D01*
X23915123Y-12948484D02*
X23877027Y-12948484D01*
X23877027Y-12948484D02*
X23857980Y-12938960D01*
X24067503Y-12948484D02*
X24048456Y-12938960D01*
X24048456Y-12938960D02*
X24038932Y-12919912D01*
X24038932Y-12919912D02*
X24038932Y-12748484D01*
X24229408Y-12948484D02*
X24229408Y-12843722D01*
X24229408Y-12843722D02*
X24219884Y-12824674D01*
X24219884Y-12824674D02*
X24200837Y-12815150D01*
X24200837Y-12815150D02*
X24162742Y-12815150D01*
X24162742Y-12815150D02*
X24143694Y-12824674D01*
X24229408Y-12938960D02*
X24210361Y-12948484D01*
X24210361Y-12948484D02*
X24162742Y-12948484D01*
X24162742Y-12948484D02*
X24143694Y-12938960D01*
X24143694Y-12938960D02*
X24134170Y-12919912D01*
X24134170Y-12919912D02*
X24134170Y-12900865D01*
X24134170Y-12900865D02*
X24143694Y-12881817D01*
X24143694Y-12881817D02*
X24162742Y-12872293D01*
X24162742Y-12872293D02*
X24210361Y-12872293D01*
X24210361Y-12872293D02*
X24229408Y-12862769D01*
X24296075Y-12815150D02*
X24372265Y-12815150D01*
X24324646Y-12748484D02*
X24324646Y-12919912D01*
X24324646Y-12919912D02*
X24334170Y-12938960D01*
X24334170Y-12938960D02*
X24353218Y-12948484D01*
X24353218Y-12948484D02*
X24372265Y-12948484D01*
X24515123Y-12938960D02*
X24496075Y-12948484D01*
X24496075Y-12948484D02*
X24457980Y-12948484D01*
X24457980Y-12948484D02*
X24438932Y-12938960D01*
X24438932Y-12938960D02*
X24429408Y-12919912D01*
X24429408Y-12919912D02*
X24429408Y-12843722D01*
X24429408Y-12843722D02*
X24438932Y-12824674D01*
X24438932Y-12824674D02*
X24457980Y-12815150D01*
X24457980Y-12815150D02*
X24496075Y-12815150D01*
X24496075Y-12815150D02*
X24515123Y-12824674D01*
X24515123Y-12824674D02*
X24524646Y-12843722D01*
X24524646Y-12843722D02*
X24524646Y-12862769D01*
X24524646Y-12862769D02*
X24429408Y-12881817D01*
X24696075Y-12948484D02*
X24696075Y-12748484D01*
X24696075Y-12938960D02*
X24677027Y-12948484D01*
X24677027Y-12948484D02*
X24638932Y-12948484D01*
X24638932Y-12948484D02*
X24619884Y-12938960D01*
X24619884Y-12938960D02*
X24610361Y-12929436D01*
X24610361Y-12929436D02*
X24600837Y-12910388D01*
X24600837Y-12910388D02*
X24600837Y-12853246D01*
X24600837Y-12853246D02*
X24610361Y-12834198D01*
X24610361Y-12834198D02*
X24619884Y-12824674D01*
X24619884Y-12824674D02*
X24638932Y-12815150D01*
X24638932Y-12815150D02*
X24677027Y-12815150D01*
X24677027Y-12815150D02*
X24696075Y-12824674D01*
X24772265Y-13024674D02*
X24781789Y-13015150D01*
X24781789Y-13015150D02*
X24800837Y-12986579D01*
X24800837Y-12986579D02*
X24810361Y-12967531D01*
X24810361Y-12967531D02*
X24819884Y-12938960D01*
X24819884Y-12938960D02*
X24829408Y-12891341D01*
X24829408Y-12891341D02*
X24829408Y-12853246D01*
X24829408Y-12853246D02*
X24819884Y-12805627D01*
X24819884Y-12805627D02*
X24810361Y-12777055D01*
X24810361Y-12777055D02*
X24800837Y-12758008D01*
X24800837Y-12758008D02*
X24781789Y-12729436D01*
X24781789Y-12729436D02*
X24772265Y-12719912D01*
M02*
