%TF.GenerationSoftware,KiCad,Pcbnew,8.0.8*%
%TF.CreationDate,2025-01-19T23:13:15+07:00*%
%TF.ProjectId,HW.ACIM-INV,48572e41-4349-44d2-9d49-4e562e6b6963,0.1*%
%TF.SameCoordinates,Original*%
%TF.FileFunction,Legend,Bot*%
%TF.FilePolarity,Positive*%
%FSLAX46Y46*%
G04 Gerber Fmt 4.6, Leading zero omitted, Abs format (unit mm)*
G04 Created by KiCad (PCBNEW 8.0.8) date 2025-01-19 23:13:15*
%MOMM*%
%LPD*%
G01*
G04 APERTURE LIST*
%ADD10C,0.150000*%
%ADD11C,0.154000*%
%ADD12C,0.576999*%
G04 APERTURE END LIST*
D10*
G36*
X232468445Y-25996555D02*
G01*
X232108920Y-26132598D01*
X232108920Y-25857825D01*
X232468445Y-25996555D01*
G37*
G36*
X232845292Y-28558643D02*
G01*
X231575757Y-28558643D01*
X231575757Y-27988844D01*
X231702500Y-27988844D01*
X231704621Y-28037861D01*
X231713241Y-28095997D01*
X231728492Y-28150651D01*
X231750374Y-28201823D01*
X231778886Y-28249512D01*
X231814030Y-28293719D01*
X231838299Y-28318572D01*
X231883169Y-28355724D01*
X231932904Y-28386578D01*
X231987506Y-28411136D01*
X232034691Y-28426249D01*
X232084990Y-28437331D01*
X232138402Y-28444384D01*
X232194929Y-28447406D01*
X232209548Y-28447532D01*
X232270089Y-28445506D01*
X232327151Y-28439426D01*
X232380731Y-28429294D01*
X232430832Y-28415109D01*
X232477452Y-28396871D01*
X232530832Y-28368374D01*
X232578774Y-28333544D01*
X232596428Y-28317839D01*
X232636113Y-28275242D01*
X232669071Y-28228662D01*
X232695304Y-28178098D01*
X232714810Y-28123552D01*
X232727590Y-28065022D01*
X232732971Y-28015330D01*
X232734181Y-27976388D01*
X232731355Y-27920308D01*
X232722876Y-27867628D01*
X232708743Y-27818347D01*
X232688958Y-27772464D01*
X232663520Y-27729980D01*
X232632429Y-27690896D01*
X232618410Y-27676213D01*
X232580369Y-27644034D01*
X232534879Y-27616130D01*
X232488964Y-27595219D01*
X232437346Y-27577581D01*
X232421550Y-27573143D01*
X232390287Y-27774399D01*
X232441074Y-27791246D01*
X232483954Y-27817270D01*
X232516072Y-27848893D01*
X232542354Y-27890736D01*
X232557726Y-27938351D01*
X232562234Y-27986646D01*
X232557258Y-28039952D01*
X232542329Y-28088007D01*
X232517446Y-28130810D01*
X232482611Y-28168363D01*
X232436617Y-28198817D01*
X232386229Y-28218326D01*
X232335505Y-28229747D01*
X232277826Y-28236272D01*
X232224446Y-28237972D01*
X232167953Y-28236296D01*
X232116779Y-28231269D01*
X232062391Y-28220814D01*
X232015663Y-28205532D01*
X231970827Y-28181605D01*
X231954802Y-28169340D01*
X231919647Y-28132444D01*
X231894535Y-28090388D01*
X231879469Y-28043173D01*
X231874446Y-27990798D01*
X231880680Y-27937734D01*
X231899382Y-27890037D01*
X231927203Y-27851335D01*
X231966091Y-27818072D01*
X232011205Y-27793640D01*
X232059352Y-27776303D01*
X232093288Y-27767560D01*
X232030762Y-27570456D01*
X231980801Y-27586120D01*
X231935025Y-27604717D01*
X231885621Y-27630906D01*
X231842244Y-27661320D01*
X231804894Y-27695959D01*
X231783344Y-27721398D01*
X231755869Y-27762875D01*
X231734079Y-27808352D01*
X231717974Y-27857832D01*
X231707552Y-27911312D01*
X231702815Y-27968794D01*
X231702500Y-27988844D01*
X231575757Y-27988844D01*
X231575757Y-26799137D01*
X231702500Y-26799137D01*
X232140183Y-26799137D01*
X232140183Y-27197742D01*
X231702500Y-27197742D01*
X231702500Y-27400952D01*
X232718550Y-27400952D01*
X232718550Y-27197742D01*
X232312130Y-27197742D01*
X232312130Y-26799137D01*
X232718550Y-26799137D01*
X232718550Y-26595927D01*
X231702500Y-26595927D01*
X231702500Y-26799137D01*
X231575757Y-26799137D01*
X231575757Y-25704441D01*
X231702500Y-25704441D01*
X231936973Y-25792368D01*
X231936973Y-26132598D01*
X231936973Y-26195125D01*
X231702500Y-26278167D01*
X231702500Y-26493834D01*
X232718550Y-26101580D01*
X232718550Y-25886646D01*
X231702500Y-25483401D01*
X231702500Y-25704441D01*
X231575757Y-25704441D01*
X231575757Y-25017141D01*
X231686868Y-25017141D01*
X231689009Y-25074664D01*
X231695431Y-25127857D01*
X231706134Y-25176721D01*
X231724630Y-25229643D01*
X231749291Y-25276332D01*
X231774551Y-25310477D01*
X231810349Y-25345960D01*
X231851797Y-25375656D01*
X231898895Y-25399564D01*
X231951642Y-25417684D01*
X231999915Y-25428364D01*
X232030762Y-25432843D01*
X232046393Y-25235006D01*
X231996046Y-25222079D01*
X231949620Y-25200917D01*
X231910123Y-25169375D01*
X231904244Y-25162710D01*
X231878380Y-25120594D01*
X231863251Y-25069474D01*
X231858815Y-25015187D01*
X231862041Y-24963783D01*
X231873194Y-24915641D01*
X231897094Y-24870338D01*
X231899603Y-24867176D01*
X231938125Y-24833116D01*
X231985209Y-24817789D01*
X231995347Y-24817351D01*
X232043891Y-24830171D01*
X232055186Y-24838356D01*
X232084829Y-24879283D01*
X232098173Y-24911384D01*
X232113119Y-24960238D01*
X232126777Y-25010060D01*
X232139589Y-25058774D01*
X232143602Y-25074294D01*
X232157095Y-25122977D01*
X232174452Y-25175115D01*
X232193079Y-25220401D01*
X232216417Y-25264575D01*
X232245207Y-25303638D01*
X232283730Y-25339802D01*
X232325783Y-25367084D01*
X232371366Y-25385483D01*
X232420478Y-25395000D01*
X232450127Y-25396451D01*
X232502341Y-25391313D01*
X232552189Y-25375902D01*
X232595451Y-25352975D01*
X232634716Y-25321906D01*
X232667637Y-25283347D01*
X232694212Y-25237299D01*
X232698766Y-25227190D01*
X232715886Y-25178225D01*
X232726400Y-25130223D01*
X232732487Y-25078009D01*
X232734181Y-25028865D01*
X232732100Y-24971926D01*
X232725857Y-24919566D01*
X232715452Y-24871786D01*
X232697471Y-24820495D01*
X232673497Y-24775799D01*
X232648941Y-24743589D01*
X232608925Y-24705954D01*
X232563462Y-24677038D01*
X232512554Y-24656841D01*
X232464583Y-24646468D01*
X232421550Y-24642717D01*
X232421550Y-24846171D01*
X232471845Y-24860105D01*
X232515503Y-24887039D01*
X232529262Y-24902103D01*
X232551802Y-24947944D01*
X232561075Y-25000334D01*
X232562234Y-25031063D01*
X232558752Y-25082602D01*
X232546877Y-25130700D01*
X232526575Y-25169793D01*
X232485496Y-25199483D01*
X232465026Y-25202033D01*
X232418268Y-25184997D01*
X232405186Y-25171747D01*
X232380720Y-25127497D01*
X232363684Y-25080786D01*
X232348302Y-25028618D01*
X232337042Y-24984901D01*
X232323435Y-24931936D01*
X232309725Y-24884415D01*
X232293600Y-24835853D01*
X232274999Y-24789428D01*
X232263281Y-24765327D01*
X232237077Y-24723935D01*
X232202027Y-24685400D01*
X232160455Y-24654197D01*
X232112013Y-24631252D01*
X232061715Y-24618658D01*
X232011347Y-24614054D01*
X231999499Y-24613896D01*
X231946228Y-24618595D01*
X231895104Y-24632692D01*
X231846127Y-24656186D01*
X231836589Y-24662012D01*
X231796953Y-24692227D01*
X231763499Y-24728739D01*
X231736228Y-24771550D01*
X231723749Y-24798056D01*
X231707613Y-24844721D01*
X231696088Y-24896791D01*
X231689785Y-24946784D01*
X231687012Y-25000915D01*
X231686868Y-25017141D01*
X231575757Y-25017141D01*
X231575757Y-24084134D01*
X231686868Y-24084134D01*
X231689009Y-24141656D01*
X231695431Y-24194849D01*
X231706134Y-24243713D01*
X231724630Y-24296636D01*
X231749291Y-24343324D01*
X231774551Y-24377469D01*
X231810349Y-24412952D01*
X231851797Y-24442648D01*
X231898895Y-24466556D01*
X231951642Y-24484677D01*
X231999915Y-24495356D01*
X232030762Y-24499835D01*
X232046393Y-24301998D01*
X231996046Y-24289071D01*
X231949620Y-24267910D01*
X231910123Y-24236368D01*
X231904244Y-24229702D01*
X231878380Y-24187587D01*
X231863251Y-24136467D01*
X231858815Y-24082180D01*
X231862041Y-24030776D01*
X231873194Y-23982633D01*
X231897094Y-23937330D01*
X231899603Y-23934169D01*
X231938125Y-23900108D01*
X231985209Y-23884781D01*
X231995347Y-23884343D01*
X232043891Y-23897163D01*
X232055186Y-23905348D01*
X232084829Y-23946276D01*
X232098173Y-23978377D01*
X232113119Y-24027230D01*
X232126777Y-24077052D01*
X232139589Y-24125767D01*
X232143602Y-24141287D01*
X232157095Y-24189969D01*
X232174452Y-24242108D01*
X232193079Y-24287394D01*
X232216417Y-24331567D01*
X232245207Y-24370631D01*
X232283730Y-24406795D01*
X232325783Y-24434076D01*
X232371366Y-24452476D01*
X232420478Y-24461993D01*
X232450127Y-24463443D01*
X232502341Y-24458306D01*
X232552189Y-24442894D01*
X232595451Y-24419968D01*
X232634716Y-24388898D01*
X232667637Y-24350339D01*
X232694212Y-24304291D01*
X232698766Y-24294183D01*
X232715886Y-24245217D01*
X232726400Y-24197216D01*
X232732487Y-24145001D01*
X232734181Y-24095857D01*
X232732100Y-24038918D01*
X232725857Y-23986559D01*
X232715452Y-23938779D01*
X232697471Y-23887488D01*
X232673497Y-23842791D01*
X232648941Y-23810582D01*
X232608925Y-23772947D01*
X232563462Y-23744030D01*
X232512554Y-23723833D01*
X232464583Y-23713460D01*
X232421550Y-23709709D01*
X232421550Y-23913164D01*
X232471845Y-23927097D01*
X232515503Y-23954031D01*
X232529262Y-23969095D01*
X232551802Y-24014937D01*
X232561075Y-24067327D01*
X232562234Y-24098056D01*
X232558752Y-24149595D01*
X232546877Y-24197692D01*
X232526575Y-24236786D01*
X232485496Y-24266475D01*
X232465026Y-24269026D01*
X232418268Y-24251990D01*
X232405186Y-24238739D01*
X232380720Y-24194490D01*
X232363684Y-24147778D01*
X232348302Y-24095611D01*
X232337042Y-24051894D01*
X232323435Y-23998928D01*
X232309725Y-23951407D01*
X232293600Y-23902846D01*
X232274999Y-23856420D01*
X232263281Y-23832319D01*
X232237077Y-23790927D01*
X232202027Y-23752393D01*
X232160455Y-23721189D01*
X232112013Y-23698245D01*
X232061715Y-23685651D01*
X232011347Y-23681046D01*
X231999499Y-23680889D01*
X231946228Y-23685588D01*
X231895104Y-23699684D01*
X231846127Y-23723178D01*
X231836589Y-23729005D01*
X231796953Y-23759219D01*
X231763499Y-23795732D01*
X231736228Y-23838543D01*
X231723749Y-23865048D01*
X231707613Y-23911714D01*
X231696088Y-23963783D01*
X231689785Y-24013777D01*
X231687012Y-24067908D01*
X231686868Y-24084134D01*
X231575757Y-24084134D01*
X231575757Y-23521398D01*
X231702500Y-23521398D01*
X232718550Y-23521398D01*
X232718550Y-23318188D01*
X231702500Y-23318188D01*
X231702500Y-23521398D01*
X231575757Y-23521398D01*
X231575757Y-22762291D01*
X231686868Y-22762291D01*
X231689009Y-22819814D01*
X231695431Y-22873007D01*
X231706134Y-22921871D01*
X231724630Y-22974793D01*
X231749291Y-23021482D01*
X231774551Y-23055627D01*
X231810349Y-23091110D01*
X231851797Y-23120806D01*
X231898895Y-23144714D01*
X231951642Y-23162834D01*
X231999915Y-23173514D01*
X232030762Y-23177993D01*
X232046393Y-22980156D01*
X231996046Y-22967229D01*
X231949620Y-22946067D01*
X231910123Y-22914525D01*
X231904244Y-22907860D01*
X231878380Y-22865745D01*
X231863251Y-22814624D01*
X231858815Y-22760338D01*
X231862041Y-22708933D01*
X231873194Y-22660791D01*
X231897094Y-22615488D01*
X231899603Y-22612326D01*
X231938125Y-22578266D01*
X231985209Y-22562939D01*
X231995347Y-22562501D01*
X232043891Y-22575321D01*
X232055186Y-22583506D01*
X232084829Y-22624433D01*
X232098173Y-22656534D01*
X232113119Y-22705388D01*
X232126777Y-22755210D01*
X232139589Y-22803924D01*
X232143602Y-22819444D01*
X232157095Y-22868127D01*
X232174452Y-22920265D01*
X232193079Y-22965551D01*
X232216417Y-23009725D01*
X232245207Y-23048788D01*
X232283730Y-23084952D01*
X232325783Y-23112234D01*
X232371366Y-23130634D01*
X232420478Y-23140150D01*
X232450127Y-23141601D01*
X232502341Y-23136463D01*
X232552189Y-23121052D01*
X232595451Y-23098125D01*
X232634716Y-23067056D01*
X232667637Y-23028497D01*
X232694212Y-22982449D01*
X232698766Y-22972340D01*
X232715886Y-22923375D01*
X232726400Y-22875374D01*
X232732487Y-22823159D01*
X232734181Y-22774015D01*
X232732100Y-22717076D01*
X232725857Y-22664716D01*
X232715452Y-22616936D01*
X232697471Y-22565645D01*
X232673497Y-22520949D01*
X232648941Y-22488739D01*
X232608925Y-22451104D01*
X232563462Y-22422188D01*
X232512554Y-22401991D01*
X232464583Y-22391618D01*
X232421550Y-22387867D01*
X232421550Y-22591321D01*
X232471845Y-22605255D01*
X232515503Y-22632189D01*
X232529262Y-22647253D01*
X232551802Y-22693094D01*
X232561075Y-22745484D01*
X232562234Y-22776213D01*
X232558752Y-22827752D01*
X232546877Y-22875850D01*
X232526575Y-22914943D01*
X232485496Y-22944633D01*
X232465026Y-22947183D01*
X232418268Y-22930147D01*
X232405186Y-22916897D01*
X232380720Y-22872647D01*
X232363684Y-22825936D01*
X232348302Y-22773768D01*
X232337042Y-22730051D01*
X232323435Y-22677086D01*
X232309725Y-22629565D01*
X232293600Y-22581003D01*
X232274999Y-22534578D01*
X232263281Y-22510477D01*
X232237077Y-22469085D01*
X232202027Y-22430550D01*
X232160455Y-22399347D01*
X232112013Y-22376402D01*
X232061715Y-22363809D01*
X232011347Y-22359204D01*
X231999499Y-22359047D01*
X231946228Y-22363745D01*
X231895104Y-22377842D01*
X231846127Y-22401336D01*
X231836589Y-22407162D01*
X231796953Y-22437377D01*
X231763499Y-22473889D01*
X231736228Y-22516700D01*
X231723749Y-22543206D01*
X231707613Y-22589871D01*
X231696088Y-22641941D01*
X231689785Y-22691934D01*
X231687012Y-22746066D01*
X231686868Y-22762291D01*
X231575757Y-22762291D01*
X231575757Y-22247936D01*
X232845292Y-22247936D01*
X232845292Y-28558643D01*
G37*
G36*
X243722832Y-24296742D02*
G01*
X242697540Y-24296742D01*
X242697540Y-23686643D01*
X242808651Y-23686643D01*
X242809056Y-23741117D01*
X242810273Y-23790355D01*
X242812803Y-23842531D01*
X242817231Y-23893874D01*
X242825259Y-23944808D01*
X242839829Y-23993923D01*
X242863293Y-24041184D01*
X242886076Y-24072302D01*
X242923456Y-24108183D01*
X242965144Y-24135884D01*
X243004533Y-24154856D01*
X243055247Y-24171085D01*
X243108517Y-24180552D01*
X243161933Y-24184880D01*
X243198218Y-24185631D01*
X243249818Y-24184455D01*
X243303854Y-24180109D01*
X243357481Y-24171220D01*
X243407446Y-24156222D01*
X243417060Y-24152170D01*
X243460565Y-24129172D01*
X243501369Y-24099411D01*
X243534785Y-24064975D01*
X243563052Y-24023954D01*
X243584295Y-23977886D01*
X243591693Y-23952379D01*
X243600456Y-23903592D01*
X243606069Y-23852387D01*
X243609355Y-23802173D01*
X243611232Y-23746119D01*
X243611721Y-23694947D01*
X243611721Y-23153949D01*
X243408267Y-23153949D01*
X243408267Y-23705450D01*
X243407905Y-23758414D01*
X243406603Y-23808125D01*
X243403269Y-23857634D01*
X243400695Y-23875443D01*
X243384212Y-23922174D01*
X243353117Y-23963394D01*
X243338658Y-23975826D01*
X243292686Y-24000338D01*
X243244594Y-24011318D01*
X243204324Y-24013684D01*
X243154307Y-24010202D01*
X243105306Y-23996829D01*
X243073654Y-23978025D01*
X243040166Y-23940823D01*
X243021482Y-23893333D01*
X243020898Y-23890097D01*
X243015391Y-23841394D01*
X243012929Y-23792153D01*
X243011940Y-23739237D01*
X243011861Y-23717173D01*
X243011861Y-23153949D01*
X242808651Y-23153949D01*
X242808651Y-23686643D01*
X242697540Y-23686643D01*
X242697540Y-23042838D01*
X243722832Y-23042838D01*
X243722832Y-24296742D01*
G37*
G36*
X254875846Y-24281111D02*
G01*
X253715976Y-24281111D01*
X253715976Y-23153949D01*
X253827087Y-23153949D01*
X254187589Y-24170000D01*
X254404721Y-24170000D01*
X254764735Y-23153949D01*
X254544184Y-23153949D01*
X254289439Y-23904263D01*
X254042753Y-23153949D01*
X253827087Y-23153949D01*
X253715976Y-23153949D01*
X253715976Y-23042838D01*
X254875846Y-23042838D01*
X254875846Y-24281111D01*
G37*
G36*
X266164158Y-24281111D02*
G01*
X264620338Y-24281111D01*
X264620338Y-23153949D01*
X264731449Y-23153949D01*
X264975936Y-24170000D01*
X265191602Y-24170000D01*
X265392370Y-23410404D01*
X265592160Y-24170000D01*
X265812712Y-24170000D01*
X266053047Y-23153949D01*
X265844952Y-23153949D01*
X265693277Y-23851995D01*
X265509118Y-23153949D01*
X265267317Y-23153949D01*
X265090730Y-23863719D01*
X264936124Y-23153949D01*
X264731449Y-23153949D01*
X264620338Y-23153949D01*
X264620338Y-23042838D01*
X266164158Y-23042838D01*
X266164158Y-24281111D01*
G37*
G36*
X241737541Y-71954159D02*
G01*
X241630855Y-71954159D01*
X241630855Y-72423106D01*
X241631824Y-72467202D01*
X241634730Y-72507754D01*
X241640568Y-72550585D01*
X241650469Y-72593626D01*
X241658406Y-72617327D01*
X241677396Y-72655657D01*
X241703372Y-72689751D01*
X241732327Y-72716502D01*
X241757666Y-72734369D01*
X241796318Y-72754116D01*
X241834726Y-72766766D01*
X241877416Y-72775097D01*
X241917416Y-72778799D01*
X241945831Y-72779505D01*
X241986813Y-72778124D01*
X242030980Y-72773023D01*
X242071219Y-72764163D01*
X242112398Y-72749435D01*
X242131065Y-72740230D01*
X242164453Y-72718395D01*
X242195883Y-72688575D01*
X242220822Y-72653191D01*
X242233842Y-72626511D01*
X242247263Y-72585881D01*
X242255861Y-72544740D01*
X242260894Y-72505324D01*
X242263770Y-72462075D01*
X242264519Y-72423106D01*
X242264519Y-71954159D01*
X242158029Y-71954159D01*
X242158029Y-72424473D01*
X242157094Y-72468227D01*
X242153736Y-72511705D01*
X242147038Y-72552298D01*
X242138490Y-72580984D01*
X242119906Y-72615432D01*
X242090905Y-72645494D01*
X242071469Y-72658556D01*
X242032772Y-72675106D01*
X241992134Y-72683567D01*
X241955210Y-72685715D01*
X241913476Y-72683820D01*
X241870795Y-72676815D01*
X241829940Y-72662490D01*
X241794078Y-72638317D01*
X241787561Y-72631787D01*
X241765677Y-72598606D01*
X241751658Y-72559375D01*
X241743451Y-72518173D01*
X241739299Y-72478496D01*
X241737589Y-72433963D01*
X241737541Y-72424473D01*
X241737541Y-71954159D01*
G37*
G36*
X241491539Y-72060454D02*
G01*
X241491539Y-71966665D01*
X240970032Y-71966665D01*
X240970032Y-72043650D01*
X240998853Y-72076481D01*
X241027578Y-72113131D01*
X241051443Y-72146590D01*
X241075240Y-72182702D01*
X241098971Y-72221466D01*
X241122635Y-72262882D01*
X241145369Y-72305759D01*
X241166434Y-72349027D01*
X241185830Y-72392687D01*
X241203555Y-72436737D01*
X241219612Y-72481179D01*
X241233998Y-72526012D01*
X241239285Y-72544055D01*
X241249667Y-72582910D01*
X241258538Y-72623125D01*
X241265897Y-72664701D01*
X241271745Y-72707636D01*
X241276082Y-72751932D01*
X241277192Y-72767000D01*
X241378992Y-72767000D01*
X241376605Y-72723119D01*
X241371984Y-72682471D01*
X241364987Y-72639020D01*
X241357340Y-72600670D01*
X241348042Y-72560374D01*
X241341672Y-72535262D01*
X241329739Y-72493007D01*
X241316290Y-72451239D01*
X241301323Y-72409957D01*
X241284839Y-72369161D01*
X241266839Y-72328853D01*
X241247321Y-72289031D01*
X241239090Y-72273238D01*
X241218002Y-72234761D01*
X241196504Y-72198221D01*
X241174595Y-72163618D01*
X241152277Y-72130951D01*
X241124953Y-72094308D01*
X241097038Y-72060454D01*
X241491539Y-72060454D01*
G37*
D11*
%TO.C,U7*%
X242597500Y-60847030D02*
X240947500Y-60855000D01*
X242597625Y-56455000D02*
X240947500Y-56455000D01*
X244097902Y-60205402D02*
X244090109Y-57062750D01*
X274197098Y-57104598D02*
X274204891Y-60247250D01*
X275697375Y-60855000D02*
X277347500Y-60855000D01*
X275697500Y-56462970D02*
X277347500Y-56455000D01*
X242597625Y-56455000D02*
G75*
G02*
X244090109Y-57062750I-25872J-2199996D01*
G01*
X244097902Y-60205402D02*
G75*
G02*
X242597500Y-60847030I-1550400J1550396D01*
G01*
X274197098Y-57104598D02*
G75*
G02*
X275697500Y-56462971I1550402J-1550402D01*
G01*
X275697375Y-60855000D02*
G75*
G02*
X274204886Y-60247256I26025J2200400D01*
G01*
D12*
X243435999Y-69305000D02*
G75*
G02*
X242859001Y-69305000I-288499J0D01*
G01*
X242859001Y-69305000D02*
G75*
G02*
X243435999Y-69305000I288499J0D01*
G01*
D11*
X277347499Y-71605000D02*
X240947501Y-71605000D01*
X240947500Y-50305000D01*
X277347500Y-50305000D01*
X277347499Y-71605000D01*
%TD*%
M02*
