%TF.GenerationSoftware,KiCad,Pcbnew,8.0.8*%
%TF.CreationDate,2025-01-19T23:13:15+07:00*%
%TF.ProjectId,HW.ACIM-INV,48572e41-4349-44d2-9d49-4e562e6b6963,0.1*%
%TF.SameCoordinates,Original*%
%TF.FileFunction,Copper,L2,Inr*%
%TF.FilePolarity,Positive*%
%FSLAX46Y46*%
G04 Gerber Fmt 4.6, Leading zero omitted, Abs format (unit mm)*
G04 Created by KiCad (PCBNEW 8.0.8) date 2025-01-19 23:13:15*
%MOMM*%
%LPD*%
G01*
G04 APERTURE LIST*
G04 Aperture macros list*
%AMRoundRect*
0 Rectangle with rounded corners*
0 $1 Rounding radius*
0 $2 $3 $4 $5 $6 $7 $8 $9 X,Y pos of 4 corners*
0 Add a 4 corners polygon primitive as box body*
4,1,4,$2,$3,$4,$5,$6,$7,$8,$9,$2,$3,0*
0 Add four circle primitives for the rounded corners*
1,1,$1+$1,$2,$3*
1,1,$1+$1,$4,$5*
1,1,$1+$1,$6,$7*
1,1,$1+$1,$8,$9*
0 Add four rect primitives between the rounded corners*
20,1,$1+$1,$2,$3,$4,$5,0*
20,1,$1+$1,$4,$5,$6,$7,0*
20,1,$1+$1,$6,$7,$8,$9,0*
20,1,$1+$1,$8,$9,$2,$3,0*%
G04 Aperture macros list end*
%TA.AperFunction,ComponentPad*%
%ADD10RoundRect,0.450000X0.450000X-0.450000X0.450000X0.450000X-0.450000X0.450000X-0.450000X-0.450000X0*%
%TD*%
%TA.AperFunction,ComponentPad*%
%ADD11C,1.800000*%
%TD*%
%TA.AperFunction,ComponentPad*%
%ADD12R,2.500000X3.000000*%
%TD*%
%TA.AperFunction,ComponentPad*%
%ADD13C,1.500000*%
%TD*%
%TA.AperFunction,ComponentPad*%
%ADD14RoundRect,0.250000X0.650000X0.650000X-0.650000X0.650000X-0.650000X-0.650000X0.650000X-0.650000X0*%
%TD*%
%TA.AperFunction,ComponentPad*%
%ADD15R,3.500000X3.500000*%
%TD*%
%TA.AperFunction,ComponentPad*%
%ADD16C,3.500000*%
%TD*%
%TA.AperFunction,ComponentPad*%
%ADD17RoundRect,0.250000X-0.650000X0.650000X-0.650000X-0.650000X0.650000X-0.650000X0.650000X0.650000X0*%
%TD*%
%TA.AperFunction,ComponentPad*%
%ADD18RoundRect,0.625000X-0.625000X-0.625000X0.625000X-0.625000X0.625000X0.625000X-0.625000X0.625000X0*%
%TD*%
%TA.AperFunction,ComponentPad*%
%ADD19C,2.500000*%
%TD*%
%TA.AperFunction,ComponentPad*%
%ADD20C,2.000000*%
%TD*%
%TA.AperFunction,ViaPad*%
%ADD21C,0.480000*%
%TD*%
%TA.AperFunction,ViaPad*%
%ADD22C,0.800000*%
%TD*%
%TA.AperFunction,Conductor*%
%ADD23C,0.750000*%
%TD*%
%TA.AperFunction,Conductor*%
%ADD24C,0.700000*%
%TD*%
%TA.AperFunction,Conductor*%
%ADD25C,0.500000*%
%TD*%
%TA.AperFunction,Conductor*%
%ADD26C,0.160000*%
%TD*%
G04 APERTURE END LIST*
D10*
%TO.N,PGND*%
%TO.C,J16*%
X181787500Y-50825001D03*
D11*
X181787500Y-48285000D03*
X181787500Y-45745000D03*
%TO.N,VDC*%
X181787500Y-40665001D03*
X181787500Y-38124999D03*
X181787500Y-35585000D03*
%TO.N,CHASSIS*%
X181787500Y-30505000D03*
X181787500Y-27964999D03*
%TD*%
D10*
%TO.N,/MCU POWER/~{DEV_RELAY}*%
%TO.C,J15*%
X181787500Y-92735000D03*
D11*
%TO.N,/MCU POWER/PWR_RELAY*%
X181787500Y-90195000D03*
%TO.N,+5V_INV*%
X181787500Y-82574999D03*
%TO.N,GND_INV*%
X181787500Y-80035000D03*
%TO.N,+16V_INV*%
X181787500Y-77495000D03*
%TO.N,GND_INV*%
X181787500Y-74955000D03*
%TD*%
D10*
%TO.N,GND_MCU*%
%TO.C,J14*%
X181787500Y-113055000D03*
D11*
%TO.N,+24V_MCU*%
X181787500Y-110515000D03*
%TO.N,+12V_MCU*%
X181787500Y-107975000D03*
%TO.N,GND_MCU*%
X181787500Y-105435001D03*
X181787500Y-102894999D03*
%TO.N,+5V_MCU*%
X181787500Y-100355000D03*
%TO.N,+3V3_MCU*%
X181787500Y-97815000D03*
%TO.N,GND_MCU*%
X181787500Y-95275000D03*
%TD*%
D12*
%TO.N,Net-(G2-Pad1)*%
%TO.C,J5*%
X234657500Y-23755000D03*
X229577500Y-23755000D03*
%TD*%
D13*
%TO.N,VDC*%
%TO.C,C50*%
X229537500Y-36955000D03*
%TO.N,PGND*%
X229537500Y-51955000D03*
%TD*%
%TO.N,Net-(G2-Pad1)*%
%TO.C,M6*%
X251797500Y-28005000D03*
%TO.N,/INVERTER/MC_V*%
X256797500Y-29505000D03*
%TD*%
D12*
%TO.N,/INVERTER/MC_V*%
%TO.C,J3*%
X256837500Y-23755000D03*
X251757500Y-23755000D03*
%TD*%
D14*
%TO.N,/MCU/DB_TXD*%
%TO.C,J1*%
X267787500Y-113314999D03*
D11*
%TO.N,/MCU/~{MCLR}*%
X267787500Y-115855001D03*
%TO.N,/MCU/DB_RXD*%
X265247500Y-113315000D03*
%TO.N,+3V3_MCU*%
X265247500Y-115855000D03*
%TO.N,/MCU/DV_TXD*%
X262707500Y-113315000D03*
%TO.N,GND_MCU*%
X262707500Y-115855000D03*
%TO.N,/MCU/DV_RXD*%
X260167500Y-113315000D03*
%TO.N,/MCU/PGD*%
X260167500Y-115855000D03*
%TO.N,/MCU/USB_P*%
X257627500Y-113315000D03*
%TO.N,/MCU/PGC*%
X257627500Y-115855000D03*
%TO.N,/MCU/USB_N*%
X255087500Y-113314999D03*
%TO.N,/MCU/VBUS*%
X255087500Y-115855001D03*
%TD*%
D15*
%TO.N,VDC*%
%TO.C,C9*%
X203237500Y-34455000D03*
D16*
%TO.N,PGND*%
X203237500Y-44455000D03*
%TD*%
D13*
%TO.N,Net-(G2-Pad1)*%
%TO.C,M5*%
X240707500Y-28005000D03*
%TO.N,/INVERTER/MC_U*%
X245707500Y-29505000D03*
%TD*%
D17*
%TO.N,VDC*%
%TO.C,C88*%
X214537500Y-40705001D03*
D11*
%TO.N,PGND*%
X214537500Y-48204999D03*
%TD*%
D13*
%TO.N,Net-(G2-Pad1)*%
%TO.C,M7*%
X262897500Y-28005000D03*
%TO.N,/INVERTER/MC_W*%
X267897500Y-29505000D03*
%TD*%
D12*
%TO.N,/INVERTER/MC_W*%
%TO.C,J4*%
X262857500Y-23755000D03*
X267937500Y-23755000D03*
%TD*%
%TO.N,/INVERTER/MC_U*%
%TO.C,J2*%
X245747500Y-23755000D03*
X240667500Y-23755000D03*
%TD*%
D18*
%TO.N,Net-(U7-VSU)*%
%TO.C,U7*%
X244097500Y-76655000D03*
D19*
%TO.N,Net-(U7-VBU)*%
X246097500Y-73755000D03*
%TO.N,Net-(U7-VSV)*%
X249497500Y-76655000D03*
%TO.N,Net-(U7-VBV)*%
X251097500Y-73755000D03*
%TO.N,Net-(U7-VSW)*%
X254497500Y-76655000D03*
%TO.N,Net-(U7-VBW)*%
X256097500Y-73755000D03*
D20*
%TO.N,/INVERTER/IPM_PWM_UH*%
X259497500Y-76655000D03*
%TO.N,/INVERTER/IPM_PWM_VH*%
X261097500Y-73755000D03*
%TO.N,/INVERTER/IPM_PWM_WH*%
X262697500Y-76655000D03*
%TO.N,/INVERTER/IPM_PWM_UL*%
X264297500Y-73755001D03*
%TO.N,/INVERTER/IPM_PWM_VL*%
X265897500Y-76655000D03*
%TO.N,/INVERTER/IPM_PWM_WL*%
X267497500Y-73755000D03*
%TO.N,+16V_INV*%
X269097500Y-76655000D03*
%TO.N,/INVERTER/IPM_TEMP_SEN*%
X270697500Y-73755000D03*
%TO.N,/INVERTER/IPM_PWM_FLT*%
X272297500Y-76655000D03*
%TO.N,GND_INV*%
X274297500Y-73755000D03*
D19*
%TO.N,Net-(U1-IPP1)*%
X275597500Y-47955000D03*
X270897500Y-47955000D03*
X266197500Y-47955000D03*
%TO.N,Net-(U12-IPP1)*%
X261497500Y-47955000D03*
%TO.N,/INVERTER/MC_V*%
X256797500Y-47955000D03*
%TO.N,Net-(U11-IPP1)*%
X252097500Y-47955000D03*
%TO.N,VDC*%
X247397500Y-47955000D03*
%TD*%
D21*
%TO.N,VDC*%
X187612499Y-53400002D03*
%TO.N,/MCU POWER/PWR_RELAY*%
X196852500Y-101365001D03*
%TO.N,/MCU POWER/~{DEV_RELAY}*%
X201152500Y-101365001D03*
%TO.N,GND_INV*%
X272447500Y-65805000D03*
X190987500Y-63775001D03*
X260192500Y-84117500D03*
X266647500Y-71655000D03*
X190987500Y-68775001D03*
X246592500Y-84117500D03*
X269147500Y-66655000D03*
X264092500Y-89117500D03*
X190987500Y-61275001D03*
X186012499Y-59325001D03*
X190987500Y-58775001D03*
X185987500Y-68775001D03*
X190987500Y-73775001D03*
X259147500Y-74155000D03*
X269092500Y-89117500D03*
X183487500Y-61275001D03*
X190987500Y-56275001D03*
X261647500Y-71655000D03*
X261647500Y-79155000D03*
X188487500Y-73775001D03*
X266647500Y-79155000D03*
X266647500Y-66655000D03*
X180987500Y-56275001D03*
X254092500Y-89117500D03*
X262792500Y-84117500D03*
X241147500Y-81205000D03*
X273677500Y-96205001D03*
X277177500Y-79705001D03*
X251592500Y-89117500D03*
X180987500Y-63775001D03*
X273247500Y-69355000D03*
X249192500Y-84117500D03*
X273677500Y-93205001D03*
X274092500Y-89117500D03*
X248147500Y-79655000D03*
X249092500Y-89117500D03*
X255992500Y-84117500D03*
X277177500Y-65205001D03*
X271592500Y-89117500D03*
X259092500Y-89117500D03*
X185987500Y-78775001D03*
X277177500Y-83205001D03*
X271592500Y-84117500D03*
X243147500Y-79655000D03*
X266647500Y-69155000D03*
X259147500Y-79155000D03*
X264147500Y-71655000D03*
X185987500Y-66275001D03*
X271647500Y-79155000D03*
X246592500Y-89117500D03*
X277177500Y-76705001D03*
X251647500Y-81655000D03*
X253392500Y-84117500D03*
X277177500Y-68705001D03*
X261592500Y-89117500D03*
X256592500Y-89117500D03*
X277177500Y-87205001D03*
X185987500Y-73775001D03*
X188487500Y-68775001D03*
X274047500Y-65805000D03*
X266592500Y-89117500D03*
X183487500Y-66275001D03*
X190987500Y-66275001D03*
X269147500Y-71655000D03*
X180987500Y-66275001D03*
%TO.N,+16V_INV*%
X265597500Y-83205000D03*
X267647500Y-83205000D03*
X244147500Y-83205000D03*
X245147500Y-83205000D03*
X266647500Y-83205000D03*
X243097500Y-83205000D03*
D22*
%TO.N,CHASSIS*%
X226867500Y-27255000D03*
X228367500Y-30255000D03*
X228367500Y-27255000D03*
X228367500Y-28755000D03*
X226867500Y-28755000D03*
X229867500Y-30255000D03*
X229867500Y-28755000D03*
X229867500Y-27255000D03*
D21*
%TO.N,+5V_INV*%
X244242500Y-86817500D03*
X274327500Y-95105001D03*
X185012499Y-58600002D03*
X182210310Y-59125716D03*
X257842500Y-86817500D03*
X275947500Y-70705000D03*
X251042500Y-86817500D03*
X243542500Y-86117500D03*
%TO.N,GND_MCU*%
X252112499Y-118355000D03*
X257112499Y-118355000D03*
X251652500Y-106445002D03*
X199612499Y-66745001D03*
X276197498Y-109835000D03*
X190387500Y-108349999D03*
X260385000Y-39310000D03*
X232112499Y-100855000D03*
X247112499Y-118355000D03*
X200337500Y-117255000D03*
X276197498Y-114035000D03*
X239612499Y-110855000D03*
X192837500Y-114755000D03*
X269317500Y-96317500D03*
X222362499Y-59245001D03*
X249152500Y-103945002D03*
X264612499Y-100855000D03*
X246652500Y-106445002D03*
X203562499Y-62925001D03*
X217112499Y-90855000D03*
X209687500Y-117255000D03*
X249612499Y-115855000D03*
X204612499Y-93355000D03*
X190852500Y-96500001D03*
X231352500Y-85375002D03*
X183852500Y-92875002D03*
X219612499Y-110855000D03*
X252112499Y-100855000D03*
X222362499Y-66745001D03*
X224612499Y-110855000D03*
X238195000Y-39260000D03*
X205112499Y-66745001D03*
X228852500Y-85375002D03*
X267112499Y-118355000D03*
X237112499Y-100855000D03*
X239612499Y-118355000D03*
X227362499Y-64245001D03*
X232362499Y-64245001D03*
X239152500Y-103945002D03*
X238852500Y-86625002D03*
X207362499Y-59245001D03*
X214612499Y-88355000D03*
X218852500Y-85375002D03*
X227362499Y-61745001D03*
X196837500Y-108355000D03*
X208852500Y-85375002D03*
X207862499Y-66745001D03*
X185852500Y-94875002D03*
X185337500Y-117255000D03*
X188852500Y-97875002D03*
X212112499Y-100855000D03*
X197837500Y-117255000D03*
X252392500Y-92167500D03*
X194337500Y-108355000D03*
X235992500Y-61467500D03*
X260385000Y-36610000D03*
X207112499Y-100855000D03*
X238852500Y-89125002D03*
X227362499Y-59245001D03*
X197837500Y-114755000D03*
X257112499Y-100855000D03*
X269612499Y-100855000D03*
X218012499Y-118355000D03*
X202837500Y-117255000D03*
X189152500Y-94900001D03*
X187837500Y-114755000D03*
X263817500Y-96317500D03*
X202837500Y-114755000D03*
X232362499Y-61745001D03*
X204262499Y-60725001D03*
X209612499Y-98355000D03*
X269612499Y-105855000D03*
X204612499Y-98355000D03*
X257112499Y-105855000D03*
X183852500Y-90375002D03*
X217362499Y-64245001D03*
X217362499Y-66745001D03*
X236352500Y-85375002D03*
X205862499Y-62925001D03*
X185852500Y-91375002D03*
X200337500Y-114755000D03*
X241352500Y-94125002D03*
X195337500Y-117255000D03*
X238692500Y-61467500D03*
X238852500Y-94125002D03*
X254317500Y-96317500D03*
X213852500Y-85375002D03*
X242112499Y-100855000D03*
X219612499Y-93355000D03*
X209612499Y-108355000D03*
X232362499Y-59245001D03*
X217362499Y-61745001D03*
X236352500Y-94125002D03*
X212112499Y-105855000D03*
X207112499Y-95855000D03*
X262112499Y-118355000D03*
X212362499Y-59245001D03*
X276197498Y-107535000D03*
X212362499Y-66745001D03*
X205337500Y-117255000D03*
X209612499Y-103355000D03*
X212112499Y-95855000D03*
X194862499Y-64245001D03*
X245592500Y-92167500D03*
X181352500Y-85375002D03*
X234612499Y-110855000D03*
X234152500Y-103945002D03*
X214612499Y-93355000D03*
X276197498Y-103085000D03*
X199337500Y-108355000D03*
X262112499Y-105855000D03*
X192002500Y-94300001D03*
X192837500Y-117255000D03*
X183852500Y-97875002D03*
X201837500Y-108355000D03*
X183852500Y-87875002D03*
X210337500Y-114755000D03*
X190337500Y-114755000D03*
X194862499Y-61745001D03*
X238852500Y-91625002D03*
X259187500Y-92167500D03*
X191352500Y-87875002D03*
X267112499Y-103355000D03*
X241352500Y-89125002D03*
X199612499Y-98355000D03*
X232412499Y-118355000D03*
X269612499Y-115855000D03*
X243852500Y-94125002D03*
X247112499Y-100855000D03*
X262997500Y-92167500D03*
X190337500Y-117255000D03*
X249402500Y-92167500D03*
X239152500Y-106445002D03*
X202112499Y-95855000D03*
X272112499Y-113355000D03*
X185387500Y-105849999D03*
X222362499Y-64245001D03*
X217112499Y-103355000D03*
X205337500Y-114755000D03*
X239145000Y-40734999D03*
X256202500Y-92167500D03*
X260817500Y-96317500D03*
X227362499Y-66745001D03*
X204337500Y-108355000D03*
X194862499Y-59245001D03*
X212112499Y-90855000D03*
X225212499Y-118355000D03*
X241357500Y-36005000D03*
X181352500Y-87875002D03*
X252112499Y-110855000D03*
X192287500Y-99125000D03*
X209612499Y-93355000D03*
X185337500Y-114755000D03*
X222362499Y-61745001D03*
X263547500Y-36055000D03*
X217362499Y-59245001D03*
X217112499Y-108355000D03*
X185387500Y-103349999D03*
X217112499Y-98355000D03*
X276197498Y-105285000D03*
X247112499Y-113355000D03*
X188352500Y-87875002D03*
X269612499Y-110855000D03*
X212112499Y-110855000D03*
X212362499Y-61745001D03*
X200612499Y-59325001D03*
X189152500Y-93300001D03*
X244152500Y-103945002D03*
X236352500Y-88475002D03*
X207837500Y-112255000D03*
X235437500Y-58305000D03*
X257817500Y-96317500D03*
X238195000Y-36560000D03*
X185352500Y-85375002D03*
X186537500Y-109025000D03*
X234152500Y-106445002D03*
X272112499Y-118355000D03*
X212362499Y-64245001D03*
X195337500Y-114755000D03*
X223852500Y-85375002D03*
X264612499Y-110855000D03*
X249317500Y-96317500D03*
X269317500Y-93317500D03*
X276197498Y-100785000D03*
X194862499Y-66745001D03*
X243852500Y-91625002D03*
X189637500Y-101475000D03*
X192002500Y-91700001D03*
X244612499Y-110855000D03*
X246817500Y-96317500D03*
X241352500Y-91625002D03*
%TO.N,+5V_MCU*%
X208277500Y-62605000D03*
X186987500Y-100150001D03*
X207577500Y-61905000D03*
X186087500Y-100150001D03*
X233502500Y-89675002D03*
X260385000Y-40810000D03*
X238195000Y-40734999D03*
X233502500Y-94125002D03*
%TO.N,+3V3_MCU*%
X218012499Y-114605000D03*
X239612499Y-114605000D03*
X257837500Y-95317500D03*
X244242500Y-95317500D03*
X251042500Y-95317500D03*
X225402500Y-89935002D03*
X225212499Y-114605000D03*
X263837500Y-95317500D03*
X232412499Y-114605000D03*
X224602500Y-89935002D03*
%TO.N,GND_ADC*%
X197052500Y-91850001D03*
X230652500Y-89675002D03*
X190437500Y-105225000D03*
X200602500Y-106445001D03*
X194852500Y-93300001D03*
X200702500Y-91205001D03*
X194852500Y-94900001D03*
X200702500Y-92475001D03*
X201402500Y-106445001D03*
X225352500Y-92475002D03*
X187287500Y-104525000D03*
X194852500Y-96500001D03*
X230652500Y-92875002D03*
X192287500Y-103375000D03*
%TO.N,/INVERTER/MC_U*%
X274247500Y-33455000D03*
X276247500Y-32455000D03*
D22*
X244207500Y-37175000D03*
D21*
X274247500Y-32455000D03*
X276247500Y-33455000D03*
D22*
X244207500Y-35775000D03*
%TO.N,/INVERTER/MC_W*%
X266397500Y-35805000D03*
X266397500Y-37205000D03*
D21*
%TO.N,/INVERTER/IPM_TEMP_SEN*%
X275022499Y-66529999D03*
%TO.N,/INVERTER/MC_IDC_HAL*%
X237977500Y-58305000D03*
X189152500Y-91700001D03*
%TO.N,/ENCODER/ENC_HOME*%
X236162501Y-114605000D03*
X194852500Y-91700001D03*
%TO.N,/ENCODER/ENC_INDEX*%
X194852500Y-86900001D03*
X228962501Y-114605000D03*
%TO.N,/ENCODER/ENC_B*%
X221762501Y-114605000D03*
X206652500Y-86900001D03*
%TO.N,/ENCODER/ENC_A*%
X206652500Y-91700001D03*
X214562501Y-114605000D03*
%TO.N,/MCU/IND_ERR*%
X205057500Y-102635001D03*
X244812502Y-114605000D03*
%TO.N,/MCU/PGD*%
X229152500Y-106445002D03*
%TO.N,/MCU/USB_P*%
X255127500Y-110815000D03*
X256377500Y-112065000D03*
%TO.N,/MCU/PGC*%
X229152500Y-105175002D03*
%TO.N,/MCU/VBUS*%
X224852500Y-106445002D03*
%TO.N,/MCU/~{MCLR}*%
X229152500Y-103905002D03*
%TO.N,/INVERTER/MC_PWM_WL*%
X272447498Y-99685000D03*
X261727500Y-92167500D03*
%TO.N,/INVERTER/MC_PWM_VH*%
X272447498Y-108685000D03*
X248132500Y-92167500D03*
%TO.N,/INVERTER/MC_PWM_VL*%
X260457500Y-92167500D03*
X272447498Y-101935000D03*
%TO.N,/INVERTER/MC_PWM_WH*%
X272447498Y-106435000D03*
X253662500Y-92167500D03*
%TO.N,/INVERTER/MC_PWM_UL*%
X272447498Y-104185000D03*
X254932500Y-92167500D03*
%TO.N,/INVERTER/MC_PWM_UH*%
X275447498Y-112835000D03*
X246862500Y-92167500D03*
%TO.N,Net-(Q3-D)*%
X276197498Y-78854999D03*
X276197498Y-90354999D03*
%TO.N,Net-(U17-OUT)*%
X194852500Y-98100001D03*
X203212499Y-68100000D03*
%TO.N,/INVERTER/MC_IU_HAL*%
X236352500Y-90925002D03*
X240095000Y-40734999D03*
%TO.N,/INVERTER/MC_IV_HAL*%
X230652500Y-86475002D03*
X263547500Y-38595000D03*
D22*
%TO.N,Net-(U11-IPP1)*%
X247207500Y-38777009D03*
X244207500Y-38777009D03*
%TO.N,Net-(U12-IPP1)*%
X266397500Y-38665000D03*
X266397500Y-40065000D03*
%TD*%
D23*
%TO.N,+16V_INV*%
X267647500Y-83205000D02*
X265597500Y-83205000D01*
D24*
X245147500Y-83205000D02*
X243097500Y-83205000D01*
D25*
%TO.N,+5V_INV*%
X243542500Y-86117500D02*
X244242500Y-86817500D01*
%TO.N,+5V_MCU*%
X207577500Y-61905000D02*
X208277500Y-62605000D01*
X186087500Y-100150001D02*
X186987500Y-100150001D01*
%TO.N,+3V3_MCU*%
X225402500Y-89935002D02*
X224602500Y-89935002D01*
%TO.N,GND_ADC*%
X204068288Y-105859214D02*
X216777500Y-93150002D01*
X228702500Y-91275002D02*
X225752500Y-91275002D01*
X225752500Y-91275002D02*
X219480927Y-91275002D01*
X201402500Y-106445001D02*
X202654074Y-106445001D01*
X230652500Y-89675002D02*
X230652500Y-92875002D01*
D26*
X225752500Y-91275002D02*
X223372500Y-91275002D01*
D25*
X200602500Y-106445001D02*
X201402500Y-106445001D01*
X230652500Y-92875002D02*
X229052500Y-91275002D01*
X218066713Y-91860789D02*
X216777500Y-93150002D01*
X230652500Y-89675002D02*
X229052500Y-91275002D01*
X229052500Y-91275002D02*
X228702500Y-91275002D01*
X204068288Y-105859214D02*
G75*
G02*
X202654074Y-106444982I-1414188J1414214D01*
G01*
X219480927Y-91275002D02*
G75*
G03*
X218066700Y-91860776I-27J-1999998D01*
G01*
%TD*%
%TA.AperFunction,Conductor*%
%TO.N,Net-(U1-IPP1)*%
G36*
X276253177Y-46504685D02*
G01*
X276273819Y-46521319D01*
X277001181Y-47248681D01*
X277034666Y-47310004D01*
X277037500Y-47336362D01*
X277037500Y-50583638D01*
X277017815Y-50650677D01*
X277001181Y-50671319D01*
X271766319Y-55906181D01*
X271704996Y-55939666D01*
X271678638Y-55942500D01*
X238888940Y-55942500D01*
X238821901Y-55922815D01*
X238801166Y-55906089D01*
X237688726Y-54791302D01*
X237655306Y-54729943D01*
X237652500Y-54703713D01*
X237652500Y-51536362D01*
X237672185Y-51469323D01*
X237688819Y-51448681D01*
X237816181Y-51321319D01*
X237877504Y-51287834D01*
X237903862Y-51285000D01*
X262437500Y-51285000D01*
X264587500Y-49135000D01*
X264587500Y-47586362D01*
X264607185Y-47519323D01*
X264623819Y-47498681D01*
X265601181Y-46521319D01*
X265662504Y-46487834D01*
X265688862Y-46485000D01*
X276186138Y-46485000D01*
X276253177Y-46504685D01*
G37*
%TD.AperFunction*%
%TD*%
%TA.AperFunction,Conductor*%
%TO.N,Net-(G2-Pad1)*%
G36*
X235850539Y-22274685D02*
G01*
X235896294Y-22327489D01*
X235907500Y-22379000D01*
X235907500Y-25255000D01*
X237907500Y-27255000D01*
X241016138Y-27255000D01*
X241083177Y-27274685D01*
X241103819Y-27291319D01*
X241421181Y-27608681D01*
X241454666Y-27670004D01*
X241457500Y-27696362D01*
X241457500Y-28313638D01*
X241437815Y-28380677D01*
X241421181Y-28401319D01*
X241103819Y-28718681D01*
X241042496Y-28752166D01*
X241016138Y-28755000D01*
X237217499Y-28755000D01*
X235153819Y-30818681D01*
X235092496Y-30852166D01*
X235066138Y-30855000D01*
X233741500Y-30855000D01*
X233674461Y-30835315D01*
X233628706Y-30782511D01*
X233617500Y-30731000D01*
X233617500Y-26655000D01*
X232217500Y-25255000D01*
X228451500Y-25255000D01*
X228384461Y-25235315D01*
X228338706Y-25182511D01*
X228327500Y-25131000D01*
X228327500Y-22379000D01*
X228347185Y-22311961D01*
X228399989Y-22266206D01*
X228451500Y-22255000D01*
X235783500Y-22255000D01*
X235850539Y-22274685D01*
G37*
%TD.AperFunction*%
%TD*%
%TA.AperFunction,Conductor*%
%TO.N,GND_MCU*%
G36*
X234501269Y-57491828D02*
G01*
X234593770Y-57533012D01*
X234758364Y-57567998D01*
X234758368Y-57567998D01*
X234802938Y-57567998D01*
X239637778Y-57567998D01*
X239688556Y-57586480D01*
X239693637Y-57591137D01*
X240069362Y-57966862D01*
X240092200Y-58015838D01*
X240092501Y-58022723D01*
X240092501Y-60605350D01*
X240074019Y-60656130D01*
X240066363Y-60664058D01*
X239994337Y-60728911D01*
X239994333Y-60728915D01*
X239895431Y-60865042D01*
X239895426Y-60865052D01*
X239826988Y-61018766D01*
X239826985Y-61018774D01*
X239792001Y-61183368D01*
X239792001Y-62661285D01*
X239791028Y-62673644D01*
X239784194Y-62716789D01*
X239776557Y-62740295D01*
X239759579Y-62773617D01*
X239745050Y-62793613D01*
X239718612Y-62820051D01*
X239698616Y-62834579D01*
X239665297Y-62851556D01*
X239641791Y-62859194D01*
X239614726Y-62863480D01*
X239598648Y-62866027D01*
X239586292Y-62867000D01*
X234442172Y-62867000D01*
X234403325Y-62866947D01*
X234403257Y-62866957D01*
X234402953Y-62866997D01*
X234364719Y-62877242D01*
X234364615Y-62877270D01*
X234326895Y-62887322D01*
X234326894Y-62887322D01*
X234326873Y-62887328D01*
X234326841Y-62887342D01*
X234326519Y-62887475D01*
X234292193Y-62907292D01*
X234292104Y-62907344D01*
X234258306Y-62926796D01*
X234258140Y-62926924D01*
X234258003Y-62927028D01*
X234230140Y-62954890D01*
X234230065Y-62954965D01*
X229052436Y-68118481D01*
X229051581Y-68119212D01*
X229037425Y-68133376D01*
X229036677Y-68133724D01*
X228954412Y-68216031D01*
X228878390Y-68333161D01*
X228835240Y-68365693D01*
X228812124Y-68369151D01*
X203653768Y-68369151D01*
X203602988Y-68350669D01*
X203575968Y-68303869D01*
X203583378Y-68254286D01*
X203587610Y-68245980D01*
X203598145Y-68225304D01*
X203612705Y-68133376D01*
X203617991Y-68100002D01*
X203617991Y-68099997D01*
X203598145Y-67974697D01*
X203598144Y-67974693D01*
X203540550Y-67861659D01*
X203540548Y-67861656D01*
X203450842Y-67771950D01*
X203450839Y-67771948D01*
X203337805Y-67714354D01*
X203337801Y-67714353D01*
X203212501Y-67694508D01*
X203212497Y-67694508D01*
X203087196Y-67714353D01*
X203087192Y-67714354D01*
X202974158Y-67771948D01*
X202974155Y-67771950D01*
X202884449Y-67861656D01*
X202884447Y-67861659D01*
X202826853Y-67974693D01*
X202826852Y-67974697D01*
X202807007Y-68099997D01*
X202807007Y-68100002D01*
X202826852Y-68225301D01*
X202826852Y-68225302D01*
X202826853Y-68225304D01*
X202832880Y-68237132D01*
X202841620Y-68254286D01*
X202848205Y-68307923D01*
X202818773Y-68353244D01*
X202771230Y-68369151D01*
X198690920Y-68369151D01*
X198658786Y-68362320D01*
X198561665Y-68319075D01*
X198561662Y-68319074D01*
X198397073Y-68284083D01*
X198397067Y-68284082D01*
X198355299Y-68284080D01*
X198355267Y-68284079D01*
X198352484Y-68284079D01*
X198312935Y-68284079D01*
X198265341Y-68284077D01*
X198265340Y-68284077D01*
X198258987Y-68284077D01*
X198258963Y-68284079D01*
X194318716Y-68284079D01*
X194306358Y-68283106D01*
X194289634Y-68280457D01*
X194263213Y-68276272D01*
X194239707Y-68268634D01*
X194206395Y-68251660D01*
X194186400Y-68237132D01*
X194159964Y-68210696D01*
X194145436Y-68190701D01*
X194128459Y-68157379D01*
X194120825Y-68133879D01*
X194113971Y-68090591D01*
X194112999Y-68078234D01*
X194113001Y-68036997D01*
X194112999Y-68036993D01*
X194113000Y-68031509D01*
X194112999Y-68031479D01*
X194112999Y-61850956D01*
X207167000Y-61850956D01*
X207167000Y-61959043D01*
X207194974Y-62063446D01*
X207194975Y-62063448D01*
X207249019Y-62157055D01*
X208025443Y-62933479D01*
X208025445Y-62933480D01*
X208025446Y-62933481D01*
X208119053Y-62987525D01*
X208223456Y-63015500D01*
X208223458Y-63015500D01*
X208331541Y-63015500D01*
X208331543Y-63015500D01*
X208435947Y-62987525D01*
X208529553Y-62933481D01*
X208605981Y-62857053D01*
X208660025Y-62763447D01*
X208688000Y-62659043D01*
X208688000Y-62550956D01*
X208660025Y-62446553D01*
X208605981Y-62352946D01*
X208605980Y-62352945D01*
X208605979Y-62352943D01*
X207829555Y-61576519D01*
X207735948Y-61522475D01*
X207735946Y-61522474D01*
X207631543Y-61494500D01*
X207523457Y-61494500D01*
X207523456Y-61494500D01*
X207419053Y-61522474D01*
X207419051Y-61522475D01*
X207325444Y-61576519D01*
X207249019Y-61652944D01*
X207194975Y-61746551D01*
X207194974Y-61746553D01*
X207167000Y-61850956D01*
X194112999Y-61850956D01*
X194112999Y-58304997D01*
X237572008Y-58304997D01*
X237572008Y-58305002D01*
X237591853Y-58430302D01*
X237591854Y-58430306D01*
X237649448Y-58543340D01*
X237649450Y-58543343D01*
X237739156Y-58633049D01*
X237739159Y-58633051D01*
X237852193Y-58690645D01*
X237852195Y-58690645D01*
X237852196Y-58690646D01*
X237893964Y-58697261D01*
X237977498Y-58710492D01*
X237977500Y-58710492D01*
X237977502Y-58710492D01*
X238040152Y-58700569D01*
X238102804Y-58690646D01*
X238215842Y-58633050D01*
X238305550Y-58543342D01*
X238363146Y-58430304D01*
X238382992Y-58305000D01*
X238363146Y-58179696D01*
X238363145Y-58179695D01*
X238363145Y-58179693D01*
X238305551Y-58066659D01*
X238305549Y-58066656D01*
X238215843Y-57976950D01*
X238215840Y-57976948D01*
X238102806Y-57919354D01*
X238102802Y-57919353D01*
X237977502Y-57899508D01*
X237977498Y-57899508D01*
X237852197Y-57919353D01*
X237852193Y-57919354D01*
X237739159Y-57976948D01*
X237739156Y-57976950D01*
X237649450Y-58066656D01*
X237649448Y-58066659D01*
X237591854Y-58179693D01*
X237591853Y-58179697D01*
X237572008Y-58304997D01*
X194112999Y-58304997D01*
X194112999Y-57991211D01*
X194113972Y-57978853D01*
X194120805Y-57935705D01*
X194128443Y-57912202D01*
X194145420Y-57878883D01*
X194159945Y-57858890D01*
X194186389Y-57832446D01*
X194206377Y-57817922D01*
X194239707Y-57800940D01*
X194263204Y-57793306D01*
X194306374Y-57786469D01*
X194318721Y-57785498D01*
X194360094Y-57785498D01*
X209264904Y-57785498D01*
X209279773Y-57785498D01*
X209279778Y-57785500D01*
X209312498Y-57785500D01*
X209396630Y-57785500D01*
X209396634Y-57785500D01*
X209561229Y-57750514D01*
X209714954Y-57682072D01*
X209851089Y-57583164D01*
X209915944Y-57511135D01*
X209963655Y-57485767D01*
X209974650Y-57484998D01*
X234469137Y-57484998D01*
X234501269Y-57491828D01*
G37*
%TD.AperFunction*%
%TD*%
%TA.AperFunction,Conductor*%
%TO.N,GND_INV*%
G36*
X189881422Y-52932728D02*
G01*
X189897783Y-52945283D01*
X192764361Y-55811861D01*
X192787199Y-55860837D01*
X192787500Y-55867722D01*
X192787500Y-57004209D01*
X192776916Y-57043709D01*
X192694216Y-57186948D01*
X192603893Y-57405009D01*
X192603892Y-57405012D01*
X192542806Y-57632990D01*
X192512000Y-57866983D01*
X192512000Y-57940591D01*
X192511998Y-57940625D01*
X192512000Y-57984997D01*
X192512000Y-58036479D01*
X192512001Y-58036502D01*
X192512422Y-68051849D01*
X192512422Y-68051854D01*
X192512421Y-68202592D01*
X192512421Y-68202593D01*
X192543224Y-68436591D01*
X192543224Y-68436593D01*
X192604307Y-68664561D01*
X192604309Y-68664568D01*
X192604311Y-68664574D01*
X192641662Y-68754748D01*
X192694632Y-68882632D01*
X192717444Y-68922144D01*
X192776916Y-69025155D01*
X192787500Y-69064652D01*
X192787500Y-71035000D01*
X192787501Y-71035002D01*
X196787497Y-75034998D01*
X196787499Y-75034999D01*
X196787500Y-75035000D01*
X238754778Y-75035000D01*
X238805558Y-75053482D01*
X238810639Y-75058139D01*
X242787497Y-79034998D01*
X242787499Y-79034999D01*
X242787500Y-79035000D01*
X255787499Y-79035000D01*
X255787500Y-79035000D01*
X255967504Y-78854996D01*
X275792006Y-78854996D01*
X275792006Y-78855001D01*
X275811851Y-78980301D01*
X275811852Y-78980305D01*
X275869446Y-79093339D01*
X275869448Y-79093342D01*
X275959154Y-79183048D01*
X275959157Y-79183050D01*
X276072191Y-79240644D01*
X276072193Y-79240644D01*
X276072194Y-79240645D01*
X276113962Y-79247260D01*
X276197496Y-79260491D01*
X276197498Y-79260491D01*
X276197500Y-79260491D01*
X276260150Y-79250568D01*
X276322802Y-79240645D01*
X276435840Y-79183049D01*
X276525548Y-79093341D01*
X276583144Y-78980303D01*
X276602990Y-78854999D01*
X276583144Y-78729695D01*
X276583143Y-78729694D01*
X276583143Y-78729692D01*
X276525549Y-78616658D01*
X276525547Y-78616655D01*
X276435841Y-78526949D01*
X276435838Y-78526947D01*
X276322804Y-78469353D01*
X276322800Y-78469352D01*
X276197500Y-78449507D01*
X276197496Y-78449507D01*
X276072195Y-78469352D01*
X276072191Y-78469353D01*
X275959157Y-78526947D01*
X275959154Y-78526949D01*
X275869448Y-78616655D01*
X275869446Y-78616658D01*
X275811852Y-78729692D01*
X275811851Y-78729696D01*
X275792006Y-78854996D01*
X255967504Y-78854996D01*
X257287500Y-77535000D01*
X257287500Y-76655000D01*
X258332028Y-76655000D01*
X258351871Y-76869153D01*
X258351873Y-76869161D01*
X258410728Y-77076013D01*
X258410730Y-77076017D01*
X258506592Y-77268535D01*
X258506594Y-77268538D01*
X258506596Y-77268542D01*
X258506599Y-77268546D01*
X258506601Y-77268549D01*
X258636203Y-77440170D01*
X258795146Y-77585067D01*
X258795149Y-77585069D01*
X258978002Y-77698287D01*
X258978006Y-77698289D01*
X259170471Y-77772850D01*
X259178553Y-77775981D01*
X259389964Y-77815500D01*
X259605035Y-77815500D01*
X259605036Y-77815500D01*
X259816447Y-77775981D01*
X260016996Y-77698288D01*
X260199854Y-77585067D01*
X260358794Y-77440173D01*
X260488404Y-77268542D01*
X260584270Y-77076017D01*
X260643128Y-76869155D01*
X260662972Y-76655000D01*
X261532028Y-76655000D01*
X261551871Y-76869153D01*
X261551873Y-76869161D01*
X261610728Y-77076013D01*
X261610730Y-77076017D01*
X261706592Y-77268535D01*
X261706594Y-77268538D01*
X261706596Y-77268542D01*
X261706599Y-77268546D01*
X261706601Y-77268549D01*
X261836203Y-77440170D01*
X261995146Y-77585067D01*
X261995149Y-77585069D01*
X262178002Y-77698287D01*
X262178006Y-77698289D01*
X262370471Y-77772850D01*
X262378553Y-77775981D01*
X262589964Y-77815500D01*
X262805035Y-77815500D01*
X262805036Y-77815500D01*
X263016447Y-77775981D01*
X263216996Y-77698288D01*
X263399854Y-77585067D01*
X263558794Y-77440173D01*
X263688404Y-77268542D01*
X263784270Y-77076017D01*
X263843128Y-76869155D01*
X263862972Y-76655000D01*
X264732028Y-76655000D01*
X264751871Y-76869153D01*
X264751873Y-76869161D01*
X264810728Y-77076013D01*
X264810730Y-77076017D01*
X264906592Y-77268535D01*
X264906594Y-77268538D01*
X264906596Y-77268542D01*
X264906599Y-77268546D01*
X264906601Y-77268549D01*
X265036203Y-77440170D01*
X265195146Y-77585067D01*
X265195149Y-77585069D01*
X265378002Y-77698287D01*
X265378006Y-77698289D01*
X265570471Y-77772850D01*
X265578553Y-77775981D01*
X265789964Y-77815500D01*
X266005035Y-77815500D01*
X266005036Y-77815500D01*
X266216447Y-77775981D01*
X266416996Y-77698288D01*
X266599854Y-77585067D01*
X266758794Y-77440173D01*
X266888404Y-77268542D01*
X266984270Y-77076017D01*
X267043128Y-76869155D01*
X267062972Y-76655000D01*
X267932028Y-76655000D01*
X267951871Y-76869153D01*
X267951873Y-76869161D01*
X268010728Y-77076013D01*
X268010730Y-77076017D01*
X268106592Y-77268535D01*
X268106594Y-77268538D01*
X268106596Y-77268542D01*
X268106599Y-77268546D01*
X268106601Y-77268549D01*
X268236203Y-77440170D01*
X268395146Y-77585067D01*
X268395149Y-77585069D01*
X268578002Y-77698287D01*
X268578006Y-77698289D01*
X268770471Y-77772850D01*
X268778553Y-77775981D01*
X268989964Y-77815500D01*
X269205035Y-77815500D01*
X269205036Y-77815500D01*
X269416447Y-77775981D01*
X269616996Y-77698288D01*
X269799854Y-77585067D01*
X269958794Y-77440173D01*
X270088404Y-77268542D01*
X270184270Y-77076017D01*
X270243128Y-76869155D01*
X270262972Y-76655000D01*
X271132028Y-76655000D01*
X271151871Y-76869153D01*
X271151873Y-76869161D01*
X271210728Y-77076013D01*
X271210730Y-77076017D01*
X271306592Y-77268535D01*
X271306594Y-77268538D01*
X271306596Y-77268542D01*
X271306599Y-77268546D01*
X271306601Y-77268549D01*
X271436203Y-77440170D01*
X271595146Y-77585067D01*
X271595149Y-77585069D01*
X271778002Y-77698287D01*
X271778006Y-77698289D01*
X271970471Y-77772850D01*
X271978553Y-77775981D01*
X272189964Y-77815500D01*
X272405035Y-77815500D01*
X272405036Y-77815500D01*
X272616447Y-77775981D01*
X272816996Y-77698288D01*
X272999854Y-77585067D01*
X273158794Y-77440173D01*
X273288404Y-77268542D01*
X273384270Y-77076017D01*
X273443128Y-76869155D01*
X273462972Y-76655000D01*
X273443128Y-76440845D01*
X273384270Y-76233983D01*
X273288404Y-76041458D01*
X273256840Y-75999661D01*
X273158796Y-75869829D01*
X273126754Y-75840619D01*
X273037396Y-75759157D01*
X272999853Y-75724932D01*
X272999850Y-75724930D01*
X272816997Y-75611712D01*
X272816993Y-75611710D01*
X272616449Y-75534019D01*
X272405036Y-75494500D01*
X272189964Y-75494500D01*
X271978550Y-75534019D01*
X271778006Y-75611710D01*
X271778002Y-75611712D01*
X271595149Y-75724930D01*
X271595146Y-75724932D01*
X271436203Y-75869829D01*
X271306601Y-76041450D01*
X271306592Y-76041464D01*
X271210730Y-76233982D01*
X271210728Y-76233986D01*
X271151873Y-76440838D01*
X271151871Y-76440846D01*
X271132028Y-76655000D01*
X270262972Y-76655000D01*
X270243128Y-76440845D01*
X270184270Y-76233983D01*
X270088404Y-76041458D01*
X270056840Y-75999661D01*
X269958796Y-75869829D01*
X269926754Y-75840619D01*
X269837396Y-75759157D01*
X269799853Y-75724932D01*
X269799850Y-75724930D01*
X269616997Y-75611712D01*
X269616993Y-75611710D01*
X269416449Y-75534019D01*
X269205036Y-75494500D01*
X268989964Y-75494500D01*
X268778550Y-75534019D01*
X268578006Y-75611710D01*
X268578002Y-75611712D01*
X268395149Y-75724930D01*
X268395146Y-75724932D01*
X268236203Y-75869829D01*
X268106601Y-76041450D01*
X268106592Y-76041464D01*
X268010730Y-76233982D01*
X268010728Y-76233986D01*
X267951873Y-76440838D01*
X267951871Y-76440846D01*
X267932028Y-76655000D01*
X267062972Y-76655000D01*
X267043128Y-76440845D01*
X266984270Y-76233983D01*
X266888404Y-76041458D01*
X266856840Y-75999661D01*
X266758796Y-75869829D01*
X266726754Y-75840619D01*
X266637396Y-75759157D01*
X266599853Y-75724932D01*
X266599850Y-75724930D01*
X266416997Y-75611712D01*
X266416993Y-75611710D01*
X266216449Y-75534019D01*
X266005036Y-75494500D01*
X265789964Y-75494500D01*
X265578550Y-75534019D01*
X265378006Y-75611710D01*
X265378002Y-75611712D01*
X265195149Y-75724930D01*
X265195146Y-75724932D01*
X265036203Y-75869829D01*
X264906601Y-76041450D01*
X264906592Y-76041464D01*
X264810730Y-76233982D01*
X264810728Y-76233986D01*
X264751873Y-76440838D01*
X264751871Y-76440846D01*
X264732028Y-76655000D01*
X263862972Y-76655000D01*
X263843128Y-76440845D01*
X263784270Y-76233983D01*
X263688404Y-76041458D01*
X263656840Y-75999661D01*
X263558796Y-75869829D01*
X263526754Y-75840619D01*
X263437396Y-75759157D01*
X263399853Y-75724932D01*
X263399850Y-75724930D01*
X263216997Y-75611712D01*
X263216993Y-75611710D01*
X263016449Y-75534019D01*
X262805036Y-75494500D01*
X262589964Y-75494500D01*
X262378550Y-75534019D01*
X262178006Y-75611710D01*
X262178002Y-75611712D01*
X261995149Y-75724930D01*
X261995146Y-75724932D01*
X261836203Y-75869829D01*
X261706601Y-76041450D01*
X261706592Y-76041464D01*
X261610730Y-76233982D01*
X261610728Y-76233986D01*
X261551873Y-76440838D01*
X261551871Y-76440846D01*
X261532028Y-76655000D01*
X260662972Y-76655000D01*
X260643128Y-76440845D01*
X260584270Y-76233983D01*
X260488404Y-76041458D01*
X260456840Y-75999661D01*
X260358796Y-75869829D01*
X260326754Y-75840619D01*
X260237396Y-75759157D01*
X260199853Y-75724932D01*
X260199850Y-75724930D01*
X260016997Y-75611712D01*
X260016993Y-75611710D01*
X259816449Y-75534019D01*
X259605036Y-75494500D01*
X259389964Y-75494500D01*
X259178550Y-75534019D01*
X258978006Y-75611710D01*
X258978002Y-75611712D01*
X258795149Y-75724930D01*
X258795146Y-75724932D01*
X258636203Y-75869829D01*
X258506601Y-76041450D01*
X258506592Y-76041464D01*
X258410730Y-76233982D01*
X258410728Y-76233986D01*
X258351873Y-76440838D01*
X258351871Y-76440846D01*
X258332028Y-76655000D01*
X257287500Y-76655000D01*
X257287500Y-76067722D01*
X257305982Y-76016942D01*
X257310639Y-76011861D01*
X258787498Y-74535002D01*
X258787500Y-74535000D01*
X258787500Y-73755000D01*
X259932028Y-73755000D01*
X259951871Y-73969153D01*
X259951873Y-73969161D01*
X260010728Y-74176013D01*
X260010730Y-74176017D01*
X260106592Y-74368535D01*
X260106593Y-74368536D01*
X260106596Y-74368542D01*
X260106597Y-74368543D01*
X260106601Y-74368549D01*
X260236203Y-74540170D01*
X260236204Y-74540171D01*
X260236206Y-74540173D01*
X260252362Y-74554901D01*
X260395146Y-74685067D01*
X260395149Y-74685069D01*
X260578002Y-74798287D01*
X260578006Y-74798289D01*
X260778550Y-74875980D01*
X260778553Y-74875981D01*
X260989964Y-74915500D01*
X261205035Y-74915500D01*
X261205036Y-74915500D01*
X261416447Y-74875981D01*
X261616996Y-74798288D01*
X261799854Y-74685067D01*
X261958794Y-74540173D01*
X262088404Y-74368542D01*
X262184270Y-74176017D01*
X262243128Y-73969155D01*
X262262972Y-73755001D01*
X263132028Y-73755001D01*
X263151871Y-73969154D01*
X263151873Y-73969162D01*
X263210728Y-74176014D01*
X263210730Y-74176018D01*
X263306592Y-74368536D01*
X263306594Y-74368539D01*
X263306596Y-74368543D01*
X263306599Y-74368547D01*
X263306601Y-74368550D01*
X263436203Y-74540171D01*
X263436205Y-74540173D01*
X263436206Y-74540174D01*
X263452361Y-74554901D01*
X263595146Y-74685068D01*
X263595149Y-74685070D01*
X263778002Y-74798288D01*
X263778006Y-74798290D01*
X263978550Y-74875981D01*
X263978553Y-74875982D01*
X264189964Y-74915501D01*
X264405035Y-74915501D01*
X264405036Y-74915501D01*
X264616447Y-74875982D01*
X264816996Y-74798289D01*
X264999854Y-74685068D01*
X265158794Y-74540174D01*
X265288404Y-74368543D01*
X265384270Y-74176018D01*
X265443128Y-73969156D01*
X265462972Y-73755001D01*
X265462972Y-73755000D01*
X266332028Y-73755000D01*
X266351871Y-73969153D01*
X266351873Y-73969161D01*
X266410728Y-74176013D01*
X266410730Y-74176017D01*
X266506592Y-74368535D01*
X266506593Y-74368536D01*
X266506596Y-74368542D01*
X266506597Y-74368543D01*
X266506601Y-74368549D01*
X266636203Y-74540170D01*
X266636204Y-74540171D01*
X266636206Y-74540173D01*
X266652362Y-74554901D01*
X266795146Y-74685067D01*
X266795149Y-74685069D01*
X266978002Y-74798287D01*
X266978006Y-74798289D01*
X267178550Y-74875980D01*
X267178553Y-74875981D01*
X267389964Y-74915500D01*
X267605035Y-74915500D01*
X267605036Y-74915500D01*
X267816447Y-74875981D01*
X268016996Y-74798288D01*
X268199854Y-74685067D01*
X268358794Y-74540173D01*
X268488404Y-74368542D01*
X268584270Y-74176017D01*
X268643128Y-73969155D01*
X268662972Y-73755000D01*
X269532028Y-73755000D01*
X269551871Y-73969153D01*
X269551873Y-73969161D01*
X269610728Y-74176013D01*
X269610730Y-74176017D01*
X269706592Y-74368535D01*
X269706593Y-74368536D01*
X269706596Y-74368542D01*
X269706597Y-74368543D01*
X269706601Y-74368549D01*
X269836203Y-74540170D01*
X269836204Y-74540171D01*
X269836206Y-74540173D01*
X269852362Y-74554901D01*
X269995146Y-74685067D01*
X269995149Y-74685069D01*
X270178002Y-74798287D01*
X270178006Y-74798289D01*
X270378550Y-74875980D01*
X270378553Y-74875981D01*
X270589964Y-74915500D01*
X270805035Y-74915500D01*
X270805036Y-74915500D01*
X271016447Y-74875981D01*
X271216996Y-74798288D01*
X271399854Y-74685067D01*
X271558794Y-74540173D01*
X271688404Y-74368542D01*
X271784270Y-74176017D01*
X271843128Y-73969155D01*
X271862972Y-73755000D01*
X273132530Y-73755000D01*
X273152366Y-73969065D01*
X273211197Y-74175834D01*
X273307019Y-74368271D01*
X273420636Y-74518725D01*
X273890063Y-74049298D01*
X273897401Y-74062007D01*
X273990493Y-74155099D01*
X274003200Y-74162435D01*
X273535563Y-74630072D01*
X273595445Y-74684662D01*
X273595452Y-74684667D01*
X273778226Y-74797837D01*
X273778230Y-74797839D01*
X273978688Y-74875497D01*
X274190010Y-74915000D01*
X274404989Y-74915000D01*
X274616311Y-74875497D01*
X274816769Y-74797839D01*
X274816773Y-74797837D01*
X274999547Y-74684668D01*
X274999550Y-74684665D01*
X275059435Y-74630072D01*
X274591799Y-74162435D01*
X274604507Y-74155099D01*
X274697599Y-74062007D01*
X274704935Y-74049299D01*
X275174362Y-74518726D01*
X275174363Y-74518726D01*
X275287971Y-74368285D01*
X275287980Y-74368271D01*
X275383802Y-74175834D01*
X275442633Y-73969065D01*
X275462469Y-73755000D01*
X275442633Y-73540934D01*
X275383802Y-73334165D01*
X275287980Y-73141728D01*
X275287971Y-73141714D01*
X275174362Y-72991272D01*
X274704935Y-73460699D01*
X274697599Y-73447993D01*
X274604507Y-73354901D01*
X274591798Y-73347564D01*
X275059436Y-72879927D01*
X275059435Y-72879926D01*
X274999554Y-72825337D01*
X274999547Y-72825332D01*
X274816773Y-72712162D01*
X274816769Y-72712160D01*
X274616311Y-72634502D01*
X274404990Y-72595000D01*
X274190010Y-72595000D01*
X273978688Y-72634502D01*
X273778230Y-72712160D01*
X273778226Y-72712162D01*
X273595453Y-72825330D01*
X273595444Y-72825337D01*
X273535563Y-72879925D01*
X273535562Y-72879926D01*
X274003200Y-73347564D01*
X273990493Y-73354901D01*
X273897401Y-73447993D01*
X273890064Y-73460700D01*
X273420636Y-72991272D01*
X273420635Y-72991272D01*
X273307023Y-73141720D01*
X273211197Y-73334165D01*
X273152366Y-73540934D01*
X273132530Y-73755000D01*
X271862972Y-73755000D01*
X271843128Y-73540845D01*
X271784270Y-73333983D01*
X271688404Y-73141458D01*
X271688398Y-73141450D01*
X271558796Y-72969829D01*
X271399853Y-72824932D01*
X271399850Y-72824930D01*
X271216997Y-72711712D01*
X271216993Y-72711710D01*
X271016449Y-72634019D01*
X270805036Y-72594500D01*
X270589964Y-72594500D01*
X270378550Y-72634019D01*
X270178006Y-72711710D01*
X270178002Y-72711712D01*
X269995149Y-72824930D01*
X269995146Y-72824932D01*
X269836203Y-72969829D01*
X269706601Y-73141450D01*
X269706592Y-73141464D01*
X269610730Y-73333982D01*
X269610728Y-73333986D01*
X269551873Y-73540838D01*
X269551871Y-73540846D01*
X269532028Y-73755000D01*
X268662972Y-73755000D01*
X268643128Y-73540845D01*
X268584270Y-73333983D01*
X268488404Y-73141458D01*
X268488398Y-73141450D01*
X268358796Y-72969829D01*
X268199853Y-72824932D01*
X268199850Y-72824930D01*
X268016997Y-72711712D01*
X268016993Y-72711710D01*
X267816449Y-72634019D01*
X267605036Y-72594500D01*
X267389964Y-72594500D01*
X267178550Y-72634019D01*
X266978006Y-72711710D01*
X266978002Y-72711712D01*
X266795149Y-72824930D01*
X266795146Y-72824932D01*
X266636203Y-72969829D01*
X266506601Y-73141450D01*
X266506592Y-73141464D01*
X266410730Y-73333982D01*
X266410728Y-73333986D01*
X266351873Y-73540838D01*
X266351871Y-73540846D01*
X266332028Y-73755000D01*
X265462972Y-73755000D01*
X265443128Y-73540846D01*
X265416709Y-73447993D01*
X265384271Y-73333987D01*
X265384270Y-73333986D01*
X265384270Y-73333984D01*
X265288404Y-73141459D01*
X265158794Y-72969828D01*
X264999854Y-72824934D01*
X264999853Y-72824933D01*
X264999850Y-72824931D01*
X264816997Y-72711713D01*
X264816993Y-72711711D01*
X264616449Y-72634020D01*
X264405036Y-72594501D01*
X264189964Y-72594501D01*
X263978550Y-72634020D01*
X263778006Y-72711711D01*
X263778002Y-72711713D01*
X263595149Y-72824931D01*
X263595146Y-72824933D01*
X263436203Y-72969830D01*
X263306601Y-73141451D01*
X263306592Y-73141465D01*
X263210730Y-73333983D01*
X263210728Y-73333987D01*
X263151873Y-73540839D01*
X263151871Y-73540847D01*
X263132028Y-73755001D01*
X262262972Y-73755001D01*
X262262972Y-73755000D01*
X262243128Y-73540845D01*
X262184270Y-73333983D01*
X262088404Y-73141458D01*
X262088398Y-73141450D01*
X261958796Y-72969829D01*
X261799853Y-72824932D01*
X261799850Y-72824930D01*
X261616997Y-72711712D01*
X261616993Y-72711710D01*
X261416449Y-72634019D01*
X261205036Y-72594500D01*
X260989964Y-72594500D01*
X260778550Y-72634019D01*
X260578006Y-72711710D01*
X260578002Y-72711712D01*
X260395149Y-72824930D01*
X260395146Y-72824932D01*
X260236203Y-72969829D01*
X260106601Y-73141450D01*
X260106592Y-73141464D01*
X260010730Y-73333982D01*
X260010728Y-73333986D01*
X259951873Y-73540838D01*
X259951871Y-73540846D01*
X259932028Y-73755000D01*
X258787500Y-73755000D01*
X258787500Y-73567722D01*
X258805982Y-73516942D01*
X258810639Y-73511861D01*
X261264361Y-71058139D01*
X261313337Y-71035301D01*
X261320222Y-71035000D01*
X264787499Y-71035000D01*
X264787500Y-71035000D01*
X265117503Y-70704997D01*
X275542008Y-70704997D01*
X275542008Y-70705002D01*
X275561853Y-70830302D01*
X275561854Y-70830306D01*
X275619448Y-70943340D01*
X275619450Y-70943343D01*
X275709156Y-71033049D01*
X275709159Y-71033051D01*
X275822193Y-71090645D01*
X275822195Y-71090645D01*
X275822196Y-71090646D01*
X275863964Y-71097261D01*
X275947498Y-71110492D01*
X275947500Y-71110492D01*
X275947502Y-71110492D01*
X276010152Y-71100569D01*
X276072804Y-71090646D01*
X276185842Y-71033050D01*
X276275550Y-70943342D01*
X276333146Y-70830304D01*
X276352992Y-70705000D01*
X276333146Y-70579696D01*
X276333145Y-70579695D01*
X276333145Y-70579693D01*
X276275551Y-70466659D01*
X276275549Y-70466656D01*
X276185843Y-70376950D01*
X276185840Y-70376948D01*
X276072806Y-70319354D01*
X276072802Y-70319353D01*
X275947502Y-70299508D01*
X275947498Y-70299508D01*
X275822197Y-70319353D01*
X275822193Y-70319354D01*
X275709159Y-70376948D01*
X275709156Y-70376950D01*
X275619450Y-70466656D01*
X275619448Y-70466659D01*
X275561854Y-70579693D01*
X275561853Y-70579697D01*
X275542008Y-70704997D01*
X265117503Y-70704997D01*
X265787500Y-70035000D01*
X265787500Y-66529996D01*
X274617007Y-66529996D01*
X274617007Y-66530001D01*
X274636852Y-66655301D01*
X274636853Y-66655305D01*
X274694447Y-66768339D01*
X274694449Y-66768342D01*
X274784155Y-66858048D01*
X274784158Y-66858050D01*
X274897192Y-66915644D01*
X274897194Y-66915644D01*
X274897195Y-66915645D01*
X274938963Y-66922260D01*
X275022497Y-66935491D01*
X275022499Y-66935491D01*
X275022501Y-66935491D01*
X275085151Y-66925568D01*
X275147803Y-66915645D01*
X275260841Y-66858049D01*
X275350549Y-66768341D01*
X275408145Y-66655303D01*
X275427991Y-66529999D01*
X275424294Y-66506659D01*
X275408145Y-66404696D01*
X275408144Y-66404692D01*
X275350550Y-66291658D01*
X275350548Y-66291655D01*
X275260842Y-66201949D01*
X275260839Y-66201947D01*
X275147805Y-66144353D01*
X275147801Y-66144352D01*
X275022501Y-66124507D01*
X275022497Y-66124507D01*
X274897196Y-66144352D01*
X274897192Y-66144353D01*
X274784158Y-66201947D01*
X274784155Y-66201949D01*
X274694449Y-66291655D01*
X274694447Y-66291658D01*
X274636853Y-66404692D01*
X274636852Y-66404696D01*
X274617007Y-66529996D01*
X265787500Y-66529996D01*
X265787500Y-65067722D01*
X265805982Y-65016942D01*
X265810639Y-65011861D01*
X267264361Y-63558139D01*
X267313337Y-63535301D01*
X267320222Y-63535000D01*
X276754778Y-63535000D01*
X276805558Y-63553482D01*
X276810639Y-63558139D01*
X277863861Y-64611361D01*
X277886699Y-64660337D01*
X277887000Y-64667222D01*
X277887000Y-95902777D01*
X277868518Y-95953557D01*
X277863861Y-95958638D01*
X276623552Y-97198946D01*
X276574576Y-97221784D01*
X276551267Y-97220359D01*
X276450525Y-97198946D01*
X276431636Y-97194931D01*
X276431634Y-97194930D01*
X276431630Y-97194930D01*
X276348283Y-97194930D01*
X273184703Y-97194523D01*
X273133925Y-97176034D01*
X273128852Y-97171384D01*
X271921139Y-95963671D01*
X271898301Y-95914695D01*
X271898000Y-95907810D01*
X271898000Y-95104998D01*
X273922008Y-95104998D01*
X273922008Y-95105003D01*
X273941853Y-95230303D01*
X273941854Y-95230307D01*
X273999448Y-95343341D01*
X273999450Y-95343344D01*
X274089156Y-95433050D01*
X274089159Y-95433052D01*
X274202193Y-95490646D01*
X274202195Y-95490646D01*
X274202196Y-95490647D01*
X274243964Y-95497262D01*
X274327498Y-95510493D01*
X274327500Y-95510493D01*
X274327502Y-95510493D01*
X274390152Y-95500570D01*
X274452804Y-95490647D01*
X274565842Y-95433051D01*
X274655550Y-95343343D01*
X274713146Y-95230305D01*
X274732992Y-95105001D01*
X274713146Y-94979697D01*
X274713145Y-94979696D01*
X274713145Y-94979694D01*
X274655551Y-94866660D01*
X274655549Y-94866657D01*
X274565843Y-94776951D01*
X274565840Y-94776949D01*
X274452806Y-94719355D01*
X274452802Y-94719354D01*
X274327502Y-94699509D01*
X274327498Y-94699509D01*
X274202197Y-94719354D01*
X274202193Y-94719355D01*
X274089159Y-94776949D01*
X274089156Y-94776951D01*
X273999450Y-94866657D01*
X273999448Y-94866660D01*
X273941854Y-94979694D01*
X273941853Y-94979698D01*
X273922008Y-95104998D01*
X271898000Y-95104998D01*
X271898000Y-93065914D01*
X271898001Y-93065517D01*
X271898195Y-93026927D01*
X271898131Y-93026441D01*
X271898079Y-93026036D01*
X271898007Y-93025470D01*
X271898000Y-93025443D01*
X271898000Y-93025441D01*
X271887961Y-92987976D01*
X271878100Y-92950422D01*
X271878094Y-92950399D01*
X271877903Y-92949937D01*
X271877765Y-92949603D01*
X271877531Y-92949030D01*
X271858231Y-92915603D01*
X271858033Y-92915258D01*
X271838869Y-92881678D01*
X271838463Y-92881148D01*
X271838235Y-92880850D01*
X271837973Y-92880505D01*
X271832470Y-92875002D01*
X271810451Y-92852983D01*
X269337428Y-90354996D01*
X275792006Y-90354996D01*
X275792006Y-90355001D01*
X275811851Y-90480301D01*
X275811852Y-90480305D01*
X275869446Y-90593339D01*
X275869448Y-90593342D01*
X275959154Y-90683048D01*
X275959157Y-90683050D01*
X276072191Y-90740644D01*
X276072193Y-90740644D01*
X276072194Y-90740645D01*
X276113962Y-90747260D01*
X276197496Y-90760491D01*
X276197498Y-90760491D01*
X276197500Y-90760491D01*
X276260150Y-90750568D01*
X276322802Y-90740645D01*
X276435840Y-90683049D01*
X276525548Y-90593341D01*
X276583144Y-90480303D01*
X276602990Y-90354999D01*
X276601479Y-90345461D01*
X276583144Y-90229696D01*
X276583143Y-90229692D01*
X276525549Y-90116658D01*
X276525547Y-90116655D01*
X276435841Y-90026949D01*
X276435838Y-90026947D01*
X276322804Y-89969353D01*
X276322800Y-89969352D01*
X276197500Y-89949507D01*
X276197496Y-89949507D01*
X276072195Y-89969352D01*
X276072191Y-89969353D01*
X275959157Y-90026947D01*
X275959154Y-90026949D01*
X275869448Y-90116655D01*
X275869446Y-90116658D01*
X275811852Y-90229692D01*
X275811851Y-90229696D01*
X275792006Y-90354996D01*
X269337428Y-90354996D01*
X268911981Y-89925254D01*
X268909782Y-89922734D01*
X268900392Y-89913344D01*
X268880135Y-89893087D01*
X268852794Y-89865470D01*
X268852793Y-89865469D01*
X268852770Y-89865446D01*
X268852343Y-89865119D01*
X268852018Y-89864869D01*
X268851608Y-89864551D01*
X268818068Y-89845186D01*
X268817807Y-89845035D01*
X268799034Y-89834071D01*
X268784446Y-89825551D01*
X268783894Y-89825323D01*
X268783534Y-89825173D01*
X268783086Y-89824984D01*
X268745609Y-89814941D01*
X268745231Y-89814839D01*
X268708112Y-89804694D01*
X268707528Y-89804617D01*
X268707158Y-89804568D01*
X268706668Y-89804501D01*
X268706640Y-89804501D01*
X268667990Y-89804501D01*
X268667593Y-89804500D01*
X268625855Y-89804290D01*
X268622509Y-89804501D01*
X246004713Y-89804501D01*
X245953933Y-89786019D01*
X245948847Y-89781358D01*
X244137153Y-87969354D01*
X242231581Y-86063456D01*
X243132000Y-86063456D01*
X243132000Y-86171543D01*
X243159974Y-86275946D01*
X243159975Y-86275948D01*
X243214019Y-86369555D01*
X243990443Y-87145979D01*
X243990445Y-87145980D01*
X243990446Y-87145981D01*
X244084053Y-87200025D01*
X244188456Y-87228000D01*
X244188458Y-87228000D01*
X244296541Y-87228000D01*
X244296543Y-87228000D01*
X244400947Y-87200025D01*
X244494553Y-87145981D01*
X244570981Y-87069553D01*
X244625025Y-86975947D01*
X244653000Y-86871543D01*
X244653000Y-86817497D01*
X250637008Y-86817497D01*
X250637008Y-86817502D01*
X250656853Y-86942802D01*
X250656854Y-86942806D01*
X250714448Y-87055840D01*
X250714450Y-87055843D01*
X250804156Y-87145549D01*
X250804159Y-87145551D01*
X250917193Y-87203145D01*
X250917195Y-87203145D01*
X250917196Y-87203146D01*
X250958964Y-87209761D01*
X251042498Y-87222992D01*
X251042500Y-87222992D01*
X251042502Y-87222992D01*
X251105152Y-87213069D01*
X251167804Y-87203146D01*
X251280842Y-87145550D01*
X251370550Y-87055842D01*
X251428146Y-86942804D01*
X251446066Y-86829659D01*
X251447992Y-86817502D01*
X251447992Y-86817497D01*
X257437008Y-86817497D01*
X257437008Y-86817502D01*
X257456853Y-86942802D01*
X257456854Y-86942806D01*
X257514448Y-87055840D01*
X257514450Y-87055843D01*
X257604156Y-87145549D01*
X257604159Y-87145551D01*
X257717193Y-87203145D01*
X257717195Y-87203145D01*
X257717196Y-87203146D01*
X257758964Y-87209761D01*
X257842498Y-87222992D01*
X257842500Y-87222992D01*
X257842502Y-87222992D01*
X257905152Y-87213069D01*
X257967804Y-87203146D01*
X258080842Y-87145550D01*
X258170550Y-87055842D01*
X258228146Y-86942804D01*
X258246066Y-86829659D01*
X258247992Y-86817502D01*
X258247992Y-86817497D01*
X258228146Y-86692197D01*
X258228145Y-86692193D01*
X258170551Y-86579159D01*
X258170549Y-86579156D01*
X258080843Y-86489450D01*
X258080840Y-86489448D01*
X257967806Y-86431854D01*
X257967802Y-86431853D01*
X257842502Y-86412008D01*
X257842498Y-86412008D01*
X257717197Y-86431853D01*
X257717193Y-86431854D01*
X257604159Y-86489448D01*
X257604156Y-86489450D01*
X257514450Y-86579156D01*
X257514448Y-86579159D01*
X257456854Y-86692193D01*
X257456853Y-86692197D01*
X257437008Y-86817497D01*
X251447992Y-86817497D01*
X251428146Y-86692197D01*
X251428145Y-86692193D01*
X251370551Y-86579159D01*
X251370549Y-86579156D01*
X251280843Y-86489450D01*
X251280840Y-86489448D01*
X251167806Y-86431854D01*
X251167802Y-86431853D01*
X251042502Y-86412008D01*
X251042498Y-86412008D01*
X250917197Y-86431853D01*
X250917193Y-86431854D01*
X250804159Y-86489448D01*
X250804156Y-86489450D01*
X250714450Y-86579156D01*
X250714448Y-86579159D01*
X250656854Y-86692193D01*
X250656853Y-86692197D01*
X250637008Y-86817497D01*
X244653000Y-86817497D01*
X244653000Y-86763456D01*
X244625025Y-86659053D01*
X244570981Y-86565446D01*
X244570980Y-86565445D01*
X244570979Y-86565443D01*
X243794555Y-85789019D01*
X243700948Y-85734975D01*
X243700946Y-85734974D01*
X243596543Y-85707000D01*
X243488457Y-85707000D01*
X243488456Y-85707000D01*
X243384053Y-85734974D01*
X243384051Y-85734975D01*
X243290444Y-85789019D01*
X243214019Y-85865444D01*
X243159975Y-85959051D01*
X243159974Y-85959053D01*
X243132000Y-86063456D01*
X242231581Y-86063456D01*
X240871625Y-84703267D01*
X240871587Y-84703221D01*
X240856869Y-84688503D01*
X240856851Y-84688465D01*
X240773455Y-84605068D01*
X240632330Y-84513418D01*
X240632328Y-84513417D01*
X240527044Y-84473002D01*
X240475233Y-84453113D01*
X240475231Y-84453112D01*
X240475227Y-84453111D01*
X240309035Y-84426788D01*
X240309031Y-84426788D01*
X240294027Y-84427574D01*
X240225621Y-84431158D01*
X240173943Y-84415357D01*
X240165627Y-84408127D01*
X239232501Y-83475000D01*
X239232499Y-83474999D01*
X239232498Y-83474999D01*
X182583313Y-83474999D01*
X182532533Y-83456517D01*
X182505513Y-83409717D01*
X182514897Y-83356499D01*
X182533196Y-83334931D01*
X182534085Y-83334200D01*
X182541015Y-83328514D01*
X182673540Y-83167032D01*
X182689170Y-83137790D01*
X242587000Y-83137790D01*
X242587000Y-83272209D01*
X242621789Y-83402045D01*
X242621790Y-83402047D01*
X242688999Y-83518456D01*
X242784043Y-83613500D01*
X242784045Y-83613501D01*
X242784046Y-83613502D01*
X242900454Y-83680710D01*
X243030291Y-83715500D01*
X243030293Y-83715500D01*
X245214707Y-83715500D01*
X245214709Y-83715500D01*
X245344546Y-83680710D01*
X245460954Y-83613502D01*
X245556002Y-83518454D01*
X245623210Y-83402046D01*
X245658000Y-83272209D01*
X245658000Y-83137791D01*
X245657117Y-83134497D01*
X265062000Y-83134497D01*
X265062000Y-83275502D01*
X265098492Y-83411692D01*
X265098493Y-83411696D01*
X265168994Y-83533807D01*
X265268692Y-83633505D01*
X265268694Y-83633506D01*
X265268695Y-83633507D01*
X265390805Y-83704007D01*
X265527000Y-83740500D01*
X265527002Y-83740500D01*
X267717998Y-83740500D01*
X267718000Y-83740500D01*
X267854195Y-83704007D01*
X267976305Y-83633507D01*
X268076007Y-83533805D01*
X268146507Y-83411695D01*
X268183000Y-83275500D01*
X268183000Y-83134500D01*
X268146507Y-82998305D01*
X268076007Y-82876195D01*
X268076006Y-82876194D01*
X268076005Y-82876192D01*
X267976307Y-82776494D01*
X267854196Y-82705993D01*
X267854192Y-82705992D01*
X267718002Y-82669500D01*
X267718000Y-82669500D01*
X265527000Y-82669500D01*
X265526997Y-82669500D01*
X265390807Y-82705992D01*
X265390803Y-82705993D01*
X265268692Y-82776494D01*
X265168994Y-82876192D01*
X265098493Y-82998303D01*
X265098492Y-82998307D01*
X265062000Y-83134497D01*
X245657117Y-83134497D01*
X245623210Y-83007954D01*
X245610755Y-82986382D01*
X245598609Y-82965344D01*
X245556002Y-82891546D01*
X245556001Y-82891545D01*
X245556000Y-82891543D01*
X245460956Y-82796499D01*
X245344547Y-82729290D01*
X245344545Y-82729289D01*
X245214709Y-82694500D01*
X243030291Y-82694500D01*
X243030290Y-82694500D01*
X242900454Y-82729289D01*
X242900452Y-82729290D01*
X242784043Y-82796499D01*
X242688999Y-82891543D01*
X242621790Y-83007952D01*
X242621789Y-83007954D01*
X242587000Y-83137790D01*
X182689170Y-83137790D01*
X182772015Y-82982798D01*
X182804353Y-82876195D01*
X182832654Y-82782897D01*
X182832654Y-82782895D01*
X182832655Y-82782893D01*
X182853131Y-82574999D01*
X182832655Y-82367105D01*
X182832654Y-82367102D01*
X182832654Y-82367100D01*
X182772018Y-82167208D01*
X182772016Y-82167205D01*
X182772015Y-82167200D01*
X182673540Y-81982966D01*
X182673539Y-81982964D01*
X182541015Y-81821483D01*
X182379534Y-81688959D01*
X182281059Y-81636323D01*
X182195299Y-81590484D01*
X182195296Y-81590483D01*
X182195290Y-81590480D01*
X181995398Y-81529844D01*
X181787500Y-81509368D01*
X181579601Y-81529844D01*
X181379709Y-81590480D01*
X181379699Y-81590485D01*
X181195465Y-81688959D01*
X181033984Y-81821483D01*
X180901460Y-81982964D01*
X180802986Y-82167198D01*
X180802981Y-82167208D01*
X180742345Y-82367100D01*
X180721869Y-82574999D01*
X180742345Y-82782897D01*
X180802981Y-82982789D01*
X180804470Y-82986382D01*
X180802801Y-82987073D01*
X180809531Y-83034275D01*
X180780985Y-83080160D01*
X180729624Y-83096960D01*
X180679480Y-83076816D01*
X180676364Y-83073864D01*
X180511139Y-82908639D01*
X180488301Y-82859663D01*
X180488000Y-82852778D01*
X180488000Y-80035000D01*
X180722371Y-80035000D01*
X180742837Y-80242798D01*
X180742838Y-80242802D01*
X180803446Y-80442601D01*
X180803448Y-80442604D01*
X180901880Y-80626756D01*
X180983343Y-80726019D01*
X181380063Y-80329298D01*
X181387401Y-80342007D01*
X181480493Y-80435099D01*
X181493199Y-80442435D01*
X181096479Y-80839155D01*
X181195743Y-80920619D01*
X181379895Y-81019051D01*
X181379898Y-81019053D01*
X181579697Y-81079661D01*
X181579701Y-81079662D01*
X181787500Y-81100128D01*
X181995298Y-81079662D01*
X181995302Y-81079661D01*
X182195101Y-81019053D01*
X182195104Y-81019051D01*
X182379260Y-80920617D01*
X182478518Y-80839157D01*
X182478519Y-80839155D01*
X182081799Y-80442435D01*
X182094507Y-80435099D01*
X182187599Y-80342007D01*
X182194935Y-80329299D01*
X182591655Y-80726019D01*
X182591657Y-80726018D01*
X182673117Y-80626760D01*
X182771551Y-80442604D01*
X182771553Y-80442601D01*
X182832161Y-80242802D01*
X182832162Y-80242798D01*
X182852628Y-80035000D01*
X182832162Y-79827201D01*
X182832161Y-79827197D01*
X182771553Y-79627398D01*
X182771551Y-79627395D01*
X182673119Y-79443243D01*
X182591655Y-79343979D01*
X182194935Y-79740699D01*
X182187599Y-79727993D01*
X182094507Y-79634901D01*
X182081798Y-79627563D01*
X182478519Y-79230843D01*
X182379256Y-79149380D01*
X182195104Y-79050948D01*
X182195101Y-79050946D01*
X181995302Y-78990338D01*
X181995298Y-78990337D01*
X181787500Y-78969871D01*
X181579701Y-78990337D01*
X181579697Y-78990338D01*
X181379898Y-79050946D01*
X181379895Y-79050948D01*
X181195742Y-79149380D01*
X181096480Y-79230842D01*
X181096479Y-79230843D01*
X181493200Y-79627564D01*
X181480493Y-79634901D01*
X181387401Y-79727993D01*
X181380064Y-79740700D01*
X180983343Y-79343979D01*
X180983342Y-79343980D01*
X180901880Y-79443242D01*
X180803448Y-79627395D01*
X180803446Y-79627398D01*
X180742838Y-79827197D01*
X180742837Y-79827201D01*
X180722371Y-80035000D01*
X180488000Y-80035000D01*
X180488000Y-77495000D01*
X180721869Y-77495000D01*
X180742345Y-77702898D01*
X180802981Y-77902790D01*
X180802984Y-77902796D01*
X180802985Y-77902799D01*
X180802986Y-77902800D01*
X180901460Y-78087034D01*
X181033984Y-78248515D01*
X181195465Y-78381039D01*
X181195467Y-78381040D01*
X181379701Y-78479515D01*
X181379706Y-78479516D01*
X181379709Y-78479518D01*
X181579601Y-78540154D01*
X181579603Y-78540154D01*
X181579606Y-78540155D01*
X181787500Y-78560631D01*
X181995394Y-78540155D01*
X181995396Y-78540154D01*
X181995398Y-78540154D01*
X182195290Y-78479518D01*
X182195291Y-78479517D01*
X182195299Y-78479515D01*
X182379533Y-78381040D01*
X182541015Y-78248515D01*
X182673540Y-78087033D01*
X182772015Y-77902799D01*
X182810485Y-77775981D01*
X182832654Y-77702898D01*
X182832654Y-77702896D01*
X182832655Y-77702894D01*
X182853131Y-77495000D01*
X182832655Y-77287106D01*
X182832654Y-77287103D01*
X182832654Y-77287101D01*
X182772018Y-77087209D01*
X182772016Y-77087206D01*
X182772015Y-77087201D01*
X182673540Y-76902967D01*
X182673539Y-76902965D01*
X182541015Y-76741484D01*
X182379534Y-76608960D01*
X182281059Y-76556324D01*
X182195299Y-76510485D01*
X182195296Y-76510484D01*
X182195290Y-76510481D01*
X181995398Y-76449845D01*
X181787500Y-76429369D01*
X181579601Y-76449845D01*
X181379709Y-76510481D01*
X181379699Y-76510486D01*
X181195465Y-76608960D01*
X181033984Y-76741484D01*
X180901460Y-76902965D01*
X180802986Y-77087199D01*
X180802981Y-77087209D01*
X180742345Y-77287101D01*
X180721869Y-77495000D01*
X180488000Y-77495000D01*
X180488000Y-74955000D01*
X180722371Y-74955000D01*
X180742837Y-75162798D01*
X180742838Y-75162802D01*
X180803446Y-75362601D01*
X180803448Y-75362604D01*
X180901880Y-75546756D01*
X180983343Y-75646019D01*
X181380063Y-75249298D01*
X181387401Y-75262007D01*
X181480493Y-75355099D01*
X181493199Y-75362435D01*
X181096479Y-75759155D01*
X181195743Y-75840619D01*
X181379895Y-75939051D01*
X181379898Y-75939053D01*
X181579697Y-75999661D01*
X181579701Y-75999662D01*
X181787500Y-76020128D01*
X181995298Y-75999662D01*
X181995302Y-75999661D01*
X182195101Y-75939053D01*
X182195104Y-75939051D01*
X182379260Y-75840617D01*
X182478518Y-75759157D01*
X182478519Y-75759155D01*
X182081799Y-75362435D01*
X182094507Y-75355099D01*
X182187599Y-75262007D01*
X182194935Y-75249299D01*
X182591655Y-75646019D01*
X182591657Y-75646018D01*
X182673117Y-75546760D01*
X182771551Y-75362604D01*
X182771553Y-75362601D01*
X182832161Y-75162802D01*
X182832162Y-75162798D01*
X182852628Y-74955000D01*
X182832162Y-74747201D01*
X182832161Y-74747197D01*
X182771553Y-74547398D01*
X182771551Y-74547395D01*
X182673119Y-74363243D01*
X182591655Y-74263979D01*
X182194935Y-74660699D01*
X182187599Y-74647993D01*
X182094507Y-74554901D01*
X182081798Y-74547563D01*
X182478519Y-74150843D01*
X182379256Y-74069380D01*
X182195104Y-73970948D01*
X182195101Y-73970946D01*
X181995302Y-73910338D01*
X181995298Y-73910337D01*
X181787500Y-73889871D01*
X181579701Y-73910337D01*
X181579697Y-73910338D01*
X181379898Y-73970946D01*
X181379895Y-73970948D01*
X181195742Y-74069380D01*
X181096480Y-74150842D01*
X181096479Y-74150843D01*
X181493200Y-74547564D01*
X181480493Y-74554901D01*
X181387401Y-74647993D01*
X181380064Y-74660700D01*
X180983343Y-74263979D01*
X180983342Y-74263980D01*
X180901880Y-74363242D01*
X180803448Y-74547395D01*
X180803446Y-74547398D01*
X180742838Y-74747197D01*
X180742837Y-74747201D01*
X180722371Y-74955000D01*
X180488000Y-74955000D01*
X180488000Y-71624198D01*
X180506482Y-71573418D01*
X180553282Y-71546398D01*
X180606500Y-71555782D01*
X180635415Y-71584697D01*
X180687251Y-71674479D01*
X180755017Y-71762794D01*
X180854870Y-71892927D01*
X181049572Y-72087629D01*
X181155140Y-72168633D01*
X181268021Y-72255249D01*
X181506479Y-72392923D01*
X181760868Y-72498295D01*
X181760873Y-72498296D01*
X181760875Y-72498297D01*
X182026834Y-72569560D01*
X182299822Y-72605500D01*
X182299826Y-72605500D01*
X182575177Y-72605500D01*
X182779918Y-72578545D01*
X182848166Y-72569560D01*
X183114132Y-72498295D01*
X183368521Y-72392923D01*
X183606979Y-72255249D01*
X183825428Y-72087628D01*
X184020128Y-71892928D01*
X184187749Y-71674479D01*
X184325423Y-71436021D01*
X184430795Y-71181632D01*
X184502060Y-70915666D01*
X184513298Y-70830302D01*
X184538000Y-70642677D01*
X184538000Y-70367322D01*
X184502060Y-70094334D01*
X184430797Y-69828375D01*
X184430796Y-69828373D01*
X184430795Y-69828368D01*
X184325423Y-69573979D01*
X184187749Y-69335521D01*
X184101133Y-69222640D01*
X184020129Y-69117072D01*
X183825427Y-68922370D01*
X183652438Y-68789633D01*
X183606979Y-68754751D01*
X183368521Y-68617077D01*
X183368518Y-68617075D01*
X183368515Y-68617074D01*
X183114140Y-68511708D01*
X183114124Y-68511702D01*
X182848165Y-68440439D01*
X182575177Y-68404500D01*
X182575174Y-68404500D01*
X182299826Y-68404500D01*
X182299823Y-68404500D01*
X182026834Y-68440439D01*
X181760875Y-68511702D01*
X181760859Y-68511708D01*
X181506484Y-68617074D01*
X181268025Y-68754748D01*
X181049572Y-68922370D01*
X180854870Y-69117072D01*
X180687248Y-69335525D01*
X180635416Y-69425301D01*
X180594019Y-69460037D01*
X180539980Y-69460037D01*
X180498584Y-69425301D01*
X180488000Y-69385801D01*
X180488000Y-59125713D01*
X181804818Y-59125713D01*
X181804818Y-59125718D01*
X181824663Y-59251018D01*
X181824664Y-59251022D01*
X181882258Y-59364056D01*
X181882260Y-59364059D01*
X181971966Y-59453765D01*
X181971969Y-59453767D01*
X182085003Y-59511361D01*
X182085005Y-59511361D01*
X182085006Y-59511362D01*
X182126774Y-59517977D01*
X182210308Y-59531208D01*
X182210310Y-59531208D01*
X182210312Y-59531208D01*
X182272962Y-59521285D01*
X182335614Y-59511362D01*
X182448652Y-59453766D01*
X182538360Y-59364058D01*
X182595956Y-59251020D01*
X182615802Y-59125716D01*
X182595956Y-59000412D01*
X182595955Y-59000411D01*
X182595955Y-59000409D01*
X182538361Y-58887375D01*
X182538359Y-58887372D01*
X182448653Y-58797666D01*
X182448650Y-58797664D01*
X182335616Y-58740070D01*
X182335612Y-58740069D01*
X182210312Y-58720224D01*
X182210308Y-58720224D01*
X182085007Y-58740069D01*
X182085003Y-58740070D01*
X181971969Y-58797664D01*
X181971966Y-58797666D01*
X181882260Y-58887372D01*
X181882258Y-58887375D01*
X181824664Y-59000409D01*
X181824663Y-59000413D01*
X181804818Y-59125713D01*
X180488000Y-59125713D01*
X180488000Y-58599999D01*
X184607007Y-58599999D01*
X184607007Y-58600004D01*
X184626852Y-58725304D01*
X184626853Y-58725308D01*
X184684447Y-58838342D01*
X184684449Y-58838345D01*
X184774155Y-58928051D01*
X184774158Y-58928053D01*
X184887192Y-58985647D01*
X184887194Y-58985647D01*
X184887195Y-58985648D01*
X184928963Y-58992263D01*
X185012497Y-59005494D01*
X185012499Y-59005494D01*
X185012501Y-59005494D01*
X185075151Y-58995571D01*
X185137803Y-58985648D01*
X185250841Y-58928052D01*
X185340549Y-58838344D01*
X185398145Y-58725306D01*
X185417991Y-58600002D01*
X185398145Y-58474698D01*
X185398144Y-58474697D01*
X185398144Y-58474695D01*
X185340550Y-58361661D01*
X185340548Y-58361658D01*
X185250842Y-58271952D01*
X185250839Y-58271950D01*
X185137805Y-58214356D01*
X185137801Y-58214355D01*
X185012501Y-58194510D01*
X185012497Y-58194510D01*
X184887196Y-58214355D01*
X184887192Y-58214356D01*
X184774158Y-58271950D01*
X184774155Y-58271952D01*
X184684449Y-58361658D01*
X184684447Y-58361661D01*
X184626853Y-58474695D01*
X184626852Y-58474699D01*
X184607007Y-58599999D01*
X180488000Y-58599999D01*
X180488000Y-55357222D01*
X180506482Y-55306442D01*
X180511139Y-55301361D01*
X181264361Y-54548139D01*
X181313337Y-54525301D01*
X181320222Y-54525000D01*
X182208500Y-54525000D01*
X182259280Y-54543482D01*
X182286300Y-54590282D01*
X182287500Y-54604000D01*
X182287500Y-55325000D01*
X182287501Y-55325002D01*
X182714361Y-55751861D01*
X182737199Y-55800837D01*
X182737500Y-55807722D01*
X182737500Y-56855749D01*
X183144707Y-57294157D01*
X189243341Y-57294157D01*
X189243342Y-57294157D01*
X189762922Y-56774577D01*
X189762922Y-53001144D01*
X189781404Y-52950364D01*
X189828204Y-52923344D01*
X189881422Y-52932728D01*
G37*
%TD.AperFunction*%
%TD*%
%TA.AperFunction,Conductor*%
%TO.N,/INVERTER/MC_W*%
G36*
X269130539Y-22274685D02*
G01*
X269176294Y-22327489D01*
X269187500Y-22379000D01*
X269187500Y-25203638D01*
X269167815Y-25270677D01*
X269151181Y-25291319D01*
X268685000Y-25757499D01*
X268685000Y-37526000D01*
X268665315Y-37593039D01*
X268612511Y-37638794D01*
X268561000Y-37650000D01*
X266016500Y-37650000D01*
X265949461Y-37630315D01*
X265903706Y-37577511D01*
X265892500Y-37526000D01*
X265892500Y-35112500D01*
X265662007Y-34882007D01*
X265642301Y-34856325D01*
X265585276Y-34757554D01*
X265585275Y-34757552D01*
X265441593Y-34570302D01*
X265441587Y-34570295D01*
X265274704Y-34403412D01*
X265274697Y-34403406D01*
X265087458Y-34259733D01*
X265087456Y-34259732D01*
X265087450Y-34259727D01*
X264988673Y-34202698D01*
X264962992Y-34182992D01*
X264585000Y-33805000D01*
X263821500Y-33805000D01*
X263754461Y-33785315D01*
X263708706Y-33732511D01*
X263697500Y-33681000D01*
X263697500Y-32229000D01*
X263717185Y-32161961D01*
X263769989Y-32116206D01*
X263821500Y-32105000D01*
X264597500Y-32105000D01*
X265897500Y-30805000D01*
X265897500Y-27045000D01*
X264107500Y-25255000D01*
X261731500Y-25255000D01*
X261664461Y-25235315D01*
X261618706Y-25182511D01*
X261607500Y-25131000D01*
X261607500Y-22379000D01*
X261627185Y-22311961D01*
X261679989Y-22266206D01*
X261731500Y-22255000D01*
X269063500Y-22255000D01*
X269130539Y-22274685D01*
G37*
%TD.AperFunction*%
%TD*%
%TA.AperFunction,Conductor*%
%TO.N,/INVERTER/MC_U*%
G36*
X276265558Y-32123482D02*
G01*
X276270639Y-32128139D01*
X276474361Y-32331861D01*
X276497199Y-32380837D01*
X276497500Y-32387722D01*
X276497500Y-33522278D01*
X276479018Y-33573058D01*
X276474361Y-33578139D01*
X276270639Y-33781861D01*
X276221663Y-33804699D01*
X276214778Y-33805000D01*
X274280222Y-33805000D01*
X274229442Y-33786518D01*
X274224361Y-33781861D01*
X274020639Y-33578139D01*
X273997801Y-33529163D01*
X273997500Y-33522278D01*
X273997500Y-32387722D01*
X274015982Y-32336942D01*
X274020639Y-32331861D01*
X274224361Y-32128139D01*
X274273337Y-32105301D01*
X274280222Y-32105000D01*
X276214778Y-32105000D01*
X276265558Y-32123482D01*
G37*
%TD.AperFunction*%
%TD*%
%TA.AperFunction,Conductor*%
%TO.N,GND_ADC*%
G36*
X200260558Y-90333483D02*
G01*
X200265639Y-90338140D01*
X200979361Y-91051862D01*
X201002199Y-91100838D01*
X201002500Y-91107723D01*
X201002500Y-92542278D01*
X200984018Y-92593058D01*
X200979361Y-92598139D01*
X196352501Y-97224998D01*
X196352500Y-97225002D01*
X196352500Y-98942278D01*
X196334018Y-98993058D01*
X196329361Y-98998139D01*
X193352501Y-101974998D01*
X193352500Y-101975000D01*
X193352500Y-101975001D01*
X193352500Y-104425001D01*
X193352501Y-104425003D01*
X193722497Y-104794999D01*
X193722499Y-104795000D01*
X193722500Y-104795001D01*
X205023500Y-104795001D01*
X205074280Y-104813483D01*
X205101300Y-104860283D01*
X205102500Y-104874001D01*
X205102500Y-106746001D01*
X205084018Y-106796781D01*
X205037218Y-106823801D01*
X205023500Y-106825001D01*
X188235222Y-106825001D01*
X188184442Y-106806519D01*
X188179361Y-106801862D01*
X187025639Y-105648140D01*
X187002801Y-105599164D01*
X187002500Y-105592279D01*
X187002500Y-103257723D01*
X187020982Y-103206943D01*
X187025639Y-103201862D01*
X188179361Y-102048140D01*
X188228337Y-102025302D01*
X188235222Y-102025001D01*
X192287497Y-102025001D01*
X192287498Y-102025001D01*
X193352500Y-100959999D01*
X193352500Y-98099998D01*
X194447008Y-98099998D01*
X194447008Y-98100003D01*
X194466853Y-98225303D01*
X194466854Y-98225307D01*
X194524448Y-98338341D01*
X194524450Y-98338344D01*
X194614156Y-98428050D01*
X194614159Y-98428052D01*
X194727193Y-98485646D01*
X194727195Y-98485646D01*
X194727196Y-98485647D01*
X194768964Y-98492262D01*
X194852498Y-98505493D01*
X194852500Y-98505493D01*
X194852502Y-98505493D01*
X194915152Y-98495570D01*
X194977804Y-98485647D01*
X195090842Y-98428051D01*
X195180550Y-98338343D01*
X195238146Y-98225305D01*
X195257992Y-98100001D01*
X195238146Y-97974697D01*
X195238145Y-97974696D01*
X195238145Y-97974694D01*
X195180551Y-97861660D01*
X195180549Y-97861657D01*
X195090843Y-97771951D01*
X195090840Y-97771949D01*
X194977806Y-97714355D01*
X194977802Y-97714354D01*
X194852502Y-97694509D01*
X194852498Y-97694509D01*
X194727197Y-97714354D01*
X194727193Y-97714355D01*
X194614159Y-97771949D01*
X194614156Y-97771951D01*
X194524450Y-97861657D01*
X194524448Y-97861660D01*
X194466854Y-97974694D01*
X194466853Y-97974698D01*
X194447008Y-98099998D01*
X193352500Y-98099998D01*
X193352500Y-92682723D01*
X193370982Y-92631943D01*
X193375639Y-92626862D01*
X193779361Y-92223140D01*
X193828337Y-92200302D01*
X193835222Y-92200001D01*
X195902500Y-92200001D01*
X195902500Y-91732723D01*
X195920982Y-91681943D01*
X195925639Y-91676862D01*
X197264361Y-90338140D01*
X197313337Y-90315302D01*
X197320222Y-90315001D01*
X200209778Y-90315001D01*
X200260558Y-90333483D01*
G37*
%TD.AperFunction*%
%TD*%
%TA.AperFunction,Conductor*%
%TO.N,Net-(U11-IPP1)*%
G36*
X247688530Y-38239685D02*
G01*
X247734285Y-38292489D01*
X247745491Y-38344000D01*
X247745491Y-39086467D01*
X249977392Y-41330861D01*
X250697621Y-42055122D01*
X253661181Y-45018681D01*
X253694666Y-45080004D01*
X253697500Y-45106362D01*
X253697500Y-48353638D01*
X253677815Y-48420677D01*
X253661181Y-48441319D01*
X252333819Y-49768681D01*
X252272496Y-49802166D01*
X252246138Y-49805000D01*
X251748862Y-49805000D01*
X251681823Y-49785315D01*
X251661181Y-49768681D01*
X250383819Y-48491319D01*
X250350334Y-48429996D01*
X250347500Y-48403638D01*
X250347500Y-46755000D01*
X243731818Y-40139318D01*
X243698333Y-40077995D01*
X243695499Y-40051637D01*
X243695499Y-38344000D01*
X243715184Y-38276961D01*
X243767988Y-38231206D01*
X243819499Y-38220000D01*
X247621491Y-38220000D01*
X247688530Y-38239685D01*
G37*
%TD.AperFunction*%
%TD*%
%TA.AperFunction,Conductor*%
%TO.N,PGND*%
G36*
X209353177Y-40204685D02*
G01*
X209373819Y-40221319D01*
X212737500Y-43585000D01*
X226986138Y-43585000D01*
X227053177Y-43604685D01*
X227073819Y-43621319D01*
X234737500Y-51285000D01*
X236751138Y-51285000D01*
X236818177Y-51304685D01*
X236838819Y-51321319D01*
X236996181Y-51478681D01*
X237029666Y-51540004D01*
X237032500Y-51566362D01*
X237032500Y-54703408D01*
X237012815Y-54770447D01*
X236995905Y-54791365D01*
X235924366Y-55856181D01*
X235924088Y-55856457D01*
X235862660Y-55889749D01*
X235836683Y-55892500D01*
X194936133Y-55892500D01*
X194869094Y-55872815D01*
X194848452Y-55856181D01*
X189827271Y-50835000D01*
X185762499Y-50835000D01*
X185762498Y-50835000D01*
X184162499Y-52434999D01*
X184162499Y-54126002D01*
X184142814Y-54193041D01*
X184090010Y-54238796D01*
X184038499Y-54250002D01*
X183313861Y-54250002D01*
X183246822Y-54230317D01*
X183226180Y-54213683D01*
X182737499Y-53725002D01*
X181411500Y-53725002D01*
X181344461Y-53705317D01*
X181298706Y-53652513D01*
X181287500Y-53601002D01*
X181287500Y-52235000D01*
X180524319Y-51471819D01*
X180490834Y-51410496D01*
X180488000Y-51384138D01*
X180488000Y-45585862D01*
X180507685Y-45518823D01*
X180524319Y-45498181D01*
X185801181Y-40221319D01*
X185862504Y-40187834D01*
X185888862Y-40185000D01*
X209286138Y-40185000D01*
X209353177Y-40204685D01*
G37*
%TD.AperFunction*%
%TD*%
%TA.AperFunction,Conductor*%
%TO.N,GND_MCU*%
G36*
X264091132Y-35561471D02*
G01*
X264134295Y-35568307D01*
X264157796Y-35575944D01*
X264191115Y-35592921D01*
X264211111Y-35607449D01*
X264237550Y-35633888D01*
X264252078Y-35653884D01*
X264269055Y-35687203D01*
X264276693Y-35710709D01*
X264283527Y-35753855D01*
X264284500Y-35766214D01*
X264284501Y-40412404D01*
X264284501Y-40531000D01*
X264266019Y-40581780D01*
X264219219Y-40608800D01*
X264205501Y-40610000D01*
X262285000Y-40610000D01*
X262284999Y-40610000D01*
X262284997Y-40610001D01*
X261658139Y-41236861D01*
X261609163Y-41259699D01*
X261602278Y-41260000D01*
X260692115Y-41260000D01*
X260641335Y-41241518D01*
X260614315Y-41194718D01*
X260623699Y-41141500D01*
X260636254Y-41125139D01*
X260713049Y-41048343D01*
X260713051Y-41048340D01*
X260770645Y-40935306D01*
X260770645Y-40935305D01*
X260770646Y-40935304D01*
X260790492Y-40810000D01*
X260770646Y-40684696D01*
X260770645Y-40684695D01*
X260770645Y-40684693D01*
X260713051Y-40571659D01*
X260713049Y-40571656D01*
X260623343Y-40481950D01*
X260623340Y-40481948D01*
X260510306Y-40424354D01*
X260510302Y-40424353D01*
X260385002Y-40404508D01*
X260384998Y-40404508D01*
X260259697Y-40424353D01*
X260259693Y-40424354D01*
X260146659Y-40481948D01*
X260146656Y-40481950D01*
X260056950Y-40571656D01*
X260056948Y-40571659D01*
X259999354Y-40684693D01*
X259999353Y-40684697D01*
X259979508Y-40809997D01*
X259979508Y-40810002D01*
X259999353Y-40935302D01*
X259999354Y-40935306D01*
X260056948Y-41048340D01*
X260056950Y-41048343D01*
X260133746Y-41125139D01*
X260156584Y-41174115D01*
X260142598Y-41226313D01*
X260098332Y-41257308D01*
X260077885Y-41260000D01*
X259922721Y-41260000D01*
X259871941Y-41241518D01*
X259866860Y-41236861D01*
X259377901Y-40747902D01*
X259355063Y-40698926D01*
X259356487Y-40675621D01*
X259385499Y-40539136D01*
X259385499Y-40455000D01*
X259385499Y-40407405D01*
X259385499Y-40407404D01*
X259385499Y-38594997D01*
X263142008Y-38594997D01*
X263142008Y-38595002D01*
X263161853Y-38720302D01*
X263161854Y-38720306D01*
X263219448Y-38833340D01*
X263219450Y-38833343D01*
X263309156Y-38923049D01*
X263309159Y-38923051D01*
X263422193Y-38980645D01*
X263422195Y-38980645D01*
X263422196Y-38980646D01*
X263463964Y-38987261D01*
X263547498Y-39000492D01*
X263547500Y-39000492D01*
X263547502Y-39000492D01*
X263610152Y-38990569D01*
X263672804Y-38980646D01*
X263785842Y-38923050D01*
X263875550Y-38833342D01*
X263933146Y-38720304D01*
X263952992Y-38595000D01*
X263933146Y-38469696D01*
X263933145Y-38469695D01*
X263933145Y-38469693D01*
X263875551Y-38356659D01*
X263875549Y-38356656D01*
X263785843Y-38266950D01*
X263785840Y-38266948D01*
X263672806Y-38209354D01*
X263672802Y-38209353D01*
X263547502Y-38189508D01*
X263547498Y-38189508D01*
X263422197Y-38209353D01*
X263422193Y-38209354D01*
X263309159Y-38266948D01*
X263309156Y-38266950D01*
X263219450Y-38356656D01*
X263219448Y-38356659D01*
X263161854Y-38469693D01*
X263161853Y-38469697D01*
X263142008Y-38594997D01*
X259385499Y-38594997D01*
X259385499Y-35766201D01*
X259386470Y-35753870D01*
X259393307Y-35710704D01*
X259400944Y-35687203D01*
X259417921Y-35653884D01*
X259432446Y-35633891D01*
X259458891Y-35607446D01*
X259478882Y-35592921D01*
X259512204Y-35575943D01*
X259535707Y-35568306D01*
X259565045Y-35563659D01*
X259578845Y-35561474D01*
X259591203Y-35560501D01*
X259665296Y-35560501D01*
X259665319Y-35560500D01*
X264078785Y-35560500D01*
X264091132Y-35561471D01*
G37*
%TD.AperFunction*%
%TD*%
%TA.AperFunction,Conductor*%
%TO.N,Net-(U12-IPP1)*%
G36*
X268618039Y-38239685D02*
G01*
X268663794Y-38292489D01*
X268675000Y-38344000D01*
X268675000Y-41326138D01*
X268655315Y-41393177D01*
X268638681Y-41413819D01*
X263087500Y-46964999D01*
X263087500Y-48513638D01*
X263067815Y-48580677D01*
X263051181Y-48601319D01*
X261883819Y-49768681D01*
X261822496Y-49802166D01*
X261796138Y-49805000D01*
X261348862Y-49805000D01*
X261281823Y-49785315D01*
X261261181Y-49768681D01*
X259983819Y-48491319D01*
X259950334Y-48429996D01*
X259947500Y-48403638D01*
X259947500Y-45056362D01*
X259967185Y-44989323D01*
X259983819Y-44968681D01*
X262861181Y-42091319D01*
X262922504Y-42057834D01*
X262948862Y-42055000D01*
X264647500Y-42055000D01*
X265885000Y-40817500D01*
X265885000Y-40555381D01*
X265885499Y-40545854D01*
X265885499Y-38344000D01*
X265905184Y-38276961D01*
X265957988Y-38231206D01*
X266009499Y-38220000D01*
X268551000Y-38220000D01*
X268618039Y-38239685D01*
G37*
%TD.AperFunction*%
%TD*%
%TA.AperFunction,Conductor*%
%TO.N,VDC*%
G36*
X225303177Y-30644684D02*
G01*
X225323819Y-30661318D01*
X237287500Y-42624999D01*
X244086138Y-42624999D01*
X244153177Y-42644684D01*
X244173819Y-42661318D01*
X248848681Y-47336180D01*
X248882166Y-47397503D01*
X248885000Y-47423861D01*
X248885000Y-48526137D01*
X248865315Y-48593176D01*
X248848681Y-48613818D01*
X247673819Y-49788680D01*
X247612496Y-49822165D01*
X247586138Y-49824999D01*
X239487500Y-49824999D01*
X235388862Y-49824999D01*
X235321823Y-49805314D01*
X235301181Y-49788680D01*
X233341539Y-47829038D01*
X241097000Y-47829038D01*
X241097000Y-48080961D01*
X241136410Y-48329785D01*
X241214260Y-48569383D01*
X241328632Y-48793848D01*
X241476701Y-48997649D01*
X241476705Y-48997654D01*
X241654845Y-49175794D01*
X241654850Y-49175798D01*
X241785376Y-49270630D01*
X241858655Y-49323870D01*
X242001684Y-49396747D01*
X242083116Y-49438239D01*
X242083118Y-49438239D01*
X242083121Y-49438241D01*
X242322715Y-49516090D01*
X242571538Y-49555500D01*
X242571539Y-49555500D01*
X242823461Y-49555500D01*
X242823462Y-49555500D01*
X243072285Y-49516090D01*
X243311879Y-49438241D01*
X243536345Y-49323870D01*
X243740156Y-49175793D01*
X243918293Y-48997656D01*
X244066370Y-48793845D01*
X244180741Y-48569379D01*
X244258590Y-48329785D01*
X244298000Y-48080962D01*
X244298000Y-47829038D01*
X244258590Y-47580215D01*
X244180741Y-47340621D01*
X244180739Y-47340618D01*
X244180739Y-47340616D01*
X244118960Y-47219369D01*
X244066370Y-47116155D01*
X244047452Y-47090117D01*
X243918298Y-46912350D01*
X243918294Y-46912345D01*
X243740154Y-46734205D01*
X243740149Y-46734201D01*
X243536348Y-46586132D01*
X243536347Y-46586131D01*
X243536345Y-46586130D01*
X243466247Y-46550413D01*
X243311883Y-46471760D01*
X243072285Y-46393910D01*
X242823462Y-46354500D01*
X242571538Y-46354500D01*
X242447126Y-46374205D01*
X242322714Y-46393910D01*
X242083116Y-46471760D01*
X241858651Y-46586132D01*
X241654850Y-46734201D01*
X241654845Y-46734205D01*
X241476705Y-46912345D01*
X241476701Y-46912350D01*
X241328632Y-47116151D01*
X241214260Y-47340616D01*
X241136410Y-47580214D01*
X241097000Y-47829038D01*
X233341539Y-47829038D01*
X227637500Y-42124999D01*
X213388862Y-42124999D01*
X213321823Y-42105314D01*
X213301181Y-42088680D01*
X209937500Y-38724999D01*
X185237500Y-38724999D01*
X185237499Y-38724999D01*
X182283817Y-41678682D01*
X182222494Y-41712167D01*
X182196136Y-41715001D01*
X181388862Y-41715001D01*
X181321823Y-41695316D01*
X181301181Y-41678682D01*
X180524319Y-40901820D01*
X180490834Y-40840497D01*
X180488000Y-40814139D01*
X180488000Y-35475861D01*
X180507685Y-35408822D01*
X180524319Y-35388180D01*
X185251181Y-30661318D01*
X185312504Y-30627833D01*
X185338862Y-30624999D01*
X225236138Y-30624999D01*
X225303177Y-30644684D01*
G37*
%TD.AperFunction*%
%TD*%
%TA.AperFunction,Conductor*%
%TO.N,/INVERTER/MC_V*%
G36*
X258030539Y-22274685D02*
G01*
X258076294Y-22327489D01*
X258087500Y-22379000D01*
X258087500Y-25255000D01*
X258087499Y-25255000D01*
X258409445Y-25564563D01*
X258444126Y-25625218D01*
X258447500Y-25653946D01*
X258447500Y-34302204D01*
X258427815Y-34369243D01*
X258398994Y-34400574D01*
X258395300Y-34403408D01*
X258395292Y-34403416D01*
X258228412Y-34570295D01*
X258228406Y-34570302D01*
X258084730Y-34757545D01*
X257966719Y-34961943D01*
X257966714Y-34961954D01*
X257876394Y-35180006D01*
X257815306Y-35407989D01*
X257793667Y-35572357D01*
X257784500Y-35641989D01*
X257784500Y-35720438D01*
X257784501Y-40407404D01*
X257784501Y-40454998D01*
X257784501Y-40539134D01*
X257819487Y-40703729D01*
X257836686Y-40742360D01*
X257887928Y-40857453D01*
X257887929Y-40857454D01*
X257986834Y-40993585D01*
X257986835Y-40993587D01*
X258111887Y-41106185D01*
X258184749Y-41148252D01*
X258257613Y-41190320D01*
X258257615Y-41190320D01*
X258257618Y-41190322D01*
X258311129Y-41207708D01*
X258361818Y-41224178D01*
X258419493Y-41263615D01*
X258446692Y-41327973D01*
X258447500Y-41342109D01*
X258447500Y-48303638D01*
X258427815Y-48370677D01*
X258411181Y-48391319D01*
X257033819Y-49768681D01*
X256972496Y-49802166D01*
X256946138Y-49805000D01*
X256648862Y-49805000D01*
X256581823Y-49785315D01*
X256561181Y-49768681D01*
X255233819Y-48441319D01*
X255200334Y-48379996D01*
X255197500Y-48353638D01*
X255197500Y-44446009D01*
X252643819Y-41892328D01*
X252610334Y-41831005D01*
X252607500Y-41804647D01*
X252607500Y-32229000D01*
X252627185Y-32161961D01*
X252679989Y-32116206D01*
X252731500Y-32105000D01*
X253507500Y-32105000D01*
X254797500Y-30815000D01*
X254797500Y-27045000D01*
X253007500Y-25255000D01*
X250631500Y-25255000D01*
X250564461Y-25235315D01*
X250518706Y-25182511D01*
X250507500Y-25131000D01*
X250507500Y-22379000D01*
X250527185Y-22311961D01*
X250579989Y-22266206D01*
X250631500Y-22255000D01*
X257963500Y-22255000D01*
X258030539Y-22274685D01*
G37*
%TD.AperFunction*%
%TD*%
%TA.AperFunction,Conductor*%
%TO.N,/INVERTER/MC_U*%
G36*
X246940539Y-22274685D02*
G01*
X246986294Y-22327489D01*
X246997500Y-22379000D01*
X246997500Y-25203638D01*
X246977815Y-25270677D01*
X246961181Y-25291319D01*
X246595000Y-25657499D01*
X246595000Y-37476000D01*
X246575315Y-37543039D01*
X246522511Y-37588794D01*
X246471000Y-37600000D01*
X243819499Y-37600000D01*
X243752460Y-37580315D01*
X243706705Y-37527511D01*
X243695499Y-37476000D01*
X243695500Y-36965492D01*
X243695500Y-35670438D01*
X243695500Y-35591989D01*
X243664693Y-35357986D01*
X243603606Y-35130007D01*
X243560314Y-35025490D01*
X243546939Y-34993200D01*
X243537500Y-34945748D01*
X243537500Y-34297499D01*
X243529439Y-34278038D01*
X243520000Y-34230586D01*
X243520000Y-26857500D01*
X241917500Y-25255000D01*
X239541500Y-25255000D01*
X239474461Y-25235315D01*
X239428706Y-25182511D01*
X239417500Y-25131000D01*
X239417500Y-22379000D01*
X239437185Y-22311961D01*
X239489989Y-22266206D01*
X239541500Y-22255000D01*
X246873500Y-22255000D01*
X246940539Y-22274685D01*
G37*
%TD.AperFunction*%
%TD*%
%TA.AperFunction,Conductor*%
%TO.N,GND_ADC*%
G36*
X230490557Y-87013483D02*
G01*
X230495638Y-87018140D01*
X231029361Y-87551863D01*
X231052199Y-87600839D01*
X231052500Y-87607724D01*
X231052500Y-88575002D01*
X231052501Y-88575004D01*
X231652498Y-89175001D01*
X231653729Y-89175511D01*
X231693572Y-89212018D01*
X231702499Y-89248498D01*
X231702499Y-93342280D01*
X231684017Y-93393060D01*
X231679360Y-93398141D01*
X231155639Y-93921862D01*
X231106663Y-93944700D01*
X231099778Y-93945001D01*
X229385222Y-93945001D01*
X229334442Y-93926519D01*
X229329371Y-93921872D01*
X229052500Y-93645001D01*
X225835222Y-93645001D01*
X225784442Y-93626519D01*
X225779361Y-93621862D01*
X225025639Y-92868140D01*
X225002801Y-92819164D01*
X225002500Y-92812279D01*
X225002500Y-91077723D01*
X225020982Y-91026943D01*
X225025639Y-91021862D01*
X225679361Y-90368140D01*
X225728337Y-90345302D01*
X225735222Y-90345001D01*
X228502499Y-90345001D01*
X228502500Y-90345001D01*
X228552500Y-90295001D01*
X228552500Y-87777723D01*
X228570982Y-87726943D01*
X228575639Y-87721862D01*
X229279361Y-87018140D01*
X229328337Y-86995302D01*
X229335222Y-86995001D01*
X230439777Y-86995001D01*
X230490557Y-87013483D01*
G37*
%TD.AperFunction*%
%TD*%
%TA.AperFunction,Conductor*%
%TO.N,GND_MCU*%
G36*
X241901132Y-35511471D02*
G01*
X241944295Y-35518307D01*
X241967796Y-35525944D01*
X242001115Y-35542921D01*
X242021111Y-35557449D01*
X242047550Y-35583888D01*
X242062078Y-35603884D01*
X242079055Y-35637203D01*
X242086693Y-35660709D01*
X242093527Y-35703855D01*
X242094500Y-35716214D01*
X242094501Y-40362404D01*
X242094501Y-40362405D01*
X242094501Y-40410000D01*
X242094501Y-40494136D01*
X242122448Y-40625616D01*
X242123511Y-40630615D01*
X242115990Y-40684128D01*
X242102099Y-40702901D01*
X241944700Y-40860301D01*
X241653138Y-41151862D01*
X241604163Y-41174700D01*
X241597278Y-41175001D01*
X240412113Y-41175001D01*
X240361333Y-41156519D01*
X240334313Y-41109719D01*
X240343697Y-41056501D01*
X240356252Y-41040140D01*
X240423049Y-40973342D01*
X240423051Y-40973339D01*
X240480645Y-40860305D01*
X240480645Y-40860304D01*
X240480646Y-40860303D01*
X240500492Y-40734999D01*
X240495408Y-40702901D01*
X240480646Y-40609696D01*
X240480645Y-40609692D01*
X240423051Y-40496658D01*
X240423049Y-40496655D01*
X240333343Y-40406949D01*
X240333340Y-40406947D01*
X240220306Y-40349353D01*
X240220302Y-40349352D01*
X240095002Y-40329507D01*
X240094998Y-40329507D01*
X239969697Y-40349352D01*
X239969693Y-40349353D01*
X239856659Y-40406947D01*
X239856656Y-40406949D01*
X239766950Y-40496655D01*
X239766948Y-40496658D01*
X239709354Y-40609692D01*
X239709353Y-40609696D01*
X239689508Y-40734996D01*
X239689508Y-40735001D01*
X239709353Y-40860301D01*
X239709354Y-40860305D01*
X239766948Y-40973339D01*
X239766950Y-40973342D01*
X239833748Y-41040140D01*
X239856586Y-41089116D01*
X239842600Y-41141314D01*
X239798334Y-41172309D01*
X239777887Y-41175001D01*
X238512113Y-41175001D01*
X238461333Y-41156519D01*
X238434313Y-41109719D01*
X238443697Y-41056501D01*
X238456252Y-41040140D01*
X238523049Y-40973342D01*
X238523051Y-40973339D01*
X238580645Y-40860305D01*
X238580645Y-40860304D01*
X238580646Y-40860303D01*
X238600492Y-40734999D01*
X238595408Y-40702901D01*
X238580646Y-40609696D01*
X238580645Y-40609692D01*
X238523051Y-40496658D01*
X238523049Y-40496655D01*
X238433343Y-40406949D01*
X238433340Y-40406947D01*
X238320306Y-40349353D01*
X238320302Y-40349352D01*
X238195002Y-40329507D01*
X238194998Y-40329507D01*
X238069697Y-40349352D01*
X238069693Y-40349353D01*
X237956659Y-40406947D01*
X237956656Y-40406949D01*
X237866950Y-40496655D01*
X237866948Y-40496658D01*
X237809354Y-40609692D01*
X237809353Y-40609696D01*
X237789508Y-40734996D01*
X237789508Y-40735001D01*
X237809353Y-40860301D01*
X237809354Y-40860305D01*
X237866948Y-40973339D01*
X237866950Y-40973342D01*
X237933748Y-41040140D01*
X237956586Y-41089116D01*
X237942600Y-41141314D01*
X237898334Y-41172309D01*
X237877887Y-41175001D01*
X237697722Y-41175001D01*
X237646942Y-41156519D01*
X237641861Y-41151862D01*
X237187901Y-40697902D01*
X237165063Y-40648926D01*
X237166487Y-40625621D01*
X237195499Y-40489136D01*
X237195499Y-40405000D01*
X237195499Y-40357405D01*
X237195499Y-40357404D01*
X237195499Y-35716201D01*
X237196470Y-35703870D01*
X237203307Y-35660704D01*
X237210944Y-35637203D01*
X237227921Y-35603884D01*
X237242446Y-35583891D01*
X237268891Y-35557446D01*
X237288882Y-35542921D01*
X237322204Y-35525943D01*
X237345707Y-35518306D01*
X237375045Y-35513659D01*
X237388845Y-35511474D01*
X237401203Y-35510501D01*
X237475296Y-35510501D01*
X237475319Y-35510500D01*
X241888785Y-35510500D01*
X241901132Y-35511471D01*
G37*
%TD.AperFunction*%
%TD*%
%TA.AperFunction,Conductor*%
%TO.N,GND_MCU*%
G36*
X239402242Y-85073482D02*
G01*
X239407323Y-85078139D01*
X239445129Y-85115945D01*
X239467967Y-85164921D01*
X239468160Y-85175940D01*
X239463088Y-85272728D01*
X239489410Y-85438924D01*
X239535391Y-85558708D01*
X239549715Y-85596023D01*
X239549717Y-85596026D01*
X239549718Y-85596028D01*
X239641361Y-85737147D01*
X239641366Y-85737153D01*
X239669248Y-85765035D01*
X239669797Y-85765660D01*
X239700857Y-85796645D01*
X239700923Y-85796711D01*
X239738558Y-85834345D01*
X239739175Y-85834872D01*
X245235020Y-91317491D01*
X245235011Y-91317499D01*
X245235083Y-91317554D01*
X245262989Y-91345460D01*
X245262990Y-91345461D01*
X245263278Y-91345682D01*
X245279431Y-91354981D01*
X245297301Y-91365270D01*
X245297365Y-91365347D01*
X245297383Y-91365318D01*
X245331514Y-91385023D01*
X245331842Y-91385158D01*
X245331845Y-91385158D01*
X245331849Y-91385161D01*
X245369762Y-91395270D01*
X245369845Y-91395328D01*
X245369855Y-91395295D01*
X245407938Y-91405500D01*
X245408131Y-91405525D01*
X245408294Y-91405545D01*
X245408300Y-91405547D01*
X245447400Y-91405499D01*
X245447448Y-91405499D01*
X268010308Y-91405499D01*
X268061088Y-91423981D01*
X268066169Y-91428638D01*
X270273863Y-93636331D01*
X270296701Y-93685307D01*
X270297002Y-93692192D01*
X270297002Y-96604565D01*
X270317480Y-96680991D01*
X270317481Y-96680993D01*
X270356958Y-96749369D01*
X270357040Y-96749512D01*
X270357044Y-96749517D01*
X272287464Y-98679936D01*
X272343413Y-98735885D01*
X272411935Y-98775446D01*
X272488362Y-98795925D01*
X276284190Y-98795926D01*
X276284194Y-98795928D01*
X276299904Y-98795928D01*
X276380217Y-98795928D01*
X276380218Y-98795927D01*
X276387061Y-98795928D01*
X276387065Y-98795927D01*
X276391805Y-98795927D01*
X276392688Y-98795870D01*
X276431627Y-98795870D01*
X276431631Y-98795870D01*
X276596220Y-98760886D01*
X276749938Y-98692447D01*
X276886068Y-98593543D01*
X276942258Y-98531137D01*
X276989972Y-98505769D01*
X277000966Y-98505000D01*
X277808000Y-98505000D01*
X277858780Y-98523482D01*
X277885800Y-98570282D01*
X277887000Y-98584000D01*
X277887000Y-116135799D01*
X277868518Y-116186579D01*
X277821718Y-116213599D01*
X277768500Y-116204215D01*
X277739584Y-116175299D01*
X277687751Y-116085523D01*
X277687749Y-116085519D01*
X277597679Y-115968137D01*
X277520129Y-115867070D01*
X277325427Y-115672368D01*
X277163336Y-115547993D01*
X277106979Y-115504749D01*
X276868521Y-115367075D01*
X276868518Y-115367073D01*
X276868515Y-115367072D01*
X276614140Y-115261706D01*
X276614124Y-115261700D01*
X276348165Y-115190437D01*
X276075177Y-115154498D01*
X276075174Y-115154498D01*
X275799826Y-115154498D01*
X275799823Y-115154498D01*
X275526834Y-115190437D01*
X275260875Y-115261700D01*
X275260859Y-115261706D01*
X275006484Y-115367072D01*
X274768025Y-115504746D01*
X274549572Y-115672368D01*
X274354870Y-115867070D01*
X274187248Y-116085523D01*
X274049574Y-116323982D01*
X273944208Y-116578357D01*
X273944202Y-116578373D01*
X273872939Y-116844332D01*
X273837000Y-117117320D01*
X273837000Y-117117321D01*
X273837000Y-117117324D01*
X273837000Y-117392672D01*
X273837000Y-117392675D01*
X273836999Y-117392675D01*
X273872939Y-117665663D01*
X273944202Y-117931622D01*
X273944208Y-117931638D01*
X274049574Y-118186013D01*
X274049575Y-118186014D01*
X274049577Y-118186019D01*
X274187251Y-118424477D01*
X274238042Y-118490669D01*
X274354870Y-118642925D01*
X274549572Y-118837627D01*
X274655140Y-118918631D01*
X274768021Y-119005247D01*
X274835130Y-119043992D01*
X274857805Y-119057084D01*
X274892541Y-119098480D01*
X274892541Y-119152520D01*
X274857805Y-119193916D01*
X274818305Y-119204500D01*
X183556698Y-119204500D01*
X183505918Y-119186018D01*
X183478898Y-119139218D01*
X183488282Y-119086000D01*
X183517198Y-119057084D01*
X183537507Y-119045358D01*
X183606980Y-119005248D01*
X183825429Y-118837627D01*
X184020129Y-118642927D01*
X184187750Y-118424478D01*
X184325424Y-118186020D01*
X184430796Y-117931631D01*
X184502061Y-117665665D01*
X184538001Y-117392673D01*
X184538001Y-117117325D01*
X184538001Y-117117324D01*
X184538001Y-117117321D01*
X184502061Y-116844333D01*
X184430798Y-116578374D01*
X184430797Y-116578372D01*
X184430796Y-116578367D01*
X184325424Y-116323978D01*
X184187750Y-116085520D01*
X184097679Y-115968137D01*
X184020130Y-115867071D01*
X184008060Y-115855001D01*
X254021869Y-115855001D01*
X254042345Y-116062899D01*
X254102981Y-116262791D01*
X254102984Y-116262797D01*
X254102985Y-116262800D01*
X254135688Y-116323983D01*
X254201460Y-116447035D01*
X254333984Y-116608516D01*
X254495465Y-116741040D01*
X254495467Y-116741041D01*
X254679701Y-116839516D01*
X254679706Y-116839517D01*
X254679709Y-116839519D01*
X254879601Y-116900155D01*
X254879603Y-116900155D01*
X254879606Y-116900156D01*
X255087500Y-116920632D01*
X255295394Y-116900156D01*
X255295396Y-116900155D01*
X255295398Y-116900155D01*
X255495290Y-116839519D01*
X255495291Y-116839518D01*
X255495299Y-116839516D01*
X255679533Y-116741041D01*
X255841015Y-116608516D01*
X255973540Y-116447034D01*
X256072015Y-116262800D01*
X256072075Y-116262604D01*
X256132654Y-116062899D01*
X256132654Y-116062897D01*
X256132655Y-116062895D01*
X256153131Y-115855001D01*
X256153131Y-115855000D01*
X256561869Y-115855000D01*
X256582345Y-116062898D01*
X256642981Y-116262790D01*
X256642984Y-116262796D01*
X256642985Y-116262799D01*
X256688824Y-116348559D01*
X256741460Y-116447034D01*
X256873984Y-116608515D01*
X257035465Y-116741039D01*
X257035467Y-116741040D01*
X257219701Y-116839515D01*
X257219706Y-116839516D01*
X257219709Y-116839518D01*
X257419601Y-116900154D01*
X257419603Y-116900154D01*
X257419606Y-116900155D01*
X257627500Y-116920631D01*
X257835394Y-116900155D01*
X257835396Y-116900154D01*
X257835398Y-116900154D01*
X258035290Y-116839518D01*
X258035291Y-116839517D01*
X258035299Y-116839515D01*
X258219533Y-116741040D01*
X258381015Y-116608515D01*
X258513540Y-116447033D01*
X258612015Y-116262799D01*
X258665791Y-116085524D01*
X258672654Y-116062898D01*
X258672654Y-116062896D01*
X258672655Y-116062894D01*
X258693131Y-115855000D01*
X259101869Y-115855000D01*
X259122345Y-116062898D01*
X259182981Y-116262790D01*
X259182984Y-116262796D01*
X259182985Y-116262799D01*
X259228824Y-116348559D01*
X259281460Y-116447034D01*
X259413984Y-116608515D01*
X259575465Y-116741039D01*
X259575467Y-116741040D01*
X259759701Y-116839515D01*
X259759706Y-116839516D01*
X259759709Y-116839518D01*
X259959601Y-116900154D01*
X259959603Y-116900154D01*
X259959606Y-116900155D01*
X260167500Y-116920631D01*
X260375394Y-116900155D01*
X260375396Y-116900154D01*
X260375398Y-116900154D01*
X260575290Y-116839518D01*
X260575291Y-116839517D01*
X260575299Y-116839515D01*
X260759533Y-116741040D01*
X260921015Y-116608515D01*
X261053540Y-116447033D01*
X261152015Y-116262799D01*
X261205791Y-116085524D01*
X261212654Y-116062898D01*
X261212654Y-116062896D01*
X261212655Y-116062894D01*
X261233131Y-115855000D01*
X261642371Y-115855000D01*
X261662837Y-116062798D01*
X261662838Y-116062802D01*
X261723446Y-116262601D01*
X261723448Y-116262604D01*
X261821880Y-116446756D01*
X261903343Y-116546019D01*
X262300063Y-116149298D01*
X262307401Y-116162007D01*
X262400493Y-116255099D01*
X262413199Y-116262435D01*
X262016479Y-116659155D01*
X262115743Y-116740619D01*
X262299895Y-116839051D01*
X262299898Y-116839053D01*
X262499697Y-116899661D01*
X262499701Y-116899662D01*
X262707500Y-116920128D01*
X262915298Y-116899662D01*
X262915302Y-116899661D01*
X263115101Y-116839053D01*
X263115104Y-116839051D01*
X263299260Y-116740617D01*
X263398518Y-116659157D01*
X263398519Y-116659155D01*
X263001799Y-116262435D01*
X263014507Y-116255099D01*
X263107599Y-116162007D01*
X263114935Y-116149299D01*
X263511655Y-116546019D01*
X263511657Y-116546018D01*
X263593117Y-116446760D01*
X263691551Y-116262604D01*
X263691553Y-116262601D01*
X263752161Y-116062802D01*
X263752162Y-116062798D01*
X263772628Y-115855000D01*
X264181869Y-115855000D01*
X264202345Y-116062898D01*
X264262981Y-116262790D01*
X264262984Y-116262796D01*
X264262985Y-116262799D01*
X264308824Y-116348559D01*
X264361460Y-116447034D01*
X264493984Y-116608515D01*
X264655465Y-116741039D01*
X264655467Y-116741040D01*
X264839701Y-116839515D01*
X264839706Y-116839516D01*
X264839709Y-116839518D01*
X265039601Y-116900154D01*
X265039603Y-116900154D01*
X265039606Y-116900155D01*
X265247500Y-116920631D01*
X265455394Y-116900155D01*
X265455396Y-116900154D01*
X265455398Y-116900154D01*
X265655290Y-116839518D01*
X265655291Y-116839517D01*
X265655299Y-116839515D01*
X265839533Y-116741040D01*
X266001015Y-116608515D01*
X266133540Y-116447033D01*
X266232015Y-116262799D01*
X266285791Y-116085524D01*
X266292654Y-116062898D01*
X266292654Y-116062896D01*
X266292655Y-116062894D01*
X266313131Y-115855001D01*
X266721869Y-115855001D01*
X266742345Y-116062899D01*
X266802981Y-116262791D01*
X266802984Y-116262797D01*
X266802985Y-116262800D01*
X266835688Y-116323983D01*
X266901460Y-116447035D01*
X267033984Y-116608516D01*
X267195465Y-116741040D01*
X267195467Y-116741041D01*
X267379701Y-116839516D01*
X267379706Y-116839517D01*
X267379709Y-116839519D01*
X267579601Y-116900155D01*
X267579603Y-116900155D01*
X267579606Y-116900156D01*
X267787500Y-116920632D01*
X267995394Y-116900156D01*
X267995396Y-116900155D01*
X267995398Y-116900155D01*
X268195290Y-116839519D01*
X268195291Y-116839518D01*
X268195299Y-116839516D01*
X268379533Y-116741041D01*
X268541015Y-116608516D01*
X268673540Y-116447034D01*
X268772015Y-116262800D01*
X268772075Y-116262604D01*
X268832654Y-116062899D01*
X268832654Y-116062897D01*
X268832655Y-116062895D01*
X268853131Y-115855001D01*
X268832655Y-115647107D01*
X268832654Y-115647104D01*
X268832654Y-115647102D01*
X268772018Y-115447210D01*
X268772016Y-115447207D01*
X268772015Y-115447202D01*
X268673687Y-115263243D01*
X268673539Y-115262966D01*
X268541015Y-115101485D01*
X268379534Y-114968961D01*
X268281059Y-114916325D01*
X268195299Y-114870486D01*
X268195296Y-114870485D01*
X268195290Y-114870482D01*
X267995398Y-114809846D01*
X267787500Y-114789370D01*
X267579601Y-114809846D01*
X267379709Y-114870482D01*
X267379699Y-114870487D01*
X267195465Y-114968961D01*
X267033984Y-115101485D01*
X266901460Y-115262966D01*
X266802986Y-115447200D01*
X266802981Y-115447210D01*
X266742345Y-115647102D01*
X266721869Y-115855001D01*
X266313131Y-115855001D01*
X266313131Y-115855000D01*
X266292655Y-115647106D01*
X266292654Y-115647102D01*
X266292654Y-115647101D01*
X266232018Y-115447209D01*
X266232016Y-115447206D01*
X266232015Y-115447201D01*
X266133540Y-115262967D01*
X266133539Y-115262965D01*
X266001015Y-115101484D01*
X265839534Y-114968960D01*
X265741059Y-114916324D01*
X265655299Y-114870485D01*
X265655296Y-114870484D01*
X265655290Y-114870481D01*
X265455398Y-114809845D01*
X265247500Y-114789369D01*
X265039601Y-114809845D01*
X264839709Y-114870481D01*
X264839699Y-114870486D01*
X264655465Y-114968960D01*
X264493984Y-115101484D01*
X264361460Y-115262965D01*
X264262986Y-115447199D01*
X264262981Y-115447209D01*
X264202345Y-115647101D01*
X264181869Y-115855000D01*
X263772628Y-115855000D01*
X263752162Y-115647201D01*
X263752161Y-115647197D01*
X263691553Y-115447398D01*
X263691551Y-115447395D01*
X263593119Y-115263243D01*
X263511655Y-115163979D01*
X263114935Y-115560699D01*
X263107599Y-115547993D01*
X263014507Y-115454901D01*
X263001798Y-115447563D01*
X263398519Y-115050843D01*
X263299256Y-114969380D01*
X263115104Y-114870948D01*
X263115101Y-114870946D01*
X262915302Y-114810338D01*
X262915298Y-114810337D01*
X262707500Y-114789871D01*
X262499701Y-114810337D01*
X262499697Y-114810338D01*
X262299898Y-114870946D01*
X262299895Y-114870948D01*
X262115742Y-114969380D01*
X262016480Y-115050842D01*
X262016479Y-115050843D01*
X262413200Y-115447564D01*
X262400493Y-115454901D01*
X262307401Y-115547993D01*
X262300064Y-115560700D01*
X261903343Y-115163979D01*
X261903342Y-115163980D01*
X261821880Y-115263242D01*
X261723448Y-115447395D01*
X261723446Y-115447398D01*
X261662838Y-115647197D01*
X261662837Y-115647201D01*
X261642371Y-115855000D01*
X261233131Y-115855000D01*
X261212655Y-115647106D01*
X261212654Y-115647102D01*
X261212654Y-115647101D01*
X261152018Y-115447209D01*
X261152016Y-115447206D01*
X261152015Y-115447201D01*
X261053540Y-115262967D01*
X261053539Y-115262965D01*
X260921015Y-115101484D01*
X260759534Y-114968960D01*
X260661059Y-114916324D01*
X260575299Y-114870485D01*
X260575296Y-114870484D01*
X260575290Y-114870481D01*
X260375398Y-114809845D01*
X260167500Y-114789369D01*
X259959601Y-114809845D01*
X259759709Y-114870481D01*
X259759699Y-114870486D01*
X259575465Y-114968960D01*
X259413984Y-115101484D01*
X259281460Y-115262965D01*
X259182986Y-115447199D01*
X259182981Y-115447209D01*
X259122345Y-115647101D01*
X259101869Y-115855000D01*
X258693131Y-115855000D01*
X258672655Y-115647106D01*
X258672654Y-115647102D01*
X258672654Y-115647101D01*
X258612018Y-115447209D01*
X258612016Y-115447206D01*
X258612015Y-115447201D01*
X258513540Y-115262967D01*
X258513539Y-115262965D01*
X258381015Y-115101484D01*
X258219534Y-114968960D01*
X258121059Y-114916324D01*
X258035299Y-114870485D01*
X258035296Y-114870484D01*
X258035290Y-114870481D01*
X257835398Y-114809845D01*
X257627500Y-114789369D01*
X257419601Y-114809845D01*
X257219709Y-114870481D01*
X257219699Y-114870486D01*
X257035465Y-114968960D01*
X256873984Y-115101484D01*
X256741460Y-115262965D01*
X256642986Y-115447199D01*
X256642981Y-115447209D01*
X256582345Y-115647101D01*
X256561869Y-115855000D01*
X256153131Y-115855000D01*
X256132655Y-115647107D01*
X256132654Y-115647104D01*
X256132654Y-115647102D01*
X256072018Y-115447210D01*
X256072016Y-115447207D01*
X256072015Y-115447202D01*
X255973687Y-115263243D01*
X255973539Y-115262966D01*
X255841015Y-115101485D01*
X255679534Y-114968961D01*
X255581059Y-114916325D01*
X255495299Y-114870486D01*
X255495296Y-114870485D01*
X255495290Y-114870482D01*
X255295398Y-114809846D01*
X255087500Y-114789370D01*
X254879601Y-114809846D01*
X254679709Y-114870482D01*
X254679699Y-114870487D01*
X254495465Y-114968961D01*
X254333984Y-115101485D01*
X254201460Y-115262966D01*
X254102986Y-115447200D01*
X254102981Y-115447210D01*
X254042345Y-115647102D01*
X254021869Y-115855001D01*
X184008060Y-115855001D01*
X183825428Y-115672369D01*
X183695295Y-115572516D01*
X183606980Y-115504750D01*
X183368522Y-115367076D01*
X183368519Y-115367074D01*
X183368516Y-115367073D01*
X183114141Y-115261707D01*
X183114125Y-115261701D01*
X182848166Y-115190438D01*
X182575178Y-115154499D01*
X182575175Y-115154499D01*
X182299827Y-115154499D01*
X182299824Y-115154499D01*
X182026835Y-115190438D01*
X181760876Y-115261701D01*
X181760860Y-115261707D01*
X181506485Y-115367073D01*
X181268026Y-115504747D01*
X181049573Y-115672369D01*
X180854871Y-115867071D01*
X180687249Y-116085524D01*
X180635416Y-116175302D01*
X180594020Y-116210038D01*
X180539980Y-116210038D01*
X180498584Y-116175302D01*
X180488000Y-116135802D01*
X180488000Y-114604997D01*
X214157009Y-114604997D01*
X214157009Y-114605002D01*
X214176854Y-114730302D01*
X214176855Y-114730306D01*
X214234449Y-114843340D01*
X214234451Y-114843343D01*
X214324157Y-114933049D01*
X214324160Y-114933051D01*
X214437194Y-114990645D01*
X214437196Y-114990645D01*
X214437197Y-114990646D01*
X214478965Y-114997261D01*
X214562499Y-115010492D01*
X214562501Y-115010492D01*
X214562503Y-115010492D01*
X214625153Y-115000569D01*
X214687805Y-114990646D01*
X214800843Y-114933050D01*
X214890551Y-114843342D01*
X214948147Y-114730304D01*
X214967993Y-114605000D01*
X214967993Y-114604997D01*
X217607007Y-114604997D01*
X217607007Y-114605002D01*
X217626852Y-114730302D01*
X217626853Y-114730306D01*
X217684447Y-114843340D01*
X217684449Y-114843343D01*
X217774155Y-114933049D01*
X217774158Y-114933051D01*
X217887192Y-114990645D01*
X217887194Y-114990645D01*
X217887195Y-114990646D01*
X217928963Y-114997261D01*
X218012497Y-115010492D01*
X218012499Y-115010492D01*
X218012501Y-115010492D01*
X218075151Y-115000569D01*
X218137803Y-114990646D01*
X218250841Y-114933050D01*
X218340549Y-114843342D01*
X218398145Y-114730304D01*
X218417991Y-114605000D01*
X218417991Y-114604997D01*
X221357009Y-114604997D01*
X221357009Y-114605002D01*
X221376854Y-114730302D01*
X221376855Y-114730306D01*
X221434449Y-114843340D01*
X221434451Y-114843343D01*
X221524157Y-114933049D01*
X221524160Y-114933051D01*
X221637194Y-114990645D01*
X221637196Y-114990645D01*
X221637197Y-114990646D01*
X221678965Y-114997261D01*
X221762499Y-115010492D01*
X221762501Y-115010492D01*
X221762503Y-115010492D01*
X221825153Y-115000569D01*
X221887805Y-114990646D01*
X222000843Y-114933050D01*
X222090551Y-114843342D01*
X222148147Y-114730304D01*
X222167993Y-114605000D01*
X222167993Y-114604997D01*
X224807007Y-114604997D01*
X224807007Y-114605002D01*
X224826852Y-114730302D01*
X224826853Y-114730306D01*
X224884447Y-114843340D01*
X224884449Y-114843343D01*
X224974155Y-114933049D01*
X224974158Y-114933051D01*
X225087192Y-114990645D01*
X225087194Y-114990645D01*
X225087195Y-114990646D01*
X225128963Y-114997261D01*
X225212497Y-115010492D01*
X225212499Y-115010492D01*
X225212501Y-115010492D01*
X225275151Y-115000569D01*
X225337803Y-114990646D01*
X225450841Y-114933050D01*
X225540549Y-114843342D01*
X225598145Y-114730304D01*
X225617991Y-114605000D01*
X225617991Y-114604997D01*
X228557009Y-114604997D01*
X228557009Y-114605002D01*
X228576854Y-114730302D01*
X228576855Y-114730306D01*
X228634449Y-114843340D01*
X228634451Y-114843343D01*
X228724157Y-114933049D01*
X228724160Y-114933051D01*
X228837194Y-114990645D01*
X228837196Y-114990645D01*
X228837197Y-114990646D01*
X228878965Y-114997261D01*
X228962499Y-115010492D01*
X228962501Y-115010492D01*
X228962503Y-115010492D01*
X229025153Y-115000569D01*
X229087805Y-114990646D01*
X229200843Y-114933050D01*
X229290551Y-114843342D01*
X229348147Y-114730304D01*
X229367993Y-114605000D01*
X229367993Y-114604997D01*
X232007007Y-114604997D01*
X232007007Y-114605002D01*
X232026852Y-114730302D01*
X232026853Y-114730306D01*
X232084447Y-114843340D01*
X232084449Y-114843343D01*
X232174155Y-114933049D01*
X232174158Y-114933051D01*
X232287192Y-114990645D01*
X232287194Y-114990645D01*
X232287195Y-114990646D01*
X232328963Y-114997261D01*
X232412497Y-115010492D01*
X232412499Y-115010492D01*
X232412501Y-115010492D01*
X232475151Y-115000569D01*
X232537803Y-114990646D01*
X232650841Y-114933050D01*
X232740549Y-114843342D01*
X232798145Y-114730304D01*
X232817991Y-114605000D01*
X232817991Y-114604997D01*
X235757009Y-114604997D01*
X235757009Y-114605002D01*
X235776854Y-114730302D01*
X235776855Y-114730306D01*
X235834449Y-114843340D01*
X235834451Y-114843343D01*
X235924157Y-114933049D01*
X235924160Y-114933051D01*
X236037194Y-114990645D01*
X236037196Y-114990645D01*
X236037197Y-114990646D01*
X236078965Y-114997261D01*
X236162499Y-115010492D01*
X236162501Y-115010492D01*
X236162503Y-115010492D01*
X236225153Y-115000569D01*
X236287805Y-114990646D01*
X236400843Y-114933050D01*
X236490551Y-114843342D01*
X236548147Y-114730304D01*
X236567993Y-114605000D01*
X236567993Y-114604997D01*
X239207007Y-114604997D01*
X239207007Y-114605002D01*
X239226852Y-114730302D01*
X239226853Y-114730306D01*
X239284447Y-114843340D01*
X239284449Y-114843343D01*
X239374155Y-114933049D01*
X239374158Y-114933051D01*
X239487192Y-114990645D01*
X239487194Y-114990645D01*
X239487195Y-114990646D01*
X239528963Y-114997261D01*
X239612497Y-115010492D01*
X239612499Y-115010492D01*
X239612501Y-115010492D01*
X239675151Y-115000569D01*
X239737803Y-114990646D01*
X239850841Y-114933050D01*
X239940549Y-114843342D01*
X239998145Y-114730304D01*
X240017991Y-114605000D01*
X240017991Y-114604997D01*
X244407010Y-114604997D01*
X244407010Y-114605002D01*
X244426855Y-114730302D01*
X244426856Y-114730306D01*
X244484450Y-114843340D01*
X244484452Y-114843343D01*
X244574158Y-114933049D01*
X244574161Y-114933051D01*
X244687195Y-114990645D01*
X244687197Y-114990645D01*
X244687198Y-114990646D01*
X244728966Y-114997261D01*
X244812500Y-115010492D01*
X244812502Y-115010492D01*
X244812504Y-115010492D01*
X244875154Y-115000569D01*
X244937806Y-114990646D01*
X245050844Y-114933050D01*
X245140552Y-114843342D01*
X245198148Y-114730304D01*
X245217994Y-114605000D01*
X245198148Y-114479696D01*
X245198147Y-114479695D01*
X245198147Y-114479693D01*
X245140553Y-114366659D01*
X245140551Y-114366656D01*
X245050845Y-114276950D01*
X245050842Y-114276948D01*
X244937808Y-114219354D01*
X244937804Y-114219353D01*
X244812504Y-114199508D01*
X244812500Y-114199508D01*
X244687199Y-114219353D01*
X244687195Y-114219354D01*
X244574161Y-114276948D01*
X244574158Y-114276950D01*
X244484452Y-114366656D01*
X244484450Y-114366659D01*
X244426856Y-114479693D01*
X244426855Y-114479697D01*
X244407010Y-114604997D01*
X240017991Y-114604997D01*
X239998145Y-114479696D01*
X239998144Y-114479695D01*
X239998144Y-114479693D01*
X239940550Y-114366659D01*
X239940548Y-114366656D01*
X239850842Y-114276950D01*
X239850839Y-114276948D01*
X239737805Y-114219354D01*
X239737801Y-114219353D01*
X239612501Y-114199508D01*
X239612497Y-114199508D01*
X239487196Y-114219353D01*
X239487192Y-114219354D01*
X239374158Y-114276948D01*
X239374155Y-114276950D01*
X239284449Y-114366656D01*
X239284447Y-114366659D01*
X239226853Y-114479693D01*
X239226852Y-114479697D01*
X239207007Y-114604997D01*
X236567993Y-114604997D01*
X236548147Y-114479696D01*
X236548146Y-114479695D01*
X236548146Y-114479693D01*
X236490552Y-114366659D01*
X236490550Y-114366656D01*
X236400844Y-114276950D01*
X236400841Y-114276948D01*
X236287807Y-114219354D01*
X236287803Y-114219353D01*
X236162503Y-114199508D01*
X236162499Y-114199508D01*
X236037198Y-114219353D01*
X236037194Y-114219354D01*
X235924160Y-114276948D01*
X235924157Y-114276950D01*
X235834451Y-114366656D01*
X235834449Y-114366659D01*
X235776855Y-114479693D01*
X235776854Y-114479697D01*
X235757009Y-114604997D01*
X232817991Y-114604997D01*
X232798145Y-114479696D01*
X232798144Y-114479695D01*
X232798144Y-114479693D01*
X232740550Y-114366659D01*
X232740548Y-114366656D01*
X232650842Y-114276950D01*
X232650839Y-114276948D01*
X232537805Y-114219354D01*
X232537801Y-114219353D01*
X232412501Y-114199508D01*
X232412497Y-114199508D01*
X232287196Y-114219353D01*
X232287192Y-114219354D01*
X232174158Y-114276948D01*
X232174155Y-114276950D01*
X232084449Y-114366656D01*
X232084447Y-114366659D01*
X232026853Y-114479693D01*
X232026852Y-114479697D01*
X232007007Y-114604997D01*
X229367993Y-114604997D01*
X229348147Y-114479696D01*
X229348146Y-114479695D01*
X229348146Y-114479693D01*
X229290552Y-114366659D01*
X229290550Y-114366656D01*
X229200844Y-114276950D01*
X229200841Y-114276948D01*
X229087807Y-114219354D01*
X229087803Y-114219353D01*
X228962503Y-114199508D01*
X228962499Y-114199508D01*
X228837198Y-114219353D01*
X228837194Y-114219354D01*
X228724160Y-114276948D01*
X228724157Y-114276950D01*
X228634451Y-114366656D01*
X228634449Y-114366659D01*
X228576855Y-114479693D01*
X228576854Y-114479697D01*
X228557009Y-114604997D01*
X225617991Y-114604997D01*
X225598145Y-114479696D01*
X225598144Y-114479695D01*
X225598144Y-114479693D01*
X225540550Y-114366659D01*
X225540548Y-114366656D01*
X225450842Y-114276950D01*
X225450839Y-114276948D01*
X225337805Y-114219354D01*
X225337801Y-114219353D01*
X225212501Y-114199508D01*
X225212497Y-114199508D01*
X225087196Y-114219353D01*
X225087192Y-114219354D01*
X224974158Y-114276948D01*
X224974155Y-114276950D01*
X224884449Y-114366656D01*
X224884447Y-114366659D01*
X224826853Y-114479693D01*
X224826852Y-114479697D01*
X224807007Y-114604997D01*
X222167993Y-114604997D01*
X222148147Y-114479696D01*
X222148146Y-114479695D01*
X222148146Y-114479693D01*
X222090552Y-114366659D01*
X222090550Y-114366656D01*
X222000844Y-114276950D01*
X222000841Y-114276948D01*
X221887807Y-114219354D01*
X221887803Y-114219353D01*
X221762503Y-114199508D01*
X221762499Y-114199508D01*
X221637198Y-114219353D01*
X221637194Y-114219354D01*
X221524160Y-114276948D01*
X221524157Y-114276950D01*
X221434451Y-114366656D01*
X221434449Y-114366659D01*
X221376855Y-114479693D01*
X221376854Y-114479697D01*
X221357009Y-114604997D01*
X218417991Y-114604997D01*
X218398145Y-114479696D01*
X218398144Y-114479695D01*
X218398144Y-114479693D01*
X218340550Y-114366659D01*
X218340548Y-114366656D01*
X218250842Y-114276950D01*
X218250839Y-114276948D01*
X218137805Y-114219354D01*
X218137801Y-114219353D01*
X218012501Y-114199508D01*
X218012497Y-114199508D01*
X217887196Y-114219353D01*
X217887192Y-114219354D01*
X217774158Y-114276948D01*
X217774155Y-114276950D01*
X217684449Y-114366656D01*
X217684447Y-114366659D01*
X217626853Y-114479693D01*
X217626852Y-114479697D01*
X217607007Y-114604997D01*
X214967993Y-114604997D01*
X214948147Y-114479696D01*
X214948146Y-114479695D01*
X214948146Y-114479693D01*
X214890552Y-114366659D01*
X214890550Y-114366656D01*
X214800844Y-114276950D01*
X214800841Y-114276948D01*
X214687807Y-114219354D01*
X214687803Y-114219353D01*
X214562503Y-114199508D01*
X214562499Y-114199508D01*
X214437198Y-114219353D01*
X214437194Y-114219354D01*
X214324160Y-114276948D01*
X214324157Y-114276950D01*
X214234451Y-114366656D01*
X214234449Y-114366659D01*
X214176855Y-114479693D01*
X214176854Y-114479697D01*
X214157009Y-114604997D01*
X180488000Y-114604997D01*
X180488000Y-112543410D01*
X180727500Y-112543410D01*
X180727500Y-112975000D01*
X181291298Y-112975000D01*
X181287500Y-112989174D01*
X181287500Y-113120826D01*
X181291298Y-113135000D01*
X180727500Y-113135000D01*
X180727500Y-113566589D01*
X180730222Y-113601182D01*
X180730223Y-113601186D01*
X180773218Y-113749183D01*
X180773219Y-113749186D01*
X180851674Y-113881843D01*
X180851679Y-113881850D01*
X180960649Y-113990820D01*
X180960656Y-113990825D01*
X181093313Y-114069280D01*
X181093316Y-114069281D01*
X181241313Y-114112276D01*
X181241317Y-114112277D01*
X181275910Y-114115000D01*
X181707500Y-114115000D01*
X181707500Y-113551202D01*
X181721674Y-113555000D01*
X181853326Y-113555000D01*
X181867500Y-113551202D01*
X181867500Y-114115000D01*
X182299090Y-114115000D01*
X182333682Y-114112277D01*
X182333686Y-114112276D01*
X182481683Y-114069281D01*
X182481686Y-114069280D01*
X182614343Y-113990825D01*
X182614350Y-113990820D01*
X182723320Y-113881850D01*
X182723325Y-113881843D01*
X182801780Y-113749186D01*
X182801781Y-113749183D01*
X182844776Y-113601186D01*
X182844777Y-113601182D01*
X182847500Y-113566589D01*
X182847500Y-113314999D01*
X254021869Y-113314999D01*
X254042345Y-113522897D01*
X254102981Y-113722789D01*
X254102984Y-113722795D01*
X254102985Y-113722798D01*
X254117088Y-113749183D01*
X254201460Y-113907033D01*
X254333984Y-114068514D01*
X254495465Y-114201038D01*
X254495467Y-114201039D01*
X254679701Y-114299514D01*
X254679706Y-114299515D01*
X254679709Y-114299517D01*
X254879601Y-114360153D01*
X254879603Y-114360153D01*
X254879606Y-114360154D01*
X255087500Y-114380630D01*
X255295394Y-114360154D01*
X255295396Y-114360153D01*
X255295398Y-114360153D01*
X255495290Y-114299517D01*
X255495291Y-114299516D01*
X255495299Y-114299514D01*
X255679533Y-114201039D01*
X255841015Y-114068514D01*
X255973540Y-113907032D01*
X256072015Y-113722798D01*
X256108906Y-113601186D01*
X256132654Y-113522897D01*
X256132654Y-113522895D01*
X256132655Y-113522893D01*
X256153131Y-113315000D01*
X256561869Y-113315000D01*
X256582345Y-113522898D01*
X256642981Y-113722790D01*
X256642984Y-113722796D01*
X256642985Y-113722799D01*
X256642986Y-113722800D01*
X256741460Y-113907034D01*
X256873984Y-114068515D01*
X257035465Y-114201039D01*
X257035467Y-114201040D01*
X257219701Y-114299515D01*
X257219706Y-114299516D01*
X257219709Y-114299518D01*
X257419601Y-114360154D01*
X257419603Y-114360154D01*
X257419606Y-114360155D01*
X257627500Y-114380631D01*
X257835394Y-114360155D01*
X257835396Y-114360154D01*
X257835398Y-114360154D01*
X258035290Y-114299518D01*
X258035291Y-114299517D01*
X258035299Y-114299515D01*
X258219533Y-114201040D01*
X258381015Y-114068515D01*
X258513540Y-113907033D01*
X258612015Y-113722799D01*
X258659401Y-113566589D01*
X258672654Y-113522898D01*
X258672654Y-113522896D01*
X258672655Y-113522894D01*
X258693131Y-113315000D01*
X259101869Y-113315000D01*
X259122345Y-113522898D01*
X259182981Y-113722790D01*
X259182984Y-113722796D01*
X259182985Y-113722799D01*
X259182986Y-113722800D01*
X259281460Y-113907034D01*
X259413984Y-114068515D01*
X259575465Y-114201039D01*
X259575467Y-114201040D01*
X259759701Y-114299515D01*
X259759706Y-114299516D01*
X259759709Y-114299518D01*
X259959601Y-114360154D01*
X259959603Y-114360154D01*
X259959606Y-114360155D01*
X260167500Y-114380631D01*
X260375394Y-114360155D01*
X260375396Y-114360154D01*
X260375398Y-114360154D01*
X260575290Y-114299518D01*
X260575291Y-114299517D01*
X260575299Y-114299515D01*
X260759533Y-114201040D01*
X260921015Y-114068515D01*
X261053540Y-113907033D01*
X261152015Y-113722799D01*
X261199401Y-113566589D01*
X261212654Y-113522898D01*
X261212654Y-113522896D01*
X261212655Y-113522894D01*
X261233131Y-113315000D01*
X261641869Y-113315000D01*
X261662345Y-113522898D01*
X261722981Y-113722790D01*
X261722984Y-113722796D01*
X261722985Y-113722799D01*
X261722986Y-113722800D01*
X261821460Y-113907034D01*
X261953984Y-114068515D01*
X262115465Y-114201039D01*
X262115467Y-114201040D01*
X262299701Y-114299515D01*
X262299706Y-114299516D01*
X262299709Y-114299518D01*
X262499601Y-114360154D01*
X262499603Y-114360154D01*
X262499606Y-114360155D01*
X262707500Y-114380631D01*
X262915394Y-114360155D01*
X262915396Y-114360154D01*
X262915398Y-114360154D01*
X263115290Y-114299518D01*
X263115291Y-114299517D01*
X263115299Y-114299515D01*
X263299533Y-114201040D01*
X263461015Y-114068515D01*
X263593540Y-113907033D01*
X263692015Y-113722799D01*
X263739401Y-113566589D01*
X263752654Y-113522898D01*
X263752654Y-113522896D01*
X263752655Y-113522894D01*
X263773131Y-113315000D01*
X264181869Y-113315000D01*
X264202345Y-113522898D01*
X264262981Y-113722790D01*
X264262984Y-113722796D01*
X264262985Y-113722799D01*
X264262986Y-113722800D01*
X264361460Y-113907034D01*
X264493984Y-114068515D01*
X264655465Y-114201039D01*
X264655467Y-114201040D01*
X264839701Y-114299515D01*
X264839706Y-114299516D01*
X264839709Y-114299518D01*
X265039601Y-114360154D01*
X265039603Y-114360154D01*
X265039606Y-114360155D01*
X265247500Y-114380631D01*
X265455394Y-114360155D01*
X265455396Y-114360154D01*
X265455398Y-114360154D01*
X265655290Y-114299518D01*
X265655291Y-114299517D01*
X265655299Y-114299515D01*
X265839533Y-114201040D01*
X266001015Y-114068515D01*
X266133540Y-113907033D01*
X266232015Y-113722799D01*
X266279401Y-113566589D01*
X266292654Y-113522898D01*
X266292654Y-113522896D01*
X266292655Y-113522894D01*
X266313131Y-113315000D01*
X266292655Y-113107106D01*
X266292654Y-113107103D01*
X266292654Y-113107101D01*
X266232018Y-112907209D01*
X266232016Y-112907206D01*
X266232015Y-112907201D01*
X266133540Y-112722967D01*
X266133539Y-112722965D01*
X266059457Y-112632696D01*
X266727000Y-112632696D01*
X266727000Y-113997302D01*
X266736495Y-114057252D01*
X266742225Y-114093432D01*
X266796273Y-114199508D01*
X266801260Y-114209295D01*
X266893203Y-114301238D01*
X266893205Y-114301239D01*
X266893206Y-114301240D01*
X267009067Y-114360274D01*
X267105193Y-114375499D01*
X268469806Y-114375498D01*
X268565933Y-114360274D01*
X268681794Y-114301240D01*
X268773741Y-114209293D01*
X268832775Y-114093432D01*
X268848000Y-113997306D01*
X268847999Y-112834997D01*
X275042006Y-112834997D01*
X275042006Y-112835002D01*
X275061851Y-112960302D01*
X275061852Y-112960306D01*
X275119446Y-113073340D01*
X275119448Y-113073343D01*
X275209154Y-113163049D01*
X275209157Y-113163051D01*
X275322191Y-113220645D01*
X275322193Y-113220645D01*
X275322194Y-113220646D01*
X275363962Y-113227261D01*
X275447496Y-113240492D01*
X275447498Y-113240492D01*
X275447500Y-113240492D01*
X275510150Y-113230569D01*
X275572802Y-113220646D01*
X275685840Y-113163050D01*
X275775548Y-113073342D01*
X275833144Y-112960304D01*
X275852990Y-112835000D01*
X275833144Y-112709696D01*
X275833143Y-112709695D01*
X275833143Y-112709693D01*
X275775549Y-112596659D01*
X275775547Y-112596656D01*
X275685841Y-112506950D01*
X275685838Y-112506948D01*
X275572804Y-112449354D01*
X275572800Y-112449353D01*
X275447500Y-112429508D01*
X275447496Y-112429508D01*
X275322195Y-112449353D01*
X275322191Y-112449354D01*
X275209157Y-112506948D01*
X275209154Y-112506950D01*
X275119448Y-112596656D01*
X275119446Y-112596659D01*
X275061852Y-112709693D01*
X275061851Y-112709697D01*
X275042006Y-112834997D01*
X268847999Y-112834997D01*
X268847999Y-112632693D01*
X268832775Y-112536566D01*
X268773741Y-112420705D01*
X268773740Y-112420704D01*
X268773739Y-112420702D01*
X268681796Y-112328759D01*
X268679669Y-112327675D01*
X268565933Y-112269724D01*
X268565929Y-112269723D01*
X268565926Y-112269722D01*
X268469818Y-112254500D01*
X268469810Y-112254499D01*
X268469807Y-112254499D01*
X268469802Y-112254499D01*
X267105196Y-112254499D01*
X267027156Y-112266859D01*
X267009067Y-112269724D01*
X266952198Y-112298699D01*
X266893203Y-112328759D01*
X266801260Y-112420702D01*
X266786004Y-112450645D01*
X266742225Y-112536566D01*
X266742225Y-112536567D01*
X266742223Y-112536572D01*
X266727001Y-112632680D01*
X266727000Y-112632696D01*
X266059457Y-112632696D01*
X266001015Y-112561484D01*
X265839534Y-112428960D01*
X265712044Y-112360816D01*
X265655299Y-112330485D01*
X265655296Y-112330484D01*
X265655290Y-112330481D01*
X265455398Y-112269845D01*
X265247500Y-112249369D01*
X265039601Y-112269845D01*
X264839709Y-112330481D01*
X264839699Y-112330486D01*
X264655465Y-112428960D01*
X264493984Y-112561484D01*
X264361460Y-112722965D01*
X264262986Y-112907199D01*
X264262981Y-112907209D01*
X264202345Y-113107101D01*
X264181869Y-113315000D01*
X263773131Y-113315000D01*
X263752655Y-113107106D01*
X263752654Y-113107103D01*
X263752654Y-113107101D01*
X263692018Y-112907209D01*
X263692016Y-112907206D01*
X263692015Y-112907201D01*
X263593540Y-112722967D01*
X263593539Y-112722965D01*
X263461015Y-112561484D01*
X263299534Y-112428960D01*
X263172044Y-112360816D01*
X263115299Y-112330485D01*
X263115296Y-112330484D01*
X263115290Y-112330481D01*
X262915398Y-112269845D01*
X262707500Y-112249369D01*
X262499601Y-112269845D01*
X262299709Y-112330481D01*
X262299699Y-112330486D01*
X262115465Y-112428960D01*
X261953984Y-112561484D01*
X261821460Y-112722965D01*
X261722986Y-112907199D01*
X261722981Y-112907209D01*
X261662345Y-113107101D01*
X261641869Y-113315000D01*
X261233131Y-113315000D01*
X261212655Y-113107106D01*
X261212654Y-113107103D01*
X261212654Y-113107101D01*
X261152018Y-112907209D01*
X261152016Y-112907206D01*
X261152015Y-112907201D01*
X261053540Y-112722967D01*
X261053539Y-112722965D01*
X260921015Y-112561484D01*
X260759534Y-112428960D01*
X260632044Y-112360816D01*
X260575299Y-112330485D01*
X260575296Y-112330484D01*
X260575290Y-112330481D01*
X260375398Y-112269845D01*
X260167500Y-112249369D01*
X259959601Y-112269845D01*
X259759709Y-112330481D01*
X259759699Y-112330486D01*
X259575465Y-112428960D01*
X259413984Y-112561484D01*
X259281460Y-112722965D01*
X259182986Y-112907199D01*
X259182981Y-112907209D01*
X259122345Y-113107101D01*
X259101869Y-113315000D01*
X258693131Y-113315000D01*
X258672655Y-113107106D01*
X258672654Y-113107103D01*
X258672654Y-113107101D01*
X258612018Y-112907209D01*
X258612016Y-112907206D01*
X258612015Y-112907201D01*
X258513540Y-112722967D01*
X258513539Y-112722965D01*
X258381015Y-112561484D01*
X258219534Y-112428960D01*
X258092044Y-112360816D01*
X258035299Y-112330485D01*
X258035296Y-112330484D01*
X258035290Y-112330481D01*
X257835398Y-112269845D01*
X257627500Y-112249369D01*
X257419601Y-112269845D01*
X257219709Y-112330481D01*
X257219699Y-112330486D01*
X257035465Y-112428960D01*
X256873984Y-112561484D01*
X256741460Y-112722965D01*
X256642986Y-112907199D01*
X256642981Y-112907209D01*
X256582345Y-113107101D01*
X256561869Y-113315000D01*
X256153131Y-113315000D01*
X256153131Y-113314999D01*
X256132655Y-113107105D01*
X256132654Y-113107101D01*
X256132654Y-113107100D01*
X256072018Y-112907208D01*
X256072016Y-112907205D01*
X256072015Y-112907200D01*
X255973540Y-112722966D01*
X255973539Y-112722964D01*
X255841015Y-112561483D01*
X255679534Y-112428959D01*
X255552046Y-112360816D01*
X255495299Y-112330484D01*
X255495296Y-112330483D01*
X255495290Y-112330480D01*
X255295398Y-112269844D01*
X255087500Y-112249368D01*
X254879601Y-112269844D01*
X254679709Y-112330480D01*
X254679699Y-112330485D01*
X254495465Y-112428959D01*
X254333984Y-112561483D01*
X254201460Y-112722964D01*
X254102986Y-112907198D01*
X254102981Y-112907208D01*
X254042345Y-113107100D01*
X254021869Y-113314999D01*
X182847500Y-113314999D01*
X182847500Y-113135000D01*
X182283702Y-113135000D01*
X182287500Y-113120826D01*
X182287500Y-112989174D01*
X182283702Y-112975000D01*
X182847500Y-112975000D01*
X182847500Y-112543410D01*
X182844777Y-112508817D01*
X182844776Y-112508813D01*
X182801781Y-112360816D01*
X182801780Y-112360813D01*
X182723325Y-112228156D01*
X182723320Y-112228149D01*
X182614350Y-112119179D01*
X182614343Y-112119174D01*
X182481686Y-112040719D01*
X182481683Y-112040718D01*
X182333686Y-111997723D01*
X182333682Y-111997722D01*
X182299090Y-111995000D01*
X181867500Y-111995000D01*
X181867500Y-112558797D01*
X181853326Y-112555000D01*
X181721674Y-112555000D01*
X181707500Y-112558797D01*
X181707500Y-111995000D01*
X181275910Y-111995000D01*
X181241317Y-111997722D01*
X181241313Y-111997723D01*
X181093316Y-112040718D01*
X181093313Y-112040719D01*
X180960656Y-112119174D01*
X180960649Y-112119179D01*
X180851679Y-112228149D01*
X180851674Y-112228156D01*
X180773219Y-112360813D01*
X180773218Y-112360816D01*
X180730223Y-112508813D01*
X180730222Y-112508817D01*
X180727500Y-112543410D01*
X180488000Y-112543410D01*
X180488000Y-110515000D01*
X180721869Y-110515000D01*
X180742345Y-110722898D01*
X180802981Y-110922790D01*
X180802984Y-110922796D01*
X180802985Y-110922799D01*
X180802986Y-110922800D01*
X180901460Y-111107034D01*
X181033984Y-111268515D01*
X181195465Y-111401039D01*
X181195467Y-111401040D01*
X181379701Y-111499515D01*
X181379706Y-111499516D01*
X181379709Y-111499518D01*
X181579601Y-111560154D01*
X181579603Y-111560154D01*
X181579606Y-111560155D01*
X181787500Y-111580631D01*
X181995394Y-111560155D01*
X181995396Y-111560154D01*
X181995398Y-111560154D01*
X182195290Y-111499518D01*
X182195291Y-111499517D01*
X182195299Y-111499515D01*
X182379533Y-111401040D01*
X182541015Y-111268515D01*
X182644288Y-111142677D01*
X227086999Y-111142677D01*
X227122939Y-111415665D01*
X227194202Y-111681624D01*
X227194208Y-111681640D01*
X227299574Y-111936015D01*
X227299575Y-111936018D01*
X227299577Y-111936021D01*
X227437251Y-112174479D01*
X227478439Y-112228156D01*
X227604870Y-112392927D01*
X227799572Y-112587629D01*
X227887244Y-112654901D01*
X228018021Y-112755249D01*
X228256479Y-112892923D01*
X228510868Y-112998295D01*
X228510873Y-112998296D01*
X228510875Y-112998297D01*
X228776834Y-113069560D01*
X229049822Y-113105500D01*
X229049826Y-113105500D01*
X229325177Y-113105500D01*
X229569431Y-113073343D01*
X229598166Y-113069560D01*
X229864132Y-112998295D01*
X230118521Y-112892923D01*
X230356979Y-112755249D01*
X230563660Y-112596658D01*
X230575427Y-112587629D01*
X230770129Y-112392927D01*
X230818042Y-112330485D01*
X230937749Y-112174479D01*
X231000959Y-112064997D01*
X255972008Y-112064997D01*
X255972008Y-112065002D01*
X255991853Y-112190302D01*
X255991854Y-112190306D01*
X256049448Y-112303340D01*
X256049450Y-112303343D01*
X256139156Y-112393049D01*
X256139159Y-112393051D01*
X256252193Y-112450645D01*
X256252195Y-112450645D01*
X256252196Y-112450646D01*
X256293964Y-112457261D01*
X256377498Y-112470492D01*
X256377500Y-112470492D01*
X256377502Y-112470492D01*
X256440152Y-112460569D01*
X256502804Y-112450646D01*
X256615842Y-112393050D01*
X256705550Y-112303342D01*
X256763146Y-112190304D01*
X256782992Y-112065000D01*
X256779146Y-112040719D01*
X256763146Y-111939697D01*
X256763145Y-111939693D01*
X256705551Y-111826659D01*
X256705549Y-111826656D01*
X256615843Y-111736950D01*
X256615840Y-111736948D01*
X256502806Y-111679354D01*
X256502802Y-111679353D01*
X256377502Y-111659508D01*
X256377498Y-111659508D01*
X256252197Y-111679353D01*
X256252193Y-111679354D01*
X256139159Y-111736948D01*
X256139156Y-111736950D01*
X256049450Y-111826656D01*
X256049448Y-111826659D01*
X255991854Y-111939693D01*
X255991853Y-111939697D01*
X255972008Y-112064997D01*
X231000959Y-112064997D01*
X231075423Y-111936021D01*
X231180795Y-111681632D01*
X231252060Y-111415666D01*
X231280368Y-111200645D01*
X231288000Y-111142677D01*
X231288000Y-110867322D01*
X231281111Y-110814997D01*
X254722008Y-110814997D01*
X254722008Y-110815002D01*
X254741853Y-110940302D01*
X254741854Y-110940306D01*
X254799448Y-111053340D01*
X254799450Y-111053343D01*
X254889156Y-111143049D01*
X254889159Y-111143051D01*
X255002193Y-111200645D01*
X255002195Y-111200645D01*
X255002196Y-111200646D01*
X255043964Y-111207261D01*
X255127498Y-111220492D01*
X255127500Y-111220492D01*
X255127502Y-111220492D01*
X255190152Y-111210569D01*
X255252804Y-111200646D01*
X255365842Y-111143050D01*
X255455550Y-111053342D01*
X255513146Y-110940304D01*
X255523069Y-110877652D01*
X255532992Y-110815002D01*
X255532992Y-110814997D01*
X255513146Y-110689697D01*
X255513145Y-110689693D01*
X255455551Y-110576659D01*
X255455549Y-110576656D01*
X255365843Y-110486950D01*
X255365840Y-110486948D01*
X255252806Y-110429354D01*
X255252802Y-110429353D01*
X255127502Y-110409508D01*
X255127498Y-110409508D01*
X255002197Y-110429353D01*
X255002193Y-110429354D01*
X254889159Y-110486948D01*
X254889156Y-110486950D01*
X254799450Y-110576656D01*
X254799448Y-110576659D01*
X254741854Y-110689693D01*
X254741853Y-110689697D01*
X254722008Y-110814997D01*
X231281111Y-110814997D01*
X231252060Y-110594334D01*
X231180797Y-110328375D01*
X231180796Y-110328373D01*
X231180795Y-110328368D01*
X231075423Y-110073979D01*
X230937749Y-109835521D01*
X230851133Y-109722640D01*
X230770129Y-109617072D01*
X230575427Y-109422370D01*
X230445294Y-109322517D01*
X230356979Y-109254751D01*
X230118521Y-109117077D01*
X230118518Y-109117075D01*
X230118515Y-109117074D01*
X229864140Y-109011708D01*
X229864124Y-109011702D01*
X229598165Y-108940439D01*
X229325177Y-108904500D01*
X229325174Y-108904500D01*
X229049826Y-108904500D01*
X229049823Y-108904500D01*
X228776834Y-108940439D01*
X228510875Y-109011702D01*
X228510859Y-109011708D01*
X228256484Y-109117074D01*
X228018025Y-109254748D01*
X227799572Y-109422370D01*
X227604870Y-109617072D01*
X227437248Y-109835525D01*
X227299574Y-110073984D01*
X227194208Y-110328359D01*
X227194202Y-110328375D01*
X227122939Y-110594334D01*
X227087000Y-110867322D01*
X227087000Y-110867326D01*
X227087000Y-111142674D01*
X227087000Y-111142677D01*
X227086999Y-111142677D01*
X182644288Y-111142677D01*
X182673540Y-111107033D01*
X182772015Y-110922799D01*
X182788843Y-110867326D01*
X182832654Y-110722898D01*
X182832654Y-110722896D01*
X182832655Y-110722894D01*
X182853131Y-110515000D01*
X182832655Y-110307106D01*
X182832654Y-110307103D01*
X182832654Y-110307101D01*
X182772018Y-110107209D01*
X182772016Y-110107206D01*
X182772015Y-110107201D01*
X182673540Y-109922967D01*
X182673539Y-109922965D01*
X182541015Y-109761484D01*
X182379534Y-109628960D01*
X182281059Y-109576324D01*
X182195299Y-109530485D01*
X182195296Y-109530484D01*
X182195290Y-109530481D01*
X181995398Y-109469845D01*
X181787500Y-109449369D01*
X181579601Y-109469845D01*
X181379709Y-109530481D01*
X181379699Y-109530486D01*
X181195465Y-109628960D01*
X181033984Y-109761484D01*
X180901460Y-109922965D01*
X180802986Y-110107199D01*
X180802981Y-110107209D01*
X180742345Y-110307101D01*
X180721869Y-110515000D01*
X180488000Y-110515000D01*
X180488000Y-107975000D01*
X180721869Y-107975000D01*
X180742345Y-108182898D01*
X180802981Y-108382790D01*
X180802984Y-108382796D01*
X180802985Y-108382799D01*
X180802986Y-108382800D01*
X180901460Y-108567034D01*
X181033984Y-108728515D01*
X181195465Y-108861039D01*
X181195467Y-108861040D01*
X181379701Y-108959515D01*
X181379706Y-108959516D01*
X181379709Y-108959518D01*
X181579601Y-109020154D01*
X181579603Y-109020154D01*
X181579606Y-109020155D01*
X181787500Y-109040631D01*
X181995394Y-109020155D01*
X181995396Y-109020154D01*
X181995398Y-109020154D01*
X182195290Y-108959518D01*
X182195291Y-108959517D01*
X182195299Y-108959515D01*
X182379533Y-108861040D01*
X182541015Y-108728515D01*
X182576729Y-108684997D01*
X272042006Y-108684997D01*
X272042006Y-108685002D01*
X272061851Y-108810302D01*
X272061852Y-108810306D01*
X272119446Y-108923340D01*
X272119448Y-108923343D01*
X272209154Y-109013049D01*
X272209157Y-109013051D01*
X272322191Y-109070645D01*
X272322193Y-109070645D01*
X272322194Y-109070646D01*
X272363962Y-109077261D01*
X272447496Y-109090492D01*
X272447498Y-109090492D01*
X272447500Y-109090492D01*
X272510150Y-109080569D01*
X272572802Y-109070646D01*
X272685840Y-109013050D01*
X272775548Y-108923342D01*
X272833144Y-108810304D01*
X272852990Y-108685000D01*
X272833144Y-108559696D01*
X272833143Y-108559695D01*
X272833143Y-108559693D01*
X272775549Y-108446659D01*
X272775547Y-108446656D01*
X272685841Y-108356950D01*
X272685838Y-108356948D01*
X272572804Y-108299354D01*
X272572800Y-108299353D01*
X272447500Y-108279508D01*
X272447496Y-108279508D01*
X272322195Y-108299353D01*
X272322191Y-108299354D01*
X272209157Y-108356948D01*
X272209154Y-108356950D01*
X272119448Y-108446656D01*
X272119446Y-108446659D01*
X272061852Y-108559693D01*
X272061851Y-108559697D01*
X272042006Y-108684997D01*
X182576729Y-108684997D01*
X182673540Y-108567033D01*
X182772015Y-108382799D01*
X182832655Y-108182894D01*
X182853131Y-107975000D01*
X182832655Y-107767106D01*
X182832654Y-107767103D01*
X182832654Y-107767101D01*
X182772018Y-107567209D01*
X182772016Y-107567206D01*
X182772015Y-107567201D01*
X182673540Y-107382967D01*
X182673539Y-107382965D01*
X182541015Y-107221484D01*
X182379534Y-107088960D01*
X182281059Y-107036324D01*
X182195299Y-106990485D01*
X182195296Y-106990484D01*
X182195290Y-106990481D01*
X181995398Y-106929845D01*
X181787500Y-106909369D01*
X181579601Y-106929845D01*
X181379709Y-106990481D01*
X181379699Y-106990486D01*
X181195465Y-107088960D01*
X181033984Y-107221484D01*
X180901460Y-107382965D01*
X180802986Y-107567199D01*
X180802981Y-107567209D01*
X180742345Y-107767101D01*
X180721869Y-107975000D01*
X180488000Y-107975000D01*
X180488000Y-105435001D01*
X180722371Y-105435001D01*
X180742837Y-105642799D01*
X180742838Y-105642803D01*
X180803446Y-105842602D01*
X180803448Y-105842605D01*
X180901880Y-106026757D01*
X180983343Y-106126020D01*
X181380063Y-105729299D01*
X181387401Y-105742008D01*
X181480493Y-105835100D01*
X181493199Y-105842436D01*
X181096479Y-106239156D01*
X181195743Y-106320620D01*
X181379895Y-106419052D01*
X181379898Y-106419054D01*
X181579697Y-106479662D01*
X181579701Y-106479663D01*
X181787500Y-106500129D01*
X181995298Y-106479663D01*
X181995302Y-106479662D01*
X182195101Y-106419054D01*
X182195104Y-106419052D01*
X182379260Y-106320618D01*
X182478518Y-106239158D01*
X182478519Y-106239156D01*
X182081799Y-105842436D01*
X182094507Y-105835100D01*
X182187599Y-105742008D01*
X182194935Y-105729300D01*
X182591655Y-106126020D01*
X182591657Y-106126019D01*
X182673117Y-106026761D01*
X182771551Y-105842605D01*
X182771553Y-105842602D01*
X182832161Y-105642803D01*
X182832162Y-105642799D01*
X182852628Y-105435001D01*
X182832162Y-105227202D01*
X182832161Y-105227198D01*
X182771553Y-105027399D01*
X182771551Y-105027396D01*
X182673119Y-104843244D01*
X182591655Y-104743980D01*
X182194935Y-105140700D01*
X182187599Y-105127994D01*
X182094507Y-105034902D01*
X182081798Y-105027564D01*
X182478519Y-104630844D01*
X182379256Y-104549381D01*
X182195104Y-104450949D01*
X182195101Y-104450947D01*
X181995302Y-104390339D01*
X181995298Y-104390338D01*
X181787500Y-104369872D01*
X181579701Y-104390338D01*
X181579697Y-104390339D01*
X181379898Y-104450947D01*
X181379895Y-104450949D01*
X181195742Y-104549381D01*
X181096480Y-104630843D01*
X181096479Y-104630844D01*
X181493200Y-105027565D01*
X181480493Y-105034902D01*
X181387401Y-105127994D01*
X181380064Y-105140701D01*
X180983343Y-104743980D01*
X180983342Y-104743981D01*
X180901880Y-104843243D01*
X180803448Y-105027396D01*
X180803446Y-105027399D01*
X180742838Y-105227198D01*
X180742837Y-105227202D01*
X180722371Y-105435001D01*
X180488000Y-105435001D01*
X180488000Y-102894999D01*
X180722371Y-102894999D01*
X180742837Y-103102797D01*
X180742838Y-103102801D01*
X180803446Y-103302600D01*
X180803448Y-103302603D01*
X180901880Y-103486755D01*
X180983343Y-103586018D01*
X181380063Y-103189297D01*
X181387401Y-103202006D01*
X181480493Y-103295098D01*
X181493199Y-103302434D01*
X181096479Y-103699154D01*
X181195743Y-103780618D01*
X181379895Y-103879050D01*
X181379898Y-103879052D01*
X181579697Y-103939660D01*
X181579701Y-103939661D01*
X181787500Y-103960127D01*
X181995298Y-103939661D01*
X181995302Y-103939660D01*
X182195101Y-103879052D01*
X182195104Y-103879050D01*
X182379260Y-103780616D01*
X182478518Y-103699156D01*
X182478519Y-103699154D01*
X182081799Y-103302434D01*
X182094507Y-103295098D01*
X182187599Y-103202006D01*
X182194935Y-103189298D01*
X182591655Y-103586018D01*
X182591657Y-103586017D01*
X182673117Y-103486759D01*
X182771551Y-103302603D01*
X182771553Y-103302600D01*
X182785168Y-103257718D01*
X186837000Y-103257718D01*
X186837000Y-105592280D01*
X186837157Y-105599486D01*
X186837459Y-105606392D01*
X186852807Y-105669109D01*
X186852808Y-105669112D01*
X186875647Y-105718088D01*
X186908608Y-105765161D01*
X186908617Y-105765171D01*
X188062302Y-106918856D01*
X188067533Y-106923865D01*
X188072618Y-106928526D01*
X188127833Y-106962036D01*
X188127835Y-106962036D01*
X188127839Y-106962039D01*
X188178619Y-106980521D01*
X188235222Y-106990501D01*
X188235226Y-106990501D01*
X205023497Y-106990501D01*
X205023500Y-106990501D01*
X205037922Y-106989871D01*
X205037928Y-106989870D01*
X205037938Y-106989870D01*
X205051635Y-106988672D01*
X205051637Y-106988671D01*
X205051640Y-106988671D01*
X205119968Y-106967128D01*
X205166768Y-106940108D01*
X205195419Y-106919174D01*
X205239538Y-106853384D01*
X205258020Y-106802604D01*
X205268000Y-106746001D01*
X205268000Y-106444999D01*
X224447008Y-106444999D01*
X224447008Y-106445004D01*
X224466853Y-106570304D01*
X224466854Y-106570308D01*
X224524448Y-106683342D01*
X224524450Y-106683345D01*
X224614156Y-106773051D01*
X224614159Y-106773053D01*
X224727193Y-106830647D01*
X224727195Y-106830647D01*
X224727196Y-106830648D01*
X224768964Y-106837263D01*
X224852498Y-106850494D01*
X224852500Y-106850494D01*
X224852502Y-106850494D01*
X224915651Y-106840492D01*
X224977804Y-106830648D01*
X225090842Y-106773052D01*
X225180550Y-106683344D01*
X225238146Y-106570306D01*
X225252502Y-106479663D01*
X225257992Y-106445004D01*
X225257992Y-106444999D01*
X228747008Y-106444999D01*
X228747008Y-106445004D01*
X228766853Y-106570304D01*
X228766854Y-106570308D01*
X228824448Y-106683342D01*
X228824450Y-106683345D01*
X228914156Y-106773051D01*
X228914159Y-106773053D01*
X229027193Y-106830647D01*
X229027195Y-106830647D01*
X229027196Y-106830648D01*
X229068964Y-106837263D01*
X229152498Y-106850494D01*
X229152500Y-106850494D01*
X229152502Y-106850494D01*
X229215651Y-106840492D01*
X229277804Y-106830648D01*
X229390842Y-106773052D01*
X229480550Y-106683344D01*
X229538146Y-106570306D01*
X229552502Y-106479663D01*
X229557992Y-106445004D01*
X229557992Y-106444999D01*
X229556408Y-106434997D01*
X272042006Y-106434997D01*
X272042006Y-106435002D01*
X272061851Y-106560302D01*
X272061852Y-106560306D01*
X272119446Y-106673340D01*
X272119448Y-106673343D01*
X272209154Y-106763049D01*
X272209157Y-106763051D01*
X272322191Y-106820645D01*
X272322193Y-106820645D01*
X272322194Y-106820646D01*
X272363962Y-106827261D01*
X272447496Y-106840492D01*
X272447498Y-106840492D01*
X272447500Y-106840492D01*
X272510150Y-106830569D01*
X272572802Y-106820646D01*
X272685840Y-106763050D01*
X272775548Y-106673342D01*
X272833144Y-106560304D01*
X272851406Y-106445002D01*
X272852990Y-106435002D01*
X272852990Y-106434997D01*
X272833144Y-106309697D01*
X272833143Y-106309693D01*
X272775549Y-106196659D01*
X272775547Y-106196656D01*
X272685841Y-106106950D01*
X272685838Y-106106948D01*
X272572804Y-106049354D01*
X272572800Y-106049353D01*
X272447500Y-106029508D01*
X272447496Y-106029508D01*
X272322195Y-106049353D01*
X272322191Y-106049354D01*
X272209157Y-106106948D01*
X272209154Y-106106950D01*
X272119448Y-106196656D01*
X272119446Y-106196659D01*
X272061852Y-106309693D01*
X272061851Y-106309697D01*
X272042006Y-106434997D01*
X229556408Y-106434997D01*
X229538146Y-106319699D01*
X229538145Y-106319695D01*
X229480551Y-106206661D01*
X229480549Y-106206658D01*
X229390843Y-106116952D01*
X229390840Y-106116950D01*
X229277806Y-106059356D01*
X229277802Y-106059355D01*
X229152502Y-106039510D01*
X229152498Y-106039510D01*
X229027197Y-106059355D01*
X229027193Y-106059356D01*
X228914159Y-106116950D01*
X228914156Y-106116952D01*
X228824450Y-106206658D01*
X228824448Y-106206661D01*
X228766854Y-106319695D01*
X228766853Y-106319699D01*
X228747008Y-106444999D01*
X225257992Y-106444999D01*
X225238146Y-106319699D01*
X225238145Y-106319695D01*
X225180551Y-106206661D01*
X225180549Y-106206658D01*
X225090843Y-106116952D01*
X225090840Y-106116950D01*
X224977806Y-106059356D01*
X224977802Y-106059355D01*
X224852502Y-106039510D01*
X224852498Y-106039510D01*
X224727197Y-106059355D01*
X224727193Y-106059356D01*
X224614159Y-106116950D01*
X224614156Y-106116952D01*
X224524450Y-106206658D01*
X224524448Y-106206661D01*
X224466854Y-106319695D01*
X224466853Y-106319699D01*
X224447008Y-106444999D01*
X205268000Y-106444999D01*
X205268000Y-105272759D01*
X205286482Y-105221979D01*
X205291139Y-105216898D01*
X205333038Y-105174999D01*
X228747008Y-105174999D01*
X228747008Y-105175004D01*
X228766853Y-105300304D01*
X228766854Y-105300308D01*
X228824448Y-105413342D01*
X228824450Y-105413345D01*
X228914156Y-105503051D01*
X228914159Y-105503053D01*
X229027193Y-105560647D01*
X229027195Y-105560647D01*
X229027196Y-105560648D01*
X229068964Y-105567263D01*
X229152498Y-105580494D01*
X229152500Y-105580494D01*
X229152502Y-105580494D01*
X229215152Y-105570571D01*
X229277804Y-105560648D01*
X229390842Y-105503052D01*
X229480550Y-105413344D01*
X229538146Y-105300306D01*
X229557992Y-105175002D01*
X229538146Y-105049698D01*
X229538145Y-105049697D01*
X229538145Y-105049695D01*
X229480551Y-104936661D01*
X229480549Y-104936658D01*
X229390843Y-104846952D01*
X229390840Y-104846950D01*
X229277806Y-104789356D01*
X229277802Y-104789355D01*
X229152502Y-104769510D01*
X229152498Y-104769510D01*
X229027197Y-104789355D01*
X229027193Y-104789356D01*
X228914159Y-104846950D01*
X228914156Y-104846952D01*
X228824450Y-104936658D01*
X228824448Y-104936661D01*
X228766854Y-105049695D01*
X228766853Y-105049699D01*
X228747008Y-105174999D01*
X205333038Y-105174999D01*
X206603038Y-103904999D01*
X228747008Y-103904999D01*
X228747008Y-103905004D01*
X228766853Y-104030304D01*
X228766854Y-104030308D01*
X228824448Y-104143342D01*
X228824450Y-104143345D01*
X228914156Y-104233051D01*
X228914159Y-104233053D01*
X229027193Y-104290647D01*
X229027195Y-104290647D01*
X229027196Y-104290648D01*
X229068964Y-104297263D01*
X229152498Y-104310494D01*
X229152500Y-104310494D01*
X229152502Y-104310494D01*
X229215152Y-104300571D01*
X229277804Y-104290648D01*
X229390842Y-104233052D01*
X229438897Y-104184997D01*
X272042006Y-104184997D01*
X272042006Y-104185002D01*
X272061851Y-104310302D01*
X272061852Y-104310306D01*
X272119446Y-104423340D01*
X272119448Y-104423343D01*
X272209154Y-104513049D01*
X272209157Y-104513051D01*
X272322191Y-104570645D01*
X272322193Y-104570645D01*
X272322194Y-104570646D01*
X272363962Y-104577261D01*
X272447496Y-104590492D01*
X272447498Y-104590492D01*
X272447500Y-104590492D01*
X272510150Y-104580569D01*
X272572802Y-104570646D01*
X272685840Y-104513050D01*
X272775548Y-104423342D01*
X272833144Y-104310304D01*
X272852990Y-104185000D01*
X272846392Y-104143344D01*
X272833144Y-104059697D01*
X272833143Y-104059693D01*
X272775549Y-103946659D01*
X272775547Y-103946656D01*
X272685841Y-103856950D01*
X272685838Y-103856948D01*
X272572804Y-103799354D01*
X272572800Y-103799353D01*
X272447500Y-103779508D01*
X272447496Y-103779508D01*
X272322195Y-103799353D01*
X272322191Y-103799354D01*
X272209157Y-103856948D01*
X272209154Y-103856950D01*
X272119448Y-103946656D01*
X272119446Y-103946659D01*
X272061852Y-104059693D01*
X272061851Y-104059697D01*
X272042006Y-104184997D01*
X229438897Y-104184997D01*
X229480550Y-104143344D01*
X229538146Y-104030306D01*
X229551394Y-103946659D01*
X229557992Y-103905004D01*
X229557992Y-103904999D01*
X229538146Y-103779699D01*
X229538145Y-103779695D01*
X229480551Y-103666661D01*
X229480549Y-103666658D01*
X229390843Y-103576952D01*
X229390840Y-103576950D01*
X229277806Y-103519356D01*
X229277802Y-103519355D01*
X229152502Y-103499510D01*
X229152498Y-103499510D01*
X229027197Y-103519355D01*
X229027193Y-103519356D01*
X228914159Y-103576950D01*
X228914156Y-103576952D01*
X228824450Y-103666658D01*
X228824448Y-103666661D01*
X228766854Y-103779695D01*
X228766853Y-103779699D01*
X228747008Y-103904999D01*
X206603038Y-103904999D01*
X208573040Y-101934997D01*
X272042006Y-101934997D01*
X272042006Y-101935002D01*
X272061851Y-102060302D01*
X272061852Y-102060306D01*
X272119446Y-102173340D01*
X272119448Y-102173343D01*
X272209154Y-102263049D01*
X272209157Y-102263051D01*
X272322191Y-102320645D01*
X272322193Y-102320645D01*
X272322194Y-102320646D01*
X272363962Y-102327261D01*
X272447496Y-102340492D01*
X272447498Y-102340492D01*
X272447500Y-102340492D01*
X272510150Y-102330569D01*
X272572802Y-102320646D01*
X272685840Y-102263050D01*
X272775548Y-102173342D01*
X272833144Y-102060304D01*
X272852990Y-101935000D01*
X272852375Y-101931118D01*
X272833144Y-101809697D01*
X272833143Y-101809693D01*
X272775549Y-101696659D01*
X272775547Y-101696656D01*
X272685841Y-101606950D01*
X272685838Y-101606948D01*
X272572804Y-101549354D01*
X272572800Y-101549353D01*
X272447500Y-101529508D01*
X272447496Y-101529508D01*
X272322195Y-101549353D01*
X272322191Y-101549354D01*
X272209157Y-101606948D01*
X272209154Y-101606950D01*
X272119448Y-101696656D01*
X272119446Y-101696659D01*
X272061852Y-101809693D01*
X272061851Y-101809697D01*
X272042006Y-101934997D01*
X208573040Y-101934997D01*
X210823040Y-99684997D01*
X272042006Y-99684997D01*
X272042006Y-99685002D01*
X272061851Y-99810302D01*
X272061852Y-99810306D01*
X272119446Y-99923340D01*
X272119448Y-99923343D01*
X272209154Y-100013049D01*
X272209157Y-100013051D01*
X272322191Y-100070645D01*
X272322193Y-100070645D01*
X272322194Y-100070646D01*
X272363962Y-100077261D01*
X272447496Y-100090492D01*
X272447498Y-100090492D01*
X272447500Y-100090492D01*
X272510150Y-100080569D01*
X272572802Y-100070646D01*
X272685840Y-100013050D01*
X272775548Y-99923342D01*
X272833144Y-99810304D01*
X272852990Y-99685000D01*
X272833144Y-99559696D01*
X272833143Y-99559695D01*
X272833143Y-99559693D01*
X272775549Y-99446659D01*
X272775547Y-99446656D01*
X272685841Y-99356950D01*
X272685838Y-99356948D01*
X272572804Y-99299354D01*
X272572800Y-99299353D01*
X272447500Y-99279508D01*
X272447496Y-99279508D01*
X272322195Y-99299353D01*
X272322191Y-99299354D01*
X272209157Y-99356948D01*
X272209154Y-99356950D01*
X272119448Y-99446656D01*
X272119446Y-99446659D01*
X272061852Y-99559693D01*
X272061851Y-99559697D01*
X272042006Y-99684997D01*
X210823040Y-99684997D01*
X215190540Y-95317497D01*
X243837008Y-95317497D01*
X243837008Y-95317502D01*
X243856853Y-95442802D01*
X243856854Y-95442806D01*
X243914448Y-95555840D01*
X243914450Y-95555843D01*
X244004156Y-95645549D01*
X244004159Y-95645551D01*
X244117193Y-95703145D01*
X244117195Y-95703145D01*
X244117196Y-95703146D01*
X244158964Y-95709761D01*
X244242498Y-95722992D01*
X244242500Y-95722992D01*
X244242502Y-95722992D01*
X244305152Y-95713069D01*
X244367804Y-95703146D01*
X244480842Y-95645550D01*
X244570550Y-95555842D01*
X244628146Y-95442804D01*
X244647992Y-95317500D01*
X244647992Y-95317497D01*
X250637008Y-95317497D01*
X250637008Y-95317502D01*
X250656853Y-95442802D01*
X250656854Y-95442806D01*
X250714448Y-95555840D01*
X250714450Y-95555843D01*
X250804156Y-95645549D01*
X250804159Y-95645551D01*
X250917193Y-95703145D01*
X250917195Y-95703145D01*
X250917196Y-95703146D01*
X250958964Y-95709761D01*
X251042498Y-95722992D01*
X251042500Y-95722992D01*
X251042502Y-95722992D01*
X251105152Y-95713069D01*
X251167804Y-95703146D01*
X251280842Y-95645550D01*
X251370550Y-95555842D01*
X251428146Y-95442804D01*
X251447992Y-95317500D01*
X251447992Y-95317497D01*
X257432008Y-95317497D01*
X257432008Y-95317502D01*
X257451853Y-95442802D01*
X257451854Y-95442806D01*
X257509448Y-95555840D01*
X257509450Y-95555843D01*
X257599156Y-95645549D01*
X257599159Y-95645551D01*
X257712193Y-95703145D01*
X257712195Y-95703145D01*
X257712196Y-95703146D01*
X257753964Y-95709761D01*
X257837498Y-95722992D01*
X257837500Y-95722992D01*
X257837502Y-95722992D01*
X257900152Y-95713069D01*
X257962804Y-95703146D01*
X258075842Y-95645550D01*
X258165550Y-95555842D01*
X258223146Y-95442804D01*
X258242992Y-95317500D01*
X258242992Y-95317497D01*
X263432008Y-95317497D01*
X263432008Y-95317502D01*
X263451853Y-95442802D01*
X263451854Y-95442806D01*
X263509448Y-95555840D01*
X263509450Y-95555843D01*
X263599156Y-95645549D01*
X263599159Y-95645551D01*
X263712193Y-95703145D01*
X263712195Y-95703145D01*
X263712196Y-95703146D01*
X263753964Y-95709761D01*
X263837498Y-95722992D01*
X263837500Y-95722992D01*
X263837502Y-95722992D01*
X263900152Y-95713069D01*
X263962804Y-95703146D01*
X264075842Y-95645550D01*
X264165550Y-95555842D01*
X264223146Y-95442804D01*
X264242992Y-95317500D01*
X264236260Y-95274998D01*
X264223146Y-95192197D01*
X264223145Y-95192193D01*
X264165551Y-95079159D01*
X264165549Y-95079156D01*
X264075843Y-94989450D01*
X264075840Y-94989448D01*
X263962806Y-94931854D01*
X263962802Y-94931853D01*
X263837502Y-94912008D01*
X263837498Y-94912008D01*
X263712197Y-94931853D01*
X263712193Y-94931854D01*
X263599159Y-94989448D01*
X263599156Y-94989450D01*
X263509450Y-95079156D01*
X263509448Y-95079159D01*
X263451854Y-95192193D01*
X263451853Y-95192197D01*
X263432008Y-95317497D01*
X258242992Y-95317497D01*
X258236260Y-95274998D01*
X258223146Y-95192197D01*
X258223145Y-95192193D01*
X258165551Y-95079159D01*
X258165549Y-95079156D01*
X258075843Y-94989450D01*
X258075840Y-94989448D01*
X257962806Y-94931854D01*
X257962802Y-94931853D01*
X257837502Y-94912008D01*
X257837498Y-94912008D01*
X257712197Y-94931853D01*
X257712193Y-94931854D01*
X257599159Y-94989448D01*
X257599156Y-94989450D01*
X257509450Y-95079156D01*
X257509448Y-95079159D01*
X257451854Y-95192193D01*
X257451853Y-95192197D01*
X257432008Y-95317497D01*
X251447992Y-95317497D01*
X251441260Y-95274998D01*
X251428146Y-95192197D01*
X251428145Y-95192193D01*
X251370551Y-95079159D01*
X251370549Y-95079156D01*
X251280843Y-94989450D01*
X251280840Y-94989448D01*
X251167806Y-94931854D01*
X251167802Y-94931853D01*
X251042502Y-94912008D01*
X251042498Y-94912008D01*
X250917197Y-94931853D01*
X250917193Y-94931854D01*
X250804159Y-94989448D01*
X250804156Y-94989450D01*
X250714450Y-95079156D01*
X250714448Y-95079159D01*
X250656854Y-95192193D01*
X250656853Y-95192197D01*
X250637008Y-95317497D01*
X244647992Y-95317497D01*
X244641260Y-95274998D01*
X244628146Y-95192197D01*
X244628145Y-95192193D01*
X244570551Y-95079159D01*
X244570549Y-95079156D01*
X244480843Y-94989450D01*
X244480840Y-94989448D01*
X244367806Y-94931854D01*
X244367802Y-94931853D01*
X244242502Y-94912008D01*
X244242498Y-94912008D01*
X244117197Y-94931853D01*
X244117193Y-94931854D01*
X244004159Y-94989448D01*
X244004156Y-94989450D01*
X243914450Y-95079156D01*
X243914448Y-95079159D01*
X243856854Y-95192193D01*
X243856853Y-95192197D01*
X243837008Y-95317497D01*
X215190540Y-95317497D01*
X216383038Y-94124999D01*
X233097008Y-94124999D01*
X233097008Y-94125004D01*
X233116853Y-94250304D01*
X233116854Y-94250308D01*
X233174448Y-94363342D01*
X233174450Y-94363345D01*
X233264156Y-94453051D01*
X233264159Y-94453053D01*
X233377193Y-94510647D01*
X233377195Y-94510647D01*
X233377196Y-94510648D01*
X233418964Y-94517263D01*
X233502498Y-94530494D01*
X233502500Y-94530494D01*
X233502502Y-94530494D01*
X233565152Y-94520571D01*
X233627804Y-94510648D01*
X233740842Y-94453052D01*
X233830550Y-94363344D01*
X233888146Y-94250306D01*
X233907992Y-94125002D01*
X233905695Y-94110501D01*
X233888146Y-93999699D01*
X233888145Y-93999695D01*
X233830551Y-93886661D01*
X233830549Y-93886658D01*
X233740843Y-93796952D01*
X233740840Y-93796950D01*
X233627806Y-93739356D01*
X233627802Y-93739355D01*
X233502502Y-93719510D01*
X233502498Y-93719510D01*
X233377197Y-93739355D01*
X233377193Y-93739356D01*
X233264159Y-93796950D01*
X233264156Y-93796952D01*
X233174450Y-93886658D01*
X233174448Y-93886661D01*
X233116854Y-93999695D01*
X233116853Y-93999699D01*
X233097008Y-94124999D01*
X216383038Y-94124999D01*
X217105982Y-93402055D01*
X217695758Y-92812279D01*
X218355154Y-92152882D01*
X218358895Y-92149377D01*
X218509409Y-92017383D01*
X218517605Y-92011095D01*
X218600809Y-91955501D01*
X218681874Y-91901336D01*
X218690814Y-91896174D01*
X218868002Y-91808797D01*
X218877548Y-91804843D01*
X218895413Y-91798779D01*
X219064634Y-91741338D01*
X219074609Y-91738665D01*
X219268378Y-91700125D01*
X219278606Y-91698779D01*
X219478640Y-91685670D01*
X219483789Y-91685502D01*
X219539942Y-91685503D01*
X219539945Y-91685502D01*
X224758000Y-91685502D01*
X224808780Y-91703984D01*
X224835800Y-91750784D01*
X224837000Y-91764502D01*
X224837000Y-92812280D01*
X224837157Y-92819486D01*
X224837459Y-92826392D01*
X224852807Y-92889109D01*
X224852808Y-92889112D01*
X224875647Y-92938088D01*
X224908608Y-92985161D01*
X224908617Y-92985171D01*
X225662302Y-93738856D01*
X225667533Y-93743865D01*
X225672618Y-93748526D01*
X225727833Y-93782036D01*
X225727835Y-93782036D01*
X225727839Y-93782039D01*
X225778619Y-93800521D01*
X225835222Y-93810501D01*
X228951226Y-93810501D01*
X229002006Y-93828983D01*
X229007076Y-93833629D01*
X229212345Y-94038898D01*
X229217557Y-94043888D01*
X229222628Y-94048535D01*
X229222630Y-94048536D01*
X229222631Y-94048537D01*
X229277834Y-94082036D01*
X229277839Y-94082039D01*
X229296252Y-94088740D01*
X229328609Y-94100518D01*
X229328615Y-94100520D01*
X229328617Y-94100520D01*
X229328619Y-94100521D01*
X229385222Y-94110501D01*
X229385226Y-94110501D01*
X231099780Y-94110501D01*
X231100406Y-94110487D01*
X231107006Y-94110343D01*
X231113891Y-94110042D01*
X231176607Y-94094694D01*
X231225583Y-94071856D01*
X231239014Y-94062450D01*
X231272660Y-94038892D01*
X231272662Y-94038889D01*
X231272665Y-94038888D01*
X231796386Y-93515167D01*
X231801366Y-93509966D01*
X231806023Y-93504885D01*
X231839537Y-93449663D01*
X231858019Y-93398883D01*
X231867999Y-93342280D01*
X231867999Y-92167497D01*
X246457008Y-92167497D01*
X246457008Y-92167502D01*
X246476853Y-92292802D01*
X246476854Y-92292806D01*
X246534448Y-92405840D01*
X246534450Y-92405843D01*
X246624156Y-92495549D01*
X246624159Y-92495551D01*
X246737193Y-92553145D01*
X246737195Y-92553145D01*
X246737196Y-92553146D01*
X246778964Y-92559761D01*
X246862498Y-92572992D01*
X246862500Y-92572992D01*
X246862502Y-92572992D01*
X246925152Y-92563069D01*
X246987804Y-92553146D01*
X247100842Y-92495550D01*
X247190550Y-92405842D01*
X247248146Y-92292804D01*
X247267992Y-92167500D01*
X247267992Y-92167497D01*
X247727008Y-92167497D01*
X247727008Y-92167502D01*
X247746853Y-92292802D01*
X247746854Y-92292806D01*
X247804448Y-92405840D01*
X247804450Y-92405843D01*
X247894156Y-92495549D01*
X247894159Y-92495551D01*
X248007193Y-92553145D01*
X248007195Y-92553145D01*
X248007196Y-92553146D01*
X248048964Y-92559761D01*
X248132498Y-92572992D01*
X248132500Y-92572992D01*
X248132502Y-92572992D01*
X248195152Y-92563069D01*
X248257804Y-92553146D01*
X248370842Y-92495550D01*
X248460550Y-92405842D01*
X248518146Y-92292804D01*
X248537992Y-92167500D01*
X248537992Y-92167497D01*
X253257008Y-92167497D01*
X253257008Y-92167502D01*
X253276853Y-92292802D01*
X253276854Y-92292806D01*
X253334448Y-92405840D01*
X253334450Y-92405843D01*
X253424156Y-92495549D01*
X253424159Y-92495551D01*
X253537193Y-92553145D01*
X253537195Y-92553145D01*
X253537196Y-92553146D01*
X253578964Y-92559761D01*
X253662498Y-92572992D01*
X253662500Y-92572992D01*
X253662502Y-92572992D01*
X253725152Y-92563069D01*
X253787804Y-92553146D01*
X253900842Y-92495550D01*
X253990550Y-92405842D01*
X254048146Y-92292804D01*
X254067992Y-92167500D01*
X254067992Y-92167497D01*
X254527008Y-92167497D01*
X254527008Y-92167502D01*
X254546853Y-92292802D01*
X254546854Y-92292806D01*
X254604448Y-92405840D01*
X254604450Y-92405843D01*
X254694156Y-92495549D01*
X254694159Y-92495551D01*
X254807193Y-92553145D01*
X254807195Y-92553145D01*
X254807196Y-92553146D01*
X254848964Y-92559761D01*
X254932498Y-92572992D01*
X254932500Y-92572992D01*
X254932502Y-92572992D01*
X254995152Y-92563069D01*
X255057804Y-92553146D01*
X255170842Y-92495550D01*
X255260550Y-92405842D01*
X255318146Y-92292804D01*
X255337992Y-92167500D01*
X255337992Y-92167497D01*
X260052008Y-92167497D01*
X260052008Y-92167502D01*
X260071853Y-92292802D01*
X260071854Y-92292806D01*
X260129448Y-92405840D01*
X260129450Y-92405843D01*
X260219156Y-92495549D01*
X260219159Y-92495551D01*
X260332193Y-92553145D01*
X260332195Y-92553145D01*
X260332196Y-92553146D01*
X260373964Y-92559761D01*
X260457498Y-92572992D01*
X260457500Y-92572992D01*
X260457502Y-92572992D01*
X260520152Y-92563069D01*
X260582804Y-92553146D01*
X260695842Y-92495550D01*
X260785550Y-92405842D01*
X260843146Y-92292804D01*
X260862992Y-92167500D01*
X260862992Y-92167497D01*
X261322008Y-92167497D01*
X261322008Y-92167502D01*
X261341853Y-92292802D01*
X261341854Y-92292806D01*
X261399448Y-92405840D01*
X261399450Y-92405843D01*
X261489156Y-92495549D01*
X261489159Y-92495551D01*
X261602193Y-92553145D01*
X261602195Y-92553145D01*
X261602196Y-92553146D01*
X261643964Y-92559761D01*
X261727498Y-92572992D01*
X261727500Y-92572992D01*
X261727502Y-92572992D01*
X261790152Y-92563069D01*
X261852804Y-92553146D01*
X261965842Y-92495550D01*
X262055550Y-92405842D01*
X262113146Y-92292804D01*
X262132992Y-92167500D01*
X262130679Y-92152897D01*
X262113146Y-92042197D01*
X262113145Y-92042193D01*
X262055551Y-91929159D01*
X262055549Y-91929156D01*
X261965843Y-91839450D01*
X261965840Y-91839448D01*
X261852806Y-91781854D01*
X261852802Y-91781853D01*
X261727502Y-91762008D01*
X261727498Y-91762008D01*
X261602197Y-91781853D01*
X261602193Y-91781854D01*
X261489159Y-91839448D01*
X261489156Y-91839450D01*
X261399450Y-91929156D01*
X261399448Y-91929159D01*
X261341854Y-92042193D01*
X261341853Y-92042197D01*
X261322008Y-92167497D01*
X260862992Y-92167497D01*
X260860679Y-92152897D01*
X260843146Y-92042197D01*
X260843145Y-92042193D01*
X260785551Y-91929159D01*
X260785549Y-91929156D01*
X260695843Y-91839450D01*
X260695840Y-91839448D01*
X260582806Y-91781854D01*
X260582802Y-91781853D01*
X260457502Y-91762008D01*
X260457498Y-91762008D01*
X260332197Y-91781853D01*
X260332193Y-91781854D01*
X260219159Y-91839448D01*
X260219156Y-91839450D01*
X260129450Y-91929156D01*
X260129448Y-91929159D01*
X260071854Y-92042193D01*
X260071853Y-92042197D01*
X260052008Y-92167497D01*
X255337992Y-92167497D01*
X255335679Y-92152897D01*
X255318146Y-92042197D01*
X255318145Y-92042193D01*
X255260551Y-91929159D01*
X255260549Y-91929156D01*
X255170843Y-91839450D01*
X255170840Y-91839448D01*
X255057806Y-91781854D01*
X255057802Y-91781853D01*
X254932502Y-91762008D01*
X254932498Y-91762008D01*
X254807197Y-91781853D01*
X254807193Y-91781854D01*
X254694159Y-91839448D01*
X254694156Y-91839450D01*
X254604450Y-91929156D01*
X254604448Y-91929159D01*
X254546854Y-92042193D01*
X254546853Y-92042197D01*
X254527008Y-92167497D01*
X254067992Y-92167497D01*
X254065679Y-92152897D01*
X254048146Y-92042197D01*
X254048145Y-92042193D01*
X253990551Y-91929159D01*
X253990549Y-91929156D01*
X253900843Y-91839450D01*
X253900840Y-91839448D01*
X253787806Y-91781854D01*
X253787802Y-91781853D01*
X253662502Y-91762008D01*
X253662498Y-91762008D01*
X253537197Y-91781853D01*
X253537193Y-91781854D01*
X253424159Y-91839448D01*
X253424156Y-91839450D01*
X253334450Y-91929156D01*
X253334448Y-91929159D01*
X253276854Y-92042193D01*
X253276853Y-92042197D01*
X253257008Y-92167497D01*
X248537992Y-92167497D01*
X248535679Y-92152897D01*
X248518146Y-92042197D01*
X248518145Y-92042193D01*
X248460551Y-91929159D01*
X248460549Y-91929156D01*
X248370843Y-91839450D01*
X248370840Y-91839448D01*
X248257806Y-91781854D01*
X248257802Y-91781853D01*
X248132502Y-91762008D01*
X248132498Y-91762008D01*
X248007197Y-91781853D01*
X248007193Y-91781854D01*
X247894159Y-91839448D01*
X247894156Y-91839450D01*
X247804450Y-91929156D01*
X247804448Y-91929159D01*
X247746854Y-92042193D01*
X247746853Y-92042197D01*
X247727008Y-92167497D01*
X247267992Y-92167497D01*
X247265679Y-92152897D01*
X247248146Y-92042197D01*
X247248145Y-92042193D01*
X247190551Y-91929159D01*
X247190549Y-91929156D01*
X247100843Y-91839450D01*
X247100840Y-91839448D01*
X246987806Y-91781854D01*
X246987802Y-91781853D01*
X246862502Y-91762008D01*
X246862498Y-91762008D01*
X246737197Y-91781853D01*
X246737193Y-91781854D01*
X246624159Y-91839448D01*
X246624156Y-91839450D01*
X246534450Y-91929156D01*
X246534448Y-91929159D01*
X246476854Y-92042193D01*
X246476853Y-92042197D01*
X246457008Y-92167497D01*
X231867999Y-92167497D01*
X231867999Y-90924999D01*
X235947008Y-90924999D01*
X235947008Y-90925004D01*
X235966853Y-91050304D01*
X235966854Y-91050308D01*
X236024448Y-91163342D01*
X236024450Y-91163345D01*
X236114156Y-91253051D01*
X236114159Y-91253053D01*
X236227193Y-91310647D01*
X236227195Y-91310647D01*
X236227196Y-91310648D01*
X236268964Y-91317263D01*
X236352498Y-91330494D01*
X236352500Y-91330494D01*
X236352502Y-91330494D01*
X236415152Y-91320571D01*
X236477804Y-91310648D01*
X236590842Y-91253052D01*
X236680550Y-91163344D01*
X236738146Y-91050306D01*
X236748069Y-90987654D01*
X236757992Y-90925004D01*
X236757992Y-90924999D01*
X236738146Y-90799699D01*
X236738145Y-90799695D01*
X236680551Y-90686661D01*
X236680549Y-90686658D01*
X236590843Y-90596952D01*
X236590840Y-90596950D01*
X236477806Y-90539356D01*
X236477802Y-90539355D01*
X236352502Y-90519510D01*
X236352498Y-90519510D01*
X236227197Y-90539355D01*
X236227193Y-90539356D01*
X236114159Y-90596950D01*
X236114156Y-90596952D01*
X236024450Y-90686658D01*
X236024448Y-90686661D01*
X235966854Y-90799695D01*
X235966853Y-90799699D01*
X235947008Y-90924999D01*
X231867999Y-90924999D01*
X231867999Y-89674999D01*
X233097008Y-89674999D01*
X233097008Y-89675004D01*
X233116853Y-89800304D01*
X233116854Y-89800308D01*
X233174448Y-89913342D01*
X233174450Y-89913345D01*
X233264156Y-90003051D01*
X233264159Y-90003053D01*
X233377193Y-90060647D01*
X233377195Y-90060647D01*
X233377196Y-90060648D01*
X233418964Y-90067263D01*
X233502498Y-90080494D01*
X233502500Y-90080494D01*
X233502502Y-90080494D01*
X233565152Y-90070571D01*
X233627804Y-90060648D01*
X233740842Y-90003052D01*
X233830550Y-89913344D01*
X233888146Y-89800306D01*
X233898069Y-89737654D01*
X233907992Y-89675004D01*
X233907992Y-89674999D01*
X233888146Y-89549699D01*
X233888145Y-89549695D01*
X233830551Y-89436661D01*
X233830549Y-89436658D01*
X233740843Y-89346952D01*
X233740840Y-89346950D01*
X233627806Y-89289356D01*
X233627802Y-89289355D01*
X233502502Y-89269510D01*
X233502498Y-89269510D01*
X233377197Y-89289355D01*
X233377193Y-89289356D01*
X233264159Y-89346950D01*
X233264156Y-89346952D01*
X233174450Y-89436658D01*
X233174448Y-89436661D01*
X233116854Y-89549695D01*
X233116853Y-89549699D01*
X233097008Y-89674999D01*
X231867999Y-89674999D01*
X231867999Y-89248498D01*
X231863256Y-89209159D01*
X231854329Y-89172679D01*
X231849278Y-89155931D01*
X231805378Y-89089995D01*
X231765535Y-89053488D01*
X231765530Y-89053485D01*
X231762994Y-89051161D01*
X231763052Y-89051096D01*
X231759732Y-89048183D01*
X231241139Y-88529590D01*
X231218301Y-88480614D01*
X231218000Y-88473729D01*
X231218000Y-87607722D01*
X231217842Y-87600516D01*
X231217842Y-87600496D01*
X231217541Y-87593611D01*
X231202193Y-87530895D01*
X231179355Y-87481919D01*
X231179352Y-87481916D01*
X231179352Y-87481914D01*
X231146391Y-87434841D01*
X231146382Y-87434831D01*
X230709945Y-86998394D01*
X230687107Y-86949418D01*
X230701093Y-86897220D01*
X230745359Y-86866225D01*
X230753448Y-86864506D01*
X230767446Y-86862288D01*
X230777804Y-86860648D01*
X230890842Y-86803052D01*
X230980550Y-86713344D01*
X231038146Y-86600306D01*
X231051759Y-86514354D01*
X231057992Y-86475004D01*
X231057992Y-86474999D01*
X231038146Y-86349699D01*
X231038145Y-86349695D01*
X230980551Y-86236661D01*
X230980549Y-86236658D01*
X230890843Y-86146952D01*
X230890840Y-86146950D01*
X230777806Y-86089356D01*
X230777802Y-86089355D01*
X230652502Y-86069510D01*
X230652498Y-86069510D01*
X230527197Y-86089355D01*
X230527193Y-86089356D01*
X230414159Y-86146950D01*
X230414156Y-86146952D01*
X230324450Y-86236658D01*
X230324448Y-86236661D01*
X230266854Y-86349695D01*
X230266853Y-86349699D01*
X230247008Y-86474999D01*
X230247008Y-86475004D01*
X230266853Y-86600304D01*
X230266853Y-86600305D01*
X230325108Y-86714635D01*
X230331694Y-86768272D01*
X230302263Y-86813593D01*
X230254719Y-86829501D01*
X229335220Y-86829501D01*
X229328014Y-86829658D01*
X229321108Y-86829960D01*
X229258391Y-86845308D01*
X229258388Y-86845309D01*
X229209412Y-86868148D01*
X229162339Y-86901109D01*
X229162329Y-86901118D01*
X228458644Y-87604803D01*
X228453635Y-87610034D01*
X228448974Y-87615119D01*
X228415464Y-87670334D01*
X228396980Y-87721118D01*
X228387000Y-87777718D01*
X228387000Y-90100501D01*
X228368518Y-90151281D01*
X228321718Y-90178301D01*
X228308000Y-90179501D01*
X225864922Y-90179501D01*
X225814142Y-90161019D01*
X225787122Y-90114219D01*
X225788614Y-90080054D01*
X225793814Y-90060647D01*
X225813000Y-89989045D01*
X225813000Y-89880959D01*
X225785025Y-89776555D01*
X225730982Y-89682949D01*
X225730981Y-89682948D01*
X225730980Y-89682946D01*
X225654555Y-89606521D01*
X225560948Y-89552477D01*
X225560946Y-89552476D01*
X225456543Y-89524502D01*
X224548457Y-89524502D01*
X224548456Y-89524502D01*
X224444053Y-89552476D01*
X224444051Y-89552477D01*
X224350444Y-89606521D01*
X224274019Y-89682946D01*
X224219975Y-89776553D01*
X224219974Y-89776555D01*
X224192000Y-89880958D01*
X224192000Y-89989045D01*
X224219974Y-90093448D01*
X224219975Y-90093450D01*
X224274019Y-90187057D01*
X224350444Y-90263482D01*
X224441844Y-90316252D01*
X224444053Y-90317527D01*
X224548457Y-90345502D01*
X224548459Y-90345502D01*
X225277224Y-90345502D01*
X225328004Y-90363984D01*
X225355024Y-90410784D01*
X225345640Y-90464002D01*
X225333088Y-90480359D01*
X224972085Y-90841363D01*
X224923110Y-90864201D01*
X224916225Y-90864502D01*
X219421905Y-90864502D01*
X219421628Y-90864519D01*
X219345554Y-90864519D01*
X219076520Y-90894829D01*
X219076519Y-90894829D01*
X218812575Y-90955070D01*
X218812564Y-90955073D01*
X218557018Y-91044489D01*
X218313090Y-91161956D01*
X218083842Y-91305999D01*
X217872170Y-91474799D01*
X217814661Y-91532306D01*
X204740605Y-104606362D01*
X204691629Y-104629200D01*
X204684744Y-104629501D01*
X193823773Y-104629501D01*
X193772993Y-104611019D01*
X193767912Y-104606362D01*
X193541139Y-104379589D01*
X193518301Y-104330613D01*
X193518000Y-104323728D01*
X193518000Y-102634998D01*
X204652008Y-102634998D01*
X204652008Y-102635003D01*
X204671853Y-102760303D01*
X204671854Y-102760307D01*
X204729448Y-102873341D01*
X204729450Y-102873344D01*
X204819156Y-102963050D01*
X204819159Y-102963052D01*
X204932193Y-103020646D01*
X204932195Y-103020646D01*
X204932196Y-103020647D01*
X204973964Y-103027262D01*
X205057498Y-103040493D01*
X205057500Y-103040493D01*
X205057502Y-103040493D01*
X205120152Y-103030570D01*
X205182804Y-103020647D01*
X205295842Y-102963051D01*
X205385550Y-102873343D01*
X205443146Y-102760305D01*
X205462992Y-102635001D01*
X205443146Y-102509697D01*
X205443145Y-102509696D01*
X205443145Y-102509694D01*
X205385551Y-102396660D01*
X205385549Y-102396657D01*
X205295843Y-102306951D01*
X205295840Y-102306949D01*
X205182806Y-102249355D01*
X205182802Y-102249354D01*
X205057502Y-102229509D01*
X205057498Y-102229509D01*
X204932197Y-102249354D01*
X204932193Y-102249355D01*
X204819159Y-102306949D01*
X204819156Y-102306951D01*
X204729450Y-102396657D01*
X204729448Y-102396660D01*
X204671854Y-102509694D01*
X204671853Y-102509698D01*
X204652008Y-102634998D01*
X193518000Y-102634998D01*
X193518000Y-102076273D01*
X193536482Y-102025493D01*
X193541139Y-102020412D01*
X194196553Y-101364998D01*
X196447008Y-101364998D01*
X196447008Y-101365003D01*
X196466853Y-101490303D01*
X196466854Y-101490307D01*
X196524448Y-101603341D01*
X196524450Y-101603344D01*
X196614156Y-101693050D01*
X196614159Y-101693052D01*
X196727193Y-101750646D01*
X196727195Y-101750646D01*
X196727196Y-101750647D01*
X196768964Y-101757262D01*
X196852498Y-101770493D01*
X196852500Y-101770493D01*
X196852502Y-101770493D01*
X196915152Y-101760570D01*
X196977804Y-101750647D01*
X197090842Y-101693051D01*
X197180550Y-101603343D01*
X197238146Y-101490305D01*
X197252424Y-101400155D01*
X197257992Y-101365003D01*
X197257992Y-101364998D01*
X200747008Y-101364998D01*
X200747008Y-101365003D01*
X200766853Y-101490303D01*
X200766854Y-101490307D01*
X200824448Y-101603341D01*
X200824450Y-101603344D01*
X200914156Y-101693050D01*
X200914159Y-101693052D01*
X201027193Y-101750646D01*
X201027195Y-101750646D01*
X201027196Y-101750647D01*
X201068964Y-101757262D01*
X201152498Y-101770493D01*
X201152500Y-101770493D01*
X201152502Y-101770493D01*
X201215152Y-101760570D01*
X201277804Y-101750647D01*
X201390842Y-101693051D01*
X201480550Y-101603343D01*
X201538146Y-101490305D01*
X201552424Y-101400155D01*
X201557992Y-101365003D01*
X201557992Y-101364998D01*
X201538359Y-101241040D01*
X201538146Y-101239697D01*
X201538145Y-101239696D01*
X201538145Y-101239694D01*
X201480551Y-101126660D01*
X201480549Y-101126657D01*
X201390843Y-101036951D01*
X201390840Y-101036949D01*
X201277806Y-100979355D01*
X201277802Y-100979354D01*
X201152502Y-100959509D01*
X201152498Y-100959509D01*
X201027197Y-100979354D01*
X201027193Y-100979355D01*
X200914159Y-101036949D01*
X200914156Y-101036951D01*
X200824450Y-101126657D01*
X200824448Y-101126660D01*
X200766854Y-101239694D01*
X200766853Y-101239698D01*
X200747008Y-101364998D01*
X197257992Y-101364998D01*
X197238359Y-101241040D01*
X197238146Y-101239697D01*
X197238145Y-101239696D01*
X197238145Y-101239694D01*
X197180551Y-101126660D01*
X197180549Y-101126657D01*
X197090843Y-101036951D01*
X197090840Y-101036949D01*
X196977806Y-100979355D01*
X196977802Y-100979354D01*
X196852502Y-100959509D01*
X196852498Y-100959509D01*
X196727197Y-100979354D01*
X196727193Y-100979355D01*
X196614159Y-101036949D01*
X196614156Y-101036951D01*
X196524450Y-101126657D01*
X196524448Y-101126660D01*
X196466854Y-101239694D01*
X196466853Y-101239698D01*
X196447008Y-101364998D01*
X194196553Y-101364998D01*
X196446355Y-99115197D01*
X196446355Y-99115196D01*
X196446387Y-99115165D01*
X196451367Y-99109964D01*
X196456024Y-99104883D01*
X196489538Y-99049661D01*
X196508020Y-98998881D01*
X196518000Y-98942278D01*
X196518000Y-97326273D01*
X196536482Y-97275493D01*
X196541139Y-97270412D01*
X201096355Y-92715197D01*
X201096355Y-92715196D01*
X201096387Y-92715165D01*
X201101367Y-92709964D01*
X201106024Y-92704883D01*
X201139538Y-92649661D01*
X201158020Y-92598881D01*
X201168000Y-92542278D01*
X201168000Y-91699998D01*
X206247008Y-91699998D01*
X206247008Y-91700003D01*
X206266853Y-91825303D01*
X206266854Y-91825307D01*
X206324448Y-91938341D01*
X206324450Y-91938344D01*
X206414156Y-92028050D01*
X206414159Y-92028052D01*
X206527193Y-92085646D01*
X206527195Y-92085646D01*
X206527196Y-92085647D01*
X206568964Y-92092262D01*
X206652498Y-92105493D01*
X206652500Y-92105493D01*
X206652502Y-92105493D01*
X206715152Y-92095570D01*
X206777804Y-92085647D01*
X206802339Y-92073146D01*
X206890840Y-92028052D01*
X206890843Y-92028050D01*
X206980549Y-91938344D01*
X206980551Y-91938341D01*
X206985230Y-91929159D01*
X207038146Y-91825305D01*
X207051868Y-91738665D01*
X207057992Y-91700003D01*
X207057992Y-91699998D01*
X207038146Y-91574698D01*
X207038145Y-91574694D01*
X206980551Y-91461660D01*
X206980549Y-91461657D01*
X206890843Y-91371951D01*
X206890840Y-91371949D01*
X206777806Y-91314355D01*
X206777802Y-91314354D01*
X206652502Y-91294509D01*
X206652498Y-91294509D01*
X206527197Y-91314354D01*
X206527193Y-91314355D01*
X206414159Y-91371949D01*
X206414156Y-91371951D01*
X206324450Y-91461657D01*
X206324448Y-91461660D01*
X206266854Y-91574694D01*
X206266853Y-91574698D01*
X206247008Y-91699998D01*
X201168000Y-91699998D01*
X201168000Y-91107723D01*
X201167842Y-91100495D01*
X201167541Y-91093610D01*
X201152193Y-91030894D01*
X201129355Y-90981918D01*
X201129352Y-90981915D01*
X201129352Y-90981913D01*
X201096391Y-90934840D01*
X201096382Y-90934830D01*
X200382697Y-90221145D01*
X200382659Y-90221109D01*
X200377464Y-90216134D01*
X200372383Y-90211477D01*
X200372381Y-90211475D01*
X200317166Y-90177965D01*
X200266382Y-90159481D01*
X200209782Y-90149501D01*
X200209778Y-90149501D01*
X197320222Y-90149501D01*
X197320220Y-90149501D01*
X197313014Y-90149658D01*
X197306108Y-90149960D01*
X197243391Y-90165308D01*
X197243388Y-90165309D01*
X197194412Y-90188148D01*
X197147339Y-90221109D01*
X197147329Y-90221118D01*
X195808644Y-91559803D01*
X195803635Y-91565034D01*
X195798974Y-91570119D01*
X195765464Y-91625334D01*
X195746980Y-91676118D01*
X195737000Y-91732718D01*
X195737000Y-91955501D01*
X195718518Y-92006281D01*
X195671718Y-92033301D01*
X195658000Y-92034501D01*
X195260472Y-92034501D01*
X195209692Y-92016019D01*
X195182672Y-91969219D01*
X195190082Y-91919636D01*
X195206092Y-91888213D01*
X195238146Y-91825305D01*
X195238146Y-91825303D01*
X195238147Y-91825302D01*
X195257992Y-91700003D01*
X195257992Y-91699998D01*
X195238146Y-91574698D01*
X195238145Y-91574694D01*
X195180551Y-91461660D01*
X195180549Y-91461657D01*
X195090843Y-91371951D01*
X195090840Y-91371949D01*
X194977806Y-91314355D01*
X194977802Y-91314354D01*
X194852502Y-91294509D01*
X194852498Y-91294509D01*
X194727197Y-91314354D01*
X194727193Y-91314355D01*
X194614159Y-91371949D01*
X194614156Y-91371951D01*
X194524450Y-91461657D01*
X194524448Y-91461660D01*
X194466854Y-91574694D01*
X194466853Y-91574698D01*
X194447008Y-91699998D01*
X194447008Y-91700003D01*
X194466852Y-91825302D01*
X194514918Y-91919636D01*
X194521503Y-91973272D01*
X194492071Y-92018593D01*
X194444528Y-92034501D01*
X193835220Y-92034501D01*
X193828014Y-92034658D01*
X193821108Y-92034960D01*
X193758391Y-92050308D01*
X193758388Y-92050309D01*
X193709412Y-92073148D01*
X193662339Y-92106109D01*
X193662329Y-92106118D01*
X193258644Y-92509803D01*
X193253635Y-92515034D01*
X193248974Y-92520119D01*
X193215464Y-92575334D01*
X193196980Y-92626118D01*
X193187000Y-92682718D01*
X193187000Y-100858725D01*
X193168518Y-100909505D01*
X193163861Y-100914586D01*
X192242085Y-101836362D01*
X192193109Y-101859200D01*
X192186224Y-101859501D01*
X188235220Y-101859501D01*
X188228014Y-101859658D01*
X188221108Y-101859960D01*
X188158391Y-101875308D01*
X188158388Y-101875309D01*
X188109412Y-101898148D01*
X188062339Y-101931109D01*
X188062329Y-101931118D01*
X186908644Y-103084803D01*
X186903635Y-103090034D01*
X186898974Y-103095119D01*
X186865464Y-103150334D01*
X186846980Y-103201118D01*
X186837000Y-103257718D01*
X182785168Y-103257718D01*
X182832161Y-103102801D01*
X182832162Y-103102797D01*
X182852628Y-102894999D01*
X182832162Y-102687200D01*
X182832161Y-102687196D01*
X182771553Y-102487397D01*
X182771551Y-102487394D01*
X182673119Y-102303242D01*
X182591655Y-102203978D01*
X182194935Y-102600698D01*
X182187599Y-102587992D01*
X182094507Y-102494900D01*
X182081798Y-102487562D01*
X182478519Y-102090842D01*
X182379256Y-102009379D01*
X182195104Y-101910947D01*
X182195101Y-101910945D01*
X181995302Y-101850337D01*
X181995298Y-101850336D01*
X181787500Y-101829870D01*
X181579701Y-101850336D01*
X181579697Y-101850337D01*
X181379898Y-101910945D01*
X181379895Y-101910947D01*
X181195742Y-102009379D01*
X181096480Y-102090841D01*
X181096479Y-102090842D01*
X181493200Y-102487563D01*
X181480493Y-102494900D01*
X181387401Y-102587992D01*
X181380064Y-102600699D01*
X180983343Y-102203978D01*
X180983342Y-102203979D01*
X180901880Y-102303241D01*
X180803448Y-102487394D01*
X180803446Y-102487397D01*
X180742838Y-102687196D01*
X180742837Y-102687200D01*
X180722371Y-102894999D01*
X180488000Y-102894999D01*
X180488000Y-100355000D01*
X180721869Y-100355000D01*
X180742345Y-100562898D01*
X180802981Y-100762790D01*
X180802984Y-100762796D01*
X180802985Y-100762799D01*
X180802986Y-100762800D01*
X180901460Y-100947034D01*
X181033984Y-101108515D01*
X181195465Y-101241039D01*
X181195467Y-101241040D01*
X181379701Y-101339515D01*
X181379706Y-101339516D01*
X181379709Y-101339518D01*
X181579601Y-101400154D01*
X181579603Y-101400154D01*
X181579606Y-101400155D01*
X181787500Y-101420631D01*
X181995394Y-101400155D01*
X181995396Y-101400154D01*
X181995398Y-101400154D01*
X182195290Y-101339518D01*
X182195291Y-101339517D01*
X182195299Y-101339515D01*
X182379533Y-101241040D01*
X182541015Y-101108515D01*
X182673540Y-100947033D01*
X182772015Y-100762799D01*
X182832655Y-100562894D01*
X182853131Y-100355000D01*
X182832655Y-100147106D01*
X182832654Y-100147103D01*
X182832654Y-100147101D01*
X182817140Y-100095957D01*
X185677000Y-100095957D01*
X185677000Y-100204044D01*
X185704974Y-100308447D01*
X185704975Y-100308449D01*
X185759019Y-100402056D01*
X185835444Y-100478481D01*
X185835446Y-100478482D01*
X185835447Y-100478483D01*
X185929053Y-100532526D01*
X186033457Y-100560501D01*
X186033459Y-100560501D01*
X187041541Y-100560501D01*
X187041543Y-100560501D01*
X187145947Y-100532526D01*
X187239553Y-100478483D01*
X187315982Y-100402054D01*
X187370025Y-100308448D01*
X187398000Y-100204044D01*
X187398000Y-100095958D01*
X187370025Y-99991554D01*
X187315982Y-99897948D01*
X187315981Y-99897947D01*
X187315980Y-99897945D01*
X187239555Y-99821520D01*
X187145948Y-99767476D01*
X187145946Y-99767475D01*
X187041543Y-99739501D01*
X186033457Y-99739501D01*
X186033456Y-99739501D01*
X185929053Y-99767475D01*
X185929051Y-99767476D01*
X185835444Y-99821520D01*
X185759019Y-99897945D01*
X185704975Y-99991552D01*
X185704974Y-99991554D01*
X185677000Y-100095957D01*
X182817140Y-100095957D01*
X182772018Y-99947209D01*
X182772016Y-99947206D01*
X182772015Y-99947201D01*
X182673540Y-99762967D01*
X182673539Y-99762965D01*
X182541015Y-99601484D01*
X182379534Y-99468960D01*
X182281059Y-99416324D01*
X182195299Y-99370485D01*
X182195296Y-99370484D01*
X182195290Y-99370481D01*
X181995398Y-99309845D01*
X181787500Y-99289369D01*
X181579601Y-99309845D01*
X181379709Y-99370481D01*
X181379699Y-99370486D01*
X181195465Y-99468960D01*
X181033984Y-99601484D01*
X180901460Y-99762965D01*
X180802986Y-99947199D01*
X180802981Y-99947209D01*
X180742345Y-100147101D01*
X180721869Y-100355000D01*
X180488000Y-100355000D01*
X180488000Y-97815000D01*
X180721869Y-97815000D01*
X180742345Y-98022898D01*
X180802981Y-98222790D01*
X180802984Y-98222796D01*
X180802985Y-98222799D01*
X180802986Y-98222800D01*
X180901460Y-98407034D01*
X181033984Y-98568515D01*
X181195465Y-98701039D01*
X181195467Y-98701040D01*
X181379701Y-98799515D01*
X181379706Y-98799516D01*
X181379709Y-98799518D01*
X181579601Y-98860154D01*
X181579603Y-98860154D01*
X181579606Y-98860155D01*
X181787500Y-98880631D01*
X181995394Y-98860155D01*
X181995396Y-98860154D01*
X181995398Y-98860154D01*
X182195290Y-98799518D01*
X182195291Y-98799517D01*
X182195299Y-98799515D01*
X182379533Y-98701040D01*
X182541015Y-98568515D01*
X182673540Y-98407033D01*
X182772015Y-98222799D01*
X182780471Y-98194925D01*
X182832654Y-98022898D01*
X182832654Y-98022896D01*
X182832655Y-98022894D01*
X182853131Y-97815000D01*
X182832655Y-97607106D01*
X182832654Y-97607103D01*
X182832654Y-97607101D01*
X182772018Y-97407209D01*
X182772016Y-97407206D01*
X182772015Y-97407201D01*
X182673540Y-97222967D01*
X182673539Y-97222965D01*
X182541015Y-97061484D01*
X182379534Y-96928960D01*
X182281059Y-96876324D01*
X182195299Y-96830485D01*
X182195296Y-96830484D01*
X182195290Y-96830481D01*
X181995398Y-96769845D01*
X181787500Y-96749369D01*
X181579601Y-96769845D01*
X181379709Y-96830481D01*
X181379699Y-96830486D01*
X181195465Y-96928960D01*
X181033984Y-97061484D01*
X180901460Y-97222965D01*
X180802986Y-97407199D01*
X180802981Y-97407209D01*
X180742345Y-97607101D01*
X180721869Y-97815000D01*
X180488000Y-97815000D01*
X180488000Y-95275000D01*
X180722371Y-95275000D01*
X180742837Y-95482798D01*
X180742838Y-95482802D01*
X180803446Y-95682601D01*
X180803448Y-95682604D01*
X180901880Y-95866756D01*
X180983343Y-95966019D01*
X181380063Y-95569298D01*
X181387401Y-95582007D01*
X181480493Y-95675099D01*
X181493199Y-95682435D01*
X181096479Y-96079155D01*
X181195743Y-96160619D01*
X181379895Y-96259051D01*
X181379898Y-96259053D01*
X181579697Y-96319661D01*
X181579701Y-96319662D01*
X181787500Y-96340128D01*
X181995298Y-96319662D01*
X181995302Y-96319661D01*
X182195101Y-96259053D01*
X182195104Y-96259051D01*
X182379260Y-96160617D01*
X182478518Y-96079157D01*
X182478519Y-96079155D01*
X182081799Y-95682435D01*
X182094507Y-95675099D01*
X182187599Y-95582007D01*
X182194935Y-95569299D01*
X182591655Y-95966019D01*
X182591657Y-95966018D01*
X182673117Y-95866760D01*
X182771551Y-95682604D01*
X182771553Y-95682601D01*
X182832161Y-95482802D01*
X182832162Y-95482798D01*
X182852628Y-95275000D01*
X182832162Y-95067201D01*
X182832161Y-95067197D01*
X182771553Y-94867398D01*
X182771551Y-94867395D01*
X182673119Y-94683243D01*
X182591655Y-94583979D01*
X182194935Y-94980699D01*
X182187599Y-94967993D01*
X182094507Y-94874901D01*
X182081798Y-94867563D01*
X182478519Y-94470843D01*
X182379256Y-94389380D01*
X182195104Y-94290948D01*
X182195101Y-94290946D01*
X181995302Y-94230338D01*
X181995298Y-94230337D01*
X181787500Y-94209871D01*
X181579701Y-94230337D01*
X181579697Y-94230338D01*
X181379898Y-94290946D01*
X181379895Y-94290948D01*
X181195742Y-94389380D01*
X181096480Y-94470842D01*
X181096479Y-94470843D01*
X181493200Y-94867564D01*
X181480493Y-94874901D01*
X181387401Y-94967993D01*
X181380064Y-94980700D01*
X180983343Y-94583979D01*
X180983342Y-94583980D01*
X180901880Y-94683242D01*
X180803448Y-94867395D01*
X180803446Y-94867398D01*
X180742838Y-95067197D01*
X180742837Y-95067201D01*
X180722371Y-95275000D01*
X180488000Y-95275000D01*
X180488000Y-92223350D01*
X180727000Y-92223350D01*
X180727000Y-93246650D01*
X180729724Y-93281261D01*
X180729725Y-93281265D01*
X180772756Y-93429383D01*
X180851277Y-93562154D01*
X180851279Y-93562157D01*
X180960342Y-93671220D01*
X180960345Y-93671222D01*
X180960346Y-93671223D01*
X181083177Y-93743865D01*
X181093116Y-93749743D01*
X181142488Y-93764086D01*
X181241238Y-93792776D01*
X181275850Y-93795500D01*
X181275858Y-93795500D01*
X182299142Y-93795500D01*
X182299150Y-93795500D01*
X182333762Y-93792776D01*
X182481886Y-93749742D01*
X182614654Y-93671223D01*
X182723723Y-93562154D01*
X182802242Y-93429386D01*
X182845276Y-93281262D01*
X182848000Y-93246650D01*
X182848000Y-92223350D01*
X182845276Y-92188738D01*
X182811694Y-92073148D01*
X182802243Y-92040616D01*
X182798720Y-92034659D01*
X182723723Y-91907846D01*
X182723722Y-91907845D01*
X182723720Y-91907842D01*
X182614657Y-91798779D01*
X182614654Y-91798777D01*
X182481883Y-91720256D01*
X182412152Y-91699998D01*
X188747008Y-91699998D01*
X188747008Y-91700003D01*
X188766853Y-91825303D01*
X188766854Y-91825307D01*
X188824448Y-91938341D01*
X188824450Y-91938344D01*
X188914156Y-92028050D01*
X188914159Y-92028052D01*
X189027193Y-92085646D01*
X189027195Y-92085646D01*
X189027196Y-92085647D01*
X189068964Y-92092262D01*
X189152498Y-92105493D01*
X189152500Y-92105493D01*
X189152502Y-92105493D01*
X189215152Y-92095570D01*
X189277804Y-92085647D01*
X189302339Y-92073146D01*
X189390840Y-92028052D01*
X189390843Y-92028050D01*
X189480549Y-91938344D01*
X189480551Y-91938341D01*
X189485230Y-91929159D01*
X189538146Y-91825305D01*
X189551868Y-91738665D01*
X189557992Y-91700003D01*
X189557992Y-91699998D01*
X189538146Y-91574698D01*
X189538145Y-91574694D01*
X189480551Y-91461660D01*
X189480549Y-91461657D01*
X189390843Y-91371951D01*
X189390840Y-91371949D01*
X189277806Y-91314355D01*
X189277802Y-91314354D01*
X189152502Y-91294509D01*
X189152498Y-91294509D01*
X189027197Y-91314354D01*
X189027193Y-91314355D01*
X188914159Y-91371949D01*
X188914156Y-91371951D01*
X188824450Y-91461657D01*
X188824448Y-91461660D01*
X188766854Y-91574694D01*
X188766853Y-91574698D01*
X188747008Y-91699998D01*
X182412152Y-91699998D01*
X182333765Y-91677225D01*
X182333768Y-91677225D01*
X182333762Y-91677224D01*
X182299150Y-91674500D01*
X181275850Y-91674500D01*
X181241238Y-91677224D01*
X181241234Y-91677225D01*
X181093116Y-91720256D01*
X180960345Y-91798777D01*
X180960342Y-91798779D01*
X180851279Y-91907842D01*
X180851277Y-91907845D01*
X180772756Y-92040616D01*
X180729725Y-92188734D01*
X180729724Y-92188738D01*
X180727000Y-92223350D01*
X180488000Y-92223350D01*
X180488000Y-90195000D01*
X180721869Y-90195000D01*
X180742345Y-90402898D01*
X180802981Y-90602790D01*
X180802984Y-90602796D01*
X180802985Y-90602799D01*
X180802986Y-90602800D01*
X180901460Y-90787034D01*
X181033984Y-90948515D01*
X181195465Y-91081039D01*
X181195467Y-91081040D01*
X181379701Y-91179515D01*
X181379706Y-91179516D01*
X181379709Y-91179518D01*
X181579601Y-91240154D01*
X181579603Y-91240154D01*
X181579606Y-91240155D01*
X181787500Y-91260631D01*
X181995394Y-91240155D01*
X181995396Y-91240154D01*
X181995398Y-91240154D01*
X182195290Y-91179518D01*
X182195291Y-91179517D01*
X182195299Y-91179515D01*
X182379533Y-91081040D01*
X182541015Y-90948515D01*
X182673540Y-90787033D01*
X182772015Y-90602799D01*
X182773790Y-90596950D01*
X182832654Y-90402898D01*
X182832654Y-90402896D01*
X182832655Y-90402894D01*
X182853131Y-90195000D01*
X182832655Y-89987106D01*
X182832654Y-89987103D01*
X182832654Y-89987101D01*
X182772018Y-89787209D01*
X182772016Y-89787206D01*
X182772015Y-89787201D01*
X182673540Y-89602967D01*
X182673539Y-89602965D01*
X182541015Y-89441484D01*
X182379534Y-89308960D01*
X182266413Y-89248496D01*
X182195299Y-89210485D01*
X182195296Y-89210484D01*
X182195290Y-89210481D01*
X181995398Y-89149845D01*
X181787500Y-89129369D01*
X181579601Y-89149845D01*
X181379709Y-89210481D01*
X181379699Y-89210486D01*
X181195465Y-89308960D01*
X181033984Y-89441484D01*
X180901460Y-89602965D01*
X180802986Y-89787199D01*
X180802981Y-89787209D01*
X180742345Y-89987101D01*
X180721869Y-90195000D01*
X180488000Y-90195000D01*
X180488000Y-86899998D01*
X194447008Y-86899998D01*
X194447008Y-86900003D01*
X194466853Y-87025303D01*
X194466854Y-87025307D01*
X194524448Y-87138341D01*
X194524450Y-87138344D01*
X194614156Y-87228050D01*
X194614159Y-87228052D01*
X194727193Y-87285646D01*
X194727195Y-87285646D01*
X194727196Y-87285647D01*
X194768964Y-87292262D01*
X194852498Y-87305493D01*
X194852500Y-87305493D01*
X194852502Y-87305493D01*
X194915152Y-87295570D01*
X194977804Y-87285647D01*
X195090842Y-87228051D01*
X195180550Y-87138343D01*
X195238146Y-87025305D01*
X195257992Y-86900001D01*
X195257992Y-86899998D01*
X206247008Y-86899998D01*
X206247008Y-86900003D01*
X206266853Y-87025303D01*
X206266854Y-87025307D01*
X206324448Y-87138341D01*
X206324450Y-87138344D01*
X206414156Y-87228050D01*
X206414159Y-87228052D01*
X206527193Y-87285646D01*
X206527195Y-87285646D01*
X206527196Y-87285647D01*
X206568964Y-87292262D01*
X206652498Y-87305493D01*
X206652500Y-87305493D01*
X206652502Y-87305493D01*
X206715152Y-87295570D01*
X206777804Y-87285647D01*
X206890842Y-87228051D01*
X206980550Y-87138343D01*
X207038146Y-87025305D01*
X207057992Y-86900001D01*
X207054902Y-86880494D01*
X207038146Y-86774698D01*
X207038145Y-86774694D01*
X206980551Y-86661660D01*
X206980549Y-86661657D01*
X206890843Y-86571951D01*
X206890840Y-86571949D01*
X206777806Y-86514355D01*
X206777802Y-86514354D01*
X206652502Y-86494509D01*
X206652498Y-86494509D01*
X206527197Y-86514354D01*
X206527193Y-86514355D01*
X206414159Y-86571949D01*
X206414156Y-86571951D01*
X206324450Y-86661657D01*
X206324448Y-86661660D01*
X206266854Y-86774694D01*
X206266853Y-86774698D01*
X206247008Y-86899998D01*
X195257992Y-86899998D01*
X195254902Y-86880494D01*
X195238146Y-86774698D01*
X195238145Y-86774694D01*
X195180551Y-86661660D01*
X195180549Y-86661657D01*
X195090843Y-86571951D01*
X195090840Y-86571949D01*
X194977806Y-86514355D01*
X194977802Y-86514354D01*
X194852502Y-86494509D01*
X194852498Y-86494509D01*
X194727197Y-86514354D01*
X194727193Y-86514355D01*
X194614159Y-86571949D01*
X194614156Y-86571951D01*
X194524450Y-86661657D01*
X194524448Y-86661660D01*
X194466854Y-86774694D01*
X194466853Y-86774698D01*
X194447008Y-86899998D01*
X180488000Y-86899998D01*
X180488000Y-85737222D01*
X180506482Y-85686442D01*
X180511139Y-85681361D01*
X181114361Y-85078139D01*
X181163337Y-85055301D01*
X181170222Y-85055000D01*
X239351462Y-85055000D01*
X239402242Y-85073482D01*
G37*
%TD.AperFunction*%
%TD*%
%TA.AperFunction,Conductor*%
%TO.N,CHASSIS*%
G36*
X219003176Y-21974684D02*
G01*
X219023818Y-21991318D01*
X223687500Y-26655000D01*
X230493500Y-26655000D01*
X230560539Y-26674685D01*
X230606294Y-26727489D01*
X230617500Y-26779000D01*
X230617500Y-30731000D01*
X230597815Y-30798039D01*
X230545011Y-30843794D01*
X230493500Y-30855000D01*
X227638862Y-30855000D01*
X227571823Y-30835315D01*
X227551181Y-30818681D01*
X225887500Y-29155000D01*
X184637500Y-29155000D01*
X184637499Y-29155000D01*
X182223819Y-31568681D01*
X182162496Y-31602166D01*
X182136138Y-31605000D01*
X181388862Y-31605000D01*
X181321823Y-31585315D01*
X181301181Y-31568681D01*
X180524319Y-30791819D01*
X180490834Y-30730496D01*
X180488000Y-30704138D01*
X180488000Y-27705862D01*
X180507685Y-27638823D01*
X180524319Y-27618181D01*
X181301181Y-26841319D01*
X181362504Y-26807834D01*
X181388862Y-26805000D01*
X183237500Y-26805000D01*
X188051182Y-21991318D01*
X188112505Y-21957833D01*
X188138863Y-21954999D01*
X218936137Y-21954999D01*
X219003176Y-21974684D01*
G37*
%TD.AperFunction*%
%TD*%
M02*
