%TF.GenerationSoftware,KiCad,Pcbnew,8.0.8*%
%TF.CreationDate,2025-01-19T23:13:15+07:00*%
%TF.ProjectId,HW.ACIM-INV,48572e41-4349-44d2-9d49-4e562e6b6963,0.1*%
%TF.SameCoordinates,Original*%
%TF.FileFunction,Soldermask,Bot*%
%TF.FilePolarity,Negative*%
%FSLAX46Y46*%
G04 Gerber Fmt 4.6, Leading zero omitted, Abs format (unit mm)*
G04 Created by KiCad (PCBNEW 8.0.8) date 2025-01-19 23:13:15*
%MOMM*%
%LPD*%
G01*
G04 APERTURE LIST*
G04 Aperture macros list*
%AMRoundRect*
0 Rectangle with rounded corners*
0 $1 Rounding radius*
0 $2 $3 $4 $5 $6 $7 $8 $9 X,Y pos of 4 corners*
0 Add a 4 corners polygon primitive as box body*
4,1,4,$2,$3,$4,$5,$6,$7,$8,$9,$2,$3,0*
0 Add four circle primitives for the rounded corners*
1,1,$1+$1,$2,$3*
1,1,$1+$1,$4,$5*
1,1,$1+$1,$6,$7*
1,1,$1+$1,$8,$9*
0 Add four rect primitives between the rounded corners*
20,1,$1+$1,$2,$3,$4,$5,0*
20,1,$1+$1,$4,$5,$6,$7,0*
20,1,$1+$1,$6,$7,$8,$9,0*
20,1,$1+$1,$8,$9,$2,$3,0*%
G04 Aperture macros list end*
%ADD10C,1.200000*%
%ADD11RoundRect,0.450000X0.450000X-0.450000X0.450000X0.450000X-0.450000X0.450000X-0.450000X-0.450000X0*%
%ADD12C,1.800000*%
%ADD13R,2.500000X3.000000*%
%ADD14C,1.500000*%
%ADD15RoundRect,0.250000X0.650000X0.650000X-0.650000X0.650000X-0.650000X-0.650000X0.650000X-0.650000X0*%
%ADD16C,4.200000*%
%ADD17R,3.500000X3.500000*%
%ADD18C,3.500000*%
%ADD19RoundRect,0.250000X-0.650000X0.650000X-0.650000X-0.650000X0.650000X-0.650000X0.650000X0.650000X0*%
%ADD20C,3.200000*%
%ADD21RoundRect,0.625000X-0.625000X-0.625000X0.625000X-0.625000X0.625000X0.625000X-0.625000X0.625000X0*%
%ADD22C,2.500000*%
%ADD23C,2.000000*%
G04 APERTURE END LIST*
D10*
X180916624Y-33935876D02*
X184947500Y-29905000D01*
X197152901Y-70344600D02*
X183162922Y-84334579D01*
X245137500Y-47101534D02*
X245137500Y-48851534D01*
X245137500Y-47101534D02*
X246487500Y-45751534D01*
X227595491Y-39977009D02*
X210930342Y-56642158D01*
X277487500Y-45751534D02*
X246487500Y-45751534D01*
X213040349Y-42857849D02*
X209637500Y-39455000D01*
X249983990Y-63863511D02*
X239512922Y-74334579D01*
X245137500Y-48851534D02*
X249987500Y-53701534D01*
X255297500Y-28005000D02*
X258297500Y-28005000D01*
X225597500Y-29905000D02*
X235144776Y-39452276D01*
X183858257Y-51451194D02*
X183858257Y-44768145D01*
X249987500Y-53701534D02*
X249983990Y-63863511D01*
X269393950Y-31001450D02*
X266393950Y-31001450D01*
X180941306Y-43851194D02*
X182941306Y-43851194D01*
X185537500Y-39455000D02*
X209637500Y-39455000D01*
X184947500Y-29905000D02*
X225597500Y-29905000D01*
X183729411Y-41263089D02*
X185537500Y-39455000D01*
X255297500Y-31005000D02*
X258297500Y-31005000D01*
X183858257Y-44768145D02*
X182941306Y-43851194D01*
X244207500Y-28005000D02*
X247207500Y-28005000D01*
X235247521Y-39977009D02*
X227595491Y-39977009D01*
X269393947Y-26008553D02*
X239207500Y-26005000D01*
X180833990Y-84334579D02*
X183162922Y-84334579D01*
X239512922Y-84334579D02*
X239512922Y-74334579D01*
X257395491Y-39977009D02*
X244019476Y-39977009D01*
X213040349Y-42857849D02*
X224687500Y-42857849D01*
D11*
%TO.C,J16*%
X181787500Y-50825001D03*
D12*
X181787500Y-48285000D03*
X181787500Y-45745000D03*
X181787500Y-40665001D03*
X181787500Y-38124999D03*
X181787500Y-35585000D03*
X181787500Y-30505000D03*
X181787500Y-27964999D03*
%TD*%
D11*
%TO.C,J15*%
X181787500Y-92735000D03*
D12*
X181787500Y-90195000D03*
X181787500Y-82574999D03*
X181787500Y-80035000D03*
X181787500Y-77495000D03*
X181787500Y-74955000D03*
%TD*%
D11*
%TO.C,J14*%
X181787500Y-113055000D03*
D12*
X181787500Y-110515000D03*
X181787500Y-107975000D03*
X181787500Y-105435001D03*
X181787500Y-102894999D03*
X181787500Y-100355000D03*
X181787500Y-97815000D03*
X181787500Y-95275000D03*
%TD*%
D13*
%TO.C,J5*%
X234657500Y-23755000D03*
X229577500Y-23755000D03*
%TD*%
D14*
%TO.C,C50*%
X229537500Y-36955000D03*
X229537500Y-51955000D03*
%TD*%
%TO.C,M6*%
X251797500Y-28005000D03*
X256797500Y-29505000D03*
%TD*%
D13*
%TO.C,J3*%
X256837500Y-23755000D03*
X251757500Y-23755000D03*
%TD*%
D15*
%TO.C,J1*%
X267787500Y-113314999D03*
D12*
X267787500Y-115855001D03*
X265247500Y-113315000D03*
X265247500Y-115855000D03*
X262707500Y-113315000D03*
X262707500Y-115855000D03*
X260167500Y-113315000D03*
X260167500Y-115855000D03*
X257627500Y-113315000D03*
X257627500Y-115855000D03*
X255087500Y-113314999D03*
X255087500Y-115855001D03*
%TD*%
D16*
%TO.C,SH5*%
X275772299Y-58646856D03*
%TD*%
D17*
%TO.C,C9*%
X203237500Y-34455000D03*
D18*
X203237500Y-44455000D03*
%TD*%
D16*
%TO.C,SH8*%
X242522702Y-58646855D03*
%TD*%
D14*
%TO.C,M5*%
X240707500Y-28005000D03*
X245707500Y-29505000D03*
%TD*%
D16*
%TO.C,SH1*%
X182437501Y-117254999D03*
%TD*%
%TO.C,SH6*%
X224937503Y-23754999D03*
%TD*%
%TO.C,SH4*%
X182437501Y-23755001D03*
%TD*%
D19*
%TO.C,C88*%
X214537500Y-40705001D03*
D12*
X214537500Y-48204999D03*
%TD*%
D14*
%TO.C,M7*%
X262897500Y-28005000D03*
X267897500Y-29505000D03*
%TD*%
D16*
%TO.C,SH7*%
X229187500Y-111005000D03*
%TD*%
%TO.C,SH3*%
X275937501Y-23754999D03*
%TD*%
%TO.C,SH9*%
X182437500Y-70505000D03*
%TD*%
%TO.C,SH2*%
X275937500Y-117254998D03*
%TD*%
D13*
%TO.C,J4*%
X262857500Y-23755000D03*
X267937500Y-23755000D03*
%TD*%
%TO.C,J2*%
X245747500Y-23755000D03*
X240667500Y-23755000D03*
%TD*%
D20*
%TO.C,U7*%
X242697500Y-47955000D03*
D21*
X244097500Y-76655000D03*
D22*
X246097500Y-73755000D03*
X249497500Y-76655000D03*
X251097500Y-73755000D03*
X254497500Y-76655000D03*
X256097500Y-73755000D03*
D23*
X259497500Y-76655000D03*
X261097500Y-73755000D03*
X262697500Y-76655000D03*
X264297500Y-73755001D03*
X265897500Y-76655000D03*
X267497500Y-73755000D03*
X269097500Y-76655000D03*
X270697500Y-73755000D03*
X272297500Y-76655000D03*
X274297500Y-73755000D03*
D22*
X275597500Y-47955000D03*
X270897500Y-47955000D03*
X266197500Y-47955000D03*
X261497500Y-47955000D03*
X256797500Y-47955000D03*
X252097500Y-47955000D03*
X247397500Y-47955000D03*
%TD*%
M02*
