%TF.GenerationSoftware,KiCad,Pcbnew,9.0.2*%
%TF.CreationDate,2025-06-19T22:40:26+07:00*%
%TF.ProjectId,HW.ACIM-MCU-ADAP,48572e41-4349-44d2-9d4d-43552d414441,0.1*%
%TF.SameCoordinates,Original*%
%TF.FileFunction,Soldermask,Bot*%
%TF.FilePolarity,Negative*%
%FSLAX46Y46*%
G04 Gerber Fmt 4.6, Leading zero omitted, Abs format (unit mm)*
G04 Created by KiCad (PCBNEW 9.0.2) date 2025-06-19 22:40:26*
%MOMM*%
%LPD*%
G01*
G04 APERTURE LIST*
G04 Aperture macros list*
%AMRoundRect*
0 Rectangle with rounded corners*
0 $1 Rounding radius*
0 $2 $3 $4 $5 $6 $7 $8 $9 X,Y pos of 4 corners*
0 Add a 4 corners polygon primitive as box body*
4,1,4,$2,$3,$4,$5,$6,$7,$8,$9,$2,$3,0*
0 Add four circle primitives for the rounded corners*
1,1,$1+$1,$2,$3*
1,1,$1+$1,$4,$5*
1,1,$1+$1,$6,$7*
1,1,$1+$1,$8,$9*
0 Add four rect primitives between the rounded corners*
20,1,$1+$1,$2,$3,$4,$5,0*
20,1,$1+$1,$4,$5,$6,$7,0*
20,1,$1+$1,$6,$7,$8,$9,0*
20,1,$1+$1,$8,$9,$2,$3,0*%
G04 Aperture macros list end*
%ADD10C,0.700000*%
%ADD11RoundRect,0.450000X-0.450000X-0.450000X0.450000X-0.450000X0.450000X0.450000X-0.450000X0.450000X0*%
%ADD12RoundRect,0.225000X-0.525000X-0.675000X0.525000X-0.675000X0.525000X0.675000X-0.525000X0.675000X0*%
%ADD13C,5.000000*%
%ADD14C,4.200000*%
%ADD15C,1.600000*%
%ADD16R,2.700000X0.760000*%
G04 APERTURE END LIST*
D10*
X214737500Y-56105000D02*
X214737500Y-82805000D01*
X215337500Y-83405000D02*
X231437500Y-83405000D01*
X215337500Y-83405000D02*
G75*
G02*
X214737500Y-82805000I0J600000D01*
G01*
D11*
%TO.C,MD1*%
X210927500Y-81905000D03*
D12*
X213467499Y-81905000D03*
X216007501Y-81905000D03*
X218547500Y-81905000D03*
%TD*%
D13*
%TO.C,SH5*%
X275772299Y-58646856D03*
%TD*%
%TO.C,SH8*%
X242522702Y-58646855D03*
%TD*%
D14*
%TO.C,SH7*%
X229187500Y-111005000D03*
%TD*%
D15*
%TO.C,J3*%
X261497500Y-47955000D03*
%TD*%
D16*
%TO.C,J102*%
X222852500Y-106445002D03*
X227152500Y-106445002D03*
X222852500Y-105175002D03*
X227152500Y-105175002D03*
X222852499Y-103905002D03*
X227152501Y-103905002D03*
X222852500Y-102635002D03*
X227152500Y-102635002D03*
X222852500Y-101365002D03*
X227152500Y-101365002D03*
X222852500Y-98825002D03*
X222852499Y-97555002D03*
X227152501Y-97555002D03*
X222852500Y-96285002D03*
X227152500Y-96285002D03*
X222852500Y-95015002D03*
X227152500Y-95015002D03*
X227152500Y-92475002D03*
X227152501Y-91205002D03*
X222852500Y-89935002D03*
X227152500Y-89935002D03*
X222852500Y-88665002D03*
X227152500Y-88665002D03*
%TD*%
D15*
%TO.C,J2*%
X256797500Y-47955000D03*
%TD*%
%TO.C,J1*%
X252097500Y-47955000D03*
%TD*%
D16*
%TO.C,J101*%
X198852500Y-106445001D03*
X203152500Y-106445001D03*
X198852500Y-105175001D03*
X203152500Y-105175001D03*
X198852499Y-103905001D03*
X203152501Y-103905001D03*
X198852500Y-102635001D03*
X203152500Y-102635001D03*
X198852500Y-101365001D03*
X203152500Y-101365001D03*
X198852500Y-92475001D03*
X198852499Y-91205001D03*
X198852500Y-89935001D03*
X203152500Y-89935001D03*
X198852500Y-88665001D03*
X203152500Y-88665001D03*
%TD*%
D15*
%TO.C,J4*%
X275597500Y-47955000D03*
%TD*%
M02*
