%TF.GenerationSoftware,KiCad,Pcbnew,8.0.2*%
%TF.CreationDate,2024-05-14T20:48:34+07:00*%
%TF.ProjectId,HW.ACIM-INV,48572e41-4349-44d2-9d49-4e562e6b6963,0.0*%
%TF.SameCoordinates,Original*%
%TF.FileFunction,Plated,1,4,PTH,Drill*%
%TF.FilePolarity,Positive*%
%FSLAX46Y46*%
G04 Gerber Fmt 4.6, Leading zero omitted, Abs format (unit mm)*
G04 Created by KiCad (PCBNEW 8.0.2) date 2024-05-14 20:48:34*
%MOMM*%
%LPD*%
G01*
G04 APERTURE LIST*
%TA.AperFunction,ViaDrill*%
%ADD10C,0.300000*%
%TD*%
%TA.AperFunction,ViaDrill*%
%ADD11C,0.400000*%
%TD*%
%TA.AperFunction,ComponentDrill*%
%ADD12C,0.700000*%
%TD*%
%TA.AperFunction,ComponentDrill*%
%ADD13C,0.800000*%
%TD*%
%TA.AperFunction,ComponentDrill*%
%ADD14C,0.900000*%
%TD*%
%TA.AperFunction,ComponentDrill*%
%ADD15C,1.000000*%
%TD*%
%TA.AperFunction,ComponentDrill*%
%ADD16C,1.200000*%
%TD*%
%TA.AperFunction,ComponentDrill*%
%ADD17C,1.700000*%
%TD*%
G04 APERTURE END LIST*
D10*
X98725000Y-43750100D03*
X98725000Y-48750100D03*
X98725000Y-53750100D03*
X98725000Y-58750100D03*
X98725000Y-63750100D03*
X98725000Y-68750100D03*
X98725000Y-73750100D03*
X98725000Y-78750100D03*
X98725000Y-83750100D03*
X98725000Y-88750100D03*
X98725000Y-93750100D03*
X98725000Y-98750100D03*
X98725000Y-103750100D03*
X98725000Y-108750100D03*
X98725000Y-113750100D03*
X98725000Y-118750100D03*
X98725000Y-123750100D03*
X103325000Y-129350100D03*
X104725000Y-101750100D03*
X104725000Y-106750100D03*
X104818700Y-122845100D03*
X105825000Y-131850100D03*
X106218700Y-118045100D03*
X106218700Y-121245100D03*
X107118700Y-127345100D03*
X107750000Y-85775200D03*
X107775000Y-73725000D03*
X107775000Y-81425000D03*
X107818700Y-128745100D03*
X108518700Y-126145100D03*
X109843700Y-112775100D03*
X109843700Y-114375100D03*
X110293700Y-123850100D03*
X110725000Y-104750100D03*
X110725000Y-109750100D03*
X110800000Y-86650200D03*
X110800000Y-87550200D03*
X110800000Y-88450200D03*
X110800000Y-94450200D03*
X110800000Y-99650200D03*
X110918700Y-118045100D03*
X110918700Y-120545100D03*
X112318700Y-122845100D03*
X112515000Y-44535000D03*
X112543700Y-112475100D03*
X112543700Y-115975100D03*
X112565000Y-48685000D03*
X112618700Y-128645100D03*
X113368700Y-119975100D03*
X113968700Y-112475100D03*
X114018700Y-106525100D03*
X114018700Y-108050100D03*
X114268700Y-111475100D03*
X114268700Y-117975100D03*
X114268700Y-118975100D03*
X114650000Y-88675200D03*
X115618700Y-103825100D03*
X115618700Y-106525100D03*
X115618700Y-108050100D03*
X116268700Y-123900100D03*
X116300000Y-89450200D03*
X116868700Y-111975100D03*
X116868700Y-114475100D03*
X117018700Y-122025100D03*
X117218700Y-103825100D03*
X117218700Y-106525100D03*
X117218700Y-108050100D03*
X117768700Y-116625100D03*
X117868700Y-123900100D03*
X118225000Y-73775000D03*
X118225000Y-81475000D03*
X118250000Y-88025200D03*
X118250000Y-90625200D03*
X118818700Y-103825100D03*
X119268700Y-116625100D03*
X119518700Y-110750100D03*
X119518700Y-111950100D03*
X120418700Y-103825100D03*
X120418700Y-106525100D03*
X120668700Y-127050100D03*
X121018700Y-122025100D03*
X121518700Y-119675100D03*
X122018700Y-102400100D03*
X122018700Y-103825100D03*
X122018700Y-106525100D03*
X122518700Y-118925100D03*
X123018700Y-111950100D03*
X123018700Y-117925100D03*
X123518700Y-118925100D03*
X123618700Y-103825100D03*
X123618700Y-106525100D03*
X124018700Y-122025100D03*
X124168700Y-127050100D03*
X124968700Y-112475100D03*
X125218700Y-103825100D03*
X125218700Y-106525100D03*
X125518700Y-108425100D03*
X125668700Y-111975100D03*
X125668700Y-116625100D03*
X126118700Y-110445100D03*
X126818700Y-103825100D03*
X126818700Y-106525100D03*
X126825000Y-73825000D03*
X126825000Y-81425000D03*
X126825000Y-89875000D03*
X126825000Y-97275000D03*
X126918700Y-123850100D03*
X127818700Y-127050100D03*
X127868700Y-110675100D03*
X129968700Y-110175100D03*
X129968700Y-114975100D03*
X130418700Y-103225100D03*
X130418700Y-119450100D03*
X131318700Y-107675100D03*
X132018700Y-103825100D03*
X132168700Y-117275100D03*
X132168700Y-120375100D03*
X132668700Y-110175100D03*
X132718700Y-113600100D03*
X132718700Y-118950100D03*
X133168700Y-123450100D03*
X133618700Y-102350100D03*
X133618700Y-103825100D03*
X134818700Y-109375100D03*
X134818700Y-113050100D03*
X134818700Y-115050100D03*
X134818700Y-116250100D03*
X134818700Y-118250100D03*
X134818700Y-119450100D03*
X134818700Y-121450100D03*
X135018700Y-125250100D03*
X135218700Y-103825100D03*
X136365000Y-56285000D03*
X136568700Y-110325100D03*
X136972811Y-87025715D03*
X137718700Y-125250100D03*
X137975000Y-86000000D03*
X138418700Y-103825100D03*
X139825000Y-113650100D03*
X140025000Y-86250000D03*
X140561100Y-120450100D03*
X140625000Y-89875000D03*
X140625000Y-92575000D03*
X141061100Y-129050100D03*
X141465000Y-56285000D03*
X143225000Y-86725000D03*
X144425000Y-77450000D03*
X144825000Y-113650100D03*
X145425000Y-76450000D03*
X145425000Y-77450000D03*
X145425000Y-86975000D03*
X145475000Y-92575000D03*
X145561100Y-120450100D03*
X146061100Y-129050100D03*
X146315000Y-56285000D03*
X146425000Y-77450000D03*
X149325000Y-72060000D03*
X149325000Y-74760000D03*
X149825000Y-113650100D03*
X150561100Y-120450100D03*
X150925000Y-72060000D03*
X151061100Y-129050100D03*
X151425000Y-92575000D03*
X151475000Y-97275000D03*
X151637500Y-44530000D03*
X152625000Y-86975000D03*
X152675715Y-88077189D03*
X154825000Y-113650100D03*
X155225000Y-86975000D03*
X155561100Y-120450100D03*
X156061100Y-129050100D03*
X156425000Y-89875000D03*
X156425000Y-92575000D03*
X156637500Y-44530000D03*
X156825000Y-86975000D03*
X157225000Y-72060000D03*
X158825000Y-72060000D03*
X158825000Y-74760000D03*
X159025000Y-85225000D03*
X159825000Y-113650100D03*
X160425000Y-72060000D03*
X160561100Y-120450100D03*
X161061100Y-129050100D03*
X161225000Y-86975000D03*
X161637500Y-44530000D03*
X162725000Y-92575000D03*
X162725000Y-97275000D03*
X164825000Y-113650100D03*
X165561100Y-120450100D03*
X165825000Y-111950000D03*
X166425000Y-86975000D03*
X166637500Y-44530000D03*
X166725000Y-72060000D03*
X167425000Y-111950000D03*
X167625000Y-89875000D03*
X167625000Y-92575000D03*
X168025000Y-86975000D03*
X168325000Y-72060000D03*
X168325000Y-74760000D03*
X169025000Y-111950000D03*
X169925000Y-72060000D03*
X170225000Y-85175000D03*
X170561100Y-120450100D03*
X170625000Y-111950000D03*
X170725000Y-92575000D03*
X171637500Y-44530000D03*
X172225000Y-111950000D03*
X172225000Y-114650000D03*
X172337500Y-99155000D03*
X173575000Y-84775000D03*
X173825000Y-92575000D03*
X173825000Y-111950000D03*
X173825000Y-114675000D03*
X173837500Y-99155000D03*
X173837500Y-99155000D03*
X174625000Y-116075000D03*
X175337500Y-99155000D03*
X175425000Y-111950000D03*
X175425000Y-114650000D03*
X175561100Y-120450100D03*
X176225000Y-83650000D03*
X177025000Y-111950000D03*
X177425000Y-86575100D03*
X177425000Y-89275000D03*
X177475000Y-92575000D03*
X177825000Y-83650000D03*
X178625000Y-111950000D03*
X180561100Y-120450100D03*
X181237500Y-99155000D03*
X182225000Y-83650000D03*
X182737500Y-99155000D03*
X184237500Y-99155000D03*
X185462500Y-65955000D03*
X186415000Y-78185000D03*
X186487500Y-83855000D03*
X186487500Y-89255000D03*
X186487500Y-94655000D03*
X186487500Y-100055000D03*
X187587500Y-85555000D03*
X189112500Y-101755000D03*
X189112500Y-107155000D03*
X189687500Y-105505000D03*
X189687500Y-110905000D03*
X190137500Y-65155000D03*
X190162500Y-59555000D03*
X190162500Y-63255000D03*
X191612500Y-100755000D03*
X191612500Y-106155000D03*
X191637500Y-54680000D03*
X191637500Y-59530000D03*
X191637500Y-66955000D03*
X191637500Y-71955000D03*
X191637500Y-76955000D03*
X191637500Y-84255000D03*
X191637500Y-89255000D03*
X191637500Y-94255000D03*
X191637500Y-124255000D03*
D11*
X108900000Y-129805200D03*
X117150000Y-93905200D03*
X120418700Y-102200100D03*
X136225000Y-79350000D03*
X136225000Y-81350000D03*
X138225000Y-79350000D03*
X138225000Y-81350000D03*
X140225000Y-79350000D03*
X142225000Y-79350000D03*
X142225000Y-81350000D03*
X147725000Y-70450100D03*
X152425000Y-68940000D03*
X153625000Y-73790000D03*
X154825000Y-68940000D03*
X155475000Y-76850000D03*
X161925000Y-68940000D03*
X163125000Y-76850000D03*
X164325000Y-68940000D03*
X170625000Y-76850000D03*
X172625000Y-70560000D03*
X172625000Y-72060000D03*
X174125000Y-69060000D03*
X174125000Y-70560000D03*
X174125000Y-72060000D03*
X176312500Y-56305000D03*
X176312500Y-58005000D03*
X176312500Y-59805000D03*
X176312500Y-61505000D03*
X176312500Y-65005000D03*
X176312500Y-66705000D03*
X176312500Y-68405000D03*
X176312500Y-70005000D03*
X177712500Y-56305000D03*
X177712500Y-58005000D03*
X177712500Y-59805000D03*
X177712500Y-66705000D03*
X177712500Y-68405000D03*
X177712500Y-70005000D03*
X179112500Y-56305000D03*
X179112500Y-58005000D03*
X179112500Y-59805000D03*
X179112500Y-61505000D03*
X179112500Y-65005000D03*
X179112500Y-66705000D03*
X179112500Y-68405000D03*
X179112500Y-70005000D03*
X187332000Y-51350000D03*
X188729000Y-45580000D03*
X189999000Y-45580000D03*
X189999000Y-50080000D03*
X189999000Y-52620000D03*
X191269000Y-45580000D03*
D12*
%TO.C,M3*%
X148625000Y-58850000D03*
X153625000Y-60350000D03*
%TO.C,M2*%
X158125000Y-58850000D03*
X163125000Y-60350000D03*
%TO.C,M1*%
X167625000Y-58850000D03*
X172625000Y-60350000D03*
D13*
%TO.C,BZ1*%
X186412500Y-69855000D03*
X186412500Y-76355000D03*
D14*
%TO.C,C75*%
X112450000Y-55678900D03*
X112450000Y-63178900D03*
%TO.C,BT1*%
X184811100Y-112800100D03*
X184811100Y-117300100D03*
%TO.C,SW1*%
X185561100Y-120450100D03*
X185561100Y-125850100D03*
X188061100Y-120450100D03*
X188061100Y-125850100D03*
X190561100Y-120450100D03*
X190561100Y-125850100D03*
%TO.C,BT1*%
X191311100Y-112800100D03*
X191311100Y-117300100D03*
D15*
%TO.C,J1*%
X101450000Y-45398900D03*
X101450000Y-47938900D03*
X101450000Y-53018900D03*
X101450000Y-55558900D03*
X101450000Y-58098900D03*
X101450000Y-63178900D03*
X101450000Y-65718900D03*
X101450000Y-68258900D03*
%TO.C,J4*%
X101450000Y-76415200D03*
X101450000Y-78955200D03*
X101450000Y-86575200D03*
X101450000Y-89115200D03*
X101450000Y-91655200D03*
X101450000Y-94195200D03*
X101450000Y-96735200D03*
X101450000Y-99275200D03*
%TO.C,J5*%
X101450000Y-107431100D03*
X101450000Y-115051100D03*
X101450000Y-117591100D03*
X101450000Y-120131100D03*
X101450000Y-122671100D03*
X101450000Y-125211100D03*
%TO.C,J6*%
X115458700Y-129050100D03*
X117998700Y-129050100D03*
X120538700Y-129050100D03*
X123078700Y-129050100D03*
X125618700Y-129050100D03*
X128158700Y-129050100D03*
X130698700Y-129050100D03*
X133238700Y-129050100D03*
X135778700Y-129050100D03*
X138318700Y-129050100D03*
%TO.C,C1*%
X140225000Y-66350000D03*
X140225000Y-81350000D03*
%TO.C,U1*%
X165825000Y-109050000D03*
%TO.C,J2*%
X166061100Y-129050100D03*
%TO.C,U1*%
X167425000Y-106150000D03*
%TO.C,J2*%
X168601100Y-129050100D03*
%TO.C,U1*%
X169025000Y-109050000D03*
X170625000Y-106150000D03*
%TO.C,J2*%
X171141100Y-129050100D03*
%TO.C,U1*%
X172225000Y-109050000D03*
%TO.C,J2*%
X173681100Y-129050100D03*
%TO.C,U1*%
X173825000Y-106150000D03*
X175425000Y-109050000D03*
%TO.C,J2*%
X176221100Y-129050100D03*
%TO.C,U1*%
X177025000Y-106150000D03*
X178625000Y-109050000D03*
X180625000Y-106150000D03*
%TO.C,J2*%
X183841100Y-129050100D03*
D16*
%TO.C,U1*%
X149025000Y-80350000D03*
X150425000Y-109050000D03*
X152425000Y-106150000D03*
X153725000Y-80350000D03*
X155825000Y-109050000D03*
X157425000Y-106150000D03*
X158425000Y-80350000D03*
X160825000Y-109050000D03*
X162425000Y-106150000D03*
X163125000Y-80350000D03*
X167825000Y-80350000D03*
X172525000Y-80350000D03*
X177225000Y-80350000D03*
X181925000Y-80350000D03*
D17*
%TO.C,J3*%
X153625000Y-51350000D03*
X163125000Y-51350000D03*
X172625000Y-51350000D03*
X182125000Y-51350000D03*
M02*
