%TF.GenerationSoftware,KiCad,Pcbnew,8.0.2*%
%TF.CreationDate,2024-05-14T20:48:52+07:00*%
%TF.ProjectId,HW.ACIM-INV,48572e41-4349-44d2-9d49-4e562e6b6963,0.0*%
%TF.SameCoordinates,Original*%
%TF.FileFunction,Paste,Top*%
%TF.FilePolarity,Positive*%
%FSLAX46Y46*%
G04 Gerber Fmt 4.6, Leading zero omitted, Abs format (unit mm)*
G04 Created by KiCad (PCBNEW 8.0.2) date 2024-05-14 20:48:52*
%MOMM*%
%LPD*%
G01*
G04 APERTURE LIST*
G04 Aperture macros list*
%AMRoundRect*
0 Rectangle with rounded corners*
0 $1 Rounding radius*
0 $2 $3 $4 $5 $6 $7 $8 $9 X,Y pos of 4 corners*
0 Add a 4 corners polygon primitive as box body*
4,1,4,$2,$3,$4,$5,$6,$7,$8,$9,$2,$3,0*
0 Add four circle primitives for the rounded corners*
1,1,$1+$1,$2,$3*
1,1,$1+$1,$4,$5*
1,1,$1+$1,$6,$7*
1,1,$1+$1,$8,$9*
0 Add four rect primitives between the rounded corners*
20,1,$1+$1,$2,$3,$4,$5,0*
20,1,$1+$1,$4,$5,$6,$7,0*
20,1,$1+$1,$6,$7,$8,$9,0*
20,1,$1+$1,$8,$9,$2,$3,0*%
%AMFreePoly0*
4,1,21,1.703536,2.003536,1.705000,2.000000,1.705000,0.750000,1.703536,0.746464,1.700000,0.745000,0.005000,0.745000,0.005000,-0.745000,1.700000,-0.745000,1.703536,-0.746464,1.705000,-0.750000,1.705000,-2.000000,1.703536,-2.003536,1.700000,-2.005000,-1.200000,-2.005000,-1.203536,-2.003536,-1.205000,-2.000000,-1.205000,2.000000,-1.203536,2.003536,-1.200000,2.005000,1.700000,2.005000,
1.703536,2.003536,1.703536,2.003536,$1*%
G04 Aperture macros list end*
%ADD10R,0.650000X1.000000*%
%ADD11C,1.000000*%
%ADD12R,1.000000X0.650000*%
%ADD13R,0.900000X1.700000*%
%ADD14R,1.700000X0.900000*%
%ADD15R,1.000000X3.500000*%
%ADD16R,1.500000X3.400000*%
%ADD17R,1.575000X0.650000*%
%ADD18RoundRect,0.150000X-0.000010X0.200000X-0.000010X-0.200000X0.000010X-0.200000X0.000010X0.200000X0*%
%ADD19R,0.800000X0.800000*%
%ADD20R,0.400000X0.600000*%
%ADD21R,1.500000X0.600000*%
%ADD22R,0.800000X0.900000*%
%ADD23R,1.200000X0.600000*%
%ADD24R,0.700000X0.700000*%
%ADD25RoundRect,0.375000X-1.725000X0.375000X-1.725000X-0.375000X1.725000X-0.375000X1.725000X0.375000X0*%
%ADD26R,0.900000X0.600000*%
%ADD27R,0.500000X0.600000*%
%ADD28R,0.900000X0.800000*%
%ADD29FreePoly0,270.000000*%
%ADD30FreePoly0,90.000000*%
%ADD31R,0.500000X1.200000*%
%ADD32R,2.500000X1.300000*%
%ADD33R,1.100000X0.600000*%
%ADD34R,1.000000X3.000000*%
%ADD35O,0.800000X0.400000*%
%ADD36R,1.600000X2.400000*%
%ADD37R,4.400000X2.200000*%
%ADD38R,1.050000X0.600000*%
%ADD39R,1.400000X1.800000*%
%ADD40R,1.000000X0.900000*%
%ADD41R,1.550000X0.600000*%
%ADD42R,0.600000X0.420000*%
%ADD43R,0.300000X1.500000*%
%ADD44R,1.500000X0.300000*%
%ADD45RoundRect,0.150000X0.000010X0.600000X-0.000010X0.600000X-0.000010X-0.600000X0.000010X-0.600000X0*%
G04 APERTURE END LIST*
D10*
%TO.C,C76*%
X179416100Y-129050100D03*
X180866100Y-129050100D03*
%TD*%
D11*
%TO.C,TP9*%
X177425000Y-89275000D03*
%TD*%
D10*
%TO.C,C79*%
X115375000Y-89450200D03*
X113925000Y-89450200D03*
%TD*%
D12*
%TO.C,R26*%
X155225000Y-82925000D03*
X155225000Y-84375000D03*
%TD*%
%TO.C,C9*%
X140625000Y-90600000D03*
X140625000Y-89150000D03*
%TD*%
%TO.C,C19*%
X161225000Y-90600000D03*
X161225000Y-89150000D03*
%TD*%
%TO.C,R22*%
X173825000Y-113925000D03*
X173825000Y-115375000D03*
%TD*%
D10*
%TO.C,C42*%
X131943700Y-110175100D03*
X133393700Y-110175100D03*
%TD*%
%TO.C,C35*%
X109293700Y-123850100D03*
X107843700Y-123850100D03*
%TD*%
D12*
%TO.C,R34*%
X161525000Y-82925000D03*
X161525000Y-84375000D03*
%TD*%
%TO.C,C27*%
X172425000Y-86250000D03*
X172425000Y-87700000D03*
%TD*%
D13*
%TO.C,R69*%
X149825000Y-63650000D03*
X152825000Y-63650000D03*
%TD*%
D14*
%TO.C,C12*%
X148025000Y-61050000D03*
X148025000Y-64050000D03*
%TD*%
D12*
%TO.C,R35*%
X163125000Y-84375000D03*
X163125000Y-82925000D03*
%TD*%
D15*
%TO.C,J8*%
X138325000Y-45625000D03*
X136325000Y-45625000D03*
X134325000Y-45625000D03*
X132325000Y-45625000D03*
X130325000Y-45625000D03*
X128325000Y-45625000D03*
X126325000Y-45625000D03*
X124325000Y-45625000D03*
D16*
X140675000Y-39875000D03*
X121975000Y-39875000D03*
%TD*%
D10*
%TO.C,C92*%
X130693700Y-114975100D03*
X129243700Y-114975100D03*
%TD*%
D17*
%TO.C,U10*%
X153625000Y-69560000D03*
X153625000Y-68290000D03*
X153625000Y-67020000D03*
X153625000Y-65750000D03*
X148025000Y-65750000D03*
X148025000Y-67020000D03*
X148025000Y-68290000D03*
X148025000Y-69560000D03*
%TD*%
D12*
%TO.C,R70*%
X126818700Y-103100100D03*
X126818700Y-104550100D03*
%TD*%
D18*
%TO.C,FT7*%
X119518700Y-125925100D03*
X119518700Y-127175100D03*
X119018700Y-127175100D03*
X119018700Y-125925100D03*
%TD*%
D12*
%TO.C,R23*%
X173825000Y-112675000D03*
X173825000Y-111225000D03*
%TD*%
D10*
%TO.C,C95*%
X111818700Y-112475100D03*
X113268700Y-112475100D03*
%TD*%
D11*
%TO.C,TP11*%
X112500000Y-42000000D03*
%TD*%
D19*
%TO.C,D6*%
X191637500Y-81955000D03*
X190137500Y-81955000D03*
%TD*%
D12*
%TO.C,R72*%
X123618700Y-103100100D03*
X123618700Y-104550100D03*
%TD*%
D10*
%TO.C,R42*%
X182137500Y-60555000D03*
X180687500Y-60555000D03*
%TD*%
D11*
%TO.C,TP18*%
X177712500Y-58005000D03*
%TD*%
%TO.C,TP20*%
X107725000Y-96730200D03*
%TD*%
D12*
%TO.C,C22*%
X135218700Y-103100100D03*
X135218700Y-104550100D03*
%TD*%
D20*
%TO.C,U15*%
X180675000Y-82700000D03*
X180025000Y-82700000D03*
X179375000Y-82700000D03*
X179375000Y-84600000D03*
X180675000Y-84600000D03*
%TD*%
D12*
%TO.C,R71*%
X125218700Y-103100100D03*
X125218700Y-104550100D03*
%TD*%
D21*
%TO.C,U13*%
X112318700Y-121855100D03*
X112318700Y-120585100D03*
X112318700Y-119315100D03*
X112318700Y-118045100D03*
X104818700Y-118045100D03*
X104818700Y-119315100D03*
X104818700Y-120585100D03*
X104818700Y-121855100D03*
%TD*%
D11*
%TO.C,TP12*%
X173837500Y-92575000D03*
%TD*%
D12*
%TO.C,C46*%
X118818700Y-103100100D03*
X118818700Y-104550100D03*
%TD*%
%TO.C,C25*%
X172425000Y-90600000D03*
X172425000Y-89150000D03*
%TD*%
D22*
%TO.C,D2*%
X151675000Y-88075000D03*
X153575715Y-88077189D03*
X152625000Y-85875000D03*
%TD*%
D12*
%TO.C,C55*%
X114750000Y-91655200D03*
X114750000Y-93105200D03*
%TD*%
D23*
%TO.C,X1*%
X130018700Y-125700100D03*
X136318700Y-125700100D03*
X136318700Y-124800100D03*
X130018700Y-124800100D03*
%TD*%
D10*
%TO.C,FT1*%
X105275000Y-94530200D03*
X103825000Y-94530200D03*
%TD*%
D12*
%TO.C,R17*%
X167425000Y-112675000D03*
X167425000Y-111225000D03*
%TD*%
%TO.C,C33*%
X122018700Y-105800100D03*
X122018700Y-107250100D03*
%TD*%
D19*
%TO.C,D12*%
X191637500Y-87355000D03*
X190137500Y-87355000D03*
%TD*%
%TO.C,D9*%
X190137500Y-62355000D03*
X191637500Y-62355000D03*
%TD*%
D24*
%TO.C,D7*%
X186387500Y-80155000D03*
X188787500Y-80155000D03*
%TD*%
D10*
%TO.C,R111*%
X122093700Y-124950100D03*
X123543700Y-124950100D03*
%TD*%
D12*
%TO.C,C59*%
X116350000Y-91655200D03*
X116350000Y-93105200D03*
%TD*%
%TO.C,C28*%
X168025000Y-86250000D03*
X168025000Y-87700000D03*
%TD*%
D11*
%TO.C,TP3*%
X158825000Y-74750100D03*
%TD*%
D14*
%TO.C,C13*%
X157525000Y-61050000D03*
X157525000Y-64050000D03*
%TD*%
D12*
%TO.C,C52*%
X125218700Y-105800100D03*
X125218700Y-107250100D03*
%TD*%
%TO.C,C66*%
X147725000Y-72785000D03*
X147725000Y-71335000D03*
%TD*%
D11*
%TO.C,TP16*%
X150725000Y-83350000D03*
%TD*%
%TO.C,TP4*%
X168318700Y-74760000D03*
%TD*%
%TO.C,TP15*%
X114725000Y-96730200D03*
%TD*%
D10*
%TO.C,C30*%
X187537500Y-65955000D03*
X186087500Y-65955000D03*
%TD*%
D12*
%TO.C,R39*%
X166425000Y-86250000D03*
X166425000Y-87700000D03*
%TD*%
D10*
%TO.C,R56*%
X188312500Y-107155000D03*
X186862500Y-107155000D03*
%TD*%
D12*
%TO.C,C39*%
X182225000Y-82925000D03*
X182225000Y-84375000D03*
%TD*%
%TO.C,R7*%
X178625000Y-111225000D03*
X178625000Y-112675000D03*
%TD*%
D19*
%TO.C,D8*%
X190137500Y-65955000D03*
X191637500Y-65955000D03*
%TD*%
D25*
%TO.C,G1*%
X189999000Y-46850000D03*
X189999000Y-51350000D03*
%TD*%
D12*
%TO.C,R28*%
X133618700Y-104550100D03*
X133618700Y-103100100D03*
%TD*%
%TO.C,R45*%
X138865000Y-48400000D03*
X138865000Y-49850000D03*
%TD*%
%TO.C,C48*%
X103750000Y-93105200D03*
X103750000Y-91655200D03*
%TD*%
%TO.C,R19*%
X170625000Y-113925000D03*
X170625000Y-115375000D03*
%TD*%
D26*
%TO.C,D10*%
X133918700Y-116250100D03*
D27*
X132218700Y-116250100D03*
X132218700Y-118250100D03*
X134118700Y-118250100D03*
%TD*%
D12*
%TO.C,C67*%
X150925000Y-72785000D03*
X150925000Y-71335000D03*
%TD*%
D28*
%TO.C,Q7*%
X188687500Y-105505000D03*
X188689689Y-103604285D03*
X186487500Y-104555000D03*
%TD*%
D12*
%TO.C,R8*%
X158425000Y-82925000D03*
X158425000Y-84375000D03*
%TD*%
%TO.C,R53*%
X176225000Y-82925000D03*
X176225000Y-84375000D03*
%TD*%
%TO.C,R18*%
X165825000Y-112675000D03*
X165825000Y-111225000D03*
%TD*%
%TO.C,C24*%
X161225000Y-86250000D03*
X161225000Y-87700000D03*
%TD*%
D11*
%TO.C,TP1*%
X179225000Y-115375000D03*
%TD*%
D10*
%TO.C,R41*%
X183387500Y-65955000D03*
X184837500Y-65955000D03*
%TD*%
D12*
%TO.C,C26*%
X167625000Y-90600000D03*
X167625000Y-89150000D03*
%TD*%
D10*
%TO.C,C71*%
X109118700Y-112775100D03*
X110568700Y-112775100D03*
%TD*%
%TO.C,R55*%
X191612500Y-107155000D03*
X190162500Y-107155000D03*
%TD*%
D13*
%TO.C,R63*%
X159325000Y-63650000D03*
X162325000Y-63650000D03*
%TD*%
D12*
%TO.C,C61*%
X166725000Y-72785000D03*
X166725000Y-71335000D03*
%TD*%
D10*
%TO.C,C98*%
X133893700Y-127050100D03*
X132443700Y-127050100D03*
%TD*%
D13*
%TO.C,R30*%
X134718700Y-106475100D03*
X137718700Y-106475100D03*
%TD*%
D12*
%TO.C,C38*%
X177425000Y-87300000D03*
X177425000Y-85850000D03*
%TD*%
D29*
%TO.C,R43*%
X177712500Y-60405000D03*
D30*
X177712500Y-66105000D03*
D31*
X177712500Y-61505000D03*
X177712500Y-65005000D03*
%TD*%
D10*
%TO.C,R2*%
X143950000Y-84375000D03*
X142500000Y-84375000D03*
%TD*%
D12*
%TO.C,R61*%
X128705000Y-48400000D03*
X128705000Y-49850000D03*
%TD*%
D32*
%TO.C,C32*%
X118250000Y-86575200D03*
X118250000Y-89375200D03*
%TD*%
D12*
%TO.C,R50*%
X180625000Y-85850000D03*
X180625000Y-87300000D03*
%TD*%
%TO.C,R10*%
X159625000Y-89150000D03*
X159625000Y-90600000D03*
%TD*%
%TO.C,C93*%
X117868700Y-124625100D03*
X117868700Y-123175100D03*
%TD*%
D10*
%TO.C,R40*%
X182137500Y-65955000D03*
X180687500Y-65955000D03*
%TD*%
%TO.C,C5*%
X157425000Y-103150000D03*
X155975000Y-103150000D03*
%TD*%
D22*
%TO.C,D20*%
X180862500Y-64355000D03*
X182763215Y-64357189D03*
X181812500Y-62155000D03*
%TD*%
D10*
%TO.C,FT3*%
X119475000Y-94530200D03*
X118025000Y-94530200D03*
%TD*%
%TO.C,R20*%
X191612500Y-85555000D03*
X190162500Y-85555000D03*
%TD*%
D12*
%TO.C,R21*%
X172225000Y-113925000D03*
X172225000Y-115375000D03*
%TD*%
%TO.C,C17*%
X175425000Y-111225000D03*
X175425000Y-112675000D03*
%TD*%
D10*
%TO.C,C7*%
X164825000Y-103150000D03*
X163375000Y-103150000D03*
%TD*%
D12*
%TO.C,C20*%
X156425000Y-90600000D03*
X156425000Y-89150000D03*
%TD*%
%TO.C,C44*%
X115618700Y-105800100D03*
X115618700Y-107250100D03*
%TD*%
D10*
%TO.C,R4*%
X141250000Y-84375000D03*
X139800000Y-84375000D03*
%TD*%
D11*
%TO.C,TP2*%
X149325000Y-74760000D03*
%TD*%
D10*
%TO.C,C29*%
X184837500Y-60555000D03*
X183387500Y-60555000D03*
%TD*%
D20*
%TO.C,U2*%
X159675000Y-86025000D03*
X159025000Y-86025000D03*
X158375000Y-86025000D03*
X158375000Y-87925000D03*
X159675000Y-87925000D03*
%TD*%
D12*
%TO.C,R37*%
X164725000Y-82925000D03*
X164725000Y-84375000D03*
%TD*%
D10*
%TO.C,R66*%
X191612500Y-96355000D03*
X190162500Y-96355000D03*
%TD*%
D14*
%TO.C,C14*%
X145425000Y-81350000D03*
X145425000Y-78350000D03*
%TD*%
D33*
%TO.C,U8*%
X111450000Y-93330200D03*
X111450000Y-92380200D03*
X111450000Y-91430200D03*
X108650000Y-91430200D03*
X108650000Y-92380200D03*
X108650000Y-93330200D03*
%TD*%
D12*
%TO.C,R33*%
X155225000Y-86250000D03*
X155225000Y-87700000D03*
%TD*%
%TO.C,C41*%
X145425000Y-86250000D03*
X145425000Y-87700000D03*
%TD*%
%TO.C,C8*%
X145425000Y-90600000D03*
X145425000Y-89150000D03*
%TD*%
D28*
%TO.C,Q3*%
X188687500Y-83905000D03*
X188689689Y-82004285D03*
X186487500Y-82955000D03*
%TD*%
D12*
%TO.C,R62*%
X120418700Y-103100100D03*
X120418700Y-104550100D03*
%TD*%
%TO.C,R49*%
X169425000Y-84375000D03*
X169425000Y-82925000D03*
%TD*%
D32*
%TO.C,C83*%
X104950000Y-86575200D03*
X104950000Y-89375200D03*
%TD*%
D12*
%TO.C,R5*%
X142225000Y-90600000D03*
X142225000Y-89150000D03*
%TD*%
D28*
%TO.C,Q2*%
X188687500Y-110905000D03*
X188689689Y-109004285D03*
X186487500Y-109955000D03*
%TD*%
D12*
%TO.C,R11*%
X177025000Y-113925000D03*
X177025000Y-115375000D03*
%TD*%
D34*
%TO.C,C4*%
X157425000Y-100550000D03*
X157425000Y-95750000D03*
%TD*%
D17*
%TO.C,U9*%
X163125000Y-69560000D03*
X163125000Y-68290000D03*
X163125000Y-67020000D03*
X163125000Y-65750000D03*
X157525000Y-65750000D03*
X157525000Y-67020000D03*
X157525000Y-68290000D03*
X157525000Y-69560000D03*
%TD*%
D26*
%TO.C,D11*%
X133918700Y-113050100D03*
D27*
X132218700Y-113050100D03*
X132218700Y-115050100D03*
X134118700Y-115050100D03*
%TD*%
D26*
%TO.C,D15*%
X133918700Y-119450100D03*
D27*
X132218700Y-119450100D03*
X132218700Y-121450100D03*
X134118700Y-121450100D03*
%TD*%
D35*
%TO.C,U14*%
X109350000Y-86575200D03*
X109350000Y-87225200D03*
X109350000Y-87875200D03*
X109350000Y-88525200D03*
X112250000Y-88525200D03*
X112250000Y-87875200D03*
X112250000Y-87225200D03*
X112250000Y-86575200D03*
D36*
X110800000Y-87550200D03*
%TD*%
D12*
%TO.C,R15*%
X169025000Y-113925000D03*
X169025000Y-115375000D03*
%TD*%
D22*
%TO.C,D4*%
X172675000Y-84750000D03*
X174575715Y-84752189D03*
X173625000Y-82550000D03*
%TD*%
D11*
%TO.C,TP14*%
X118250000Y-84175200D03*
%TD*%
D12*
%TO.C,R52*%
X179025000Y-87300000D03*
X179025000Y-85850000D03*
%TD*%
%TO.C,R54*%
X132018700Y-103100100D03*
X132018700Y-104550100D03*
%TD*%
D10*
%TO.C,C101*%
X123543700Y-123350100D03*
X122093700Y-123350100D03*
%TD*%
%TO.C,C90*%
X129243700Y-110175100D03*
X130693700Y-110175100D03*
%TD*%
%TO.C,C21*%
X129243700Y-108575100D03*
X130693700Y-108575100D03*
%TD*%
%TO.C,R67*%
X188312500Y-101755000D03*
X186862500Y-101755000D03*
%TD*%
%TO.C,R58*%
X188312500Y-85555000D03*
X186862500Y-85555000D03*
%TD*%
D19*
%TO.C,D5*%
X191637500Y-108955000D03*
X190137500Y-108955000D03*
%TD*%
D12*
%TO.C,C56*%
X113850000Y-88025200D03*
X113850000Y-86575200D03*
%TD*%
%TO.C,R25*%
X170625000Y-112675000D03*
X170625000Y-111225000D03*
%TD*%
%TO.C,C74*%
X126165000Y-49850000D03*
X126165000Y-48400000D03*
%TD*%
%TO.C,C15*%
X169925000Y-72785000D03*
X169925000Y-71335000D03*
%TD*%
%TO.C,C77*%
X101450000Y-112056100D03*
X101450000Y-110606100D03*
%TD*%
D10*
%TO.C,R59*%
X191612500Y-64155000D03*
X190162500Y-64155000D03*
%TD*%
D12*
%TO.C,R9*%
X156825000Y-84375000D03*
X156825000Y-82925000D03*
%TD*%
D11*
%TO.C,TP6*%
X140625000Y-92575000D03*
%TD*%
D12*
%TO.C,C37*%
X182225000Y-87300000D03*
X182225000Y-85850000D03*
%TD*%
%TO.C,C49*%
X105350000Y-93105200D03*
X105350000Y-91655200D03*
%TD*%
%TO.C,R51*%
X171025000Y-82925000D03*
X171025000Y-84375000D03*
%TD*%
%TO.C,R38*%
X169225000Y-90600000D03*
X169225000Y-89150000D03*
%TD*%
D11*
%TO.C,TP7*%
X156425000Y-92575000D03*
%TD*%
D19*
%TO.C,D14*%
X191637500Y-98155000D03*
X190137500Y-98155000D03*
%TD*%
D11*
%TO.C,TP19*%
X110818700Y-84175200D03*
%TD*%
D12*
%TO.C,C63*%
X157225000Y-72785000D03*
X157225000Y-71335000D03*
%TD*%
D37*
%TO.C,C16*%
X173837500Y-99155000D03*
X182737500Y-99155000D03*
%TD*%
D12*
%TO.C,C62*%
X168325000Y-72785000D03*
X168325000Y-71335000D03*
%TD*%
%TO.C,R47*%
X122018700Y-103100100D03*
X122018700Y-104550100D03*
%TD*%
%TO.C,C18*%
X175425000Y-113925000D03*
X175425000Y-115375000D03*
%TD*%
D11*
%TO.C,TP17*%
X118025000Y-96730200D03*
%TD*%
D10*
%TO.C,R60*%
X191612500Y-60555000D03*
X190162500Y-60555000D03*
%TD*%
D12*
%TO.C,C68*%
X149325000Y-72785000D03*
X149325000Y-71335000D03*
%TD*%
D10*
%TO.C,C72*%
X109118700Y-115975100D03*
X110568700Y-115975100D03*
%TD*%
D12*
%TO.C,R14*%
X167425000Y-113925000D03*
X167425000Y-115375000D03*
%TD*%
D22*
%TO.C,Q1*%
X128468700Y-105425100D03*
X130369415Y-105427289D03*
X129418700Y-103225100D03*
%TD*%
D12*
%TO.C,C78*%
X107750000Y-88025200D03*
X107750000Y-86575200D03*
%TD*%
D10*
%TO.C,R57*%
X191612500Y-80155000D03*
X190162500Y-80155000D03*
%TD*%
D12*
%TO.C,C43*%
X115618700Y-103100100D03*
X115618700Y-104550100D03*
%TD*%
D11*
%TO.C,TP8*%
X167625000Y-92575000D03*
%TD*%
D17*
%TO.C,U7*%
X172625000Y-69560000D03*
X172625000Y-68290000D03*
X172625000Y-67020000D03*
X172625000Y-65750000D03*
X167025000Y-65750000D03*
X167025000Y-67020000D03*
X167025000Y-68290000D03*
X167025000Y-69560000D03*
%TD*%
D12*
%TO.C,R3*%
X143825000Y-89150000D03*
X143825000Y-90600000D03*
%TD*%
D11*
%TO.C,TP13*%
X107750000Y-84175200D03*
%TD*%
D12*
%TO.C,R31*%
X138418700Y-103100100D03*
X138418700Y-104550100D03*
%TD*%
D34*
%TO.C,C3*%
X150025000Y-100550000D03*
X150025000Y-95750000D03*
%TD*%
D11*
%TO.C,TP10*%
X106500000Y-42000000D03*
%TD*%
D12*
%TO.C,C40*%
X177825000Y-82925000D03*
X177825000Y-84375000D03*
%TD*%
D10*
%TO.C,R6*%
X138550000Y-84375000D03*
X137100000Y-84375000D03*
%TD*%
D12*
%TO.C,C96*%
X120668700Y-124625100D03*
X120668700Y-123175100D03*
%TD*%
D38*
%TO.C,U4*%
X137568700Y-110325100D03*
X137568700Y-109375100D03*
X137568700Y-108425100D03*
X134868700Y-108425100D03*
X134868700Y-110325100D03*
%TD*%
D10*
%TO.C,C100*%
X122093700Y-127050100D03*
X123543700Y-127050100D03*
%TD*%
D12*
%TO.C,C65*%
X158825000Y-72785000D03*
X158825000Y-71335000D03*
%TD*%
D28*
%TO.C,Q4*%
X188687500Y-89305000D03*
X188689689Y-87404285D03*
X186487500Y-88355000D03*
%TD*%
D10*
%TO.C,R110*%
X117018700Y-127050100D03*
X115568700Y-127050100D03*
%TD*%
D12*
%TO.C,C94*%
X118818700Y-105800100D03*
X118818700Y-107250100D03*
%TD*%
D34*
%TO.C,C6*%
X164825000Y-100550000D03*
X164825000Y-95750000D03*
%TD*%
D19*
%TO.C,D13*%
X191637500Y-92755000D03*
X190137500Y-92755000D03*
%TD*%
D13*
%TO.C,R68*%
X168825000Y-63650000D03*
X171825000Y-63650000D03*
%TD*%
D12*
%TO.C,R32*%
X158025000Y-90600000D03*
X158025000Y-89150000D03*
%TD*%
%TO.C,R16*%
X169025000Y-112675000D03*
X169025000Y-111225000D03*
%TD*%
%TO.C,C23*%
X156825000Y-86250000D03*
X156825000Y-87700000D03*
%TD*%
%TO.C,C51*%
X126818700Y-105800100D03*
X126818700Y-107250100D03*
%TD*%
%TO.C,C36*%
X120418700Y-105800100D03*
X120418700Y-107250100D03*
%TD*%
%TO.C,C50*%
X106950000Y-93105200D03*
X106950000Y-91655200D03*
%TD*%
D10*
%TO.C,C34*%
X109293700Y-131050100D03*
X107843700Y-131050100D03*
%TD*%
D12*
%TO.C,R44*%
X133785000Y-48400000D03*
X133785000Y-49850000D03*
%TD*%
D10*
%TO.C,R65*%
X191612500Y-101755000D03*
X190162500Y-101755000D03*
%TD*%
D12*
%TO.C,R46*%
X143945000Y-48400000D03*
X143945000Y-49850000D03*
%TD*%
%TO.C,R36*%
X170825000Y-89150000D03*
X170825000Y-90600000D03*
%TD*%
%TO.C,C54*%
X115450000Y-88025200D03*
X115450000Y-86575200D03*
%TD*%
%TO.C,R1*%
X145425000Y-82925000D03*
X145425000Y-84375000D03*
%TD*%
D10*
%TO.C,C70*%
X109118700Y-114375100D03*
X110568700Y-114375100D03*
%TD*%
D12*
%TO.C,R13*%
X165825000Y-113925000D03*
X165825000Y-115375000D03*
%TD*%
D10*
%TO.C,R64*%
X191612500Y-90955000D03*
X190162500Y-90955000D03*
%TD*%
D12*
%TO.C,C60*%
X123618700Y-105800100D03*
X123618700Y-107250100D03*
%TD*%
D39*
%TO.C,OP1*%
X143945000Y-51825000D03*
X141405000Y-51825000D03*
X138865000Y-51825000D03*
X136325000Y-51825000D03*
X133785000Y-51825000D03*
X131245000Y-51825000D03*
X128705000Y-51825000D03*
X126165000Y-51825000D03*
X126165000Y-60985000D03*
X128705000Y-60985000D03*
X131245000Y-60985000D03*
X133785000Y-60985000D03*
X136325000Y-60985000D03*
X138865000Y-60985000D03*
X141405000Y-60985000D03*
X143945000Y-60985000D03*
%TD*%
D12*
%TO.C,C64*%
X160425000Y-72785000D03*
X160425000Y-71335000D03*
%TD*%
D10*
%TO.C,C31*%
X187537500Y-60555000D03*
X186087500Y-60555000D03*
%TD*%
D40*
%TO.C,U6*%
X126918700Y-127050100D03*
X126918700Y-124950100D03*
X125018700Y-124950100D03*
X125018700Y-127050100D03*
%TD*%
D11*
%TO.C,TP5*%
X181225000Y-68060000D03*
%TD*%
D28*
%TO.C,Q5*%
X188687500Y-94705000D03*
X188689689Y-92804285D03*
X186487500Y-93755000D03*
%TD*%
D10*
%TO.C,FT6*%
X130693700Y-111775100D03*
X129243700Y-111775100D03*
%TD*%
D28*
%TO.C,Q6*%
X188687500Y-100105000D03*
X188689689Y-98204285D03*
X186487500Y-99155000D03*
%TD*%
D12*
%TO.C,FT2*%
X135225000Y-67800000D03*
X135225000Y-66350000D03*
%TD*%
%TO.C,C57*%
X119550000Y-91655200D03*
X119550000Y-93105200D03*
%TD*%
%TO.C,C97*%
X116268700Y-124625100D03*
X116268700Y-123175100D03*
%TD*%
D41*
%TO.C,U11*%
X111268700Y-129355100D03*
X111268700Y-128085100D03*
X111264877Y-126821502D03*
X111268700Y-125545100D03*
X105868700Y-125545100D03*
X105868700Y-126815100D03*
X105868700Y-128085100D03*
X105868700Y-129355100D03*
%TD*%
D42*
%TO.C,U3*%
X187462500Y-63905000D03*
X187462500Y-63255000D03*
X187462500Y-62605000D03*
X185562500Y-62605000D03*
X185562500Y-63255000D03*
X185562500Y-63905000D03*
%TD*%
D22*
%TO.C,D3*%
X162875000Y-88075000D03*
X164775715Y-88077189D03*
X163825000Y-85875000D03*
%TD*%
D19*
%TO.C,D16*%
X191637500Y-103555000D03*
X190137500Y-103555000D03*
%TD*%
D12*
%TO.C,R48*%
X167825000Y-82925000D03*
X167825000Y-84375000D03*
%TD*%
D28*
%TO.C,D1*%
X136975000Y-86025000D03*
X136972811Y-87925715D03*
X139175000Y-86975000D03*
%TD*%
D14*
%TO.C,C11*%
X167025000Y-64050000D03*
X167025000Y-61050000D03*
%TD*%
D12*
%TO.C,R29*%
X136818700Y-104550100D03*
X136818700Y-103100100D03*
%TD*%
%TO.C,C69*%
X117218700Y-103100100D03*
X117218700Y-104550100D03*
%TD*%
%TO.C,R24*%
X172225000Y-112675000D03*
X172225000Y-111225000D03*
%TD*%
D10*
%TO.C,C91*%
X130693700Y-113375100D03*
X129243700Y-113375100D03*
%TD*%
D43*
%TO.C,U5*%
X125018700Y-109525100D03*
X124518700Y-109525100D03*
X124018700Y-109525100D03*
X123518700Y-109525100D03*
X123018700Y-109525100D03*
X122518700Y-109525100D03*
X122018700Y-109525100D03*
X121518700Y-109525100D03*
X121018700Y-109525100D03*
X120518700Y-109525100D03*
X120018700Y-109525100D03*
X119518700Y-109525100D03*
X119018700Y-109525100D03*
X118518700Y-109525100D03*
X118018700Y-109525100D03*
X117518700Y-109525100D03*
D44*
X115568700Y-111475100D03*
X115568700Y-111975100D03*
X115568700Y-112475100D03*
X115568700Y-112975100D03*
X115568700Y-113475100D03*
X115568700Y-113975100D03*
X115568700Y-114475100D03*
X115568700Y-114975100D03*
X115568700Y-115475100D03*
X115568700Y-115975100D03*
X115568700Y-116475100D03*
X115568700Y-116975100D03*
X115568700Y-117475100D03*
X115568700Y-117975100D03*
X115568700Y-118475100D03*
X115568700Y-118975100D03*
D43*
X117518700Y-120925100D03*
X118018700Y-120925100D03*
X118518700Y-120925100D03*
D45*
X119018700Y-120925100D03*
X119518700Y-120925100D03*
D43*
X120018700Y-120925100D03*
X120518700Y-120925100D03*
X121018700Y-120925100D03*
X121518700Y-120925100D03*
X122018700Y-120925100D03*
X122518700Y-120925100D03*
X123018700Y-120925100D03*
X123518700Y-120925100D03*
X124018700Y-120925100D03*
X124518700Y-120925100D03*
X125018700Y-120925100D03*
D44*
X126968700Y-118975100D03*
X126968700Y-118475100D03*
X126968700Y-117975100D03*
X126968700Y-117475100D03*
X126968700Y-116975100D03*
X126968700Y-116475100D03*
X126968700Y-115975100D03*
X126968700Y-115475100D03*
X126968700Y-114975100D03*
X126968700Y-114475100D03*
X126968700Y-113975100D03*
X126968700Y-113475100D03*
X126968700Y-112975100D03*
X126968700Y-112475100D03*
X126968700Y-111975100D03*
X126968700Y-111475100D03*
%TD*%
D12*
%TO.C,R12*%
X177025000Y-112675000D03*
X177025000Y-111225000D03*
%TD*%
D20*
%TO.C,U12*%
X170875000Y-86025000D03*
X170225000Y-86025000D03*
X169575000Y-86025000D03*
X169575000Y-87925000D03*
X170875000Y-87925000D03*
%TD*%
D12*
%TO.C,C47*%
X114018700Y-105800100D03*
X114018700Y-107250100D03*
%TD*%
D10*
%TO.C,C89*%
X111818700Y-115975100D03*
X113268700Y-115975100D03*
%TD*%
D20*
%TO.C,U16*%
X143875000Y-86025000D03*
X143225000Y-86025000D03*
X142575000Y-86025000D03*
X142575000Y-87925000D03*
X143875000Y-87925000D03*
%TD*%
D10*
%TO.C,C99*%
X133893700Y-123450100D03*
X132443700Y-123450100D03*
%TD*%
D12*
%TO.C,C10*%
X141025000Y-87700000D03*
X141025000Y-86250000D03*
%TD*%
D10*
%TO.C,R27*%
X133393700Y-108575100D03*
X131943700Y-108575100D03*
%TD*%
D34*
%TO.C,C73*%
X117245000Y-43075000D03*
X117245000Y-47875000D03*
%TD*%
D12*
%TO.C,C53*%
X113150000Y-91655200D03*
X113150000Y-93105200D03*
%TD*%
%TO.C,C58*%
X117950000Y-91655200D03*
X117950000Y-93105200D03*
%TD*%
D10*
%TO.C,C2*%
X150025000Y-103150000D03*
X148575000Y-103150000D03*
%TD*%
D12*
%TO.C,C45*%
X117218700Y-105800100D03*
X117218700Y-107250100D03*
%TD*%
M02*
