%TF.GenerationSoftware,KiCad,Pcbnew,9.0.2*%
%TF.CreationDate,2025-06-26T21:54:26+07:00*%
%TF.ProjectId,HW.ACIM-MCU-ADAP,48572e41-4349-44d2-9d4d-43552d414441,0.1*%
%TF.SameCoordinates,Original*%
%TF.FileFunction,Legend,Top*%
%TF.FilePolarity,Positive*%
%FSLAX46Y46*%
G04 Gerber Fmt 4.6, Leading zero omitted, Abs format (unit mm)*
G04 Created by KiCad (PCBNEW 9.0.2) date 2025-06-26 21:54:26*
%MOMM*%
%LPD*%
G01*
G04 APERTURE LIST*
%ADD10C,0.500000*%
%ADD11C,0.150000*%
%ADD12C,0.200000*%
%ADD13C,0.154000*%
%ADD14C,0.100000*%
%ADD15C,0.000000*%
G04 APERTURE END LIST*
D10*
X215437500Y-80355000D02*
X215437500Y-56055000D01*
X231437500Y-82705000D02*
X225187500Y-82705000D01*
X214037500Y-80405000D02*
X214037500Y-56105000D01*
X231437500Y-84105000D02*
X214737500Y-84105000D01*
X214737500Y-84105000D02*
X214037500Y-83405000D01*
D11*
G36*
X234241319Y-66205334D02*
G01*
X234299923Y-66227837D01*
X234359406Y-66266694D01*
X234441456Y-66340355D01*
X234515647Y-66422792D01*
X234557600Y-66485514D01*
X234577190Y-66528301D01*
X234586947Y-66563184D01*
X234589033Y-66591814D01*
X234581255Y-66634780D01*
X234560968Y-66679203D01*
X234535019Y-66714680D01*
X234481351Y-66772464D01*
X234374575Y-66879240D01*
X233902052Y-66406717D01*
X233966299Y-66342470D01*
X234048776Y-66264328D01*
X234090517Y-66231895D01*
X234140679Y-66207842D01*
X234190255Y-66199340D01*
X234241319Y-66205334D01*
G37*
G36*
X235161466Y-65771807D02*
G01*
X234968251Y-65965022D01*
X234798611Y-65604110D01*
X235161466Y-65771807D01*
G37*
G36*
X237534253Y-65317162D02*
G01*
X237590530Y-65340129D01*
X237651276Y-65379082D01*
X237717623Y-65437475D01*
X237776551Y-65504525D01*
X237816008Y-65566295D01*
X237839381Y-65623885D01*
X237849053Y-65678572D01*
X237846841Y-65735353D01*
X237833281Y-65787218D01*
X237808308Y-65835457D01*
X237770817Y-65880983D01*
X237725308Y-65918428D01*
X237676882Y-65943461D01*
X237624613Y-65957138D01*
X237567197Y-65959478D01*
X237511755Y-65949917D01*
X237454140Y-65926927D01*
X237393163Y-65888375D01*
X237327827Y-65831158D01*
X237269294Y-65764588D01*
X237230188Y-65703433D01*
X237207096Y-65646578D01*
X237197606Y-65592737D01*
X237200017Y-65537020D01*
X237214004Y-65485272D01*
X237239862Y-65436263D01*
X237278951Y-65389117D01*
X237326144Y-65349926D01*
X237374940Y-65324067D01*
X237426203Y-65310121D01*
X237481146Y-65307730D01*
X237534253Y-65317162D01*
G37*
G36*
X239490578Y-63818574D02*
G01*
X239297363Y-64011789D01*
X239127723Y-63650877D01*
X239490578Y-63818574D01*
G37*
G36*
X237801885Y-62599878D02*
G01*
X237827571Y-62612655D01*
X237853388Y-62633873D01*
X237879954Y-62668100D01*
X237892808Y-62702308D01*
X237893956Y-62737738D01*
X237883136Y-62772771D01*
X237853963Y-62813611D01*
X237763451Y-62910073D01*
X237657669Y-63015855D01*
X237475292Y-62833478D01*
X237586859Y-62721910D01*
X237693678Y-62620013D01*
X237735461Y-62598863D01*
X237775713Y-62594366D01*
X237801885Y-62599878D01*
G37*
G36*
X241587760Y-62464345D02*
G01*
X234170118Y-69881987D01*
X233289001Y-69000870D01*
X233446135Y-69000870D01*
X234156301Y-69711036D01*
X234299301Y-69568036D01*
X233987049Y-69255784D01*
X234267178Y-68975655D01*
X234579430Y-69287907D01*
X234722430Y-69144907D01*
X234012264Y-68434740D01*
X233869264Y-68577741D01*
X234148356Y-68856833D01*
X233868228Y-69136962D01*
X233589135Y-68857870D01*
X233446135Y-69000870D01*
X233289001Y-69000870D01*
X232579525Y-68291395D01*
X234155610Y-68291395D01*
X234865776Y-69001561D01*
X235008777Y-68858560D01*
X234298610Y-68148394D01*
X234155610Y-68291395D01*
X232579525Y-68291395D01*
X232302290Y-68014160D01*
X234594234Y-68014160D01*
X234598593Y-68080537D01*
X234613367Y-68147099D01*
X234637199Y-68210824D01*
X234669878Y-68272439D01*
X234711973Y-68332334D01*
X234764312Y-68390787D01*
X234836265Y-68453299D01*
X234913000Y-68502267D01*
X234995176Y-68538580D01*
X235060074Y-68556361D01*
X235124215Y-68563772D01*
X235188328Y-68561131D01*
X235253155Y-68548295D01*
X235315114Y-68526361D01*
X235375577Y-68495083D01*
X235434972Y-68453753D01*
X235493605Y-68401365D01*
X235547697Y-68340049D01*
X235594241Y-68271728D01*
X235633410Y-68195759D01*
X235664263Y-68115340D01*
X235681441Y-68047216D01*
X235687381Y-67989375D01*
X235404100Y-67706095D01*
X235095950Y-68014245D01*
X235214771Y-68133067D01*
X235378496Y-67969342D01*
X235469383Y-68060228D01*
X235457725Y-68118042D01*
X235435144Y-68180993D01*
X235403069Y-68239983D01*
X235362867Y-68288934D01*
X235314447Y-68329009D01*
X235263914Y-68355530D01*
X235210351Y-68369850D01*
X235152468Y-68372221D01*
X235096555Y-68362271D01*
X235037647Y-68338309D01*
X234974437Y-68297893D01*
X234905801Y-68237554D01*
X234850357Y-68174021D01*
X234813373Y-68114714D01*
X234791748Y-68058621D01*
X234783396Y-68004530D01*
X234787070Y-67949147D01*
X234802554Y-67896576D01*
X234830468Y-67845669D01*
X234872469Y-67795600D01*
X234916324Y-67758987D01*
X234960557Y-67735290D01*
X235005970Y-67722890D01*
X235053007Y-67720968D01*
X235099048Y-67729652D01*
X235145171Y-67749487D01*
X235259545Y-67579847D01*
X235198339Y-67547263D01*
X235137282Y-67527436D01*
X235075485Y-67519432D01*
X235011928Y-67523070D01*
X234951245Y-67538204D01*
X234888154Y-67566894D01*
X234821648Y-67611221D01*
X234750884Y-67674015D01*
X234688282Y-67745291D01*
X234644494Y-67813324D01*
X234616734Y-67878973D01*
X234600168Y-67947222D01*
X234594234Y-68014160D01*
X232302290Y-68014160D01*
X232090007Y-67801877D01*
X232649850Y-67242034D01*
X235204970Y-67242034D01*
X235915136Y-67952201D01*
X236058137Y-67809200D01*
X235745885Y-67496948D01*
X236026014Y-67216819D01*
X236338266Y-67529071D01*
X236481266Y-67386071D01*
X235771100Y-66675905D01*
X235628099Y-66818905D01*
X235907192Y-67097998D01*
X235627063Y-67378126D01*
X235347971Y-67099034D01*
X235204970Y-67242034D01*
X232649850Y-67242034D01*
X233461032Y-66430852D01*
X233640274Y-66430852D01*
X234350440Y-67141019D01*
X234619472Y-66871986D01*
X234690374Y-66792613D01*
X234730997Y-66730411D01*
X234755791Y-66673435D01*
X234769934Y-66621359D01*
X234774778Y-66573248D01*
X234770153Y-66509496D01*
X234754038Y-66442721D01*
X234725211Y-66371960D01*
X234693984Y-66317485D01*
X234651404Y-66260012D01*
X234595768Y-66199081D01*
X234526414Y-66135501D01*
X234462994Y-66088095D01*
X234404756Y-66054440D01*
X234342725Y-66028819D01*
X234282036Y-66013220D01*
X234222076Y-66006989D01*
X234162201Y-66010449D01*
X234105090Y-66024159D01*
X234049888Y-66048352D01*
X233988632Y-66090381D01*
X233901577Y-66169549D01*
X233664409Y-66406717D01*
X233640274Y-66430852D01*
X233461032Y-66430852D01*
X234379654Y-65512230D01*
X234558896Y-65512230D01*
X234599372Y-65604110D01*
X234993251Y-66498208D01*
X235144929Y-66346529D01*
X235135234Y-66325701D01*
X236121304Y-66325701D01*
X237084570Y-66782767D01*
X237237199Y-66630138D01*
X236780651Y-65666353D01*
X236628973Y-65818032D01*
X236980602Y-66516454D01*
X236276351Y-66170654D01*
X236121304Y-66325701D01*
X235135234Y-66325701D01*
X235043119Y-66127797D01*
X235326141Y-65844775D01*
X235548241Y-65943218D01*
X235703805Y-65787653D01*
X234710099Y-65361027D01*
X234558896Y-65512230D01*
X234379654Y-65512230D01*
X234891597Y-65000287D01*
X235070839Y-65000287D01*
X235781005Y-65710453D01*
X235886156Y-65605302D01*
X237003874Y-65605302D01*
X237012474Y-65688676D01*
X237035436Y-65768638D01*
X237068353Y-65836080D01*
X237117381Y-65907363D01*
X237185344Y-65983312D01*
X237258221Y-66047805D01*
X237329962Y-66095696D01*
X237401141Y-66128964D01*
X237472517Y-66148997D01*
X237545004Y-66156535D01*
X237618207Y-66151708D01*
X237688711Y-66134566D01*
X237757495Y-66104730D01*
X237825359Y-66061137D01*
X237892877Y-66002093D01*
X237951041Y-65935461D01*
X237994026Y-65868185D01*
X238023456Y-65799688D01*
X238040323Y-65729171D01*
X238044944Y-65655646D01*
X238037186Y-65583092D01*
X238016814Y-65511398D01*
X237983026Y-65439641D01*
X237934365Y-65367053D01*
X237868784Y-65293050D01*
X237794138Y-65226906D01*
X237721005Y-65177911D01*
X237648788Y-65143974D01*
X237576703Y-65123605D01*
X237503814Y-65115983D01*
X237429889Y-65120794D01*
X237359026Y-65137855D01*
X237290243Y-65167476D01*
X237222738Y-65210640D01*
X237155941Y-65268957D01*
X237102149Y-65329408D01*
X237061103Y-65389521D01*
X237031420Y-65449694D01*
X237015705Y-65497569D01*
X237006433Y-65549227D01*
X237004447Y-65592737D01*
X237003874Y-65605302D01*
X235886156Y-65605302D01*
X235913815Y-65577643D01*
X235445481Y-65109308D01*
X236199298Y-65292160D01*
X236342773Y-65148685D01*
X235632607Y-64438519D01*
X235499753Y-64571373D01*
X235975169Y-65046788D01*
X235209953Y-64861173D01*
X235070839Y-65000287D01*
X234891597Y-65000287D01*
X235602366Y-64289518D01*
X235942998Y-64289518D01*
X235947357Y-64355895D01*
X235962130Y-64422457D01*
X235985962Y-64486182D01*
X236018641Y-64547797D01*
X236060737Y-64607692D01*
X236113075Y-64666145D01*
X236185028Y-64728657D01*
X236261763Y-64777625D01*
X236343939Y-64813938D01*
X236408837Y-64831719D01*
X236472978Y-64839130D01*
X236537091Y-64836489D01*
X236578019Y-64828385D01*
X237635200Y-64828385D01*
X238337076Y-65530261D01*
X238835591Y-65031746D01*
X238716770Y-64912924D01*
X238361255Y-65268439D01*
X237778200Y-64685384D01*
X237635200Y-64828385D01*
X236578019Y-64828385D01*
X236601918Y-64823653D01*
X236663877Y-64801719D01*
X236724340Y-64770441D01*
X236783735Y-64729111D01*
X236842368Y-64676723D01*
X236896460Y-64615407D01*
X236943004Y-64547086D01*
X236982173Y-64471117D01*
X237013026Y-64390698D01*
X237024772Y-64344118D01*
X238102887Y-64344118D01*
X238221708Y-64462939D01*
X238431848Y-64252800D01*
X239023193Y-64844144D01*
X239166150Y-64701187D01*
X238574805Y-64109842D01*
X238784470Y-63900178D01*
X238665649Y-63781356D01*
X238102887Y-64344118D01*
X237024772Y-64344118D01*
X237030204Y-64322574D01*
X237036144Y-64264733D01*
X236752863Y-63981453D01*
X236444713Y-64289603D01*
X236563535Y-64408425D01*
X236727260Y-64244700D01*
X236818146Y-64335586D01*
X236806488Y-64393400D01*
X236783907Y-64456351D01*
X236751832Y-64515341D01*
X236711630Y-64564292D01*
X236663210Y-64604367D01*
X236612678Y-64630888D01*
X236559114Y-64645208D01*
X236501231Y-64647579D01*
X236445318Y-64637629D01*
X236386410Y-64613667D01*
X236323201Y-64573251D01*
X236254564Y-64512912D01*
X236199120Y-64449379D01*
X236162136Y-64390072D01*
X236140511Y-64333979D01*
X236132159Y-64279888D01*
X236135834Y-64224505D01*
X236151317Y-64171934D01*
X236179231Y-64121027D01*
X236221232Y-64070958D01*
X236265087Y-64034345D01*
X236309320Y-64010648D01*
X236354733Y-63998248D01*
X236401770Y-63996326D01*
X236447811Y-64005010D01*
X236493934Y-64024845D01*
X236608309Y-63855205D01*
X236547102Y-63822621D01*
X236486046Y-63802794D01*
X236424248Y-63794790D01*
X236360692Y-63798428D01*
X236300008Y-63813562D01*
X236236917Y-63842252D01*
X236170412Y-63886579D01*
X236099647Y-63949373D01*
X236037045Y-64020649D01*
X235993258Y-64088682D01*
X235965498Y-64154331D01*
X235948931Y-64222580D01*
X235942998Y-64289518D01*
X235602366Y-64289518D01*
X236374017Y-63517867D01*
X236553259Y-63517867D01*
X237263425Y-64228033D01*
X237802008Y-63689451D01*
X237683186Y-63570629D01*
X237287560Y-63966255D01*
X237091367Y-63770061D01*
X237446881Y-63414546D01*
X237328060Y-63295725D01*
X236972545Y-63651239D01*
X236815037Y-63493732D01*
X237197149Y-63111620D01*
X237078327Y-62992799D01*
X236553259Y-63517867D01*
X236374017Y-63517867D01*
X237034228Y-62857656D01*
X237213470Y-62857656D01*
X237923636Y-63567822D01*
X237932461Y-63558997D01*
X238888007Y-63558997D01*
X238928483Y-63650877D01*
X239322362Y-64544975D01*
X239474041Y-64393296D01*
X239372231Y-64174564D01*
X239655253Y-63891542D01*
X239877352Y-63989985D01*
X240032917Y-63834420D01*
X239039211Y-63407794D01*
X238888007Y-63558997D01*
X237932461Y-63558997D01*
X238066636Y-63424822D01*
X237770964Y-63129150D01*
X237799935Y-63100178D01*
X237848239Y-63056647D01*
X237879898Y-63036191D01*
X237912392Y-63025586D01*
X237952305Y-63022590D01*
X238005541Y-63028397D01*
X238131617Y-63051216D01*
X238389294Y-63102165D01*
X238440863Y-63050596D01*
X239557798Y-63050596D01*
X239562157Y-63116973D01*
X239576931Y-63183535D01*
X239600763Y-63247260D01*
X239633442Y-63308875D01*
X239675537Y-63368770D01*
X239727875Y-63427223D01*
X239799828Y-63489735D01*
X239876564Y-63538703D01*
X239958740Y-63575016D01*
X240023638Y-63592797D01*
X240087779Y-63600208D01*
X240151892Y-63597567D01*
X240216719Y-63584731D01*
X240278678Y-63562797D01*
X240339141Y-63531519D01*
X240398536Y-63490189D01*
X240457169Y-63437801D01*
X240511261Y-63376485D01*
X240557805Y-63308164D01*
X240596974Y-63232195D01*
X240627827Y-63151776D01*
X240645004Y-63083652D01*
X240650945Y-63025812D01*
X240367664Y-62742531D01*
X240059514Y-63050681D01*
X240178335Y-63169503D01*
X240342060Y-63005778D01*
X240432947Y-63096664D01*
X240421289Y-63154478D01*
X240398708Y-63217429D01*
X240366632Y-63276419D01*
X240326431Y-63325370D01*
X240278011Y-63365445D01*
X240227478Y-63391966D01*
X240173915Y-63406286D01*
X240116032Y-63408657D01*
X240060119Y-63398707D01*
X240001211Y-63374745D01*
X239938001Y-63334329D01*
X239869365Y-63273990D01*
X239813921Y-63210457D01*
X239776937Y-63151150D01*
X239755312Y-63095057D01*
X239746959Y-63040966D01*
X239750634Y-62985583D01*
X239766118Y-62933012D01*
X239794032Y-62882105D01*
X239836032Y-62832036D01*
X239879888Y-62795423D01*
X239924121Y-62771726D01*
X239969534Y-62759327D01*
X240016571Y-62757404D01*
X240062611Y-62766088D01*
X240108735Y-62785923D01*
X240223109Y-62616283D01*
X240161903Y-62583699D01*
X240100846Y-62563872D01*
X240039049Y-62555868D01*
X239975492Y-62559506D01*
X239914809Y-62574640D01*
X239851718Y-62603330D01*
X239785212Y-62647657D01*
X239714448Y-62710451D01*
X239651846Y-62781727D01*
X239608058Y-62849760D01*
X239580298Y-62915409D01*
X239563732Y-62983658D01*
X239557798Y-63050596D01*
X238440863Y-63050596D01*
X238560272Y-62931186D01*
X238335669Y-62879460D01*
X238210248Y-62853793D01*
X238139259Y-62845912D01*
X238075650Y-62848878D01*
X238003253Y-62863010D01*
X238039633Y-62806675D01*
X238063036Y-62754192D01*
X238075288Y-62704679D01*
X238075709Y-62695874D01*
X238524781Y-62695874D01*
X238660183Y-62831276D01*
X238795886Y-62695572D01*
X238660485Y-62560171D01*
X238524781Y-62695874D01*
X238075709Y-62695874D01*
X238077560Y-62657188D01*
X238070432Y-62609628D01*
X238054273Y-62564370D01*
X238028559Y-62520671D01*
X237992157Y-62478006D01*
X237947425Y-62440381D01*
X237899967Y-62413607D01*
X237849113Y-62396791D01*
X237796177Y-62390294D01*
X237746387Y-62395079D01*
X237698514Y-62410953D01*
X237653685Y-62436678D01*
X237593658Y-62482882D01*
X237514409Y-62556717D01*
X237237648Y-62833478D01*
X237213470Y-62857656D01*
X237034228Y-62857656D01*
X237764989Y-62126895D01*
X237944231Y-62126895D01*
X238111108Y-62293772D01*
X238507295Y-62619409D01*
X238584106Y-62542598D01*
X238366773Y-62278945D01*
X240168059Y-62278945D01*
X240878225Y-62989112D01*
X241416808Y-62450529D01*
X241297987Y-62331707D01*
X240902361Y-62727333D01*
X240706167Y-62531139D01*
X241061682Y-62175624D01*
X240942861Y-62056803D01*
X240587346Y-62412317D01*
X240429838Y-62254810D01*
X240811950Y-61872698D01*
X240693128Y-61753877D01*
X240168059Y-62278945D01*
X238366773Y-62278945D01*
X238257951Y-62146929D01*
X238091074Y-61980052D01*
X237944231Y-62126895D01*
X237764989Y-62126895D01*
X239507650Y-60384235D01*
X241587760Y-62464345D01*
G37*
G36*
X203126230Y-86485455D02*
G01*
X202716360Y-86485455D01*
X202919235Y-85922719D01*
X203126230Y-86485455D01*
G37*
G36*
X214665239Y-86485455D02*
G01*
X214255369Y-86485455D01*
X214458244Y-85922719D01*
X214665239Y-86485455D01*
G37*
G36*
X215993222Y-85827667D02*
G01*
X216071895Y-85837540D01*
X216150612Y-85865232D01*
X216212213Y-85908797D01*
X216260017Y-85969316D01*
X216298308Y-86055343D01*
X216320185Y-86159649D01*
X216329083Y-86324804D01*
X216320336Y-86490933D01*
X216298308Y-86601959D01*
X216273703Y-86668120D01*
X216247053Y-86715466D01*
X216218899Y-86748046D01*
X216165076Y-86785369D01*
X216096441Y-86810969D01*
X216031289Y-86821076D01*
X215913076Y-86825441D01*
X215686571Y-86825441D01*
X215686571Y-85823068D01*
X215822859Y-85823068D01*
X215993222Y-85827667D01*
G37*
G36*
X217695805Y-86485455D02*
G01*
X217285935Y-86485455D01*
X217488809Y-85922719D01*
X217695805Y-86485455D01*
G37*
G36*
X219015066Y-85826408D02*
G01*
X219082951Y-85833510D01*
X219129681Y-85847238D01*
X219169959Y-85869698D01*
X219204859Y-85901287D01*
X219231216Y-85939874D01*
X219247370Y-85985155D01*
X219253036Y-86038948D01*
X219244242Y-86103271D01*
X219218689Y-86157834D01*
X219178147Y-86201833D01*
X219123893Y-86232847D01*
X219048641Y-86249203D01*
X218884107Y-86256844D01*
X218718144Y-86256844D01*
X218718144Y-85823068D01*
X218864690Y-85823068D01*
X219015066Y-85826408D01*
G37*
G36*
X219732303Y-87273476D02*
G01*
X198200308Y-87273476D01*
X198200308Y-87077500D01*
X198366975Y-87077500D01*
X198670325Y-87077500D01*
X198670325Y-86415113D01*
X199264568Y-86415113D01*
X199264568Y-87077500D01*
X199567917Y-87077500D01*
X199567917Y-85571010D01*
X199735712Y-85571010D01*
X200094383Y-87077500D01*
X200423286Y-87077500D01*
X200721507Y-85951204D01*
X201020643Y-87077500D01*
X201342403Y-87077500D01*
X201744762Y-87077500D01*
X202032633Y-87077500D01*
X202177347Y-87077500D01*
X202499106Y-87077500D01*
X202623121Y-86737513D01*
X203223500Y-86737513D01*
X203354658Y-87077500D01*
X203684661Y-87077500D01*
X203389224Y-86337535D01*
X203792006Y-86337535D01*
X203800658Y-86481083D01*
X203825292Y-86606371D01*
X203864470Y-86715992D01*
X203917531Y-86812140D01*
X203984622Y-86896516D01*
X204066001Y-86970137D01*
X204154616Y-87026717D01*
X204251515Y-87067370D01*
X204358201Y-87092333D01*
X204476557Y-87100947D01*
X204597142Y-87092768D01*
X204665983Y-87077500D01*
X205351344Y-87077500D01*
X205654693Y-87077500D01*
X205939725Y-87077500D01*
X206221551Y-87077500D01*
X206221551Y-85891670D01*
X206518672Y-87077500D01*
X206810756Y-87077500D01*
X207108885Y-85891670D01*
X207108885Y-87077500D01*
X207390710Y-87077500D01*
X208387038Y-87077500D01*
X208668864Y-87077500D01*
X208668864Y-85891670D01*
X208965985Y-87077500D01*
X209258069Y-87077500D01*
X209556198Y-85891670D01*
X209556198Y-87077500D01*
X209838024Y-87077500D01*
X209838024Y-86337535D01*
X210086144Y-86337535D01*
X210094797Y-86481083D01*
X210119431Y-86606371D01*
X210158608Y-86715992D01*
X210211669Y-86812140D01*
X210278760Y-86896516D01*
X210360139Y-86970137D01*
X210448755Y-87026717D01*
X210545653Y-87067370D01*
X210652339Y-87092333D01*
X210770696Y-87100947D01*
X210891280Y-87092768D01*
X210996480Y-87069436D01*
X211088663Y-87032128D01*
X211169758Y-86981146D01*
X211239936Y-86916486D01*
X211300915Y-86835565D01*
X211352743Y-86735938D01*
X211394706Y-86614415D01*
X211100607Y-86520626D01*
X211067284Y-86628372D01*
X211025201Y-86707992D01*
X210975585Y-86765266D01*
X210913826Y-86808432D01*
X210845216Y-86834198D01*
X210767582Y-86843026D01*
X210688088Y-86835173D01*
X210618429Y-86812473D01*
X210556561Y-86775121D01*
X210501143Y-86721851D01*
X210460583Y-86659703D01*
X210428480Y-86575308D01*
X210406773Y-86462757D01*
X210402030Y-86376461D01*
X211652718Y-86376461D01*
X211661401Y-86614457D01*
X211682393Y-86759678D01*
X211713226Y-86843938D01*
X211767481Y-86927107D01*
X211814285Y-86975745D01*
X211872308Y-87019018D01*
X211943153Y-87056892D01*
X212019336Y-87082375D01*
X212125439Y-87100067D01*
X212269583Y-87106809D01*
X212388288Y-87100966D01*
X212483228Y-87085039D01*
X212506835Y-87077500D01*
X213716356Y-87077500D01*
X214038115Y-87077500D01*
X214162130Y-86737513D01*
X214762509Y-86737513D01*
X214893668Y-87077500D01*
X215223670Y-87077500D01*
X215123033Y-86825441D01*
X215383313Y-86825441D01*
X215383313Y-87077500D01*
X215954017Y-87077500D01*
X216746921Y-87077500D01*
X217068681Y-87077500D01*
X217192695Y-86737513D01*
X217793074Y-86737513D01*
X217924233Y-87077500D01*
X218254235Y-87077500D01*
X217926582Y-86256844D01*
X218414886Y-86256844D01*
X218414886Y-87077500D01*
X218718144Y-87077500D01*
X218718144Y-86508902D01*
X218915889Y-86508902D01*
X219109709Y-86502619D01*
X219230505Y-86487287D01*
X219308433Y-86461375D01*
X219387858Y-86415937D01*
X219435577Y-86376306D01*
X219478055Y-86327208D01*
X219515444Y-86267468D01*
X219542387Y-86202584D01*
X219559530Y-86125644D01*
X219565636Y-86034277D01*
X219555108Y-85917330D01*
X219525562Y-85820965D01*
X219478533Y-85741094D01*
X219414736Y-85673326D01*
X219343123Y-85624771D01*
X219262287Y-85593633D01*
X219154576Y-85578372D01*
X218901601Y-85571010D01*
X218414886Y-85571010D01*
X218414886Y-86256844D01*
X217926582Y-86256844D01*
X217652757Y-85571010D01*
X217332005Y-85571010D01*
X216976857Y-86485455D01*
X216746921Y-87077500D01*
X215954017Y-87077500D01*
X216113409Y-87068514D01*
X216222471Y-87045626D01*
X216309200Y-87011492D01*
X216379437Y-86971259D01*
X216435603Y-86925367D01*
X216498318Y-86852842D01*
X216552051Y-86764924D01*
X216596529Y-86659295D01*
X216621186Y-86568394D01*
X216636982Y-86462272D01*
X216642599Y-86338634D01*
X216636475Y-86197637D01*
X216619490Y-86080088D01*
X216593415Y-85982620D01*
X216554796Y-85889651D01*
X216506972Y-85808735D01*
X216449983Y-85738530D01*
X216382806Y-85678691D01*
X216307689Y-85632659D01*
X216223478Y-85599769D01*
X216113928Y-85579374D01*
X215937623Y-85571010D01*
X215383313Y-85571010D01*
X215383313Y-86825441D01*
X215123033Y-86825441D01*
X214622192Y-85571010D01*
X214301440Y-85571010D01*
X213946292Y-86485455D01*
X213716356Y-87077500D01*
X212506835Y-87077500D01*
X212558462Y-87061013D01*
X212629204Y-87025827D01*
X212687612Y-86984773D01*
X212735232Y-86937915D01*
X212774076Y-86883557D01*
X212804351Y-86820826D01*
X212825908Y-86748413D01*
X212834898Y-86678895D01*
X213135211Y-86678895D01*
X213700786Y-86678895D01*
X213700786Y-86391666D01*
X213135211Y-86391666D01*
X213135211Y-86678895D01*
X212834898Y-86678895D01*
X212843006Y-86616199D01*
X212850546Y-86364188D01*
X212850546Y-85571010D01*
X212547196Y-85571010D01*
X212547196Y-86411999D01*
X212543142Y-86579569D01*
X212533824Y-86670194D01*
X212519302Y-86719002D01*
X212493402Y-86762367D01*
X212454964Y-86801352D01*
X212408191Y-86829333D01*
X212344951Y-86847843D01*
X212260333Y-86854750D01*
X212177279Y-86847706D01*
X212111690Y-86828342D01*
X212059932Y-86798238D01*
X212017129Y-86756500D01*
X211986456Y-86707054D01*
X211967241Y-86648395D01*
X211959659Y-86573371D01*
X211955976Y-86394322D01*
X211955976Y-85571010D01*
X211652718Y-85571010D01*
X211652718Y-86376461D01*
X210402030Y-86376461D01*
X210398653Y-86315004D01*
X210406712Y-86176698D01*
X210428441Y-86069586D01*
X210460957Y-85987613D01*
X210502609Y-85925742D01*
X210558693Y-85873036D01*
X210621534Y-85835938D01*
X210692517Y-85813322D01*
X210773718Y-85805483D01*
X210851929Y-85813350D01*
X210919682Y-85835999D01*
X210979157Y-85873169D01*
X211028522Y-85922975D01*
X211065495Y-85983735D01*
X211090348Y-86057541D01*
X211390584Y-85987199D01*
X211348368Y-85871044D01*
X211296870Y-85780247D01*
X211236894Y-85710503D01*
X211146304Y-85640437D01*
X211043195Y-85589897D01*
X210925184Y-85558536D01*
X210789105Y-85547562D01*
X210663611Y-85556463D01*
X210551859Y-85582108D01*
X210451702Y-85623592D01*
X210361410Y-85680940D01*
X210279768Y-85755108D01*
X210212936Y-85840360D01*
X210159688Y-85938969D01*
X210120079Y-86052936D01*
X210095001Y-86184799D01*
X210086144Y-86337535D01*
X209838024Y-86337535D01*
X209838024Y-85571010D01*
X209382999Y-85571010D01*
X209113538Y-86598661D01*
X208840963Y-85571010D01*
X208387038Y-85571010D01*
X208387038Y-87077500D01*
X207390710Y-87077500D01*
X207390710Y-86678895D01*
X207657332Y-86678895D01*
X208222907Y-86678895D01*
X208222907Y-86391666D01*
X207657332Y-86391666D01*
X207657332Y-86678895D01*
X207390710Y-86678895D01*
X207390710Y-85571010D01*
X206935686Y-85571010D01*
X206666225Y-86598661D01*
X206393650Y-85571010D01*
X205939725Y-85571010D01*
X205939725Y-87077500D01*
X205654693Y-87077500D01*
X205654693Y-85571010D01*
X205351344Y-85571010D01*
X205351344Y-87077500D01*
X204665983Y-87077500D01*
X204702342Y-87069436D01*
X204794525Y-87032128D01*
X204875620Y-86981146D01*
X204945798Y-86916486D01*
X205006777Y-86835565D01*
X205058605Y-86735938D01*
X205100567Y-86614415D01*
X204806469Y-86520626D01*
X204773145Y-86628372D01*
X204731063Y-86707992D01*
X204681447Y-86765266D01*
X204619688Y-86808432D01*
X204551078Y-86834198D01*
X204473443Y-86843026D01*
X204393950Y-86835173D01*
X204324291Y-86812473D01*
X204262423Y-86775121D01*
X204207005Y-86721851D01*
X204166445Y-86659703D01*
X204134342Y-86575308D01*
X204112635Y-86462757D01*
X204104515Y-86315004D01*
X204112574Y-86176698D01*
X204134303Y-86069586D01*
X204166819Y-85987613D01*
X204208470Y-85925742D01*
X204264555Y-85873036D01*
X204327396Y-85835938D01*
X204398379Y-85813322D01*
X204479580Y-85805483D01*
X204557790Y-85813350D01*
X204625544Y-85835999D01*
X204685019Y-85873169D01*
X204734384Y-85922975D01*
X204771356Y-85983735D01*
X204796210Y-86057541D01*
X205096446Y-85987199D01*
X205054229Y-85871044D01*
X205002732Y-85780247D01*
X204942756Y-85710503D01*
X204852166Y-85640437D01*
X204749057Y-85589897D01*
X204631045Y-85558536D01*
X204494967Y-85547562D01*
X204369472Y-85556463D01*
X204257721Y-85582108D01*
X204157564Y-85623592D01*
X204067272Y-85680940D01*
X203985629Y-85755108D01*
X203918798Y-85840360D01*
X203865550Y-85938969D01*
X203825940Y-86052936D01*
X203800863Y-86184799D01*
X203792006Y-86337535D01*
X203389224Y-86337535D01*
X203083183Y-85571010D01*
X202762431Y-85571010D01*
X202407283Y-86485455D01*
X202177347Y-87077500D01*
X202032633Y-87077500D01*
X202032633Y-86790270D01*
X201744762Y-86790270D01*
X201744762Y-87077500D01*
X201342403Y-87077500D01*
X201707210Y-85571010D01*
X201401845Y-85571010D01*
X201171311Y-86623299D01*
X200907986Y-85571010D01*
X200547301Y-85571010D01*
X200272711Y-86605806D01*
X200046206Y-85571010D01*
X199735712Y-85571010D01*
X199567917Y-85571010D01*
X199264568Y-85571010D01*
X199264568Y-86163054D01*
X198670325Y-86163054D01*
X198670325Y-85571010D01*
X198366975Y-85571010D01*
X198366975Y-87077500D01*
X198200308Y-87077500D01*
X198200308Y-85380895D01*
X219732303Y-85380895D01*
X219732303Y-87273476D01*
G37*
G36*
X228771365Y-84794626D02*
G01*
X228824153Y-84810846D01*
X228870263Y-84837233D01*
X228910805Y-84874392D01*
X228941687Y-84918614D01*
X228965241Y-84974648D01*
X228980651Y-85045146D01*
X228986276Y-85133351D01*
X228980532Y-85222430D01*
X228964754Y-85294008D01*
X228940559Y-85351258D01*
X228908729Y-85396767D01*
X228867014Y-85435353D01*
X228820752Y-85462439D01*
X228768984Y-85478890D01*
X228710281Y-85484572D01*
X228651624Y-85478870D01*
X228599681Y-85462329D01*
X228553050Y-85435039D01*
X228510796Y-85396095D01*
X228478353Y-85350131D01*
X228453870Y-85293134D01*
X228438013Y-85222757D01*
X228432272Y-85136098D01*
X228437954Y-85047638D01*
X228453546Y-84976743D01*
X228477420Y-84920211D01*
X228508781Y-84875430D01*
X228549884Y-84837736D01*
X228596365Y-84811035D01*
X228649304Y-84794666D01*
X228710281Y-84788968D01*
X228771365Y-84794626D01*
G37*
G36*
X222991518Y-85242283D02*
G01*
X222718271Y-85242283D01*
X222853521Y-84867126D01*
X222991518Y-85242283D01*
G37*
G36*
X231236221Y-85767630D02*
G01*
X221365369Y-85767630D01*
X221365369Y-85316533D01*
X221476480Y-85316533D01*
X221492563Y-85398517D01*
X221518550Y-85466621D01*
X221553689Y-85523118D01*
X221598052Y-85569691D01*
X221650735Y-85605692D01*
X221715208Y-85632770D01*
X221793887Y-85650227D01*
X221889739Y-85656519D01*
X221976354Y-85651977D01*
X222048235Y-85639374D01*
X222055557Y-85636980D01*
X222358929Y-85636980D01*
X222573435Y-85636980D01*
X222656112Y-85410322D01*
X223056365Y-85410322D01*
X223143804Y-85636980D01*
X223363805Y-85636980D01*
X223472249Y-85636980D01*
X223674482Y-85636980D01*
X224325756Y-85636980D01*
X225087427Y-85636980D01*
X225087427Y-85468940D01*
X224527928Y-85468940D01*
X224527928Y-85191481D01*
X225030702Y-85191481D01*
X225030702Y-85023441D01*
X224527928Y-85023441D01*
X224527928Y-84800692D01*
X225068315Y-84800692D01*
X225187017Y-84800692D01*
X225484200Y-84800692D01*
X225484200Y-85636980D01*
X225686372Y-85636980D01*
X225686372Y-84800692D01*
X225982882Y-84800692D01*
X225982882Y-84632653D01*
X226009749Y-84632653D01*
X226376602Y-85214256D01*
X226376602Y-85636980D01*
X226578102Y-85636980D01*
X226578102Y-85449401D01*
X227323287Y-85449401D01*
X227323287Y-85636980D01*
X228136860Y-85636980D01*
X228136860Y-85468940D01*
X227567164Y-85468940D01*
X227830168Y-85142937D01*
X228223933Y-85142937D01*
X228229861Y-85240072D01*
X228246725Y-85324666D01*
X228273532Y-85398521D01*
X228309837Y-85463156D01*
X228355763Y-85519743D01*
X228410938Y-85568091D01*
X228472913Y-85605824D01*
X228542649Y-85633365D01*
X228621460Y-85650527D01*
X228710953Y-85656519D01*
X228799197Y-85650532D01*
X228860710Y-85636980D01*
X229355327Y-85636980D01*
X229543149Y-85636980D01*
X229543149Y-84974654D01*
X229946883Y-85636980D01*
X230149788Y-85636980D01*
X230363439Y-85636980D01*
X231125110Y-85636980D01*
X231125110Y-85468940D01*
X230565611Y-85468940D01*
X230565611Y-85191481D01*
X231068385Y-85191481D01*
X231068385Y-85023441D01*
X230565611Y-85023441D01*
X230565611Y-84800692D01*
X231105998Y-84800692D01*
X231105998Y-84632653D01*
X230363439Y-84632653D01*
X230363439Y-85636980D01*
X230149788Y-85636980D01*
X230149788Y-84632653D01*
X229961904Y-84632653D01*
X229961904Y-85304992D01*
X229552064Y-84632653D01*
X229355327Y-84632653D01*
X229355327Y-85636980D01*
X228860710Y-85636980D01*
X228877164Y-85633355D01*
X228946408Y-85605730D01*
X229008199Y-85567794D01*
X229063456Y-85519071D01*
X229109274Y-85462282D01*
X229145564Y-85397181D01*
X229172412Y-85322550D01*
X229189331Y-85236815D01*
X229195286Y-85138113D01*
X229189275Y-85038560D01*
X229172206Y-84952203D01*
X229145138Y-84877140D01*
X229108569Y-84811765D01*
X229062418Y-84754835D01*
X229006744Y-84705964D01*
X228944573Y-84667921D01*
X228874990Y-84640229D01*
X228796735Y-84623018D01*
X228708266Y-84617021D01*
X228627485Y-84621730D01*
X228555954Y-84635212D01*
X228492417Y-84656772D01*
X228447451Y-84679513D01*
X228404367Y-84709483D01*
X228362907Y-84747325D01*
X228310033Y-84812361D01*
X228269728Y-84885139D01*
X228245315Y-84956104D01*
X228229579Y-85041176D01*
X228224312Y-85136098D01*
X228223933Y-85142937D01*
X227830168Y-85142937D01*
X228115733Y-84788968D01*
X228115733Y-84632653D01*
X227382699Y-84632653D01*
X227382699Y-84800692D01*
X227849325Y-84800692D01*
X227323287Y-85449401D01*
X226578102Y-85449401D01*
X226578102Y-85215661D01*
X226946359Y-84632653D01*
X226713413Y-84632653D01*
X226482481Y-85030769D01*
X226246848Y-84632653D01*
X226009749Y-84632653D01*
X225982882Y-84632653D01*
X225187017Y-84632653D01*
X225187017Y-84800692D01*
X225068315Y-84800692D01*
X225068315Y-84632653D01*
X224325756Y-84632653D01*
X224325756Y-85636980D01*
X223674482Y-85636980D01*
X223674482Y-85211020D01*
X224092565Y-85211020D01*
X224092565Y-85042981D01*
X223674482Y-85042981D01*
X223674482Y-84800692D01*
X224158816Y-84800692D01*
X224158816Y-84632653D01*
X223472249Y-84632653D01*
X223472249Y-85636980D01*
X223363805Y-85636980D01*
X222962820Y-84632653D01*
X222748985Y-84632653D01*
X222512220Y-85242283D01*
X222358929Y-85636980D01*
X222055557Y-85636980D01*
X222107664Y-85619944D01*
X222162227Y-85590781D01*
X222206917Y-85553657D01*
X222242914Y-85508080D01*
X222269658Y-85456228D01*
X222285442Y-85402712D01*
X222290724Y-85346636D01*
X222285911Y-85284333D01*
X222272323Y-85231653D01*
X222250730Y-85186901D01*
X222220878Y-85147049D01*
X222184243Y-85113204D01*
X222140088Y-85084991D01*
X222059012Y-85051147D01*
X221921857Y-85012267D01*
X221821990Y-84984674D01*
X221764824Y-84962353D01*
X221736049Y-84944673D01*
X221713326Y-84916362D01*
X221706007Y-84883673D01*
X221709616Y-84859286D01*
X221720119Y-84838868D01*
X221738125Y-84821392D01*
X221773184Y-84802162D01*
X221818300Y-84789648D01*
X221876122Y-84785060D01*
X221932231Y-84789468D01*
X221973787Y-84801214D01*
X222004166Y-84818827D01*
X222028041Y-84844295D01*
X222046822Y-84880245D01*
X222059854Y-84929652D01*
X222262087Y-84921836D01*
X222253648Y-84854193D01*
X222234076Y-84795732D01*
X222203737Y-84744763D01*
X222162008Y-84700125D01*
X222112661Y-84665982D01*
X222050818Y-84640051D01*
X221973754Y-84623161D01*
X221878137Y-84617021D01*
X221801743Y-84621292D01*
X221736611Y-84633305D01*
X221681094Y-84652131D01*
X221629964Y-84679735D01*
X221588695Y-84713733D01*
X221556042Y-84754408D01*
X221531785Y-84800671D01*
X221517477Y-84848452D01*
X221512689Y-84898572D01*
X221518497Y-84956410D01*
X221535520Y-85008762D01*
X221563927Y-85056896D01*
X221604890Y-85101660D01*
X221652260Y-85135150D01*
X221725525Y-85168852D01*
X221833074Y-85201861D01*
X221994946Y-85246313D01*
X222041686Y-85267633D01*
X222067731Y-85289056D01*
X222083236Y-85315897D01*
X222088552Y-85348590D01*
X222083280Y-85382705D01*
X222067327Y-85414072D01*
X222039032Y-85443844D01*
X222003676Y-85465192D01*
X221955848Y-85479306D01*
X221891815Y-85484572D01*
X221831903Y-85479013D01*
X221783885Y-85463575D01*
X221745269Y-85439204D01*
X221714626Y-85405390D01*
X221690372Y-85359075D01*
X221673217Y-85296993D01*
X221476480Y-85316533D01*
X221365369Y-85316533D01*
X221365369Y-84505910D01*
X231236221Y-84505910D01*
X231236221Y-85767630D01*
G37*
G36*
X199367948Y-60301885D02*
G01*
X198200514Y-61469319D01*
X197495620Y-60764424D01*
X197621328Y-60764424D01*
X197925083Y-61068179D01*
X198018111Y-61154658D01*
X198080794Y-61201508D01*
X198124198Y-61221656D01*
X198176024Y-61232561D01*
X198212018Y-61233252D01*
X198250218Y-61227690D01*
X198291219Y-61215256D01*
X198329560Y-61196135D01*
X198376246Y-61162794D01*
X198433148Y-61110976D01*
X198475711Y-61064006D01*
X198505509Y-61022196D01*
X198524821Y-60984762D01*
X198538230Y-60944814D01*
X198544774Y-60907305D01*
X198545062Y-60871675D01*
X198539211Y-60836526D01*
X198526971Y-60801452D01*
X198507792Y-60766013D01*
X198464379Y-60709704D01*
X198372183Y-60611822D01*
X198073057Y-60312695D01*
X197958657Y-60427095D01*
X198275813Y-60744252D01*
X198337479Y-60808976D01*
X198368142Y-60846667D01*
X198381072Y-60870550D01*
X198387659Y-60896671D01*
X198387865Y-60925870D01*
X198380778Y-60954061D01*
X198363909Y-60984891D01*
X198334603Y-61019407D01*
X198300625Y-61048072D01*
X198268587Y-61065505D01*
X198237715Y-61073671D01*
X198205832Y-61074072D01*
X198175618Y-61066993D01*
X198146250Y-61052118D01*
X198115097Y-61026684D01*
X198046184Y-60960549D01*
X197735693Y-60650059D01*
X197621328Y-60764424D01*
X197495620Y-60764424D01*
X198009868Y-60250176D01*
X198135576Y-60250176D01*
X198906190Y-60615828D01*
X199028293Y-60493725D01*
X198663054Y-59722698D01*
X198541711Y-59844041D01*
X198823014Y-60402778D01*
X198259614Y-60126138D01*
X198135576Y-60250176D01*
X198009868Y-60250176D01*
X198663054Y-59596990D01*
X199367948Y-60301885D01*
G37*
G36*
X199527340Y-66642492D02*
G01*
X198140811Y-68029021D01*
X197435917Y-67324127D01*
X197561625Y-67324127D01*
X197865380Y-67627882D01*
X197958408Y-67714361D01*
X198021091Y-67761211D01*
X198064495Y-67781359D01*
X198116321Y-67792263D01*
X198152315Y-67792955D01*
X198190516Y-67787392D01*
X198231516Y-67774958D01*
X198269857Y-67755838D01*
X198316543Y-67722497D01*
X198373446Y-67670678D01*
X198416008Y-67623709D01*
X198445806Y-67581898D01*
X198465118Y-67544465D01*
X198478527Y-67504517D01*
X198485072Y-67467008D01*
X198485359Y-67431377D01*
X198479508Y-67396229D01*
X198467268Y-67361154D01*
X198448089Y-67325716D01*
X198404676Y-67269407D01*
X198312481Y-67171524D01*
X198013354Y-66872398D01*
X197898954Y-66986798D01*
X198216111Y-67303955D01*
X198277777Y-67368679D01*
X198308439Y-67406370D01*
X198321369Y-67430252D01*
X198327956Y-67456374D01*
X198328162Y-67485572D01*
X198321076Y-67513764D01*
X198304207Y-67544593D01*
X198274900Y-67579110D01*
X198240922Y-67607775D01*
X198208884Y-67625207D01*
X198178012Y-67633374D01*
X198146130Y-67633775D01*
X198115915Y-67626696D01*
X198086547Y-67611820D01*
X198055394Y-67586386D01*
X197986481Y-67520252D01*
X197675991Y-67209761D01*
X197561625Y-67324127D01*
X197435917Y-67324127D01*
X197953240Y-66806804D01*
X198078948Y-66806804D01*
X198782344Y-67239674D01*
X198906381Y-67115637D01*
X198594095Y-66578418D01*
X199131659Y-66890359D01*
X199253002Y-66769016D01*
X198822446Y-66063306D01*
X198707286Y-66178466D01*
X199017189Y-66662249D01*
X198521040Y-66364712D01*
X198385017Y-66500735D01*
X198671709Y-66994535D01*
X198196042Y-66689710D01*
X198078948Y-66806804D01*
X197953240Y-66806804D01*
X198822446Y-65937598D01*
X199527340Y-66642492D01*
G37*
D12*
G36*
X232063752Y-72552631D02*
G01*
X229667764Y-72552631D01*
X229667764Y-72063113D01*
X229767764Y-72063113D01*
X229772395Y-72190044D01*
X229783591Y-72267495D01*
X229800036Y-72312433D01*
X229828972Y-72356790D01*
X229853934Y-72382730D01*
X229884879Y-72405809D01*
X229922663Y-72426009D01*
X229963294Y-72439600D01*
X230019882Y-72449036D01*
X230096760Y-72452631D01*
X230160068Y-72449515D01*
X230210703Y-72441021D01*
X230250828Y-72428207D01*
X230288557Y-72409441D01*
X230319708Y-72387545D01*
X230345106Y-72362554D01*
X230365822Y-72333564D01*
X230381969Y-72300107D01*
X230393466Y-72261487D01*
X230402585Y-72190972D01*
X230406606Y-72056567D01*
X230406606Y-71633538D01*
X230499369Y-71633538D01*
X230690660Y-72437000D01*
X230866076Y-72437000D01*
X231025127Y-71836309D01*
X231184666Y-72437000D01*
X231356271Y-72437000D01*
X231509954Y-71802359D01*
X231567541Y-71802359D01*
X231628748Y-71817111D01*
X231706906Y-71832792D01*
X231685608Y-71854187D01*
X231603640Y-71941480D01*
X231686145Y-72005569D01*
X231762642Y-71877390D01*
X231836452Y-72002443D01*
X231920032Y-71944606D01*
X231888867Y-71907530D01*
X231823312Y-71832792D01*
X231963752Y-71805485D01*
X231934785Y-71708570D01*
X231844073Y-71746818D01*
X231797081Y-71768165D01*
X231808969Y-71669407D01*
X231811833Y-71621033D01*
X231714575Y-71621033D01*
X231717471Y-71681377D01*
X231727667Y-71766748D01*
X231668881Y-71735278D01*
X231599781Y-71705443D01*
X231567541Y-71802359D01*
X231509954Y-71802359D01*
X231550835Y-71633538D01*
X231387974Y-71633538D01*
X231265022Y-72194759D01*
X231124582Y-71633538D01*
X230932217Y-71633538D01*
X230785769Y-72185429D01*
X230664966Y-71633538D01*
X230499369Y-71633538D01*
X230406606Y-71633538D01*
X230244820Y-71633538D01*
X230244820Y-72082066D01*
X230242657Y-72171437D01*
X230237688Y-72219770D01*
X230229943Y-72245801D01*
X230216130Y-72268929D01*
X230195629Y-72289721D01*
X230170684Y-72304644D01*
X230136956Y-72314516D01*
X230091826Y-72318200D01*
X230047531Y-72314443D01*
X230012550Y-72304115D01*
X229984945Y-72288060D01*
X229962117Y-72265800D01*
X229945758Y-72239429D01*
X229935510Y-72208144D01*
X229931466Y-72168131D01*
X229929502Y-72072638D01*
X229929502Y-71633538D01*
X229767764Y-71633538D01*
X229767764Y-72063113D01*
X229667764Y-72063113D01*
X229667764Y-71521033D01*
X232063752Y-71521033D01*
X232063752Y-72552631D01*
G37*
D11*
G36*
X230796744Y-90371522D02*
G01*
X228718121Y-90371522D01*
X228718121Y-90051335D01*
X228807010Y-90051335D01*
X228816820Y-90101658D01*
X228833937Y-90145710D01*
X228858222Y-90184489D01*
X228890053Y-90218690D01*
X228927554Y-90246292D01*
X228969516Y-90266131D01*
X229016780Y-90278375D01*
X229070450Y-90282633D01*
X229126646Y-90277769D01*
X229176615Y-90263691D01*
X229221525Y-90240648D01*
X229262230Y-90208188D01*
X229296324Y-90168485D01*
X229320113Y-90125774D01*
X229334424Y-90079324D01*
X229339313Y-90028083D01*
X229334533Y-89981021D01*
X229320740Y-89940041D01*
X229298036Y-89903861D01*
X229267710Y-89873821D01*
X229231392Y-89851841D01*
X229187931Y-89837623D01*
X229232088Y-89808682D01*
X229264071Y-89777733D01*
X229285915Y-89744629D01*
X229298865Y-89708777D01*
X229303263Y-89669193D01*
X229299806Y-89633256D01*
X229289526Y-89599422D01*
X229272171Y-89567068D01*
X229246989Y-89535738D01*
X229210600Y-89504548D01*
X229168977Y-89482203D01*
X229121092Y-89468379D01*
X229065517Y-89463540D01*
X229386550Y-89463540D01*
X229672900Y-90267002D01*
X229845580Y-90267002D01*
X229922600Y-90051335D01*
X230175552Y-90051335D01*
X230185361Y-90101658D01*
X230202478Y-90145710D01*
X230226764Y-90184489D01*
X230258594Y-90218690D01*
X230296095Y-90246292D01*
X230338057Y-90266131D01*
X230385322Y-90278375D01*
X230438992Y-90282633D01*
X230495187Y-90277769D01*
X230545156Y-90263691D01*
X230590067Y-90240648D01*
X230630771Y-90208188D01*
X230664866Y-90168485D01*
X230688654Y-90125774D01*
X230702965Y-90079324D01*
X230707855Y-90028083D01*
X230703075Y-89981021D01*
X230689281Y-89940041D01*
X230666577Y-89903861D01*
X230636251Y-89873821D01*
X230599934Y-89851841D01*
X230556473Y-89837623D01*
X230600630Y-89808682D01*
X230632612Y-89777733D01*
X230654456Y-89744629D01*
X230667406Y-89708777D01*
X230671804Y-89669193D01*
X230668347Y-89633256D01*
X230658067Y-89599422D01*
X230640713Y-89567068D01*
X230615531Y-89535738D01*
X230579142Y-89504548D01*
X230537518Y-89482203D01*
X230489634Y-89468379D01*
X230434058Y-89463540D01*
X230390532Y-89466442D01*
X230350916Y-89474871D01*
X230314624Y-89488600D01*
X230281123Y-89507772D01*
X230253677Y-89530636D01*
X230231581Y-89557329D01*
X230214357Y-89587674D01*
X230199355Y-89626105D01*
X230187031Y-89674175D01*
X230328594Y-89698013D01*
X230335532Y-89664439D01*
X230346963Y-89638567D01*
X230362446Y-89618830D01*
X230382390Y-89603727D01*
X230404558Y-89594777D01*
X230429711Y-89591719D01*
X230455299Y-89594560D01*
X230476254Y-89602593D01*
X230493605Y-89615655D01*
X230506731Y-89632934D01*
X230514819Y-89653940D01*
X230517687Y-89679744D01*
X230513881Y-89709770D01*
X230502985Y-89734632D01*
X230484861Y-89755557D01*
X230461363Y-89770498D01*
X230430427Y-89779777D01*
X230389801Y-89782424D01*
X230372851Y-89906450D01*
X230412670Y-89897569D01*
X230443339Y-89894971D01*
X230471759Y-89898757D01*
X230496766Y-89909893D01*
X230519299Y-89928921D01*
X230536130Y-89953266D01*
X230546683Y-89983394D01*
X230550464Y-90020902D01*
X230546517Y-90060560D01*
X230535497Y-90092492D01*
X230517931Y-90118355D01*
X230494344Y-90138573D01*
X230467997Y-90150419D01*
X230437868Y-90154454D01*
X230409657Y-90150933D01*
X230384807Y-90140614D01*
X230362446Y-90123142D01*
X230345085Y-90100418D01*
X230332169Y-90070788D01*
X230324198Y-90032528D01*
X230175552Y-90051335D01*
X229922600Y-90051335D01*
X230132516Y-89463540D01*
X229960911Y-89463540D01*
X229764735Y-90057539D01*
X229561965Y-89463540D01*
X229386550Y-89463540D01*
X229065517Y-89463540D01*
X229021991Y-89466442D01*
X228982375Y-89474871D01*
X228946082Y-89488600D01*
X228912582Y-89507772D01*
X228885136Y-89530636D01*
X228863039Y-89557329D01*
X228845815Y-89587674D01*
X228830814Y-89626105D01*
X228818490Y-89674175D01*
X228960053Y-89698013D01*
X228966991Y-89664439D01*
X228978422Y-89638567D01*
X228993905Y-89618830D01*
X229013848Y-89603727D01*
X229036017Y-89594777D01*
X229061169Y-89591719D01*
X229086758Y-89594560D01*
X229107713Y-89602593D01*
X229125063Y-89615655D01*
X229138189Y-89632934D01*
X229146278Y-89653940D01*
X229149145Y-89679744D01*
X229145340Y-89709770D01*
X229134444Y-89734632D01*
X229116319Y-89755557D01*
X229092822Y-89770498D01*
X229061886Y-89779777D01*
X229021260Y-89782424D01*
X229004309Y-89906450D01*
X229044128Y-89897569D01*
X229074798Y-89894971D01*
X229103217Y-89898757D01*
X229128225Y-89909893D01*
X229150758Y-89928921D01*
X229167589Y-89953266D01*
X229178141Y-89983394D01*
X229181923Y-90020902D01*
X229177975Y-90060560D01*
X229166956Y-90092492D01*
X229149390Y-90118355D01*
X229125803Y-90138573D01*
X229099455Y-90150419D01*
X229069327Y-90154454D01*
X229041115Y-90150933D01*
X229016266Y-90140614D01*
X228993905Y-90123142D01*
X228976543Y-90100418D01*
X228963627Y-90070788D01*
X228955656Y-90032528D01*
X228807010Y-90051335D01*
X228718121Y-90051335D01*
X228718121Y-89374651D01*
X230796744Y-89374651D01*
X230796744Y-90371522D01*
G37*
G36*
X205255587Y-89941520D02*
G01*
X203630816Y-89941520D01*
X203630816Y-89463113D01*
X203719705Y-89463113D01*
X203724336Y-89590044D01*
X203735532Y-89667495D01*
X203751977Y-89712433D01*
X203780913Y-89756790D01*
X203805875Y-89782730D01*
X203836820Y-89805809D01*
X203874604Y-89826009D01*
X203915235Y-89839600D01*
X203971823Y-89849036D01*
X204048701Y-89852631D01*
X204112009Y-89849515D01*
X204162644Y-89841021D01*
X204202769Y-89828207D01*
X204240498Y-89809441D01*
X204271649Y-89787545D01*
X204297047Y-89762554D01*
X204317763Y-89733564D01*
X204333910Y-89700107D01*
X204345407Y-89661487D01*
X204354526Y-89590972D01*
X204358351Y-89463113D01*
X204527856Y-89463113D01*
X204532487Y-89590044D01*
X204543683Y-89667495D01*
X204560127Y-89712433D01*
X204589063Y-89756790D01*
X204614026Y-89782730D01*
X204644971Y-89805809D01*
X204682755Y-89826009D01*
X204723386Y-89839600D01*
X204779974Y-89849036D01*
X204856851Y-89852631D01*
X204920160Y-89849515D01*
X204970795Y-89841021D01*
X205010920Y-89828207D01*
X205048649Y-89809441D01*
X205079800Y-89787545D01*
X205105197Y-89762554D01*
X205125914Y-89733564D01*
X205142060Y-89700107D01*
X205153557Y-89661487D01*
X205162676Y-89590972D01*
X205166698Y-89456567D01*
X205166698Y-89033538D01*
X205004911Y-89033538D01*
X205004911Y-89482066D01*
X205002749Y-89571437D01*
X204997779Y-89619770D01*
X204990035Y-89645801D01*
X204976221Y-89668929D01*
X204955721Y-89689721D01*
X204930775Y-89704644D01*
X204897047Y-89714516D01*
X204851918Y-89718200D01*
X204807622Y-89714443D01*
X204772642Y-89704115D01*
X204745037Y-89688060D01*
X204722209Y-89665800D01*
X204705850Y-89639429D01*
X204695602Y-89608144D01*
X204691558Y-89568131D01*
X204689594Y-89472638D01*
X204689594Y-89033538D01*
X204527856Y-89033538D01*
X204527856Y-89463113D01*
X204358351Y-89463113D01*
X204358547Y-89456567D01*
X204358547Y-89033538D01*
X204196761Y-89033538D01*
X204196761Y-89482066D01*
X204194598Y-89571437D01*
X204189629Y-89619770D01*
X204181884Y-89645801D01*
X204168071Y-89668929D01*
X204147570Y-89689721D01*
X204122625Y-89704644D01*
X204088897Y-89714516D01*
X204043767Y-89718200D01*
X203999472Y-89714443D01*
X203964491Y-89704115D01*
X203936886Y-89688060D01*
X203914058Y-89665800D01*
X203897699Y-89639429D01*
X203887451Y-89608144D01*
X203883407Y-89568131D01*
X203881443Y-89472638D01*
X203881443Y-89033538D01*
X203719705Y-89033538D01*
X203719705Y-89463113D01*
X203630816Y-89463113D01*
X203630816Y-88944649D01*
X205255587Y-88944649D01*
X205255587Y-89941520D01*
G37*
D12*
G36*
X231908609Y-66052631D02*
G01*
X229822907Y-66052631D01*
X229822907Y-65563113D01*
X229922907Y-65563113D01*
X229927538Y-65690044D01*
X229938734Y-65767495D01*
X229955179Y-65812433D01*
X229984115Y-65856790D01*
X230009077Y-65882730D01*
X230040022Y-65905809D01*
X230077806Y-65926009D01*
X230118437Y-65939600D01*
X230175025Y-65949036D01*
X230251903Y-65952631D01*
X230315211Y-65949515D01*
X230365846Y-65941021D01*
X230405971Y-65928207D01*
X230443700Y-65909441D01*
X230474851Y-65887545D01*
X230500249Y-65862554D01*
X230520965Y-65833564D01*
X230537112Y-65800107D01*
X230548609Y-65761487D01*
X230557728Y-65690972D01*
X230561749Y-65556567D01*
X230561749Y-65133538D01*
X230650165Y-65133538D01*
X230936515Y-65937000D01*
X231109195Y-65937000D01*
X231335841Y-65302359D01*
X231412398Y-65302359D01*
X231473605Y-65317111D01*
X231551763Y-65332792D01*
X231530465Y-65354187D01*
X231448497Y-65441480D01*
X231531002Y-65505569D01*
X231607499Y-65377390D01*
X231681309Y-65502443D01*
X231764889Y-65444606D01*
X231733724Y-65407530D01*
X231668169Y-65332792D01*
X231808609Y-65305485D01*
X231779642Y-65208570D01*
X231688930Y-65246818D01*
X231641937Y-65268165D01*
X231653826Y-65169407D01*
X231656690Y-65121033D01*
X231559432Y-65121033D01*
X231562328Y-65181377D01*
X231572524Y-65266748D01*
X231513738Y-65235278D01*
X231444638Y-65205443D01*
X231412398Y-65302359D01*
X231335841Y-65302359D01*
X231396131Y-65133538D01*
X231224526Y-65133538D01*
X231028351Y-65727537D01*
X230825580Y-65133538D01*
X230650165Y-65133538D01*
X230561749Y-65133538D01*
X230399963Y-65133538D01*
X230399963Y-65582066D01*
X230397800Y-65671437D01*
X230392831Y-65719770D01*
X230385086Y-65745801D01*
X230371273Y-65768929D01*
X230350772Y-65789721D01*
X230325827Y-65804644D01*
X230292099Y-65814516D01*
X230246969Y-65818200D01*
X230202674Y-65814443D01*
X230167693Y-65804115D01*
X230140088Y-65788060D01*
X230117260Y-65765800D01*
X230100901Y-65739429D01*
X230090653Y-65708144D01*
X230086609Y-65668131D01*
X230084645Y-65572638D01*
X230084645Y-65133538D01*
X229922907Y-65133538D01*
X229922907Y-65563113D01*
X229822907Y-65563113D01*
X229822907Y-65021033D01*
X231908609Y-65021033D01*
X231908609Y-66052631D01*
G37*
D11*
G36*
X214393262Y-110961875D02*
G01*
X214390809Y-111052735D01*
X214385543Y-111094695D01*
X214370774Y-111136677D01*
X214347539Y-111169531D01*
X214315263Y-111195026D01*
X214269382Y-111215448D01*
X214213752Y-111227116D01*
X214125669Y-111231861D01*
X214037067Y-111227197D01*
X213977853Y-111215448D01*
X213942567Y-111202326D01*
X213917316Y-111188112D01*
X213899940Y-111173096D01*
X213880034Y-111144391D01*
X213866381Y-111107786D01*
X213860991Y-111073038D01*
X213858663Y-111009991D01*
X213858663Y-110889189D01*
X214393262Y-110889189D01*
X214393262Y-110961875D01*
G37*
G36*
X214629087Y-111487959D02*
G01*
X213619711Y-111487959D01*
X213619711Y-111009991D01*
X213724232Y-111009991D01*
X213724232Y-111031826D01*
X213729024Y-111116835D01*
X213741231Y-111175002D01*
X213759435Y-111221257D01*
X213780893Y-111258717D01*
X213805369Y-111288672D01*
X213844049Y-111322120D01*
X213890938Y-111350778D01*
X213947274Y-111374499D01*
X213995754Y-111387650D01*
X214052353Y-111396074D01*
X214118293Y-111399070D01*
X214193492Y-111395804D01*
X214256184Y-111386745D01*
X214308167Y-111372838D01*
X214357751Y-111352242D01*
X214400906Y-111326736D01*
X214438349Y-111296341D01*
X214470263Y-111260514D01*
X214494813Y-111220451D01*
X214512354Y-111175539D01*
X214523232Y-111117112D01*
X214527693Y-111023083D01*
X214527693Y-110727451D01*
X213724232Y-110727451D01*
X213724232Y-111009991D01*
X213619711Y-111009991D01*
X213619711Y-110590919D01*
X213724232Y-110590919D01*
X213858663Y-110590919D01*
X213858663Y-110143320D01*
X214080631Y-110143320D01*
X214080631Y-110545539D01*
X214215062Y-110545539D01*
X214215062Y-110143320D01*
X214393262Y-110143320D01*
X214393262Y-110575630D01*
X214527693Y-110575630D01*
X214527693Y-109981582D01*
X213724232Y-109981582D01*
X213724232Y-110590919D01*
X213619711Y-110590919D01*
X213619711Y-109866055D01*
X213724232Y-109866055D01*
X213858663Y-109866055D01*
X213858663Y-109463836D01*
X214518314Y-109463836D01*
X214518314Y-109302050D01*
X213724232Y-109302050D01*
X213724232Y-109866055D01*
X213619711Y-109866055D01*
X213619711Y-108840919D01*
X213708600Y-108840919D01*
X213712233Y-108910212D01*
X213722316Y-108967716D01*
X213737860Y-109015260D01*
X213761190Y-109058910D01*
X213790889Y-109094662D01*
X213827351Y-109123459D01*
X213868833Y-109144854D01*
X213911646Y-109157482D01*
X213956506Y-109161708D01*
X214006348Y-109157857D01*
X214048493Y-109146987D01*
X214084294Y-109129712D01*
X214116176Y-109105831D01*
X214143252Y-109076523D01*
X214165823Y-109041198D01*
X214192898Y-108976338D01*
X214224001Y-108866614D01*
X214246076Y-108786720D01*
X214263933Y-108740987D01*
X214278077Y-108717967D01*
X214300725Y-108699789D01*
X214326876Y-108693934D01*
X214346387Y-108696821D01*
X214362720Y-108705224D01*
X214376702Y-108719628D01*
X214392085Y-108747676D01*
X214402096Y-108783768D01*
X214405767Y-108830026D01*
X214402241Y-108874913D01*
X214392844Y-108908158D01*
X214378753Y-108932461D01*
X214358379Y-108951561D01*
X214329619Y-108966586D01*
X214290093Y-108977011D01*
X214296346Y-109138798D01*
X214350461Y-109132047D01*
X214397229Y-109116389D01*
X214438004Y-109092118D01*
X214473715Y-109058735D01*
X214501029Y-109019257D01*
X214521774Y-108969782D01*
X214535286Y-108908131D01*
X214540198Y-108831638D01*
X214536781Y-108770522D01*
X214527171Y-108718417D01*
X214512110Y-108674004D01*
X214490027Y-108633100D01*
X214462828Y-108600084D01*
X214430289Y-108573962D01*
X214393278Y-108554556D01*
X214355053Y-108543110D01*
X214314957Y-108539279D01*
X214268687Y-108543926D01*
X214226806Y-108557545D01*
X214188298Y-108580270D01*
X214152487Y-108613041D01*
X214125695Y-108650936D01*
X214098733Y-108709548D01*
X214072326Y-108795588D01*
X214036765Y-108925085D01*
X214019709Y-108962477D01*
X214002571Y-108983313D01*
X213981098Y-108995717D01*
X213954943Y-108999970D01*
X213927651Y-108995752D01*
X213902558Y-108982990D01*
X213878740Y-108960354D01*
X213861661Y-108932069D01*
X213850371Y-108893807D01*
X213846158Y-108842580D01*
X213850605Y-108794650D01*
X213862955Y-108756237D01*
X213882452Y-108725344D01*
X213909503Y-108700829D01*
X213946555Y-108681426D01*
X213996220Y-108667702D01*
X213980589Y-108510312D01*
X213915002Y-108523179D01*
X213860518Y-108543968D01*
X213815321Y-108572080D01*
X213778063Y-108607570D01*
X213749261Y-108649716D01*
X213727599Y-108701295D01*
X213713633Y-108764238D01*
X213708600Y-108840919D01*
X213619711Y-108840919D01*
X213619711Y-108421423D01*
X214629087Y-108421423D01*
X214629087Y-111487959D01*
G37*
G36*
X229525559Y-77041520D02*
G01*
X226987662Y-77041520D01*
X226987662Y-76721333D01*
X227076551Y-76721333D01*
X227086361Y-76771656D01*
X227103478Y-76815708D01*
X227127763Y-76854487D01*
X227159594Y-76888688D01*
X227197095Y-76916290D01*
X227239057Y-76936129D01*
X227286321Y-76948373D01*
X227339991Y-76952631D01*
X227396187Y-76947767D01*
X227446156Y-76933689D01*
X227491066Y-76910646D01*
X227531771Y-76878186D01*
X227565865Y-76838483D01*
X227589654Y-76795772D01*
X227603965Y-76749322D01*
X227608854Y-76698081D01*
X227604074Y-76651019D01*
X227590281Y-76610039D01*
X227567577Y-76573859D01*
X227537251Y-76543819D01*
X227500933Y-76521839D01*
X227457472Y-76507621D01*
X227501629Y-76478680D01*
X227533612Y-76447731D01*
X227555456Y-76414627D01*
X227568406Y-76378775D01*
X227572804Y-76339191D01*
X227569347Y-76303254D01*
X227559067Y-76269420D01*
X227541712Y-76237066D01*
X227516530Y-76205736D01*
X227480141Y-76174546D01*
X227438518Y-76152201D01*
X227390633Y-76138377D01*
X227335058Y-76133538D01*
X227656091Y-76133538D01*
X227942441Y-76937000D01*
X228115121Y-76937000D01*
X228192141Y-76721333D01*
X228445093Y-76721333D01*
X228454902Y-76771656D01*
X228472019Y-76815708D01*
X228496305Y-76854487D01*
X228528135Y-76888688D01*
X228565636Y-76916290D01*
X228607598Y-76936129D01*
X228654863Y-76948373D01*
X228708533Y-76952631D01*
X228764728Y-76947767D01*
X228814697Y-76933689D01*
X228859608Y-76910646D01*
X228900312Y-76878186D01*
X228934407Y-76838483D01*
X228958195Y-76795772D01*
X228972506Y-76749322D01*
X228977396Y-76698081D01*
X228972616Y-76651019D01*
X228958822Y-76610039D01*
X228936118Y-76573859D01*
X228905792Y-76543819D01*
X228869475Y-76521839D01*
X228826014Y-76507621D01*
X228870171Y-76478680D01*
X228902153Y-76447731D01*
X228923997Y-76414627D01*
X228936947Y-76378775D01*
X228941345Y-76339191D01*
X228937888Y-76303254D01*
X228937616Y-76302359D01*
X229040459Y-76302359D01*
X229101666Y-76317111D01*
X229179824Y-76332792D01*
X229158526Y-76354187D01*
X229076558Y-76441480D01*
X229159063Y-76505569D01*
X229235560Y-76377390D01*
X229309370Y-76502443D01*
X229392950Y-76444606D01*
X229361785Y-76407530D01*
X229296230Y-76332792D01*
X229436670Y-76305485D01*
X229407703Y-76208570D01*
X229316991Y-76246818D01*
X229269998Y-76268165D01*
X229281887Y-76169407D01*
X229284751Y-76121033D01*
X229187493Y-76121033D01*
X229190389Y-76181377D01*
X229200585Y-76266748D01*
X229141799Y-76235278D01*
X229072699Y-76205443D01*
X229040459Y-76302359D01*
X228937616Y-76302359D01*
X228927608Y-76269420D01*
X228910254Y-76237066D01*
X228885072Y-76205736D01*
X228848683Y-76174546D01*
X228807059Y-76152201D01*
X228759175Y-76138377D01*
X228703599Y-76133538D01*
X228660073Y-76136440D01*
X228620457Y-76144869D01*
X228584165Y-76158598D01*
X228550664Y-76177770D01*
X228523218Y-76200634D01*
X228501122Y-76227327D01*
X228483898Y-76257672D01*
X228468896Y-76296103D01*
X228456572Y-76344173D01*
X228598135Y-76368011D01*
X228605073Y-76334437D01*
X228616504Y-76308565D01*
X228631987Y-76288828D01*
X228651931Y-76273725D01*
X228674099Y-76264775D01*
X228699252Y-76261717D01*
X228724840Y-76264558D01*
X228745795Y-76272591D01*
X228763146Y-76285653D01*
X228776272Y-76302932D01*
X228784360Y-76323938D01*
X228787228Y-76349742D01*
X228783422Y-76379768D01*
X228772526Y-76404630D01*
X228754402Y-76425555D01*
X228730904Y-76440496D01*
X228699968Y-76449775D01*
X228659342Y-76452422D01*
X228642392Y-76576448D01*
X228682211Y-76567567D01*
X228712880Y-76564969D01*
X228741300Y-76568755D01*
X228766307Y-76579891D01*
X228788840Y-76598919D01*
X228805671Y-76623264D01*
X228816224Y-76653392D01*
X228820005Y-76690900D01*
X228816058Y-76730558D01*
X228805038Y-76762490D01*
X228787472Y-76788353D01*
X228763885Y-76808571D01*
X228737538Y-76820417D01*
X228707409Y-76824452D01*
X228679198Y-76820931D01*
X228654348Y-76810612D01*
X228631987Y-76793140D01*
X228614626Y-76770416D01*
X228601710Y-76740786D01*
X228593739Y-76702526D01*
X228445093Y-76721333D01*
X228192141Y-76721333D01*
X228402057Y-76133538D01*
X228230452Y-76133538D01*
X228034276Y-76727537D01*
X227831506Y-76133538D01*
X227656091Y-76133538D01*
X227335058Y-76133538D01*
X227291532Y-76136440D01*
X227251916Y-76144869D01*
X227215623Y-76158598D01*
X227182123Y-76177770D01*
X227154677Y-76200634D01*
X227132580Y-76227327D01*
X227115356Y-76257672D01*
X227100355Y-76296103D01*
X227088031Y-76344173D01*
X227229594Y-76368011D01*
X227236532Y-76334437D01*
X227247963Y-76308565D01*
X227263446Y-76288828D01*
X227283389Y-76273725D01*
X227305558Y-76264775D01*
X227330710Y-76261717D01*
X227356299Y-76264558D01*
X227377254Y-76272591D01*
X227394604Y-76285653D01*
X227407730Y-76302932D01*
X227415819Y-76323938D01*
X227418686Y-76349742D01*
X227414881Y-76379768D01*
X227403985Y-76404630D01*
X227385860Y-76425555D01*
X227362363Y-76440496D01*
X227331427Y-76449775D01*
X227290801Y-76452422D01*
X227273850Y-76576448D01*
X227313669Y-76567567D01*
X227344339Y-76564969D01*
X227372758Y-76568755D01*
X227397766Y-76579891D01*
X227420299Y-76598919D01*
X227437130Y-76623264D01*
X227447682Y-76653392D01*
X227451464Y-76690900D01*
X227447516Y-76730558D01*
X227436497Y-76762490D01*
X227418931Y-76788353D01*
X227395344Y-76808571D01*
X227368996Y-76820417D01*
X227338868Y-76824452D01*
X227310656Y-76820931D01*
X227285807Y-76810612D01*
X227263446Y-76793140D01*
X227246084Y-76770416D01*
X227233168Y-76740786D01*
X227225197Y-76702526D01*
X227076551Y-76721333D01*
X226987662Y-76721333D01*
X226987662Y-76032144D01*
X229525559Y-76032144D01*
X229525559Y-77041520D01*
G37*
D12*
G36*
X231939481Y-59552631D02*
G01*
X229792035Y-59552631D01*
X229792035Y-59063113D01*
X229892035Y-59063113D01*
X229896666Y-59190044D01*
X229907862Y-59267495D01*
X229924307Y-59312433D01*
X229953243Y-59356790D01*
X229978205Y-59382730D01*
X230009150Y-59405809D01*
X230046934Y-59426009D01*
X230087565Y-59439600D01*
X230144153Y-59449036D01*
X230221031Y-59452631D01*
X230284339Y-59449515D01*
X230334974Y-59441021D01*
X230375099Y-59428207D01*
X230412828Y-59409441D01*
X230443979Y-59387545D01*
X230469377Y-59362554D01*
X230490093Y-59333564D01*
X230506240Y-59300107D01*
X230517737Y-59261487D01*
X230526856Y-59190972D01*
X230530681Y-59063113D01*
X230700186Y-59063113D01*
X230704817Y-59190044D01*
X230716013Y-59267495D01*
X230732457Y-59312433D01*
X230761393Y-59356790D01*
X230786356Y-59382730D01*
X230817301Y-59405809D01*
X230855085Y-59426009D01*
X230895716Y-59439600D01*
X230952304Y-59449036D01*
X231029181Y-59452631D01*
X231092490Y-59449515D01*
X231143125Y-59441021D01*
X231183250Y-59428207D01*
X231220979Y-59409441D01*
X231252130Y-59387545D01*
X231277527Y-59362554D01*
X231298244Y-59333564D01*
X231314390Y-59300107D01*
X231325887Y-59261487D01*
X231335006Y-59190972D01*
X231339028Y-59056567D01*
X231339028Y-58802359D01*
X231443271Y-58802359D01*
X231504478Y-58817111D01*
X231582636Y-58832792D01*
X231561338Y-58854187D01*
X231479370Y-58941480D01*
X231561875Y-59005569D01*
X231638372Y-58877390D01*
X231712182Y-59002443D01*
X231795762Y-58944606D01*
X231764596Y-58907530D01*
X231699042Y-58832792D01*
X231839481Y-58805485D01*
X231810514Y-58708570D01*
X231719802Y-58746818D01*
X231672810Y-58768165D01*
X231684699Y-58669407D01*
X231687562Y-58621033D01*
X231590305Y-58621033D01*
X231593201Y-58681377D01*
X231603396Y-58766748D01*
X231544610Y-58735278D01*
X231475511Y-58705443D01*
X231443271Y-58802359D01*
X231339028Y-58802359D01*
X231339028Y-58633538D01*
X231177241Y-58633538D01*
X231177241Y-59082066D01*
X231175079Y-59171437D01*
X231170109Y-59219770D01*
X231162365Y-59245801D01*
X231148551Y-59268929D01*
X231128051Y-59289721D01*
X231103105Y-59304644D01*
X231069377Y-59314516D01*
X231024248Y-59318200D01*
X230979952Y-59314443D01*
X230944972Y-59304115D01*
X230917367Y-59288060D01*
X230894539Y-59265800D01*
X230878180Y-59239429D01*
X230867932Y-59208144D01*
X230863888Y-59168131D01*
X230861924Y-59072638D01*
X230861924Y-58633538D01*
X230700186Y-58633538D01*
X230700186Y-59063113D01*
X230530681Y-59063113D01*
X230530877Y-59056567D01*
X230530877Y-58633538D01*
X230369091Y-58633538D01*
X230369091Y-59082066D01*
X230366928Y-59171437D01*
X230361959Y-59219770D01*
X230354214Y-59245801D01*
X230340401Y-59268929D01*
X230319900Y-59289721D01*
X230294955Y-59304644D01*
X230261227Y-59314516D01*
X230216097Y-59318200D01*
X230171802Y-59314443D01*
X230136821Y-59304115D01*
X230109216Y-59288060D01*
X230086388Y-59265800D01*
X230070029Y-59239429D01*
X230059781Y-59208144D01*
X230055737Y-59168131D01*
X230053773Y-59072638D01*
X230053773Y-58633538D01*
X229892035Y-58633538D01*
X229892035Y-59063113D01*
X229792035Y-59063113D01*
X229792035Y-58521033D01*
X231939481Y-58521033D01*
X231939481Y-59552631D01*
G37*
D11*
G36*
X201352334Y-102933202D02*
G01*
X201414848Y-102999184D01*
X201440794Y-103032577D01*
X201460037Y-103072706D01*
X201466838Y-103112367D01*
X201462043Y-103153218D01*
X201444041Y-103200102D01*
X201412955Y-103247688D01*
X201354027Y-103313327D01*
X201288077Y-103372680D01*
X201237900Y-103406243D01*
X201203670Y-103421915D01*
X201175764Y-103429720D01*
X201152859Y-103431389D01*
X201118486Y-103425167D01*
X201082948Y-103408937D01*
X201054566Y-103388178D01*
X201008339Y-103345243D01*
X200922919Y-103259823D01*
X201300937Y-102881805D01*
X201352334Y-102933202D01*
G37*
G36*
X199478857Y-101559328D02*
G01*
X199324285Y-101404756D01*
X199613015Y-101269044D01*
X199478857Y-101559328D01*
G37*
G36*
X201891085Y-103138446D02*
G01*
X201177349Y-103852182D01*
X200565682Y-103240515D01*
X200713496Y-103240515D01*
X200732804Y-103259823D01*
X200928722Y-103455741D01*
X200992221Y-103512462D01*
X201041982Y-103544960D01*
X201087563Y-103564796D01*
X201129223Y-103576110D01*
X201167712Y-103579985D01*
X201218714Y-103576286D01*
X201272134Y-103563394D01*
X201328743Y-103540332D01*
X201372322Y-103515350D01*
X201418301Y-103481286D01*
X201467046Y-103436778D01*
X201517910Y-103381294D01*
X201555835Y-103330559D01*
X201582758Y-103283967D01*
X201603255Y-103234343D01*
X201615735Y-103185792D01*
X201620719Y-103137824D01*
X201617952Y-103089923D01*
X201606983Y-103044235D01*
X201587629Y-103000074D01*
X201554006Y-102951068D01*
X201490672Y-102881425D01*
X201281629Y-102672382D01*
X200713496Y-103240515D01*
X200565682Y-103240515D01*
X199995787Y-102670620D01*
X200143601Y-102670620D01*
X200249850Y-102776869D01*
X200624518Y-102402201D01*
X200478236Y-103005255D01*
X200593016Y-103120035D01*
X201161149Y-102551902D01*
X201054866Y-102445619D01*
X200674533Y-102825952D01*
X200823026Y-102213779D01*
X200711734Y-102102487D01*
X200143601Y-102670620D01*
X199995787Y-102670620D01*
X199362255Y-102037088D01*
X199653550Y-102037088D01*
X199655662Y-102088379D01*
X199665932Y-102140241D01*
X199683479Y-102189807D01*
X199708501Y-102238178D01*
X199741565Y-102285694D01*
X199783475Y-102332600D01*
X199832528Y-102375874D01*
X199887185Y-102413110D01*
X199947960Y-102444445D01*
X200012295Y-102469127D01*
X200066794Y-102482869D01*
X200113067Y-102487621D01*
X200339691Y-102260997D01*
X200093171Y-102014476D01*
X199998114Y-102109534D01*
X200129094Y-102240514D01*
X200056385Y-102313223D01*
X200010134Y-102303896D01*
X199959773Y-102285832D01*
X199912581Y-102260171D01*
X199873420Y-102228010D01*
X199841360Y-102189274D01*
X199820143Y-102148848D01*
X199808687Y-102105998D01*
X199806790Y-102059691D01*
X199814751Y-102014961D01*
X199833920Y-101967834D01*
X199866253Y-101917266D01*
X199914524Y-101862357D01*
X199965351Y-101818002D01*
X200012796Y-101788415D01*
X200057670Y-101771115D01*
X200100943Y-101764433D01*
X200145250Y-101767373D01*
X200187307Y-101779760D01*
X200228032Y-101802091D01*
X200268088Y-101835691D01*
X200297378Y-101870776D01*
X200316335Y-101906162D01*
X200326255Y-101942493D01*
X200327793Y-101980122D01*
X200320846Y-102016955D01*
X200304978Y-102053853D01*
X200440690Y-102145353D01*
X200466757Y-102096388D01*
X200482619Y-102047542D01*
X200489022Y-101998104D01*
X200486111Y-101947259D01*
X200474004Y-101898712D01*
X200451052Y-101848239D01*
X200415591Y-101795035D01*
X200365355Y-101738424D01*
X200308334Y-101688342D01*
X200253908Y-101653312D01*
X200201389Y-101631104D01*
X200146790Y-101617851D01*
X200093239Y-101613104D01*
X200040137Y-101616591D01*
X199986888Y-101628410D01*
X199935908Y-101647476D01*
X199886616Y-101673619D01*
X199838700Y-101707295D01*
X199791938Y-101749166D01*
X199741928Y-101806728D01*
X199702754Y-101868117D01*
X199673703Y-101933857D01*
X199659478Y-101985776D01*
X199653550Y-102037088D01*
X199362255Y-102037088D01*
X198760975Y-101435808D01*
X198772028Y-101424755D01*
X198897736Y-101424755D01*
X199019079Y-101546098D01*
X199194065Y-101464650D01*
X199420482Y-101691068D01*
X199341728Y-101868747D01*
X199466180Y-101993199D01*
X199807481Y-101198234D01*
X199686518Y-101077271D01*
X198943133Y-101404756D01*
X198897736Y-101424755D01*
X198772028Y-101424755D01*
X199474711Y-100722072D01*
X201891085Y-103138446D01*
G37*
G36*
X276221347Y-54520422D02*
G01*
X276263306Y-54525688D01*
X276305288Y-54540457D01*
X276338142Y-54563692D01*
X276363638Y-54595968D01*
X276384060Y-54641849D01*
X276395727Y-54697479D01*
X276400473Y-54785562D01*
X276395808Y-54874164D01*
X276384060Y-54933378D01*
X276370937Y-54968664D01*
X276356724Y-54993915D01*
X276341708Y-55011291D01*
X276313003Y-55031197D01*
X276276397Y-55044850D01*
X276241650Y-55050240D01*
X276178602Y-55052568D01*
X276057800Y-55052568D01*
X276057800Y-54517969D01*
X276130487Y-54517969D01*
X276221347Y-54520422D01*
G37*
G36*
X277123709Y-55291520D02*
G01*
X274100991Y-55291520D01*
X274100991Y-54784096D01*
X274189880Y-54784096D01*
X274195220Y-54860161D01*
X274210928Y-54931270D01*
X274236872Y-54998297D01*
X274263525Y-55045068D01*
X274295616Y-55085544D01*
X274333378Y-55120318D01*
X274377311Y-55149728D01*
X274424768Y-55172369D01*
X274476665Y-55188879D01*
X274533643Y-55199099D01*
X274596446Y-55202631D01*
X274661731Y-55198544D01*
X274722625Y-55187000D01*
X275090110Y-55187000D01*
X275240368Y-55187000D01*
X275240368Y-54657139D01*
X275563355Y-55187000D01*
X275725679Y-55187000D01*
X275725679Y-55052568D01*
X275896062Y-55052568D01*
X275896062Y-55187000D01*
X276200438Y-55187000D01*
X276285447Y-55182207D01*
X276343613Y-55170000D01*
X276389869Y-55151796D01*
X276427328Y-55130338D01*
X276457284Y-55105862D01*
X276490732Y-55067182D01*
X276519389Y-55020293D01*
X276543111Y-54963957D01*
X276556261Y-54915477D01*
X276564686Y-54858878D01*
X276567681Y-54792938D01*
X276564415Y-54717739D01*
X276555356Y-54655047D01*
X276541450Y-54603064D01*
X276520853Y-54553480D01*
X276520190Y-54552359D01*
X276638609Y-54552359D01*
X276699817Y-54567111D01*
X276777974Y-54582792D01*
X276756676Y-54604187D01*
X276674709Y-54691480D01*
X276757214Y-54755569D01*
X276833711Y-54627390D01*
X276907521Y-54752443D01*
X276991101Y-54694606D01*
X276959935Y-54657530D01*
X276894381Y-54582792D01*
X277034820Y-54555485D01*
X277005853Y-54458570D01*
X276915141Y-54496818D01*
X276868149Y-54518165D01*
X276880038Y-54419407D01*
X276882901Y-54371033D01*
X276785644Y-54371033D01*
X276788540Y-54431377D01*
X276798735Y-54516748D01*
X276739949Y-54485278D01*
X276670850Y-54455443D01*
X276638609Y-54552359D01*
X276520190Y-54552359D01*
X276495347Y-54510325D01*
X276464953Y-54472882D01*
X276429125Y-54440968D01*
X276389063Y-54416418D01*
X276344150Y-54398877D01*
X276285723Y-54387999D01*
X276191694Y-54383538D01*
X275896062Y-54383538D01*
X275896062Y-55052568D01*
X275725679Y-55052568D01*
X275725679Y-54383538D01*
X275575372Y-54383538D01*
X275575372Y-54921410D01*
X275247500Y-54383538D01*
X275090110Y-54383538D01*
X275090110Y-55187000D01*
X274722625Y-55187000D01*
X274726708Y-55186226D01*
X274791840Y-55165408D01*
X274854785Y-55137370D01*
X274903039Y-55108550D01*
X274939119Y-55079191D01*
X274939119Y-54758695D01*
X274590487Y-54758695D01*
X274590487Y-54893127D01*
X274775720Y-54893127D01*
X274775720Y-54995953D01*
X274736421Y-55022062D01*
X274688037Y-55044899D01*
X274636523Y-55060124D01*
X274586090Y-55065073D01*
X274536030Y-55060353D01*
X274492442Y-55046770D01*
X274454041Y-55024571D01*
X274419956Y-54993168D01*
X274393956Y-54955911D01*
X274374187Y-54909032D01*
X274361294Y-54850413D01*
X274356600Y-54777453D01*
X274361176Y-54710149D01*
X274373804Y-54655679D01*
X274393301Y-54611716D01*
X274419175Y-54576392D01*
X274452583Y-54547142D01*
X274491081Y-54526162D01*
X274535669Y-54513155D01*
X274587751Y-54508591D01*
X274633271Y-54512688D01*
X274671698Y-54524305D01*
X274704402Y-54542980D01*
X274732097Y-54568501D01*
X274753229Y-54599457D01*
X274768100Y-54636769D01*
X274928763Y-54605506D01*
X274912572Y-54552450D01*
X274889249Y-54506696D01*
X274858818Y-54467210D01*
X274820808Y-54433315D01*
X274777919Y-54407548D01*
X274725999Y-54388088D01*
X274663303Y-54375542D01*
X274587751Y-54371033D01*
X274512018Y-54375940D01*
X274448763Y-54389655D01*
X274395923Y-54411089D01*
X274347944Y-54440325D01*
X274306722Y-54474834D01*
X274271639Y-54514849D01*
X274242343Y-54560859D01*
X274219776Y-54610389D01*
X274203408Y-54663729D01*
X274193339Y-54721423D01*
X274189880Y-54784096D01*
X274100991Y-54784096D01*
X274100991Y-54282144D01*
X277123709Y-54282144D01*
X277123709Y-55291520D01*
G37*
G36*
X220801806Y-88330424D02*
G01*
X220843765Y-88335690D01*
X220885747Y-88350459D01*
X220918601Y-88373694D01*
X220944097Y-88405970D01*
X220964519Y-88451851D01*
X220976186Y-88507481D01*
X220980932Y-88595564D01*
X220976267Y-88684166D01*
X220964519Y-88743380D01*
X220951396Y-88778666D01*
X220937183Y-88803917D01*
X220922167Y-88821293D01*
X220893462Y-88841199D01*
X220856856Y-88854852D01*
X220822109Y-88860242D01*
X220759061Y-88862570D01*
X220638259Y-88862570D01*
X220638259Y-88327971D01*
X220710946Y-88327971D01*
X220801806Y-88330424D01*
G37*
G36*
X221237029Y-89101522D02*
G01*
X218681450Y-89101522D01*
X218681450Y-88594098D01*
X218770339Y-88594098D01*
X218775679Y-88670163D01*
X218791387Y-88741272D01*
X218817331Y-88808299D01*
X218843984Y-88855070D01*
X218876075Y-88895546D01*
X218913837Y-88930320D01*
X218957770Y-88959730D01*
X219005227Y-88982371D01*
X219057124Y-88998881D01*
X219114102Y-89009101D01*
X219176905Y-89012633D01*
X219242190Y-89008546D01*
X219303084Y-88997002D01*
X219670569Y-88997002D01*
X219820827Y-88997002D01*
X219820827Y-88467141D01*
X220143814Y-88997002D01*
X220306138Y-88997002D01*
X220306138Y-88862570D01*
X220476521Y-88862570D01*
X220476521Y-88997002D01*
X220780897Y-88997002D01*
X220865906Y-88992209D01*
X220924072Y-88980002D01*
X220970328Y-88961798D01*
X221007787Y-88940340D01*
X221037743Y-88915864D01*
X221071191Y-88877184D01*
X221099848Y-88830295D01*
X221123570Y-88773959D01*
X221136720Y-88725479D01*
X221145145Y-88668880D01*
X221148140Y-88602940D01*
X221144874Y-88527741D01*
X221135815Y-88465049D01*
X221121909Y-88413066D01*
X221101312Y-88363482D01*
X221075806Y-88320327D01*
X221045412Y-88282884D01*
X221009584Y-88250970D01*
X220969522Y-88226420D01*
X220924609Y-88208879D01*
X220866182Y-88198001D01*
X220772153Y-88193540D01*
X220476521Y-88193540D01*
X220476521Y-88862570D01*
X220306138Y-88862570D01*
X220306138Y-88193540D01*
X220155831Y-88193540D01*
X220155831Y-88731412D01*
X219827959Y-88193540D01*
X219670569Y-88193540D01*
X219670569Y-88997002D01*
X219303084Y-88997002D01*
X219307167Y-88996228D01*
X219372299Y-88975410D01*
X219435244Y-88947372D01*
X219483498Y-88918552D01*
X219519578Y-88889193D01*
X219519578Y-88568697D01*
X219170946Y-88568697D01*
X219170946Y-88703129D01*
X219356179Y-88703129D01*
X219356179Y-88805955D01*
X219316880Y-88832064D01*
X219268496Y-88854901D01*
X219216982Y-88870126D01*
X219166549Y-88875075D01*
X219116489Y-88870355D01*
X219072901Y-88856772D01*
X219034500Y-88834573D01*
X219000415Y-88803170D01*
X218974415Y-88765913D01*
X218954646Y-88719034D01*
X218941753Y-88660415D01*
X218937059Y-88587455D01*
X218941635Y-88520151D01*
X218954263Y-88465681D01*
X218973760Y-88421718D01*
X218999634Y-88386394D01*
X219033042Y-88357144D01*
X219071540Y-88336164D01*
X219116128Y-88323157D01*
X219168210Y-88318593D01*
X219213730Y-88322690D01*
X219252157Y-88334307D01*
X219284861Y-88352982D01*
X219312556Y-88378503D01*
X219333688Y-88409459D01*
X219348559Y-88446771D01*
X219509222Y-88415508D01*
X219493031Y-88362452D01*
X219469708Y-88316698D01*
X219439277Y-88277212D01*
X219401267Y-88243317D01*
X219358378Y-88217550D01*
X219306458Y-88198090D01*
X219243762Y-88185544D01*
X219168210Y-88181035D01*
X219092477Y-88185942D01*
X219029222Y-88199657D01*
X218976382Y-88221091D01*
X218928403Y-88250327D01*
X218887181Y-88284836D01*
X218852098Y-88324851D01*
X218822802Y-88370861D01*
X218800235Y-88420391D01*
X218783867Y-88473731D01*
X218773798Y-88531425D01*
X218770339Y-88594098D01*
X218681450Y-88594098D01*
X218681450Y-88092146D01*
X221237029Y-88092146D01*
X221237029Y-89101522D01*
G37*
G36*
X211193262Y-110829740D02*
G01*
X211190477Y-110947807D01*
X211178805Y-110983407D01*
X211158579Y-111008721D01*
X211140657Y-111020408D01*
X211118898Y-111027711D01*
X211092292Y-111030312D01*
X211057901Y-111025978D01*
X211031280Y-111013899D01*
X211010588Y-110994506D01*
X210996890Y-110968568D01*
X210990291Y-110928963D01*
X210986925Y-110823194D01*
X210986925Y-110703515D01*
X211193262Y-110703515D01*
X211193262Y-110829740D01*
G37*
G36*
X211193262Y-108977988D02*
G01*
X211191480Y-109058189D01*
X211187693Y-109094395D01*
X211180371Y-109119317D01*
X211168392Y-109140799D01*
X211151545Y-109159412D01*
X211130965Y-109173469D01*
X211106815Y-109182084D01*
X211078125Y-109185106D01*
X211043820Y-109180416D01*
X211014720Y-109166788D01*
X210991254Y-109145166D01*
X210974713Y-109116230D01*
X210965990Y-109076095D01*
X210961915Y-108988344D01*
X210961915Y-108899831D01*
X211193262Y-108899831D01*
X211193262Y-108977988D01*
G37*
G36*
X211416582Y-111350890D02*
G01*
X210435343Y-111350890D01*
X210435343Y-110703515D01*
X210524232Y-110703515D01*
X210858747Y-110703515D01*
X210858747Y-110736293D01*
X210856047Y-110788243D01*
X210849710Y-110817723D01*
X210846931Y-110823194D01*
X210837327Y-110842104D01*
X210816444Y-110866376D01*
X210783044Y-110893206D01*
X210698816Y-110951617D01*
X210524232Y-111068561D01*
X210524232Y-111262001D01*
X210680547Y-111164206D01*
X210766015Y-111107777D01*
X210810631Y-111072078D01*
X210844935Y-111034417D01*
X210877895Y-110985469D01*
X210889183Y-111037917D01*
X210905634Y-111080844D01*
X210926711Y-111115784D01*
X210952292Y-111143934D01*
X210983228Y-111166806D01*
X211017971Y-111183267D01*
X211057236Y-111193440D01*
X211101964Y-111196984D01*
X211148552Y-111192963D01*
X211190544Y-111181263D01*
X211228823Y-111162008D01*
X211262444Y-111135738D01*
X211287903Y-111104865D01*
X211306004Y-111068805D01*
X211316810Y-111028894D01*
X211324630Y-110968801D01*
X211327693Y-110882203D01*
X211327693Y-110541729D01*
X210524232Y-110541729D01*
X210524232Y-110703515D01*
X210435343Y-110703515D01*
X210435343Y-109598170D01*
X210524232Y-109598170D01*
X210524232Y-109773585D01*
X211124922Y-109932636D01*
X210524232Y-110092175D01*
X210524232Y-110263780D01*
X211327693Y-110458344D01*
X211327693Y-110295483D01*
X210766472Y-110172531D01*
X211327693Y-110032092D01*
X211327693Y-109839726D01*
X210775802Y-109693278D01*
X211327693Y-109572475D01*
X211327693Y-109406879D01*
X210524232Y-109598170D01*
X210435343Y-109598170D01*
X210435343Y-108899831D01*
X210524232Y-108899831D01*
X210827483Y-108899831D01*
X210827483Y-108988344D01*
X210827483Y-109005295D01*
X210830835Y-109108665D01*
X210839012Y-109173090D01*
X210852831Y-109214652D01*
X210877065Y-109257011D01*
X210898201Y-109282461D01*
X210924387Y-109305116D01*
X210956248Y-109325057D01*
X210990853Y-109339427D01*
X211031888Y-109348570D01*
X211080617Y-109351826D01*
X211142988Y-109346212D01*
X211194383Y-109330454D01*
X211236981Y-109305372D01*
X211273124Y-109271346D01*
X211299020Y-109233153D01*
X211315627Y-109190040D01*
X211323766Y-109132594D01*
X211327693Y-108997674D01*
X211327693Y-108738093D01*
X210524232Y-108738093D01*
X210524232Y-108899831D01*
X210435343Y-108899831D01*
X210435343Y-108649204D01*
X211416582Y-108649204D01*
X211416582Y-111350890D01*
G37*
G36*
X200379107Y-97509975D02*
G01*
X200441621Y-97575957D01*
X200467567Y-97609350D01*
X200486809Y-97649479D01*
X200493611Y-97689140D01*
X200488816Y-97729991D01*
X200470814Y-97776874D01*
X200439728Y-97824461D01*
X200380800Y-97890100D01*
X200314850Y-97949453D01*
X200264672Y-97983016D01*
X200230442Y-97998688D01*
X200202537Y-98006493D01*
X200179632Y-98008162D01*
X200145259Y-98001939D01*
X200109721Y-97985710D01*
X200081339Y-97964951D01*
X200035112Y-97922016D01*
X199949692Y-97836596D01*
X200327710Y-97458578D01*
X200379107Y-97509975D01*
G37*
G36*
X199807658Y-96938526D02*
G01*
X199870172Y-97004508D01*
X199896118Y-97037901D01*
X199915361Y-97078030D01*
X199922162Y-97117691D01*
X199917367Y-97158542D01*
X199899365Y-97205425D01*
X199868279Y-97253012D01*
X199809351Y-97318651D01*
X199743401Y-97378004D01*
X199693224Y-97411567D01*
X199658994Y-97427239D01*
X199631088Y-97435044D01*
X199608183Y-97436713D01*
X199573810Y-97430491D01*
X199538272Y-97414261D01*
X199509890Y-97393502D01*
X199463663Y-97350567D01*
X199378243Y-97265147D01*
X199756261Y-96887129D01*
X199807658Y-96938526D01*
G37*
G36*
X198652084Y-96282555D02*
G01*
X198497512Y-96127983D01*
X198786242Y-95992271D01*
X198652084Y-96282555D01*
G37*
G36*
X200909015Y-97724060D02*
G01*
X200215174Y-98417901D01*
X199614560Y-97817287D01*
X199740269Y-97817287D01*
X199759578Y-97836596D01*
X199955495Y-98032513D01*
X200018993Y-98089235D01*
X200068755Y-98121733D01*
X200114335Y-98141568D01*
X200155996Y-98152883D01*
X200194485Y-98156758D01*
X200245487Y-98153058D01*
X200298906Y-98140166D01*
X200355516Y-98117105D01*
X200399095Y-98092123D01*
X200445073Y-98058059D01*
X200493818Y-98013550D01*
X200544682Y-97958067D01*
X200582607Y-97907331D01*
X200609531Y-97860740D01*
X200630028Y-97811116D01*
X200642508Y-97762565D01*
X200647492Y-97714597D01*
X200644725Y-97666696D01*
X200633756Y-97621008D01*
X200614402Y-97576846D01*
X200580779Y-97527841D01*
X200517445Y-97458198D01*
X200308401Y-97249155D01*
X199740269Y-97817287D01*
X199614560Y-97817287D01*
X199043112Y-97245839D01*
X199168820Y-97245839D01*
X199188128Y-97265147D01*
X199384046Y-97461065D01*
X199447544Y-97517786D01*
X199497306Y-97550284D01*
X199542887Y-97570119D01*
X199584547Y-97581434D01*
X199623036Y-97585309D01*
X199674038Y-97581609D01*
X199727458Y-97568718D01*
X199784067Y-97545656D01*
X199827646Y-97520674D01*
X199873625Y-97486610D01*
X199922370Y-97442101D01*
X199973234Y-97386618D01*
X200011158Y-97335882D01*
X200038082Y-97289291D01*
X200058579Y-97239667D01*
X200071059Y-97191116D01*
X200076043Y-97143148D01*
X200073276Y-97095247D01*
X200062307Y-97049559D01*
X200042953Y-97005398D01*
X200009330Y-96956392D01*
X199945996Y-96886749D01*
X199736953Y-96677706D01*
X199168820Y-97245839D01*
X199043112Y-97245839D01*
X198660223Y-96862950D01*
X198785931Y-96862950D01*
X198908034Y-96985053D01*
X199679062Y-96619815D01*
X199557719Y-96498472D01*
X198998981Y-96779775D01*
X199275621Y-96216374D01*
X199151584Y-96092337D01*
X198785931Y-96862950D01*
X198660223Y-96862950D01*
X197945256Y-96147983D01*
X198070964Y-96147983D01*
X198192307Y-96269326D01*
X198367292Y-96187878D01*
X198593709Y-96414295D01*
X198514956Y-96591975D01*
X198639407Y-96716426D01*
X198980709Y-95921462D01*
X198859745Y-95800499D01*
X198116364Y-96127983D01*
X198070964Y-96147983D01*
X197945256Y-96147983D01*
X198639097Y-95454142D01*
X200909015Y-97724060D01*
G37*
G36*
X259814255Y-50787000D02*
G01*
X259622964Y-49983538D01*
X259788560Y-49983538D01*
X259909363Y-50535429D01*
X260055811Y-49983538D01*
X260248177Y-49983538D01*
X260388616Y-50544759D01*
X260511568Y-49983538D01*
X260674429Y-49983538D01*
X260479865Y-50787000D01*
X260308260Y-50787000D01*
X260148721Y-50186309D01*
X259989670Y-50787000D01*
X259814255Y-50787000D01*
G37*
G36*
X255510109Y-50787000D02*
G01*
X255223759Y-49983538D01*
X255399174Y-49983538D01*
X255601945Y-50577537D01*
X255798121Y-49983538D01*
X255969726Y-49983538D01*
X255682789Y-50787000D01*
X255510109Y-50787000D01*
G37*
G36*
X250623780Y-49983538D02*
G01*
X250785518Y-49983538D01*
X250785518Y-50422638D01*
X250787482Y-50518131D01*
X250791526Y-50558144D01*
X250801774Y-50589429D01*
X250818133Y-50615800D01*
X250840961Y-50638060D01*
X250868566Y-50654115D01*
X250903547Y-50664443D01*
X250947842Y-50668200D01*
X250992972Y-50664516D01*
X251026700Y-50654644D01*
X251051645Y-50639721D01*
X251072146Y-50618929D01*
X251085959Y-50595801D01*
X251093704Y-50569770D01*
X251098673Y-50521437D01*
X251100836Y-50432066D01*
X251100836Y-49983538D01*
X251262622Y-49983538D01*
X251262622Y-50406567D01*
X251258601Y-50540972D01*
X251249482Y-50611487D01*
X251237985Y-50650107D01*
X251221838Y-50683564D01*
X251201122Y-50712554D01*
X251175724Y-50737545D01*
X251144573Y-50759441D01*
X251106844Y-50778207D01*
X251066719Y-50791021D01*
X251016084Y-50799515D01*
X250952776Y-50802631D01*
X250875898Y-50799036D01*
X250819310Y-50789600D01*
X250778679Y-50776009D01*
X250740895Y-50755809D01*
X250709950Y-50732730D01*
X250684988Y-50706790D01*
X250656052Y-50662433D01*
X250639607Y-50617495D01*
X250628411Y-50540044D01*
X250623780Y-50413113D01*
X250623780Y-49983538D01*
G37*
G36*
X271056739Y-47487465D02*
G01*
X271114185Y-47495604D01*
X271157298Y-47512211D01*
X271195491Y-47538107D01*
X271229517Y-47574250D01*
X271254599Y-47616848D01*
X271270357Y-47668243D01*
X271275971Y-47730614D01*
X271272715Y-47779343D01*
X271263572Y-47820378D01*
X271249202Y-47854983D01*
X271229261Y-47886844D01*
X271206606Y-47913030D01*
X271181156Y-47934166D01*
X271138797Y-47958400D01*
X271097235Y-47972219D01*
X271032810Y-47980396D01*
X270929440Y-47983748D01*
X270823976Y-47983748D01*
X270823976Y-48287000D01*
X270662238Y-48287000D01*
X270662238Y-47849316D01*
X270823976Y-47849316D01*
X270912489Y-47849316D01*
X271000240Y-47845241D01*
X271040375Y-47836518D01*
X271069311Y-47819977D01*
X271090933Y-47796511D01*
X271104561Y-47767411D01*
X271109251Y-47733106D01*
X271106229Y-47704416D01*
X271097614Y-47680266D01*
X271083557Y-47659686D01*
X271064944Y-47642839D01*
X271043462Y-47630860D01*
X271018540Y-47623538D01*
X270982334Y-47619751D01*
X270902133Y-47617969D01*
X270823976Y-47617969D01*
X270823976Y-47849316D01*
X270662238Y-47849316D01*
X270662238Y-47483538D01*
X270921819Y-47483538D01*
X271056739Y-47487465D01*
G37*
G36*
X271781359Y-47993127D02*
G01*
X271781359Y-47858695D01*
X272129991Y-47858695D01*
X272129991Y-48179191D01*
X272093911Y-48208550D01*
X272045657Y-48237370D01*
X271982713Y-48265408D01*
X271917580Y-48286226D01*
X271852603Y-48298544D01*
X271787318Y-48302631D01*
X271724515Y-48299099D01*
X271667537Y-48288879D01*
X271615640Y-48272369D01*
X271568184Y-48249728D01*
X271524250Y-48220318D01*
X271486488Y-48185544D01*
X271454397Y-48145068D01*
X271427744Y-48098297D01*
X271401800Y-48031270D01*
X271386092Y-47960161D01*
X271380752Y-47884096D01*
X271384211Y-47821423D01*
X271394280Y-47763729D01*
X271410648Y-47710389D01*
X271433215Y-47660859D01*
X271462511Y-47614849D01*
X271497594Y-47574834D01*
X271538816Y-47540325D01*
X271586795Y-47511089D01*
X271639635Y-47489655D01*
X271702890Y-47475940D01*
X271778623Y-47471033D01*
X271854175Y-47475542D01*
X271916872Y-47488088D01*
X271968791Y-47507548D01*
X272011680Y-47533315D01*
X272049691Y-47567210D01*
X272080121Y-47606696D01*
X272103444Y-47652450D01*
X272119635Y-47705506D01*
X271958972Y-47736769D01*
X271944102Y-47699457D01*
X271922969Y-47668501D01*
X271895274Y-47642980D01*
X271862570Y-47624305D01*
X271824143Y-47612688D01*
X271778623Y-47608591D01*
X271726541Y-47613155D01*
X271681953Y-47626162D01*
X271643455Y-47647142D01*
X271610047Y-47676392D01*
X271584173Y-47711716D01*
X271564676Y-47755679D01*
X271552048Y-47810149D01*
X271547472Y-47877453D01*
X271552166Y-47950413D01*
X271565059Y-48009032D01*
X271584828Y-48055911D01*
X271610828Y-48093168D01*
X271644913Y-48124571D01*
X271683314Y-48146770D01*
X271726902Y-48160353D01*
X271776962Y-48165073D01*
X271827395Y-48160124D01*
X271878909Y-48144899D01*
X271927293Y-48122062D01*
X271966593Y-48095953D01*
X271966593Y-47993127D01*
X271781359Y-47993127D01*
G37*
G36*
X272280982Y-48287000D02*
G01*
X272280982Y-47483538D01*
X272438372Y-47483538D01*
X272766244Y-48021410D01*
X272766244Y-47483538D01*
X272916551Y-47483538D01*
X272916551Y-48287000D01*
X272754227Y-48287000D01*
X272431240Y-47757139D01*
X272431240Y-48287000D01*
X272280982Y-48287000D01*
G37*
G36*
X273476595Y-47487999D02*
G01*
X273535022Y-47498877D01*
X273579935Y-47516418D01*
X273619997Y-47540968D01*
X273655825Y-47572882D01*
X273686219Y-47610325D01*
X273711725Y-47653480D01*
X273732322Y-47703064D01*
X273746229Y-47755047D01*
X273755287Y-47817739D01*
X273758553Y-47892938D01*
X273755558Y-47958878D01*
X273747133Y-48015477D01*
X273733983Y-48063957D01*
X273710261Y-48120293D01*
X273681604Y-48167182D01*
X273648156Y-48205862D01*
X273618200Y-48230338D01*
X273580741Y-48251796D01*
X273534485Y-48270000D01*
X273476319Y-48282207D01*
X273391310Y-48287000D01*
X273086935Y-48287000D01*
X273086935Y-48152568D01*
X273248672Y-48152568D01*
X273369475Y-48152568D01*
X273432522Y-48150240D01*
X273467269Y-48144850D01*
X273503875Y-48131197D01*
X273532580Y-48111291D01*
X273547596Y-48093915D01*
X273561809Y-48068664D01*
X273574932Y-48033378D01*
X273586680Y-47974164D01*
X273591345Y-47885562D01*
X273586599Y-47797479D01*
X273574932Y-47741849D01*
X273554510Y-47695968D01*
X273529014Y-47663692D01*
X273496160Y-47640457D01*
X273454178Y-47625688D01*
X273412219Y-47620422D01*
X273321359Y-47617969D01*
X273248672Y-47617969D01*
X273248672Y-48152568D01*
X273086935Y-48152568D01*
X273086935Y-47483538D01*
X273382566Y-47483538D01*
X273476595Y-47487999D01*
G37*
D13*
%TO.C,R30*%
X247197500Y-56055000D02*
X247197500Y-55855000D01*
X248197500Y-56055000D02*
X248197500Y-55855000D01*
%TO.C,TP2*%
X199252500Y-62665002D02*
G75*
G02*
X197452500Y-62665002I-900000J0D01*
G01*
X197452500Y-62665002D02*
G75*
G02*
X199252500Y-62665002I900000J0D01*
G01*
%TO.C,D2*%
X226737500Y-73755000D02*
X226737500Y-74155000D01*
X227137500Y-72505000D02*
X228037500Y-72505000D01*
X227137500Y-75405000D02*
X228037500Y-75405000D01*
X228037499Y-74705000D02*
X228037500Y-75380000D01*
X228037500Y-72505000D02*
X228037499Y-73205000D01*
D14*
%TO.C,C29*%
X201087500Y-105880000D02*
X201087500Y-107080000D01*
X201087500Y-105880000D02*
X201587500Y-105880000D01*
X201087500Y-107080000D02*
X201587500Y-107080000D01*
X202587500Y-107080000D02*
X203087500Y-107080000D01*
X203087500Y-105880000D02*
X202587500Y-105880000D01*
X203087500Y-107080000D02*
X203087500Y-105880000D01*
D13*
%TO.C,FT5*%
X207372500Y-79904998D02*
X207172500Y-79904998D01*
X207372500Y-80404998D02*
X207172500Y-80404998D01*
X207372500Y-80904998D02*
X207172500Y-80904998D01*
D14*
%TO.C,R20*%
X204737500Y-71070000D02*
X204737500Y-71570001D01*
X204737500Y-73070000D02*
X204737500Y-72569999D01*
X204737500Y-73070000D02*
X205937500Y-73070000D01*
X205937500Y-71070000D02*
X204737500Y-71070000D01*
X205937500Y-71570001D02*
X205937500Y-71070000D01*
X205937500Y-73070000D02*
X205937500Y-72569999D01*
D13*
%TO.C,R27*%
X250197500Y-55855000D02*
X250197500Y-56055000D01*
X251197500Y-55855000D02*
X251197500Y-56055000D01*
D14*
%TO.C,R102*%
X206837500Y-109980000D02*
X206837500Y-111180000D01*
X206837500Y-111180000D02*
X207337501Y-111180000D01*
X207337501Y-109980000D02*
X206837500Y-109980000D01*
X208837500Y-109980000D02*
X208337499Y-109980000D01*
X208837500Y-111180000D02*
X208337499Y-111180000D01*
X208837500Y-111180000D02*
X208837500Y-109980000D01*
%TO.C,C127*%
X205310290Y-91771980D02*
X205663844Y-92125534D01*
X206158818Y-90923452D02*
X205310290Y-91771980D01*
X206158818Y-90923452D02*
X206512372Y-91277006D01*
X206370950Y-92832640D02*
X206724504Y-93186194D01*
X206724504Y-93186194D02*
X207573032Y-92337666D01*
X207573032Y-92337666D02*
X207219478Y-91984112D01*
%TO.C,C122*%
X216874861Y-90780560D02*
X217723389Y-91629088D01*
X217228415Y-90427006D02*
X216874861Y-90780560D01*
X217723389Y-91629088D02*
X218076943Y-91275534D01*
X218289075Y-89366346D02*
X217935521Y-89719900D01*
X219137603Y-90214874D02*
X218289075Y-89366346D01*
X219137603Y-90214874D02*
X218784049Y-90568428D01*
D13*
%TO.C,TP3*%
X199502500Y-69315002D02*
G75*
G02*
X197702500Y-69315002I-900000J0D01*
G01*
X197702500Y-69315002D02*
G75*
G02*
X199502500Y-69315002I900000J0D01*
G01*
%TO.C,C17*%
X222212500Y-80555000D02*
X222212500Y-79655000D01*
%TO.C,C18*%
X222212501Y-82155000D02*
X222212501Y-81255000D01*
D14*
%TO.C,R37*%
X206037500Y-60190000D02*
X206037500Y-61390000D01*
X206037500Y-60190000D02*
X206537500Y-60190000D01*
X206037500Y-61390000D02*
X206537500Y-61390000D01*
X207537500Y-61390000D02*
X208037500Y-61390000D01*
X208037500Y-60190000D02*
X207537500Y-60190000D01*
X208037500Y-61390000D02*
X208037500Y-60190000D01*
%TO.C,C19*%
X206547499Y-78304999D02*
X206547499Y-79504999D01*
X206547499Y-79504999D02*
X207047500Y-79504999D01*
X207047500Y-78304999D02*
X206547499Y-78304999D01*
X208547499Y-78304999D02*
X208047498Y-78304999D01*
X208547499Y-79504999D02*
X208047498Y-79504999D01*
X208547499Y-79504999D02*
X208547499Y-78304999D01*
D15*
%TO.C,G\u002A\u002A\u002A*%
G36*
X225869864Y-110518776D02*
G01*
X225900420Y-110519440D01*
X225927237Y-110520314D01*
X225963680Y-110521656D01*
X225999569Y-110522956D01*
X226032883Y-110524143D01*
X226061606Y-110525146D01*
X226083716Y-110525892D01*
X226092457Y-110526171D01*
X226136206Y-110527516D01*
X226304273Y-110991366D01*
X226327669Y-111055960D01*
X226350132Y-111118028D01*
X226371438Y-111176946D01*
X226391362Y-111232089D01*
X226409679Y-111282834D01*
X226426164Y-111328554D01*
X226440591Y-111368627D01*
X226452735Y-111402427D01*
X226462373Y-111429329D01*
X226469277Y-111448710D01*
X226473223Y-111459945D01*
X226474098Y-111462592D01*
X226471466Y-111464890D01*
X226462064Y-111466990D01*
X226445360Y-111468937D01*
X226420817Y-111470774D01*
X226387906Y-111472543D01*
X226346090Y-111474287D01*
X226315505Y-111475373D01*
X226276902Y-111476548D01*
X226241473Y-111477383D01*
X226210384Y-111477871D01*
X226184801Y-111478002D01*
X226165889Y-111477768D01*
X226154816Y-111477161D01*
X226152376Y-111476565D01*
X226150283Y-111471364D01*
X226145151Y-111457730D01*
X226137248Y-111436401D01*
X226126845Y-111408119D01*
X226114208Y-111373625D01*
X226099607Y-111333662D01*
X226083310Y-111288969D01*
X226065586Y-111240289D01*
X226046703Y-111188363D01*
X226026930Y-111133930D01*
X226006535Y-111077734D01*
X225985788Y-111020516D01*
X225964955Y-110963016D01*
X225944308Y-110905975D01*
X225924113Y-110850137D01*
X225904639Y-110796239D01*
X225886155Y-110745027D01*
X225868930Y-110697237D01*
X225853233Y-110653615D01*
X225839330Y-110614900D01*
X225827492Y-110581833D01*
X225817987Y-110555156D01*
X225811083Y-110535610D01*
X225807049Y-110523937D01*
X225806068Y-110520785D01*
X225810642Y-110519594D01*
X225823670Y-110518858D01*
X225843845Y-110518584D01*
X225869864Y-110518776D01*
G37*
G36*
X226310244Y-110534494D02*
G01*
X226336388Y-110535141D01*
X226367101Y-110536099D01*
X226401087Y-110537315D01*
X226437051Y-110538732D01*
X226473696Y-110540298D01*
X226509727Y-110541956D01*
X226543846Y-110543652D01*
X226574760Y-110545331D01*
X226601172Y-110546939D01*
X226621786Y-110548420D01*
X226635305Y-110549721D01*
X226639918Y-110550513D01*
X226660478Y-110561389D01*
X226675511Y-110578075D01*
X226679159Y-110585367D01*
X226679756Y-110591655D01*
X226680318Y-110606976D01*
X226680840Y-110630599D01*
X226681314Y-110661789D01*
X226681737Y-110699814D01*
X226682099Y-110743940D01*
X226682397Y-110793436D01*
X226682621Y-110847566D01*
X226682768Y-110905599D01*
X226682829Y-110966800D01*
X226682820Y-111008926D01*
X226682763Y-111082048D01*
X226682685Y-111146042D01*
X226682566Y-111201542D01*
X226682386Y-111249191D01*
X226682124Y-111289623D01*
X226681759Y-111323477D01*
X226681272Y-111351390D01*
X226680641Y-111374001D01*
X226679845Y-111391948D01*
X226678865Y-111405869D01*
X226677679Y-111416400D01*
X226676267Y-111424182D01*
X226674609Y-111429850D01*
X226672684Y-111434043D01*
X226670471Y-111437399D01*
X226668938Y-111439347D01*
X226656103Y-111451203D01*
X226640613Y-111460067D01*
X226625453Y-111464704D01*
X226613605Y-111463876D01*
X226611943Y-111462978D01*
X226609770Y-111458140D01*
X226604542Y-111444869D01*
X226596537Y-111423913D01*
X226586026Y-111396024D01*
X226573286Y-111361949D01*
X226558591Y-111322439D01*
X226542214Y-111278242D01*
X226524430Y-111230111D01*
X226505515Y-111178791D01*
X226485740Y-111125034D01*
X226465383Y-111069589D01*
X226444716Y-111013207D01*
X226424014Y-110956635D01*
X226403552Y-110900625D01*
X226383604Y-110845924D01*
X226364444Y-110793282D01*
X226346348Y-110743450D01*
X226329588Y-110697177D01*
X226314440Y-110655213D01*
X226301178Y-110618305D01*
X226290077Y-110587206D01*
X226281412Y-110562663D01*
X226275454Y-110545427D01*
X226272481Y-110536245D01*
X226272188Y-110534973D01*
X226276848Y-110534356D01*
X226289966Y-110534214D01*
X226310244Y-110534494D01*
G37*
G36*
X225402988Y-110502376D02*
G01*
X225432954Y-110502934D01*
X225465826Y-110503785D01*
X225500235Y-110504883D01*
X225534812Y-110506178D01*
X225568188Y-110507624D01*
X225598992Y-110509171D01*
X225625857Y-110510774D01*
X225647413Y-110512382D01*
X225662290Y-110513949D01*
X225669119Y-110515426D01*
X225669332Y-110515594D01*
X225671536Y-110520765D01*
X225676822Y-110534515D01*
X225684967Y-110556235D01*
X225695749Y-110585316D01*
X225708944Y-110621145D01*
X225724328Y-110663113D01*
X225741677Y-110710610D01*
X225760769Y-110763025D01*
X225781380Y-110819746D01*
X225803288Y-110880165D01*
X225826267Y-110943671D01*
X225846630Y-111000050D01*
X225870259Y-111065642D01*
X225892874Y-111128649D01*
X225914262Y-111188462D01*
X225934208Y-111244474D01*
X225952500Y-111296078D01*
X225968925Y-111342669D01*
X225983268Y-111383639D01*
X225995318Y-111418381D01*
X226004860Y-111446288D01*
X226011680Y-111466753D01*
X226015567Y-111479170D01*
X226016397Y-111482953D01*
X226011092Y-111483777D01*
X225997455Y-111484876D01*
X225976899Y-111486185D01*
X225950837Y-111487643D01*
X225920682Y-111489189D01*
X225887848Y-111490759D01*
X225853746Y-111492293D01*
X225819791Y-111493727D01*
X225787396Y-111495002D01*
X225757973Y-111496052D01*
X225732936Y-111496819D01*
X225713698Y-111497237D01*
X225701671Y-111497247D01*
X225698194Y-111496919D01*
X225696267Y-111492125D01*
X225691297Y-111478864D01*
X225683547Y-111457862D01*
X225673280Y-111429843D01*
X225660756Y-111395533D01*
X225646238Y-111355656D01*
X225629986Y-111310938D01*
X225612264Y-111262105D01*
X225593334Y-111209880D01*
X225573457Y-111154988D01*
X225552895Y-111098156D01*
X225531908Y-111040107D01*
X225510762Y-110981568D01*
X225489716Y-110923263D01*
X225469033Y-110865916D01*
X225448974Y-110810254D01*
X225429801Y-110757001D01*
X225411777Y-110706883D01*
X225395162Y-110660623D01*
X225380219Y-110618949D01*
X225367211Y-110582584D01*
X225356397Y-110552253D01*
X225348042Y-110528682D01*
X225342407Y-110512596D01*
X225339752Y-110504718D01*
X225339575Y-110504045D01*
X225344222Y-110502948D01*
X225357253Y-110502335D01*
X225377299Y-110502161D01*
X225402988Y-110502376D01*
G37*
G36*
X225156440Y-110492376D02*
G01*
X225176828Y-110493230D01*
X225191724Y-110494392D01*
X225199087Y-110495743D01*
X225199321Y-110495877D01*
X225201615Y-110500849D01*
X225207002Y-110514414D01*
X225215263Y-110535977D01*
X225226178Y-110564944D01*
X225239529Y-110600720D01*
X225255093Y-110642710D01*
X225272651Y-110690319D01*
X225291985Y-110742953D01*
X225312874Y-110800017D01*
X225335098Y-110860915D01*
X225358437Y-110925053D01*
X225382673Y-110991837D01*
X225385568Y-110999825D01*
X225409800Y-111066799D01*
X225433029Y-111131167D01*
X225455046Y-111192340D01*
X225475640Y-111249727D01*
X225494602Y-111302736D01*
X225511721Y-111350777D01*
X225526788Y-111393260D01*
X225539592Y-111429594D01*
X225549923Y-111459189D01*
X225557574Y-111481452D01*
X225562330Y-111495794D01*
X225563985Y-111501625D01*
X225563962Y-111501727D01*
X225558349Y-111502322D01*
X225544124Y-111503159D01*
X225522441Y-111504198D01*
X225494450Y-111505399D01*
X225461303Y-111506723D01*
X225424153Y-111508133D01*
X225384152Y-111509589D01*
X225342452Y-111511050D01*
X225300204Y-111512479D01*
X225258561Y-111513835D01*
X225218675Y-111515081D01*
X225181698Y-111516176D01*
X225148780Y-111517082D01*
X225121077Y-111517761D01*
X225099737Y-111518171D01*
X225085914Y-111518275D01*
X225081109Y-111518121D01*
X225062125Y-111511530D01*
X225045271Y-111498546D01*
X225034010Y-111482009D01*
X225032698Y-111478410D01*
X225031736Y-111470406D01*
X225030892Y-111453596D01*
X225030163Y-111428803D01*
X225029548Y-111396850D01*
X225029043Y-111358562D01*
X225028645Y-111314760D01*
X225028352Y-111266270D01*
X225028158Y-111213914D01*
X225028065Y-111158516D01*
X225028067Y-111100899D01*
X225028161Y-111041886D01*
X225028346Y-110982302D01*
X225028617Y-110922970D01*
X225028973Y-110864712D01*
X225029409Y-110808354D01*
X225029925Y-110754716D01*
X225030515Y-110704625D01*
X225031178Y-110658902D01*
X225031910Y-110618371D01*
X225032709Y-110583856D01*
X225033573Y-110556181D01*
X225034497Y-110536168D01*
X225035479Y-110524641D01*
X225036049Y-110522207D01*
X225044992Y-110510118D01*
X225055861Y-110501596D01*
X225070402Y-110496095D01*
X225090362Y-110493066D01*
X225117487Y-110491963D01*
X225132597Y-110491949D01*
X225156440Y-110492376D01*
G37*
G36*
X224840876Y-110070283D02*
G01*
X224854779Y-110074533D01*
X224856921Y-110075654D01*
X224868204Y-110082576D01*
X224875390Y-110087980D01*
X224875998Y-110088644D01*
X224880953Y-110095404D01*
X224886133Y-110102682D01*
X224887134Y-110108484D01*
X224888058Y-110122990D01*
X224888904Y-110146280D01*
X224889673Y-110178438D01*
X224890366Y-110219545D01*
X224890984Y-110269682D01*
X224891527Y-110328932D01*
X224891996Y-110397376D01*
X224892391Y-110475096D01*
X224892714Y-110562174D01*
X224892965Y-110658693D01*
X224893144Y-110764734D01*
X224893252Y-110880378D01*
X224893291Y-111005025D01*
X224893302Y-111115936D01*
X224893320Y-111217499D01*
X224893327Y-111310131D01*
X224893307Y-111394250D01*
X224893243Y-111470273D01*
X224893119Y-111538622D01*
X224892919Y-111599711D01*
X224892624Y-111653961D01*
X224892219Y-111701789D01*
X224891688Y-111743613D01*
X224891014Y-111779852D01*
X224890181Y-111810924D01*
X224889170Y-111837246D01*
X224887967Y-111859239D01*
X224886554Y-111877318D01*
X224884916Y-111891902D01*
X224883035Y-111903411D01*
X224880894Y-111912261D01*
X224878477Y-111918872D01*
X224875768Y-111923661D01*
X224872751Y-111927047D01*
X224869407Y-111929447D01*
X224865723Y-111931280D01*
X224861679Y-111932964D01*
X224857259Y-111934917D01*
X224856414Y-111935334D01*
X224842138Y-111939154D01*
X224819551Y-111940838D01*
X224789863Y-111940411D01*
X224754290Y-111937892D01*
X224714045Y-111933303D01*
X224710157Y-111932779D01*
X224628454Y-111916854D01*
X224549878Y-111892095D01*
X224475098Y-111858991D01*
X224404789Y-111818029D01*
X224339621Y-111769698D01*
X224280267Y-111714483D01*
X224227401Y-111652876D01*
X224181693Y-111585361D01*
X224150274Y-111526458D01*
X224134636Y-111489268D01*
X224120420Y-111447466D01*
X224108006Y-111402955D01*
X224097769Y-111357641D01*
X224090088Y-111313428D01*
X224085340Y-111272223D01*
X224083902Y-111235929D01*
X224086153Y-111206453D01*
X224086487Y-111204536D01*
X224093193Y-111188986D01*
X224105799Y-111173720D01*
X224121005Y-111162293D01*
X224128672Y-111159096D01*
X224136181Y-111158001D01*
X224152222Y-111156373D01*
X224175582Y-111154313D01*
X224205049Y-111151920D01*
X224239406Y-111149292D01*
X224277441Y-111146529D01*
X224308940Y-111144341D01*
X224348521Y-111141576D01*
X224384950Y-111138898D01*
X224417095Y-111136400D01*
X224443822Y-111134176D01*
X224464001Y-111132320D01*
X224476496Y-111130924D01*
X224480216Y-111130190D01*
X224480994Y-111124724D01*
X224481631Y-111111101D01*
X224482125Y-111090928D01*
X224482479Y-111065813D01*
X224482690Y-111037364D01*
X224482762Y-111007191D01*
X224482693Y-110976899D01*
X224482486Y-110948098D01*
X224482138Y-110922397D01*
X224481653Y-110901402D01*
X224481029Y-110886723D01*
X224480267Y-110879968D01*
X224480145Y-110879741D01*
X224474832Y-110878812D01*
X224460904Y-110877343D01*
X224439493Y-110875428D01*
X224411733Y-110873160D01*
X224378754Y-110870631D01*
X224341689Y-110867937D01*
X224308940Y-110865660D01*
X224268876Y-110862862D01*
X224231540Y-110860120D01*
X224198149Y-110857536D01*
X224169913Y-110855206D01*
X224148048Y-110853232D01*
X224133768Y-110851712D01*
X224128671Y-110850904D01*
X224113410Y-110842793D01*
X224099071Y-110829033D01*
X224088953Y-110813183D01*
X224086487Y-110805466D01*
X224084306Y-110780791D01*
X224085040Y-110748982D01*
X224088402Y-110712133D01*
X224094100Y-110672338D01*
X224101849Y-110631689D01*
X224111355Y-110592281D01*
X224119938Y-110563341D01*
X224150150Y-110486141D01*
X224188491Y-110414058D01*
X224234512Y-110347541D01*
X224287764Y-110287036D01*
X224347798Y-110232989D01*
X224414164Y-110185850D01*
X224486414Y-110146065D01*
X224564098Y-110114080D01*
X224574771Y-110110453D01*
X224621159Y-110096141D01*
X224664101Y-110085459D01*
X224707090Y-110077751D01*
X224753616Y-110072364D01*
X224793731Y-110069404D01*
X224821138Y-110068635D01*
X224840876Y-110070283D01*
G37*
D14*
%TO.C,FT10*%
X202160290Y-92021980D02*
X202513844Y-92375534D01*
X203008818Y-91173452D02*
X202160290Y-92021980D01*
X203008818Y-91173452D02*
X203362372Y-91527006D01*
X203220950Y-93082640D02*
X203574504Y-93436194D01*
X203574504Y-93436194D02*
X204423032Y-92587666D01*
X204423032Y-92587666D02*
X204069478Y-92234112D01*
D13*
%TO.C,U101*%
X205931432Y-97555002D02*
X206355696Y-97979266D01*
X206355696Y-97130738D02*
X205931432Y-97555002D01*
X211871129Y-90201091D02*
X213002500Y-89069721D01*
X212578236Y-104201806D02*
X213002500Y-104626070D01*
X213002500Y-89069721D02*
X214133871Y-90201091D01*
X213426764Y-104201806D02*
X213002500Y-104626070D01*
X219649304Y-97130738D02*
X220073568Y-97555002D01*
X220073568Y-97555002D02*
X219649304Y-97979266D01*
X213426764Y-90908198D02*
X212578236Y-90908198D01*
X213002500Y-90483934D01*
X213426764Y-90908198D01*
G36*
X213426764Y-90908198D02*
G01*
X212578236Y-90908198D01*
X213002500Y-90483934D01*
X213426764Y-90908198D01*
G37*
D14*
%TO.C,C110*%
X213252069Y-105862287D02*
X213252069Y-106362288D01*
X213252069Y-107862287D02*
X213252069Y-107362286D01*
X213252069Y-107862287D02*
X214452069Y-107862287D01*
X214452069Y-105862287D02*
X213252069Y-105862287D01*
X214452069Y-106362288D02*
X214452069Y-105862287D01*
X214452069Y-107862287D02*
X214452069Y-107362286D01*
%TO.C,R17*%
X204737500Y-66740000D02*
X204737500Y-67240001D01*
X204737500Y-68239999D02*
X204737500Y-68740000D01*
X204737500Y-68740000D02*
X205937500Y-68740000D01*
X205937500Y-66740000D02*
X204737500Y-66740000D01*
X205937500Y-66740000D02*
X205937500Y-67240001D01*
X205937500Y-68740000D02*
X205937500Y-68239999D01*
%TO.C,C24*%
X207570698Y-105595130D02*
X207924252Y-105241576D01*
X207570698Y-105595130D02*
X208419226Y-106443658D01*
X208419226Y-106443658D02*
X208772780Y-106090104D01*
X208984912Y-104180916D02*
X208631358Y-104534470D01*
X209479886Y-105382998D02*
X209833440Y-105029444D01*
X209833440Y-105029444D02*
X208984912Y-104180916D01*
%TO.C,C113*%
X203046077Y-101073810D02*
X203399631Y-100720256D01*
X203046077Y-101073810D02*
X203894605Y-101922338D01*
X203894605Y-101922338D02*
X204248159Y-101568784D01*
X204460291Y-99659596D02*
X204106737Y-100013150D01*
X204955265Y-100861678D02*
X205308819Y-100508124D01*
X205308819Y-100508124D02*
X204460291Y-99659596D01*
D13*
%TO.C,C10*%
X248947500Y-53455000D02*
X248597500Y-53455000D01*
X248947500Y-54255000D02*
X248947500Y-52655000D01*
X249447500Y-52655000D02*
X249447500Y-54255000D01*
X249797500Y-53455000D02*
X249447500Y-53455000D01*
D14*
%TO.C,FT6*%
X200460290Y-93721980D02*
X200813844Y-94075534D01*
X201308818Y-92873452D02*
X200460290Y-93721980D01*
X201308818Y-92873452D02*
X201662372Y-93227006D01*
X201520950Y-94782640D02*
X201874504Y-95136194D01*
X201874504Y-95136194D02*
X202723032Y-94287666D01*
X202723032Y-94287666D02*
X202369478Y-93934112D01*
%TO.C,C26*%
X202760290Y-94321980D02*
X203113844Y-94675534D01*
X203608818Y-93473452D02*
X202760290Y-94321980D01*
X203962372Y-93827006D02*
X203608818Y-93473452D01*
X204174504Y-95736194D02*
X203820950Y-95382640D01*
X204174504Y-95736194D02*
X205023032Y-94887666D01*
X205023032Y-94887666D02*
X204669478Y-94534112D01*
%TO.C,C13*%
X200087500Y-75055000D02*
X200087500Y-76255000D01*
X200087500Y-76255000D02*
X200587501Y-76255000D01*
X200587501Y-75055000D02*
X200087500Y-75055000D01*
X202087500Y-75055000D02*
X201587499Y-75055000D01*
X202087500Y-76255000D02*
X201587499Y-76255000D01*
X202087500Y-76255000D02*
X202087500Y-75055000D01*
D13*
%TO.C,C67*%
X224187500Y-62105000D02*
X224187500Y-63005000D01*
D14*
%TO.C,R16*%
X206037500Y-71920000D02*
X206037500Y-73120000D01*
X206037500Y-71920000D02*
X206537500Y-71920000D01*
X206037500Y-73120000D02*
X206537500Y-73120000D01*
X207537500Y-73120000D02*
X208037500Y-73120000D01*
X208037500Y-71920000D02*
X207537500Y-71920000D01*
X208037500Y-73120000D02*
X208037500Y-71920000D01*
D13*
%TO.C,MD1*%
X208937500Y-76805000D02*
X220537500Y-76805000D01*
X208937500Y-82805000D02*
X208937500Y-76805000D01*
X208937500Y-82805000D02*
X209737500Y-82805000D01*
X220537500Y-76805000D02*
X220537500Y-82805000D01*
X220537500Y-82805000D02*
X219737500Y-82805000D01*
D14*
%TO.C,FT12*%
X198760290Y-95421980D02*
X199113844Y-95775534D01*
X199608818Y-94573452D02*
X198760290Y-95421980D01*
X199608818Y-94573452D02*
X199962372Y-94927006D01*
X199820950Y-96482640D02*
X200174504Y-96836194D01*
X200174504Y-96836194D02*
X201023032Y-95987666D01*
X201023032Y-95987666D02*
X200669478Y-95634112D01*
%TO.C,C22*%
X201060290Y-96021980D02*
X201413844Y-96375534D01*
X201908818Y-95173452D02*
X201060290Y-96021980D01*
X202262372Y-95527006D02*
X201908818Y-95173452D01*
X202474504Y-97436194D02*
X202120950Y-97082640D01*
X202474504Y-97436194D02*
X203323032Y-96587666D01*
X203323032Y-96587666D02*
X202969478Y-96234112D01*
D13*
%TO.C,U5*%
X224787500Y-80905000D02*
X224787500Y-81305000D01*
X225187500Y-79655000D02*
X226087500Y-79655000D01*
X225187500Y-82555000D02*
X226087500Y-82555000D01*
X226087499Y-81855000D02*
X226087500Y-82530000D01*
X226087500Y-79655000D02*
X226087499Y-80355000D01*
%TO.C,R10*%
X224087500Y-65355000D02*
X224287500Y-65355000D01*
X224087500Y-66355000D02*
X224287500Y-66355000D01*
D14*
%TO.C,U15*%
X210987500Y-57255000D02*
X210987500Y-63055000D01*
X216487500Y-63055000D02*
X210987500Y-63055000D01*
X218487500Y-57255000D02*
X210987500Y-57255000D01*
X218487500Y-61055001D02*
X218487500Y-57255000D01*
X218487500Y-62054999D02*
X218487500Y-63055000D01*
X218487500Y-63055000D02*
X217487500Y-63055000D01*
%TO.C,R41*%
X199037500Y-57055000D02*
X199037500Y-58255000D01*
X199037500Y-58255000D02*
X199537501Y-58255000D01*
X199537501Y-57055000D02*
X199037500Y-57055000D01*
X201037500Y-57055000D02*
X200537499Y-57055000D01*
X201037500Y-58255000D02*
X200537499Y-58255000D01*
X201037500Y-58255000D02*
X201037500Y-57055000D01*
%TO.C,C21*%
X201910290Y-95171980D02*
X202263844Y-95525534D01*
X202758818Y-94323452D02*
X201910290Y-95171980D01*
X203112372Y-94677006D02*
X202758818Y-94323452D01*
X203324504Y-96586194D02*
X202970950Y-96232640D01*
X203324504Y-96586194D02*
X204173032Y-95737666D01*
X204173032Y-95737666D02*
X203819478Y-95384112D01*
%TO.C,C120*%
X220374861Y-106645130D02*
X220728415Y-106291576D01*
X220374861Y-106645130D02*
X221223389Y-107493658D01*
X221223389Y-107493658D02*
X221576943Y-107140104D01*
X221789075Y-105230916D02*
X221435521Y-105584470D01*
X222284049Y-106432998D02*
X222637603Y-106079444D01*
X222637603Y-106079444D02*
X221789075Y-105230916D01*
%TO.C,C15*%
X201137500Y-70055000D02*
X201137500Y-71255000D01*
X201137500Y-71255000D02*
X201637501Y-71255000D01*
X201637501Y-70055000D02*
X201137500Y-70055000D01*
X203137500Y-70055000D02*
X202637499Y-70055000D01*
X203137500Y-71255000D02*
X202637499Y-71255000D01*
X203137500Y-71255000D02*
X203137500Y-70055000D01*
D13*
%TO.C,R7*%
X259497500Y-58755000D02*
X259497500Y-58555000D01*
X260497500Y-58755000D02*
X260497500Y-58555000D01*
%TO.C,C1*%
X255047500Y-53455000D02*
X254697500Y-53455000D01*
X255047500Y-54255000D02*
X255047500Y-52655000D01*
X255547500Y-52655000D02*
X255547500Y-54255000D01*
X255897500Y-53455000D02*
X255547500Y-53455000D01*
%TO.C,TP8*%
X231337499Y-73955000D02*
G75*
G02*
X229537499Y-73955000I-900000J0D01*
G01*
X229537499Y-73955000D02*
G75*
G02*
X231337499Y-73955000I900000J0D01*
G01*
%TO.C,C3*%
X222487500Y-66655000D02*
X221587500Y-66655000D01*
D14*
%TO.C,R103*%
X207260290Y-89821980D02*
X207613844Y-90175534D01*
X208108818Y-88973452D02*
X207260290Y-89821980D01*
X208462372Y-89327006D02*
X208108818Y-88973452D01*
X208674504Y-91236194D02*
X208320950Y-90882640D01*
X208674504Y-91236194D02*
X209523032Y-90387666D01*
X209523032Y-90387666D02*
X209169478Y-90034112D01*
D13*
%TO.C,C4*%
X222487500Y-73155000D02*
X221587500Y-73155000D01*
D14*
%TO.C,C23*%
X212056232Y-105862287D02*
X212056232Y-106362288D01*
X212056232Y-107362286D02*
X212056232Y-107862287D01*
X212056232Y-107862287D02*
X213256232Y-107862287D01*
X213256232Y-105862287D02*
X212056232Y-105862287D01*
X213256232Y-105862287D02*
X213256232Y-106362288D01*
X213256232Y-107862287D02*
X213256232Y-107362286D01*
D13*
%TO.C,C16*%
X228537500Y-81105000D02*
X227637500Y-81105000D01*
D14*
%TO.C,R40*%
X204737500Y-58070000D02*
X204737500Y-58570001D01*
X204737500Y-60070000D02*
X204737500Y-59569999D01*
X204737500Y-60070000D02*
X205937500Y-60070000D01*
X205937500Y-58070000D02*
X204737500Y-58070000D01*
X205937500Y-58570001D02*
X205937500Y-58070000D01*
X205937500Y-60070000D02*
X205937500Y-59569999D01*
D13*
%TO.C,R29*%
X247197500Y-58755000D02*
X247197500Y-58555000D01*
X248197500Y-58755000D02*
X248197500Y-58555000D01*
%TO.C,J5*%
X200087500Y-108605000D02*
X200887500Y-108605000D01*
X200087500Y-110855000D02*
X200087500Y-108605000D01*
X201187500Y-112855000D02*
X204987500Y-112855000D01*
X205287500Y-108605000D02*
X206087500Y-108605000D01*
X206087500Y-110855000D02*
X206087500Y-108605000D01*
D14*
%TO.C,FT9*%
X208420698Y-106445130D02*
X208774252Y-106091576D01*
X208420698Y-106445130D02*
X209269226Y-107293658D01*
X209269226Y-107293658D02*
X209622780Y-106940104D01*
X209834912Y-105030916D02*
X209481358Y-105384470D01*
X210329886Y-106232998D02*
X210683440Y-105879444D01*
X210683440Y-105879444D02*
X209834912Y-105030916D01*
%TO.C,C71*%
X203437500Y-59155000D02*
X203437500Y-59655001D01*
X203437500Y-60654999D02*
X203437500Y-61155000D01*
X203437500Y-61155000D02*
X204637500Y-61155000D01*
X204637500Y-59155000D02*
X203437500Y-59155000D01*
X204637500Y-59155000D02*
X204637500Y-59655001D01*
X204637500Y-61155000D02*
X204637500Y-60654999D01*
D13*
%TO.C,R6*%
X262447500Y-58555000D02*
X262447500Y-58755000D01*
X263447500Y-58555000D02*
X263447500Y-58755000D01*
D14*
%TO.C,C126*%
X206370950Y-104398684D02*
X206724504Y-104045130D01*
X206370950Y-104398684D02*
X207219478Y-105247212D01*
X207219478Y-105247212D02*
X207573032Y-104893658D01*
X207785164Y-102984470D02*
X207431610Y-103338024D01*
X208280138Y-104186552D02*
X208633692Y-103832998D01*
X208633692Y-103832998D02*
X207785164Y-102984470D01*
%TO.C,C11*%
X203437500Y-72155000D02*
X203437500Y-72655001D01*
X203437500Y-73654999D02*
X203437500Y-74155000D01*
X203437500Y-74155000D02*
X204637500Y-74155000D01*
X204637500Y-72155000D02*
X203437500Y-72155000D01*
X204637500Y-72155000D02*
X204637500Y-72655001D01*
X204637500Y-74155000D02*
X204637500Y-73654999D01*
%TO.C,R13*%
X206037500Y-66690000D02*
X206037500Y-67890000D01*
X206037500Y-66690000D02*
X206537500Y-66690000D01*
X206037500Y-67890000D02*
X206537500Y-67890000D01*
X207537500Y-67890000D02*
X208037500Y-67890000D01*
X208037500Y-66690000D02*
X207537500Y-66690000D01*
X208037500Y-67890000D02*
X208037500Y-66690000D01*
D13*
%TO.C,R8*%
X259497500Y-56055000D02*
X259497500Y-55855000D01*
X260497500Y-56055000D02*
X260497500Y-55855000D01*
D14*
%TO.C,C20*%
X206547500Y-81305000D02*
X206547500Y-82505000D01*
X206547500Y-81305000D02*
X207047501Y-81305000D01*
X206547500Y-82505000D02*
X207047501Y-82505000D01*
X208047499Y-82505000D02*
X208547500Y-82505000D01*
X208547500Y-81305000D02*
X208047499Y-81305000D01*
X208547500Y-82505000D02*
X208547500Y-81305000D01*
D13*
%TO.C,C6*%
X224187500Y-75105000D02*
X224187500Y-76005000D01*
%TO.C,TP102*%
X228052500Y-89935002D02*
G75*
G02*
X226252500Y-89935002I-900000J0D01*
G01*
X226252500Y-89935002D02*
G75*
G02*
X228052500Y-89935002I900000J0D01*
G01*
%TO.C,R28*%
X250197500Y-58555000D02*
X250197500Y-58755000D01*
X251197500Y-58555000D02*
X251197500Y-58755000D01*
D14*
%TO.C,R19*%
X204737500Y-64570000D02*
X204737500Y-65070001D01*
X204737500Y-66570000D02*
X204737500Y-66069999D01*
X204737500Y-66570000D02*
X205937500Y-66570000D01*
X205937500Y-64570000D02*
X204737500Y-64570000D01*
X205937500Y-65070001D02*
X205937500Y-64570000D01*
X205937500Y-66570000D02*
X205937500Y-66069999D01*
D13*
%TO.C,TP1*%
X205360290Y-91271980D02*
G75*
G02*
X203560290Y-91271980I-900000J0D01*
G01*
X203560290Y-91271980D02*
G75*
G02*
X205360290Y-91271980I900000J0D01*
G01*
%TO.C,FT1*%
X251597500Y-50355000D02*
X251597500Y-50555000D01*
X252097500Y-50355000D02*
X252097500Y-50555000D01*
X252597500Y-50355000D02*
X252597500Y-50555000D01*
D14*
%TO.C,FT11*%
X201310290Y-92871980D02*
X201663844Y-93225534D01*
X202158818Y-92023452D02*
X201310290Y-92871980D01*
X202158818Y-92023452D02*
X202512372Y-92377006D01*
X202370950Y-93932640D02*
X202724504Y-94286194D01*
X202724504Y-94286194D02*
X203573032Y-93437666D01*
X203573032Y-93437666D02*
X203219478Y-93084112D01*
D13*
%TO.C,TP7*%
X231287499Y-67455000D02*
G75*
G02*
X229487499Y-67455000I-900000J0D01*
G01*
X229487499Y-67455000D02*
G75*
G02*
X231287499Y-67455000I900000J0D01*
G01*
%TO.C,R11*%
X224087500Y-73455000D02*
X224287500Y-73455000D01*
X224087500Y-74455000D02*
X224287500Y-74455000D01*
D14*
%TO.C,C73*%
X200087500Y-62055000D02*
X200087500Y-63255000D01*
X200087500Y-63255000D02*
X200587501Y-63255000D01*
X200587501Y-62055000D02*
X200087500Y-62055000D01*
X202087500Y-62055000D02*
X201587499Y-62055000D01*
X202087500Y-63255000D02*
X201587499Y-63255000D01*
X202087500Y-63255000D02*
X202087500Y-62055000D01*
%TO.C,C119*%
X216824861Y-105879444D02*
X217178415Y-106232998D01*
X217673389Y-105030916D02*
X216824861Y-105879444D01*
X218026943Y-105384470D02*
X217673389Y-105030916D01*
X218239075Y-107293658D02*
X217885521Y-106940104D01*
X218239075Y-107293658D02*
X219087603Y-106445130D01*
X219087603Y-106445130D02*
X218734049Y-106091576D01*
%TO.C,C8*%
X206037500Y-74459999D02*
X206037500Y-75659999D01*
X206037500Y-75659999D02*
X206537501Y-75659999D01*
X206537501Y-74459999D02*
X206037500Y-74459999D01*
X208037500Y-74459999D02*
X207537499Y-74459999D01*
X208037500Y-75659999D02*
X207537499Y-75659999D01*
X208037500Y-75659999D02*
X208037500Y-74459999D01*
D13*
%TO.C,D101*%
X212837500Y-109480000D02*
X212337500Y-109280000D01*
X213337500Y-109280000D01*
X212837500Y-109480000D01*
G36*
X212837500Y-109480000D02*
G01*
X212337500Y-109280000D01*
X213337500Y-109280000D01*
X212837500Y-109480000D01*
G37*
D14*
%TO.C,FT7*%
X199610290Y-94571980D02*
X199963844Y-94925534D01*
X200458818Y-93723452D02*
X199610290Y-94571980D01*
X200458818Y-93723452D02*
X200812372Y-94077006D01*
X200670950Y-95632640D02*
X201024504Y-95986194D01*
X201024504Y-95986194D02*
X201873032Y-95137666D01*
X201873032Y-95137666D02*
X201519478Y-94784112D01*
D13*
%TO.C,FT4*%
X275097500Y-50355000D02*
X275097500Y-50555000D01*
X275597500Y-50355000D02*
X275597500Y-50555000D01*
X276097500Y-50355000D02*
X276097500Y-50555000D01*
D14*
%TO.C,C128*%
X204460290Y-92621980D02*
X204813844Y-92975534D01*
X205308818Y-91773452D02*
X204460290Y-92621980D01*
X205308818Y-91773452D02*
X205662372Y-92127006D01*
X205520950Y-93682640D02*
X205874504Y-94036194D01*
X205874504Y-94036194D02*
X206723032Y-93187666D01*
X206723032Y-93187666D02*
X206369478Y-92834112D01*
D13*
%TO.C,C2*%
X261197500Y-53455000D02*
X260847500Y-53455000D01*
X261197500Y-54255000D02*
X261197500Y-52655000D01*
X261697500Y-52655000D02*
X261697500Y-54255000D01*
X262047500Y-53455000D02*
X261697500Y-53455000D01*
%TO.C,R3*%
X253297500Y-58755000D02*
X253297500Y-58555000D01*
X254297500Y-58755000D02*
X254297500Y-58555000D01*
D14*
%TO.C,R38*%
X206037500Y-58920000D02*
X206037500Y-60120000D01*
X206037500Y-58920000D02*
X206537500Y-58920000D01*
X206037500Y-60120000D02*
X206537500Y-60120000D01*
X207537500Y-60120000D02*
X208037500Y-60120000D01*
X208037500Y-58920000D02*
X207537500Y-58920000D01*
X208037500Y-60120000D02*
X208037500Y-58920000D01*
%TO.C,R21*%
X199037500Y-63555000D02*
X199037500Y-64755000D01*
X199037500Y-64755000D02*
X199537501Y-64755000D01*
X199537501Y-63555000D02*
X199037500Y-63555000D01*
X201037500Y-63555000D02*
X200537499Y-63555000D01*
X201037500Y-64755000D02*
X200537499Y-64755000D01*
X201037500Y-64755000D02*
X201037500Y-63555000D01*
D13*
%TO.C,TP5*%
X228987500Y-78455000D02*
G75*
G02*
X227187500Y-78455000I-900000J0D01*
G01*
X227187500Y-78455000D02*
G75*
G02*
X228987500Y-78455000I900000J0D01*
G01*
D14*
%TO.C,C12*%
X200087500Y-68555000D02*
X200087500Y-69755000D01*
X200087500Y-69755000D02*
X200587501Y-69755000D01*
X200587501Y-68555000D02*
X200087500Y-68555000D01*
X202087500Y-68555000D02*
X201587499Y-68555000D01*
X202087500Y-69755000D02*
X201587499Y-69755000D01*
X202087500Y-69755000D02*
X202087500Y-68555000D01*
D13*
%TO.C,C65*%
X222487500Y-60155000D02*
X221587500Y-60155000D01*
%TO.C,D14*%
X226737500Y-60755000D02*
X226737500Y-61155000D01*
X227137500Y-59505000D02*
X228037500Y-59505000D01*
X227137500Y-62405000D02*
X228037500Y-62405000D01*
X228037499Y-61705000D02*
X228037500Y-62380000D01*
X228037500Y-59505000D02*
X228037499Y-60205000D01*
D14*
%TO.C,C14*%
X201137500Y-63555000D02*
X201137500Y-64755000D01*
X201137500Y-64755000D02*
X201637501Y-64755000D01*
X201637501Y-63555000D02*
X201137500Y-63555000D01*
X203137500Y-63555000D02*
X202637499Y-63555000D01*
X203137500Y-64755000D02*
X202637499Y-64755000D01*
X203137500Y-64755000D02*
X203137500Y-63555000D01*
D13*
%TO.C,TP6*%
X231287499Y-60955000D02*
G75*
G02*
X229487499Y-60955000I-900000J0D01*
G01*
X229487499Y-60955000D02*
G75*
G02*
X231287499Y-60955000I900000J0D01*
G01*
%TO.C,U102*%
X217272780Y-104300155D02*
X217803110Y-103769825D01*
X217803110Y-104830485D02*
X217272780Y-104300155D01*
X218545572Y-103027363D02*
X219394100Y-102178835D01*
X218545572Y-105572947D02*
X219818364Y-106845739D01*
X219394100Y-102178835D02*
X221939684Y-104724419D01*
X221939684Y-104724419D02*
X219818364Y-106845739D01*
D14*
%TO.C,FT8*%
X210856232Y-105862287D02*
X210856232Y-106362288D01*
X210856232Y-107362286D02*
X210856232Y-107862287D01*
X210856232Y-107862287D02*
X212056232Y-107862287D01*
X212056232Y-105862287D02*
X210856232Y-105862287D01*
X212056232Y-105862287D02*
X212056232Y-106362288D01*
X212056232Y-107862287D02*
X212056232Y-107362286D01*
%TO.C,FT13*%
X202196077Y-100223810D02*
X203044605Y-101072338D01*
X202549631Y-99870256D02*
X202196077Y-100223810D01*
X203044605Y-101072338D02*
X203398159Y-100718784D01*
X203610291Y-98809596D02*
X203256737Y-99163150D01*
X204458819Y-99658124D02*
X203610291Y-98809596D01*
X204458819Y-99658124D02*
X204105265Y-100011678D01*
D13*
%TO.C,TP103*%
X203059250Y-101909165D02*
G75*
G02*
X201259250Y-101909165I-900000J0D01*
G01*
X201259250Y-101909165D02*
G75*
G02*
X203059250Y-101909165I900000J0D01*
G01*
D14*
%TO.C,R101*%
X215656232Y-107862287D02*
X215656232Y-108362288D01*
X215656232Y-109362286D02*
X215656232Y-109862287D01*
X215656232Y-109862287D02*
X216856232Y-109862287D01*
X216856232Y-107862287D02*
X215656232Y-107862287D01*
X216856232Y-107862287D02*
X216856232Y-108362288D01*
X216856232Y-109862287D02*
X216856232Y-109362286D01*
%TO.C,U2*%
X210987500Y-70255000D02*
X210987500Y-76055000D01*
X216487500Y-76055000D02*
X210987500Y-76055000D01*
X218487500Y-70255000D02*
X210987500Y-70255000D01*
X218487500Y-74055001D02*
X218487500Y-70255000D01*
X218487500Y-75054999D02*
X218487500Y-76055000D01*
X218487500Y-76055000D02*
X217487500Y-76055000D01*
%TO.C,R24*%
X206837500Y-108780000D02*
X206837500Y-109980000D01*
X206837500Y-108780000D02*
X207337500Y-108780000D01*
X206837500Y-109980000D02*
X207337500Y-109980000D01*
X208337500Y-109980000D02*
X208837500Y-109980000D01*
X208837500Y-108780000D02*
X208337500Y-108780000D01*
X208837500Y-109980000D02*
X208837500Y-108780000D01*
D13*
%TO.C,R34*%
X224087500Y-58855000D02*
X224287500Y-58855000D01*
X224087500Y-59855000D02*
X224287500Y-59855000D01*
D14*
%TO.C,C125*%
X205520950Y-103548684D02*
X205874504Y-103195130D01*
X205520950Y-103548684D02*
X206369478Y-104397212D01*
X206369478Y-104397212D02*
X206723032Y-104043658D01*
X206935164Y-102134470D02*
X206581610Y-102488024D01*
X207430138Y-103336552D02*
X207783692Y-102982998D01*
X207783692Y-102982998D02*
X206935164Y-102134470D01*
%TO.C,C9*%
X203437500Y-65655000D02*
X203437500Y-66155001D01*
X203437500Y-67154999D02*
X203437500Y-67655000D01*
X203437500Y-67655000D02*
X204637500Y-67655000D01*
X204637500Y-65655000D02*
X203437500Y-65655000D01*
X204637500Y-65655000D02*
X204637500Y-66155001D01*
X204637500Y-67655000D02*
X204637500Y-67154999D01*
D13*
%TO.C,R1*%
X256297500Y-55855000D02*
X256297500Y-56055000D01*
X257297500Y-55855000D02*
X257297500Y-56055000D01*
D14*
%TO.C,C124*%
X215656232Y-105862287D02*
X215656232Y-106362288D01*
X215656232Y-107862287D02*
X215656232Y-107362286D01*
X215656232Y-107862287D02*
X216856232Y-107862287D01*
X216856232Y-105862287D02*
X215656232Y-105862287D01*
X216856232Y-106362288D02*
X216856232Y-105862287D01*
X216856232Y-107862287D02*
X216856232Y-107362286D01*
D13*
%TO.C,FT3*%
X260997500Y-50355000D02*
X260997500Y-50555000D01*
X261497500Y-50355000D02*
X261497500Y-50555000D01*
X261997500Y-50355000D02*
X261997500Y-50555000D01*
%TO.C,R4*%
X253297500Y-56055000D02*
X253297500Y-55855000D01*
X254297500Y-56055000D02*
X254297500Y-55855000D01*
D14*
%TO.C,C101*%
X206410290Y-90671980D02*
X206763844Y-91025534D01*
X207258818Y-89823452D02*
X206410290Y-90671980D01*
X207258818Y-89823452D02*
X207612372Y-90177006D01*
X207470950Y-91732640D02*
X207824504Y-92086194D01*
X207824504Y-92086194D02*
X208673032Y-91237666D01*
X208673032Y-91237666D02*
X208319478Y-90884112D01*
%TO.C,R18*%
X204737500Y-73240000D02*
X204737500Y-73740001D01*
X204737500Y-74739999D02*
X204737500Y-75240000D01*
X204737500Y-75240000D02*
X205937500Y-75240000D01*
X205937500Y-73240000D02*
X204737500Y-73240000D01*
X205937500Y-73240000D02*
X205937500Y-73740001D01*
X205937500Y-75240000D02*
X205937500Y-74739999D01*
D13*
%TO.C,TP4*%
X276497500Y-52955000D02*
G75*
G02*
X274697500Y-52955000I-900000J0D01*
G01*
X274697500Y-52955000D02*
G75*
G02*
X276497500Y-52955000I900000J0D01*
G01*
D14*
%TO.C,C69*%
X206037500Y-61459999D02*
X206037500Y-62659999D01*
X206037500Y-62659999D02*
X206537501Y-62659999D01*
X206537501Y-61459999D02*
X206037500Y-61459999D01*
X208037500Y-61459999D02*
X207537499Y-61459999D01*
X208037500Y-62659999D02*
X207537499Y-62659999D01*
X208037500Y-62659999D02*
X208037500Y-61459999D01*
%TO.C,C25*%
X203610290Y-93471980D02*
X203963844Y-93825534D01*
X204458818Y-92623452D02*
X203610290Y-93471980D01*
X204812372Y-92977006D02*
X204458818Y-92623452D01*
X205024504Y-94886194D02*
X204670950Y-94532640D01*
X205024504Y-94886194D02*
X205873032Y-94037666D01*
X205873032Y-94037666D02*
X205519478Y-93684112D01*
%TO.C,R15*%
X206037500Y-73190000D02*
X206037500Y-74390000D01*
X206037500Y-73190000D02*
X206537500Y-73190000D01*
X206037500Y-74390000D02*
X206537500Y-74390000D01*
X207537500Y-74390000D02*
X208037500Y-74390000D01*
X208037500Y-73190000D02*
X207537500Y-73190000D01*
X208037500Y-74390000D02*
X208037500Y-73190000D01*
%TO.C,C27*%
X200210290Y-96871980D02*
X200563844Y-97225534D01*
X201058818Y-96023452D02*
X200210290Y-96871980D01*
X201412372Y-96377006D02*
X201058818Y-96023452D01*
X201624504Y-98286194D02*
X201270950Y-97932640D01*
X201624504Y-98286194D02*
X202473032Y-97437666D01*
X202473032Y-97437666D02*
X202119478Y-97084112D01*
D13*
%TO.C,R33*%
X224087500Y-60455000D02*
X224287500Y-60455000D01*
X224087500Y-61455000D02*
X224287500Y-61455000D01*
%TO.C,R5*%
X262447500Y-55855000D02*
X262447500Y-56055000D01*
X263447500Y-55855000D02*
X263447500Y-56055000D01*
D14*
%TO.C,C123*%
X214454150Y-105862287D02*
X214454150Y-106362288D01*
X214454150Y-107862287D02*
X214454150Y-107362286D01*
X214454150Y-107862287D02*
X215654150Y-107862287D01*
X215654150Y-105862287D02*
X214454150Y-105862287D01*
X215654150Y-106362288D02*
X215654150Y-105862287D01*
X215654150Y-107862287D02*
X215654150Y-107362286D01*
%TO.C,R22*%
X199037500Y-70055000D02*
X199037500Y-71255000D01*
X199037500Y-71255000D02*
X199537501Y-71255000D01*
X199537501Y-70055000D02*
X199037500Y-70055000D01*
X201037500Y-70055000D02*
X200537499Y-70055000D01*
X201037500Y-71255000D02*
X200537499Y-71255000D01*
X201037500Y-71255000D02*
X201037500Y-70055000D01*
D13*
%TO.C,TP101*%
X223752500Y-88665002D02*
G75*
G02*
X221952500Y-88665002I-900000J0D01*
G01*
X221952500Y-88665002D02*
G75*
G02*
X223752500Y-88665002I900000J0D01*
G01*
%TO.C,C5*%
X224187500Y-68605000D02*
X224187500Y-69505000D01*
%TO.C,D102*%
X210137500Y-109480000D02*
X209137500Y-109480000D01*
X209637500Y-109280000D01*
X210137500Y-109480000D01*
G36*
X210137500Y-109480000D02*
G01*
X209137500Y-109480000D01*
X209637500Y-109280000D01*
X210137500Y-109480000D01*
G37*
%TO.C,U3*%
X200287500Y-65155000D02*
X201887500Y-65155000D01*
X200287500Y-68155000D02*
X200787500Y-68155000D01*
X201887500Y-68155000D02*
X201387500Y-68155000D01*
D14*
%TO.C,C7*%
X206037500Y-67959999D02*
X206037500Y-69159999D01*
X206037500Y-69159999D02*
X206537501Y-69159999D01*
X206537501Y-67959999D02*
X206037500Y-67959999D01*
X208037500Y-67959999D02*
X207537499Y-67959999D01*
X208037500Y-69159999D02*
X207537499Y-69159999D01*
X208037500Y-69159999D02*
X208037500Y-67959999D01*
D13*
%TO.C,U4*%
X200287500Y-71655000D02*
X201887500Y-71655000D01*
X200287500Y-74655000D02*
X200787500Y-74655000D01*
X201887500Y-74655000D02*
X201387500Y-74655000D01*
%TO.C,R9*%
X224087500Y-66955000D02*
X224287500Y-66955000D01*
X224087500Y-67955000D02*
X224287500Y-67955000D01*
%TO.C,D1*%
X226737500Y-67255000D02*
X226737500Y-67655000D01*
X227137500Y-66005000D02*
X228037500Y-66005000D01*
X227137500Y-68905000D02*
X228037500Y-68905000D01*
X228037499Y-68205000D02*
X228037500Y-68880000D01*
X228037500Y-66005000D02*
X228037499Y-66705000D01*
%TO.C,R2*%
X256297500Y-58555000D02*
X256297500Y-58755000D01*
X257297500Y-58555000D02*
X257297500Y-58755000D01*
%TO.C,U17*%
X200287500Y-58655000D02*
X201887500Y-58655000D01*
X200287500Y-61655000D02*
X200787500Y-61655000D01*
X201887500Y-61655000D02*
X201387500Y-61655000D01*
%TO.C,FT2*%
X256297500Y-50355000D02*
X256297500Y-50555000D01*
X256797500Y-50355000D02*
X256797500Y-50555000D01*
X257297500Y-50355000D02*
X257297500Y-50555000D01*
D14*
%TO.C,R23*%
X206837500Y-107580000D02*
X206837500Y-108780000D01*
X206837500Y-107580000D02*
X207337500Y-107580000D01*
X206837500Y-108780000D02*
X207337500Y-108780000D01*
X208337500Y-108780000D02*
X208837500Y-108780000D01*
X208837500Y-107580000D02*
X208337500Y-107580000D01*
X208837500Y-108780000D02*
X208837500Y-107580000D01*
%TO.C,R14*%
X206037500Y-65420000D02*
X206037500Y-66620000D01*
X206037500Y-65420000D02*
X206537500Y-65420000D01*
X206037500Y-66620000D02*
X206537500Y-66620000D01*
X207537500Y-66620000D02*
X208037500Y-66620000D01*
X208037500Y-65420000D02*
X207537500Y-65420000D01*
X208037500Y-66620000D02*
X208037500Y-65420000D01*
%TO.C,C74*%
X201137500Y-57055000D02*
X201137500Y-58255000D01*
X201137500Y-58255000D02*
X201637501Y-58255000D01*
X201637501Y-57055000D02*
X201137500Y-57055000D01*
X203137500Y-57055000D02*
X202637499Y-57055000D01*
X203137500Y-58255000D02*
X202637499Y-58255000D01*
X203137500Y-58255000D02*
X203137500Y-57055000D01*
%TO.C,C28*%
X201346077Y-99373810D02*
X202194605Y-100222338D01*
X201699631Y-99020256D02*
X201346077Y-99373810D01*
X202194605Y-100222338D02*
X202548159Y-99868784D01*
X202760291Y-97959596D02*
X202406737Y-98313150D01*
X203608819Y-98808124D02*
X202760291Y-97959596D01*
X203608819Y-98808124D02*
X203255265Y-99161678D01*
D13*
%TO.C,R12*%
X224087500Y-71855000D02*
X224287500Y-71855000D01*
X224087500Y-72855000D02*
X224287500Y-72855000D01*
D14*
%TO.C,C112*%
X203896077Y-101923810D02*
X204249631Y-101570256D01*
X203896077Y-101923810D02*
X204744605Y-102772338D01*
X204744605Y-102772338D02*
X205098159Y-102418784D01*
X205310291Y-100509596D02*
X204956737Y-100863150D01*
X205805265Y-101711678D02*
X206158819Y-101358124D01*
X206158819Y-101358124D02*
X205310291Y-100509596D01*
D13*
%TO.C,TP104*%
X200849125Y-99409165D02*
G75*
G02*
X199049125Y-99409165I-900000J0D01*
G01*
X199049125Y-99409165D02*
G75*
G02*
X200849125Y-99409165I900000J0D01*
G01*
D14*
%TO.C,C121*%
X217724861Y-91630560D02*
X218573389Y-92479088D01*
X218078415Y-91277006D02*
X217724861Y-91630560D01*
X218573389Y-92479088D02*
X218926943Y-92125534D01*
X219139075Y-90216346D02*
X218785521Y-90569900D01*
X219987603Y-91064874D02*
X219139075Y-90216346D01*
X219987603Y-91064874D02*
X219634049Y-91418428D01*
%TO.C,U1*%
X210987500Y-63755000D02*
X210987500Y-69555000D01*
X216487500Y-69555000D02*
X210987500Y-69555000D01*
X218487500Y-63755000D02*
X210987500Y-63755000D01*
X218487500Y-67555001D02*
X218487500Y-63755000D01*
X218487500Y-68554999D02*
X218487500Y-69555000D01*
X218487500Y-69555000D02*
X217487500Y-69555000D01*
%TO.C,R39*%
X204737500Y-60240000D02*
X204737500Y-60740001D01*
X204737500Y-61739999D02*
X204737500Y-62240000D01*
X204737500Y-62240000D02*
X205937500Y-62240000D01*
X205937500Y-60240000D02*
X204737500Y-60240000D01*
X205937500Y-60240000D02*
X205937500Y-60740001D01*
X205937500Y-62240000D02*
X205937500Y-61739999D01*
%TD*%
M02*
