%TF.GenerationSoftware,KiCad,Pcbnew,9.0.2*%
%TF.CreationDate,2025-06-26T21:54:26+07:00*%
%TF.ProjectId,HW.ACIM-MCU-ADAP,48572e41-4349-44d2-9d4d-43552d414441,0.1*%
%TF.SameCoordinates,Original*%
%TF.FileFunction,Copper,L2,Inr*%
%TF.FilePolarity,Positive*%
%FSLAX46Y46*%
G04 Gerber Fmt 4.6, Leading zero omitted, Abs format (unit mm)*
G04 Created by KiCad (PCBNEW 9.0.2) date 2025-06-26 21:54:26*
%MOMM*%
%LPD*%
G01*
G04 APERTURE LIST*
G04 Aperture macros list*
%AMRoundRect*
0 Rectangle with rounded corners*
0 $1 Rounding radius*
0 $2 $3 $4 $5 $6 $7 $8 $9 X,Y pos of 4 corners*
0 Add a 4 corners polygon primitive as box body*
4,1,4,$2,$3,$4,$5,$6,$7,$8,$9,$2,$3,0*
0 Add four circle primitives for the rounded corners*
1,1,$1+$1,$2,$3*
1,1,$1+$1,$4,$5*
1,1,$1+$1,$6,$7*
1,1,$1+$1,$8,$9*
0 Add four rect primitives between the rounded corners*
20,1,$1+$1,$2,$3,$4,$5,0*
20,1,$1+$1,$4,$5,$6,$7,0*
20,1,$1+$1,$6,$7,$8,$9,0*
20,1,$1+$1,$8,$9,$2,$3,0*%
G04 Aperture macros list end*
%TA.AperFunction,ComponentPad*%
%ADD10RoundRect,0.450000X-0.450000X-0.450000X0.450000X-0.450000X0.450000X0.450000X-0.450000X0.450000X0*%
%TD*%
%TA.AperFunction,ComponentPad*%
%ADD11RoundRect,0.225000X-0.525000X-0.675000X0.525000X-0.675000X0.525000X0.675000X-0.525000X0.675000X0*%
%TD*%
%TA.AperFunction,ComponentPad*%
%ADD12C,1.600000*%
%TD*%
%TA.AperFunction,ViaPad*%
%ADD13C,0.480000*%
%TD*%
%TA.AperFunction,Conductor*%
%ADD14C,0.500000*%
%TD*%
%TA.AperFunction,Conductor*%
%ADD15C,0.160000*%
%TD*%
G04 APERTURE END LIST*
D10*
%TO.N,GND_MCU*%
%TO.C,MD1*%
X210927500Y-81905000D03*
D11*
%TO.N,Net-(MD1-VI+)*%
X213467499Y-81905000D03*
%TO.N,GND_ISO*%
X216007501Y-81905000D03*
%TO.N,Net-(MD1-DC+)*%
X218547500Y-81905000D03*
%TD*%
D12*
%TO.N,Net-(FT3-Pad1)*%
%TO.C,J3*%
X261497500Y-47955000D03*
%TD*%
%TO.N,Net-(FT2-Pad1)*%
%TO.C,J2*%
X256797500Y-47955000D03*
%TD*%
%TO.N,Net-(FT1-Pad1)*%
%TO.C,J1*%
X252097500Y-47955000D03*
%TD*%
%TO.N,Net-(FT4-Pad1)*%
%TO.C,J4*%
X275597500Y-47955000D03*
%TD*%
D13*
%TO.N,GND_MCU*%
X213467499Y-61855000D03*
X203852500Y-75165001D03*
X218787500Y-112055000D03*
X225287500Y-85555000D03*
X198852499Y-103905001D03*
X213467499Y-69355000D03*
X206673463Y-90086625D03*
X227152500Y-88665002D03*
X222852500Y-88665002D03*
X225287500Y-108055000D03*
X206120950Y-104645740D03*
X213787500Y-112055000D03*
X213002500Y-97555002D03*
X207352500Y-71165001D03*
X198852500Y-73165001D03*
X213467499Y-56855000D03*
X203787500Y-112055000D03*
X230287500Y-90555000D03*
X217729976Y-108125980D03*
X203287500Y-85555000D03*
X213467499Y-59355000D03*
X203152501Y-103905001D03*
X213467499Y-71855000D03*
X217502500Y-98055002D03*
X230287500Y-95555000D03*
X230287500Y-108055000D03*
X206787500Y-85555000D03*
X205967499Y-56855000D03*
X203852500Y-78665001D03*
X213467499Y-64355000D03*
X213467499Y-66855000D03*
X198787500Y-112055000D03*
X205497500Y-98455000D03*
X207352500Y-64665001D03*
X213467499Y-79355000D03*
X210967499Y-56855000D03*
X220287500Y-85555000D03*
X218209785Y-102408734D03*
X213467499Y-76855000D03*
X198852500Y-60165001D03*
X219729976Y-108125980D03*
X223787500Y-112055000D03*
X203697500Y-98355000D03*
X207787500Y-78055000D03*
X205147500Y-96655000D03*
X204460290Y-92571980D03*
X230287500Y-100555000D03*
X210287500Y-85555000D03*
X208467499Y-56855000D03*
X225287500Y-98055000D03*
X210502500Y-97555002D03*
X198852500Y-78665001D03*
X198852500Y-83665001D03*
X208787500Y-112055000D03*
X215287500Y-85555000D03*
X199023463Y-98136373D03*
X212787500Y-88055000D03*
X203467499Y-56855000D03*
X230287500Y-85555000D03*
X213002500Y-100055002D03*
X198852500Y-66665001D03*
X213002500Y-95055002D03*
X205947500Y-108155000D03*
X221679976Y-108125980D03*
X217787500Y-88055000D03*
X217423463Y-103792974D03*
X214023463Y-105336625D03*
X213467499Y-74355000D03*
X203852500Y-68665001D03*
X203852500Y-62165001D03*
X216002500Y-96555002D03*
%TO.N,+3V3_MCU*%
X207523463Y-102492974D03*
X222852500Y-89935002D03*
X207394656Y-103371781D03*
X206335595Y-92797285D03*
X227152500Y-89935002D03*
X207523463Y-89236625D03*
X214454150Y-106412287D03*
%TO.N,GND_ISO*%
X230737500Y-64355000D03*
X235737500Y-66855000D03*
X222212500Y-81705000D03*
X224187500Y-72355000D03*
X216057501Y-76855000D03*
X238237500Y-61855000D03*
X235737500Y-64355000D03*
X220737500Y-56855000D03*
X230737500Y-71855000D03*
X245356232Y-56862287D03*
X252947500Y-52955000D03*
X228237500Y-76855000D03*
X233237500Y-61855000D03*
X235737500Y-56855000D03*
X223237500Y-56855000D03*
X224187500Y-75605000D03*
X228237500Y-69355000D03*
X228237500Y-64355000D03*
X216057501Y-74355000D03*
X265597500Y-52955000D03*
X228237500Y-71855000D03*
X243237500Y-61855000D03*
X224187500Y-59355000D03*
X225437500Y-81105000D03*
X233237500Y-66855000D03*
X224187500Y-60955000D03*
X233237500Y-56855000D03*
X275597500Y-52955000D03*
X216057501Y-79355000D03*
X224187500Y-67455000D03*
X270597500Y-52955000D03*
X259097500Y-52955000D03*
X228237500Y-59355000D03*
X224187500Y-65855000D03*
X265597500Y-57955000D03*
X216057501Y-66855000D03*
X233237500Y-64355000D03*
X238237500Y-66855000D03*
X246847500Y-53955000D03*
X233237500Y-69355000D03*
X225737500Y-56855000D03*
X222037500Y-60155000D03*
X222212500Y-80105000D03*
X222037500Y-66655000D03*
X216057501Y-71855000D03*
X228237500Y-56855000D03*
X220737500Y-76855000D03*
X259097500Y-53955000D03*
X218237500Y-59355000D03*
X224187500Y-69055000D03*
X218237500Y-79355000D03*
X222037500Y-73155000D03*
X230737500Y-76855000D03*
X216057501Y-64355000D03*
X216057501Y-56855000D03*
X238237500Y-64355000D03*
X230737500Y-81855000D03*
X218237500Y-61855000D03*
X240737500Y-64355000D03*
X216057501Y-59355000D03*
X270597500Y-47955000D03*
X235737500Y-69355000D03*
X233237500Y-59355000D03*
X230737500Y-56855000D03*
X216057501Y-61855000D03*
X230737500Y-59355000D03*
X270597500Y-57955000D03*
X238237500Y-59355000D03*
X245356232Y-51862287D03*
X235737500Y-61855000D03*
X245356232Y-59362287D03*
X224187500Y-62555000D03*
X246847500Y-52955000D03*
X225737500Y-79355000D03*
X233237500Y-71855000D03*
X240737500Y-61855000D03*
X230737500Y-69355000D03*
X230737500Y-61855000D03*
X230737500Y-79355000D03*
X223237500Y-64355000D03*
X225737500Y-76855000D03*
X216057501Y-69355000D03*
X218237500Y-56855000D03*
X265597500Y-47955000D03*
X225737500Y-64355000D03*
X252947500Y-53955000D03*
X224187500Y-73955000D03*
%TO.N,AVDD_MCU*%
X201659250Y-99909165D03*
%TO.N,AGND_MCU*%
X204991661Y-95404823D03*
X205991661Y-94404823D03*
X203287500Y-64155000D03*
X203287500Y-70655000D03*
X202245646Y-98222769D03*
X212656232Y-105612287D03*
X203159859Y-97273021D03*
X207883871Y-106130485D03*
X206456001Y-100977504D03*
X203991661Y-96404823D03*
X203287500Y-57655000D03*
%TO.N,Net-(D1-COM)*%
X253797500Y-55955000D03*
X227387500Y-67455000D03*
%TO.N,Net-(D2-COM)*%
X259997500Y-55955000D03*
X227387500Y-73955000D03*
%TO.N,/MCU/ENC_B*%
X203152500Y-88665001D03*
%TO.N,/MCU/PWR_RELAY*%
X198852500Y-101365001D03*
X214238465Y-92429950D03*
%TO.N,Net-(D14-COM)*%
X227387500Y-60955000D03*
X247697500Y-55955000D03*
%TO.N,/MCU/DEV_RELAY*%
X205470341Y-99783860D03*
X203152500Y-101365001D03*
%TO.N,/MCU/DV_TXD*%
X227152500Y-101365002D03*
%TO.N,/MCU/PGD*%
X227152500Y-106445002D03*
%TO.N,/MCU/USB_P*%
X215145572Y-101822948D03*
%TO.N,/MCU/DB_TXD*%
X228952500Y-102635002D03*
%TO.N,/MCU/PGC*%
X227152500Y-105175002D03*
%TO.N,/MCU/USB_N*%
X214442018Y-102526501D03*
%TO.N,/MCU/DB_RXD*%
X224652500Y-102635002D03*
%TO.N,/MCU/DV_RXD*%
X222852500Y-101365002D03*
%TO.N,/MCU/VBUS*%
X215256232Y-105197821D03*
%TO.N,/MCU/~{MCLR}*%
X227152501Y-103905002D03*
%TO.N,/MCU/IDC*%
X198852499Y-91205001D03*
%TO.N,/MCU/UDC*%
X198852500Y-92475001D03*
%TO.N,/MCU/MC_IU*%
X227152500Y-92475002D03*
X211456232Y-105612287D03*
%TO.N,/MCU/MC_IW*%
X208733871Y-106980485D03*
X227152501Y-91205002D03*
%TO.N,/MCU/ENC_HOME*%
X198852500Y-89935001D03*
%TO.N,/MCU/MC_UU*%
X201087500Y-57655000D03*
X202423463Y-91436625D03*
%TO.N,/MCU/MC_UV*%
X201573463Y-92286625D03*
X201087500Y-64155000D03*
%TO.N,/MCU/MC_UW*%
X201087500Y-70655000D03*
X199023463Y-94836625D03*
%TO.N,/MCU/ENC_IDX*%
X198852500Y-88665001D03*
%TO.N,/MCU/IND_RUN*%
X198852500Y-102635001D03*
%TO.N,/MCU/ENC_A*%
X203152500Y-89935001D03*
%TO.N,/MCU/IND_ERR*%
X203152500Y-102635001D03*
%TO.N,/MCU/MC_PWM_UL*%
X227152500Y-95015002D03*
%TO.N,/MCU/MC_PWM_VH*%
X222852500Y-96285002D03*
%TO.N,/MCU/MC_PWM_VL*%
X227152501Y-97555002D03*
%TO.N,/MCU/MC_PWM_WH*%
X222852499Y-97555002D03*
%TO.N,/MCU/MC_PWM_WL*%
X227152500Y-96285002D03*
%TO.N,/MCU/~{INV_FLT}*%
X222852500Y-98825002D03*
%TO.N,/MCU/MC_PWM_UH*%
X222852500Y-95015002D03*
%TD*%
D14*
%TO.N,+3V3_MCU*%
X207523463Y-102492974D02*
X207523463Y-103242974D01*
X207394656Y-103371781D02*
X207394656Y-102621781D01*
X207394656Y-102621781D02*
X207523463Y-102492974D01*
X207523463Y-103242974D02*
X207394656Y-103371781D01*
%TO.N,GND_ISO*%
X259097500Y-52955000D02*
X259097500Y-53955000D01*
X252947500Y-52955000D02*
X252947500Y-53955000D01*
X246847500Y-52955000D02*
X246847500Y-53955000D01*
D15*
%TO.N,AGND_MCU*%
X203287500Y-64155000D02*
X203287500Y-70655000D01*
X203287500Y-57655000D02*
X203287500Y-64155000D01*
X203991661Y-96404823D02*
X203991661Y-96441219D01*
X203159859Y-97273021D02*
X203159859Y-97308556D01*
%TO.N,/MCU/DEV_RELAY*%
X204440748Y-100076753D02*
X203152500Y-101365001D01*
X205470341Y-99783860D02*
X205147855Y-99783860D01*
X204440748Y-100076753D02*
G75*
G02*
X205147855Y-99783840I707152J-707147D01*
G01*
%TD*%
%TA.AperFunction,Conductor*%
%TO.N,GND_ISO*%
G36*
X246053813Y-49105980D02*
G01*
X246084808Y-49150246D01*
X246087500Y-49170693D01*
X246087500Y-60775500D01*
X246069018Y-60826280D01*
X246022218Y-60853300D01*
X246008500Y-60854500D01*
X245047937Y-60854500D01*
X244971511Y-60874978D01*
X244971509Y-60874979D01*
X244924236Y-60902273D01*
X244902986Y-60914541D01*
X232263029Y-73554500D01*
X231252989Y-74564540D01*
X231225014Y-74592514D01*
X231197040Y-74620488D01*
X231157479Y-74689009D01*
X231157478Y-74689011D01*
X231137000Y-74765437D01*
X231137000Y-82376000D01*
X231118518Y-82426780D01*
X231071718Y-82453800D01*
X231058000Y-82455000D01*
X219537000Y-82455000D01*
X219486220Y-82436518D01*
X219459200Y-82389718D01*
X219458000Y-82376000D01*
X219458000Y-81193421D01*
X219458000Y-81193418D01*
X219447082Y-81118482D01*
X219390576Y-81002898D01*
X219390575Y-81002897D01*
X219390573Y-81002894D01*
X219299605Y-80911926D01*
X219299599Y-80911922D01*
X219239292Y-80882440D01*
X219184018Y-80855418D01*
X219184020Y-80855418D01*
X219109083Y-80844500D01*
X219109082Y-80844500D01*
X217985918Y-80844500D01*
X217985916Y-80844500D01*
X217910981Y-80855418D01*
X217795400Y-80911922D01*
X217795394Y-80911926D01*
X217704426Y-81002894D01*
X217704422Y-81002900D01*
X217647918Y-81118481D01*
X217637000Y-81193416D01*
X217637000Y-82376000D01*
X217618518Y-82426780D01*
X217571718Y-82453800D01*
X217558000Y-82455000D01*
X216996501Y-82455000D01*
X216945721Y-82436518D01*
X216918701Y-82389718D01*
X216917501Y-82376000D01*
X216917501Y-81985000D01*
X216503703Y-81985000D01*
X216507501Y-81970826D01*
X216507501Y-81839174D01*
X216503703Y-81825000D01*
X216917501Y-81825000D01*
X216917500Y-81193464D01*
X216917499Y-81193457D01*
X216906597Y-81118624D01*
X216850165Y-81003191D01*
X216850162Y-81003187D01*
X216759313Y-80912338D01*
X216759309Y-80912335D01*
X216643877Y-80855903D01*
X216569043Y-80845000D01*
X216087501Y-80845000D01*
X216087501Y-81408797D01*
X216073327Y-81405000D01*
X215941675Y-81405000D01*
X215927501Y-81408797D01*
X215927501Y-80845000D01*
X215766500Y-80845000D01*
X215715720Y-80826518D01*
X215688700Y-80779718D01*
X215687500Y-80766000D01*
X215687500Y-73902270D01*
X226987000Y-73902270D01*
X226987000Y-74007729D01*
X227014292Y-74109584D01*
X227014293Y-74109588D01*
X227067021Y-74200915D01*
X227141584Y-74275478D01*
X227141586Y-74275479D01*
X227141587Y-74275480D01*
X227232913Y-74328207D01*
X227334773Y-74355500D01*
X227334775Y-74355500D01*
X227440225Y-74355500D01*
X227440227Y-74355500D01*
X227542087Y-74328207D01*
X227633413Y-74275480D01*
X227707980Y-74200913D01*
X227760707Y-74109587D01*
X227788000Y-74007727D01*
X227788000Y-73902273D01*
X227760707Y-73800413D01*
X227707980Y-73709087D01*
X227707979Y-73709086D01*
X227707978Y-73709084D01*
X227633415Y-73634521D01*
X227542088Y-73581793D01*
X227542084Y-73581792D01*
X227440229Y-73554500D01*
X227440227Y-73554500D01*
X227334773Y-73554500D01*
X227334770Y-73554500D01*
X227232915Y-73581792D01*
X227232911Y-73581793D01*
X227141584Y-73634521D01*
X227067021Y-73709084D01*
X227014293Y-73800411D01*
X227014292Y-73800415D01*
X226987000Y-73902270D01*
X215687500Y-73902270D01*
X215687500Y-67402270D01*
X226987000Y-67402270D01*
X226987000Y-67507729D01*
X227014292Y-67609584D01*
X227014293Y-67609588D01*
X227067021Y-67700915D01*
X227141584Y-67775478D01*
X227141586Y-67775479D01*
X227141587Y-67775480D01*
X227232913Y-67828207D01*
X227334773Y-67855500D01*
X227334775Y-67855500D01*
X227440225Y-67855500D01*
X227440227Y-67855500D01*
X227542087Y-67828207D01*
X227633413Y-67775480D01*
X227707980Y-67700913D01*
X227760707Y-67609587D01*
X227788000Y-67507727D01*
X227788000Y-67402273D01*
X227760707Y-67300413D01*
X227707980Y-67209087D01*
X227707979Y-67209086D01*
X227707978Y-67209084D01*
X227633415Y-67134521D01*
X227542088Y-67081793D01*
X227542084Y-67081792D01*
X227440229Y-67054500D01*
X227440227Y-67054500D01*
X227334773Y-67054500D01*
X227334770Y-67054500D01*
X227232915Y-67081792D01*
X227232911Y-67081793D01*
X227141584Y-67134521D01*
X227067021Y-67209084D01*
X227014293Y-67300411D01*
X227014292Y-67300415D01*
X226987000Y-67402270D01*
X215687500Y-67402270D01*
X215687500Y-60902270D01*
X226987000Y-60902270D01*
X226987000Y-61007729D01*
X227014292Y-61109584D01*
X227014293Y-61109588D01*
X227067021Y-61200915D01*
X227141584Y-61275478D01*
X227141586Y-61275479D01*
X227141587Y-61275480D01*
X227232913Y-61328207D01*
X227334773Y-61355500D01*
X227334775Y-61355500D01*
X227440225Y-61355500D01*
X227440227Y-61355500D01*
X227542087Y-61328207D01*
X227633413Y-61275480D01*
X227707980Y-61200913D01*
X227760707Y-61109587D01*
X227788000Y-61007727D01*
X227788000Y-60902273D01*
X227760707Y-60800413D01*
X227746323Y-60775500D01*
X227707978Y-60709084D01*
X227633415Y-60634521D01*
X227542088Y-60581793D01*
X227542084Y-60581792D01*
X227440229Y-60554500D01*
X227440227Y-60554500D01*
X227334773Y-60554500D01*
X227334770Y-60554500D01*
X227232915Y-60581792D01*
X227232911Y-60581793D01*
X227141584Y-60634521D01*
X227067021Y-60709084D01*
X227014293Y-60800411D01*
X227014292Y-60800415D01*
X226987000Y-60902270D01*
X215687500Y-60902270D01*
X215687500Y-58506430D01*
X240022202Y-58506430D01*
X240022202Y-58787279D01*
X240053647Y-59066368D01*
X240116140Y-59340168D01*
X240116142Y-59340173D01*
X240208901Y-59605263D01*
X240285884Y-59765120D01*
X240330756Y-59858299D01*
X240480179Y-60096104D01*
X240655285Y-60315679D01*
X240655294Y-60315689D01*
X240853867Y-60514262D01*
X240853877Y-60514271D01*
X241073452Y-60689377D01*
X241171962Y-60751275D01*
X241311257Y-60838800D01*
X241564294Y-60960656D01*
X241829384Y-61053415D01*
X241829387Y-61053415D01*
X241829388Y-61053416D01*
X242103188Y-61115909D01*
X242103190Y-61115909D01*
X242103193Y-61115910D01*
X242382277Y-61147355D01*
X242382278Y-61147355D01*
X242663126Y-61147355D01*
X242663127Y-61147355D01*
X242942211Y-61115910D01*
X243216020Y-61053415D01*
X243481110Y-60960656D01*
X243734147Y-60838800D01*
X243971950Y-60689378D01*
X244191527Y-60514271D01*
X244390118Y-60315680D01*
X244565225Y-60096103D01*
X244714647Y-59858300D01*
X244836503Y-59605263D01*
X244929262Y-59340173D01*
X244991757Y-59066364D01*
X245023202Y-58787280D01*
X245023202Y-58506430D01*
X244991757Y-58227346D01*
X244929262Y-57953537D01*
X244836503Y-57688447D01*
X244714647Y-57435410D01*
X244597010Y-57248192D01*
X244565224Y-57197605D01*
X244390118Y-56978030D01*
X244390109Y-56978020D01*
X244191536Y-56779447D01*
X244191526Y-56779438D01*
X243971951Y-56604332D01*
X243734146Y-56454909D01*
X243631544Y-56405499D01*
X243481110Y-56333054D01*
X243216020Y-56240295D01*
X243216015Y-56240293D01*
X242942215Y-56177800D01*
X242942216Y-56177800D01*
X242709641Y-56151595D01*
X242663127Y-56146355D01*
X242382277Y-56146355D01*
X242335763Y-56151595D01*
X242103188Y-56177800D01*
X241829388Y-56240293D01*
X241829383Y-56240295D01*
X241564299Y-56333052D01*
X241564297Y-56333052D01*
X241564294Y-56333054D01*
X241538535Y-56345459D01*
X241311257Y-56454909D01*
X241073452Y-56604332D01*
X240853877Y-56779438D01*
X240853867Y-56779447D01*
X240655294Y-56978020D01*
X240655285Y-56978030D01*
X240480179Y-57197605D01*
X240330756Y-57435410D01*
X240208899Y-57688452D01*
X240116142Y-57953536D01*
X240116140Y-57953541D01*
X240053647Y-58227341D01*
X240022202Y-58506430D01*
X215687500Y-58506430D01*
X215687500Y-56484500D01*
X215705982Y-56433720D01*
X215752782Y-56406700D01*
X215766500Y-56405500D01*
X238577061Y-56405500D01*
X238577062Y-56405500D01*
X238653489Y-56385021D01*
X238722011Y-56345460D01*
X238777960Y-56289511D01*
X245952639Y-49114832D01*
X246001615Y-49091994D01*
X246053813Y-49105980D01*
G37*
%TD.AperFunction*%
%TA.AperFunction,Conductor*%
G36*
X276040078Y-45805669D02*
G01*
X276286801Y-45821839D01*
X276297035Y-45823187D01*
X276536992Y-45870918D01*
X276546958Y-45873588D01*
X276778651Y-45952237D01*
X276788178Y-45956184D01*
X277007611Y-46064395D01*
X277016553Y-46069558D01*
X277219976Y-46205482D01*
X277228170Y-46211770D01*
X277412111Y-46373081D01*
X277419418Y-46380388D01*
X277580729Y-46564329D01*
X277587020Y-46572527D01*
X277722939Y-46775943D01*
X277728106Y-46784892D01*
X277836314Y-47004318D01*
X277840265Y-47013856D01*
X277918907Y-47245526D01*
X277921581Y-47255508D01*
X277969311Y-47495459D01*
X277970660Y-47505704D01*
X277986831Y-47752421D01*
X277987000Y-47757588D01*
X277987000Y-57197412D01*
X277968518Y-57248192D01*
X277921718Y-57275212D01*
X277868500Y-57265828D01*
X277841109Y-57239443D01*
X277814821Y-57197606D01*
X277639715Y-56978031D01*
X277639706Y-56978021D01*
X277441133Y-56779448D01*
X277441123Y-56779439D01*
X277221548Y-56604333D01*
X276983743Y-56454910D01*
X276881139Y-56405499D01*
X276730707Y-56333055D01*
X276465617Y-56240296D01*
X276465612Y-56240294D01*
X276191812Y-56177801D01*
X276191813Y-56177801D01*
X275959238Y-56151596D01*
X275912724Y-56146356D01*
X275631874Y-56146356D01*
X275585360Y-56151596D01*
X275352785Y-56177801D01*
X275078985Y-56240294D01*
X275078980Y-56240296D01*
X274813896Y-56333053D01*
X274813894Y-56333053D01*
X274813891Y-56333055D01*
X274788134Y-56345459D01*
X274560854Y-56454910D01*
X274323049Y-56604333D01*
X274103474Y-56779439D01*
X274103464Y-56779448D01*
X273904891Y-56978021D01*
X273904882Y-56978031D01*
X273729776Y-57197606D01*
X273580353Y-57435411D01*
X273493798Y-57615145D01*
X273458499Y-57688447D01*
X273458496Y-57688453D01*
X273365739Y-57953537D01*
X273365737Y-57953542D01*
X273303244Y-58227342D01*
X273271799Y-58506431D01*
X273271799Y-58787280D01*
X273303244Y-59066369D01*
X273365737Y-59340169D01*
X273365739Y-59340173D01*
X273365739Y-59340174D01*
X273458498Y-59605264D01*
X273461830Y-59612182D01*
X273580353Y-59858300D01*
X273729776Y-60096105D01*
X273904882Y-60315680D01*
X273904891Y-60315690D01*
X274103464Y-60514263D01*
X274103473Y-60514271D01*
X274103474Y-60514272D01*
X274323051Y-60689379D01*
X274323053Y-60689380D01*
X274323053Y-60689381D01*
X274353655Y-60708609D01*
X274386819Y-60751275D01*
X274384799Y-60805276D01*
X274348539Y-60845345D01*
X274311625Y-60854500D01*
X264666500Y-60854500D01*
X264615720Y-60836018D01*
X264588700Y-60789218D01*
X264587500Y-60775500D01*
X264587500Y-48073014D01*
X273796999Y-48073014D01*
X273827805Y-48307006D01*
X273888891Y-48534985D01*
X273888897Y-48535001D01*
X273979213Y-48753043D01*
X273979214Y-48753046D01*
X273979216Y-48753049D01*
X274097227Y-48957450D01*
X274189551Y-49077770D01*
X274240906Y-49144697D01*
X274240911Y-49144703D01*
X274407796Y-49311588D01*
X274407801Y-49311592D01*
X274595050Y-49455273D01*
X274799451Y-49573284D01*
X275017507Y-49663606D01*
X275245486Y-49724693D01*
X275245492Y-49724693D01*
X275245493Y-49724694D01*
X275479485Y-49755500D01*
X275479489Y-49755500D01*
X275715514Y-49755500D01*
X275949506Y-49724694D01*
X275949505Y-49724694D01*
X275949514Y-49724693D01*
X276177493Y-49663606D01*
X276395549Y-49573284D01*
X276599950Y-49455273D01*
X276787199Y-49311592D01*
X276954092Y-49144699D01*
X277097773Y-48957450D01*
X277215784Y-48753049D01*
X277306106Y-48534993D01*
X277367193Y-48307014D01*
X277398000Y-48073011D01*
X277398000Y-47836989D01*
X277398000Y-47836985D01*
X277367194Y-47602993D01*
X277367193Y-47602992D01*
X277367193Y-47602986D01*
X277306106Y-47375007D01*
X277215784Y-47156951D01*
X277097773Y-46952550D01*
X276965563Y-46780250D01*
X276954093Y-46765302D01*
X276954088Y-46765296D01*
X276787203Y-46598411D01*
X276787197Y-46598406D01*
X276720270Y-46547051D01*
X276599950Y-46454727D01*
X276395549Y-46336716D01*
X276395546Y-46336714D01*
X276395543Y-46336713D01*
X276177501Y-46246397D01*
X276177485Y-46246391D01*
X275982244Y-46194077D01*
X275949514Y-46185307D01*
X275949512Y-46185306D01*
X275949506Y-46185305D01*
X275715514Y-46154500D01*
X275715511Y-46154500D01*
X275479489Y-46154500D01*
X275479486Y-46154500D01*
X275245493Y-46185305D01*
X275017514Y-46246391D01*
X275017498Y-46246397D01*
X274799456Y-46336713D01*
X274595054Y-46454724D01*
X274407802Y-46598406D01*
X274407796Y-46598411D01*
X274240911Y-46765296D01*
X274240906Y-46765302D01*
X274097224Y-46952554D01*
X273979213Y-47156956D01*
X273888897Y-47374998D01*
X273888891Y-47375014D01*
X273827805Y-47602993D01*
X273797000Y-47836985D01*
X273797000Y-47836989D01*
X273797000Y-48073011D01*
X273797000Y-48073014D01*
X273796999Y-48073014D01*
X264587500Y-48073014D01*
X264587500Y-45884500D01*
X264605982Y-45833720D01*
X264652782Y-45806700D01*
X264666500Y-45805500D01*
X275989905Y-45805500D01*
X276034911Y-45805500D01*
X276040078Y-45805669D01*
G37*
%TD.AperFunction*%
%TD*%
%TA.AperFunction,Conductor*%
%TO.N,GND_MCU*%
G36*
X213759280Y-56423982D02*
G01*
X213786300Y-56470782D01*
X213787500Y-56484500D01*
X213787500Y-80765500D01*
X213769018Y-80816280D01*
X213722218Y-80843300D01*
X213708500Y-80844500D01*
X212905915Y-80844500D01*
X212830980Y-80855418D01*
X212715399Y-80911922D01*
X212715393Y-80911926D01*
X212624425Y-81002894D01*
X212624421Y-81002900D01*
X212567917Y-81118481D01*
X212556999Y-81193416D01*
X212556999Y-82616583D01*
X212567917Y-82691518D01*
X212624421Y-82807099D01*
X212624425Y-82807105D01*
X212715393Y-82898073D01*
X212715396Y-82898075D01*
X212715397Y-82898076D01*
X212830979Y-82954581D01*
X212830981Y-82954582D01*
X212905917Y-82965500D01*
X212905921Y-82965500D01*
X213708500Y-82965500D01*
X213759280Y-82983982D01*
X213786300Y-83030782D01*
X213787500Y-83044500D01*
X213787500Y-83455000D01*
X213787501Y-83455002D01*
X214687497Y-84354998D01*
X214687499Y-84354999D01*
X214687500Y-84355000D01*
X231058000Y-84355000D01*
X231108780Y-84373482D01*
X231135800Y-84420282D01*
X231137000Y-84434000D01*
X231137000Y-109885801D01*
X231118518Y-109936581D01*
X231071718Y-109963601D01*
X231018500Y-109954217D01*
X230989584Y-109925301D01*
X230937751Y-109835525D01*
X230937749Y-109835521D01*
X230851133Y-109722640D01*
X230770129Y-109617072D01*
X230575427Y-109422370D01*
X230445294Y-109322517D01*
X230356979Y-109254751D01*
X230118521Y-109117077D01*
X230118518Y-109117075D01*
X230118515Y-109117074D01*
X229864140Y-109011708D01*
X229864124Y-109011702D01*
X229598165Y-108940439D01*
X229325177Y-108904500D01*
X229325174Y-108904500D01*
X229049826Y-108904500D01*
X229049823Y-108904500D01*
X228776834Y-108940439D01*
X228510875Y-109011702D01*
X228510859Y-109011708D01*
X228256484Y-109117074D01*
X228018025Y-109254748D01*
X227799572Y-109422370D01*
X227604870Y-109617072D01*
X227437248Y-109835525D01*
X227299574Y-110073984D01*
X227194208Y-110328359D01*
X227194202Y-110328375D01*
X227122939Y-110594334D01*
X227087000Y-110867322D01*
X227087000Y-110867326D01*
X227087000Y-111142674D01*
X227087000Y-111142677D01*
X227086999Y-111142677D01*
X227122939Y-111415665D01*
X227194202Y-111681624D01*
X227194208Y-111681640D01*
X227299574Y-111936015D01*
X227299575Y-111936018D01*
X227299577Y-111936021D01*
X227437251Y-112174479D01*
X227488040Y-112240669D01*
X227604870Y-112392927D01*
X227799572Y-112587629D01*
X227905140Y-112668633D01*
X228018021Y-112755249D01*
X228102138Y-112803814D01*
X228107802Y-112807084D01*
X228142538Y-112848480D01*
X228142538Y-112902519D01*
X228107802Y-112943916D01*
X228068302Y-112954500D01*
X199440089Y-112954500D01*
X199434922Y-112954331D01*
X199188204Y-112938160D01*
X199177959Y-112936811D01*
X198938008Y-112889081D01*
X198928031Y-112886408D01*
X198696356Y-112807765D01*
X198686818Y-112803814D01*
X198467392Y-112695606D01*
X198458443Y-112690439D01*
X198255027Y-112554520D01*
X198246829Y-112548229D01*
X198062888Y-112386918D01*
X198055581Y-112379611D01*
X197894270Y-112195670D01*
X197887979Y-112187472D01*
X197879297Y-112174479D01*
X197752058Y-111984053D01*
X197746893Y-111975107D01*
X197638685Y-111755681D01*
X197634737Y-111746151D01*
X197556088Y-111514458D01*
X197553418Y-111504491D01*
X197505688Y-111264540D01*
X197504339Y-111254295D01*
X197497023Y-111142677D01*
X197488169Y-111007578D01*
X197488000Y-111002411D01*
X197488000Y-103305274D01*
X197506482Y-103254494D01*
X197553282Y-103227474D01*
X197606500Y-103236858D01*
X197622861Y-103249413D01*
X198245025Y-103871578D01*
X198245034Y-103871586D01*
X198245038Y-103871590D01*
X198273140Y-103894145D01*
X198301981Y-103912519D01*
X198313991Y-103919480D01*
X198390902Y-103938438D01*
X198444941Y-103938439D01*
X198480219Y-103934636D01*
X198551323Y-103899721D01*
X198557969Y-103894145D01*
X198592720Y-103864986D01*
X198603386Y-103852275D01*
X198629668Y-103820954D01*
X198659255Y-103769705D01*
X198671804Y-103753351D01*
X198700848Y-103724307D01*
X198717204Y-103711757D01*
X198752784Y-103691214D01*
X198771831Y-103683324D01*
X198811515Y-103672691D01*
X198831956Y-103670001D01*
X198873038Y-103670001D01*
X198893477Y-103672691D01*
X198933167Y-103683326D01*
X198952209Y-103691213D01*
X198987789Y-103711755D01*
X199004150Y-103724310D01*
X199033189Y-103753349D01*
X199045745Y-103769712D01*
X199066282Y-103805285D01*
X199074172Y-103824334D01*
X199084806Y-103864015D01*
X199087498Y-103884457D01*
X199087499Y-103884464D01*
X199087499Y-103925538D01*
X199084807Y-103945986D01*
X199074175Y-103985662D01*
X199066284Y-104004713D01*
X199045746Y-104040287D01*
X199033190Y-104056649D01*
X199004149Y-104085690D01*
X198987789Y-104098244D01*
X198936553Y-104127825D01*
X198936531Y-104127840D01*
X198907492Y-104149133D01*
X198907475Y-104149148D01*
X198882281Y-104172233D01*
X198872439Y-104182042D01*
X198872435Y-104182048D01*
X198834221Y-104251428D01*
X198820235Y-104303628D01*
X198820233Y-104303642D01*
X198814779Y-104338683D01*
X198814779Y-104338684D01*
X198823514Y-104382984D01*
X198830103Y-104416403D01*
X198830104Y-104416405D01*
X198852944Y-104465385D01*
X198885904Y-104512456D01*
X198885907Y-104512459D01*
X198885908Y-104512460D01*
X198885909Y-104512461D01*
X198988246Y-104614798D01*
X201322991Y-106949543D01*
X202029589Y-107656142D01*
X202029612Y-107656164D01*
X202029622Y-107656174D01*
X202034820Y-107661151D01*
X202039905Y-107665812D01*
X202095120Y-107699322D01*
X202095122Y-107699322D01*
X202095126Y-107699325D01*
X202145906Y-107717807D01*
X202202509Y-107727787D01*
X202202513Y-107727787D01*
X212923512Y-107727787D01*
X212924138Y-107727773D01*
X212930738Y-107727629D01*
X212937623Y-107727328D01*
X213000339Y-107711980D01*
X213049315Y-107689142D01*
X213082633Y-107665812D01*
X213096392Y-107656178D01*
X213096393Y-107656176D01*
X213096397Y-107656174D01*
X214058160Y-106694409D01*
X214107134Y-106671573D01*
X214159331Y-106685559D01*
X214169880Y-106694411D01*
X214208234Y-106732765D01*
X214208236Y-106732766D01*
X214208237Y-106732767D01*
X214299563Y-106785494D01*
X214401423Y-106812787D01*
X214401425Y-106812787D01*
X214506875Y-106812787D01*
X214506877Y-106812787D01*
X214608737Y-106785494D01*
X214700063Y-106732767D01*
X214774630Y-106658200D01*
X214827357Y-106566874D01*
X214854650Y-106465014D01*
X214854650Y-106392272D01*
X226752000Y-106392272D01*
X226752000Y-106497731D01*
X226779292Y-106599586D01*
X226779293Y-106599590D01*
X226832021Y-106690917D01*
X226906584Y-106765480D01*
X226906586Y-106765481D01*
X226906587Y-106765482D01*
X226997913Y-106818209D01*
X227099773Y-106845502D01*
X227099775Y-106845502D01*
X227205225Y-106845502D01*
X227205227Y-106845502D01*
X227307087Y-106818209D01*
X227398413Y-106765482D01*
X227472980Y-106690915D01*
X227525707Y-106599589D01*
X227553000Y-106497729D01*
X227553000Y-106392275D01*
X227525707Y-106290415D01*
X227472980Y-106199089D01*
X227472979Y-106199088D01*
X227472978Y-106199086D01*
X227398415Y-106124523D01*
X227307088Y-106071795D01*
X227307084Y-106071794D01*
X227205229Y-106044502D01*
X227205227Y-106044502D01*
X227099773Y-106044502D01*
X227099770Y-106044502D01*
X226997915Y-106071794D01*
X226997911Y-106071795D01*
X226906584Y-106124523D01*
X226832021Y-106199086D01*
X226779293Y-106290413D01*
X226779292Y-106290417D01*
X226752000Y-106392272D01*
X214854650Y-106392272D01*
X214854650Y-106359560D01*
X214827357Y-106257700D01*
X214774630Y-106166374D01*
X214774629Y-106166373D01*
X214774628Y-106166371D01*
X214736274Y-106128017D01*
X214713436Y-106079041D01*
X214727422Y-106026843D01*
X214736266Y-106016303D01*
X214925714Y-105826857D01*
X214925715Y-105826857D01*
X215066434Y-105686137D01*
X215076186Y-105675494D01*
X215085037Y-105664946D01*
X215100699Y-105634858D01*
X215140541Y-105598351D01*
X215191219Y-105595029D01*
X215203505Y-105598321D01*
X215203507Y-105598321D01*
X215308957Y-105598321D01*
X215308959Y-105598321D01*
X215410819Y-105571028D01*
X215502145Y-105518301D01*
X215576712Y-105443734D01*
X215629439Y-105352408D01*
X215656732Y-105250548D01*
X215656732Y-105145094D01*
X215650617Y-105122272D01*
X226752000Y-105122272D01*
X226752000Y-105227731D01*
X226779292Y-105329586D01*
X226779293Y-105329590D01*
X226832021Y-105420917D01*
X226906584Y-105495480D01*
X226906586Y-105495481D01*
X226906587Y-105495482D01*
X226997913Y-105548209D01*
X227099773Y-105575502D01*
X227099775Y-105575502D01*
X227205225Y-105575502D01*
X227205227Y-105575502D01*
X227307087Y-105548209D01*
X227398413Y-105495482D01*
X227472980Y-105420915D01*
X227525707Y-105329589D01*
X227553000Y-105227729D01*
X227553000Y-105122275D01*
X227525707Y-105020415D01*
X227472980Y-104929089D01*
X227472979Y-104929088D01*
X227472978Y-104929086D01*
X227398415Y-104854523D01*
X227307088Y-104801795D01*
X227307084Y-104801794D01*
X227205229Y-104774502D01*
X227205227Y-104774502D01*
X227099773Y-104774502D01*
X227099770Y-104774502D01*
X226997915Y-104801794D01*
X226997911Y-104801795D01*
X226906584Y-104854523D01*
X226832021Y-104929086D01*
X226779293Y-105020413D01*
X226779292Y-105020417D01*
X226752000Y-105122272D01*
X215650617Y-105122272D01*
X215648653Y-105114944D01*
X215645013Y-105101361D01*
X215629439Y-105043234D01*
X215616264Y-105020415D01*
X215576710Y-104951905D01*
X215502147Y-104877342D01*
X215410820Y-104824614D01*
X215410816Y-104824613D01*
X215308961Y-104797321D01*
X215308959Y-104797321D01*
X215262254Y-104797321D01*
X215243456Y-104790479D01*
X215223711Y-104787281D01*
X215218692Y-104781466D01*
X215211474Y-104778839D01*
X215201471Y-104761514D01*
X215188402Y-104746372D01*
X215186385Y-104735384D01*
X215184454Y-104732039D01*
X215183262Y-104719421D01*
X215183254Y-104718847D01*
X215183254Y-104694147D01*
X215183096Y-104686919D01*
X215182795Y-104680034D01*
X215182708Y-104679678D01*
X215182661Y-104676306D01*
X215178970Y-104655375D01*
X215178971Y-104655375D01*
X215175976Y-104638389D01*
X215174686Y-104631848D01*
X215151309Y-104584243D01*
X215151896Y-104583970D01*
X215144609Y-104568343D01*
X215140899Y-104563045D01*
X215139770Y-104560745D01*
X215139069Y-104559910D01*
X215134888Y-104554459D01*
X215111642Y-104521262D01*
X215111641Y-104521260D01*
X215111638Y-104521257D01*
X215111634Y-104521252D01*
X214442654Y-103852272D01*
X226752001Y-103852272D01*
X226752001Y-103957731D01*
X226779293Y-104059586D01*
X226779294Y-104059590D01*
X226832022Y-104150917D01*
X226906585Y-104225480D01*
X226906587Y-104225481D01*
X226906588Y-104225482D01*
X226997914Y-104278209D01*
X227099774Y-104305502D01*
X227099776Y-104305502D01*
X227205226Y-104305502D01*
X227205228Y-104305502D01*
X227307088Y-104278209D01*
X227398414Y-104225482D01*
X227472981Y-104150915D01*
X227525708Y-104059589D01*
X227553001Y-103957729D01*
X227553001Y-103852275D01*
X227525708Y-103750415D01*
X227472981Y-103659089D01*
X227472980Y-103659088D01*
X227472979Y-103659086D01*
X227398416Y-103584523D01*
X227307089Y-103531795D01*
X227307085Y-103531794D01*
X227205230Y-103504502D01*
X227205228Y-103504502D01*
X227099774Y-103504502D01*
X227099771Y-103504502D01*
X226997916Y-103531794D01*
X226997912Y-103531795D01*
X226906585Y-103584523D01*
X226832022Y-103659086D01*
X226779294Y-103750413D01*
X226779293Y-103750417D01*
X226752001Y-103852272D01*
X214442654Y-103852272D01*
X213064153Y-102473771D01*
X214041518Y-102473771D01*
X214041518Y-102579230D01*
X214068810Y-102681085D01*
X214068811Y-102681089D01*
X214121539Y-102772416D01*
X214196102Y-102846979D01*
X214196104Y-102846980D01*
X214196105Y-102846981D01*
X214287431Y-102899708D01*
X214389291Y-102927001D01*
X214389293Y-102927001D01*
X214494743Y-102927001D01*
X214494745Y-102927001D01*
X214596605Y-102899708D01*
X214687931Y-102846981D01*
X214762498Y-102772414D01*
X214815225Y-102681088D01*
X214841702Y-102582272D01*
X224252000Y-102582272D01*
X224252000Y-102687731D01*
X224279292Y-102789586D01*
X224279293Y-102789590D01*
X224332021Y-102880917D01*
X224406584Y-102955480D01*
X224406586Y-102955481D01*
X224406587Y-102955482D01*
X224497913Y-103008209D01*
X224599773Y-103035502D01*
X224599775Y-103035502D01*
X224705225Y-103035502D01*
X224705227Y-103035502D01*
X224807087Y-103008209D01*
X224898413Y-102955482D01*
X224972980Y-102880915D01*
X225025707Y-102789589D01*
X225053000Y-102687729D01*
X225053000Y-102582275D01*
X225052999Y-102582272D01*
X228552000Y-102582272D01*
X228552000Y-102687731D01*
X228579292Y-102789586D01*
X228579293Y-102789590D01*
X228632021Y-102880917D01*
X228706584Y-102955480D01*
X228706586Y-102955481D01*
X228706587Y-102955482D01*
X228797913Y-103008209D01*
X228899773Y-103035502D01*
X228899775Y-103035502D01*
X229005225Y-103035502D01*
X229005227Y-103035502D01*
X229107087Y-103008209D01*
X229198413Y-102955482D01*
X229272980Y-102880915D01*
X229325707Y-102789589D01*
X229353000Y-102687729D01*
X229353000Y-102582275D01*
X229325707Y-102480415D01*
X229272980Y-102389089D01*
X229272979Y-102389088D01*
X229272978Y-102389086D01*
X229198415Y-102314523D01*
X229107088Y-102261795D01*
X229107084Y-102261794D01*
X229005229Y-102234502D01*
X229005227Y-102234502D01*
X228899773Y-102234502D01*
X228899770Y-102234502D01*
X228797915Y-102261794D01*
X228797911Y-102261795D01*
X228706584Y-102314523D01*
X228632021Y-102389086D01*
X228579293Y-102480413D01*
X228579292Y-102480417D01*
X228552000Y-102582272D01*
X225052999Y-102582272D01*
X225025707Y-102480415D01*
X224972980Y-102389089D01*
X224972979Y-102389088D01*
X224972978Y-102389086D01*
X224898415Y-102314523D01*
X224807088Y-102261795D01*
X224807084Y-102261794D01*
X224705229Y-102234502D01*
X224705227Y-102234502D01*
X224599773Y-102234502D01*
X224599770Y-102234502D01*
X224497915Y-102261794D01*
X224497911Y-102261795D01*
X224406584Y-102314523D01*
X224332021Y-102389086D01*
X224279293Y-102480413D01*
X224279292Y-102480417D01*
X224252000Y-102582272D01*
X214841702Y-102582272D01*
X214842518Y-102579228D01*
X214842518Y-102473774D01*
X214815225Y-102371914D01*
X214762498Y-102280588D01*
X214762497Y-102280587D01*
X214762496Y-102280585D01*
X214687933Y-102206022D01*
X214596606Y-102153294D01*
X214596602Y-102153293D01*
X214494747Y-102126001D01*
X214494745Y-102126001D01*
X214389291Y-102126001D01*
X214389288Y-102126001D01*
X214287433Y-102153293D01*
X214287429Y-102153294D01*
X214196102Y-102206022D01*
X214121539Y-102280585D01*
X214068811Y-102371912D01*
X214068810Y-102371916D01*
X214041518Y-102473771D01*
X213064153Y-102473771D01*
X212360600Y-101770218D01*
X214745072Y-101770218D01*
X214745072Y-101875677D01*
X214772364Y-101977532D01*
X214772365Y-101977536D01*
X214825093Y-102068863D01*
X214899656Y-102143426D01*
X214899658Y-102143427D01*
X214899659Y-102143428D01*
X214990985Y-102196155D01*
X215092845Y-102223448D01*
X215092847Y-102223448D01*
X215198297Y-102223448D01*
X215198299Y-102223448D01*
X215300159Y-102196155D01*
X215391485Y-102143428D01*
X215466052Y-102068861D01*
X215518779Y-101977535D01*
X215546072Y-101875675D01*
X215546072Y-101770221D01*
X215518779Y-101668361D01*
X215466052Y-101577035D01*
X215466051Y-101577034D01*
X215466050Y-101577032D01*
X215391487Y-101502469D01*
X215300160Y-101449741D01*
X215300156Y-101449740D01*
X215198301Y-101422448D01*
X215198299Y-101422448D01*
X215092845Y-101422448D01*
X215092842Y-101422448D01*
X214990987Y-101449740D01*
X214990983Y-101449741D01*
X214899656Y-101502469D01*
X214825093Y-101577032D01*
X214772365Y-101668359D01*
X214772364Y-101668363D01*
X214745072Y-101770218D01*
X212360600Y-101770218D01*
X211902654Y-101312272D01*
X222452000Y-101312272D01*
X222452000Y-101417731D01*
X222479292Y-101519586D01*
X222479293Y-101519590D01*
X222532021Y-101610917D01*
X222606584Y-101685480D01*
X222606586Y-101685481D01*
X222606587Y-101685482D01*
X222697913Y-101738209D01*
X222799773Y-101765502D01*
X222799775Y-101765502D01*
X222905225Y-101765502D01*
X222905227Y-101765502D01*
X223007087Y-101738209D01*
X223098413Y-101685482D01*
X223172980Y-101610915D01*
X223225707Y-101519589D01*
X223253000Y-101417729D01*
X223253000Y-101312275D01*
X223252999Y-101312272D01*
X226752000Y-101312272D01*
X226752000Y-101417731D01*
X226779292Y-101519586D01*
X226779293Y-101519590D01*
X226832021Y-101610917D01*
X226906584Y-101685480D01*
X226906586Y-101685481D01*
X226906587Y-101685482D01*
X226997913Y-101738209D01*
X227099773Y-101765502D01*
X227099775Y-101765502D01*
X227205225Y-101765502D01*
X227205227Y-101765502D01*
X227307087Y-101738209D01*
X227398413Y-101685482D01*
X227472980Y-101610915D01*
X227525707Y-101519589D01*
X227553000Y-101417729D01*
X227553000Y-101312275D01*
X227525707Y-101210415D01*
X227472980Y-101119089D01*
X227472979Y-101119088D01*
X227472978Y-101119086D01*
X227398415Y-101044523D01*
X227307088Y-100991795D01*
X227307084Y-100991794D01*
X227205229Y-100964502D01*
X227205227Y-100964502D01*
X227099773Y-100964502D01*
X227099770Y-100964502D01*
X226997915Y-100991794D01*
X226997911Y-100991795D01*
X226906584Y-101044523D01*
X226832021Y-101119086D01*
X226779293Y-101210413D01*
X226779292Y-101210417D01*
X226752000Y-101312272D01*
X223252999Y-101312272D01*
X223225707Y-101210415D01*
X223172980Y-101119089D01*
X223172979Y-101119088D01*
X223172978Y-101119086D01*
X223098415Y-101044523D01*
X223007088Y-100991795D01*
X223007084Y-100991794D01*
X222905229Y-100964502D01*
X222905227Y-100964502D01*
X222799773Y-100964502D01*
X222799770Y-100964502D01*
X222697915Y-100991794D01*
X222697911Y-100991795D01*
X222606584Y-101044523D01*
X222532021Y-101119086D01*
X222479293Y-101210413D01*
X222479292Y-101210417D01*
X222452000Y-101312272D01*
X211902654Y-101312272D01*
X209362654Y-98772272D01*
X222452000Y-98772272D01*
X222452000Y-98877731D01*
X222479292Y-98979586D01*
X222479293Y-98979590D01*
X222532021Y-99070917D01*
X222606584Y-99145480D01*
X222606586Y-99145481D01*
X222606587Y-99145482D01*
X222697913Y-99198209D01*
X222799773Y-99225502D01*
X222799775Y-99225502D01*
X222905225Y-99225502D01*
X222905227Y-99225502D01*
X223007087Y-99198209D01*
X223098413Y-99145482D01*
X223172980Y-99070915D01*
X223225707Y-98979589D01*
X223253000Y-98877729D01*
X223253000Y-98772275D01*
X223225707Y-98670415D01*
X223172980Y-98579089D01*
X223172979Y-98579088D01*
X223172978Y-98579086D01*
X223098415Y-98504523D01*
X223007088Y-98451795D01*
X223007084Y-98451794D01*
X222905229Y-98424502D01*
X222905227Y-98424502D01*
X222799773Y-98424502D01*
X222799770Y-98424502D01*
X222697915Y-98451794D01*
X222697911Y-98451795D01*
X222606584Y-98504523D01*
X222532021Y-98579086D01*
X222479293Y-98670413D01*
X222479292Y-98670417D01*
X222452000Y-98772272D01*
X209362654Y-98772272D01*
X208206036Y-97615654D01*
X208198748Y-97600026D01*
X208187661Y-97586813D01*
X208184665Y-97569826D01*
X208183198Y-97566678D01*
X208182897Y-97559793D01*
X208182897Y-97502272D01*
X222451999Y-97502272D01*
X222451999Y-97607731D01*
X222479291Y-97709586D01*
X222479292Y-97709590D01*
X222532020Y-97800917D01*
X222606583Y-97875480D01*
X222688172Y-97922586D01*
X222697912Y-97928209D01*
X222799772Y-97955502D01*
X222799774Y-97955502D01*
X222905224Y-97955502D01*
X222905226Y-97955502D01*
X223007086Y-97928209D01*
X223098412Y-97875482D01*
X223172979Y-97800915D01*
X223225706Y-97709589D01*
X223252999Y-97607729D01*
X223252999Y-97502275D01*
X223252998Y-97502272D01*
X226752001Y-97502272D01*
X226752001Y-97607731D01*
X226779293Y-97709586D01*
X226779294Y-97709590D01*
X226832022Y-97800917D01*
X226906585Y-97875480D01*
X226988174Y-97922586D01*
X226997914Y-97928209D01*
X227099774Y-97955502D01*
X227099776Y-97955502D01*
X227205226Y-97955502D01*
X227205228Y-97955502D01*
X227307088Y-97928209D01*
X227398414Y-97875482D01*
X227472981Y-97800915D01*
X227525708Y-97709589D01*
X227553001Y-97607729D01*
X227553001Y-97502275D01*
X227525708Y-97400415D01*
X227472981Y-97309089D01*
X227472980Y-97309088D01*
X227472979Y-97309086D01*
X227398416Y-97234523D01*
X227307089Y-97181795D01*
X227307085Y-97181794D01*
X227205230Y-97154502D01*
X227205228Y-97154502D01*
X227099774Y-97154502D01*
X227099771Y-97154502D01*
X226997916Y-97181794D01*
X226997912Y-97181795D01*
X226906585Y-97234523D01*
X226832022Y-97309086D01*
X226779294Y-97400413D01*
X226779293Y-97400417D01*
X226752001Y-97502272D01*
X223252998Y-97502272D01*
X223225706Y-97400415D01*
X223172979Y-97309089D01*
X223172978Y-97309088D01*
X223172977Y-97309086D01*
X223098414Y-97234523D01*
X223007087Y-97181795D01*
X223007083Y-97181794D01*
X222905228Y-97154502D01*
X222905226Y-97154502D01*
X222799772Y-97154502D01*
X222799769Y-97154502D01*
X222697914Y-97181794D01*
X222697910Y-97181795D01*
X222606583Y-97234523D01*
X222532020Y-97309086D01*
X222479292Y-97400413D01*
X222479291Y-97400417D01*
X222451999Y-97502272D01*
X208182897Y-97502272D01*
X208182897Y-96232272D01*
X222452000Y-96232272D01*
X222452000Y-96337731D01*
X222479292Y-96439586D01*
X222479293Y-96439590D01*
X222532021Y-96530917D01*
X222606584Y-96605480D01*
X222606586Y-96605481D01*
X222606587Y-96605482D01*
X222697913Y-96658209D01*
X222799773Y-96685502D01*
X222799775Y-96685502D01*
X222905225Y-96685502D01*
X222905227Y-96685502D01*
X223007087Y-96658209D01*
X223098413Y-96605482D01*
X223172980Y-96530915D01*
X223225707Y-96439589D01*
X223253000Y-96337729D01*
X223253000Y-96232275D01*
X223252999Y-96232272D01*
X226752000Y-96232272D01*
X226752000Y-96337731D01*
X226779292Y-96439586D01*
X226779293Y-96439590D01*
X226832021Y-96530917D01*
X226906584Y-96605480D01*
X226906586Y-96605481D01*
X226906587Y-96605482D01*
X226997913Y-96658209D01*
X227099773Y-96685502D01*
X227099775Y-96685502D01*
X227205225Y-96685502D01*
X227205227Y-96685502D01*
X227307087Y-96658209D01*
X227398413Y-96605482D01*
X227472980Y-96530915D01*
X227525707Y-96439589D01*
X227553000Y-96337729D01*
X227553000Y-96232275D01*
X227525707Y-96130415D01*
X227472980Y-96039089D01*
X227472979Y-96039088D01*
X227472978Y-96039086D01*
X227398415Y-95964523D01*
X227307088Y-95911795D01*
X227307084Y-95911794D01*
X227205229Y-95884502D01*
X227205227Y-95884502D01*
X227099773Y-95884502D01*
X227099770Y-95884502D01*
X226997915Y-95911794D01*
X226997911Y-95911795D01*
X226906584Y-95964523D01*
X226832021Y-96039086D01*
X226779293Y-96130413D01*
X226779292Y-96130417D01*
X226752000Y-96232272D01*
X223252999Y-96232272D01*
X223225707Y-96130415D01*
X223172980Y-96039089D01*
X223172979Y-96039088D01*
X223172978Y-96039086D01*
X223098415Y-95964523D01*
X223007088Y-95911795D01*
X223007084Y-95911794D01*
X222905229Y-95884502D01*
X222905227Y-95884502D01*
X222799773Y-95884502D01*
X222799770Y-95884502D01*
X222697915Y-95911794D01*
X222697911Y-95911795D01*
X222606584Y-95964523D01*
X222532021Y-96039086D01*
X222479293Y-96130413D01*
X222479292Y-96130417D01*
X222452000Y-96232272D01*
X208182897Y-96232272D01*
X208182897Y-94962272D01*
X222452000Y-94962272D01*
X222452000Y-95067731D01*
X222479292Y-95169586D01*
X222479293Y-95169590D01*
X222532021Y-95260917D01*
X222606584Y-95335480D01*
X222606586Y-95335481D01*
X222606587Y-95335482D01*
X222697913Y-95388209D01*
X222799773Y-95415502D01*
X222799775Y-95415502D01*
X222905225Y-95415502D01*
X222905227Y-95415502D01*
X223007087Y-95388209D01*
X223098413Y-95335482D01*
X223172980Y-95260915D01*
X223225707Y-95169589D01*
X223253000Y-95067729D01*
X223253000Y-94962275D01*
X223252999Y-94962272D01*
X226752000Y-94962272D01*
X226752000Y-95067731D01*
X226779292Y-95169586D01*
X226779293Y-95169590D01*
X226832021Y-95260917D01*
X226906584Y-95335480D01*
X226906586Y-95335481D01*
X226906587Y-95335482D01*
X226997913Y-95388209D01*
X227099773Y-95415502D01*
X227099775Y-95415502D01*
X227205225Y-95415502D01*
X227205227Y-95415502D01*
X227307087Y-95388209D01*
X227398413Y-95335482D01*
X227472980Y-95260915D01*
X227525707Y-95169589D01*
X227553000Y-95067729D01*
X227553000Y-94962275D01*
X227525707Y-94860415D01*
X227472980Y-94769089D01*
X227472979Y-94769088D01*
X227472978Y-94769086D01*
X227398415Y-94694523D01*
X227307088Y-94641795D01*
X227307084Y-94641794D01*
X227205229Y-94614502D01*
X227205227Y-94614502D01*
X227099773Y-94614502D01*
X227099770Y-94614502D01*
X226997915Y-94641794D01*
X226997911Y-94641795D01*
X226906584Y-94694523D01*
X226832021Y-94769086D01*
X226779293Y-94860413D01*
X226779292Y-94860417D01*
X226752000Y-94962272D01*
X223252999Y-94962272D01*
X223225707Y-94860415D01*
X223172980Y-94769089D01*
X223172979Y-94769088D01*
X223172978Y-94769086D01*
X223098415Y-94694523D01*
X223007088Y-94641795D01*
X223007084Y-94641794D01*
X222905229Y-94614502D01*
X222905227Y-94614502D01*
X222799773Y-94614502D01*
X222799770Y-94614502D01*
X222697915Y-94641794D01*
X222697911Y-94641795D01*
X222606584Y-94694523D01*
X222532021Y-94769086D01*
X222479293Y-94860413D01*
X222479292Y-94860417D01*
X222452000Y-94962272D01*
X208182897Y-94962272D01*
X208182897Y-93239015D01*
X208182739Y-93231809D01*
X208182739Y-93231789D01*
X208182438Y-93224904D01*
X208167090Y-93162188D01*
X208144252Y-93113212D01*
X208144249Y-93113209D01*
X208144249Y-93113207D01*
X208111288Y-93066134D01*
X208111279Y-93066124D01*
X207422375Y-92377220D01*
X213837965Y-92377220D01*
X213837965Y-92482679D01*
X213865257Y-92584534D01*
X213865258Y-92584538D01*
X213917986Y-92675865D01*
X213992549Y-92750428D01*
X213992551Y-92750429D01*
X213992552Y-92750430D01*
X214083878Y-92803157D01*
X214185738Y-92830450D01*
X214185740Y-92830450D01*
X214291190Y-92830450D01*
X214291192Y-92830450D01*
X214393052Y-92803157D01*
X214484378Y-92750430D01*
X214558945Y-92675863D01*
X214611672Y-92584537D01*
X214638965Y-92482677D01*
X214638965Y-92422272D01*
X226752000Y-92422272D01*
X226752000Y-92527731D01*
X226779292Y-92629586D01*
X226779293Y-92629590D01*
X226832021Y-92720917D01*
X226906584Y-92795480D01*
X226906586Y-92795481D01*
X226906587Y-92795482D01*
X226997913Y-92848209D01*
X227099773Y-92875502D01*
X227099775Y-92875502D01*
X227205225Y-92875502D01*
X227205227Y-92875502D01*
X227307087Y-92848209D01*
X227398413Y-92795482D01*
X227472980Y-92720915D01*
X227525707Y-92629589D01*
X227553000Y-92527729D01*
X227553000Y-92422275D01*
X227525707Y-92320415D01*
X227472980Y-92229089D01*
X227472979Y-92229088D01*
X227472978Y-92229086D01*
X227398415Y-92154523D01*
X227307088Y-92101795D01*
X227307084Y-92101794D01*
X227205229Y-92074502D01*
X227205227Y-92074502D01*
X227099773Y-92074502D01*
X227099770Y-92074502D01*
X226997915Y-92101794D01*
X226997911Y-92101795D01*
X226906584Y-92154523D01*
X226832021Y-92229086D01*
X226779293Y-92320413D01*
X226779292Y-92320417D01*
X226752000Y-92422272D01*
X214638965Y-92422272D01*
X214638965Y-92377223D01*
X214611672Y-92275363D01*
X214558945Y-92184037D01*
X214558944Y-92184036D01*
X214558943Y-92184034D01*
X214484380Y-92109471D01*
X214393053Y-92056743D01*
X214393049Y-92056742D01*
X214291194Y-92029450D01*
X214291192Y-92029450D01*
X214185738Y-92029450D01*
X214185735Y-92029450D01*
X214083880Y-92056742D01*
X214083876Y-92056743D01*
X213992549Y-92109471D01*
X213917986Y-92184034D01*
X213865258Y-92275361D01*
X213865257Y-92275365D01*
X213837965Y-92377220D01*
X207422375Y-92377220D01*
X206347457Y-91302302D01*
X206340169Y-91286674D01*
X206329082Y-91273461D01*
X206326086Y-91256474D01*
X206324619Y-91253326D01*
X206324318Y-91246441D01*
X206324318Y-91152272D01*
X226752001Y-91152272D01*
X226752001Y-91257731D01*
X226779293Y-91359586D01*
X226779294Y-91359590D01*
X226832022Y-91450917D01*
X226906585Y-91525480D01*
X226906587Y-91525481D01*
X226906588Y-91525482D01*
X226997914Y-91578209D01*
X227099774Y-91605502D01*
X227099776Y-91605502D01*
X227205226Y-91605502D01*
X227205228Y-91605502D01*
X227307088Y-91578209D01*
X227398414Y-91525482D01*
X227472981Y-91450915D01*
X227525708Y-91359589D01*
X227553001Y-91257729D01*
X227553001Y-91152275D01*
X227525708Y-91050415D01*
X227472981Y-90959089D01*
X227472980Y-90959088D01*
X227472979Y-90959086D01*
X227398416Y-90884523D01*
X227307089Y-90831795D01*
X227307085Y-90831794D01*
X227205230Y-90804502D01*
X227205228Y-90804502D01*
X227099774Y-90804502D01*
X227099771Y-90804502D01*
X226997916Y-90831794D01*
X226997912Y-90831795D01*
X226906585Y-90884523D01*
X226832022Y-90959086D01*
X226779294Y-91050413D01*
X226779293Y-91050417D01*
X226752001Y-91152272D01*
X206324318Y-91152272D01*
X206324318Y-89882272D01*
X222452000Y-89882272D01*
X222452000Y-89987731D01*
X222479292Y-90089586D01*
X222479293Y-90089590D01*
X222532021Y-90180917D01*
X222606584Y-90255480D01*
X222606586Y-90255481D01*
X222606587Y-90255482D01*
X222697913Y-90308209D01*
X222799773Y-90335502D01*
X222799775Y-90335502D01*
X222905225Y-90335502D01*
X222905227Y-90335502D01*
X223007087Y-90308209D01*
X223098413Y-90255482D01*
X223172980Y-90180915D01*
X223225707Y-90089589D01*
X223253000Y-89987729D01*
X223253000Y-89882275D01*
X223252999Y-89882272D01*
X226752000Y-89882272D01*
X226752000Y-89987731D01*
X226779292Y-90089586D01*
X226779293Y-90089590D01*
X226832021Y-90180917D01*
X226906584Y-90255480D01*
X226906586Y-90255481D01*
X226906587Y-90255482D01*
X226997913Y-90308209D01*
X227099773Y-90335502D01*
X227099775Y-90335502D01*
X227205225Y-90335502D01*
X227205227Y-90335502D01*
X227307087Y-90308209D01*
X227398413Y-90255482D01*
X227472980Y-90180915D01*
X227525707Y-90089589D01*
X227553000Y-89987729D01*
X227553000Y-89882275D01*
X227525707Y-89780415D01*
X227472980Y-89689089D01*
X227472979Y-89689088D01*
X227472978Y-89689086D01*
X227398415Y-89614523D01*
X227307088Y-89561795D01*
X227307084Y-89561794D01*
X227205229Y-89534502D01*
X227205227Y-89534502D01*
X227099773Y-89534502D01*
X227099770Y-89534502D01*
X226997915Y-89561794D01*
X226997911Y-89561795D01*
X226906584Y-89614523D01*
X226832021Y-89689086D01*
X226779293Y-89780413D01*
X226779292Y-89780417D01*
X226752000Y-89882272D01*
X223252999Y-89882272D01*
X223225707Y-89780415D01*
X223172980Y-89689089D01*
X223172979Y-89689088D01*
X223172978Y-89689086D01*
X223098415Y-89614523D01*
X223007088Y-89561795D01*
X223007084Y-89561794D01*
X222905229Y-89534502D01*
X222905227Y-89534502D01*
X222799773Y-89534502D01*
X222799770Y-89534502D01*
X222697915Y-89561794D01*
X222697911Y-89561795D01*
X222606584Y-89614523D01*
X222532021Y-89689086D01*
X222479293Y-89780413D01*
X222479292Y-89780417D01*
X222452000Y-89882272D01*
X206324318Y-89882272D01*
X206324318Y-89183895D01*
X207122963Y-89183895D01*
X207122963Y-89289354D01*
X207150255Y-89391209D01*
X207150256Y-89391213D01*
X207202984Y-89482540D01*
X207277547Y-89557103D01*
X207277549Y-89557104D01*
X207277550Y-89557105D01*
X207368876Y-89609832D01*
X207470736Y-89637125D01*
X207470738Y-89637125D01*
X207576188Y-89637125D01*
X207576190Y-89637125D01*
X207678050Y-89609832D01*
X207769376Y-89557105D01*
X207843943Y-89482538D01*
X207896670Y-89391212D01*
X207923963Y-89289352D01*
X207923963Y-89183898D01*
X207896670Y-89082038D01*
X207843943Y-88990712D01*
X207843942Y-88990711D01*
X207843941Y-88990709D01*
X207769378Y-88916146D01*
X207678051Y-88863418D01*
X207678047Y-88863417D01*
X207576192Y-88836125D01*
X207576190Y-88836125D01*
X207470736Y-88836125D01*
X207470733Y-88836125D01*
X207368878Y-88863417D01*
X207368874Y-88863418D01*
X207277547Y-88916146D01*
X207202984Y-88990709D01*
X207150256Y-89082036D01*
X207150255Y-89082040D01*
X207122963Y-89183895D01*
X206324318Y-89183895D01*
X206324318Y-84394954D01*
X206342800Y-84344174D01*
X206347457Y-84339093D01*
X208790136Y-81896416D01*
X209293142Y-81393410D01*
X209867500Y-81393410D01*
X209867500Y-81825000D01*
X210431298Y-81825000D01*
X210427500Y-81839174D01*
X210427500Y-81970826D01*
X210431298Y-81985000D01*
X209867500Y-81985000D01*
X209867500Y-82416589D01*
X209870222Y-82451182D01*
X209870223Y-82451186D01*
X209913218Y-82599183D01*
X209913219Y-82599186D01*
X209991674Y-82731843D01*
X209991679Y-82731850D01*
X210100649Y-82840820D01*
X210100656Y-82840825D01*
X210233313Y-82919280D01*
X210233316Y-82919281D01*
X210381313Y-82962276D01*
X210381317Y-82962277D01*
X210415910Y-82965000D01*
X210847500Y-82965000D01*
X210847500Y-82401202D01*
X210861674Y-82405000D01*
X210993326Y-82405000D01*
X211007500Y-82401202D01*
X211007500Y-82965000D01*
X211439090Y-82965000D01*
X211473682Y-82962277D01*
X211473686Y-82962276D01*
X211621683Y-82919281D01*
X211621686Y-82919280D01*
X211754343Y-82840825D01*
X211754350Y-82840820D01*
X211863320Y-82731850D01*
X211863325Y-82731843D01*
X211941780Y-82599186D01*
X211941781Y-82599183D01*
X211984776Y-82451186D01*
X211984777Y-82451182D01*
X211987500Y-82416589D01*
X211987500Y-81985000D01*
X211423702Y-81985000D01*
X211427500Y-81970826D01*
X211427500Y-81839174D01*
X211423702Y-81825000D01*
X211987500Y-81825000D01*
X211987500Y-81393410D01*
X211984777Y-81358817D01*
X211984776Y-81358813D01*
X211941781Y-81210816D01*
X211941780Y-81210813D01*
X211863325Y-81078156D01*
X211863320Y-81078149D01*
X211754350Y-80969179D01*
X211754343Y-80969174D01*
X211621686Y-80890719D01*
X211621683Y-80890718D01*
X211473686Y-80847723D01*
X211473682Y-80847722D01*
X211439090Y-80845000D01*
X211007500Y-80845000D01*
X211007500Y-81408797D01*
X210993326Y-81405000D01*
X210861674Y-81405000D01*
X210847500Y-81408797D01*
X210847500Y-80845000D01*
X210415910Y-80845000D01*
X210381317Y-80847722D01*
X210381313Y-80847723D01*
X210233316Y-80890718D01*
X210233313Y-80890719D01*
X210100656Y-80969174D01*
X210100649Y-80969179D01*
X209991679Y-81078149D01*
X209991674Y-81078156D01*
X209913219Y-81210813D01*
X209913218Y-81210816D01*
X209870223Y-81358813D01*
X209870222Y-81358817D01*
X209867500Y-81393410D01*
X209293142Y-81393410D01*
X209350562Y-81335990D01*
X210281355Y-80405196D01*
X210281355Y-80405195D01*
X210281387Y-80405164D01*
X210286367Y-80399963D01*
X210291024Y-80394882D01*
X210324538Y-80339660D01*
X210343020Y-80288880D01*
X210353000Y-80232277D01*
X210353000Y-57982723D01*
X210352842Y-57975495D01*
X210352541Y-57968610D01*
X210337193Y-57905894D01*
X210314355Y-57856918D01*
X210314352Y-57856915D01*
X210314352Y-57856913D01*
X210281391Y-57809840D01*
X210281382Y-57809830D01*
X209732696Y-57261144D01*
X209732658Y-57261108D01*
X209727463Y-57256133D01*
X209722382Y-57251476D01*
X209722380Y-57251474D01*
X209667165Y-57217964D01*
X209667154Y-57217960D01*
X209632390Y-57205307D01*
X209616381Y-57199480D01*
X209559781Y-57189500D01*
X209559777Y-57189500D01*
X201513585Y-57189500D01*
X201513580Y-57189500D01*
X201456980Y-57199480D01*
X201425656Y-57210881D01*
X201406202Y-57217962D01*
X201406198Y-57217963D01*
X201406195Y-57217965D01*
X201406191Y-57217966D01*
X201374351Y-57233602D01*
X201374350Y-57233603D01*
X201340266Y-57269088D01*
X201291760Y-57292907D01*
X201247001Y-57283455D01*
X201246869Y-57283774D01*
X201245161Y-57283066D01*
X201243792Y-57282777D01*
X201242087Y-57281793D01*
X201242085Y-57281792D01*
X201242083Y-57281791D01*
X201140229Y-57254500D01*
X201140227Y-57254500D01*
X201034773Y-57254500D01*
X201034770Y-57254500D01*
X200932915Y-57281792D01*
X200928131Y-57283774D01*
X200927320Y-57281817D01*
X200882083Y-57289780D01*
X200840593Y-57265808D01*
X200839574Y-57266870D01*
X200834590Y-57262084D01*
X200834588Y-57262081D01*
X200792122Y-57233603D01*
X200768799Y-57217962D01*
X200768795Y-57217960D01*
X200718021Y-57199480D01*
X200661419Y-57189500D01*
X200661415Y-57189500D01*
X199370222Y-57189500D01*
X199370220Y-57189500D01*
X199363014Y-57189657D01*
X199356108Y-57189959D01*
X199293391Y-57205307D01*
X199293388Y-57205308D01*
X199244412Y-57228147D01*
X199197339Y-57261108D01*
X199197329Y-57261117D01*
X197622861Y-58835586D01*
X197573885Y-58858424D01*
X197521687Y-58844438D01*
X197490692Y-58800172D01*
X197488000Y-58779725D01*
X197488000Y-58357588D01*
X197488169Y-58352421D01*
X197504339Y-58105704D01*
X197505688Y-58095459D01*
X197528114Y-57982721D01*
X197553419Y-57855503D01*
X197556086Y-57845545D01*
X197634739Y-57613843D01*
X197638681Y-57604326D01*
X197746898Y-57384882D01*
X197752054Y-57375952D01*
X197887987Y-57172515D01*
X197894270Y-57164329D01*
X198055581Y-56980388D01*
X198062888Y-56973081D01*
X198246829Y-56811770D01*
X198255015Y-56805487D01*
X198458452Y-56669554D01*
X198467382Y-56664398D01*
X198686826Y-56556181D01*
X198696343Y-56552239D01*
X198928045Y-56473586D01*
X198938003Y-56470919D01*
X199177966Y-56423187D01*
X199188196Y-56421839D01*
X199434922Y-56405669D01*
X199440089Y-56405500D01*
X213708500Y-56405500D01*
X213759280Y-56423982D01*
G37*
%TD.AperFunction*%
%TA.AperFunction,Conductor*%
G36*
X214064441Y-105104315D02*
G01*
X214104131Y-105114950D01*
X214123173Y-105122837D01*
X214148638Y-105137539D01*
X214158753Y-105143379D01*
X214175114Y-105155934D01*
X214204152Y-105184972D01*
X214216707Y-105201334D01*
X214237247Y-105236911D01*
X214245139Y-105255962D01*
X214255771Y-105295638D01*
X214258463Y-105316086D01*
X214258463Y-105357162D01*
X214255771Y-105377610D01*
X214245139Y-105417286D01*
X214237248Y-105436337D01*
X214216710Y-105471911D01*
X214204154Y-105488273D01*
X214175111Y-105517316D01*
X214158749Y-105529872D01*
X214123175Y-105550410D01*
X214104125Y-105558301D01*
X214085523Y-105563285D01*
X214064445Y-105568933D01*
X214044001Y-105571625D01*
X214002924Y-105571625D01*
X213982479Y-105568933D01*
X213962640Y-105563617D01*
X213942803Y-105558302D01*
X213923751Y-105550410D01*
X213888174Y-105529870D01*
X213871812Y-105517315D01*
X213842771Y-105488274D01*
X213830216Y-105471913D01*
X213809676Y-105436337D01*
X213801785Y-105417286D01*
X213791153Y-105377605D01*
X213788463Y-105357166D01*
X213788463Y-105316081D01*
X213791154Y-105295638D01*
X213801786Y-105255956D01*
X213809674Y-105236913D01*
X213830220Y-105201326D01*
X213842769Y-105184974D01*
X213871812Y-105155931D01*
X213888168Y-105143381D01*
X213923748Y-105122838D01*
X213942795Y-105114948D01*
X213982479Y-105104315D01*
X214002920Y-105101625D01*
X214044002Y-105101625D01*
X214064441Y-105104315D01*
G37*
%TD.AperFunction*%
%TA.AperFunction,Conductor*%
G36*
X206161928Y-104413430D02*
G01*
X206201618Y-104424065D01*
X206220660Y-104431952D01*
X206256240Y-104452494D01*
X206272601Y-104465049D01*
X206301639Y-104494087D01*
X206314194Y-104510449D01*
X206334734Y-104546026D01*
X206342626Y-104565077D01*
X206353258Y-104604753D01*
X206355950Y-104625201D01*
X206355950Y-104666277D01*
X206353258Y-104686725D01*
X206342626Y-104726401D01*
X206334735Y-104745452D01*
X206314197Y-104781026D01*
X206301641Y-104797388D01*
X206272598Y-104826431D01*
X206256236Y-104838987D01*
X206220662Y-104859525D01*
X206201612Y-104867416D01*
X206183010Y-104872400D01*
X206161932Y-104878048D01*
X206141488Y-104880740D01*
X206100411Y-104880740D01*
X206079965Y-104878048D01*
X206077326Y-104877341D01*
X206040289Y-104867417D01*
X206021234Y-104859524D01*
X205985657Y-104838983D01*
X205969297Y-104826429D01*
X205940260Y-104797392D01*
X205927705Y-104781032D01*
X205907163Y-104745453D01*
X205899272Y-104726401D01*
X205888640Y-104686720D01*
X205885950Y-104666281D01*
X205885950Y-104625196D01*
X205888641Y-104604753D01*
X205899273Y-104565071D01*
X205907161Y-104546028D01*
X205927707Y-104510441D01*
X205940256Y-104494089D01*
X205969299Y-104465046D01*
X205985655Y-104452496D01*
X206021235Y-104431953D01*
X206040282Y-104424063D01*
X206079966Y-104413430D01*
X206100407Y-104410740D01*
X206141489Y-104410740D01*
X206161928Y-104413430D01*
G37*
%TD.AperFunction*%
%TA.AperFunction,Conductor*%
G36*
X203193479Y-103672691D02*
G01*
X203233169Y-103683326D01*
X203252211Y-103691213D01*
X203287791Y-103711755D01*
X203304152Y-103724310D01*
X203333190Y-103753348D01*
X203345745Y-103769710D01*
X203366285Y-103805287D01*
X203374177Y-103824338D01*
X203384809Y-103864014D01*
X203387501Y-103884462D01*
X203387501Y-103925538D01*
X203384809Y-103945986D01*
X203374177Y-103985662D01*
X203366286Y-104004713D01*
X203345748Y-104040287D01*
X203333192Y-104056649D01*
X203304149Y-104085692D01*
X203287787Y-104098248D01*
X203252213Y-104118786D01*
X203233163Y-104126677D01*
X203214561Y-104131661D01*
X203193483Y-104137309D01*
X203173039Y-104140001D01*
X203131962Y-104140001D01*
X203111516Y-104137309D01*
X203071840Y-104126678D01*
X203052785Y-104118785D01*
X203017208Y-104098244D01*
X203000848Y-104085690D01*
X202971811Y-104056653D01*
X202959256Y-104040293D01*
X202938714Y-104004714D01*
X202930823Y-103985662D01*
X202920191Y-103945981D01*
X202917501Y-103925542D01*
X202917501Y-103884457D01*
X202920192Y-103864014D01*
X202930824Y-103824332D01*
X202938712Y-103805289D01*
X202959258Y-103769702D01*
X202971809Y-103753349D01*
X203000850Y-103724307D01*
X203017206Y-103711757D01*
X203052786Y-103691214D01*
X203071833Y-103683324D01*
X203111517Y-103672691D01*
X203131958Y-103670001D01*
X203173040Y-103670001D01*
X203193479Y-103672691D01*
G37*
%TD.AperFunction*%
%TA.AperFunction,Conductor*%
G36*
X205538478Y-98222690D02*
G01*
X205578168Y-98233325D01*
X205597210Y-98241212D01*
X205621587Y-98255286D01*
X205632790Y-98261754D01*
X205649151Y-98274309D01*
X205678189Y-98303347D01*
X205690744Y-98319709D01*
X205711284Y-98355286D01*
X205719176Y-98374337D01*
X205729808Y-98414013D01*
X205732500Y-98434461D01*
X205732500Y-98475537D01*
X205729808Y-98495985D01*
X205719176Y-98535661D01*
X205711285Y-98554712D01*
X205690747Y-98590286D01*
X205678191Y-98606648D01*
X205649148Y-98635691D01*
X205632786Y-98648247D01*
X205597212Y-98668785D01*
X205578162Y-98676676D01*
X205559560Y-98681660D01*
X205538482Y-98687308D01*
X205518038Y-98690000D01*
X205476961Y-98690000D01*
X205456516Y-98687308D01*
X205436677Y-98681992D01*
X205416840Y-98676677D01*
X205397788Y-98668785D01*
X205362211Y-98648245D01*
X205345849Y-98635690D01*
X205316808Y-98606649D01*
X205304253Y-98590288D01*
X205283713Y-98554712D01*
X205275822Y-98535661D01*
X205265190Y-98495980D01*
X205262500Y-98475541D01*
X205262500Y-98434456D01*
X205265191Y-98414013D01*
X205275823Y-98374331D01*
X205283711Y-98355288D01*
X205304257Y-98319701D01*
X205316806Y-98303349D01*
X205345849Y-98274306D01*
X205362205Y-98261756D01*
X205397785Y-98241213D01*
X205416832Y-98233323D01*
X205456516Y-98222690D01*
X205476957Y-98220000D01*
X205518039Y-98220000D01*
X205538478Y-98222690D01*
G37*
%TD.AperFunction*%
%TA.AperFunction,Conductor*%
G36*
X203738478Y-98122690D02*
G01*
X203778168Y-98133325D01*
X203797210Y-98141212D01*
X203824400Y-98156910D01*
X203832790Y-98161754D01*
X203849151Y-98174309D01*
X203878189Y-98203347D01*
X203890744Y-98219709D01*
X203911284Y-98255286D01*
X203919176Y-98274337D01*
X203929808Y-98314013D01*
X203932500Y-98334461D01*
X203932500Y-98375538D01*
X203929808Y-98395984D01*
X203922286Y-98424057D01*
X203922284Y-98424065D01*
X203919174Y-98435667D01*
X203911285Y-98454712D01*
X203890747Y-98490286D01*
X203878191Y-98506648D01*
X203849148Y-98535691D01*
X203832786Y-98548247D01*
X203797212Y-98568785D01*
X203778162Y-98576676D01*
X203759560Y-98581660D01*
X203738482Y-98587308D01*
X203718038Y-98590000D01*
X203676961Y-98590000D01*
X203656516Y-98587308D01*
X203625830Y-98579086D01*
X203616840Y-98576677D01*
X203597788Y-98568785D01*
X203562211Y-98548245D01*
X203545849Y-98535690D01*
X203516808Y-98506649D01*
X203504253Y-98490288D01*
X203483713Y-98454712D01*
X203475822Y-98435663D01*
X203465190Y-98395980D01*
X203462500Y-98375541D01*
X203462500Y-98334456D01*
X203465191Y-98314013D01*
X203475823Y-98274331D01*
X203483711Y-98255288D01*
X203504257Y-98219701D01*
X203516806Y-98203349D01*
X203545849Y-98174306D01*
X203562205Y-98161756D01*
X203597785Y-98141213D01*
X203616832Y-98133323D01*
X203656516Y-98122690D01*
X203676957Y-98120000D01*
X203718039Y-98120000D01*
X203738478Y-98122690D01*
G37*
%TD.AperFunction*%
%TA.AperFunction,Conductor*%
G36*
X199064441Y-97904063D02*
G01*
X199104131Y-97914698D01*
X199123173Y-97922585D01*
X199158753Y-97943127D01*
X199175114Y-97955682D01*
X199204152Y-97984720D01*
X199216707Y-98001082D01*
X199237247Y-98036659D01*
X199245139Y-98055710D01*
X199255771Y-98095386D01*
X199258463Y-98115834D01*
X199258463Y-98156910D01*
X199255771Y-98177357D01*
X199245140Y-98217031D01*
X199237248Y-98236085D01*
X199216706Y-98271664D01*
X199204151Y-98288024D01*
X199175111Y-98317064D01*
X199158749Y-98329620D01*
X199123175Y-98350158D01*
X199104125Y-98358049D01*
X199085523Y-98363033D01*
X199064445Y-98368681D01*
X199044001Y-98371373D01*
X199002924Y-98371373D01*
X198982478Y-98368681D01*
X198942802Y-98358050D01*
X198923747Y-98350157D01*
X198888170Y-98329616D01*
X198871810Y-98317062D01*
X198842773Y-98288025D01*
X198830218Y-98271665D01*
X198830217Y-98271664D01*
X198809675Y-98236085D01*
X198801785Y-98217036D01*
X198791153Y-98177353D01*
X198788463Y-98156914D01*
X198788463Y-98115829D01*
X198791154Y-98095386D01*
X198801786Y-98055704D01*
X198809674Y-98036661D01*
X198830220Y-98001074D01*
X198842769Y-97984722D01*
X198871812Y-97955679D01*
X198888168Y-97943129D01*
X198923748Y-97922586D01*
X198942795Y-97914696D01*
X198982479Y-97904063D01*
X199002920Y-97901373D01*
X199044002Y-97901373D01*
X199064441Y-97904063D01*
G37*
%TD.AperFunction*%
%TA.AperFunction,Conductor*%
G36*
X205188478Y-96422690D02*
G01*
X205228168Y-96433325D01*
X205247210Y-96441212D01*
X205282790Y-96461754D01*
X205299151Y-96474309D01*
X205328189Y-96503347D01*
X205340744Y-96519709D01*
X205361284Y-96555286D01*
X205369176Y-96574337D01*
X205379808Y-96614013D01*
X205382500Y-96634461D01*
X205382500Y-96675537D01*
X205379808Y-96695985D01*
X205369176Y-96735661D01*
X205361285Y-96754712D01*
X205340747Y-96790286D01*
X205328191Y-96806648D01*
X205299148Y-96835691D01*
X205282786Y-96848247D01*
X205247212Y-96868785D01*
X205228162Y-96876676D01*
X205209560Y-96881660D01*
X205188482Y-96887308D01*
X205168038Y-96890000D01*
X205126961Y-96890000D01*
X205106516Y-96887308D01*
X205086677Y-96881992D01*
X205066840Y-96876677D01*
X205047788Y-96868785D01*
X205012211Y-96848245D01*
X204995849Y-96835690D01*
X204966808Y-96806649D01*
X204954253Y-96790288D01*
X204933713Y-96754712D01*
X204925822Y-96735661D01*
X204915190Y-96695980D01*
X204912500Y-96675541D01*
X204912500Y-96634456D01*
X204915191Y-96614013D01*
X204925823Y-96574331D01*
X204933711Y-96555288D01*
X204954257Y-96519701D01*
X204966806Y-96503349D01*
X204995849Y-96474306D01*
X205012205Y-96461756D01*
X205047785Y-96441213D01*
X205066832Y-96433323D01*
X205106516Y-96422690D01*
X205126957Y-96420000D01*
X205168039Y-96420000D01*
X205188478Y-96422690D01*
G37*
%TD.AperFunction*%
%TA.AperFunction,Conductor*%
G36*
X204501268Y-92339670D02*
G01*
X204540958Y-92350305D01*
X204560000Y-92358192D01*
X204592958Y-92377220D01*
X204595580Y-92378734D01*
X204611941Y-92391289D01*
X204640979Y-92420327D01*
X204653534Y-92436689D01*
X204674074Y-92472266D01*
X204681966Y-92491317D01*
X204681967Y-92491320D01*
X204691722Y-92527726D01*
X204692598Y-92530993D01*
X204695290Y-92551441D01*
X204695290Y-92592516D01*
X204692598Y-92612965D01*
X204681965Y-92652644D01*
X204674074Y-92671692D01*
X204674073Y-92671695D01*
X204653535Y-92707268D01*
X204640980Y-92723629D01*
X204611939Y-92752670D01*
X204595600Y-92765212D01*
X204593665Y-92766330D01*
X204593641Y-92766344D01*
X204560001Y-92785765D01*
X204540952Y-92793656D01*
X204522350Y-92798640D01*
X204501272Y-92804288D01*
X204480828Y-92806980D01*
X204439751Y-92806980D01*
X204419306Y-92804288D01*
X204399467Y-92798972D01*
X204379630Y-92793657D01*
X204360578Y-92785765D01*
X204325001Y-92765225D01*
X204308639Y-92752670D01*
X204279598Y-92723629D01*
X204267043Y-92707268D01*
X204246503Y-92671692D01*
X204238612Y-92652643D01*
X204227980Y-92612961D01*
X204225290Y-92592521D01*
X204225290Y-92551436D01*
X204227981Y-92530993D01*
X204238613Y-92491311D01*
X204246501Y-92472268D01*
X204267047Y-92436681D01*
X204279596Y-92420329D01*
X204308639Y-92391286D01*
X204324995Y-92378736D01*
X204360575Y-92358193D01*
X204379622Y-92350303D01*
X204419306Y-92339670D01*
X204439747Y-92336980D01*
X204480829Y-92336980D01*
X204501268Y-92339670D01*
G37*
%TD.AperFunction*%
%TA.AperFunction,Conductor*%
G36*
X203328478Y-85322690D02*
G01*
X203368168Y-85333325D01*
X203387210Y-85341212D01*
X203422790Y-85361754D01*
X203439151Y-85374309D01*
X203468189Y-85403347D01*
X203480744Y-85419709D01*
X203501284Y-85455286D01*
X203509176Y-85474337D01*
X203519808Y-85514013D01*
X203522500Y-85534461D01*
X203522500Y-85575537D01*
X203519808Y-85595985D01*
X203509176Y-85635661D01*
X203501285Y-85654712D01*
X203480747Y-85690286D01*
X203468191Y-85706648D01*
X203439148Y-85735691D01*
X203422786Y-85748247D01*
X203387212Y-85768785D01*
X203368162Y-85776676D01*
X203349560Y-85781660D01*
X203328482Y-85787308D01*
X203308038Y-85790000D01*
X203266961Y-85790000D01*
X203246516Y-85787308D01*
X203226677Y-85781992D01*
X203206840Y-85776677D01*
X203187788Y-85768785D01*
X203152211Y-85748245D01*
X203135849Y-85735690D01*
X203106808Y-85706649D01*
X203094253Y-85690288D01*
X203073713Y-85654712D01*
X203065822Y-85635661D01*
X203055190Y-85595981D01*
X203052500Y-85575541D01*
X203052500Y-85534456D01*
X203055191Y-85514013D01*
X203065823Y-85474331D01*
X203073711Y-85455288D01*
X203094257Y-85419701D01*
X203106806Y-85403349D01*
X203135849Y-85374306D01*
X203152205Y-85361756D01*
X203187785Y-85341213D01*
X203206832Y-85333323D01*
X203246516Y-85322690D01*
X203266957Y-85320000D01*
X203308039Y-85320000D01*
X203328478Y-85322690D01*
G37*
%TD.AperFunction*%
%TA.AperFunction,Conductor*%
G36*
X198893478Y-83432691D02*
G01*
X198933168Y-83443326D01*
X198952210Y-83451213D01*
X198987790Y-83471755D01*
X199004151Y-83484310D01*
X199033189Y-83513348D01*
X199045744Y-83529710D01*
X199066284Y-83565287D01*
X199074176Y-83584338D01*
X199084808Y-83624014D01*
X199087500Y-83644462D01*
X199087500Y-83685538D01*
X199084808Y-83705986D01*
X199074176Y-83745662D01*
X199066285Y-83764713D01*
X199045747Y-83800287D01*
X199033191Y-83816649D01*
X199004148Y-83845692D01*
X198987786Y-83858248D01*
X198952212Y-83878786D01*
X198933162Y-83886677D01*
X198914560Y-83891661D01*
X198893482Y-83897309D01*
X198873038Y-83900001D01*
X198831961Y-83900001D01*
X198811516Y-83897309D01*
X198791677Y-83891993D01*
X198771840Y-83886678D01*
X198752788Y-83878786D01*
X198717211Y-83858246D01*
X198700849Y-83845691D01*
X198671808Y-83816650D01*
X198659253Y-83800289D01*
X198638713Y-83764713D01*
X198630822Y-83745662D01*
X198620190Y-83705982D01*
X198617500Y-83685542D01*
X198617500Y-83644457D01*
X198620191Y-83624014D01*
X198630823Y-83584332D01*
X198638711Y-83565289D01*
X198659257Y-83529702D01*
X198671806Y-83513350D01*
X198700849Y-83484307D01*
X198717205Y-83471757D01*
X198752785Y-83451214D01*
X198771832Y-83443324D01*
X198811516Y-83432691D01*
X198831957Y-83430001D01*
X198873039Y-83430001D01*
X198893478Y-83432691D01*
G37*
%TD.AperFunction*%
%TA.AperFunction,Conductor*%
G36*
X198893478Y-78432691D02*
G01*
X198933168Y-78443326D01*
X198952210Y-78451213D01*
X198987790Y-78471755D01*
X199004151Y-78484310D01*
X199033190Y-78513349D01*
X199045746Y-78529712D01*
X199066283Y-78565285D01*
X199074173Y-78584334D01*
X199084807Y-78624015D01*
X199087499Y-78644457D01*
X199087500Y-78644464D01*
X199087500Y-78685538D01*
X199084808Y-78705986D01*
X199074176Y-78745662D01*
X199066285Y-78764713D01*
X199045747Y-78800287D01*
X199033191Y-78816649D01*
X199004148Y-78845692D01*
X198987786Y-78858248D01*
X198952212Y-78878786D01*
X198933162Y-78886677D01*
X198914560Y-78891661D01*
X198893482Y-78897309D01*
X198873038Y-78900001D01*
X198831961Y-78900001D01*
X198811516Y-78897309D01*
X198791677Y-78891993D01*
X198771840Y-78886678D01*
X198752788Y-78878786D01*
X198717211Y-78858246D01*
X198700849Y-78845691D01*
X198671808Y-78816650D01*
X198659253Y-78800289D01*
X198638713Y-78764713D01*
X198630822Y-78745662D01*
X198620190Y-78705981D01*
X198617500Y-78685542D01*
X198617500Y-78644457D01*
X198620191Y-78624014D01*
X198630823Y-78584332D01*
X198638711Y-78565289D01*
X198659257Y-78529702D01*
X198671808Y-78513349D01*
X198700849Y-78484307D01*
X198717205Y-78471757D01*
X198752785Y-78451214D01*
X198771832Y-78443324D01*
X198811516Y-78432691D01*
X198831957Y-78430001D01*
X198873039Y-78430001D01*
X198893478Y-78432691D01*
G37*
%TD.AperFunction*%
%TA.AperFunction,Conductor*%
G36*
X203893478Y-78432691D02*
G01*
X203933168Y-78443326D01*
X203952210Y-78451213D01*
X203987790Y-78471755D01*
X204004151Y-78484310D01*
X204033189Y-78513348D01*
X204045744Y-78529710D01*
X204066284Y-78565287D01*
X204074174Y-78584334D01*
X204074176Y-78584338D01*
X204084808Y-78624014D01*
X204087500Y-78644462D01*
X204087500Y-78685538D01*
X204084808Y-78705986D01*
X204074176Y-78745662D01*
X204066285Y-78764713D01*
X204045747Y-78800287D01*
X204033191Y-78816649D01*
X204004148Y-78845692D01*
X203987786Y-78858248D01*
X203952212Y-78878786D01*
X203933162Y-78886677D01*
X203914560Y-78891661D01*
X203893482Y-78897309D01*
X203873038Y-78900001D01*
X203831961Y-78900001D01*
X203811516Y-78897309D01*
X203791677Y-78891993D01*
X203771840Y-78886678D01*
X203752788Y-78878786D01*
X203717211Y-78858246D01*
X203700849Y-78845691D01*
X203671808Y-78816650D01*
X203659253Y-78800289D01*
X203638713Y-78764713D01*
X203630822Y-78745662D01*
X203620190Y-78705982D01*
X203617500Y-78685542D01*
X203617500Y-78644457D01*
X203620191Y-78624014D01*
X203630823Y-78584332D01*
X203638711Y-78565289D01*
X203659257Y-78529702D01*
X203671808Y-78513349D01*
X203700849Y-78484307D01*
X203717205Y-78471757D01*
X203752785Y-78451214D01*
X203771832Y-78443324D01*
X203811516Y-78432691D01*
X203831957Y-78430001D01*
X203873039Y-78430001D01*
X203893478Y-78432691D01*
G37*
%TD.AperFunction*%
%TA.AperFunction,Conductor*%
G36*
X207828478Y-77822690D02*
G01*
X207868168Y-77833325D01*
X207887210Y-77841212D01*
X207922790Y-77861754D01*
X207939151Y-77874309D01*
X207968189Y-77903347D01*
X207980744Y-77919709D01*
X208001284Y-77955286D01*
X208009176Y-77974337D01*
X208019808Y-78014013D01*
X208022500Y-78034461D01*
X208022500Y-78075537D01*
X208019808Y-78095985D01*
X208009176Y-78135661D01*
X208001285Y-78154712D01*
X207980747Y-78190286D01*
X207968191Y-78206648D01*
X207939148Y-78235691D01*
X207922786Y-78248247D01*
X207887212Y-78268785D01*
X207868162Y-78276676D01*
X207849560Y-78281660D01*
X207828482Y-78287308D01*
X207808038Y-78290000D01*
X207766961Y-78290000D01*
X207746516Y-78287308D01*
X207726677Y-78281992D01*
X207706840Y-78276677D01*
X207687788Y-78268785D01*
X207652211Y-78248245D01*
X207635849Y-78235690D01*
X207606808Y-78206649D01*
X207594253Y-78190288D01*
X207573713Y-78154712D01*
X207565822Y-78135661D01*
X207555190Y-78095981D01*
X207552500Y-78075541D01*
X207552500Y-78034456D01*
X207555191Y-78014013D01*
X207565823Y-77974331D01*
X207573711Y-77955288D01*
X207594257Y-77919701D01*
X207606806Y-77903349D01*
X207635849Y-77874306D01*
X207652205Y-77861756D01*
X207687785Y-77841213D01*
X207706832Y-77833323D01*
X207746516Y-77822690D01*
X207766957Y-77820000D01*
X207808039Y-77820000D01*
X207828478Y-77822690D01*
G37*
%TD.AperFunction*%
%TA.AperFunction,Conductor*%
G36*
X203893478Y-74932691D02*
G01*
X203933168Y-74943326D01*
X203952210Y-74951213D01*
X203987790Y-74971755D01*
X204004151Y-74984310D01*
X204033189Y-75013348D01*
X204045744Y-75029710D01*
X204066284Y-75065287D01*
X204074176Y-75084338D01*
X204084808Y-75124014D01*
X204087500Y-75144462D01*
X204087500Y-75185538D01*
X204084808Y-75205986D01*
X204074176Y-75245662D01*
X204066285Y-75264713D01*
X204045747Y-75300287D01*
X204033191Y-75316649D01*
X204004148Y-75345692D01*
X203987786Y-75358248D01*
X203952212Y-75378786D01*
X203933162Y-75386677D01*
X203914560Y-75391661D01*
X203893482Y-75397309D01*
X203873038Y-75400001D01*
X203831961Y-75400001D01*
X203811516Y-75397309D01*
X203791677Y-75391993D01*
X203771840Y-75386678D01*
X203752788Y-75378786D01*
X203717211Y-75358246D01*
X203700849Y-75345691D01*
X203671808Y-75316650D01*
X203659253Y-75300289D01*
X203638713Y-75264713D01*
X203630822Y-75245662D01*
X203620190Y-75205982D01*
X203617500Y-75185542D01*
X203617500Y-75144457D01*
X203620191Y-75124014D01*
X203630823Y-75084332D01*
X203638711Y-75065289D01*
X203659257Y-75029702D01*
X203671806Y-75013350D01*
X203700849Y-74984307D01*
X203717205Y-74971757D01*
X203752785Y-74951214D01*
X203771832Y-74943324D01*
X203811516Y-74932691D01*
X203831957Y-74930001D01*
X203873039Y-74930001D01*
X203893478Y-74932691D01*
G37*
%TD.AperFunction*%
%TA.AperFunction,Conductor*%
G36*
X198893478Y-72932691D02*
G01*
X198933168Y-72943326D01*
X198952210Y-72951213D01*
X198987790Y-72971755D01*
X199004151Y-72984310D01*
X199033189Y-73013348D01*
X199045744Y-73029710D01*
X199066284Y-73065287D01*
X199074176Y-73084338D01*
X199084808Y-73124014D01*
X199087500Y-73144462D01*
X199087500Y-73185538D01*
X199084808Y-73205986D01*
X199074176Y-73245662D01*
X199066285Y-73264713D01*
X199045747Y-73300287D01*
X199033191Y-73316649D01*
X199004148Y-73345692D01*
X198987786Y-73358248D01*
X198952212Y-73378786D01*
X198933162Y-73386677D01*
X198914560Y-73391661D01*
X198893482Y-73397309D01*
X198873038Y-73400001D01*
X198831961Y-73400001D01*
X198811516Y-73397309D01*
X198791677Y-73391993D01*
X198771840Y-73386678D01*
X198752788Y-73378786D01*
X198717211Y-73358246D01*
X198700849Y-73345691D01*
X198671808Y-73316650D01*
X198659253Y-73300289D01*
X198638713Y-73264713D01*
X198630822Y-73245662D01*
X198620190Y-73205981D01*
X198617500Y-73185542D01*
X198617500Y-73144457D01*
X198620191Y-73124014D01*
X198630823Y-73084332D01*
X198638711Y-73065289D01*
X198659257Y-73029702D01*
X198671806Y-73013350D01*
X198700849Y-72984307D01*
X198717205Y-72971757D01*
X198752785Y-72951214D01*
X198771832Y-72943324D01*
X198811516Y-72932691D01*
X198831957Y-72930001D01*
X198873039Y-72930001D01*
X198893478Y-72932691D01*
G37*
%TD.AperFunction*%
%TA.AperFunction,Conductor*%
G36*
X207393478Y-70932691D02*
G01*
X207433168Y-70943326D01*
X207452210Y-70951213D01*
X207487790Y-70971755D01*
X207504151Y-70984310D01*
X207533189Y-71013348D01*
X207545744Y-71029710D01*
X207566284Y-71065287D01*
X207574176Y-71084338D01*
X207584808Y-71124014D01*
X207587500Y-71144462D01*
X207587500Y-71185538D01*
X207584808Y-71205986D01*
X207574176Y-71245662D01*
X207566285Y-71264713D01*
X207545747Y-71300287D01*
X207533191Y-71316649D01*
X207504148Y-71345692D01*
X207487786Y-71358248D01*
X207452212Y-71378786D01*
X207433162Y-71386677D01*
X207414560Y-71391661D01*
X207393482Y-71397309D01*
X207373038Y-71400001D01*
X207331961Y-71400001D01*
X207311516Y-71397309D01*
X207291677Y-71391993D01*
X207271840Y-71386678D01*
X207252788Y-71378786D01*
X207217211Y-71358246D01*
X207200849Y-71345691D01*
X207171808Y-71316650D01*
X207159253Y-71300289D01*
X207138713Y-71264713D01*
X207130822Y-71245662D01*
X207120190Y-71205981D01*
X207117500Y-71185542D01*
X207117500Y-71144457D01*
X207120191Y-71124014D01*
X207130823Y-71084332D01*
X207138711Y-71065289D01*
X207159257Y-71029702D01*
X207171806Y-71013350D01*
X207200849Y-70984307D01*
X207217205Y-70971757D01*
X207252785Y-70951214D01*
X207271832Y-70943324D01*
X207311516Y-70932691D01*
X207331957Y-70930001D01*
X207373039Y-70930001D01*
X207393478Y-70932691D01*
G37*
%TD.AperFunction*%
%TA.AperFunction,Conductor*%
G36*
X203893478Y-68432691D02*
G01*
X203933168Y-68443326D01*
X203952210Y-68451213D01*
X203987790Y-68471755D01*
X204004151Y-68484310D01*
X204033189Y-68513348D01*
X204045744Y-68529710D01*
X204066284Y-68565287D01*
X204074176Y-68584338D01*
X204084808Y-68624014D01*
X204087500Y-68644462D01*
X204087500Y-68685538D01*
X204084808Y-68705986D01*
X204074176Y-68745662D01*
X204066285Y-68764713D01*
X204045747Y-68800287D01*
X204033191Y-68816649D01*
X204004148Y-68845692D01*
X203987786Y-68858248D01*
X203952212Y-68878786D01*
X203933162Y-68886677D01*
X203914560Y-68891661D01*
X203893482Y-68897309D01*
X203873038Y-68900001D01*
X203831961Y-68900001D01*
X203811516Y-68897309D01*
X203791677Y-68891993D01*
X203771840Y-68886678D01*
X203752788Y-68878786D01*
X203717211Y-68858246D01*
X203700849Y-68845691D01*
X203671808Y-68816650D01*
X203659253Y-68800289D01*
X203638713Y-68764713D01*
X203630822Y-68745662D01*
X203620190Y-68705981D01*
X203617500Y-68685542D01*
X203617500Y-68644457D01*
X203620191Y-68624014D01*
X203630823Y-68584332D01*
X203638711Y-68565289D01*
X203659257Y-68529702D01*
X203671806Y-68513350D01*
X203700849Y-68484307D01*
X203717205Y-68471757D01*
X203752785Y-68451214D01*
X203771832Y-68443324D01*
X203811516Y-68432691D01*
X203831957Y-68430001D01*
X203873039Y-68430001D01*
X203893478Y-68432691D01*
G37*
%TD.AperFunction*%
%TA.AperFunction,Conductor*%
G36*
X198893478Y-66432691D02*
G01*
X198933168Y-66443326D01*
X198952210Y-66451213D01*
X198987790Y-66471755D01*
X199004151Y-66484310D01*
X199033189Y-66513348D01*
X199045744Y-66529710D01*
X199066284Y-66565287D01*
X199074176Y-66584338D01*
X199084808Y-66624014D01*
X199087500Y-66644462D01*
X199087500Y-66685538D01*
X199084808Y-66705986D01*
X199074176Y-66745662D01*
X199066285Y-66764713D01*
X199045747Y-66800287D01*
X199033191Y-66816649D01*
X199004148Y-66845692D01*
X198987786Y-66858248D01*
X198952212Y-66878786D01*
X198933162Y-66886677D01*
X198914560Y-66891661D01*
X198893482Y-66897309D01*
X198873038Y-66900001D01*
X198831961Y-66900001D01*
X198811516Y-66897309D01*
X198791677Y-66891993D01*
X198771840Y-66886678D01*
X198752788Y-66878786D01*
X198717211Y-66858246D01*
X198700849Y-66845691D01*
X198671808Y-66816650D01*
X198659253Y-66800289D01*
X198638713Y-66764713D01*
X198630822Y-66745662D01*
X198620190Y-66705981D01*
X198617500Y-66685542D01*
X198617500Y-66644457D01*
X198620191Y-66624014D01*
X198630823Y-66584332D01*
X198638711Y-66565289D01*
X198659257Y-66529702D01*
X198671806Y-66513350D01*
X198700849Y-66484307D01*
X198717205Y-66471757D01*
X198752785Y-66451214D01*
X198771832Y-66443324D01*
X198811516Y-66432691D01*
X198831957Y-66430001D01*
X198873039Y-66430001D01*
X198893478Y-66432691D01*
G37*
%TD.AperFunction*%
%TA.AperFunction,Conductor*%
G36*
X207393478Y-64432691D02*
G01*
X207433168Y-64443326D01*
X207452210Y-64451213D01*
X207487790Y-64471755D01*
X207504151Y-64484310D01*
X207533189Y-64513348D01*
X207545744Y-64529710D01*
X207566284Y-64565287D01*
X207574176Y-64584338D01*
X207584808Y-64624014D01*
X207587500Y-64644462D01*
X207587500Y-64685538D01*
X207584808Y-64705986D01*
X207574176Y-64745662D01*
X207566285Y-64764713D01*
X207545747Y-64800287D01*
X207533191Y-64816649D01*
X207504148Y-64845692D01*
X207487786Y-64858248D01*
X207452212Y-64878786D01*
X207433162Y-64886677D01*
X207414560Y-64891661D01*
X207393482Y-64897309D01*
X207373038Y-64900001D01*
X207331961Y-64900001D01*
X207311516Y-64897309D01*
X207291677Y-64891993D01*
X207271840Y-64886678D01*
X207252788Y-64878786D01*
X207217211Y-64858246D01*
X207200849Y-64845691D01*
X207171808Y-64816650D01*
X207159253Y-64800289D01*
X207138713Y-64764713D01*
X207130822Y-64745662D01*
X207120190Y-64705981D01*
X207117500Y-64685542D01*
X207117500Y-64644457D01*
X207120191Y-64624014D01*
X207130823Y-64584332D01*
X207138711Y-64565289D01*
X207159257Y-64529702D01*
X207171806Y-64513350D01*
X207200849Y-64484307D01*
X207217205Y-64471757D01*
X207252785Y-64451214D01*
X207271832Y-64443324D01*
X207311516Y-64432691D01*
X207331957Y-64430001D01*
X207373039Y-64430001D01*
X207393478Y-64432691D01*
G37*
%TD.AperFunction*%
%TA.AperFunction,Conductor*%
G36*
X203893478Y-61932691D02*
G01*
X203933168Y-61943326D01*
X203952210Y-61951213D01*
X203987790Y-61971755D01*
X204004151Y-61984310D01*
X204033189Y-62013348D01*
X204045744Y-62029710D01*
X204066284Y-62065287D01*
X204074176Y-62084338D01*
X204084808Y-62124014D01*
X204087500Y-62144462D01*
X204087500Y-62185538D01*
X204084808Y-62205986D01*
X204074176Y-62245662D01*
X204066285Y-62264713D01*
X204045747Y-62300287D01*
X204033191Y-62316649D01*
X204004148Y-62345692D01*
X203987786Y-62358248D01*
X203952212Y-62378786D01*
X203933162Y-62386677D01*
X203914560Y-62391661D01*
X203893482Y-62397309D01*
X203873038Y-62400001D01*
X203831961Y-62400001D01*
X203811516Y-62397309D01*
X203791677Y-62391993D01*
X203771840Y-62386678D01*
X203752788Y-62378786D01*
X203717211Y-62358246D01*
X203700849Y-62345691D01*
X203671808Y-62316650D01*
X203659253Y-62300289D01*
X203638713Y-62264713D01*
X203630822Y-62245662D01*
X203620190Y-62205981D01*
X203617500Y-62185542D01*
X203617500Y-62144457D01*
X203620191Y-62124014D01*
X203630823Y-62084332D01*
X203638711Y-62065289D01*
X203659257Y-62029702D01*
X203671806Y-62013350D01*
X203700849Y-61984307D01*
X203717205Y-61971757D01*
X203752785Y-61951214D01*
X203771832Y-61943324D01*
X203811516Y-61932691D01*
X203831957Y-61930001D01*
X203873039Y-61930001D01*
X203893478Y-61932691D01*
G37*
%TD.AperFunction*%
%TA.AperFunction,Conductor*%
G36*
X198893478Y-59932691D02*
G01*
X198933168Y-59943326D01*
X198952210Y-59951213D01*
X198987790Y-59971755D01*
X199004151Y-59984310D01*
X199033189Y-60013348D01*
X199045744Y-60029710D01*
X199066284Y-60065287D01*
X199074176Y-60084338D01*
X199084808Y-60124014D01*
X199087500Y-60144462D01*
X199087500Y-60185538D01*
X199084808Y-60205986D01*
X199074176Y-60245662D01*
X199066285Y-60264713D01*
X199045747Y-60300287D01*
X199033191Y-60316649D01*
X199004148Y-60345692D01*
X198987786Y-60358248D01*
X198952212Y-60378786D01*
X198933162Y-60386677D01*
X198914560Y-60391661D01*
X198893482Y-60397309D01*
X198873038Y-60400001D01*
X198831961Y-60400001D01*
X198811516Y-60397309D01*
X198791677Y-60391993D01*
X198771840Y-60386678D01*
X198752788Y-60378786D01*
X198717211Y-60358246D01*
X198700849Y-60345691D01*
X198671808Y-60316650D01*
X198659253Y-60300289D01*
X198638713Y-60264713D01*
X198630822Y-60245662D01*
X198620190Y-60205981D01*
X198617500Y-60185542D01*
X198617500Y-60144457D01*
X198620191Y-60124014D01*
X198630823Y-60084332D01*
X198638711Y-60065289D01*
X198659257Y-60029702D01*
X198671806Y-60013350D01*
X198700849Y-59984307D01*
X198717205Y-59971757D01*
X198752785Y-59951214D01*
X198771832Y-59943324D01*
X198811516Y-59932691D01*
X198831957Y-59930001D01*
X198873039Y-59930001D01*
X198893478Y-59932691D01*
G37*
%TD.AperFunction*%
%TD*%
%TA.AperFunction,Conductor*%
%TO.N,/MCU/DEV_RELAY*%
G36*
X203437882Y-100978082D02*
G01*
X203539418Y-101079618D01*
X203542845Y-101087891D01*
X203541743Y-101092849D01*
X203357801Y-101486050D01*
X203351191Y-101492091D01*
X203342245Y-101491690D01*
X203340743Y-101490847D01*
X203153775Y-101367020D01*
X203150480Y-101363725D01*
X203026653Y-101176757D01*
X203024942Y-101167968D01*
X203029948Y-101160542D01*
X203031438Y-101159705D01*
X203424653Y-100975756D01*
X203433597Y-100975356D01*
X203437882Y-100978082D01*
G37*
%TD.AperFunction*%
%TD*%
%TA.AperFunction,Conductor*%
%TO.N,AGND_MCU*%
G36*
X203522888Y-70608178D02*
G01*
X203287500Y-70656000D01*
X203052112Y-70608178D01*
X203207500Y-70179612D01*
X203367500Y-70179612D01*
X203522888Y-70608178D01*
G37*
%TD.AperFunction*%
%TD*%
%TA.AperFunction,Conductor*%
%TO.N,AGND_MCU*%
G36*
X200712195Y-57373482D02*
G01*
X200739215Y-57420282D01*
X200729831Y-57473500D01*
X200714293Y-57500411D01*
X200714292Y-57500415D01*
X200687000Y-57602270D01*
X200687000Y-57707729D01*
X200714292Y-57809584D01*
X200714293Y-57809588D01*
X200767021Y-57900915D01*
X200841584Y-57975478D01*
X200841586Y-57975479D01*
X200841587Y-57975480D01*
X200932913Y-58028207D01*
X201034773Y-58055500D01*
X201034775Y-58055500D01*
X201140225Y-58055500D01*
X201140227Y-58055500D01*
X201242087Y-58028207D01*
X201333413Y-57975480D01*
X201407980Y-57900913D01*
X201460707Y-57809587D01*
X201488000Y-57707727D01*
X201488000Y-57602273D01*
X201460707Y-57500413D01*
X201445169Y-57473500D01*
X201435785Y-57420282D01*
X201462805Y-57373482D01*
X201513585Y-57355000D01*
X209559777Y-57355000D01*
X209610557Y-57373482D01*
X209615638Y-57378139D01*
X210164361Y-57926862D01*
X210187199Y-57975838D01*
X210187500Y-57982723D01*
X210187500Y-80232277D01*
X210169018Y-80283057D01*
X210164361Y-80288138D01*
X206158819Y-84293679D01*
X206158818Y-84293681D01*
X206158818Y-84293682D01*
X206158818Y-91347716D01*
X206158819Y-91347718D01*
X207994258Y-93183156D01*
X208017096Y-93232132D01*
X208017397Y-93239017D01*
X208017397Y-97661068D01*
X208017398Y-97661070D01*
X214994615Y-104638286D01*
X215001902Y-104653913D01*
X215012990Y-104667127D01*
X215015985Y-104684113D01*
X215017453Y-104687262D01*
X215017754Y-104694147D01*
X215017754Y-104837183D01*
X214999272Y-104887963D01*
X214994615Y-104893044D01*
X214935753Y-104951905D01*
X214883025Y-105043232D01*
X214883024Y-105043236D01*
X214855732Y-105145091D01*
X214855732Y-105250550D01*
X214883024Y-105352405D01*
X214883025Y-105352409D01*
X214935753Y-105443736D01*
X214949406Y-105457389D01*
X214972244Y-105506365D01*
X214958258Y-105558563D01*
X214949407Y-105569111D01*
X214808688Y-105709831D01*
X214529870Y-105988648D01*
X214480895Y-106011486D01*
X214474010Y-106011787D01*
X214401420Y-106011787D01*
X214299565Y-106039079D01*
X214299561Y-106039080D01*
X214208234Y-106091808D01*
X214133671Y-106166371D01*
X214080943Y-106257698D01*
X214080942Y-106257702D01*
X214053650Y-106359557D01*
X214053650Y-106432147D01*
X214035168Y-106482927D01*
X214030511Y-106488008D01*
X212979371Y-107539148D01*
X212930395Y-107561986D01*
X212923510Y-107562287D01*
X202202509Y-107562287D01*
X202151729Y-107543805D01*
X202146648Y-107539148D01*
X201535255Y-106927755D01*
X208333371Y-106927755D01*
X208333371Y-107033214D01*
X208360663Y-107135069D01*
X208360664Y-107135073D01*
X208413392Y-107226400D01*
X208487955Y-107300963D01*
X208487957Y-107300964D01*
X208487958Y-107300965D01*
X208579284Y-107353692D01*
X208681144Y-107380985D01*
X208681146Y-107380985D01*
X208786596Y-107380985D01*
X208786598Y-107380985D01*
X208888458Y-107353692D01*
X208979784Y-107300965D01*
X209054351Y-107226398D01*
X209107078Y-107135072D01*
X209134371Y-107033212D01*
X209134371Y-106927758D01*
X209107078Y-106825898D01*
X209054351Y-106734572D01*
X209054350Y-106734571D01*
X209054349Y-106734569D01*
X208979786Y-106660006D01*
X208888459Y-106607278D01*
X208888455Y-106607277D01*
X208786600Y-106579985D01*
X208786598Y-106579985D01*
X208681144Y-106579985D01*
X208681141Y-106579985D01*
X208579286Y-106607277D01*
X208579282Y-106607278D01*
X208487955Y-106660006D01*
X208413392Y-106734569D01*
X208360664Y-106825896D01*
X208360663Y-106825900D01*
X208333371Y-106927755D01*
X201535255Y-106927755D01*
X200167057Y-105559557D01*
X211055732Y-105559557D01*
X211055732Y-105665016D01*
X211083024Y-105766871D01*
X211083025Y-105766875D01*
X211135753Y-105858202D01*
X211210316Y-105932765D01*
X211210318Y-105932766D01*
X211210319Y-105932767D01*
X211301645Y-105985494D01*
X211403505Y-106012787D01*
X211403507Y-106012787D01*
X211508957Y-106012787D01*
X211508959Y-106012787D01*
X211610819Y-105985494D01*
X211702145Y-105932767D01*
X211776712Y-105858200D01*
X211829439Y-105766874D01*
X211856732Y-105665014D01*
X211856732Y-105559560D01*
X211829439Y-105457700D01*
X211829259Y-105457389D01*
X211789978Y-105389352D01*
X211776712Y-105366374D01*
X211776711Y-105366373D01*
X211776710Y-105366371D01*
X211702147Y-105291808D01*
X211688441Y-105283895D01*
X213622963Y-105283895D01*
X213622963Y-105389354D01*
X213650255Y-105491209D01*
X213650256Y-105491213D01*
X213702984Y-105582540D01*
X213777547Y-105657103D01*
X213777549Y-105657104D01*
X213777550Y-105657105D01*
X213868876Y-105709832D01*
X213970736Y-105737125D01*
X213970738Y-105737125D01*
X214076188Y-105737125D01*
X214076190Y-105737125D01*
X214178050Y-105709832D01*
X214269376Y-105657105D01*
X214343943Y-105582538D01*
X214396670Y-105491212D01*
X214423963Y-105389352D01*
X214423963Y-105283898D01*
X214396670Y-105182038D01*
X214343943Y-105090712D01*
X214343942Y-105090711D01*
X214343941Y-105090709D01*
X214269378Y-105016146D01*
X214178051Y-104963418D01*
X214178047Y-104963417D01*
X214076192Y-104936125D01*
X214076190Y-104936125D01*
X213970736Y-104936125D01*
X213970733Y-104936125D01*
X213868878Y-104963417D01*
X213868874Y-104963418D01*
X213777547Y-105016146D01*
X213702984Y-105090709D01*
X213650256Y-105182036D01*
X213650255Y-105182040D01*
X213622963Y-105283895D01*
X211688441Y-105283895D01*
X211610820Y-105239080D01*
X211610816Y-105239079D01*
X211508961Y-105211787D01*
X211508959Y-105211787D01*
X211403505Y-105211787D01*
X211403502Y-105211787D01*
X211301647Y-105239079D01*
X211301643Y-105239080D01*
X211210316Y-105291808D01*
X211135753Y-105366371D01*
X211083025Y-105457698D01*
X211083024Y-105457702D01*
X211055732Y-105559557D01*
X200167057Y-105559557D01*
X199200510Y-104593010D01*
X205720450Y-104593010D01*
X205720450Y-104698469D01*
X205747742Y-104800324D01*
X205747743Y-104800328D01*
X205800471Y-104891655D01*
X205875034Y-104966218D01*
X205961511Y-105016146D01*
X205966363Y-105018947D01*
X206068223Y-105046240D01*
X206068225Y-105046240D01*
X206173675Y-105046240D01*
X206173677Y-105046240D01*
X206275537Y-105018947D01*
X206366863Y-104966220D01*
X206441430Y-104891653D01*
X206494157Y-104800327D01*
X206521450Y-104698467D01*
X206521450Y-104593013D01*
X206494157Y-104491153D01*
X206441430Y-104399827D01*
X206441429Y-104399826D01*
X206441428Y-104399824D01*
X206366865Y-104325261D01*
X206275538Y-104272533D01*
X206275534Y-104272532D01*
X206173679Y-104245240D01*
X206173677Y-104245240D01*
X206068223Y-104245240D01*
X206068220Y-104245240D01*
X205966365Y-104272532D01*
X205966361Y-104272533D01*
X205875034Y-104325261D01*
X205800471Y-104399824D01*
X205747743Y-104491151D01*
X205747742Y-104491155D01*
X205720450Y-104593010D01*
X199200510Y-104593010D01*
X199002935Y-104395435D01*
X198980097Y-104346459D01*
X198994083Y-104294261D01*
X199019294Y-104271159D01*
X199098412Y-104225481D01*
X199172979Y-104150914D01*
X199225706Y-104059588D01*
X199252999Y-103957728D01*
X199252999Y-103852274D01*
X199252998Y-103852271D01*
X202752001Y-103852271D01*
X202752001Y-103957730D01*
X202779293Y-104059585D01*
X202779294Y-104059589D01*
X202832022Y-104150916D01*
X202906585Y-104225479D01*
X202988084Y-104272533D01*
X202997914Y-104278208D01*
X203099774Y-104305501D01*
X203099776Y-104305501D01*
X203205226Y-104305501D01*
X203205228Y-104305501D01*
X203307088Y-104278208D01*
X203398414Y-104225481D01*
X203472981Y-104150914D01*
X203525708Y-104059588D01*
X203553001Y-103957728D01*
X203553001Y-103852274D01*
X203525708Y-103750414D01*
X203472981Y-103659088D01*
X203472980Y-103659087D01*
X203472979Y-103659085D01*
X203398416Y-103584522D01*
X203307089Y-103531794D01*
X203307085Y-103531793D01*
X203205230Y-103504501D01*
X203205228Y-103504501D01*
X203099774Y-103504501D01*
X203099771Y-103504501D01*
X202997916Y-103531793D01*
X202997912Y-103531794D01*
X202906585Y-103584522D01*
X202832022Y-103659085D01*
X202779294Y-103750412D01*
X202779293Y-103750416D01*
X202752001Y-103852271D01*
X199252998Y-103852271D01*
X199225706Y-103750414D01*
X199172979Y-103659088D01*
X199172978Y-103659087D01*
X199172977Y-103659085D01*
X199098414Y-103584522D01*
X199007087Y-103531794D01*
X199007083Y-103531793D01*
X198905228Y-103504501D01*
X198905226Y-103504501D01*
X198799772Y-103504501D01*
X198799769Y-103504501D01*
X198697914Y-103531793D01*
X198697910Y-103531794D01*
X198606583Y-103584522D01*
X198532021Y-103659084D01*
X198486341Y-103738204D01*
X198444944Y-103772939D01*
X198390905Y-103772938D01*
X198362064Y-103754564D01*
X197511139Y-102903639D01*
X197488301Y-102854663D01*
X197488000Y-102847778D01*
X197488000Y-102582271D01*
X198452000Y-102582271D01*
X198452000Y-102687730D01*
X198479292Y-102789585D01*
X198479293Y-102789589D01*
X198532021Y-102880916D01*
X198606584Y-102955479D01*
X198606586Y-102955480D01*
X198606587Y-102955481D01*
X198697913Y-103008208D01*
X198799773Y-103035501D01*
X198799775Y-103035501D01*
X198905225Y-103035501D01*
X198905227Y-103035501D01*
X199007087Y-103008208D01*
X199098413Y-102955481D01*
X199172980Y-102880914D01*
X199225707Y-102789588D01*
X199253000Y-102687728D01*
X199253000Y-102582274D01*
X199252999Y-102582271D01*
X202752000Y-102582271D01*
X202752000Y-102687730D01*
X202779292Y-102789585D01*
X202779293Y-102789589D01*
X202832021Y-102880916D01*
X202906584Y-102955479D01*
X202906586Y-102955480D01*
X202906587Y-102955481D01*
X202997913Y-103008208D01*
X203099773Y-103035501D01*
X203099775Y-103035501D01*
X203205225Y-103035501D01*
X203205227Y-103035501D01*
X203307087Y-103008208D01*
X203398413Y-102955481D01*
X203472980Y-102880914D01*
X203525707Y-102789588D01*
X203553000Y-102687728D01*
X203553000Y-102582274D01*
X203549105Y-102567737D01*
X206984156Y-102567737D01*
X206984156Y-103425824D01*
X207012130Y-103530227D01*
X207012131Y-103530229D01*
X207066175Y-103623836D01*
X207142600Y-103700261D01*
X207142602Y-103700262D01*
X207142603Y-103700263D01*
X207236209Y-103754306D01*
X207340613Y-103782281D01*
X207340615Y-103782281D01*
X207448697Y-103782281D01*
X207448699Y-103782281D01*
X207553103Y-103754306D01*
X207646709Y-103700263D01*
X207851945Y-103495027D01*
X207905988Y-103401421D01*
X207933964Y-103297017D01*
X207933964Y-103188930D01*
X207933964Y-103184095D01*
X207933963Y-103184077D01*
X207933963Y-102553391D01*
X207933964Y-102553378D01*
X207933964Y-102438931D01*
X207933964Y-102438930D01*
X207905988Y-102334527D01*
X207851945Y-102240921D01*
X207851944Y-102240920D01*
X207851943Y-102240918D01*
X207775518Y-102164493D01*
X207681909Y-102110448D01*
X207577507Y-102082473D01*
X207469420Y-102082473D01*
X207469419Y-102082473D01*
X207365016Y-102110448D01*
X207271409Y-102164492D01*
X207229881Y-102206021D01*
X207142603Y-102293299D01*
X207121381Y-102314521D01*
X207066174Y-102369727D01*
X207012131Y-102463332D01*
X207012130Y-102463334D01*
X206984156Y-102567737D01*
X203549105Y-102567737D01*
X203525707Y-102480414D01*
X203521873Y-102473774D01*
X203472978Y-102389085D01*
X203398415Y-102314522D01*
X203307088Y-102261794D01*
X203307084Y-102261793D01*
X203205229Y-102234501D01*
X203205227Y-102234501D01*
X203099773Y-102234501D01*
X203099770Y-102234501D01*
X202997915Y-102261793D01*
X202997911Y-102261794D01*
X202906584Y-102314522D01*
X202832021Y-102389085D01*
X202779293Y-102480412D01*
X202779292Y-102480416D01*
X202752000Y-102582271D01*
X199252999Y-102582271D01*
X199225707Y-102480414D01*
X199221873Y-102473774D01*
X199172978Y-102389085D01*
X199098415Y-102314522D01*
X199007088Y-102261794D01*
X199007084Y-102261793D01*
X198905229Y-102234501D01*
X198905227Y-102234501D01*
X198799773Y-102234501D01*
X198799770Y-102234501D01*
X198697915Y-102261793D01*
X198697911Y-102261794D01*
X198606584Y-102314522D01*
X198532021Y-102389085D01*
X198479293Y-102480412D01*
X198479292Y-102480416D01*
X198452000Y-102582271D01*
X197488000Y-102582271D01*
X197488000Y-101312271D01*
X198452000Y-101312271D01*
X198452000Y-101417730D01*
X198479292Y-101519585D01*
X198479293Y-101519589D01*
X198532021Y-101610916D01*
X198606584Y-101685479D01*
X198606586Y-101685480D01*
X198606587Y-101685481D01*
X198697913Y-101738208D01*
X198799773Y-101765501D01*
X198799775Y-101765501D01*
X198905225Y-101765501D01*
X198905227Y-101765501D01*
X199007087Y-101738208D01*
X199098413Y-101685481D01*
X199172980Y-101610914D01*
X199225707Y-101519588D01*
X199253000Y-101417728D01*
X199253000Y-101312274D01*
X199252999Y-101312271D01*
X202752000Y-101312271D01*
X202752000Y-101417730D01*
X202779292Y-101519585D01*
X202779293Y-101519589D01*
X202832021Y-101610916D01*
X202906584Y-101685479D01*
X202906586Y-101685480D01*
X202906587Y-101685481D01*
X202997913Y-101738208D01*
X203099773Y-101765501D01*
X203099775Y-101765501D01*
X203205225Y-101765501D01*
X203205227Y-101765501D01*
X203307087Y-101738208D01*
X203398413Y-101685481D01*
X203472980Y-101610914D01*
X203493143Y-101575990D01*
X203507709Y-101556178D01*
X203521063Y-101527630D01*
X203525707Y-101519588D01*
X203525707Y-101519585D01*
X203527578Y-101515070D01*
X203529838Y-101508873D01*
X203683142Y-101181165D01*
X203698833Y-101158785D01*
X204580820Y-100276798D01*
X204580822Y-100276798D01*
X204608092Y-100249527D01*
X204613791Y-100244363D01*
X204719894Y-100157285D01*
X204732753Y-100148692D01*
X204850356Y-100085829D01*
X204864646Y-100079909D01*
X204992257Y-100041195D01*
X205007426Y-100038177D01*
X205021025Y-100036837D01*
X205060425Y-100043076D01*
X205261732Y-100131128D01*
X205261736Y-100131129D01*
X205261737Y-100131130D01*
X205268563Y-100132952D01*
X205287688Y-100140863D01*
X205307592Y-100152355D01*
X205315754Y-100157067D01*
X205417614Y-100184360D01*
X205417616Y-100184360D01*
X205523066Y-100184360D01*
X205523068Y-100184360D01*
X205624928Y-100157067D01*
X205716254Y-100104340D01*
X205790821Y-100029773D01*
X205843548Y-99938447D01*
X205870841Y-99836587D01*
X205870841Y-99731133D01*
X205843548Y-99629273D01*
X205790821Y-99537947D01*
X205790820Y-99537946D01*
X205790819Y-99537944D01*
X205716256Y-99463381D01*
X205624929Y-99410653D01*
X205624925Y-99410652D01*
X205523070Y-99383360D01*
X205523068Y-99383360D01*
X205417614Y-99383360D01*
X205370089Y-99396094D01*
X205370089Y-99396093D01*
X205367384Y-99396817D01*
X205347859Y-99400602D01*
X205337561Y-99404807D01*
X205332749Y-99406097D01*
X205332745Y-99406099D01*
X205315757Y-99410651D01*
X205302263Y-99418441D01*
X205292643Y-99423155D01*
X204977601Y-99551847D01*
X204977512Y-99551630D01*
X204957491Y-99558033D01*
X204857362Y-99573896D01*
X204857360Y-99573896D01*
X204857358Y-99573897D01*
X204671661Y-99634240D01*
X204497693Y-99722884D01*
X204497690Y-99722886D01*
X204339716Y-99837664D01*
X204339715Y-99837665D01*
X204270687Y-99906694D01*
X204242232Y-99935150D01*
X204242229Y-99935154D01*
X203749173Y-100428209D01*
X203358720Y-100818661D01*
X203336334Y-100834356D01*
X203008616Y-100987666D01*
X203008615Y-100987666D01*
X203002315Y-100990614D01*
X202997913Y-100991794D01*
X202989892Y-100996424D01*
X202986804Y-100997869D01*
X202986806Y-100997869D01*
X202961309Y-101009797D01*
X202950377Y-101015415D01*
X202948892Y-101016249D01*
X202944170Y-101020602D01*
X202930138Y-101030922D01*
X202906584Y-101044522D01*
X202832021Y-101119085D01*
X202779293Y-101210412D01*
X202779292Y-101210416D01*
X202752000Y-101312271D01*
X199252999Y-101312271D01*
X199225707Y-101210414D01*
X199172980Y-101119088D01*
X199172979Y-101119087D01*
X199172978Y-101119085D01*
X199098415Y-101044522D01*
X199007088Y-100991794D01*
X199007084Y-100991793D01*
X198905229Y-100964501D01*
X198905227Y-100964501D01*
X198799773Y-100964501D01*
X198799770Y-100964501D01*
X198697915Y-100991793D01*
X198697911Y-100991794D01*
X198606584Y-101044522D01*
X198532021Y-101119085D01*
X198479293Y-101210412D01*
X198479292Y-101210416D01*
X198452000Y-101312271D01*
X197488000Y-101312271D01*
X197488000Y-99856435D01*
X201258750Y-99856435D01*
X201258750Y-99961894D01*
X201286042Y-100063749D01*
X201286043Y-100063753D01*
X201338771Y-100155080D01*
X201413334Y-100229643D01*
X201495008Y-100276798D01*
X201504663Y-100282372D01*
X201606523Y-100309665D01*
X201606525Y-100309665D01*
X201711975Y-100309665D01*
X201711977Y-100309665D01*
X201813837Y-100282372D01*
X201905163Y-100229645D01*
X201979730Y-100155078D01*
X202032457Y-100063752D01*
X202059750Y-99961892D01*
X202059750Y-99856438D01*
X202032457Y-99754578D01*
X202014158Y-99722884D01*
X201979728Y-99663249D01*
X201905165Y-99588686D01*
X201813838Y-99535958D01*
X201813834Y-99535957D01*
X201711979Y-99508665D01*
X201711977Y-99508665D01*
X201606523Y-99508665D01*
X201606520Y-99508665D01*
X201504665Y-99535957D01*
X201504661Y-99535958D01*
X201413334Y-99588686D01*
X201338771Y-99663249D01*
X201286043Y-99754576D01*
X201286042Y-99754580D01*
X201258750Y-99856435D01*
X197488000Y-99856435D01*
X197488000Y-98083643D01*
X198622963Y-98083643D01*
X198622963Y-98189102D01*
X198650255Y-98290957D01*
X198650256Y-98290961D01*
X198702984Y-98382288D01*
X198777547Y-98456851D01*
X198865666Y-98507727D01*
X198868876Y-98509580D01*
X198970736Y-98536873D01*
X198970738Y-98536873D01*
X199076188Y-98536873D01*
X199076190Y-98536873D01*
X199178050Y-98509580D01*
X199269376Y-98456853D01*
X199343943Y-98382286D01*
X199390140Y-98302270D01*
X203297000Y-98302270D01*
X203297000Y-98407729D01*
X203324292Y-98509584D01*
X203324293Y-98509588D01*
X203377021Y-98600915D01*
X203451584Y-98675478D01*
X203451586Y-98675479D01*
X203451587Y-98675480D01*
X203542913Y-98728207D01*
X203644773Y-98755500D01*
X203644775Y-98755500D01*
X203750225Y-98755500D01*
X203750227Y-98755500D01*
X203852087Y-98728207D01*
X203943413Y-98675480D01*
X204017980Y-98600913D01*
X204070707Y-98509587D01*
X204098000Y-98407727D01*
X204098000Y-98402270D01*
X205097000Y-98402270D01*
X205097000Y-98507729D01*
X205124292Y-98609584D01*
X205124293Y-98609588D01*
X205177021Y-98700915D01*
X205251584Y-98775478D01*
X205251586Y-98775479D01*
X205251587Y-98775480D01*
X205342913Y-98828207D01*
X205444773Y-98855500D01*
X205444775Y-98855500D01*
X205550225Y-98855500D01*
X205550227Y-98855500D01*
X205652087Y-98828207D01*
X205743413Y-98775480D01*
X205817980Y-98700913D01*
X205870707Y-98609587D01*
X205898000Y-98507727D01*
X205898000Y-98402273D01*
X205870707Y-98300413D01*
X205817980Y-98209087D01*
X205817979Y-98209086D01*
X205817978Y-98209084D01*
X205743415Y-98134521D01*
X205652088Y-98081793D01*
X205652084Y-98081792D01*
X205550229Y-98054500D01*
X205550227Y-98054500D01*
X205444773Y-98054500D01*
X205444770Y-98054500D01*
X205342915Y-98081792D01*
X205342911Y-98081793D01*
X205251584Y-98134521D01*
X205177021Y-98209084D01*
X205124293Y-98300411D01*
X205124292Y-98300415D01*
X205097000Y-98402270D01*
X204098000Y-98402270D01*
X204098000Y-98302273D01*
X204070707Y-98200413D01*
X204064175Y-98189100D01*
X204017978Y-98109084D01*
X203943415Y-98034521D01*
X203852088Y-97981793D01*
X203852084Y-97981792D01*
X203750229Y-97954500D01*
X203750227Y-97954500D01*
X203644773Y-97954500D01*
X203644770Y-97954500D01*
X203542915Y-97981792D01*
X203542911Y-97981793D01*
X203451584Y-98034521D01*
X203377021Y-98109084D01*
X203324293Y-98200411D01*
X203324292Y-98200415D01*
X203297000Y-98302270D01*
X199390140Y-98302270D01*
X199396670Y-98290960D01*
X199423963Y-98189100D01*
X199423963Y-98083646D01*
X199396670Y-97981786D01*
X199343943Y-97890460D01*
X199343942Y-97890459D01*
X199343941Y-97890457D01*
X199269378Y-97815894D01*
X199178051Y-97763166D01*
X199178047Y-97763165D01*
X199076192Y-97735873D01*
X199076190Y-97735873D01*
X198970736Y-97735873D01*
X198970733Y-97735873D01*
X198868878Y-97763165D01*
X198868874Y-97763166D01*
X198777547Y-97815894D01*
X198702984Y-97890457D01*
X198650256Y-97981784D01*
X198650255Y-97981788D01*
X198622963Y-98083643D01*
X197488000Y-98083643D01*
X197488000Y-96602270D01*
X204747000Y-96602270D01*
X204747000Y-96707729D01*
X204774292Y-96809584D01*
X204774293Y-96809588D01*
X204827021Y-96900915D01*
X204901584Y-96975478D01*
X204901586Y-96975479D01*
X204901587Y-96975480D01*
X204992913Y-97028207D01*
X205094773Y-97055500D01*
X205094775Y-97055500D01*
X205200225Y-97055500D01*
X205200227Y-97055500D01*
X205302087Y-97028207D01*
X205393413Y-96975480D01*
X205467980Y-96900913D01*
X205520707Y-96809587D01*
X205548000Y-96707727D01*
X205548000Y-96602273D01*
X205520707Y-96500413D01*
X205467980Y-96409087D01*
X205467979Y-96409086D01*
X205467978Y-96409084D01*
X205393415Y-96334521D01*
X205302088Y-96281793D01*
X205302084Y-96281792D01*
X205200229Y-96254500D01*
X205200227Y-96254500D01*
X205094773Y-96254500D01*
X205094770Y-96254500D01*
X204992915Y-96281792D01*
X204992911Y-96281793D01*
X204901584Y-96334521D01*
X204827021Y-96409084D01*
X204774293Y-96500411D01*
X204774292Y-96500415D01*
X204747000Y-96602270D01*
X197488000Y-96602270D01*
X197488000Y-94783895D01*
X198622963Y-94783895D01*
X198622963Y-94889354D01*
X198650255Y-94991209D01*
X198650256Y-94991213D01*
X198702984Y-95082540D01*
X198777547Y-95157103D01*
X198777549Y-95157104D01*
X198777550Y-95157105D01*
X198868876Y-95209832D01*
X198970736Y-95237125D01*
X198970738Y-95237125D01*
X199076188Y-95237125D01*
X199076190Y-95237125D01*
X199178050Y-95209832D01*
X199269376Y-95157105D01*
X199343943Y-95082538D01*
X199396670Y-94991212D01*
X199423963Y-94889352D01*
X199423963Y-94783898D01*
X199396670Y-94682038D01*
X199343943Y-94590712D01*
X199343942Y-94590711D01*
X199343941Y-94590709D01*
X199269378Y-94516146D01*
X199178051Y-94463418D01*
X199178047Y-94463417D01*
X199076192Y-94436125D01*
X199076190Y-94436125D01*
X198970736Y-94436125D01*
X198970733Y-94436125D01*
X198868878Y-94463417D01*
X198868874Y-94463418D01*
X198777547Y-94516146D01*
X198702984Y-94590709D01*
X198650256Y-94682036D01*
X198650255Y-94682040D01*
X198622963Y-94783895D01*
X197488000Y-94783895D01*
X197488000Y-92422271D01*
X198452000Y-92422271D01*
X198452000Y-92527730D01*
X198479292Y-92629585D01*
X198479293Y-92629589D01*
X198532021Y-92720916D01*
X198606584Y-92795479D01*
X198606586Y-92795480D01*
X198606587Y-92795481D01*
X198697913Y-92848208D01*
X198799773Y-92875501D01*
X198799775Y-92875501D01*
X198905225Y-92875501D01*
X198905227Y-92875501D01*
X199007087Y-92848208D01*
X199098413Y-92795481D01*
X199172980Y-92720914D01*
X199225707Y-92629588D01*
X199253000Y-92527728D01*
X199253000Y-92422274D01*
X199225707Y-92320414D01*
X199175755Y-92233895D01*
X201172963Y-92233895D01*
X201172963Y-92339354D01*
X201200255Y-92441209D01*
X201200256Y-92441213D01*
X201252984Y-92532540D01*
X201327547Y-92607103D01*
X201327549Y-92607104D01*
X201327550Y-92607105D01*
X201385446Y-92640531D01*
X201389195Y-92642696D01*
X201418876Y-92659832D01*
X201520736Y-92687125D01*
X201520738Y-92687125D01*
X201626188Y-92687125D01*
X201626190Y-92687125D01*
X201728050Y-92659832D01*
X201819376Y-92607105D01*
X201893943Y-92532538D01*
X201901615Y-92519250D01*
X204059790Y-92519250D01*
X204059790Y-92624709D01*
X204087082Y-92726564D01*
X204087083Y-92726568D01*
X204139811Y-92817895D01*
X204214374Y-92892458D01*
X204214376Y-92892459D01*
X204214377Y-92892460D01*
X204305703Y-92945187D01*
X204407563Y-92972480D01*
X204407565Y-92972480D01*
X204513015Y-92972480D01*
X204513017Y-92972480D01*
X204614877Y-92945187D01*
X204706203Y-92892460D01*
X204780770Y-92817893D01*
X204823112Y-92744555D01*
X205935095Y-92744555D01*
X205935095Y-92850014D01*
X205962387Y-92951869D01*
X205962388Y-92951873D01*
X206015116Y-93043200D01*
X206089679Y-93117763D01*
X206089681Y-93117764D01*
X206089682Y-93117765D01*
X206181008Y-93170492D01*
X206282868Y-93197785D01*
X206282870Y-93197785D01*
X206388320Y-93197785D01*
X206388322Y-93197785D01*
X206490182Y-93170492D01*
X206581508Y-93117765D01*
X206656075Y-93043198D01*
X206708802Y-92951872D01*
X206736095Y-92850012D01*
X206736095Y-92744558D01*
X206708802Y-92642698D01*
X206656075Y-92551372D01*
X206656074Y-92551371D01*
X206656073Y-92551369D01*
X206581510Y-92476806D01*
X206490183Y-92424078D01*
X206490179Y-92424077D01*
X206388324Y-92396785D01*
X206388322Y-92396785D01*
X206282868Y-92396785D01*
X206282865Y-92396785D01*
X206181010Y-92424077D01*
X206181006Y-92424078D01*
X206089679Y-92476806D01*
X206015116Y-92551369D01*
X205962388Y-92642696D01*
X205962387Y-92642700D01*
X205935095Y-92744555D01*
X204823112Y-92744555D01*
X204833497Y-92726567D01*
X204860790Y-92624707D01*
X204860790Y-92519253D01*
X204833497Y-92417393D01*
X204780770Y-92326067D01*
X204780769Y-92326066D01*
X204780768Y-92326064D01*
X204706205Y-92251501D01*
X204614878Y-92198773D01*
X204614874Y-92198772D01*
X204513019Y-92171480D01*
X204513017Y-92171480D01*
X204407563Y-92171480D01*
X204407560Y-92171480D01*
X204305705Y-92198772D01*
X204305701Y-92198773D01*
X204214374Y-92251501D01*
X204139811Y-92326064D01*
X204087083Y-92417391D01*
X204087082Y-92417395D01*
X204059790Y-92519250D01*
X201901615Y-92519250D01*
X201946670Y-92441212D01*
X201973963Y-92339352D01*
X201973963Y-92233898D01*
X201946670Y-92132038D01*
X201893943Y-92040712D01*
X201893942Y-92040711D01*
X201893941Y-92040709D01*
X201819378Y-91966146D01*
X201728051Y-91913418D01*
X201728047Y-91913417D01*
X201626192Y-91886125D01*
X201626190Y-91886125D01*
X201520736Y-91886125D01*
X201520733Y-91886125D01*
X201418878Y-91913417D01*
X201418874Y-91913418D01*
X201327547Y-91966146D01*
X201252984Y-92040709D01*
X201200256Y-92132036D01*
X201200255Y-92132040D01*
X201172963Y-92233895D01*
X199175755Y-92233895D01*
X199172980Y-92229088D01*
X199172979Y-92229087D01*
X199172978Y-92229085D01*
X199098415Y-92154522D01*
X199007088Y-92101794D01*
X199007084Y-92101793D01*
X198905229Y-92074501D01*
X198905227Y-92074501D01*
X198799773Y-92074501D01*
X198799770Y-92074501D01*
X198697915Y-92101793D01*
X198697911Y-92101794D01*
X198606584Y-92154522D01*
X198532021Y-92229085D01*
X198479293Y-92320412D01*
X198479292Y-92320416D01*
X198452000Y-92422271D01*
X197488000Y-92422271D01*
X197488000Y-91152271D01*
X198451999Y-91152271D01*
X198451999Y-91257730D01*
X198479291Y-91359585D01*
X198479292Y-91359589D01*
X198532020Y-91450916D01*
X198606583Y-91525479D01*
X198606585Y-91525480D01*
X198606586Y-91525481D01*
X198697912Y-91578208D01*
X198799772Y-91605501D01*
X198799774Y-91605501D01*
X198905224Y-91605501D01*
X198905226Y-91605501D01*
X199007086Y-91578208D01*
X199098412Y-91525481D01*
X199172979Y-91450914D01*
X199211672Y-91383895D01*
X202022963Y-91383895D01*
X202022963Y-91489354D01*
X202050255Y-91591209D01*
X202050256Y-91591213D01*
X202102984Y-91682540D01*
X202177547Y-91757103D01*
X202177549Y-91757104D01*
X202177550Y-91757105D01*
X202268876Y-91809832D01*
X202370736Y-91837125D01*
X202370738Y-91837125D01*
X202476188Y-91837125D01*
X202476190Y-91837125D01*
X202578050Y-91809832D01*
X202669376Y-91757105D01*
X202743943Y-91682538D01*
X202796670Y-91591212D01*
X202823963Y-91489352D01*
X202823963Y-91383898D01*
X202796670Y-91282038D01*
X202743943Y-91190712D01*
X202743942Y-91190711D01*
X202743941Y-91190709D01*
X202669378Y-91116146D01*
X202578051Y-91063418D01*
X202578047Y-91063417D01*
X202476192Y-91036125D01*
X202476190Y-91036125D01*
X202370736Y-91036125D01*
X202370733Y-91036125D01*
X202268878Y-91063417D01*
X202268874Y-91063418D01*
X202177547Y-91116146D01*
X202102984Y-91190709D01*
X202050256Y-91282036D01*
X202050255Y-91282040D01*
X202022963Y-91383895D01*
X199211672Y-91383895D01*
X199225706Y-91359588D01*
X199252999Y-91257728D01*
X199252999Y-91152274D01*
X199225706Y-91050414D01*
X199172979Y-90959088D01*
X199172978Y-90959087D01*
X199172977Y-90959085D01*
X199098414Y-90884522D01*
X199007087Y-90831794D01*
X199007083Y-90831793D01*
X198905228Y-90804501D01*
X198905226Y-90804501D01*
X198799772Y-90804501D01*
X198799769Y-90804501D01*
X198697914Y-90831793D01*
X198697910Y-90831794D01*
X198606583Y-90884522D01*
X198532020Y-90959085D01*
X198479292Y-91050412D01*
X198479291Y-91050416D01*
X198451999Y-91152271D01*
X197488000Y-91152271D01*
X197488000Y-89882271D01*
X198452000Y-89882271D01*
X198452000Y-89987730D01*
X198479292Y-90089585D01*
X198479293Y-90089589D01*
X198532021Y-90180916D01*
X198606584Y-90255479D01*
X198606586Y-90255480D01*
X198606587Y-90255481D01*
X198697913Y-90308208D01*
X198799773Y-90335501D01*
X198799775Y-90335501D01*
X198905225Y-90335501D01*
X198905227Y-90335501D01*
X199007087Y-90308208D01*
X199098413Y-90255481D01*
X199172980Y-90180914D01*
X199225707Y-90089588D01*
X199253000Y-89987728D01*
X199253000Y-89882274D01*
X199252999Y-89882271D01*
X202752000Y-89882271D01*
X202752000Y-89987730D01*
X202779292Y-90089585D01*
X202779293Y-90089589D01*
X202832021Y-90180916D01*
X202906584Y-90255479D01*
X202906586Y-90255480D01*
X202906587Y-90255481D01*
X202997913Y-90308208D01*
X203099773Y-90335501D01*
X203099775Y-90335501D01*
X203205225Y-90335501D01*
X203205227Y-90335501D01*
X203307087Y-90308208D01*
X203398413Y-90255481D01*
X203472980Y-90180914D01*
X203525707Y-90089588D01*
X203553000Y-89987728D01*
X203553000Y-89882274D01*
X203525707Y-89780414D01*
X203472980Y-89689088D01*
X203472979Y-89689087D01*
X203472978Y-89689085D01*
X203398415Y-89614522D01*
X203307088Y-89561794D01*
X203307084Y-89561793D01*
X203205229Y-89534501D01*
X203205227Y-89534501D01*
X203099773Y-89534501D01*
X203099770Y-89534501D01*
X202997915Y-89561793D01*
X202997911Y-89561794D01*
X202906584Y-89614522D01*
X202832021Y-89689085D01*
X202779293Y-89780412D01*
X202779292Y-89780416D01*
X202752000Y-89882271D01*
X199252999Y-89882271D01*
X199225707Y-89780414D01*
X199172980Y-89689088D01*
X199172979Y-89689087D01*
X199172978Y-89689085D01*
X199098415Y-89614522D01*
X199007088Y-89561794D01*
X199007084Y-89561793D01*
X198905229Y-89534501D01*
X198905227Y-89534501D01*
X198799773Y-89534501D01*
X198799770Y-89534501D01*
X198697915Y-89561793D01*
X198697911Y-89561794D01*
X198606584Y-89614522D01*
X198532021Y-89689085D01*
X198479293Y-89780412D01*
X198479292Y-89780416D01*
X198452000Y-89882271D01*
X197488000Y-89882271D01*
X197488000Y-88612271D01*
X198452000Y-88612271D01*
X198452000Y-88717730D01*
X198479292Y-88819585D01*
X198479293Y-88819589D01*
X198532021Y-88910916D01*
X198606584Y-88985479D01*
X198606586Y-88985480D01*
X198606587Y-88985481D01*
X198697913Y-89038208D01*
X198799773Y-89065501D01*
X198799775Y-89065501D01*
X198905225Y-89065501D01*
X198905227Y-89065501D01*
X199007087Y-89038208D01*
X199098413Y-88985481D01*
X199172980Y-88910914D01*
X199225707Y-88819588D01*
X199253000Y-88717728D01*
X199253000Y-88612274D01*
X199252999Y-88612271D01*
X202752000Y-88612271D01*
X202752000Y-88717730D01*
X202779292Y-88819585D01*
X202779293Y-88819589D01*
X202832021Y-88910916D01*
X202906584Y-88985479D01*
X202906586Y-88985480D01*
X202906587Y-88985481D01*
X202997913Y-89038208D01*
X203099773Y-89065501D01*
X203099775Y-89065501D01*
X203205225Y-89065501D01*
X203205227Y-89065501D01*
X203307087Y-89038208D01*
X203398413Y-88985481D01*
X203472980Y-88910914D01*
X203525707Y-88819588D01*
X203553000Y-88717728D01*
X203553000Y-88612274D01*
X203525707Y-88510414D01*
X203472980Y-88419088D01*
X203472979Y-88419087D01*
X203472978Y-88419085D01*
X203398415Y-88344522D01*
X203307088Y-88291794D01*
X203307084Y-88291793D01*
X203205229Y-88264501D01*
X203205227Y-88264501D01*
X203099773Y-88264501D01*
X203099770Y-88264501D01*
X202997915Y-88291793D01*
X202997911Y-88291794D01*
X202906584Y-88344522D01*
X202832021Y-88419085D01*
X202779293Y-88510412D01*
X202779292Y-88510416D01*
X202752000Y-88612271D01*
X199252999Y-88612271D01*
X199225707Y-88510414D01*
X199172980Y-88419088D01*
X199172979Y-88419087D01*
X199172978Y-88419085D01*
X199098415Y-88344522D01*
X199007088Y-88291794D01*
X199007084Y-88291793D01*
X198905229Y-88264501D01*
X198905227Y-88264501D01*
X198799773Y-88264501D01*
X198799770Y-88264501D01*
X198697915Y-88291793D01*
X198697911Y-88291794D01*
X198606584Y-88344522D01*
X198532021Y-88419085D01*
X198479293Y-88510412D01*
X198479292Y-88510416D01*
X198452000Y-88612271D01*
X197488000Y-88612271D01*
X197488000Y-85502270D01*
X202887000Y-85502270D01*
X202887000Y-85607729D01*
X202914292Y-85709584D01*
X202914293Y-85709588D01*
X202967021Y-85800915D01*
X203041584Y-85875478D01*
X203041586Y-85875479D01*
X203041587Y-85875480D01*
X203132913Y-85928207D01*
X203234773Y-85955500D01*
X203234775Y-85955500D01*
X203340225Y-85955500D01*
X203340227Y-85955500D01*
X203442087Y-85928207D01*
X203533413Y-85875480D01*
X203607980Y-85800913D01*
X203660707Y-85709587D01*
X203688000Y-85607727D01*
X203688000Y-85502273D01*
X203660707Y-85400413D01*
X203607980Y-85309087D01*
X203607979Y-85309086D01*
X203607978Y-85309084D01*
X203533415Y-85234521D01*
X203442088Y-85181793D01*
X203442084Y-85181792D01*
X203340229Y-85154500D01*
X203340227Y-85154500D01*
X203234773Y-85154500D01*
X203234770Y-85154500D01*
X203132915Y-85181792D01*
X203132911Y-85181793D01*
X203041584Y-85234521D01*
X202967021Y-85309084D01*
X202914293Y-85400411D01*
X202914292Y-85400415D01*
X202887000Y-85502270D01*
X197488000Y-85502270D01*
X197488000Y-83612271D01*
X198452000Y-83612271D01*
X198452000Y-83717730D01*
X198479292Y-83819585D01*
X198479293Y-83819589D01*
X198532021Y-83910916D01*
X198606584Y-83985479D01*
X198606586Y-83985480D01*
X198606587Y-83985481D01*
X198697913Y-84038208D01*
X198799773Y-84065501D01*
X198799775Y-84065501D01*
X198905225Y-84065501D01*
X198905227Y-84065501D01*
X199007087Y-84038208D01*
X199098413Y-83985481D01*
X199172980Y-83910914D01*
X199225707Y-83819588D01*
X199253000Y-83717728D01*
X199253000Y-83612274D01*
X199225707Y-83510414D01*
X199172980Y-83419088D01*
X199172979Y-83419087D01*
X199172978Y-83419085D01*
X199098415Y-83344522D01*
X199007088Y-83291794D01*
X199007084Y-83291793D01*
X198905229Y-83264501D01*
X198905227Y-83264501D01*
X198799773Y-83264501D01*
X198799770Y-83264501D01*
X198697915Y-83291793D01*
X198697911Y-83291794D01*
X198606584Y-83344522D01*
X198532021Y-83419085D01*
X198479293Y-83510412D01*
X198479292Y-83510416D01*
X198452000Y-83612271D01*
X197488000Y-83612271D01*
X197488000Y-78612271D01*
X198452000Y-78612271D01*
X198452000Y-78717730D01*
X198479292Y-78819585D01*
X198479293Y-78819589D01*
X198532021Y-78910916D01*
X198606584Y-78985479D01*
X198606586Y-78985480D01*
X198606587Y-78985481D01*
X198697913Y-79038208D01*
X198799773Y-79065501D01*
X198799775Y-79065501D01*
X198905225Y-79065501D01*
X198905227Y-79065501D01*
X199007087Y-79038208D01*
X199098413Y-78985481D01*
X199172980Y-78910914D01*
X199225707Y-78819588D01*
X199253000Y-78717728D01*
X199253000Y-78612274D01*
X199252999Y-78612271D01*
X203452000Y-78612271D01*
X203452000Y-78717730D01*
X203479292Y-78819585D01*
X203479293Y-78819589D01*
X203532021Y-78910916D01*
X203606584Y-78985479D01*
X203606586Y-78985480D01*
X203606587Y-78985481D01*
X203697913Y-79038208D01*
X203799773Y-79065501D01*
X203799775Y-79065501D01*
X203905225Y-79065501D01*
X203905227Y-79065501D01*
X204007087Y-79038208D01*
X204098413Y-78985481D01*
X204172980Y-78910914D01*
X204225707Y-78819588D01*
X204253000Y-78717728D01*
X204253000Y-78612274D01*
X204225707Y-78510414D01*
X204172980Y-78419088D01*
X204172979Y-78419087D01*
X204172978Y-78419085D01*
X204098415Y-78344522D01*
X204007088Y-78291794D01*
X204007084Y-78291793D01*
X203905229Y-78264501D01*
X203905227Y-78264501D01*
X203799773Y-78264501D01*
X203799770Y-78264501D01*
X203697915Y-78291793D01*
X203697911Y-78291794D01*
X203606584Y-78344522D01*
X203532021Y-78419085D01*
X203479293Y-78510412D01*
X203479292Y-78510416D01*
X203452000Y-78612271D01*
X199252999Y-78612271D01*
X199225707Y-78510414D01*
X199172980Y-78419088D01*
X199172979Y-78419087D01*
X199172978Y-78419085D01*
X199098415Y-78344522D01*
X199007088Y-78291794D01*
X199007084Y-78291793D01*
X198905229Y-78264501D01*
X198905227Y-78264501D01*
X198799773Y-78264501D01*
X198799770Y-78264501D01*
X198697915Y-78291793D01*
X198697911Y-78291794D01*
X198606584Y-78344522D01*
X198532021Y-78419085D01*
X198479293Y-78510412D01*
X198479292Y-78510416D01*
X198452000Y-78612271D01*
X197488000Y-78612271D01*
X197488000Y-78002270D01*
X207387000Y-78002270D01*
X207387000Y-78107729D01*
X207414292Y-78209584D01*
X207414293Y-78209588D01*
X207467021Y-78300915D01*
X207541584Y-78375478D01*
X207541586Y-78375479D01*
X207541587Y-78375480D01*
X207632913Y-78428207D01*
X207734773Y-78455500D01*
X207734775Y-78455500D01*
X207840225Y-78455500D01*
X207840227Y-78455500D01*
X207942087Y-78428207D01*
X208033413Y-78375480D01*
X208107980Y-78300913D01*
X208160707Y-78209587D01*
X208188000Y-78107727D01*
X208188000Y-78002273D01*
X208160707Y-77900413D01*
X208107980Y-77809087D01*
X208107979Y-77809086D01*
X208107978Y-77809084D01*
X208033415Y-77734521D01*
X207942088Y-77681793D01*
X207942084Y-77681792D01*
X207840229Y-77654500D01*
X207840227Y-77654500D01*
X207734773Y-77654500D01*
X207734770Y-77654500D01*
X207632915Y-77681792D01*
X207632911Y-77681793D01*
X207541584Y-77734521D01*
X207467021Y-77809084D01*
X207414293Y-77900411D01*
X207414292Y-77900415D01*
X207387000Y-78002270D01*
X197488000Y-78002270D01*
X197488000Y-75112271D01*
X203452000Y-75112271D01*
X203452000Y-75217730D01*
X203479292Y-75319585D01*
X203479293Y-75319589D01*
X203532021Y-75410916D01*
X203606584Y-75485479D01*
X203606586Y-75485480D01*
X203606587Y-75485481D01*
X203697913Y-75538208D01*
X203799773Y-75565501D01*
X203799775Y-75565501D01*
X203905225Y-75565501D01*
X203905227Y-75565501D01*
X204007087Y-75538208D01*
X204098413Y-75485481D01*
X204172980Y-75410914D01*
X204225707Y-75319588D01*
X204253000Y-75217728D01*
X204253000Y-75112274D01*
X204225707Y-75010414D01*
X204172980Y-74919088D01*
X204172979Y-74919087D01*
X204172978Y-74919085D01*
X204098415Y-74844522D01*
X204007088Y-74791794D01*
X204007084Y-74791793D01*
X203905229Y-74764501D01*
X203905227Y-74764501D01*
X203799773Y-74764501D01*
X203799770Y-74764501D01*
X203697915Y-74791793D01*
X203697911Y-74791794D01*
X203606584Y-74844522D01*
X203532021Y-74919085D01*
X203479293Y-75010412D01*
X203479292Y-75010416D01*
X203452000Y-75112271D01*
X197488000Y-75112271D01*
X197488000Y-73112271D01*
X198452000Y-73112271D01*
X198452000Y-73217730D01*
X198479292Y-73319585D01*
X198479293Y-73319589D01*
X198532021Y-73410916D01*
X198606584Y-73485479D01*
X198606586Y-73485480D01*
X198606587Y-73485481D01*
X198697913Y-73538208D01*
X198799773Y-73565501D01*
X198799775Y-73565501D01*
X198905225Y-73565501D01*
X198905227Y-73565501D01*
X199007087Y-73538208D01*
X199098413Y-73485481D01*
X199172980Y-73410914D01*
X199225707Y-73319588D01*
X199253000Y-73217728D01*
X199253000Y-73112274D01*
X199225707Y-73010414D01*
X199172980Y-72919088D01*
X199172979Y-72919087D01*
X199172978Y-72919085D01*
X199098415Y-72844522D01*
X199007088Y-72791794D01*
X199007084Y-72791793D01*
X198905229Y-72764501D01*
X198905227Y-72764501D01*
X198799773Y-72764501D01*
X198799770Y-72764501D01*
X198697915Y-72791793D01*
X198697911Y-72791794D01*
X198606584Y-72844522D01*
X198532021Y-72919085D01*
X198479293Y-73010412D01*
X198479292Y-73010416D01*
X198452000Y-73112271D01*
X197488000Y-73112271D01*
X197488000Y-71112271D01*
X206952000Y-71112271D01*
X206952000Y-71217730D01*
X206979292Y-71319585D01*
X206979293Y-71319589D01*
X207032021Y-71410916D01*
X207106584Y-71485479D01*
X207106586Y-71485480D01*
X207106587Y-71485481D01*
X207197913Y-71538208D01*
X207299773Y-71565501D01*
X207299775Y-71565501D01*
X207405225Y-71565501D01*
X207405227Y-71565501D01*
X207507087Y-71538208D01*
X207598413Y-71485481D01*
X207672980Y-71410914D01*
X207725707Y-71319588D01*
X207753000Y-71217728D01*
X207753000Y-71112274D01*
X207725707Y-71010414D01*
X207672980Y-70919088D01*
X207672979Y-70919087D01*
X207672978Y-70919085D01*
X207598415Y-70844522D01*
X207507088Y-70791794D01*
X207507084Y-70791793D01*
X207405229Y-70764501D01*
X207405227Y-70764501D01*
X207299773Y-70764501D01*
X207299770Y-70764501D01*
X207197915Y-70791793D01*
X207197911Y-70791794D01*
X207106584Y-70844522D01*
X207032021Y-70919085D01*
X206979293Y-71010412D01*
X206979292Y-71010416D01*
X206952000Y-71112271D01*
X197488000Y-71112271D01*
X197488000Y-70602270D01*
X200687000Y-70602270D01*
X200687000Y-70707729D01*
X200714292Y-70809584D01*
X200714293Y-70809588D01*
X200767021Y-70900915D01*
X200841584Y-70975478D01*
X200841586Y-70975479D01*
X200841587Y-70975480D01*
X200932913Y-71028207D01*
X201034773Y-71055500D01*
X201034775Y-71055500D01*
X201140225Y-71055500D01*
X201140227Y-71055500D01*
X201210825Y-71036583D01*
X201232455Y-71030788D01*
X201233902Y-71030400D01*
X201242087Y-71028207D01*
X201333413Y-70975480D01*
X201407980Y-70900913D01*
X201460707Y-70809587D01*
X201488000Y-70707727D01*
X201488000Y-70602273D01*
X201460707Y-70500413D01*
X201407980Y-70409087D01*
X201407979Y-70409086D01*
X201407978Y-70409084D01*
X201333415Y-70334521D01*
X201242088Y-70281793D01*
X201242084Y-70281792D01*
X201140229Y-70254500D01*
X201140227Y-70254500D01*
X201034773Y-70254500D01*
X201034770Y-70254500D01*
X200932915Y-70281792D01*
X200932911Y-70281793D01*
X200841584Y-70334521D01*
X200767021Y-70409084D01*
X200714293Y-70500411D01*
X200714292Y-70500415D01*
X200687000Y-70602270D01*
X197488000Y-70602270D01*
X197488000Y-68612271D01*
X203452000Y-68612271D01*
X203452000Y-68717730D01*
X203479292Y-68819585D01*
X203479293Y-68819589D01*
X203532021Y-68910916D01*
X203606584Y-68985479D01*
X203606586Y-68985480D01*
X203606587Y-68985481D01*
X203697913Y-69038208D01*
X203799773Y-69065501D01*
X203799775Y-69065501D01*
X203905225Y-69065501D01*
X203905227Y-69065501D01*
X204007087Y-69038208D01*
X204098413Y-68985481D01*
X204172980Y-68910914D01*
X204225707Y-68819588D01*
X204253000Y-68717728D01*
X204253000Y-68612274D01*
X204225707Y-68510414D01*
X204172980Y-68419088D01*
X204172979Y-68419087D01*
X204172978Y-68419085D01*
X204098415Y-68344522D01*
X204007088Y-68291794D01*
X204007084Y-68291793D01*
X203905229Y-68264501D01*
X203905227Y-68264501D01*
X203799773Y-68264501D01*
X203799770Y-68264501D01*
X203697915Y-68291793D01*
X203697911Y-68291794D01*
X203606584Y-68344522D01*
X203532021Y-68419085D01*
X203479293Y-68510412D01*
X203479292Y-68510416D01*
X203452000Y-68612271D01*
X197488000Y-68612271D01*
X197488000Y-66612271D01*
X198452000Y-66612271D01*
X198452000Y-66717730D01*
X198479292Y-66819585D01*
X198479293Y-66819589D01*
X198532021Y-66910916D01*
X198606584Y-66985479D01*
X198606586Y-66985480D01*
X198606587Y-66985481D01*
X198697913Y-67038208D01*
X198799773Y-67065501D01*
X198799775Y-67065501D01*
X198905225Y-67065501D01*
X198905227Y-67065501D01*
X199007087Y-67038208D01*
X199098413Y-66985481D01*
X199172980Y-66910914D01*
X199225707Y-66819588D01*
X199253000Y-66717728D01*
X199253000Y-66612274D01*
X199225707Y-66510414D01*
X199172980Y-66419088D01*
X199172979Y-66419087D01*
X199172978Y-66419085D01*
X199098415Y-66344522D01*
X199007088Y-66291794D01*
X199007084Y-66291793D01*
X198905229Y-66264501D01*
X198905227Y-66264501D01*
X198799773Y-66264501D01*
X198799770Y-66264501D01*
X198697915Y-66291793D01*
X198697911Y-66291794D01*
X198606584Y-66344522D01*
X198532021Y-66419085D01*
X198479293Y-66510412D01*
X198479292Y-66510416D01*
X198452000Y-66612271D01*
X197488000Y-66612271D01*
X197488000Y-64612271D01*
X206952000Y-64612271D01*
X206952000Y-64717730D01*
X206979292Y-64819585D01*
X206979293Y-64819589D01*
X207032021Y-64910916D01*
X207106584Y-64985479D01*
X207106586Y-64985480D01*
X207106587Y-64985481D01*
X207197913Y-65038208D01*
X207299773Y-65065501D01*
X207299775Y-65065501D01*
X207405225Y-65065501D01*
X207405227Y-65065501D01*
X207507087Y-65038208D01*
X207598413Y-64985481D01*
X207672980Y-64910914D01*
X207725707Y-64819588D01*
X207753000Y-64717728D01*
X207753000Y-64612274D01*
X207725707Y-64510414D01*
X207672980Y-64419088D01*
X207672979Y-64419087D01*
X207672978Y-64419085D01*
X207598415Y-64344522D01*
X207507088Y-64291794D01*
X207507084Y-64291793D01*
X207405229Y-64264501D01*
X207405227Y-64264501D01*
X207299773Y-64264501D01*
X207299770Y-64264501D01*
X207197915Y-64291793D01*
X207197911Y-64291794D01*
X207106584Y-64344522D01*
X207032021Y-64419085D01*
X206979293Y-64510412D01*
X206979292Y-64510416D01*
X206952000Y-64612271D01*
X197488000Y-64612271D01*
X197488000Y-64102270D01*
X200687000Y-64102270D01*
X200687000Y-64207729D01*
X200714292Y-64309584D01*
X200714293Y-64309588D01*
X200767021Y-64400915D01*
X200841584Y-64475478D01*
X200841586Y-64475479D01*
X200841587Y-64475480D01*
X200932913Y-64528207D01*
X201034773Y-64555500D01*
X201034775Y-64555500D01*
X201140225Y-64555500D01*
X201140227Y-64555500D01*
X201210825Y-64536583D01*
X201232455Y-64530788D01*
X201233902Y-64530400D01*
X201242087Y-64528207D01*
X201333413Y-64475480D01*
X201407980Y-64400913D01*
X201460707Y-64309587D01*
X201488000Y-64207727D01*
X201488000Y-64102273D01*
X201460707Y-64000413D01*
X201407980Y-63909087D01*
X201407979Y-63909086D01*
X201407978Y-63909084D01*
X201333415Y-63834521D01*
X201242088Y-63781793D01*
X201242084Y-63781792D01*
X201140229Y-63754500D01*
X201140227Y-63754500D01*
X201034773Y-63754500D01*
X201034770Y-63754500D01*
X200932915Y-63781792D01*
X200932911Y-63781793D01*
X200841584Y-63834521D01*
X200767021Y-63909084D01*
X200714293Y-64000411D01*
X200714292Y-64000415D01*
X200687000Y-64102270D01*
X197488000Y-64102270D01*
X197488000Y-62112271D01*
X203452000Y-62112271D01*
X203452000Y-62217730D01*
X203479292Y-62319585D01*
X203479293Y-62319589D01*
X203532021Y-62410916D01*
X203606584Y-62485479D01*
X203606586Y-62485480D01*
X203606587Y-62485481D01*
X203697913Y-62538208D01*
X203799773Y-62565501D01*
X203799775Y-62565501D01*
X203905225Y-62565501D01*
X203905227Y-62565501D01*
X204007087Y-62538208D01*
X204098413Y-62485481D01*
X204172980Y-62410914D01*
X204225707Y-62319588D01*
X204253000Y-62217728D01*
X204253000Y-62112274D01*
X204225707Y-62010414D01*
X204172980Y-61919088D01*
X204172979Y-61919087D01*
X204172978Y-61919085D01*
X204098415Y-61844522D01*
X204007088Y-61791794D01*
X204007084Y-61791793D01*
X203905229Y-61764501D01*
X203905227Y-61764501D01*
X203799773Y-61764501D01*
X203799770Y-61764501D01*
X203697915Y-61791793D01*
X203697911Y-61791794D01*
X203606584Y-61844522D01*
X203532021Y-61919085D01*
X203479293Y-62010412D01*
X203479292Y-62010416D01*
X203452000Y-62112271D01*
X197488000Y-62112271D01*
X197488000Y-60112271D01*
X198452000Y-60112271D01*
X198452000Y-60217730D01*
X198479292Y-60319585D01*
X198479293Y-60319589D01*
X198532021Y-60410916D01*
X198606584Y-60485479D01*
X198606586Y-60485480D01*
X198606587Y-60485481D01*
X198697913Y-60538208D01*
X198799773Y-60565501D01*
X198799775Y-60565501D01*
X198905225Y-60565501D01*
X198905227Y-60565501D01*
X199007087Y-60538208D01*
X199098413Y-60485481D01*
X199172980Y-60410914D01*
X199225707Y-60319588D01*
X199253000Y-60217728D01*
X199253000Y-60112274D01*
X199225707Y-60010414D01*
X199172980Y-59919088D01*
X199172979Y-59919087D01*
X199172978Y-59919085D01*
X199098415Y-59844522D01*
X199007088Y-59791794D01*
X199007084Y-59791793D01*
X198905229Y-59764501D01*
X198905227Y-59764501D01*
X198799773Y-59764501D01*
X198799770Y-59764501D01*
X198697915Y-59791793D01*
X198697911Y-59791794D01*
X198606584Y-59844522D01*
X198532021Y-59919085D01*
X198479293Y-60010412D01*
X198479292Y-60010416D01*
X198452000Y-60112271D01*
X197488000Y-60112271D01*
X197488000Y-59237222D01*
X197506482Y-59186442D01*
X197511139Y-59181361D01*
X199314361Y-57378139D01*
X199363337Y-57355301D01*
X199370222Y-57355000D01*
X200661415Y-57355000D01*
X200712195Y-57373482D01*
G37*
%TD.AperFunction*%
%TD*%
%TA.AperFunction,Conductor*%
%TO.N,/MCU/DEV_RELAY*%
G36*
X205419396Y-99553857D02*
G01*
X205425697Y-99560220D01*
X205426332Y-99562314D01*
X205470346Y-99778868D01*
X205468635Y-99787658D01*
X205468589Y-99787727D01*
X205342453Y-99975308D01*
X205334993Y-99980261D01*
X205328055Y-99979498D01*
X205070784Y-99866968D01*
X205064578Y-99860513D01*
X205063999Y-99858538D01*
X205035854Y-99717059D01*
X205037601Y-99708278D01*
X205042902Y-99703948D01*
X205410443Y-99553813D01*
X205419396Y-99553857D01*
G37*
%TD.AperFunction*%
%TD*%
%TA.AperFunction,Conductor*%
%TO.N,AGND_MCU*%
G36*
X203522888Y-57701822D02*
G01*
X203367500Y-58130388D01*
X203207500Y-58130388D01*
X203052112Y-57701822D01*
X203287500Y-57654000D01*
X203522888Y-57701822D01*
G37*
%TD.AperFunction*%
%TD*%
%TA.AperFunction,Conductor*%
%TO.N,AGND_MCU*%
G36*
X203522888Y-64108178D02*
G01*
X203287500Y-64156000D01*
X203052112Y-64108178D01*
X203207500Y-63679612D01*
X203367500Y-63679612D01*
X203522888Y-64108178D01*
G37*
%TD.AperFunction*%
%TD*%
%TA.AperFunction,Conductor*%
%TO.N,AGND_MCU*%
G36*
X203522888Y-64201822D02*
G01*
X203367500Y-64630388D01*
X203207500Y-64630388D01*
X203052112Y-64201822D01*
X203287500Y-64154000D01*
X203522888Y-64201822D01*
G37*
%TD.AperFunction*%
%TD*%
M02*
