%TF.GenerationSoftware,KiCad,Pcbnew,9.0.2*%
%TF.CreationDate,2025-06-26T21:54:26+07:00*%
%TF.ProjectId,HW.ACIM-MCU-ADAP,48572e41-4349-44d2-9d4d-43552d414441,0.1*%
%TF.SameCoordinates,Original*%
%TF.FileFunction,Soldermask,Top*%
%TF.FilePolarity,Negative*%
%FSLAX46Y46*%
G04 Gerber Fmt 4.6, Leading zero omitted, Abs format (unit mm)*
G04 Created by KiCad (PCBNEW 9.0.2) date 2025-06-26 21:54:26*
%MOMM*%
%LPD*%
G01*
G04 APERTURE LIST*
G04 Aperture macros list*
%AMRoundRect*
0 Rectangle with rounded corners*
0 $1 Rounding radius*
0 $2 $3 $4 $5 $6 $7 $8 $9 X,Y pos of 4 corners*
0 Add a 4 corners polygon primitive as box body*
4,1,4,$2,$3,$4,$5,$6,$7,$8,$9,$2,$3,0*
0 Add four circle primitives for the rounded corners*
1,1,$1+$1,$2,$3*
1,1,$1+$1,$4,$5*
1,1,$1+$1,$6,$7*
1,1,$1+$1,$8,$9*
0 Add four rect primitives between the rounded corners*
20,1,$1+$1,$2,$3,$4,$5,0*
20,1,$1+$1,$4,$5,$6,$7,0*
20,1,$1+$1,$6,$7,$8,$9,0*
20,1,$1+$1,$8,$9,$2,$3,0*%
%AMRotRect*
0 Rectangle, with rotation*
0 The origin of the aperture is its center*
0 $1 length*
0 $2 width*
0 $3 Rotation angle, in degrees counterclockwise*
0 Add horizontal line*
21,1,$1,$2,0,0,$3*%
G04 Aperture macros list end*
%ADD10C,0.700000*%
%ADD11RoundRect,0.130000X-0.370000X0.195000X-0.370000X-0.195000X0.370000X-0.195000X0.370000X0.195000X0*%
%ADD12C,1.000000*%
%ADD13R,0.900000X0.800000*%
%ADD14R,0.500000X0.600000*%
%ADD15R,0.650000X1.000000*%
%ADD16R,0.600000X0.500000*%
%ADD17RoundRect,0.130000X0.370000X-0.195000X0.370000X0.195000X-0.370000X0.195000X-0.370000X-0.195000X0*%
%ADD18RotRect,0.500000X0.600000X315.000000*%
%ADD19RotRect,0.500000X0.600000X225.000000*%
%ADD20RoundRect,0.150000X-0.424257X0.424271X-0.424271X0.424257X0.424257X-0.424271X0.424271X-0.424257X0*%
%ADD21RoundRect,0.150000X-0.424271X-0.424257X-0.424257X-0.424271X0.424271X0.424257X0.424257X0.424271X0*%
%ADD22RotRect,0.500000X0.600000X45.000000*%
%ADD23R,0.900000X1.700000*%
%ADD24RotRect,0.500000X0.600000X135.000000*%
%ADD25RoundRect,0.450000X-0.450000X-0.450000X0.450000X-0.450000X0.450000X0.450000X-0.450000X0.450000X0*%
%ADD26RoundRect,0.225000X-0.525000X-0.675000X0.525000X-0.675000X0.525000X0.675000X-0.525000X0.675000X0*%
%ADD27R,1.800000X0.600000*%
%ADD28C,5.000000*%
%ADD29R,1.000000X0.650000*%
%ADD30R,1.200000X1.800000*%
%ADD31R,0.600000X1.550000*%
%ADD32R,0.800000X0.800000*%
%ADD33RoundRect,0.225000X-0.406586X0.088388X0.088388X-0.406586X0.406586X-0.088388X-0.088388X0.406586X0*%
%ADD34R,1.100000X0.600000*%
%ADD35C,4.200000*%
%ADD36C,1.600000*%
G04 APERTURE END LIST*
D10*
X215337500Y-83405000D02*
X231437500Y-83405000D01*
X246506232Y-60412287D02*
X264156232Y-60412287D01*
X264156232Y-60412287D02*
X264156232Y-45512287D01*
X214737500Y-56105000D02*
X214737500Y-82805000D01*
X246506232Y-60412287D02*
X246506232Y-47762287D01*
X251997500Y-52955000D02*
X251997500Y-60412287D01*
X259147500Y-51905000D02*
X259147500Y-45505000D01*
X251997500Y-52955000D02*
X254447500Y-50505000D01*
X215337500Y-83405000D02*
G75*
G02*
X214737500Y-82805000I0J600000D01*
G01*
X258097500Y-52955000D02*
X259147500Y-51905000D01*
X254447500Y-50505000D02*
X254447500Y-45505000D01*
X258097500Y-52955000D02*
X258097500Y-60412287D01*
D11*
%TO.C,R30*%
X247697500Y-56679999D03*
X247697500Y-55230001D03*
%TD*%
D12*
%TO.C,TP2*%
X198352500Y-62665002D03*
%TD*%
D13*
%TO.C,D2*%
X226287500Y-73005000D03*
X226285311Y-74905715D03*
X228487499Y-73955000D03*
%TD*%
D14*
%TO.C,C29*%
X201637500Y-106480000D03*
X202537500Y-106480000D03*
%TD*%
D15*
%TO.C,FT5*%
X207997499Y-80404998D03*
X206547501Y-80404998D03*
%TD*%
D16*
%TO.C,R20*%
X205337500Y-72520000D03*
X205337500Y-71620000D03*
%TD*%
D17*
%TO.C,R27*%
X250697500Y-55230001D03*
X250697500Y-56679999D03*
%TD*%
D14*
%TO.C,R102*%
X208287500Y-110580000D03*
X207387500Y-110580000D03*
%TD*%
D18*
%TO.C,C127*%
X206123463Y-91736625D03*
X206759859Y-92373021D03*
%TD*%
D19*
%TO.C,C122*%
X218324430Y-90179519D03*
X217688034Y-90815915D03*
%TD*%
D12*
%TO.C,TP3*%
X198602500Y-69315002D03*
%TD*%
D15*
%TO.C,C17*%
X222937499Y-80105000D03*
X221487501Y-80105000D03*
%TD*%
%TO.C,C18*%
X222937500Y-81705000D03*
X221487502Y-81705000D03*
%TD*%
D14*
%TO.C,R37*%
X206587500Y-60790000D03*
X207487500Y-60790000D03*
%TD*%
%TO.C,C19*%
X207997499Y-78904999D03*
X207097499Y-78904999D03*
%TD*%
D18*
%TO.C,FT10*%
X202973463Y-91986625D03*
X203609859Y-92623021D03*
%TD*%
D20*
%TO.C,U101*%
X211623642Y-90872843D03*
X211270088Y-91226396D03*
X210916535Y-91579950D03*
X210562982Y-91933503D03*
X210209428Y-92287056D03*
X209855875Y-92640610D03*
X209502321Y-92994163D03*
X209148768Y-93347717D03*
X208795215Y-93701270D03*
X208441661Y-94054823D03*
X208088108Y-94408377D03*
X207734554Y-94761930D03*
X207381001Y-95115484D03*
X207027448Y-95469037D03*
X206673894Y-95822590D03*
X206320341Y-96176144D03*
D21*
X206320341Y-98933860D03*
X206673894Y-99287414D03*
X207027448Y-99640967D03*
X207381001Y-99994520D03*
X207734554Y-100348074D03*
X208088108Y-100701627D03*
X208441661Y-101055181D03*
X208795215Y-101408734D03*
X209148768Y-101762287D03*
X209502321Y-102115841D03*
X209855875Y-102469394D03*
X210209428Y-102822948D03*
X210562982Y-103176501D03*
X210916535Y-103530054D03*
X211270088Y-103883608D03*
X211623642Y-104237161D03*
D20*
X214381358Y-104237161D03*
X214734912Y-103883608D03*
X215088465Y-103530054D03*
X215442018Y-103176501D03*
X215795572Y-102822948D03*
X216149125Y-102469394D03*
X216502679Y-102115841D03*
X216856232Y-101762287D03*
X217209785Y-101408734D03*
X217563339Y-101055181D03*
X217916892Y-100701627D03*
X218270446Y-100348074D03*
X218623999Y-99994520D03*
X218977552Y-99640967D03*
X219331106Y-99287414D03*
X219684659Y-98933860D03*
D21*
X219684659Y-96176144D03*
X219331106Y-95822590D03*
X218977552Y-95469037D03*
X218623999Y-95115484D03*
X218270446Y-94761930D03*
X217916892Y-94408377D03*
X217563339Y-94054823D03*
X217209785Y-93701270D03*
X216856232Y-93347717D03*
X216502679Y-92994163D03*
X216149125Y-92640610D03*
X215795572Y-92287056D03*
X215442018Y-91933503D03*
X215088465Y-91579950D03*
X214734912Y-91226396D03*
X214381358Y-90872843D03*
%TD*%
D16*
%TO.C,C110*%
X213852069Y-107312287D03*
X213852069Y-106412287D03*
%TD*%
%TO.C,R17*%
X205337500Y-67290000D03*
X205337500Y-68190000D03*
%TD*%
D22*
%TO.C,C24*%
X208383871Y-105630485D03*
X209020267Y-104994089D03*
%TD*%
%TO.C,C113*%
X203859250Y-101109165D03*
X204495646Y-100472769D03*
%TD*%
D23*
%TO.C,C10*%
X250697500Y-53455000D03*
X247697500Y-53455000D03*
%TD*%
D18*
%TO.C,FT6*%
X201273463Y-93686625D03*
X201909859Y-94323021D03*
%TD*%
D24*
%TO.C,C26*%
X204209859Y-94923021D03*
X203573463Y-94286625D03*
%TD*%
D14*
%TO.C,C13*%
X201537500Y-75655000D03*
X200637500Y-75655000D03*
%TD*%
D15*
%TO.C,C67*%
X223462500Y-62555000D03*
X224912500Y-62555000D03*
%TD*%
D14*
%TO.C,R16*%
X206587500Y-72520000D03*
X207487500Y-72520000D03*
%TD*%
D25*
%TO.C,MD1*%
X210927500Y-81905000D03*
D26*
X213467499Y-81905000D03*
X216007501Y-81905000D03*
X218547500Y-81905000D03*
%TD*%
D18*
%TO.C,FT12*%
X199573463Y-95386625D03*
X200209859Y-96023021D03*
%TD*%
D24*
%TO.C,C22*%
X202509859Y-96623021D03*
X201873463Y-95986625D03*
%TD*%
D13*
%TO.C,U5*%
X224337500Y-80155000D03*
X224335311Y-82055715D03*
X226537499Y-81105000D03*
%TD*%
D15*
%TO.C,R10*%
X223462500Y-65855000D03*
X224912500Y-65855000D03*
%TD*%
D27*
%TO.C,U15*%
X220187500Y-62059999D03*
X220187500Y-60790000D03*
X220187500Y-59520000D03*
X220187500Y-58250001D03*
X209287500Y-58250001D03*
X209287500Y-59520000D03*
X209287500Y-60790000D03*
X209287500Y-62059999D03*
%TD*%
D28*
%TO.C,SH5*%
X275772299Y-58646856D03*
%TD*%
D14*
%TO.C,R41*%
X200487500Y-57655000D03*
X199587500Y-57655000D03*
%TD*%
D24*
%TO.C,C21*%
X203359859Y-95773021D03*
X202723463Y-95136625D03*
%TD*%
D22*
%TO.C,C120*%
X221188034Y-106680485D03*
X221824430Y-106044089D03*
%TD*%
D14*
%TO.C,C15*%
X202587500Y-70655000D03*
X201687500Y-70655000D03*
%TD*%
D11*
%TO.C,R7*%
X259997500Y-59379999D03*
X259997500Y-57930001D03*
%TD*%
D23*
%TO.C,C1*%
X256797500Y-53455000D03*
X253797500Y-53455000D03*
%TD*%
D12*
%TO.C,TP8*%
X230437499Y-73955000D03*
%TD*%
D29*
%TO.C,C3*%
X222037500Y-65930001D03*
X222037500Y-67379999D03*
%TD*%
D24*
%TO.C,R103*%
X208709859Y-90423021D03*
X208073463Y-89786625D03*
%TD*%
D29*
%TO.C,C4*%
X222037500Y-72430001D03*
X222037500Y-73879999D03*
%TD*%
D16*
%TO.C,C23*%
X212656232Y-106412287D03*
X212656232Y-107312287D03*
%TD*%
D29*
%TO.C,C16*%
X228087500Y-80380001D03*
X228087500Y-81829999D03*
%TD*%
D16*
%TO.C,R40*%
X205337500Y-59520000D03*
X205337500Y-58620000D03*
%TD*%
D11*
%TO.C,R29*%
X247697500Y-59379999D03*
X247697500Y-57930001D03*
%TD*%
D30*
%TO.C,J5*%
X200287500Y-112055000D03*
X205887500Y-112055000D03*
D31*
X201587500Y-108180000D03*
X202587500Y-108180000D03*
X203587500Y-108180000D03*
X204587500Y-108180000D03*
%TD*%
D22*
%TO.C,FT9*%
X209233871Y-106480485D03*
X209870267Y-105844089D03*
%TD*%
D16*
%TO.C,C71*%
X204037500Y-59705000D03*
X204037500Y-60605000D03*
%TD*%
D28*
%TO.C,SH8*%
X242522702Y-58646855D03*
%TD*%
D17*
%TO.C,R6*%
X262947500Y-57930001D03*
X262947500Y-59379999D03*
%TD*%
D22*
%TO.C,C126*%
X207184123Y-104434039D03*
X207820519Y-103797643D03*
%TD*%
D16*
%TO.C,C11*%
X204037500Y-72705000D03*
X204037500Y-73605000D03*
%TD*%
D14*
%TO.C,R13*%
X206587500Y-67290000D03*
X207487500Y-67290000D03*
%TD*%
D11*
%TO.C,R8*%
X259997500Y-56679999D03*
X259997500Y-55230001D03*
%TD*%
D14*
%TO.C,C20*%
X207097500Y-81905000D03*
X207997500Y-81905000D03*
%TD*%
D15*
%TO.C,C6*%
X223462500Y-75555000D03*
X224912500Y-75555000D03*
%TD*%
D12*
%TO.C,TP102*%
X227152500Y-89935002D03*
%TD*%
D17*
%TO.C,R28*%
X250697500Y-57930001D03*
X250697500Y-59379999D03*
%TD*%
D16*
%TO.C,R19*%
X205337500Y-66020000D03*
X205337500Y-65120000D03*
%TD*%
D12*
%TO.C,TP1*%
X204460290Y-91271980D03*
%TD*%
D29*
%TO.C,FT1*%
X252097500Y-49730001D03*
X252097500Y-51179999D03*
%TD*%
D18*
%TO.C,FT11*%
X202123463Y-92836625D03*
X202759859Y-93473021D03*
%TD*%
D12*
%TO.C,TP7*%
X230387499Y-67455000D03*
%TD*%
D15*
%TO.C,R11*%
X223462500Y-73955000D03*
X224912500Y-73955000D03*
%TD*%
D14*
%TO.C,C73*%
X201537500Y-62655000D03*
X200637500Y-62655000D03*
%TD*%
D24*
%TO.C,C119*%
X218274430Y-106480485D03*
X217638034Y-105844089D03*
%TD*%
D14*
%TO.C,C8*%
X207487500Y-75059999D03*
X206587500Y-75059999D03*
%TD*%
D32*
%TO.C,D101*%
X212837500Y-108630000D03*
X212837500Y-110130000D03*
%TD*%
D18*
%TO.C,FT7*%
X200423463Y-94536625D03*
X201059859Y-95173021D03*
%TD*%
D29*
%TO.C,FT4*%
X275597500Y-49730001D03*
X275597500Y-51179999D03*
%TD*%
D18*
%TO.C,C128*%
X205273463Y-92586625D03*
X205909859Y-93223021D03*
%TD*%
D23*
%TO.C,C2*%
X262947500Y-53455000D03*
X259947500Y-53455000D03*
%TD*%
D11*
%TO.C,R3*%
X253797500Y-59379999D03*
X253797500Y-57930001D03*
%TD*%
D14*
%TO.C,R38*%
X206587500Y-59520000D03*
X207487500Y-59520000D03*
%TD*%
%TO.C,R21*%
X200487500Y-64155000D03*
X199587500Y-64155000D03*
%TD*%
D12*
%TO.C,TP5*%
X228087500Y-78455000D03*
%TD*%
D14*
%TO.C,C12*%
X201537500Y-69155000D03*
X200637500Y-69155000D03*
%TD*%
D29*
%TO.C,C65*%
X222037500Y-59430001D03*
X222037500Y-60879999D03*
%TD*%
D13*
%TO.C,D14*%
X226287500Y-60005000D03*
X226285311Y-61905715D03*
X228487499Y-60955000D03*
%TD*%
D14*
%TO.C,C14*%
X202587500Y-64155000D03*
X201687500Y-64155000D03*
%TD*%
D12*
%TO.C,TP6*%
X230387499Y-60955000D03*
%TD*%
D33*
%TO.C,U102*%
X218492539Y-104388543D03*
X219729976Y-105625980D03*
X220719925Y-104636031D03*
X219482488Y-103398594D03*
%TD*%
D16*
%TO.C,FT8*%
X211456232Y-106412287D03*
X211456232Y-107312287D03*
%TD*%
D19*
%TO.C,FT13*%
X203645646Y-99622769D03*
X203009250Y-100259165D03*
%TD*%
D12*
%TO.C,TP103*%
X202159250Y-101909165D03*
%TD*%
D16*
%TO.C,R101*%
X216256232Y-108412287D03*
X216256232Y-109312287D03*
%TD*%
D27*
%TO.C,U2*%
X220187500Y-75059999D03*
X220187500Y-73790000D03*
X220187500Y-72520000D03*
X220187500Y-71250001D03*
X209287500Y-71250001D03*
X209287500Y-72520000D03*
X209287500Y-73790000D03*
X209287500Y-75059999D03*
%TD*%
D14*
%TO.C,R24*%
X207387500Y-109380000D03*
X208287500Y-109380000D03*
%TD*%
D15*
%TO.C,R34*%
X223462501Y-59355000D03*
X224912499Y-59355000D03*
%TD*%
D22*
%TO.C,C125*%
X206334123Y-103584039D03*
X206970519Y-102947643D03*
%TD*%
D16*
%TO.C,C9*%
X204037500Y-66205000D03*
X204037500Y-67105000D03*
%TD*%
D17*
%TO.C,R1*%
X256797500Y-55230001D03*
X256797500Y-56679999D03*
%TD*%
D16*
%TO.C,C124*%
X216256232Y-107312287D03*
X216256232Y-106412287D03*
%TD*%
D29*
%TO.C,FT3*%
X261497500Y-49730001D03*
X261497500Y-51179999D03*
%TD*%
D11*
%TO.C,R4*%
X253797500Y-56679999D03*
X253797500Y-55230001D03*
%TD*%
D18*
%TO.C,C101*%
X207223463Y-90636625D03*
X207859859Y-91273021D03*
%TD*%
D16*
%TO.C,R18*%
X205337500Y-73790000D03*
X205337500Y-74690000D03*
%TD*%
D12*
%TO.C,TP4*%
X275597500Y-52955000D03*
%TD*%
D14*
%TO.C,C69*%
X207487500Y-62059999D03*
X206587500Y-62059999D03*
%TD*%
D24*
%TO.C,C25*%
X205059859Y-94073021D03*
X204423463Y-93436625D03*
%TD*%
D14*
%TO.C,R15*%
X206587500Y-73790000D03*
X207487500Y-73790000D03*
%TD*%
D24*
%TO.C,C27*%
X201659859Y-97473021D03*
X201023463Y-96836625D03*
%TD*%
D15*
%TO.C,R33*%
X223462500Y-60955000D03*
X224912500Y-60955000D03*
%TD*%
D17*
%TO.C,R5*%
X262947500Y-55230001D03*
X262947500Y-56679999D03*
%TD*%
D16*
%TO.C,C123*%
X215054150Y-107312287D03*
X215054150Y-106412287D03*
%TD*%
D14*
%TO.C,R22*%
X200487500Y-70655000D03*
X199587500Y-70655000D03*
%TD*%
D12*
%TO.C,TP101*%
X222852500Y-88665002D03*
%TD*%
D15*
%TO.C,C5*%
X223462500Y-69055000D03*
X224912500Y-69055000D03*
%TD*%
D32*
%TO.C,D102*%
X209637500Y-110130000D03*
X209637500Y-108630000D03*
%TD*%
D34*
%TO.C,U3*%
X202487500Y-67605000D03*
X202487499Y-66655000D03*
X202487500Y-65705000D03*
X199687500Y-65705000D03*
X199687500Y-67605000D03*
%TD*%
D14*
%TO.C,C7*%
X207487500Y-68559999D03*
X206587500Y-68559999D03*
%TD*%
D34*
%TO.C,U4*%
X202487500Y-74105000D03*
X202487499Y-73155000D03*
X202487500Y-72205000D03*
X199687500Y-72205000D03*
X199687500Y-74105000D03*
%TD*%
D15*
%TO.C,R9*%
X223462500Y-67455000D03*
X224912500Y-67455000D03*
%TD*%
D13*
%TO.C,D1*%
X226287500Y-66505000D03*
X226285311Y-68405715D03*
X228487499Y-67455000D03*
%TD*%
D17*
%TO.C,R2*%
X256797500Y-57930001D03*
X256797500Y-59379999D03*
%TD*%
D34*
%TO.C,U17*%
X202487500Y-61105000D03*
X202487499Y-60155000D03*
X202487500Y-59205000D03*
X199687500Y-59205000D03*
X199687500Y-61105000D03*
%TD*%
D29*
%TO.C,FT2*%
X256797500Y-49730001D03*
X256797500Y-51179999D03*
%TD*%
D35*
%TO.C,SH7*%
X229187500Y-111005000D03*
%TD*%
D14*
%TO.C,R23*%
X207387500Y-108180000D03*
X208287500Y-108180000D03*
%TD*%
%TO.C,R14*%
X206587500Y-66020000D03*
X207487500Y-66020000D03*
%TD*%
%TO.C,C74*%
X202587500Y-57655000D03*
X201687500Y-57655000D03*
%TD*%
D19*
%TO.C,C28*%
X202795646Y-98772769D03*
X202159250Y-99409165D03*
%TD*%
D15*
%TO.C,R12*%
X223462500Y-72355000D03*
X224912500Y-72355000D03*
%TD*%
D22*
%TO.C,C112*%
X204709250Y-101959165D03*
X205345646Y-101322769D03*
%TD*%
D12*
%TO.C,TP104*%
X199949125Y-99409165D03*
%TD*%
D19*
%TO.C,C121*%
X219174430Y-91029519D03*
X218538034Y-91665915D03*
%TD*%
D27*
%TO.C,U1*%
X220187500Y-68559999D03*
X220187500Y-67290000D03*
X220187500Y-66020000D03*
X220187500Y-64750001D03*
X209287500Y-64750001D03*
X209287500Y-66020000D03*
X209287500Y-67290000D03*
X209287500Y-68559999D03*
%TD*%
D16*
%TO.C,R39*%
X205337500Y-60790000D03*
X205337500Y-61690000D03*
%TD*%
D36*
%TO.C,J3*%
X261497500Y-47955000D03*
%TD*%
%TO.C,J2*%
X256797500Y-47955000D03*
%TD*%
%TO.C,J1*%
X252097500Y-47955000D03*
%TD*%
%TO.C,J4*%
X275597500Y-47955000D03*
%TD*%
M02*
