%TF.GenerationSoftware,KiCad,Pcbnew,8.0.6*%
%TF.CreationDate,2024-11-10T20:51:06+07:00*%
%TF.ProjectId,HW.ACIM-MCU-32MK,48572e41-4349-44d2-9d4d-43552d33324d,0.1*%
%TF.SameCoordinates,Original*%
%TF.FileFunction,Copper,L4,Bot*%
%TF.FilePolarity,Positive*%
%FSLAX46Y46*%
G04 Gerber Fmt 4.6, Leading zero omitted, Abs format (unit mm)*
G04 Created by KiCad (PCBNEW 8.0.6) date 2024-11-10 20:51:06*
%MOMM*%
%LPD*%
G01*
G04 APERTURE LIST*
G04 Aperture macros list*
%AMRotRect*
0 Rectangle, with rotation*
0 The origin of the aperture is its center*
0 $1 length*
0 $2 width*
0 $3 Rotation angle, in degrees counterclockwise*
0 Add horizontal line*
21,1,$1,$2,0,0,$3*%
G04 Aperture macros list end*
%TA.AperFunction,SMDPad,CuDef*%
%ADD10RotRect,0.500000X0.600000X135.000000*%
%TD*%
%TA.AperFunction,SMDPad,CuDef*%
%ADD11R,2.700000X0.760000*%
%TD*%
%TA.AperFunction,ViaPad*%
%ADD12C,0.450000*%
%TD*%
%TA.AperFunction,Conductor*%
%ADD13C,0.760000*%
%TD*%
%TA.AperFunction,Conductor*%
%ADD14C,0.160000*%
%TD*%
%TA.AperFunction,Conductor*%
%ADD15C,0.300000*%
%TD*%
%TA.AperFunction,Conductor*%
%ADD16C,0.500000*%
%TD*%
G04 APERTURE END LIST*
D10*
%TO.P,C23,1,1*%
%TO.N,GND*%
X106105877Y-109834037D03*
%TO.P,C23,2,2*%
%TO.N,+3V3*%
X105469481Y-109197641D03*
%TD*%
D11*
%TO.P,J1,1,1*%
%TO.N,AGND*%
X86187500Y-111545000D03*
%TO.P,J1,2,2*%
X90487500Y-111545000D03*
%TO.P,J1,3,3*%
%TO.N,AVDD*%
X86187500Y-110275000D03*
%TO.P,J1,4,4*%
X90487500Y-110275000D03*
%TO.P,J1,5,5*%
%TO.N,GND*%
X86187500Y-109005000D03*
%TO.P,J1,6,6*%
X90487500Y-109005000D03*
%TO.P,J1,7,7*%
%TO.N,/IO1*%
X86187500Y-107735000D03*
%TO.P,J1,8,8*%
%TO.N,/IO2*%
X90487500Y-107735000D03*
%TO.P,J1,9,9*%
%TO.N,/PWR_RELAY*%
X86187500Y-106465000D03*
%TO.P,J1,10,10*%
%TO.N,/DEV_RELAY*%
X90487500Y-106465000D03*
%TO.P,J1,11,11*%
%TO.N,/SCL*%
X86187500Y-105195000D03*
%TO.P,J1,12,12*%
%TO.N,/SDA*%
X90487500Y-105195000D03*
%TO.P,J1,13,13*%
%TO.N,/~{CS}*%
X86187500Y-103925000D03*
%TO.P,J1,14,14*%
%TO.N,/SDO*%
X90487500Y-103925000D03*
%TO.P,J1,15,15*%
%TO.N,/SCK*%
X86187500Y-102655000D03*
%TO.P,J1,16,16*%
%TO.N,/SDI*%
X90487500Y-102655000D03*
%TO.P,J1,17,17*%
%TO.N,/PFC_PWM_ENB*%
X86187500Y-101385000D03*
%TO.P,J1,18,18*%
%TO.N,/PFC_PWM_B*%
X90487500Y-101385000D03*
%TO.P,J1,19,19*%
%TO.N,/PFC_PWM_ENA*%
X86187500Y-100115000D03*
%TO.P,J1,20,20*%
%TO.N,/PFC_PWM_A*%
X90487500Y-100115000D03*
%TO.P,J1,21,21*%
%TO.N,/VAC_DIV*%
X86187500Y-98845000D03*
%TO.P,J1,22,22*%
%TO.N,/~{PFC_FLT}*%
X90487500Y-98845000D03*
%TO.P,J1,23,23*%
%TO.N,/VDC_DIV*%
X86187500Y-97575000D03*
%TO.P,J1,24,24*%
%TO.N,/PFC_IB_SEN*%
X90487500Y-97575000D03*
%TO.P,J1,25,25*%
%TO.N,/IDC_SEN*%
X86187500Y-96305000D03*
%TO.P,J1,26,26*%
%TO.N,/PFC_IA_SEN*%
X90487500Y-96305000D03*
%TO.P,J1,27,27*%
%TO.N,/ENC_HOME*%
X86187500Y-95035000D03*
%TO.P,J1,28,28*%
%TO.N,/ENC_A*%
X90487500Y-95035000D03*
%TO.P,J1,29,29*%
%TO.N,/ENC_IDX*%
X86187500Y-93765000D03*
%TO.P,J1,30,30*%
%TO.N,/ENC_B*%
X90487500Y-93765000D03*
%TD*%
%TO.P,J2,1,1*%
%TO.N,/VBUS*%
X110187500Y-111545000D03*
%TO.P,J2,2,2*%
%TO.N,/PGD*%
X114487500Y-111545000D03*
%TO.P,J2,3,3*%
%TO.N,/USB_N*%
X110187500Y-110275000D03*
%TO.P,J2,4,4*%
%TO.N,/PGC*%
X114487500Y-110275000D03*
%TO.P,J2,5,5*%
%TO.N,/USB_P*%
X110187500Y-109005000D03*
%TO.P,J2,6,6*%
%TO.N,/~{MCLR}*%
X114487500Y-109005000D03*
%TO.P,J2,7,7*%
%TO.N,/DB_RXD*%
X110187500Y-107735000D03*
%TO.P,J2,8,8*%
%TO.N,/DB_TXD*%
X114487500Y-107735000D03*
%TO.P,J2,9,9*%
%TO.N,/DV_RXD*%
X110187500Y-106465000D03*
%TO.P,J2,10,10*%
%TO.N,/DV_TXD*%
X114487500Y-106465000D03*
%TO.P,J2,11,11*%
%TO.N,/DV_RTS*%
X110187500Y-105195000D03*
%TO.P,J2,12,12*%
%TO.N,/DV_CTS*%
X114487500Y-105195000D03*
%TO.P,J2,13,13*%
%TO.N,/~{INV_FLT}*%
X110187500Y-103925000D03*
%TO.P,J2,14,14*%
%TO.N,/~{BUTTON}*%
X114487500Y-103925000D03*
%TO.P,J2,15,15*%
%TO.N,/MC_PWM_WH*%
X110187500Y-102655000D03*
%TO.P,J2,16,16*%
%TO.N,/MC_PWM_WL*%
X114487500Y-102655000D03*
%TO.P,J2,17,17*%
%TO.N,/MC_PWM_VH*%
X110187500Y-101385000D03*
%TO.P,J2,18,18*%
%TO.N,/MC_PWM_VL*%
X114487500Y-101385000D03*
%TO.P,J2,19,19*%
%TO.N,/MC_PWM_UH*%
X110187500Y-100115000D03*
%TO.P,J2,20,20*%
%TO.N,/MC_PWM_UL*%
X114487500Y-100115000D03*
%TO.P,J2,21,21*%
%TO.N,/MC_TEMP_SEN*%
X110187500Y-98845000D03*
%TO.P,J2,22,22*%
%TO.N,/MC_VR_DIV*%
X114487500Y-98845000D03*
%TO.P,J2,23,23*%
%TO.N,/MC_VU_DIV*%
X110187500Y-97575000D03*
%TO.P,J2,24,24*%
%TO.N,/MC_IU_SEN*%
X114487500Y-97575000D03*
%TO.P,J2,25,25*%
%TO.N,/MC_VV_DIV*%
X110187500Y-96305000D03*
%TO.P,J2,26,26*%
%TO.N,/MC_IV_SEN*%
X114487500Y-96305000D03*
%TO.P,J2,27,27*%
%TO.N,+3V3*%
X110187500Y-95035000D03*
%TO.P,J2,28,28*%
X114487500Y-95035000D03*
%TO.P,J2,29,29*%
%TO.N,GND*%
X110187500Y-93765000D03*
%TO.P,J2,30,30*%
X114487500Y-93765000D03*
%TD*%
D10*
%TO.P,C24,1,1*%
%TO.N,GND*%
X105255877Y-110684037D03*
%TO.P,C24,2,2*%
%TO.N,+3V3*%
X104619481Y-110047641D03*
%TD*%
%TO.P,C10,1,1*%
%TO.N,GND*%
X104405877Y-111534037D03*
%TO.P,C10,2,2*%
%TO.N,+3V3*%
X103769481Y-110897641D03*
%TD*%
D12*
%TO.N,GND*%
X108380215Y-110551268D03*
X97380215Y-99551268D03*
X101237500Y-95105000D03*
X88337500Y-103925000D03*
X107737500Y-102705000D03*
X112336793Y-98845707D03*
X88337500Y-109005000D03*
X99437500Y-95105000D03*
X92437500Y-96605000D03*
X102898181Y-105155386D03*
X94137500Y-98305000D03*
X99337500Y-98955000D03*
X100337500Y-93405000D03*
X88337500Y-97575000D03*
X90487500Y-109005000D03*
X88337500Y-106465000D03*
X88337500Y-93765000D03*
X114487500Y-93765000D03*
X97337500Y-93405000D03*
X88337500Y-95035000D03*
X110187500Y-93765000D03*
X112337500Y-100405000D03*
X112338207Y-105245707D03*
X112338207Y-96285000D03*
X96630215Y-101551268D03*
X102337500Y-101955000D03*
X112338207Y-107735707D03*
X100337500Y-103955000D03*
X94337500Y-93405000D03*
X97337500Y-111955000D03*
X112337500Y-106465000D03*
X88337500Y-105195000D03*
X103337500Y-93405000D03*
X103337500Y-111955000D03*
X112337500Y-97585000D03*
X106337500Y-93405000D03*
X88337500Y-107735000D03*
X100337500Y-109955000D03*
X100337500Y-111955000D03*
X112337500Y-93765000D03*
X86187500Y-109005000D03*
X88337500Y-98845000D03*
%TO.N,/VAC_DIV*%
X86187500Y-98845000D03*
%TO.N,AGND*%
X92912448Y-110275707D03*
X92912448Y-108690965D03*
%TO.N,/VBUS*%
X101069912Y-107983606D03*
X110187500Y-111545000D03*
%TO.N,+3V3*%
X112338207Y-95035000D03*
X104484125Y-108569392D03*
X114487500Y-95035000D03*
X103423465Y-109630052D03*
X110187500Y-95035000D03*
%TO.N,AVDD*%
X90487500Y-110275000D03*
X93462448Y-106440965D03*
%TO.N,/USB_P*%
X102130572Y-106672946D03*
%TO.N,/USB_N*%
X101527018Y-107276499D03*
%TO.N,/MC_VR_DIV*%
X97251535Y-109630052D03*
X114487500Y-98845000D03*
%TO.N,/VDC_DIV*%
X86187500Y-97575000D03*
%TO.N,/ENC_IDX*%
X96190875Y-96740608D03*
X86187500Y-93765000D03*
%TO.N,/~{INV_FLT}*%
X110187500Y-103925000D03*
%TO.N,/~{PFC_FLT}*%
X100208642Y-96372841D03*
%TO.N,/ENC_HOME*%
X86187500Y-95035000D03*
X95233768Y-97697715D03*
%TO.N,/PGD*%
X112237500Y-110275000D03*
%TO.N,/PFC_PWM_A*%
X99855088Y-97076394D03*
%TO.N,/MC_PWM_VL*%
X114487500Y-101385000D03*
%TO.N,/MC_PWM_UH*%
X110187500Y-100115000D03*
%TO.N,/SCK*%
X86187500Y-102655000D03*
X103777018Y-96033501D03*
%TO.N,/PGC*%
X114487500Y-110275000D03*
%TO.N,/MC_PWM_VH*%
X110187500Y-101385000D03*
%TO.N,/ENC_B*%
X98544428Y-98387054D03*
X90487500Y-93765000D03*
%TO.N,/MC_PWM_UL*%
X114487500Y-100115000D03*
%TO.N,/SDI*%
X88737500Y-102655000D03*
X102130572Y-98387054D03*
%TO.N,/PFC_PWM_ENA*%
X86187500Y-100115000D03*
X96319554Y-100611928D03*
%TO.N,/ENC_A*%
X96897982Y-96033501D03*
X90487500Y-95035000D03*
%TO.N,/PWR_RELAY*%
X101423465Y-97679948D03*
%TO.N,/MC_PWM_WL*%
X114487500Y-102655000D03*
%TO.N,/PFC_PWM_ENB*%
X86187500Y-101385000D03*
X95716727Y-101216169D03*
%TO.N,/MC_PWM_WH*%
X110187500Y-102655000D03*
%TO.N,/IDC_SEN*%
X86187500Y-96305000D03*
%TO.N,/~{MCLR}*%
X114487500Y-109005000D03*
X103897474Y-105154679D03*
%TO.N,/PFC_PWM_B*%
X99251535Y-97679948D03*
%TO.N,/~{CS}*%
X100716358Y-96972841D03*
%TO.N,/PFC_IA_SEN*%
X90487500Y-96305000D03*
%TO.N,/PFC_IB_SEN*%
X90487500Y-97575000D03*
%TO.N,/MC_IU_SEN*%
X114487500Y-97575000D03*
X102116358Y-110587159D03*
%TO.N,/MC_TEMP_SEN*%
X110187500Y-98845000D03*
X108119659Y-100826142D03*
%TO.N,/MC_IV_SEN*%
X99605088Y-107983606D03*
X114487500Y-96305000D03*
%TO.N,/MC_VU_DIV*%
X94655341Y-102276142D03*
X110187500Y-97575000D03*
%TO.N,/MC_VV_DIV*%
X96776661Y-105155179D03*
X110187500Y-96305000D03*
%TO.N,/DEV_RELAY*%
X92579411Y-104550712D03*
X90487500Y-106465000D03*
%TO.N,/SDO*%
X103069912Y-95326394D03*
X90487500Y-103925000D03*
%TO.N,/IO2*%
X96173108Y-104551625D03*
X90487500Y-107735000D03*
%TO.N,/SCL*%
X86187500Y-105195000D03*
X99294428Y-105172946D03*
%TO.N,/IO1*%
X86187500Y-107735000D03*
X95130215Y-107508732D03*
%TO.N,/SDA*%
X98794428Y-105922946D03*
X90487500Y-105195000D03*
%TO.N,/DV_TXD*%
X114487500Y-106465000D03*
X104958999Y-104094518D03*
%TO.N,/DV_CTS*%
X96647982Y-109026499D03*
%TO.N,/DB_RXD*%
X110937500Y-107735000D03*
%TO.N,/DV_RTS*%
X97958642Y-110337159D03*
%TO.N,/DV_RXD*%
X110937500Y-106465000D03*
%TO.N,/DB_TXD*%
X114487500Y-107735000D03*
%TO.N,/~{BUTTON}*%
X114487500Y-103925000D03*
X104587679Y-96844161D03*
%TD*%
D13*
%TO.N,GND*%
X88337500Y-109005000D02*
X86187500Y-109005000D01*
X90487500Y-109005000D02*
X88337500Y-109005000D01*
D14*
%TO.N,AGND*%
X92912448Y-110275707D02*
X91936048Y-111252107D01*
X91228941Y-111545000D02*
X90487500Y-111545000D01*
X90486793Y-111545000D02*
X90487500Y-111545000D01*
X92912448Y-110275707D02*
X92912448Y-108690965D01*
X86187500Y-111545000D02*
X90486793Y-111545000D01*
X91228941Y-111545000D02*
G75*
G03*
X91936027Y-111252086I-41J1000000D01*
G01*
D15*
%TO.N,+3V3*%
X105469481Y-109197641D02*
X103769481Y-110897641D01*
D16*
X112338207Y-95035000D02*
X110187500Y-95035000D01*
D15*
X104987679Y-108715839D02*
X105469481Y-109197641D01*
X103423465Y-109630052D02*
X103423465Y-110344518D01*
D16*
X114487500Y-95035000D02*
X112338207Y-95035000D01*
D15*
X103569912Y-110698072D02*
X103769481Y-110897641D01*
X104484125Y-108569392D02*
X104634125Y-108569392D01*
X103423465Y-110344518D02*
G75*
G03*
X103569914Y-110698070I500035J18D01*
G01*
X104987679Y-108715839D02*
G75*
G03*
X104634125Y-108569377I-353579J-353561D01*
G01*
D14*
%TO.N,AVDD*%
X90487500Y-110275000D02*
X88717500Y-110275000D01*
X91796393Y-109982107D02*
X91972607Y-109805893D01*
X92265500Y-109098786D02*
X92265500Y-108052128D01*
X86187500Y-110275000D02*
X87975500Y-110275000D01*
X93042457Y-106860957D02*
X93462448Y-106440965D01*
X90487500Y-110275000D02*
X91089286Y-110275000D01*
X86187500Y-110275000D02*
X90487500Y-110275000D01*
X92558393Y-107345021D02*
X93042457Y-106860957D01*
X92265500Y-109098786D02*
G75*
G02*
X91972614Y-109805900I-1000000J-14D01*
G01*
X91089286Y-110275000D02*
G75*
G03*
X91796400Y-109982114I14J1000000D01*
G01*
X92265500Y-108052128D02*
G75*
G02*
X92558379Y-107345007I1000000J28D01*
G01*
%TO.N,/USB_P*%
X102130572Y-106843117D02*
X102130572Y-106672946D01*
X108535393Y-109480000D02*
X108385223Y-109480000D01*
X110187500Y-109005000D02*
X109424607Y-109005000D01*
X108031669Y-109333553D02*
X106200401Y-107502285D01*
X105846848Y-107355839D02*
X102643294Y-107355839D01*
X102289740Y-107209392D02*
X102277018Y-107196670D01*
X109071053Y-109151447D02*
X108888946Y-109333554D01*
X108385223Y-109480000D02*
G75*
G02*
X108031658Y-109333564I-23J500000D01*
G01*
X105846848Y-107355839D02*
G75*
G02*
X106200369Y-107502317I-48J-499961D01*
G01*
X108888946Y-109333554D02*
G75*
G02*
X108535393Y-109479995I-353546J353554D01*
G01*
X102643294Y-107355839D02*
G75*
G02*
X102289735Y-107209397I6J500039D01*
G01*
X109424607Y-109005000D02*
G75*
G03*
X109071050Y-109151444I-7J-500000D01*
G01*
X102277018Y-107196670D02*
G75*
G02*
X102130568Y-106843117I353582J353570D01*
G01*
%TO.N,/USB_N*%
X108535393Y-109800000D02*
X108252671Y-109800000D01*
X110187500Y-110275000D02*
X109424607Y-110275000D01*
X101697190Y-107276499D02*
X101527018Y-107276499D01*
X102157190Y-107529392D02*
X102050743Y-107422945D01*
X107899117Y-109653553D02*
X106067849Y-107822285D01*
X109071053Y-110128553D02*
X108888946Y-109946446D01*
X105714296Y-107675839D02*
X102510744Y-107675839D01*
X109071053Y-110128553D02*
G75*
G03*
X109424607Y-110274995I353547J353553D01*
G01*
X101697190Y-107276499D02*
G75*
G02*
X102050748Y-107422940I10J-500001D01*
G01*
X107899117Y-109653553D02*
G75*
G03*
X108252671Y-109800021I353583J353553D01*
G01*
X102510744Y-107675839D02*
G75*
G02*
X102157160Y-107529422I-44J500039D01*
G01*
X106067849Y-107822285D02*
G75*
G03*
X105714296Y-107675830I-353549J-353515D01*
G01*
X108888946Y-109946446D02*
G75*
G03*
X108535393Y-109800005I-353546J-353554D01*
G01*
%TO.N,/~{PFC_FLT}*%
X96067172Y-98845000D02*
X90487500Y-98845000D01*
X100208642Y-96372841D02*
X99367759Y-96372841D01*
X98660652Y-96665734D02*
X96774279Y-98552107D01*
X96774279Y-98552107D02*
G75*
G02*
X96067172Y-98844981I-707079J707107D01*
G01*
X99367759Y-96372841D02*
G75*
G03*
X98660681Y-96665763I41J-999959D01*
G01*
%TO.N,/PGD*%
X113507500Y-111545000D02*
X112237500Y-110275000D01*
X114487500Y-111545000D02*
X113507500Y-111545000D01*
%TO.N,/PFC_PWM_A*%
X98409647Y-97369287D02*
X95956827Y-99822107D01*
X95249720Y-100115000D02*
X90487500Y-100115000D01*
X99855088Y-97076394D02*
X99116754Y-97076394D01*
X98409647Y-97369287D02*
G75*
G02*
X99116754Y-97076363I707153J-707113D01*
G01*
X95249720Y-100115000D02*
G75*
G03*
X95956817Y-99822097I-20J1000000D01*
G01*
%TO.N,/SDI*%
X90487500Y-102655000D02*
X88737500Y-102655000D01*
%TO.N,/PWR_RELAY*%
X88216054Y-105830000D02*
X96937626Y-105830000D01*
X101423465Y-101344161D02*
X101423465Y-97679948D01*
X87166840Y-106465000D02*
X87508947Y-106122893D01*
X86187500Y-106465000D02*
X87166840Y-106465000D01*
X87166840Y-106465000D02*
X87575954Y-106055886D01*
X97644733Y-105537107D02*
X101130572Y-102051268D01*
X96937626Y-105830000D02*
G75*
G03*
X97644720Y-105537094I-26J1000000D01*
G01*
X88216054Y-105830000D02*
G75*
G03*
X87508970Y-106122916I46J-1000000D01*
G01*
X101423465Y-101344161D02*
G75*
G02*
X101130584Y-102051280I-999965J-39D01*
G01*
%TO.N,/PFC_PWM_B*%
X95139375Y-101092107D02*
X98258641Y-97972841D01*
X98965748Y-97679948D02*
X99251535Y-97679948D01*
X90487500Y-101385000D02*
X94432268Y-101385000D01*
X98258641Y-97972841D02*
G75*
G02*
X98965748Y-97679968I707059J-707059D01*
G01*
X95139375Y-101092107D02*
G75*
G02*
X94432268Y-101384978I-707075J707107D01*
G01*
%TO.N,/~{CS}*%
X96734733Y-102997107D02*
X100423465Y-99308375D01*
X86187500Y-103925000D02*
X86742626Y-103925000D01*
X88206054Y-103290000D02*
X96027626Y-103290000D01*
X100716358Y-98601268D02*
X100716358Y-96972841D01*
X87449733Y-103632107D02*
X87498947Y-103582893D01*
X100716358Y-98601268D02*
G75*
G02*
X100423472Y-99308382I-999958J-32D01*
G01*
X86742626Y-103925000D02*
G75*
G03*
X87449720Y-103632094I-26J1000000D01*
G01*
X87498947Y-103582893D02*
G75*
G02*
X88206054Y-103289967I707153J-707107D01*
G01*
X96027626Y-103290000D02*
G75*
G03*
X96734720Y-102997094I-26J1000000D01*
G01*
%TO.N,/DV_CTS*%
X113456991Y-105195000D02*
X112494428Y-104232437D01*
X112347982Y-103878884D02*
X112347982Y-103790000D01*
X114487500Y-105195000D02*
X113456991Y-105195000D01*
X111847982Y-103290000D02*
X102798695Y-103290000D01*
X102091588Y-103582893D02*
X96647982Y-109026499D01*
X112347982Y-103790000D02*
G75*
G03*
X111847982Y-103290018I-499982J0D01*
G01*
X102091588Y-103582893D02*
G75*
G02*
X102798695Y-103289996I707112J-707107D01*
G01*
X112494428Y-104232437D02*
G75*
G02*
X112347998Y-103878884I353572J353537D01*
G01*
%TO.N,/DV_RTS*%
X108862648Y-105419853D02*
X108809267Y-105473233D01*
X100920857Y-105620386D02*
X108455008Y-105620386D01*
X110187500Y-105195000D02*
X109294607Y-105195000D01*
X97958642Y-110337159D02*
X97958642Y-108582601D01*
X98251535Y-107875494D02*
X100213750Y-105913279D01*
X108941053Y-105341447D02*
X108862648Y-105419853D01*
X108808562Y-105473939D02*
X108862648Y-105419853D01*
X97958642Y-108582601D02*
G75*
G02*
X98251543Y-107875502I999958J1D01*
G01*
X109294607Y-105195000D02*
G75*
G03*
X108941050Y-105341444I-7J-500000D01*
G01*
X100920857Y-105620386D02*
G75*
G03*
X100213769Y-105913298I43J-1000014D01*
G01*
X108455008Y-105620386D02*
G75*
G03*
X108808555Y-105473932I-8J499986D01*
G01*
%TD*%
%TA.AperFunction,Conductor*%
%TO.N,GND*%
G36*
X114890980Y-92905775D02*
G01*
X115068166Y-92919719D01*
X115081948Y-92921903D01*
X115251359Y-92962575D01*
X115264640Y-92966891D01*
X115425583Y-93033555D01*
X115437934Y-93039838D01*
X115438294Y-93040058D01*
X115476251Y-93087656D01*
X115474732Y-93148517D01*
X115434448Y-93194162D01*
X115391885Y-93205000D01*
X115174778Y-93205000D01*
X114550432Y-93829346D01*
X114495257Y-93855074D01*
X114436452Y-93839317D01*
X114424568Y-93829346D01*
X113800221Y-93205000D01*
X114054780Y-93205000D01*
X114487500Y-93637720D01*
X114920220Y-93205000D01*
X114054780Y-93205000D01*
X113800221Y-93205000D01*
X113119769Y-93205000D01*
X113067266Y-93215444D01*
X113007731Y-93255225D01*
X113007725Y-93255231D01*
X112967944Y-93314766D01*
X112957500Y-93367269D01*
X112957500Y-94162730D01*
X112967944Y-94215233D01*
X113007725Y-94274768D01*
X113007731Y-94274774D01*
X113067266Y-94314555D01*
X113102450Y-94321554D01*
X113154496Y-94353137D01*
X113174066Y-94410785D01*
X113152001Y-94467526D01*
X113111985Y-94493682D01*
X113093420Y-94499568D01*
X113083891Y-94502019D01*
X113074877Y-94503812D01*
X113066785Y-94507164D01*
X113066593Y-94506701D01*
X113058189Y-94510740D01*
X113053846Y-94512117D01*
X112991223Y-94546394D01*
X112984656Y-94549644D01*
X112928567Y-94574587D01*
X112921212Y-94577474D01*
X112867327Y-94595909D01*
X112859246Y-94598254D01*
X112807226Y-94610712D01*
X112798566Y-94612337D01*
X112745176Y-94619643D01*
X112742841Y-94620362D01*
X112742170Y-94620568D01*
X112716011Y-94624500D01*
X111958820Y-94624500D01*
X111934149Y-94620362D01*
X111934079Y-94620659D01*
X111929826Y-94619644D01*
X111876433Y-94612337D01*
X111867774Y-94610712D01*
X111815752Y-94598254D01*
X111807671Y-94595910D01*
X111797341Y-94592376D01*
X111753763Y-94577467D01*
X111746419Y-94574584D01*
X111690338Y-94549642D01*
X111683779Y-94546396D01*
X111676749Y-94542549D01*
X111669174Y-94538403D01*
X111621150Y-94512116D01*
X111621151Y-94512116D01*
X111619469Y-94511582D01*
X111616818Y-94510742D01*
X111608412Y-94506701D01*
X111608220Y-94507166D01*
X111600122Y-94503812D01*
X111591104Y-94502018D01*
X111581575Y-94499567D01*
X111563013Y-94493682D01*
X111514773Y-94456544D01*
X111501691Y-94397087D01*
X111529888Y-94343131D01*
X111572549Y-94321554D01*
X111607732Y-94314555D01*
X111667268Y-94274774D01*
X111667274Y-94274768D01*
X111707055Y-94215233D01*
X111717499Y-94162730D01*
X111717500Y-94162722D01*
X111717500Y-93367277D01*
X111717499Y-93367269D01*
X111707055Y-93314766D01*
X111667274Y-93255231D01*
X111667268Y-93255225D01*
X111607733Y-93215444D01*
X111555230Y-93205000D01*
X110874778Y-93205000D01*
X110250432Y-93829346D01*
X110195257Y-93855074D01*
X110136452Y-93839317D01*
X110124568Y-93829346D01*
X109500221Y-93205000D01*
X109754780Y-93205000D01*
X110187500Y-93637720D01*
X110620220Y-93205000D01*
X109754780Y-93205000D01*
X109500221Y-93205000D01*
X108819769Y-93205000D01*
X108767266Y-93215444D01*
X108707731Y-93255225D01*
X108707725Y-93255231D01*
X108667944Y-93314766D01*
X108657500Y-93367269D01*
X108657500Y-94162730D01*
X108667944Y-94215233D01*
X108707725Y-94274768D01*
X108707731Y-94274774D01*
X108767267Y-94314556D01*
X108807962Y-94322650D01*
X108860010Y-94354231D01*
X108879580Y-94411880D01*
X108857516Y-94468620D01*
X108807966Y-94497229D01*
X108774882Y-94503810D01*
X108774873Y-94503814D01*
X108721789Y-94539283D01*
X108721783Y-94539289D01*
X108686314Y-94592373D01*
X108686312Y-94592378D01*
X108677000Y-94639189D01*
X108677000Y-95430810D01*
X108686312Y-95477621D01*
X108686314Y-95477626D01*
X108715855Y-95521838D01*
X108721786Y-95530714D01*
X108774876Y-95566187D01*
X108821694Y-95575500D01*
X111515223Y-95575500D01*
X111522372Y-95575787D01*
X111526647Y-95576132D01*
X111551616Y-95578145D01*
X111551616Y-95578144D01*
X111551619Y-95578145D01*
X111560405Y-95577145D01*
X111581581Y-95570429D01*
X111591093Y-95567983D01*
X111600124Y-95566187D01*
X111600125Y-95566186D01*
X111600126Y-95566186D01*
X111608224Y-95562831D01*
X111608417Y-95563298D01*
X111616833Y-95559251D01*
X111621155Y-95557881D01*
X111683791Y-95523593D01*
X111690349Y-95520348D01*
X111746428Y-95495408D01*
X111753759Y-95492531D01*
X111807691Y-95474080D01*
X111815726Y-95471748D01*
X111867791Y-95459280D01*
X111876419Y-95457661D01*
X111929821Y-95450355D01*
X111932156Y-95449637D01*
X111932820Y-95449433D01*
X111958984Y-95445500D01*
X112284164Y-95445500D01*
X112716184Y-95445500D01*
X112740852Y-95449637D01*
X112740923Y-95449340D01*
X112745173Y-95450353D01*
X112745178Y-95450355D01*
X112798574Y-95457660D01*
X112807212Y-95459281D01*
X112859264Y-95471747D01*
X112867311Y-95474082D01*
X112921229Y-95492528D01*
X112928575Y-95495412D01*
X112967872Y-95512887D01*
X112984643Y-95520346D01*
X112984648Y-95520348D01*
X112991219Y-95523601D01*
X113031278Y-95545529D01*
X113031313Y-95545548D01*
X113053843Y-95557880D01*
X113053849Y-95557883D01*
X113058164Y-95559251D01*
X113066581Y-95563298D01*
X113066775Y-95562831D01*
X113074874Y-95566186D01*
X113074876Y-95566187D01*
X113083889Y-95567979D01*
X113093419Y-95570430D01*
X113114593Y-95577145D01*
X113123378Y-95578145D01*
X113123378Y-95578144D01*
X113123379Y-95578145D01*
X113123380Y-95578145D01*
X113140558Y-95576760D01*
X113152625Y-95575787D01*
X113159774Y-95575500D01*
X115853302Y-95575500D01*
X115853306Y-95575500D01*
X115900124Y-95566187D01*
X115948556Y-95533826D01*
X116007688Y-95519357D01*
X116062289Y-95546283D01*
X116086808Y-95602007D01*
X116086999Y-95607828D01*
X116086999Y-95732171D01*
X116066177Y-95789379D01*
X116013454Y-95819819D01*
X115953499Y-95809247D01*
X115948554Y-95806172D01*
X115900126Y-95773814D01*
X115900121Y-95773812D01*
X115853310Y-95764500D01*
X115853306Y-95764500D01*
X113121694Y-95764500D01*
X113121689Y-95764500D01*
X113074878Y-95773812D01*
X113074873Y-95773814D01*
X113021789Y-95809283D01*
X113021783Y-95809289D01*
X112986314Y-95862373D01*
X112986312Y-95862378D01*
X112977000Y-95909189D01*
X112977000Y-96700810D01*
X112986312Y-96747621D01*
X112986314Y-96747626D01*
X113021783Y-96800710D01*
X113021786Y-96800714D01*
X113074876Y-96836187D01*
X113121694Y-96845500D01*
X113121698Y-96845500D01*
X115853302Y-96845500D01*
X115853306Y-96845500D01*
X115900124Y-96836187D01*
X115948556Y-96803826D01*
X116007688Y-96789357D01*
X116062289Y-96816283D01*
X116086808Y-96872007D01*
X116086999Y-96877828D01*
X116086999Y-97002171D01*
X116066177Y-97059379D01*
X116013454Y-97089819D01*
X115953499Y-97079247D01*
X115948554Y-97076172D01*
X115900126Y-97043814D01*
X115900121Y-97043812D01*
X115853310Y-97034500D01*
X115853306Y-97034500D01*
X113121694Y-97034500D01*
X113121689Y-97034500D01*
X113074878Y-97043812D01*
X113074873Y-97043814D01*
X113021789Y-97079283D01*
X113021783Y-97079289D01*
X112986314Y-97132373D01*
X112986312Y-97132378D01*
X112977000Y-97179189D01*
X112977000Y-97970810D01*
X112986312Y-98017621D01*
X112986314Y-98017626D01*
X113016162Y-98062297D01*
X113021786Y-98070714D01*
X113074876Y-98106187D01*
X113121694Y-98115500D01*
X113121698Y-98115500D01*
X115853302Y-98115500D01*
X115853306Y-98115500D01*
X115900124Y-98106187D01*
X115948556Y-98073826D01*
X116007688Y-98059357D01*
X116062289Y-98086283D01*
X116086808Y-98142007D01*
X116086999Y-98147828D01*
X116086999Y-98272171D01*
X116066177Y-98329379D01*
X116013454Y-98359819D01*
X115953499Y-98349247D01*
X115948554Y-98346172D01*
X115900126Y-98313814D01*
X115900121Y-98313812D01*
X115853310Y-98304500D01*
X115853306Y-98304500D01*
X113121694Y-98304500D01*
X113121689Y-98304500D01*
X113074878Y-98313812D01*
X113074873Y-98313814D01*
X113021789Y-98349283D01*
X113021783Y-98349289D01*
X112986314Y-98402373D01*
X112986312Y-98402378D01*
X112977000Y-98449189D01*
X112977000Y-99240810D01*
X112986312Y-99287621D01*
X112986314Y-99287626D01*
X113018137Y-99335253D01*
X113021786Y-99340714D01*
X113074876Y-99376187D01*
X113121694Y-99385500D01*
X113121698Y-99385500D01*
X115853302Y-99385500D01*
X115853306Y-99385500D01*
X115900124Y-99376187D01*
X115948556Y-99343826D01*
X116007688Y-99329357D01*
X116062289Y-99356283D01*
X116086808Y-99412007D01*
X116086999Y-99417828D01*
X116086999Y-99542171D01*
X116066177Y-99599379D01*
X116013454Y-99629819D01*
X115953499Y-99619247D01*
X115948554Y-99616172D01*
X115900126Y-99583814D01*
X115900121Y-99583812D01*
X115853310Y-99574500D01*
X115853306Y-99574500D01*
X113121694Y-99574500D01*
X113121689Y-99574500D01*
X113074878Y-99583812D01*
X113074873Y-99583814D01*
X113021789Y-99619283D01*
X113021783Y-99619289D01*
X112986314Y-99672373D01*
X112986312Y-99672378D01*
X112977000Y-99719189D01*
X112977000Y-100510810D01*
X112986312Y-100557621D01*
X112986314Y-100557626D01*
X113018137Y-100605253D01*
X113021786Y-100610714D01*
X113074876Y-100646187D01*
X113121694Y-100655500D01*
X113121698Y-100655500D01*
X115853302Y-100655500D01*
X115853306Y-100655500D01*
X115900124Y-100646187D01*
X115948556Y-100613826D01*
X116007688Y-100599357D01*
X116062289Y-100626283D01*
X116086808Y-100682007D01*
X116086999Y-100687828D01*
X116086999Y-100812171D01*
X116066177Y-100869379D01*
X116013454Y-100899819D01*
X115953499Y-100889247D01*
X115948554Y-100886172D01*
X115900126Y-100853814D01*
X115900121Y-100853812D01*
X115853310Y-100844500D01*
X115853306Y-100844500D01*
X113121694Y-100844500D01*
X113121689Y-100844500D01*
X113074878Y-100853812D01*
X113074873Y-100853814D01*
X113021789Y-100889283D01*
X113021783Y-100889289D01*
X112986314Y-100942373D01*
X112986312Y-100942378D01*
X112977000Y-100989189D01*
X112977000Y-101780810D01*
X112986312Y-101827621D01*
X112986314Y-101827626D01*
X113018137Y-101875253D01*
X113021786Y-101880714D01*
X113074876Y-101916187D01*
X113121694Y-101925500D01*
X113121698Y-101925500D01*
X115853302Y-101925500D01*
X115853306Y-101925500D01*
X115900124Y-101916187D01*
X115948556Y-101883826D01*
X116007688Y-101869357D01*
X116062289Y-101896283D01*
X116086808Y-101952007D01*
X116086999Y-101957828D01*
X116086999Y-102082171D01*
X116066177Y-102139379D01*
X116013454Y-102169819D01*
X115953499Y-102159247D01*
X115948554Y-102156172D01*
X115900126Y-102123814D01*
X115900121Y-102123812D01*
X115853310Y-102114500D01*
X115853306Y-102114500D01*
X113121694Y-102114500D01*
X113121689Y-102114500D01*
X113074878Y-102123812D01*
X113074873Y-102123814D01*
X113021789Y-102159283D01*
X113021783Y-102159289D01*
X112986314Y-102212373D01*
X112986312Y-102212378D01*
X112977000Y-102259189D01*
X112977000Y-103050810D01*
X112986312Y-103097621D01*
X112986314Y-103097626D01*
X113014883Y-103140383D01*
X113021786Y-103150714D01*
X113074876Y-103186187D01*
X113121694Y-103195500D01*
X113121698Y-103195500D01*
X115853302Y-103195500D01*
X115853306Y-103195500D01*
X115900124Y-103186187D01*
X115948556Y-103153826D01*
X116007688Y-103139357D01*
X116062289Y-103166283D01*
X116086808Y-103222007D01*
X116086999Y-103227828D01*
X116086999Y-103352171D01*
X116066177Y-103409379D01*
X116013454Y-103439819D01*
X115953499Y-103429247D01*
X115948554Y-103426172D01*
X115900126Y-103393814D01*
X115900121Y-103393812D01*
X115853310Y-103384500D01*
X115853306Y-103384500D01*
X113121694Y-103384500D01*
X113121689Y-103384500D01*
X113074878Y-103393812D01*
X113074873Y-103393814D01*
X113021789Y-103429283D01*
X113021783Y-103429289D01*
X112986314Y-103482373D01*
X112986312Y-103482378D01*
X112977000Y-103529189D01*
X112977000Y-104160025D01*
X112956178Y-104217233D01*
X112903455Y-104247673D01*
X112843500Y-104237101D01*
X112825069Y-104222959D01*
X112668612Y-104066502D01*
X112660949Y-104057763D01*
X112630390Y-104017934D01*
X112618777Y-103997816D01*
X112601822Y-103956878D01*
X112595810Y-103934437D01*
X112589243Y-103884543D01*
X112588482Y-103872927D01*
X112588482Y-103865102D01*
X112588483Y-103836485D01*
X112588482Y-103836482D01*
X112588482Y-103826883D01*
X112588500Y-103826833D01*
X112588500Y-103717068D01*
X112588499Y-103717060D01*
X112569093Y-103619500D01*
X112560042Y-103573999D01*
X112548068Y-103545091D01*
X112504221Y-103439237D01*
X112486579Y-103412835D01*
X112423177Y-103317950D01*
X112320030Y-103214807D01*
X112198742Y-103133769D01*
X112198740Y-103133768D01*
X112198735Y-103133765D01*
X112063975Y-103077951D01*
X111920908Y-103049498D01*
X111920904Y-103049498D01*
X111847973Y-103049500D01*
X111787000Y-103049500D01*
X111729792Y-103028678D01*
X111699352Y-102975955D01*
X111698000Y-102960500D01*
X111698000Y-102259197D01*
X111697999Y-102259189D01*
X111695655Y-102247406D01*
X111688687Y-102212376D01*
X111653214Y-102159286D01*
X111648555Y-102156173D01*
X111600126Y-102123814D01*
X111600121Y-102123812D01*
X111553310Y-102114500D01*
X111553306Y-102114500D01*
X108821694Y-102114500D01*
X108821689Y-102114500D01*
X108774878Y-102123812D01*
X108774873Y-102123814D01*
X108721789Y-102159283D01*
X108721783Y-102159289D01*
X108686314Y-102212373D01*
X108686312Y-102212378D01*
X108677000Y-102259189D01*
X108677000Y-102960500D01*
X108656178Y-103017708D01*
X108603455Y-103048148D01*
X108588000Y-103049500D01*
X102835562Y-103049500D01*
X102835554Y-103049497D01*
X102798694Y-103049497D01*
X102701064Y-103049497D01*
X102692775Y-103050810D01*
X102508218Y-103080042D01*
X102508208Y-103080044D01*
X102322504Y-103140384D01*
X102148527Y-103229030D01*
X102148524Y-103229032D01*
X101990566Y-103343796D01*
X101990562Y-103343800D01*
X101942837Y-103391524D01*
X101921528Y-103412834D01*
X101921527Y-103412834D01*
X101905079Y-103429284D01*
X101905077Y-103429286D01*
X99335759Y-105998602D01*
X99280584Y-106024330D01*
X99221779Y-106008574D01*
X99186860Y-105958704D01*
X99185353Y-105929950D01*
X99184733Y-105929950D01*
X99184733Y-105922943D01*
X99165631Y-105802338D01*
X99165630Y-105802336D01*
X99165630Y-105802335D01*
X99110191Y-105693530D01*
X99110189Y-105693526D01*
X99106075Y-105687864D01*
X99108857Y-105685842D01*
X99088681Y-105642573D01*
X99104437Y-105583768D01*
X99154307Y-105548849D01*
X99191264Y-105546912D01*
X99294426Y-105563251D01*
X99294428Y-105563251D01*
X99294430Y-105563251D01*
X99415035Y-105544149D01*
X99415036Y-105544148D01*
X99415039Y-105544148D01*
X99523844Y-105488709D01*
X99610191Y-105402362D01*
X99665630Y-105293557D01*
X99668445Y-105275788D01*
X99684733Y-105172948D01*
X99684733Y-105172943D01*
X99665631Y-105052338D01*
X99665630Y-105052336D01*
X99665630Y-105052335D01*
X99610191Y-104943530D01*
X99523844Y-104857183D01*
X99415039Y-104801744D01*
X99415038Y-104801743D01*
X99415037Y-104801743D01*
X99415035Y-104801742D01*
X99294430Y-104782641D01*
X99294426Y-104782641D01*
X99173820Y-104801742D01*
X99173818Y-104801743D01*
X99065013Y-104857182D01*
X98978664Y-104943531D01*
X98923225Y-105052336D01*
X98923224Y-105052338D01*
X98904123Y-105172943D01*
X98904123Y-105172948D01*
X98923224Y-105293553D01*
X98923225Y-105293555D01*
X98978666Y-105402365D01*
X98982781Y-105408028D01*
X98979998Y-105410049D01*
X99000174Y-105453318D01*
X98984418Y-105512123D01*
X98934548Y-105547042D01*
X98897591Y-105548979D01*
X98794430Y-105532641D01*
X98794426Y-105532641D01*
X98673820Y-105551742D01*
X98673818Y-105551743D01*
X98565013Y-105607182D01*
X98478664Y-105693531D01*
X98423225Y-105802336D01*
X98423224Y-105802338D01*
X98404123Y-105922943D01*
X98404123Y-105922948D01*
X98423224Y-106043553D01*
X98423225Y-106043555D01*
X98423225Y-106043556D01*
X98423226Y-106043557D01*
X98478665Y-106152362D01*
X98565012Y-106238709D01*
X98673817Y-106294148D01*
X98673818Y-106294148D01*
X98673820Y-106294149D01*
X98794426Y-106313251D01*
X98801432Y-106313251D01*
X98801432Y-106315036D01*
X98852987Y-106325056D01*
X98891301Y-106372367D01*
X98890241Y-106433237D01*
X98870083Y-106464278D01*
X96818477Y-108515883D01*
X96800050Y-108530023D01*
X96792254Y-108534524D01*
X96792252Y-108534526D01*
X96747974Y-108573355D01*
X96733743Y-108583546D01*
X96719345Y-108591846D01*
X96702937Y-108599207D01*
X96676308Y-108608047D01*
X96671734Y-108609430D01*
X96656991Y-108613460D01*
X96656985Y-108613462D01*
X96610150Y-108626260D01*
X96604303Y-108627975D01*
X96603486Y-108628231D01*
X96597401Y-108630268D01*
X96517859Y-108658616D01*
X96513942Y-108660067D01*
X96513504Y-108660235D01*
X96513499Y-108660238D01*
X96501871Y-108667760D01*
X96493938Y-108672331D01*
X96418567Y-108710735D01*
X96332218Y-108797084D01*
X96276779Y-108905889D01*
X96276778Y-108905891D01*
X96257677Y-109026496D01*
X96257677Y-109026501D01*
X96276778Y-109147106D01*
X96276779Y-109147108D01*
X96276779Y-109147109D01*
X96276780Y-109147110D01*
X96332219Y-109255915D01*
X96418566Y-109342262D01*
X96527371Y-109397701D01*
X96527372Y-109397701D01*
X96527374Y-109397702D01*
X96647980Y-109416804D01*
X96647982Y-109416804D01*
X96647984Y-109416804D01*
X96775512Y-109396606D01*
X96775759Y-109398170D01*
X96828824Y-109400018D01*
X96874070Y-109440751D01*
X96882549Y-109501037D01*
X96880381Y-109509129D01*
X96861230Y-109630049D01*
X96861230Y-109630054D01*
X96880331Y-109750659D01*
X96880332Y-109750661D01*
X96880332Y-109750662D01*
X96880333Y-109750663D01*
X96935772Y-109859468D01*
X97022119Y-109945815D01*
X97130924Y-110001254D01*
X97130925Y-110001254D01*
X97130927Y-110001255D01*
X97251533Y-110020357D01*
X97251535Y-110020357D01*
X97251537Y-110020357D01*
X97372142Y-110001255D01*
X97372143Y-110001254D01*
X97372146Y-110001254D01*
X97480951Y-109945815D01*
X97557725Y-109869040D01*
X97612900Y-109843312D01*
X97671705Y-109859068D01*
X97706624Y-109908938D01*
X97709466Y-109937794D01*
X97708926Y-109946032D01*
X97706068Y-109963306D01*
X97701757Y-109979350D01*
X97695363Y-109996151D01*
X97682789Y-110021225D01*
X97680529Y-110025444D01*
X97648896Y-110080869D01*
X97645890Y-110086372D01*
X97645552Y-110087021D01*
X97645501Y-110087120D01*
X97644561Y-110089006D01*
X97642690Y-110092764D01*
X97606506Y-110169022D01*
X97604847Y-110172628D01*
X97604632Y-110173112D01*
X97603467Y-110178531D01*
X97595759Y-110200217D01*
X97587439Y-110216547D01*
X97587438Y-110216550D01*
X97568337Y-110337157D01*
X97568337Y-110337161D01*
X97587438Y-110457766D01*
X97587439Y-110457768D01*
X97587439Y-110457769D01*
X97587440Y-110457770D01*
X97642879Y-110566575D01*
X97729226Y-110652922D01*
X97838031Y-110708361D01*
X97838032Y-110708361D01*
X97838034Y-110708362D01*
X97958640Y-110727464D01*
X97958642Y-110727464D01*
X97958644Y-110727464D01*
X98079249Y-110708362D01*
X98079250Y-110708361D01*
X98079253Y-110708361D01*
X98188058Y-110652922D01*
X98253824Y-110587156D01*
X101726053Y-110587156D01*
X101726053Y-110587161D01*
X101745154Y-110707766D01*
X101745155Y-110707768D01*
X101745155Y-110707769D01*
X101745156Y-110707770D01*
X101800595Y-110816575D01*
X101886942Y-110902922D01*
X101995747Y-110958361D01*
X101995748Y-110958361D01*
X101995750Y-110958362D01*
X102116356Y-110977464D01*
X102116358Y-110977464D01*
X102116360Y-110977464D01*
X102236965Y-110958362D01*
X102236966Y-110958361D01*
X102236969Y-110958361D01*
X102345774Y-110902922D01*
X102432121Y-110816575D01*
X102487560Y-110707770D01*
X102487866Y-110705842D01*
X102506663Y-110587161D01*
X102506663Y-110587156D01*
X102487561Y-110466551D01*
X102487560Y-110466549D01*
X102487560Y-110466548D01*
X102432121Y-110357743D01*
X102345774Y-110271396D01*
X102236969Y-110215957D01*
X102236968Y-110215956D01*
X102236967Y-110215956D01*
X102236965Y-110215955D01*
X102116360Y-110196854D01*
X102116356Y-110196854D01*
X101995750Y-110215955D01*
X101995748Y-110215956D01*
X101886943Y-110271395D01*
X101800594Y-110357744D01*
X101745155Y-110466549D01*
X101745154Y-110466551D01*
X101726053Y-110587156D01*
X98253824Y-110587156D01*
X98274405Y-110566575D01*
X98329844Y-110457770D01*
X98331604Y-110446663D01*
X98348947Y-110337161D01*
X98348947Y-110337158D01*
X98339102Y-110275000D01*
X98329844Y-110216548D01*
X98320364Y-110197942D01*
X98313361Y-110179277D01*
X98313173Y-110178531D01*
X98310781Y-110169032D01*
X98310779Y-110169029D01*
X98310778Y-110169024D01*
X98274586Y-110092755D01*
X98271837Y-110087230D01*
X98271434Y-110086457D01*
X98271384Y-110086365D01*
X98268393Y-110080884D01*
X98236740Y-110025423D01*
X98234494Y-110021230D01*
X98234491Y-110021225D01*
X98221914Y-109996145D01*
X98215520Y-109979341D01*
X98211398Y-109963999D01*
X98211212Y-109963307D01*
X98208357Y-109946053D01*
X98204505Y-109887270D01*
X98201807Y-109876502D01*
X98199142Y-109854882D01*
X98199142Y-109541862D01*
X102972000Y-109541862D01*
X102972000Y-110653052D01*
X102972157Y-110660287D01*
X102972497Y-110668041D01*
X102987843Y-110730755D01*
X102987844Y-110730756D01*
X103013569Y-110785928D01*
X103013576Y-110785939D01*
X103046536Y-110833011D01*
X103046538Y-110833013D01*
X103046541Y-110833017D01*
X103554167Y-111340643D01*
X103554178Y-111340653D01*
X103554183Y-111340658D01*
X103564813Y-111350400D01*
X103576700Y-111360372D01*
X103580741Y-111363072D01*
X103580312Y-111363713D01*
X103595284Y-111374690D01*
X103616078Y-111395483D01*
X103631812Y-111411217D01*
X103671502Y-111437737D01*
X103734126Y-111450194D01*
X103790391Y-111439001D01*
X103805347Y-111436027D01*
X103806105Y-111439838D01*
X103850790Y-111437880D01*
X103858817Y-111444037D01*
X104967442Y-111444037D01*
X104967442Y-111444036D01*
X104964342Y-111428453D01*
X104964338Y-111428445D01*
X104934602Y-111383941D01*
X104555974Y-111005313D01*
X104511464Y-110975572D01*
X104481005Y-110969514D01*
X104428958Y-110937931D01*
X104409389Y-110880282D01*
X104431454Y-110823542D01*
X104435405Y-110819322D01*
X104541134Y-110713593D01*
X104596307Y-110687867D01*
X104655112Y-110703623D01*
X104690031Y-110753493D01*
X104691354Y-110759165D01*
X104697412Y-110789624D01*
X104727153Y-110834134D01*
X105105779Y-111212760D01*
X105150289Y-111242501D01*
X105165877Y-111245600D01*
X105165877Y-110774038D01*
X105345877Y-110774038D01*
X105345877Y-111202148D01*
X105398836Y-111149189D01*
X108677000Y-111149189D01*
X108677000Y-111940810D01*
X108686312Y-111987621D01*
X108686313Y-111987624D01*
X108721786Y-112040714D01*
X108774876Y-112076187D01*
X108821694Y-112085500D01*
X108821698Y-112085500D01*
X111553302Y-112085500D01*
X111553306Y-112085500D01*
X111600124Y-112076187D01*
X111653214Y-112040714D01*
X111688687Y-111987624D01*
X111698000Y-111940806D01*
X111698000Y-111149194D01*
X111688687Y-111102376D01*
X111653214Y-111049286D01*
X111648555Y-111046173D01*
X111600126Y-111013814D01*
X111600121Y-111013812D01*
X111553310Y-111004500D01*
X111553306Y-111004500D01*
X108821694Y-111004500D01*
X108821689Y-111004500D01*
X108774878Y-111013812D01*
X108774873Y-111013814D01*
X108721789Y-111049283D01*
X108721783Y-111049289D01*
X108686314Y-111102373D01*
X108686312Y-111102378D01*
X108677000Y-111149189D01*
X105398836Y-111149189D01*
X105773988Y-110774037D01*
X105345878Y-110774037D01*
X105345877Y-110774038D01*
X105165877Y-110774038D01*
X105165877Y-110683037D01*
X105186699Y-110625829D01*
X105239422Y-110595389D01*
X105254877Y-110594037D01*
X105817442Y-110594037D01*
X105817442Y-110594036D01*
X105814342Y-110578453D01*
X105814338Y-110578445D01*
X105784602Y-110533941D01*
X105405974Y-110155313D01*
X105361464Y-110125572D01*
X105331005Y-110119514D01*
X105278958Y-110087931D01*
X105259389Y-110030282D01*
X105281454Y-109973542D01*
X105285405Y-109969322D01*
X105391134Y-109863593D01*
X105446307Y-109837867D01*
X105505112Y-109853623D01*
X105540031Y-109903493D01*
X105541354Y-109909165D01*
X105547412Y-109939624D01*
X105577153Y-109984134D01*
X105955779Y-110362760D01*
X106000289Y-110392501D01*
X106015877Y-110395600D01*
X106015877Y-109924038D01*
X106195877Y-109924038D01*
X106195877Y-110352148D01*
X106623988Y-109924037D01*
X106195878Y-109924037D01*
X106195877Y-109924038D01*
X106015877Y-109924038D01*
X106015877Y-109744036D01*
X106195877Y-109744036D01*
X106195878Y-109744037D01*
X106667442Y-109744037D01*
X106667442Y-109744036D01*
X106664342Y-109728453D01*
X106664338Y-109728445D01*
X106634602Y-109683941D01*
X106255972Y-109305311D01*
X106211468Y-109275575D01*
X106211460Y-109275571D01*
X106195877Y-109272471D01*
X106195877Y-109744036D01*
X106015877Y-109744036D01*
X106015877Y-109293494D01*
X106015660Y-109293296D01*
X106007715Y-109232937D01*
X106008433Y-109230659D01*
X106011386Y-109215814D01*
X106022034Y-109162286D01*
X106009577Y-109099662D01*
X105983057Y-109059972D01*
X105963127Y-109040042D01*
X105934499Y-109011413D01*
X105924531Y-108999535D01*
X105912483Y-108982327D01*
X105144197Y-108214041D01*
X105143133Y-108213022D01*
X105138983Y-108209049D01*
X105138970Y-108209037D01*
X105133245Y-108203792D01*
X105095794Y-108181069D01*
X105078049Y-108170302D01*
X105036950Y-108155344D01*
X105020842Y-108149481D01*
X105006691Y-108146985D01*
X104964241Y-108139500D01*
X104964238Y-108139500D01*
X104374366Y-108139500D01*
X104373710Y-108139514D01*
X104367136Y-108139657D01*
X104359382Y-108139997D01*
X104296668Y-108155343D01*
X104296667Y-108155344D01*
X104241495Y-108181069D01*
X104241484Y-108181076D01*
X104194412Y-108214036D01*
X103046516Y-109361932D01*
X103041549Y-109367120D01*
X103036292Y-109372859D01*
X103002802Y-109428054D01*
X102981981Y-109485262D01*
X102972000Y-109541862D01*
X98199142Y-109541862D01*
X98199142Y-108586969D01*
X98199571Y-108578245D01*
X98206363Y-108509286D01*
X98212876Y-108443154D01*
X98216280Y-108426047D01*
X98254413Y-108300344D01*
X98261090Y-108284225D01*
X98295764Y-108219357D01*
X98323012Y-108168381D01*
X98332699Y-108153883D01*
X98418908Y-108048843D01*
X98424769Y-108042378D01*
X98436575Y-108030572D01*
X98436582Y-108030565D01*
X98451576Y-108015573D01*
X98451576Y-108015571D01*
X98464087Y-108003062D01*
X98464091Y-108003055D01*
X98483543Y-107983603D01*
X99214783Y-107983603D01*
X99214783Y-107983608D01*
X99233884Y-108104213D01*
X99233885Y-108104215D01*
X99233885Y-108104216D01*
X99233886Y-108104217D01*
X99289325Y-108213022D01*
X99375672Y-108299369D01*
X99484477Y-108354808D01*
X99484478Y-108354808D01*
X99484480Y-108354809D01*
X99605086Y-108373911D01*
X99605088Y-108373911D01*
X99605090Y-108373911D01*
X99725695Y-108354809D01*
X99725696Y-108354808D01*
X99725699Y-108354808D01*
X99834504Y-108299369D01*
X99920851Y-108213022D01*
X99976290Y-108104217D01*
X99977825Y-108094530D01*
X99995393Y-107983608D01*
X99995393Y-107983603D01*
X99976291Y-107862998D01*
X99976290Y-107862996D01*
X99976290Y-107862995D01*
X99920851Y-107754190D01*
X99834504Y-107667843D01*
X99725699Y-107612404D01*
X99725698Y-107612403D01*
X99725697Y-107612403D01*
X99725695Y-107612402D01*
X99605090Y-107593301D01*
X99605086Y-107593301D01*
X99484480Y-107612402D01*
X99484478Y-107612403D01*
X99375673Y-107667842D01*
X99289324Y-107754191D01*
X99233885Y-107862996D01*
X99233884Y-107862998D01*
X99214783Y-107983603D01*
X98483543Y-107983603D01*
X100380732Y-106086415D01*
X100387182Y-106080569D01*
X100492133Y-105994435D01*
X100506633Y-105984747D01*
X100609142Y-105929950D01*
X100622484Y-105922817D01*
X100638594Y-105916143D01*
X100764310Y-105878003D01*
X100781413Y-105874600D01*
X100916249Y-105861314D01*
X100924976Y-105860886D01*
X108412602Y-105860886D01*
X108412605Y-105860887D01*
X108418133Y-105860886D01*
X108418158Y-105860895D01*
X108455012Y-105860894D01*
X108455012Y-105860895D01*
X108527946Y-105860894D01*
X108528833Y-105860717D01*
X108548053Y-105859025D01*
X108564846Y-105859376D01*
X108620714Y-105849469D01*
X108680675Y-105859983D01*
X108719853Y-105906581D01*
X108719912Y-105967461D01*
X108710252Y-105986546D01*
X108686314Y-106022373D01*
X108686312Y-106022378D01*
X108677000Y-106069189D01*
X108677000Y-106860810D01*
X108686312Y-106907621D01*
X108686314Y-106907626D01*
X108715678Y-106951573D01*
X108721786Y-106960714D01*
X108774876Y-106996187D01*
X108821694Y-107005500D01*
X108821698Y-107005500D01*
X111553302Y-107005500D01*
X111553306Y-107005500D01*
X111600124Y-106996187D01*
X111653214Y-106960714D01*
X111688687Y-106907624D01*
X111698000Y-106860806D01*
X111698000Y-106069194D01*
X111688687Y-106022376D01*
X111653214Y-105969286D01*
X111648555Y-105966173D01*
X111600126Y-105933814D01*
X111600121Y-105933812D01*
X111553310Y-105924500D01*
X111553306Y-105924500D01*
X109414678Y-105924500D01*
X109357470Y-105903678D01*
X109327030Y-105850955D01*
X109337602Y-105791000D01*
X109384238Y-105751867D01*
X109408262Y-105746731D01*
X109555893Y-105736064D01*
X109560484Y-105735853D01*
X109575826Y-105735550D01*
X109577553Y-105735517D01*
X109579303Y-105735500D01*
X110079358Y-105735500D01*
X110082276Y-105735548D01*
X110216816Y-105739961D01*
X110216817Y-105739960D01*
X110216818Y-105739961D01*
X110229820Y-105739876D01*
X110231653Y-105739792D01*
X110231655Y-105739791D01*
X110231657Y-105739791D01*
X110234399Y-105738999D01*
X110259107Y-105735500D01*
X111553302Y-105735500D01*
X111553306Y-105735500D01*
X111600124Y-105726187D01*
X111653214Y-105690714D01*
X111688687Y-105637624D01*
X111698000Y-105590806D01*
X111698000Y-104799194D01*
X111688687Y-104752376D01*
X111653214Y-104699286D01*
X111648555Y-104696173D01*
X111600126Y-104663814D01*
X111600121Y-104663812D01*
X111553310Y-104654500D01*
X111553306Y-104654500D01*
X108821694Y-104654500D01*
X108821689Y-104654500D01*
X108774878Y-104663812D01*
X108774873Y-104663814D01*
X108721789Y-104699283D01*
X108721783Y-104699289D01*
X108686314Y-104752373D01*
X108686312Y-104752378D01*
X108677000Y-104799189D01*
X108677000Y-105068640D01*
X108664800Y-105113615D01*
X108635286Y-105164013D01*
X108632067Y-105169106D01*
X108579212Y-105246782D01*
X108574725Y-105252813D01*
X108526303Y-105312452D01*
X108519943Y-105319483D01*
X108485192Y-105354016D01*
X108429936Y-105379571D01*
X108422458Y-105379886D01*
X104356316Y-105379886D01*
X104299108Y-105359064D01*
X104268668Y-105306341D01*
X104268412Y-105276964D01*
X104287779Y-105154681D01*
X104287779Y-105154676D01*
X104268677Y-105034071D01*
X104268676Y-105034069D01*
X104268676Y-105034068D01*
X104213237Y-104925263D01*
X104126890Y-104838916D01*
X104018085Y-104783477D01*
X104018084Y-104783476D01*
X104018083Y-104783476D01*
X104018081Y-104783475D01*
X103897476Y-104764374D01*
X103897472Y-104764374D01*
X103776866Y-104783475D01*
X103776864Y-104783476D01*
X103668059Y-104838915D01*
X103581710Y-104925264D01*
X103526271Y-105034069D01*
X103526270Y-105034071D01*
X103507169Y-105154676D01*
X103507169Y-105154681D01*
X103526536Y-105276964D01*
X103514920Y-105336725D01*
X103467607Y-105375037D01*
X103438632Y-105379886D01*
X100971752Y-105379886D01*
X100971732Y-105379884D01*
X100957735Y-105379884D01*
X100957663Y-105379858D01*
X100849604Y-105379862D01*
X100792395Y-105359042D01*
X100761954Y-105306320D01*
X100772523Y-105246365D01*
X100786664Y-105227933D01*
X101920083Y-104094515D01*
X104568694Y-104094515D01*
X104568694Y-104094520D01*
X104587795Y-104215125D01*
X104587796Y-104215127D01*
X104587796Y-104215128D01*
X104587797Y-104215129D01*
X104643236Y-104323934D01*
X104729583Y-104410281D01*
X104838388Y-104465720D01*
X104838389Y-104465720D01*
X104838391Y-104465721D01*
X104958997Y-104484823D01*
X104958999Y-104484823D01*
X104959001Y-104484823D01*
X105079606Y-104465721D01*
X105079607Y-104465720D01*
X105079610Y-104465720D01*
X105188415Y-104410281D01*
X105274762Y-104323934D01*
X105330201Y-104215129D01*
X105335699Y-104180421D01*
X105349304Y-104094520D01*
X105349304Y-104094515D01*
X105330202Y-103973910D01*
X105330201Y-103973908D01*
X105330201Y-103973907D01*
X105274762Y-103865102D01*
X105188415Y-103778755D01*
X105079610Y-103723316D01*
X105079609Y-103723315D01*
X105079608Y-103723315D01*
X105079606Y-103723314D01*
X104979149Y-103707404D01*
X104961762Y-103697766D01*
X104955367Y-103703133D01*
X104938849Y-103707404D01*
X104838391Y-103723314D01*
X104838389Y-103723315D01*
X104729584Y-103778754D01*
X104643235Y-103865103D01*
X104587796Y-103973908D01*
X104587795Y-103973910D01*
X104568694Y-104094515D01*
X101920083Y-104094515D01*
X102231660Y-103782938D01*
X102231662Y-103782938D01*
X102258570Y-103756029D01*
X102265022Y-103750182D01*
X102369968Y-103664055D01*
X102384463Y-103654369D01*
X102500323Y-103592441D01*
X102516428Y-103585769D01*
X102642145Y-103547632D01*
X102659249Y-103544231D01*
X102782066Y-103532135D01*
X102794311Y-103530929D01*
X102803034Y-103530500D01*
X102841103Y-103530500D01*
X104924927Y-103530500D01*
X104958483Y-103542713D01*
X104976089Y-103532135D01*
X104993071Y-103530500D01*
X108588000Y-103530500D01*
X108645208Y-103551322D01*
X108675648Y-103604045D01*
X108677000Y-103619500D01*
X108677000Y-104320810D01*
X108686312Y-104367621D01*
X108686314Y-104367626D01*
X108714815Y-104410281D01*
X108721786Y-104420714D01*
X108774876Y-104456187D01*
X108821694Y-104465500D01*
X108821698Y-104465500D01*
X111553302Y-104465500D01*
X111553306Y-104465500D01*
X111600124Y-104456187D01*
X111653214Y-104420714D01*
X111688687Y-104367624D01*
X111698000Y-104320806D01*
X111698000Y-103619500D01*
X111718822Y-103562292D01*
X111771545Y-103531852D01*
X111787000Y-103530500D01*
X111805581Y-103530500D01*
X111805584Y-103530501D01*
X111840986Y-103530500D01*
X111854905Y-103531594D01*
X111914261Y-103540994D01*
X111940742Y-103549598D01*
X111944126Y-103551322D01*
X111987966Y-103573658D01*
X112010492Y-103590023D01*
X112047971Y-103627500D01*
X112064338Y-103650027D01*
X112088399Y-103697248D01*
X112097004Y-103723731D01*
X112106386Y-103782966D01*
X112107482Y-103796889D01*
X112107482Y-103935460D01*
X112107496Y-103935608D01*
X112107496Y-103951801D01*
X112107497Y-103951816D01*
X112135945Y-104094861D01*
X112135948Y-104094870D01*
X112191759Y-104229628D01*
X112191760Y-104229629D01*
X112191761Y-104229631D01*
X112272793Y-104350915D01*
X112280851Y-104358974D01*
X112285462Y-104363586D01*
X112285490Y-104363618D01*
X112311839Y-104389966D01*
X112311843Y-104389970D01*
X112361662Y-104439793D01*
X112361676Y-104439804D01*
X112691722Y-104769850D01*
X112698899Y-104777960D01*
X112713808Y-104797026D01*
X112713810Y-104797029D01*
X112747870Y-104826350D01*
X112752738Y-104830866D01*
X112772565Y-104850693D01*
X112775878Y-104854192D01*
X112810596Y-104892911D01*
X112816202Y-104899832D01*
X112832325Y-104921914D01*
X112867810Y-104970514D01*
X112871716Y-104976330D01*
X112927336Y-105066656D01*
X112930111Y-105071497D01*
X112966560Y-105139960D01*
X112977000Y-105181785D01*
X112977000Y-105590810D01*
X112986312Y-105637621D01*
X112986314Y-105637626D01*
X113021783Y-105690710D01*
X113021786Y-105690714D01*
X113074876Y-105726187D01*
X113121694Y-105735500D01*
X113121698Y-105735500D01*
X115853302Y-105735500D01*
X115853306Y-105735500D01*
X115900124Y-105726187D01*
X115948556Y-105693826D01*
X116007688Y-105679357D01*
X116062289Y-105706283D01*
X116086808Y-105762007D01*
X116086999Y-105767828D01*
X116086999Y-105892171D01*
X116066177Y-105949379D01*
X116013454Y-105979819D01*
X115953499Y-105969247D01*
X115948554Y-105966172D01*
X115900126Y-105933814D01*
X115900121Y-105933812D01*
X115853310Y-105924500D01*
X115853306Y-105924500D01*
X113121694Y-105924500D01*
X113121689Y-105924500D01*
X113074878Y-105933812D01*
X113074873Y-105933814D01*
X113021789Y-105969283D01*
X113021783Y-105969289D01*
X112986314Y-106022373D01*
X112986312Y-106022378D01*
X112977000Y-106069189D01*
X112977000Y-106860810D01*
X112986312Y-106907621D01*
X112986314Y-106907626D01*
X113015678Y-106951573D01*
X113021786Y-106960714D01*
X113074876Y-106996187D01*
X113121694Y-107005500D01*
X113121698Y-107005500D01*
X115853302Y-107005500D01*
X115853306Y-107005500D01*
X115900124Y-106996187D01*
X115948556Y-106963826D01*
X116007688Y-106949357D01*
X116062289Y-106976283D01*
X116086808Y-107032007D01*
X116086999Y-107037828D01*
X116086999Y-107162171D01*
X116066177Y-107219379D01*
X116013454Y-107249819D01*
X115953499Y-107239247D01*
X115948554Y-107236172D01*
X115900126Y-107203814D01*
X115900121Y-107203812D01*
X115853310Y-107194500D01*
X115853306Y-107194500D01*
X113121694Y-107194500D01*
X113121689Y-107194500D01*
X113074878Y-107203812D01*
X113074873Y-107203814D01*
X113021789Y-107239283D01*
X113021783Y-107239289D01*
X112986314Y-107292373D01*
X112986312Y-107292378D01*
X112977000Y-107339189D01*
X112977000Y-108130810D01*
X112986312Y-108177621D01*
X112986314Y-108177626D01*
X113021783Y-108230710D01*
X113021786Y-108230714D01*
X113074876Y-108266187D01*
X113121694Y-108275500D01*
X113121698Y-108275500D01*
X115853302Y-108275500D01*
X115853306Y-108275500D01*
X115900124Y-108266187D01*
X115948556Y-108233826D01*
X116007688Y-108219357D01*
X116062289Y-108246283D01*
X116086808Y-108302007D01*
X116086999Y-108307828D01*
X116086999Y-108432171D01*
X116066177Y-108489379D01*
X116013454Y-108519819D01*
X115953499Y-108509247D01*
X115948554Y-108506172D01*
X115900126Y-108473814D01*
X115900121Y-108473812D01*
X115853310Y-108464500D01*
X115853306Y-108464500D01*
X113121694Y-108464500D01*
X113121689Y-108464500D01*
X113074878Y-108473812D01*
X113074873Y-108473814D01*
X113021789Y-108509283D01*
X113021783Y-108509289D01*
X112986314Y-108562373D01*
X112986312Y-108562378D01*
X112977000Y-108609189D01*
X112977000Y-109400810D01*
X112986312Y-109447621D01*
X112986314Y-109447626D01*
X113021783Y-109500710D01*
X113021786Y-109500714D01*
X113074876Y-109536187D01*
X113121694Y-109545500D01*
X113121698Y-109545500D01*
X115853302Y-109545500D01*
X115853306Y-109545500D01*
X115900124Y-109536187D01*
X115948556Y-109503826D01*
X116007688Y-109489357D01*
X116062289Y-109516283D01*
X116086808Y-109572007D01*
X116086999Y-109577828D01*
X116086999Y-109702171D01*
X116066177Y-109759379D01*
X116013454Y-109789819D01*
X115953499Y-109779247D01*
X115948554Y-109776172D01*
X115900126Y-109743814D01*
X115900121Y-109743812D01*
X115853310Y-109734500D01*
X115853306Y-109734500D01*
X113121694Y-109734500D01*
X113121689Y-109734500D01*
X113074878Y-109743812D01*
X113074873Y-109743814D01*
X113021789Y-109779283D01*
X113021783Y-109779289D01*
X112986314Y-109832373D01*
X112986312Y-109832378D01*
X112977000Y-109879189D01*
X112977000Y-110459515D01*
X112956178Y-110516723D01*
X112903455Y-110547163D01*
X112843500Y-110536591D01*
X112825067Y-110522448D01*
X112748110Y-110445491D01*
X112733967Y-110427059D01*
X112729470Y-110419268D01*
X112690638Y-110374989D01*
X112680452Y-110360763D01*
X112672144Y-110346350D01*
X112664788Y-110329954D01*
X112655947Y-110303329D01*
X112654567Y-110298770D01*
X112637741Y-110237191D01*
X112635995Y-110231239D01*
X112635730Y-110230395D01*
X112633726Y-110224416D01*
X112605382Y-110144881D01*
X112604081Y-110141355D01*
X112603888Y-110140850D01*
X112596450Y-110129326D01*
X112591928Y-110121469D01*
X112585619Y-110109087D01*
X112553263Y-110045584D01*
X112466916Y-109959237D01*
X112358111Y-109903798D01*
X112358110Y-109903797D01*
X112358109Y-109903797D01*
X112358107Y-109903796D01*
X112237502Y-109884695D01*
X112237498Y-109884695D01*
X112116892Y-109903796D01*
X112116890Y-109903797D01*
X112008085Y-109959236D01*
X111921734Y-110045587D01*
X111866299Y-110154385D01*
X111821775Y-110195904D01*
X111760979Y-110199090D01*
X111712358Y-110162452D01*
X111698000Y-110113979D01*
X111698000Y-109879197D01*
X111697999Y-109879189D01*
X111695483Y-109866541D01*
X111688687Y-109832376D01*
X111653214Y-109779286D01*
X111653156Y-109779247D01*
X111600126Y-109743814D01*
X111600121Y-109743812D01*
X111553310Y-109734500D01*
X111553306Y-109734500D01*
X110260198Y-109734500D01*
X110243084Y-109732839D01*
X110226244Y-109729539D01*
X110226242Y-109729539D01*
X110223222Y-109729547D01*
X109892776Y-109730482D01*
X109888248Y-109730379D01*
X109857399Y-109728895D01*
X109801257Y-109705348D01*
X109773386Y-109651223D01*
X109786826Y-109591846D01*
X109835289Y-109554999D01*
X109857394Y-109551101D01*
X109888242Y-109549617D01*
X109892741Y-109549515D01*
X110226242Y-109550460D01*
X110237692Y-109550096D01*
X110239301Y-109549989D01*
X110239656Y-109549880D01*
X110241234Y-109549398D01*
X110267284Y-109545500D01*
X111553302Y-109545500D01*
X111553306Y-109545500D01*
X111600124Y-109536187D01*
X111653214Y-109500714D01*
X111688687Y-109447624D01*
X111698000Y-109400806D01*
X111698000Y-108609194D01*
X111688687Y-108562376D01*
X111653214Y-108509286D01*
X111653156Y-108509247D01*
X111600126Y-108473814D01*
X111600121Y-108473812D01*
X111553310Y-108464500D01*
X111553306Y-108464500D01*
X108821694Y-108464500D01*
X108821689Y-108464500D01*
X108774878Y-108473812D01*
X108774873Y-108473814D01*
X108721789Y-108509283D01*
X108721783Y-108509289D01*
X108686314Y-108562373D01*
X108686312Y-108562378D01*
X108677000Y-108609189D01*
X108677000Y-108903663D01*
X108663402Y-108950944D01*
X108629270Y-109005376D01*
X108625707Y-109010631D01*
X108573452Y-109082082D01*
X108564892Y-109093786D01*
X108559956Y-109099942D01*
X108503877Y-109163863D01*
X108496962Y-109170914D01*
X108447751Y-109215814D01*
X108391456Y-109238991D01*
X108376151Y-109238307D01*
X108329663Y-109232189D01*
X108307222Y-109226177D01*
X108266280Y-109209220D01*
X108246164Y-109197607D01*
X108206445Y-109167132D01*
X108197690Y-109159454D01*
X106377424Y-107339189D01*
X108677000Y-107339189D01*
X108677000Y-108130810D01*
X108686312Y-108177621D01*
X108686314Y-108177626D01*
X108721783Y-108230710D01*
X108721786Y-108230714D01*
X108774876Y-108266187D01*
X108821694Y-108275500D01*
X108821698Y-108275500D01*
X111553302Y-108275500D01*
X111553306Y-108275500D01*
X111600124Y-108266187D01*
X111653214Y-108230714D01*
X111688687Y-108177624D01*
X111698000Y-108130806D01*
X111698000Y-107339194D01*
X111688687Y-107292376D01*
X111653214Y-107239286D01*
X111648555Y-107236173D01*
X111600126Y-107203814D01*
X111600121Y-107203812D01*
X111553310Y-107194500D01*
X111553306Y-107194500D01*
X108821694Y-107194500D01*
X108821689Y-107194500D01*
X108774878Y-107203812D01*
X108774873Y-107203814D01*
X108721789Y-107239283D01*
X108721783Y-107239289D01*
X108686314Y-107292373D01*
X108686312Y-107292378D01*
X108677000Y-107339189D01*
X106377424Y-107339189D01*
X106330543Y-107292308D01*
X106330236Y-107292056D01*
X106318885Y-107280701D01*
X106197617Y-107199653D01*
X106197614Y-107199651D01*
X106197613Y-107199651D01*
X106062860Y-107143817D01*
X106062855Y-107143816D01*
X106062853Y-107143815D01*
X105919803Y-107115346D01*
X105902481Y-107115343D01*
X105902426Y-107115339D01*
X105894686Y-107115339D01*
X105846871Y-107115339D01*
X105846852Y-107115338D01*
X105796718Y-107115334D01*
X105796662Y-107115339D01*
X102649134Y-107115339D01*
X102637517Y-107114578D01*
X102587742Y-107108025D01*
X102565303Y-107102012D01*
X102524360Y-107085054D01*
X102504241Y-107073438D01*
X102464457Y-107042913D01*
X102455711Y-107035245D01*
X102453596Y-107033130D01*
X102427870Y-106977957D01*
X102439519Y-106925589D01*
X102444439Y-106917095D01*
X102444446Y-106917083D01*
X102447029Y-106912456D01*
X102447390Y-106911784D01*
X102449906Y-106906907D01*
X102481218Y-106843676D01*
X102483520Y-106838832D01*
X102483832Y-106838147D01*
X102484970Y-106832937D01*
X102492621Y-106811518D01*
X102501774Y-106793557D01*
X102520877Y-106672946D01*
X102520471Y-106670381D01*
X102501775Y-106552338D01*
X102501774Y-106552336D01*
X102501774Y-106552335D01*
X102446335Y-106443530D01*
X102359988Y-106357183D01*
X102251183Y-106301744D01*
X102251182Y-106301743D01*
X102251181Y-106301743D01*
X102251179Y-106301742D01*
X102130574Y-106282641D01*
X102130570Y-106282641D01*
X102009964Y-106301742D01*
X102009962Y-106301743D01*
X101901157Y-106357182D01*
X101814808Y-106443531D01*
X101759369Y-106552336D01*
X101759368Y-106552338D01*
X101740267Y-106672943D01*
X101740267Y-106672948D01*
X101760465Y-106800476D01*
X101758904Y-106800723D01*
X101757045Y-106853805D01*
X101716304Y-106899044D01*
X101656016Y-106907510D01*
X101647939Y-106905345D01*
X101527020Y-106886194D01*
X101527016Y-106886194D01*
X101406410Y-106905295D01*
X101406408Y-106905296D01*
X101297603Y-106960735D01*
X101211254Y-107047084D01*
X101155815Y-107155889D01*
X101155814Y-107155891D01*
X101136713Y-107276496D01*
X101136713Y-107276501D01*
X101155814Y-107397106D01*
X101155816Y-107397113D01*
X101192796Y-107469689D01*
X101200216Y-107530114D01*
X101167059Y-107581172D01*
X101108839Y-107598972D01*
X101099576Y-107597999D01*
X101084235Y-107595569D01*
X101069912Y-107593301D01*
X101069911Y-107593301D01*
X101069910Y-107593301D01*
X100949304Y-107612402D01*
X100949302Y-107612403D01*
X100840497Y-107667842D01*
X100754148Y-107754191D01*
X100698709Y-107862996D01*
X100698708Y-107862998D01*
X100679607Y-107983603D01*
X100679607Y-107983608D01*
X100698708Y-108104213D01*
X100698709Y-108104215D01*
X100698709Y-108104216D01*
X100698710Y-108104217D01*
X100754149Y-108213022D01*
X100840496Y-108299369D01*
X100949301Y-108354808D01*
X100949302Y-108354808D01*
X100949304Y-108354809D01*
X101069910Y-108373911D01*
X101069912Y-108373911D01*
X101069914Y-108373911D01*
X101190519Y-108354809D01*
X101190520Y-108354808D01*
X101190523Y-108354808D01*
X101299328Y-108299369D01*
X101385675Y-108213022D01*
X101441114Y-108104217D01*
X101442649Y-108094530D01*
X101460217Y-107983608D01*
X101460217Y-107983603D01*
X101441115Y-107862998D01*
X101441114Y-107862994D01*
X101404133Y-107790416D01*
X101396713Y-107729990D01*
X101429870Y-107678932D01*
X101488089Y-107661132D01*
X101497355Y-107662106D01*
X101527017Y-107666804D01*
X101527018Y-107666804D01*
X101527019Y-107666804D01*
X101545378Y-107663896D01*
X101647629Y-107647701D01*
X101668751Y-107636938D01*
X101685948Y-107630317D01*
X101697789Y-107627121D01*
X101761020Y-107595788D01*
X101761025Y-107595785D01*
X101761046Y-107595775D01*
X101762272Y-107595141D01*
X101765743Y-107593352D01*
X101766420Y-107592989D01*
X101771272Y-107590282D01*
X101779580Y-107585460D01*
X101839510Y-107574755D01*
X101887181Y-107599501D01*
X101951582Y-107663902D01*
X101951629Y-107663958D01*
X101961048Y-107673375D01*
X101961099Y-107673485D01*
X102038700Y-107751068D01*
X102043374Y-107754190D01*
X102159993Y-107832094D01*
X102294763Y-107887902D01*
X102437831Y-107916346D01*
X102510759Y-107916339D01*
X102510766Y-107916339D01*
X105671891Y-107916339D01*
X105708461Y-107916339D01*
X105720078Y-107917100D01*
X105769842Y-107923652D01*
X105792278Y-107929664D01*
X105833214Y-107946620D01*
X105853331Y-107958236D01*
X105886387Y-107983603D01*
X105893196Y-107988828D01*
X105901946Y-107996501D01*
X105907776Y-108002331D01*
X105907775Y-108002331D01*
X105907779Y-108002334D01*
X105935085Y-108029643D01*
X105935095Y-108029651D01*
X107769213Y-109863768D01*
X107769356Y-109863885D01*
X107780633Y-109875163D01*
X107780638Y-109875167D01*
X107901900Y-109956200D01*
X107901914Y-109956208D01*
X108015451Y-110003243D01*
X108036667Y-110012032D01*
X108179726Y-110040496D01*
X108195781Y-110040496D01*
X108195810Y-110040500D01*
X108204833Y-110040500D01*
X108252656Y-110040500D01*
X108252657Y-110040500D01*
X108295064Y-110040502D01*
X108295066Y-110040500D01*
X108303542Y-110040501D01*
X108303563Y-110040500D01*
X108387169Y-110040500D01*
X108437515Y-110056109D01*
X108438015Y-110056452D01*
X108447656Y-110064096D01*
X108458701Y-110074173D01*
X108496973Y-110109094D01*
X108503877Y-110116134D01*
X108538249Y-110155313D01*
X108559956Y-110180056D01*
X108564890Y-110186210D01*
X108625691Y-110269342D01*
X108629256Y-110274600D01*
X108663402Y-110329053D01*
X108677000Y-110376335D01*
X108677000Y-110670810D01*
X108686312Y-110717621D01*
X108686314Y-110717626D01*
X108719314Y-110767015D01*
X108721786Y-110770714D01*
X108774876Y-110806187D01*
X108821694Y-110815500D01*
X108821698Y-110815500D01*
X111553302Y-110815500D01*
X111553306Y-110815500D01*
X111600124Y-110806187D01*
X111653214Y-110770714D01*
X111688687Y-110717624D01*
X111698000Y-110670806D01*
X111698000Y-110436020D01*
X111718822Y-110378812D01*
X111771545Y-110348372D01*
X111831500Y-110358944D01*
X111866300Y-110395615D01*
X111921737Y-110504416D01*
X112008084Y-110590763D01*
X112050959Y-110612608D01*
X112087411Y-110631182D01*
X112092666Y-110634087D01*
X112098680Y-110637681D01*
X112107381Y-110642882D01*
X112186916Y-110671226D01*
X112192895Y-110673230D01*
X112193739Y-110673495D01*
X112193756Y-110673500D01*
X112193772Y-110673505D01*
X112196149Y-110674202D01*
X112199691Y-110675241D01*
X112261270Y-110692067D01*
X112265812Y-110693441D01*
X112292456Y-110702288D01*
X112308851Y-110709645D01*
X112323260Y-110717951D01*
X112337492Y-110728141D01*
X112365548Y-110752746D01*
X112372103Y-110758494D01*
X112381166Y-110766443D01*
X112381221Y-110766491D01*
X112381248Y-110766515D01*
X112381247Y-110766515D01*
X112381341Y-110766597D01*
X112381381Y-110766632D01*
X112404035Y-110786499D01*
X112415696Y-110793315D01*
X112689599Y-111067218D01*
X112697674Y-111076496D01*
X112711451Y-111094729D01*
X112711452Y-111094730D01*
X112742779Y-111122615D01*
X112742782Y-111122618D01*
X112755124Y-111133604D01*
X112763088Y-111141658D01*
X112809235Y-111194689D01*
X112814654Y-111201574D01*
X112864116Y-111271230D01*
X112866759Y-111274952D01*
X112870517Y-111280704D01*
X112926499Y-111374046D01*
X112929162Y-111378811D01*
X112966992Y-111451691D01*
X112977000Y-111492692D01*
X112977000Y-111940810D01*
X112986312Y-111987621D01*
X112986313Y-111987624D01*
X113021786Y-112040714D01*
X113074876Y-112076187D01*
X113121694Y-112085500D01*
X115423706Y-112085500D01*
X115480914Y-112106322D01*
X115511354Y-112159045D01*
X115500782Y-112219000D01*
X115470206Y-112250386D01*
X115462495Y-112255111D01*
X115438025Y-112270106D01*
X115425583Y-112276444D01*
X115264640Y-112343108D01*
X115251359Y-112347424D01*
X115081954Y-112388095D01*
X115068160Y-112390280D01*
X114890980Y-112404225D01*
X114883997Y-112404499D01*
X85791000Y-112404499D01*
X85784017Y-112404225D01*
X85606838Y-112390281D01*
X85593044Y-112388096D01*
X85423642Y-112347426D01*
X85410360Y-112343110D01*
X85249409Y-112276442D01*
X85236966Y-112270102D01*
X85204790Y-112250385D01*
X85166891Y-112202741D01*
X85168484Y-112141882D01*
X85208824Y-112096286D01*
X85251292Y-112085500D01*
X86886356Y-112085500D01*
X86901811Y-112086852D01*
X86922500Y-112090500D01*
X86922502Y-112090500D01*
X89589508Y-112090500D01*
X89602320Y-112089940D01*
X89603923Y-112089870D01*
X89608423Y-112089476D01*
X89619369Y-112088519D01*
X89619370Y-112088518D01*
X89619378Y-112088518D01*
X89619384Y-112088515D01*
X89624141Y-112087570D01*
X89624291Y-112088325D01*
X89642648Y-112085500D01*
X91853302Y-112085500D01*
X91853306Y-112085500D01*
X91900124Y-112076187D01*
X91953214Y-112040714D01*
X91988687Y-111987624D01*
X91998000Y-111940806D01*
X91998000Y-111627365D01*
X91998885Y-111624037D01*
X103844312Y-111624037D01*
X103847411Y-111639620D01*
X103847415Y-111639628D01*
X103877151Y-111684132D01*
X104255779Y-112062760D01*
X104300289Y-112092501D01*
X104315877Y-112095600D01*
X104315877Y-111624038D01*
X104495877Y-111624038D01*
X104495877Y-112052148D01*
X104923988Y-111624037D01*
X104495878Y-111624037D01*
X104495877Y-111624038D01*
X104315877Y-111624038D01*
X104315876Y-111624037D01*
X103844312Y-111624037D01*
X91998885Y-111624037D01*
X92009764Y-111583142D01*
X92043161Y-111524817D01*
X92046259Y-111519800D01*
X92101980Y-111435955D01*
X92106290Y-111430020D01*
X92133647Y-111395466D01*
X92140469Y-111387803D01*
X92242545Y-111285727D01*
X92250736Y-111278489D01*
X92260038Y-111271237D01*
X92267886Y-111264718D01*
X92268964Y-111263765D01*
X92275777Y-111254216D01*
X92285277Y-111242995D01*
X92741960Y-110786312D01*
X92760393Y-110772171D01*
X92768170Y-110767681D01*
X92768171Y-110767679D01*
X92768180Y-110767675D01*
X92812446Y-110728853D01*
X92826679Y-110718660D01*
X92828473Y-110717626D01*
X92841094Y-110710350D01*
X92857480Y-110702998D01*
X92884128Y-110694149D01*
X92888689Y-110692771D01*
X92950261Y-110675946D01*
X92952708Y-110675228D01*
X92956206Y-110674202D01*
X92957050Y-110673937D01*
X92963028Y-110671934D01*
X93042564Y-110643590D01*
X93044482Y-110642882D01*
X93046062Y-110642299D01*
X93046091Y-110642288D01*
X93046596Y-110642095D01*
X93058122Y-110634654D01*
X93065944Y-110630152D01*
X93141864Y-110591470D01*
X93228211Y-110505123D01*
X93283650Y-110396318D01*
X93283762Y-110395615D01*
X93302753Y-110275709D01*
X93302753Y-110275706D01*
X93286427Y-110172628D01*
X93283650Y-110155096D01*
X93274170Y-110136490D01*
X93267167Y-110117825D01*
X93266215Y-110114044D01*
X93264587Y-110107580D01*
X93264585Y-110107577D01*
X93264584Y-110107572D01*
X93228392Y-110031303D01*
X93225643Y-110025778D01*
X93225240Y-110025005D01*
X93223177Y-110021225D01*
X93222199Y-110019432D01*
X93190546Y-109963971D01*
X93188300Y-109959778D01*
X93188297Y-109959773D01*
X93175720Y-109934693D01*
X93169326Y-109917889D01*
X93166982Y-109909165D01*
X93165018Y-109901855D01*
X93162163Y-109884601D01*
X93158311Y-109825818D01*
X93155613Y-109815050D01*
X93152948Y-109793430D01*
X93152948Y-109172585D01*
X93155982Y-109149546D01*
X93158310Y-109140856D01*
X93158310Y-109140855D01*
X93158311Y-109140853D01*
X93162162Y-109082072D01*
X93165018Y-109064816D01*
X93169331Y-109048762D01*
X93175723Y-109031970D01*
X93188298Y-109006895D01*
X93190558Y-109002675D01*
X93222200Y-108947236D01*
X93224447Y-108943116D01*
X93225252Y-108941643D01*
X93225635Y-108940907D01*
X93226493Y-108939179D01*
X93228389Y-108935371D01*
X93264586Y-108859093D01*
X93266138Y-108855725D01*
X93266359Y-108855231D01*
X93267550Y-108849703D01*
X93275250Y-108828059D01*
X93283650Y-108811576D01*
X93302753Y-108690965D01*
X93299078Y-108667760D01*
X93283651Y-108570357D01*
X93283650Y-108570355D01*
X93283650Y-108570354D01*
X93228211Y-108461549D01*
X93141864Y-108375202D01*
X93033059Y-108319763D01*
X93033058Y-108319762D01*
X93033057Y-108319762D01*
X93033055Y-108319761D01*
X92912450Y-108300660D01*
X92912446Y-108300660D01*
X92791840Y-108319761D01*
X92791838Y-108319762D01*
X92683033Y-108375201D01*
X92683032Y-108375201D01*
X92683032Y-108375202D01*
X92657931Y-108400302D01*
X92602757Y-108426030D01*
X92543952Y-108410274D01*
X92509033Y-108360404D01*
X92506000Y-108337369D01*
X92506000Y-108094530D01*
X92506001Y-108094528D01*
X92506000Y-108056493D01*
X92506428Y-108047773D01*
X92508122Y-108030572D01*
X92519731Y-107912664D01*
X92523135Y-107895556D01*
X92527874Y-107879935D01*
X92561263Y-107769854D01*
X92567936Y-107753743D01*
X92629863Y-107637879D01*
X92639545Y-107623388D01*
X92725545Y-107518591D01*
X92731392Y-107512139D01*
X92734802Y-107508729D01*
X94739910Y-107508729D01*
X94739910Y-107508734D01*
X94759011Y-107629339D01*
X94759012Y-107629341D01*
X94759012Y-107629342D01*
X94759013Y-107629343D01*
X94814452Y-107738148D01*
X94900799Y-107824495D01*
X95009604Y-107879934D01*
X95009605Y-107879934D01*
X95009607Y-107879935D01*
X95130213Y-107899037D01*
X95130215Y-107899037D01*
X95130217Y-107899037D01*
X95250822Y-107879935D01*
X95250823Y-107879934D01*
X95250826Y-107879934D01*
X95359631Y-107824495D01*
X95445978Y-107738148D01*
X95501417Y-107629343D01*
X95501770Y-107627119D01*
X95520520Y-107508734D01*
X95520520Y-107508729D01*
X95501418Y-107388124D01*
X95501417Y-107388122D01*
X95501417Y-107388121D01*
X95445978Y-107279316D01*
X95359631Y-107192969D01*
X95250826Y-107137530D01*
X95250825Y-107137529D01*
X95250824Y-107137529D01*
X95250822Y-107137528D01*
X95130217Y-107118427D01*
X95130213Y-107118427D01*
X95009607Y-107137528D01*
X95009605Y-107137529D01*
X94900800Y-107192968D01*
X94814451Y-107279317D01*
X94759012Y-107388122D01*
X94759011Y-107388124D01*
X94739910Y-107508729D01*
X92734802Y-107508729D01*
X93246343Y-106997190D01*
X93246343Y-106997189D01*
X93258828Y-106984705D01*
X93258844Y-106984687D01*
X93291962Y-106951569D01*
X93310386Y-106937433D01*
X93318180Y-106932933D01*
X93362448Y-106894108D01*
X93376679Y-106883918D01*
X93391094Y-106875608D01*
X93407480Y-106868256D01*
X93434128Y-106859407D01*
X93438689Y-106858029D01*
X93500261Y-106841204D01*
X93501392Y-106840872D01*
X93506206Y-106839460D01*
X93507050Y-106839195D01*
X93513028Y-106837192D01*
X93592564Y-106808848D01*
X93592687Y-106808802D01*
X93596062Y-106807557D01*
X93596091Y-106807546D01*
X93596596Y-106807353D01*
X93608122Y-106799912D01*
X93615944Y-106795410D01*
X93691864Y-106756728D01*
X93778211Y-106670381D01*
X93833650Y-106561576D01*
X93835114Y-106552338D01*
X93852753Y-106440967D01*
X93852753Y-106440962D01*
X93833651Y-106320357D01*
X93833650Y-106320355D01*
X93833650Y-106320354D01*
X93778211Y-106211549D01*
X93778210Y-106211548D01*
X93775031Y-106205308D01*
X93776346Y-106204637D01*
X93761621Y-106153297D01*
X93786380Y-106097679D01*
X93841097Y-106070988D01*
X93850405Y-106070500D01*
X96895223Y-106070500D01*
X96895226Y-106070501D01*
X96900744Y-106070500D01*
X96900794Y-106070518D01*
X96937632Y-106070517D01*
X96937632Y-106070518D01*
X97035262Y-106070516D01*
X97228117Y-106039966D01*
X97282249Y-106022376D01*
X97413808Y-105979627D01*
X97413813Y-105979625D01*
X97413813Y-105979624D01*
X97413819Y-105979623D01*
X97587795Y-105890973D01*
X97709788Y-105802336D01*
X97745756Y-105776203D01*
X97745757Y-105776201D01*
X97745761Y-105776199D01*
X97797269Y-105724690D01*
X101262866Y-102259091D01*
X101270645Y-102251313D01*
X101270646Y-102251313D01*
X101274553Y-102247405D01*
X101274600Y-102247383D01*
X101300643Y-102221338D01*
X101300644Y-102221339D01*
X101369679Y-102152303D01*
X101484450Y-101994331D01*
X101503049Y-101957828D01*
X101573091Y-101820355D01*
X101573091Y-101820354D01*
X101573094Y-101820349D01*
X101633429Y-101634642D01*
X101663969Y-101441783D01*
X101663965Y-101344152D01*
X101663965Y-101336780D01*
X101663965Y-100826139D01*
X107729354Y-100826139D01*
X107729354Y-100826144D01*
X107748455Y-100946749D01*
X107748456Y-100946751D01*
X107748456Y-100946752D01*
X107748457Y-100946753D01*
X107803896Y-101055558D01*
X107890243Y-101141905D01*
X107999048Y-101197344D01*
X107999049Y-101197344D01*
X107999051Y-101197345D01*
X108119657Y-101216447D01*
X108119659Y-101216447D01*
X108119661Y-101216447D01*
X108240266Y-101197345D01*
X108240267Y-101197344D01*
X108240270Y-101197344D01*
X108349075Y-101141905D01*
X108435422Y-101055558D01*
X108469239Y-100989189D01*
X108677000Y-100989189D01*
X108677000Y-101780810D01*
X108686312Y-101827621D01*
X108686314Y-101827626D01*
X108718137Y-101875253D01*
X108721786Y-101880714D01*
X108774876Y-101916187D01*
X108821694Y-101925500D01*
X108821698Y-101925500D01*
X111553302Y-101925500D01*
X111553306Y-101925500D01*
X111600124Y-101916187D01*
X111653214Y-101880714D01*
X111688687Y-101827624D01*
X111698000Y-101780806D01*
X111698000Y-100989194D01*
X111688687Y-100942376D01*
X111653214Y-100889286D01*
X111648555Y-100886173D01*
X111600126Y-100853814D01*
X111600121Y-100853812D01*
X111553310Y-100844500D01*
X111553306Y-100844500D01*
X108821694Y-100844500D01*
X108821689Y-100844500D01*
X108774878Y-100853812D01*
X108774873Y-100853814D01*
X108721789Y-100889283D01*
X108721783Y-100889289D01*
X108686314Y-100942373D01*
X108686312Y-100942378D01*
X108677000Y-100989189D01*
X108469239Y-100989189D01*
X108490861Y-100946753D01*
X108491555Y-100942376D01*
X108509964Y-100826144D01*
X108509964Y-100826139D01*
X108490862Y-100705534D01*
X108490861Y-100705532D01*
X108490861Y-100705531D01*
X108435422Y-100596726D01*
X108349075Y-100510379D01*
X108240270Y-100454940D01*
X108240269Y-100454939D01*
X108240268Y-100454939D01*
X108240266Y-100454938D01*
X108119661Y-100435837D01*
X108119657Y-100435837D01*
X107999051Y-100454938D01*
X107999049Y-100454939D01*
X107890244Y-100510378D01*
X107803895Y-100596727D01*
X107748456Y-100705532D01*
X107748455Y-100705534D01*
X107729354Y-100826139D01*
X101663965Y-100826139D01*
X101663965Y-99719189D01*
X108677000Y-99719189D01*
X108677000Y-100510810D01*
X108686312Y-100557621D01*
X108686314Y-100557626D01*
X108718137Y-100605253D01*
X108721786Y-100610714D01*
X108774876Y-100646187D01*
X108821694Y-100655500D01*
X108821698Y-100655500D01*
X111553302Y-100655500D01*
X111553306Y-100655500D01*
X111600124Y-100646187D01*
X111653214Y-100610714D01*
X111688687Y-100557624D01*
X111698000Y-100510806D01*
X111698000Y-99719194D01*
X111688687Y-99672376D01*
X111653214Y-99619286D01*
X111648555Y-99616173D01*
X111600126Y-99583814D01*
X111600121Y-99583812D01*
X111553310Y-99574500D01*
X111553306Y-99574500D01*
X108821694Y-99574500D01*
X108821689Y-99574500D01*
X108774878Y-99583812D01*
X108774873Y-99583814D01*
X108721789Y-99619283D01*
X108721783Y-99619289D01*
X108686314Y-99672373D01*
X108686312Y-99672378D01*
X108677000Y-99719189D01*
X101663965Y-99719189D01*
X101663965Y-98680491D01*
X101684787Y-98623283D01*
X101737510Y-98592843D01*
X101797465Y-98603415D01*
X101815893Y-98617554D01*
X101901156Y-98702817D01*
X102009961Y-98758256D01*
X102009962Y-98758256D01*
X102009964Y-98758257D01*
X102130570Y-98777359D01*
X102130572Y-98777359D01*
X102130574Y-98777359D01*
X102251179Y-98758257D01*
X102251180Y-98758256D01*
X102251183Y-98758256D01*
X102359988Y-98702817D01*
X102446335Y-98616470D01*
X102501774Y-98507665D01*
X102501857Y-98507145D01*
X102511036Y-98449189D01*
X108677000Y-98449189D01*
X108677000Y-99240810D01*
X108686312Y-99287621D01*
X108686314Y-99287626D01*
X108718137Y-99335253D01*
X108721786Y-99340714D01*
X108774876Y-99376187D01*
X108821694Y-99385500D01*
X108821698Y-99385500D01*
X111553302Y-99385500D01*
X111553306Y-99385500D01*
X111600124Y-99376187D01*
X111653214Y-99340714D01*
X111688687Y-99287624D01*
X111698000Y-99240806D01*
X111698000Y-98449194D01*
X111688687Y-98402376D01*
X111653214Y-98349286D01*
X111648555Y-98346173D01*
X111600126Y-98313814D01*
X111600121Y-98313812D01*
X111553310Y-98304500D01*
X111553306Y-98304500D01*
X108821694Y-98304500D01*
X108821689Y-98304500D01*
X108774878Y-98313812D01*
X108774873Y-98313814D01*
X108721789Y-98349283D01*
X108721783Y-98349289D01*
X108686314Y-98402373D01*
X108686312Y-98402378D01*
X108677000Y-98449189D01*
X102511036Y-98449189D01*
X102520877Y-98387056D01*
X102520877Y-98387051D01*
X102501775Y-98266446D01*
X102501774Y-98266444D01*
X102501774Y-98266443D01*
X102446335Y-98157638D01*
X102359988Y-98071291D01*
X102251183Y-98015852D01*
X102251182Y-98015851D01*
X102251181Y-98015851D01*
X102251179Y-98015850D01*
X102130574Y-97996749D01*
X102130570Y-97996749D01*
X102009964Y-98015850D01*
X102009962Y-98015851D01*
X101901155Y-98071291D01*
X101824380Y-98148066D01*
X101769204Y-98173794D01*
X101710399Y-98158037D01*
X101675480Y-98108167D01*
X101672638Y-98079320D01*
X101673178Y-98071073D01*
X101673179Y-98071063D01*
X101676035Y-98053799D01*
X101680348Y-98037745D01*
X101686740Y-98020953D01*
X101688409Y-98017626D01*
X101690780Y-98012895D01*
X101699315Y-97995878D01*
X101701575Y-97991658D01*
X101701576Y-97991657D01*
X101733217Y-97936219D01*
X101735464Y-97932099D01*
X101736269Y-97930626D01*
X101736652Y-97929890D01*
X101738025Y-97927129D01*
X101739406Y-97924354D01*
X101775603Y-97848076D01*
X101777155Y-97844708D01*
X101777376Y-97844214D01*
X101778567Y-97838686D01*
X101786267Y-97817042D01*
X101794667Y-97800559D01*
X101813770Y-97679948D01*
X101797482Y-97577107D01*
X101794668Y-97559340D01*
X101794667Y-97559338D01*
X101794667Y-97559337D01*
X101739228Y-97450532D01*
X101652881Y-97364185D01*
X101544076Y-97308746D01*
X101544075Y-97308745D01*
X101544074Y-97308745D01*
X101544072Y-97308744D01*
X101423467Y-97289643D01*
X101423463Y-97289643D01*
X101302857Y-97308744D01*
X101302855Y-97308745D01*
X101194048Y-97364185D01*
X101117273Y-97440960D01*
X101062097Y-97466688D01*
X101003292Y-97450931D01*
X100968373Y-97401061D01*
X100965531Y-97372215D01*
X100966071Y-97363966D01*
X100966071Y-97363958D01*
X100968928Y-97346692D01*
X100973241Y-97330638D01*
X100979633Y-97313846D01*
X100992208Y-97288771D01*
X100994468Y-97284551D01*
X101026110Y-97229112D01*
X101028357Y-97224992D01*
X101029162Y-97223519D01*
X101029545Y-97222783D01*
X101030403Y-97221055D01*
X101032299Y-97217247D01*
X101068496Y-97140969D01*
X101070048Y-97137601D01*
X101070269Y-97137107D01*
X101071460Y-97131579D01*
X101079160Y-97109935D01*
X101087560Y-97093452D01*
X101106663Y-96972841D01*
X101105385Y-96964770D01*
X101087561Y-96852233D01*
X101087560Y-96852231D01*
X101087560Y-96852230D01*
X101083447Y-96844158D01*
X104197374Y-96844158D01*
X104197374Y-96844163D01*
X104216475Y-96964768D01*
X104216476Y-96964770D01*
X104216476Y-96964771D01*
X104216477Y-96964772D01*
X104271916Y-97073577D01*
X104358263Y-97159924D01*
X104467068Y-97215363D01*
X104467069Y-97215363D01*
X104467071Y-97215364D01*
X104587677Y-97234466D01*
X104587679Y-97234466D01*
X104587681Y-97234466D01*
X104708286Y-97215364D01*
X104708287Y-97215363D01*
X104708290Y-97215363D01*
X104779285Y-97179189D01*
X108677000Y-97179189D01*
X108677000Y-97970810D01*
X108686312Y-98017621D01*
X108686314Y-98017626D01*
X108716162Y-98062297D01*
X108721786Y-98070714D01*
X108774876Y-98106187D01*
X108821694Y-98115500D01*
X108821698Y-98115500D01*
X111553302Y-98115500D01*
X111553306Y-98115500D01*
X111600124Y-98106187D01*
X111653214Y-98070714D01*
X111688687Y-98017624D01*
X111698000Y-97970806D01*
X111698000Y-97179194D01*
X111688687Y-97132376D01*
X111653214Y-97079286D01*
X111648555Y-97076173D01*
X111600126Y-97043814D01*
X111600121Y-97043812D01*
X111553310Y-97034500D01*
X111553306Y-97034500D01*
X108821694Y-97034500D01*
X108821689Y-97034500D01*
X108774878Y-97043812D01*
X108774873Y-97043814D01*
X108721789Y-97079283D01*
X108721783Y-97079289D01*
X108686314Y-97132373D01*
X108686312Y-97132378D01*
X108677000Y-97179189D01*
X104779285Y-97179189D01*
X104817095Y-97159924D01*
X104903442Y-97073577D01*
X104958881Y-96964772D01*
X104974459Y-96866421D01*
X104977984Y-96844163D01*
X104977984Y-96844158D01*
X104958882Y-96723553D01*
X104958881Y-96723551D01*
X104958881Y-96723550D01*
X104903442Y-96614745D01*
X104817095Y-96528398D01*
X104708290Y-96472959D01*
X104708289Y-96472958D01*
X104708288Y-96472958D01*
X104708286Y-96472957D01*
X104587681Y-96453856D01*
X104587677Y-96453856D01*
X104467071Y-96472957D01*
X104467069Y-96472958D01*
X104358264Y-96528397D01*
X104271915Y-96614746D01*
X104216476Y-96723551D01*
X104216475Y-96723553D01*
X104197374Y-96844158D01*
X101083447Y-96844158D01*
X101032121Y-96743425D01*
X100945774Y-96657078D01*
X100836969Y-96601639D01*
X100836968Y-96601638D01*
X100836967Y-96601638D01*
X100836965Y-96601637D01*
X100716360Y-96582536D01*
X100716359Y-96582536D01*
X100716358Y-96582536D01*
X100710852Y-96583407D01*
X100682846Y-96587843D01*
X100623085Y-96576225D01*
X100584774Y-96528911D01*
X100581022Y-96486015D01*
X100598947Y-96372841D01*
X100598947Y-96372838D01*
X100579845Y-96252233D01*
X100579844Y-96252231D01*
X100579844Y-96252230D01*
X100524405Y-96143425D01*
X100438058Y-96057078D01*
X100391780Y-96033498D01*
X103386713Y-96033498D01*
X103386713Y-96033503D01*
X103405814Y-96154108D01*
X103405815Y-96154110D01*
X103405815Y-96154111D01*
X103405816Y-96154112D01*
X103461255Y-96262917D01*
X103547602Y-96349264D01*
X103656407Y-96404703D01*
X103656408Y-96404703D01*
X103656410Y-96404704D01*
X103777016Y-96423806D01*
X103777018Y-96423806D01*
X103777020Y-96423806D01*
X103897625Y-96404704D01*
X103897626Y-96404703D01*
X103897629Y-96404703D01*
X104006434Y-96349264D01*
X104092781Y-96262917D01*
X104148220Y-96154112D01*
X104151669Y-96132341D01*
X104167323Y-96033503D01*
X104167323Y-96033498D01*
X104148221Y-95912893D01*
X104148220Y-95912891D01*
X104148220Y-95912890D01*
X104146334Y-95909189D01*
X108677000Y-95909189D01*
X108677000Y-96700810D01*
X108686312Y-96747621D01*
X108686314Y-96747626D01*
X108721783Y-96800710D01*
X108721786Y-96800714D01*
X108774876Y-96836187D01*
X108821694Y-96845500D01*
X108821698Y-96845500D01*
X111553302Y-96845500D01*
X111553306Y-96845500D01*
X111600124Y-96836187D01*
X111653214Y-96800714D01*
X111688687Y-96747624D01*
X111698000Y-96700806D01*
X111698000Y-95909194D01*
X111688687Y-95862376D01*
X111653214Y-95809286D01*
X111648555Y-95806173D01*
X111600126Y-95773814D01*
X111600121Y-95773812D01*
X111553310Y-95764500D01*
X111553306Y-95764500D01*
X108821694Y-95764500D01*
X108821689Y-95764500D01*
X108774878Y-95773812D01*
X108774873Y-95773814D01*
X108721789Y-95809283D01*
X108721783Y-95809289D01*
X108686314Y-95862373D01*
X108686312Y-95862378D01*
X108677000Y-95909189D01*
X104146334Y-95909189D01*
X104092781Y-95804085D01*
X104006434Y-95717738D01*
X103897629Y-95662299D01*
X103897628Y-95662298D01*
X103897627Y-95662298D01*
X103897625Y-95662297D01*
X103777020Y-95643196D01*
X103777016Y-95643196D01*
X103656410Y-95662297D01*
X103656408Y-95662298D01*
X103547603Y-95717737D01*
X103461254Y-95804086D01*
X103405815Y-95912891D01*
X103405814Y-95912893D01*
X103386713Y-96033498D01*
X100391780Y-96033498D01*
X100329253Y-96001639D01*
X100329252Y-96001638D01*
X100329251Y-96001638D01*
X100329249Y-96001637D01*
X100208644Y-95982536D01*
X100208640Y-95982536D01*
X100088035Y-96001637D01*
X100088029Y-96001639D01*
X100069435Y-96011113D01*
X100050769Y-96018117D01*
X100040523Y-96020697D01*
X100040518Y-96020699D01*
X99964221Y-96056902D01*
X99958623Y-96059690D01*
X99958603Y-96059700D01*
X99958253Y-96059882D01*
X99957849Y-96060093D01*
X99952352Y-96063095D01*
X99896927Y-96094728D01*
X99892709Y-96096987D01*
X99867636Y-96109561D01*
X99850831Y-96115957D01*
X99834785Y-96120268D01*
X99817516Y-96123125D01*
X99758754Y-96126977D01*
X99758750Y-96126978D01*
X99747994Y-96129673D01*
X99726365Y-96132341D01*
X99418655Y-96132341D01*
X99418635Y-96132339D01*
X99404652Y-96132339D01*
X99404539Y-96132298D01*
X99270120Y-96132303D01*
X99183709Y-96145993D01*
X99077260Y-96162858D01*
X98891556Y-96223207D01*
X98891544Y-96223212D01*
X98717586Y-96311859D01*
X98559610Y-96426648D01*
X98499215Y-96487051D01*
X98499211Y-96487055D01*
X96607310Y-98378955D01*
X96600838Y-98384821D01*
X96495905Y-98470934D01*
X96481397Y-98480627D01*
X96365553Y-98542543D01*
X96349434Y-98549219D01*
X96223739Y-98587345D01*
X96206627Y-98590749D01*
X96071322Y-98604071D01*
X96062601Y-98604499D01*
X96017605Y-98604499D01*
X96017593Y-98604500D01*
X92279615Y-98604500D01*
X92246046Y-98597926D01*
X92221920Y-98588100D01*
X92209794Y-98582047D01*
X92164594Y-98555001D01*
X92155143Y-98548483D01*
X92126474Y-98525849D01*
X92126455Y-98525833D01*
X92102781Y-98507145D01*
X92095619Y-98500839D01*
X92037435Y-98443785D01*
X92032052Y-98438016D01*
X91968256Y-98363267D01*
X91968238Y-98363248D01*
X91964744Y-98359819D01*
X91947433Y-98342828D01*
X91944258Y-98340219D01*
X91940380Y-98337303D01*
X91932885Y-98331665D01*
X91928609Y-98330055D01*
X91910535Y-98320769D01*
X91900127Y-98313815D01*
X91900126Y-98313814D01*
X91900124Y-98313813D01*
X91900122Y-98313812D01*
X91900119Y-98313811D01*
X91876259Y-98309065D01*
X91862260Y-98305066D01*
X91858758Y-98303747D01*
X91858753Y-98303746D01*
X91849870Y-98302688D01*
X91849864Y-98302688D01*
X91830079Y-98304231D01*
X91823159Y-98304500D01*
X89121689Y-98304500D01*
X89074878Y-98313812D01*
X89074873Y-98313814D01*
X89021789Y-98349283D01*
X89021783Y-98349289D01*
X88986314Y-98402373D01*
X88986312Y-98402378D01*
X88977000Y-98449189D01*
X88977000Y-99240810D01*
X88986312Y-99287621D01*
X88986314Y-99287626D01*
X89018137Y-99335253D01*
X89021786Y-99340714D01*
X89074876Y-99376187D01*
X89121694Y-99385500D01*
X91794245Y-99385500D01*
X91810698Y-99387033D01*
X91814144Y-99387682D01*
X91818234Y-99388083D01*
X91832458Y-99388862D01*
X91836806Y-99387843D01*
X91849005Y-99386434D01*
X91848956Y-99385928D01*
X91853297Y-99385500D01*
X91853306Y-99385500D01*
X91900124Y-99376187D01*
X91900126Y-99376185D01*
X91900507Y-99376028D01*
X91908325Y-99371443D01*
X91909582Y-99370801D01*
X91909585Y-99370801D01*
X91917562Y-99366732D01*
X91932979Y-99354567D01*
X91938659Y-99350439D01*
X91953215Y-99340713D01*
X91959415Y-99334513D01*
X91960155Y-99335253D01*
X91965142Y-99329825D01*
X91965094Y-99329775D01*
X91965908Y-99328991D01*
X91967260Y-99327520D01*
X91967337Y-99327458D01*
X91968246Y-99326742D01*
X92032053Y-99251976D01*
X92037420Y-99246226D01*
X92095628Y-99189148D01*
X92102777Y-99182854D01*
X92155151Y-99141506D01*
X92164585Y-99135000D01*
X92209799Y-99107946D01*
X92221914Y-99101898D01*
X92246046Y-99092071D01*
X92279609Y-99085500D01*
X96124019Y-99085500D01*
X96124197Y-99085481D01*
X96138469Y-99085481D01*
X96195675Y-99106303D01*
X96226115Y-99159026D01*
X96215543Y-99218981D01*
X96201400Y-99237413D01*
X95816751Y-99622063D01*
X95816749Y-99622065D01*
X95789848Y-99648965D01*
X95783379Y-99654828D01*
X95678447Y-99740946D01*
X95663940Y-99750639D01*
X95548096Y-99812561D01*
X95531978Y-99819238D01*
X95406275Y-99857372D01*
X95389164Y-99860776D01*
X95284352Y-99871101D01*
X95254210Y-99874071D01*
X95245487Y-99874500D01*
X92279615Y-99874500D01*
X92246046Y-99867926D01*
X92221920Y-99858100D01*
X92209794Y-99852047D01*
X92164594Y-99825001D01*
X92155143Y-99818483D01*
X92126474Y-99795849D01*
X92126455Y-99795833D01*
X92102781Y-99777145D01*
X92095619Y-99770839D01*
X92037435Y-99713785D01*
X92032052Y-99708016D01*
X91968256Y-99633267D01*
X91968238Y-99633248D01*
X91964744Y-99629819D01*
X91947433Y-99612828D01*
X91944258Y-99610219D01*
X91940380Y-99607303D01*
X91932885Y-99601665D01*
X91928609Y-99600055D01*
X91910535Y-99590769D01*
X91900127Y-99583815D01*
X91900126Y-99583814D01*
X91900124Y-99583813D01*
X91900122Y-99583812D01*
X91900119Y-99583811D01*
X91876259Y-99579065D01*
X91862260Y-99575066D01*
X91858758Y-99573747D01*
X91858753Y-99573746D01*
X91849870Y-99572688D01*
X91849864Y-99572688D01*
X91830079Y-99574231D01*
X91823159Y-99574500D01*
X89121689Y-99574500D01*
X89074878Y-99583812D01*
X89074873Y-99583814D01*
X89021789Y-99619283D01*
X89021783Y-99619289D01*
X88986314Y-99672373D01*
X88986312Y-99672378D01*
X88977000Y-99719189D01*
X88977000Y-100510810D01*
X88986312Y-100557621D01*
X88986314Y-100557626D01*
X89018137Y-100605253D01*
X89021786Y-100610714D01*
X89074876Y-100646187D01*
X89121694Y-100655500D01*
X91794245Y-100655500D01*
X91810698Y-100657033D01*
X91814144Y-100657682D01*
X91818234Y-100658083D01*
X91832458Y-100658862D01*
X91836806Y-100657843D01*
X91849005Y-100656434D01*
X91848956Y-100655928D01*
X91853297Y-100655500D01*
X91853306Y-100655500D01*
X91900124Y-100646187D01*
X91900126Y-100646185D01*
X91900507Y-100646028D01*
X91908325Y-100641443D01*
X91909582Y-100640801D01*
X91909585Y-100640801D01*
X91917562Y-100636732D01*
X91932979Y-100624567D01*
X91938659Y-100620439D01*
X91951397Y-100611928D01*
X91953214Y-100610714D01*
X91953215Y-100610713D01*
X91959415Y-100604513D01*
X91960155Y-100605253D01*
X91965142Y-100599825D01*
X91965094Y-100599775D01*
X91965908Y-100598991D01*
X91967260Y-100597520D01*
X91967337Y-100597458D01*
X91968246Y-100596742D01*
X92032053Y-100521976D01*
X92037420Y-100516226D01*
X92095628Y-100459148D01*
X92102777Y-100452854D01*
X92155151Y-100411506D01*
X92164585Y-100405000D01*
X92209799Y-100377946D01*
X92221914Y-100371898D01*
X92246046Y-100362071D01*
X92279609Y-100355500D01*
X95207315Y-100355500D01*
X95207318Y-100355501D01*
X95212841Y-100355500D01*
X95212880Y-100355514D01*
X95249725Y-100355513D01*
X95249725Y-100355514D01*
X95320982Y-100355512D01*
X95378189Y-100376332D01*
X95408630Y-100429055D01*
X95398060Y-100489010D01*
X95383916Y-100507445D01*
X94972407Y-100918954D01*
X94965934Y-100924820D01*
X94861002Y-101010933D01*
X94846494Y-101020626D01*
X94730650Y-101082541D01*
X94714531Y-101089217D01*
X94588836Y-101127342D01*
X94571724Y-101130746D01*
X94436389Y-101144071D01*
X94427668Y-101144499D01*
X94382702Y-101144499D01*
X94382690Y-101144500D01*
X92279615Y-101144500D01*
X92246046Y-101137926D01*
X92221920Y-101128100D01*
X92209794Y-101122047D01*
X92164594Y-101095001D01*
X92155143Y-101088483D01*
X92126474Y-101065849D01*
X92126455Y-101065833D01*
X92102781Y-101047145D01*
X92095619Y-101040839D01*
X92037435Y-100983785D01*
X92032052Y-100978016D01*
X91968256Y-100903267D01*
X91968238Y-100903248D01*
X91964744Y-100899819D01*
X91947433Y-100882828D01*
X91944258Y-100880219D01*
X91940380Y-100877303D01*
X91932885Y-100871665D01*
X91928609Y-100870055D01*
X91910535Y-100860769D01*
X91900127Y-100853815D01*
X91900126Y-100853814D01*
X91900124Y-100853813D01*
X91900122Y-100853812D01*
X91900119Y-100853811D01*
X91876259Y-100849065D01*
X91862260Y-100845066D01*
X91858758Y-100843747D01*
X91858753Y-100843746D01*
X91849870Y-100842688D01*
X91849864Y-100842688D01*
X91830079Y-100844231D01*
X91823159Y-100844500D01*
X89121689Y-100844500D01*
X89074878Y-100853812D01*
X89074873Y-100853814D01*
X89021789Y-100889283D01*
X89021783Y-100889289D01*
X88986314Y-100942373D01*
X88986312Y-100942378D01*
X88977000Y-100989189D01*
X88977000Y-101780810D01*
X88986312Y-101827621D01*
X88986314Y-101827626D01*
X89018137Y-101875253D01*
X89021786Y-101880714D01*
X89074876Y-101916187D01*
X89121694Y-101925500D01*
X91794245Y-101925500D01*
X91810698Y-101927033D01*
X91814144Y-101927682D01*
X91818234Y-101928083D01*
X91832458Y-101928862D01*
X91836806Y-101927843D01*
X91849005Y-101926434D01*
X91848956Y-101925928D01*
X91853297Y-101925500D01*
X91853306Y-101925500D01*
X91900124Y-101916187D01*
X91900126Y-101916185D01*
X91900507Y-101916028D01*
X91908325Y-101911443D01*
X91909582Y-101910801D01*
X91909585Y-101910801D01*
X91917562Y-101906732D01*
X91932979Y-101894567D01*
X91938659Y-101890439D01*
X91939132Y-101890122D01*
X91953214Y-101880714D01*
X91953215Y-101880713D01*
X91959415Y-101874513D01*
X91960155Y-101875253D01*
X91965142Y-101869825D01*
X91965094Y-101869775D01*
X91965908Y-101868991D01*
X91967260Y-101867520D01*
X91967337Y-101867458D01*
X91968246Y-101866742D01*
X92032053Y-101791976D01*
X92037420Y-101786226D01*
X92095628Y-101729148D01*
X92102777Y-101722854D01*
X92155151Y-101681506D01*
X92164585Y-101675000D01*
X92209799Y-101647946D01*
X92221914Y-101641898D01*
X92246046Y-101632071D01*
X92279609Y-101625500D01*
X94489097Y-101625500D01*
X94489303Y-101625478D01*
X94529889Y-101625480D01*
X94722744Y-101594941D01*
X94908447Y-101534608D01*
X95082425Y-101445968D01*
X95230746Y-101338210D01*
X95289265Y-101321432D01*
X95344881Y-101346195D01*
X95362353Y-101369808D01*
X95400964Y-101445585D01*
X95487311Y-101531932D01*
X95596116Y-101587371D01*
X95596117Y-101587371D01*
X95596119Y-101587372D01*
X95716725Y-101606474D01*
X95716727Y-101606474D01*
X95716729Y-101606474D01*
X95837334Y-101587372D01*
X95837335Y-101587371D01*
X95837338Y-101587371D01*
X95946143Y-101531932D01*
X96032490Y-101445585D01*
X96087929Y-101336780D01*
X96088813Y-101331202D01*
X96107032Y-101216171D01*
X96107032Y-101216166D01*
X96086834Y-101088639D01*
X96088213Y-101088420D01*
X96090086Y-101034811D01*
X96130823Y-100989569D01*
X96191110Y-100981097D01*
X96198343Y-100983035D01*
X96319552Y-101002233D01*
X96319554Y-101002233D01*
X96319556Y-101002233D01*
X96440161Y-100983131D01*
X96440162Y-100983130D01*
X96440165Y-100983130D01*
X96548970Y-100927691D01*
X96635317Y-100841344D01*
X96690756Y-100732539D01*
X96695034Y-100705534D01*
X96709859Y-100611930D01*
X96709859Y-100611925D01*
X96690757Y-100491320D01*
X96690756Y-100491318D01*
X96690756Y-100491317D01*
X96635317Y-100382512D01*
X96548970Y-100296165D01*
X96476911Y-100259449D01*
X96435391Y-100214924D01*
X96432205Y-100154128D01*
X96454381Y-100117218D01*
X98049717Y-98521882D01*
X98104892Y-98496155D01*
X98163697Y-98511911D01*
X98191949Y-98544411D01*
X98195840Y-98552048D01*
X98228665Y-98616470D01*
X98315012Y-98702817D01*
X98423817Y-98758256D01*
X98423818Y-98758256D01*
X98423820Y-98758257D01*
X98544426Y-98777359D01*
X98544428Y-98777359D01*
X98544430Y-98777359D01*
X98665035Y-98758257D01*
X98665036Y-98758256D01*
X98665039Y-98758256D01*
X98773844Y-98702817D01*
X98860191Y-98616470D01*
X98915630Y-98507665D01*
X98915713Y-98507145D01*
X98934733Y-98387056D01*
X98934733Y-98387051D01*
X98915631Y-98266446D01*
X98915630Y-98266444D01*
X98915630Y-98266443D01*
X98860191Y-98157638D01*
X98786802Y-98084249D01*
X98761075Y-98029075D01*
X98776831Y-97970270D01*
X98826701Y-97935351D01*
X98841010Y-97932747D01*
X98889438Y-97927979D01*
X98948411Y-97943096D01*
X98954750Y-97947861D01*
X98988561Y-97975717D01*
X99000737Y-97984842D01*
X99002515Y-97986051D01*
X99015488Y-97994025D01*
X99073926Y-98026339D01*
X99081931Y-98030485D01*
X99083076Y-98031039D01*
X99087771Y-98032124D01*
X99108135Y-98039538D01*
X99130924Y-98051150D01*
X99232431Y-98067227D01*
X99251534Y-98070253D01*
X99251535Y-98070253D01*
X99251537Y-98070253D01*
X99372142Y-98051151D01*
X99372143Y-98051150D01*
X99372146Y-98051150D01*
X99480951Y-97995711D01*
X99567298Y-97909364D01*
X99622737Y-97800559D01*
X99639027Y-97697712D01*
X99641840Y-97679950D01*
X99641840Y-97679945D01*
X99621642Y-97552418D01*
X99623205Y-97552170D01*
X99625053Y-97499103D01*
X99665785Y-97453857D01*
X99726072Y-97445378D01*
X99734164Y-97447546D01*
X99734475Y-97447595D01*
X99734477Y-97447596D01*
X99822281Y-97461502D01*
X99855087Y-97466699D01*
X99855088Y-97466699D01*
X99855090Y-97466699D01*
X99975695Y-97447597D01*
X99975696Y-97447596D01*
X99975699Y-97447596D01*
X100084504Y-97392157D01*
X100170851Y-97305810D01*
X100226290Y-97197005D01*
X100226290Y-97197002D01*
X100229334Y-97191029D01*
X100273859Y-97149509D01*
X100334655Y-97146323D01*
X100383275Y-97182961D01*
X100389040Y-97193279D01*
X100400412Y-97217244D01*
X100403166Y-97222772D01*
X100403221Y-97222883D01*
X100403600Y-97223609D01*
X100406595Y-97229097D01*
X100438244Y-97284549D01*
X100440504Y-97288769D01*
X100453078Y-97313843D01*
X100459473Y-97330647D01*
X100463785Y-97346697D01*
X100466642Y-97363966D01*
X100468490Y-97392157D01*
X100470495Y-97422731D01*
X100473190Y-97433492D01*
X100475858Y-97455115D01*
X100475858Y-98551689D01*
X100475857Y-98551703D01*
X100475857Y-98596902D01*
X100475429Y-98605623D01*
X100462127Y-98740723D01*
X100458723Y-98757836D01*
X100420595Y-98883534D01*
X100413918Y-98899654D01*
X100351999Y-99015499D01*
X100342306Y-99030006D01*
X100256247Y-99134868D01*
X100250382Y-99141338D01*
X100223421Y-99168300D01*
X100223420Y-99168301D01*
X100223418Y-99168302D01*
X98409038Y-100982682D01*
X96594657Y-102797063D01*
X96594656Y-102797064D01*
X96594654Y-102797065D01*
X96579469Y-102812251D01*
X96579466Y-102812253D01*
X96567756Y-102823962D01*
X96561288Y-102829824D01*
X96456350Y-102915948D01*
X96441844Y-102925641D01*
X96326000Y-102987564D01*
X96309882Y-102994241D01*
X96184181Y-103032376D01*
X96167069Y-103035780D01*
X96070386Y-103045305D01*
X96032156Y-103049071D01*
X96023433Y-103049500D01*
X92087000Y-103049500D01*
X92029792Y-103028678D01*
X91999352Y-102975955D01*
X91998000Y-102960500D01*
X91998000Y-102276139D01*
X94265036Y-102276139D01*
X94265036Y-102276144D01*
X94284137Y-102396749D01*
X94284138Y-102396751D01*
X94284138Y-102396752D01*
X94284139Y-102396753D01*
X94339578Y-102505558D01*
X94425925Y-102591905D01*
X94534730Y-102647344D01*
X94534731Y-102647344D01*
X94534733Y-102647345D01*
X94655339Y-102666447D01*
X94655341Y-102666447D01*
X94655343Y-102666447D01*
X94775948Y-102647345D01*
X94775949Y-102647344D01*
X94775952Y-102647344D01*
X94884757Y-102591905D01*
X94971104Y-102505558D01*
X95026543Y-102396753D01*
X95042274Y-102297437D01*
X95045646Y-102276144D01*
X95045646Y-102276139D01*
X95026544Y-102155534D01*
X95026543Y-102155532D01*
X95026543Y-102155531D01*
X94971104Y-102046726D01*
X94884757Y-101960379D01*
X94775952Y-101904940D01*
X94775951Y-101904939D01*
X94775950Y-101904939D01*
X94775948Y-101904938D01*
X94655343Y-101885837D01*
X94655339Y-101885837D01*
X94534733Y-101904938D01*
X94534731Y-101904939D01*
X94425926Y-101960378D01*
X94339577Y-102046727D01*
X94284138Y-102155532D01*
X94284137Y-102155534D01*
X94265036Y-102276139D01*
X91998000Y-102276139D01*
X91998000Y-102259197D01*
X91997999Y-102259189D01*
X91995655Y-102247406D01*
X91988687Y-102212376D01*
X91953214Y-102159286D01*
X91948555Y-102156173D01*
X91900126Y-102123814D01*
X91900121Y-102123812D01*
X91853310Y-102114500D01*
X91853306Y-102114500D01*
X89180755Y-102114500D01*
X89164307Y-102112967D01*
X89160829Y-102112313D01*
X89156744Y-102111913D01*
X89142557Y-102111136D01*
X89142556Y-102111136D01*
X89142555Y-102111136D01*
X89138195Y-102112157D01*
X89125994Y-102113566D01*
X89126044Y-102114072D01*
X89121692Y-102114500D01*
X89074874Y-102123813D01*
X89074486Y-102123974D01*
X89066675Y-102128554D01*
X89057456Y-102133255D01*
X89057448Y-102133260D01*
X89042011Y-102145438D01*
X89036341Y-102149560D01*
X89021785Y-102159286D01*
X89015590Y-102165481D01*
X89014921Y-102164812D01*
X89009880Y-102170196D01*
X89009905Y-102170222D01*
X89009416Y-102170692D01*
X89007764Y-102172457D01*
X89006757Y-102173251D01*
X88942945Y-102248017D01*
X88937562Y-102253785D01*
X88932151Y-102259091D01*
X88876726Y-102284278D01*
X88855916Y-102283449D01*
X88737502Y-102264695D01*
X88737498Y-102264695D01*
X88616892Y-102283796D01*
X88616890Y-102283797D01*
X88508085Y-102339236D01*
X88421736Y-102425585D01*
X88366297Y-102534390D01*
X88366296Y-102534392D01*
X88347195Y-102654997D01*
X88347195Y-102655002D01*
X88366296Y-102775607D01*
X88366297Y-102775609D01*
X88366297Y-102775610D01*
X88366298Y-102775611D01*
X88421737Y-102884416D01*
X88434889Y-102897568D01*
X88460617Y-102952743D01*
X88444861Y-103011548D01*
X88394991Y-103046467D01*
X88371956Y-103049500D01*
X88256949Y-103049500D01*
X88256929Y-103049498D01*
X88242937Y-103049498D01*
X88242849Y-103049466D01*
X88108414Y-103049471D01*
X87915559Y-103080025D01*
X87915551Y-103080027D01*
X87814505Y-103112863D01*
X87753663Y-103110740D01*
X87708419Y-103070006D01*
X87698000Y-103028220D01*
X87698000Y-102259197D01*
X87697999Y-102259189D01*
X87695655Y-102247406D01*
X87688687Y-102212376D01*
X87653214Y-102159286D01*
X87648555Y-102156173D01*
X87600126Y-102123814D01*
X87600121Y-102123812D01*
X87553310Y-102114500D01*
X87553306Y-102114500D01*
X84821694Y-102114500D01*
X84821689Y-102114500D01*
X84774878Y-102123812D01*
X84774876Y-102123813D01*
X84726445Y-102156173D01*
X84667309Y-102170642D01*
X84612709Y-102143715D01*
X84588190Y-102087991D01*
X84588000Y-102082187D01*
X84588000Y-101957826D01*
X84608822Y-101900620D01*
X84661545Y-101870180D01*
X84721500Y-101880752D01*
X84726431Y-101883818D01*
X84774876Y-101916187D01*
X84821694Y-101925500D01*
X84821698Y-101925500D01*
X87553302Y-101925500D01*
X87553306Y-101925500D01*
X87600124Y-101916187D01*
X87653214Y-101880714D01*
X87688687Y-101827624D01*
X87698000Y-101780806D01*
X87698000Y-100989194D01*
X87688687Y-100942376D01*
X87653214Y-100889286D01*
X87648555Y-100886173D01*
X87600126Y-100853814D01*
X87600121Y-100853812D01*
X87553310Y-100844500D01*
X87553306Y-100844500D01*
X84821694Y-100844500D01*
X84821689Y-100844500D01*
X84774878Y-100853812D01*
X84774876Y-100853813D01*
X84726445Y-100886173D01*
X84667309Y-100900642D01*
X84612709Y-100873715D01*
X84588190Y-100817991D01*
X84588000Y-100812189D01*
X84588000Y-100687826D01*
X84608822Y-100630620D01*
X84661545Y-100600180D01*
X84721500Y-100610752D01*
X84726431Y-100613818D01*
X84774876Y-100646187D01*
X84821694Y-100655500D01*
X84821698Y-100655500D01*
X87553302Y-100655500D01*
X87553306Y-100655500D01*
X87600124Y-100646187D01*
X87653214Y-100610714D01*
X87688687Y-100557624D01*
X87698000Y-100510806D01*
X87698000Y-99719194D01*
X87688687Y-99672376D01*
X87653214Y-99619286D01*
X87648555Y-99616173D01*
X87600126Y-99583814D01*
X87600121Y-99583812D01*
X87553310Y-99574500D01*
X87553306Y-99574500D01*
X84821694Y-99574500D01*
X84821689Y-99574500D01*
X84774878Y-99583812D01*
X84774876Y-99583813D01*
X84726445Y-99616173D01*
X84667309Y-99630642D01*
X84612709Y-99603715D01*
X84588190Y-99547991D01*
X84588000Y-99542191D01*
X84588000Y-99417826D01*
X84608822Y-99360620D01*
X84661545Y-99330180D01*
X84721500Y-99340752D01*
X84726431Y-99343818D01*
X84774876Y-99376187D01*
X84821694Y-99385500D01*
X84821698Y-99385500D01*
X87553302Y-99385500D01*
X87553306Y-99385500D01*
X87600124Y-99376187D01*
X87653214Y-99340714D01*
X87688687Y-99287624D01*
X87698000Y-99240806D01*
X87698000Y-98449194D01*
X87688687Y-98402376D01*
X87653214Y-98349286D01*
X87648555Y-98346173D01*
X87600126Y-98313814D01*
X87600121Y-98313812D01*
X87553310Y-98304500D01*
X87553306Y-98304500D01*
X84821694Y-98304500D01*
X84821689Y-98304500D01*
X84774878Y-98313812D01*
X84774876Y-98313813D01*
X84726445Y-98346173D01*
X84667309Y-98360642D01*
X84612709Y-98333715D01*
X84588190Y-98277991D01*
X84588000Y-98272194D01*
X84588000Y-98147825D01*
X84608822Y-98090620D01*
X84661545Y-98060180D01*
X84721500Y-98070752D01*
X84726431Y-98073818D01*
X84774876Y-98106187D01*
X84821694Y-98115500D01*
X84821698Y-98115500D01*
X87553302Y-98115500D01*
X87553306Y-98115500D01*
X87600124Y-98106187D01*
X87653214Y-98070714D01*
X87688687Y-98017624D01*
X87698000Y-97970806D01*
X87698000Y-97179194D01*
X87697999Y-97179189D01*
X88977000Y-97179189D01*
X88977000Y-97970810D01*
X88986312Y-98017621D01*
X88986314Y-98017626D01*
X89016162Y-98062297D01*
X89021786Y-98070714D01*
X89074876Y-98106187D01*
X89121694Y-98115500D01*
X89121698Y-98115500D01*
X91853302Y-98115500D01*
X91853306Y-98115500D01*
X91900124Y-98106187D01*
X91953214Y-98070714D01*
X91988687Y-98017624D01*
X91998000Y-97970806D01*
X91998000Y-97697712D01*
X94843463Y-97697712D01*
X94843463Y-97697717D01*
X94862564Y-97818322D01*
X94862565Y-97818324D01*
X94862565Y-97818325D01*
X94862566Y-97818326D01*
X94918005Y-97927131D01*
X95004352Y-98013478D01*
X95113157Y-98068917D01*
X95113158Y-98068917D01*
X95113160Y-98068918D01*
X95233766Y-98088020D01*
X95233768Y-98088020D01*
X95233770Y-98088020D01*
X95354375Y-98068918D01*
X95354376Y-98068917D01*
X95354379Y-98068917D01*
X95463184Y-98013478D01*
X95549531Y-97927131D01*
X95604970Y-97818326D01*
X95607785Y-97800558D01*
X95624073Y-97697717D01*
X95624073Y-97697712D01*
X95604971Y-97577107D01*
X95604970Y-97577105D01*
X95604970Y-97577104D01*
X95549531Y-97468299D01*
X95463184Y-97381952D01*
X95354379Y-97326513D01*
X95354378Y-97326512D01*
X95354377Y-97326512D01*
X95354375Y-97326511D01*
X95233770Y-97307410D01*
X95233766Y-97307410D01*
X95113160Y-97326511D01*
X95113158Y-97326512D01*
X95004353Y-97381951D01*
X94918004Y-97468300D01*
X94862565Y-97577105D01*
X94862564Y-97577107D01*
X94843463Y-97697712D01*
X91998000Y-97697712D01*
X91998000Y-97179194D01*
X91988687Y-97132376D01*
X91953214Y-97079286D01*
X91948555Y-97076173D01*
X91900126Y-97043814D01*
X91900121Y-97043812D01*
X91853310Y-97034500D01*
X91853306Y-97034500D01*
X89121694Y-97034500D01*
X89121689Y-97034500D01*
X89074878Y-97043812D01*
X89074873Y-97043814D01*
X89021789Y-97079283D01*
X89021783Y-97079289D01*
X88986314Y-97132373D01*
X88986312Y-97132378D01*
X88977000Y-97179189D01*
X87697999Y-97179189D01*
X87688687Y-97132376D01*
X87653214Y-97079286D01*
X87648555Y-97076173D01*
X87600126Y-97043814D01*
X87600121Y-97043812D01*
X87553310Y-97034500D01*
X87553306Y-97034500D01*
X84821694Y-97034500D01*
X84821689Y-97034500D01*
X84774878Y-97043812D01*
X84774876Y-97043813D01*
X84726445Y-97076173D01*
X84667309Y-97090642D01*
X84612709Y-97063715D01*
X84588190Y-97007991D01*
X84588000Y-97002196D01*
X84588000Y-96877825D01*
X84608822Y-96820620D01*
X84661545Y-96790180D01*
X84721500Y-96800752D01*
X84726431Y-96803818D01*
X84774876Y-96836187D01*
X84821694Y-96845500D01*
X84821698Y-96845500D01*
X87553302Y-96845500D01*
X87553306Y-96845500D01*
X87600124Y-96836187D01*
X87653214Y-96800714D01*
X87688687Y-96747624D01*
X87698000Y-96700806D01*
X87698000Y-95909194D01*
X87697999Y-95909189D01*
X88977000Y-95909189D01*
X88977000Y-96700810D01*
X88986312Y-96747621D01*
X88986314Y-96747626D01*
X89021783Y-96800710D01*
X89021786Y-96800714D01*
X89074876Y-96836187D01*
X89121694Y-96845500D01*
X89121698Y-96845500D01*
X91853302Y-96845500D01*
X91853306Y-96845500D01*
X91900124Y-96836187D01*
X91953214Y-96800714D01*
X91988687Y-96747624D01*
X91990083Y-96740605D01*
X95800570Y-96740605D01*
X95800570Y-96740610D01*
X95819671Y-96861215D01*
X95819672Y-96861217D01*
X95819672Y-96861218D01*
X95819673Y-96861219D01*
X95875112Y-96970024D01*
X95961459Y-97056371D01*
X96070264Y-97111810D01*
X96070265Y-97111810D01*
X96070267Y-97111811D01*
X96190873Y-97130913D01*
X96190875Y-97130913D01*
X96190877Y-97130913D01*
X96311482Y-97111811D01*
X96311483Y-97111810D01*
X96311486Y-97111810D01*
X96420291Y-97056371D01*
X96506638Y-96970024D01*
X96562077Y-96861219D01*
X96563501Y-96852233D01*
X96581180Y-96740610D01*
X96581180Y-96740605D01*
X96562078Y-96620000D01*
X96562077Y-96619998D01*
X96562077Y-96619997D01*
X96506638Y-96511192D01*
X96420291Y-96424845D01*
X96311486Y-96369406D01*
X96311485Y-96369405D01*
X96311484Y-96369405D01*
X96311482Y-96369404D01*
X96190877Y-96350303D01*
X96190873Y-96350303D01*
X96070267Y-96369404D01*
X96070265Y-96369405D01*
X95961460Y-96424844D01*
X95875111Y-96511193D01*
X95819672Y-96619998D01*
X95819671Y-96620000D01*
X95800570Y-96740605D01*
X91990083Y-96740605D01*
X91998000Y-96700806D01*
X91998000Y-96033498D01*
X96507677Y-96033498D01*
X96507677Y-96033503D01*
X96526778Y-96154108D01*
X96526779Y-96154110D01*
X96526779Y-96154111D01*
X96526780Y-96154112D01*
X96582219Y-96262917D01*
X96668566Y-96349264D01*
X96777371Y-96404703D01*
X96777372Y-96404703D01*
X96777374Y-96404704D01*
X96897980Y-96423806D01*
X96897982Y-96423806D01*
X96897984Y-96423806D01*
X97018589Y-96404704D01*
X97018590Y-96404703D01*
X97018593Y-96404703D01*
X97127398Y-96349264D01*
X97213745Y-96262917D01*
X97269184Y-96154112D01*
X97272633Y-96132341D01*
X97288287Y-96033503D01*
X97288287Y-96033498D01*
X97269185Y-95912893D01*
X97269184Y-95912891D01*
X97269184Y-95912890D01*
X97213745Y-95804085D01*
X97127398Y-95717738D01*
X97018593Y-95662299D01*
X97018592Y-95662298D01*
X97018591Y-95662298D01*
X97018589Y-95662297D01*
X96897984Y-95643196D01*
X96897980Y-95643196D01*
X96777374Y-95662297D01*
X96777372Y-95662298D01*
X96668567Y-95717737D01*
X96582218Y-95804086D01*
X96526779Y-95912891D01*
X96526778Y-95912893D01*
X96507677Y-96033498D01*
X91998000Y-96033498D01*
X91998000Y-95909194D01*
X91988687Y-95862376D01*
X91953214Y-95809286D01*
X91948555Y-95806173D01*
X91900126Y-95773814D01*
X91900121Y-95773812D01*
X91853310Y-95764500D01*
X91853306Y-95764500D01*
X89121694Y-95764500D01*
X89121689Y-95764500D01*
X89074878Y-95773812D01*
X89074873Y-95773814D01*
X89021789Y-95809283D01*
X89021783Y-95809289D01*
X88986314Y-95862373D01*
X88986312Y-95862378D01*
X88977000Y-95909189D01*
X87697999Y-95909189D01*
X87688687Y-95862376D01*
X87653214Y-95809286D01*
X87648555Y-95806173D01*
X87600126Y-95773814D01*
X87600121Y-95773812D01*
X87553310Y-95764500D01*
X87553306Y-95764500D01*
X84821694Y-95764500D01*
X84821689Y-95764500D01*
X84774878Y-95773812D01*
X84774876Y-95773813D01*
X84726445Y-95806173D01*
X84667309Y-95820642D01*
X84612709Y-95793715D01*
X84588190Y-95737991D01*
X84588000Y-95732198D01*
X84588000Y-95607825D01*
X84608822Y-95550620D01*
X84661545Y-95520180D01*
X84721500Y-95530752D01*
X84726431Y-95533818D01*
X84774876Y-95566187D01*
X84821694Y-95575500D01*
X84821698Y-95575500D01*
X87553302Y-95575500D01*
X87553306Y-95575500D01*
X87600124Y-95566187D01*
X87653214Y-95530714D01*
X87688687Y-95477624D01*
X87698000Y-95430806D01*
X87698000Y-94639194D01*
X87697999Y-94639189D01*
X88977000Y-94639189D01*
X88977000Y-95430810D01*
X88986312Y-95477621D01*
X88986314Y-95477626D01*
X89015855Y-95521838D01*
X89021786Y-95530714D01*
X89074876Y-95566187D01*
X89121694Y-95575500D01*
X89121698Y-95575500D01*
X91853302Y-95575500D01*
X91853306Y-95575500D01*
X91900124Y-95566187D01*
X91953214Y-95530714D01*
X91988687Y-95477624D01*
X91998000Y-95430806D01*
X91998000Y-95326391D01*
X102679607Y-95326391D01*
X102679607Y-95326396D01*
X102698708Y-95447001D01*
X102698709Y-95447003D01*
X102698709Y-95447004D01*
X102698710Y-95447005D01*
X102754149Y-95555810D01*
X102840496Y-95642157D01*
X102949301Y-95697596D01*
X102949302Y-95697596D01*
X102949304Y-95697597D01*
X103069910Y-95716699D01*
X103069912Y-95716699D01*
X103069914Y-95716699D01*
X103190519Y-95697597D01*
X103190520Y-95697596D01*
X103190523Y-95697596D01*
X103299328Y-95642157D01*
X103385675Y-95555810D01*
X103441114Y-95447005D01*
X103441353Y-95445500D01*
X103460217Y-95326396D01*
X103460217Y-95326391D01*
X103441115Y-95205786D01*
X103441114Y-95205784D01*
X103441114Y-95205783D01*
X103385675Y-95096978D01*
X103299328Y-95010631D01*
X103190523Y-94955192D01*
X103190522Y-94955191D01*
X103190521Y-94955191D01*
X103190519Y-94955190D01*
X103069914Y-94936089D01*
X103069910Y-94936089D01*
X102949304Y-94955190D01*
X102949302Y-94955191D01*
X102840497Y-95010630D01*
X102754148Y-95096979D01*
X102698709Y-95205784D01*
X102698708Y-95205786D01*
X102679607Y-95326391D01*
X91998000Y-95326391D01*
X91998000Y-94639194D01*
X91988687Y-94592376D01*
X91953214Y-94539286D01*
X91953210Y-94539283D01*
X91900126Y-94503814D01*
X91900121Y-94503812D01*
X91853310Y-94494500D01*
X91853306Y-94494500D01*
X89121694Y-94494500D01*
X89121689Y-94494500D01*
X89074878Y-94503812D01*
X89074873Y-94503814D01*
X89021789Y-94539283D01*
X89021783Y-94539289D01*
X88986314Y-94592373D01*
X88986312Y-94592378D01*
X88977000Y-94639189D01*
X87697999Y-94639189D01*
X87688687Y-94592376D01*
X87653214Y-94539286D01*
X87653210Y-94539283D01*
X87600126Y-94503814D01*
X87600121Y-94503812D01*
X87553310Y-94494500D01*
X87553306Y-94494500D01*
X84821694Y-94494500D01*
X84821689Y-94494500D01*
X84774878Y-94503812D01*
X84774876Y-94503813D01*
X84726445Y-94536173D01*
X84667309Y-94550642D01*
X84612709Y-94523715D01*
X84588190Y-94467991D01*
X84588000Y-94462200D01*
X84588000Y-94337825D01*
X84608822Y-94280620D01*
X84661545Y-94250180D01*
X84721500Y-94260752D01*
X84726431Y-94263818D01*
X84774876Y-94296187D01*
X84821694Y-94305500D01*
X84821698Y-94305500D01*
X87553302Y-94305500D01*
X87553306Y-94305500D01*
X87600124Y-94296187D01*
X87653214Y-94260714D01*
X87688687Y-94207624D01*
X87698000Y-94160806D01*
X87698000Y-93369194D01*
X87697999Y-93369189D01*
X88977000Y-93369189D01*
X88977000Y-94160810D01*
X88986312Y-94207621D01*
X88986314Y-94207626D01*
X89021783Y-94260710D01*
X89021786Y-94260714D01*
X89074876Y-94296187D01*
X89121694Y-94305500D01*
X89121698Y-94305500D01*
X91853302Y-94305500D01*
X91853306Y-94305500D01*
X91900124Y-94296187D01*
X91953214Y-94260714D01*
X91988687Y-94207624D01*
X91998000Y-94160806D01*
X91998000Y-93369194D01*
X91988687Y-93322376D01*
X91953214Y-93269286D01*
X91932170Y-93255225D01*
X91900126Y-93233814D01*
X91900121Y-93233812D01*
X91853310Y-93224500D01*
X91853306Y-93224500D01*
X89121694Y-93224500D01*
X89121689Y-93224500D01*
X89074878Y-93233812D01*
X89074873Y-93233814D01*
X89021789Y-93269283D01*
X89021783Y-93269289D01*
X88986314Y-93322373D01*
X88986312Y-93322378D01*
X88977000Y-93369189D01*
X87697999Y-93369189D01*
X87688687Y-93322376D01*
X87653214Y-93269286D01*
X87632170Y-93255225D01*
X87600126Y-93233814D01*
X87600121Y-93233812D01*
X87553310Y-93224500D01*
X87553306Y-93224500D01*
X85251294Y-93224500D01*
X85194086Y-93203678D01*
X85163646Y-93150955D01*
X85174218Y-93091000D01*
X85204792Y-93059615D01*
X85236972Y-93039895D01*
X85249416Y-93033555D01*
X85410363Y-92966889D01*
X85423636Y-92962576D01*
X85593053Y-92921902D01*
X85606831Y-92919720D01*
X85784020Y-92905775D01*
X85791003Y-92905501D01*
X85831671Y-92905501D01*
X114843329Y-92905501D01*
X114883997Y-92905501D01*
X114890980Y-92905775D01*
G37*
%TD.AperFunction*%
%TA.AperFunction,Conductor*%
G36*
X88945208Y-106091322D02*
G01*
X88975648Y-106144045D01*
X88977000Y-106159500D01*
X88977000Y-106860810D01*
X88986312Y-106907621D01*
X88986314Y-106907626D01*
X89015678Y-106951573D01*
X89021786Y-106960714D01*
X89074876Y-106996187D01*
X89121694Y-107005500D01*
X89121698Y-107005500D01*
X91853302Y-107005500D01*
X91853306Y-107005500D01*
X91900124Y-106996187D01*
X91953214Y-106960714D01*
X91988687Y-106907624D01*
X91998000Y-106860806D01*
X91998000Y-106159500D01*
X92018822Y-106102292D01*
X92071545Y-106071852D01*
X92087000Y-106070500D01*
X93074491Y-106070500D01*
X93131699Y-106091322D01*
X93162139Y-106144045D01*
X93151567Y-106204000D01*
X93146759Y-106211403D01*
X93106271Y-106290864D01*
X93103367Y-106296117D01*
X93094570Y-106310834D01*
X93094566Y-106310843D01*
X93066213Y-106390396D01*
X93064176Y-106396484D01*
X93063934Y-106397256D01*
X93062206Y-106403146D01*
X93045372Y-106464740D01*
X93043987Y-106469320D01*
X93035154Y-106495924D01*
X93027796Y-106512326D01*
X93019498Y-106526722D01*
X93009305Y-106540956D01*
X92970475Y-106585234D01*
X92964772Y-106594750D01*
X92951370Y-106611924D01*
X92906225Y-106657070D01*
X92906224Y-106657071D01*
X92906223Y-106657071D01*
X92415094Y-107148199D01*
X92415043Y-107148222D01*
X92319283Y-107243988D01*
X92204515Y-107401959D01*
X92204512Y-107401964D01*
X92166300Y-107476964D01*
X92121776Y-107518484D01*
X92060980Y-107521672D01*
X92012359Y-107485034D01*
X91998000Y-107436560D01*
X91998000Y-107339197D01*
X91997999Y-107339189D01*
X91988687Y-107292378D01*
X91988687Y-107292376D01*
X91953214Y-107239286D01*
X91948555Y-107236173D01*
X91900126Y-107203814D01*
X91900121Y-107203812D01*
X91853310Y-107194500D01*
X91853306Y-107194500D01*
X89121694Y-107194500D01*
X89121689Y-107194500D01*
X89074878Y-107203812D01*
X89074873Y-107203814D01*
X89021789Y-107239283D01*
X89021783Y-107239289D01*
X88986314Y-107292373D01*
X88986312Y-107292378D01*
X88977000Y-107339189D01*
X88977000Y-108130810D01*
X88986312Y-108177621D01*
X88986314Y-108177626D01*
X89021783Y-108230710D01*
X89021786Y-108230714D01*
X89074876Y-108266187D01*
X89098437Y-108270873D01*
X89107964Y-108272769D01*
X89160011Y-108304352D01*
X89179580Y-108362001D01*
X89157515Y-108418741D01*
X89107964Y-108447349D01*
X89067267Y-108455444D01*
X89007731Y-108495225D01*
X89007725Y-108495231D01*
X88967944Y-108554766D01*
X88957500Y-108607269D01*
X88957500Y-109402730D01*
X88967944Y-109455233D01*
X89007725Y-109514768D01*
X89007731Y-109514774D01*
X89067266Y-109554555D01*
X89073830Y-109557274D01*
X89118715Y-109598403D01*
X89126663Y-109658762D01*
X89093953Y-109710108D01*
X89039772Y-109728500D01*
X87635228Y-109728500D01*
X87578020Y-109707678D01*
X87547580Y-109654955D01*
X87558152Y-109595000D01*
X87601170Y-109557274D01*
X87607733Y-109554555D01*
X87667268Y-109514774D01*
X87667274Y-109514768D01*
X87707055Y-109455233D01*
X87717499Y-109402730D01*
X87717500Y-109402722D01*
X87717500Y-108607277D01*
X87717499Y-108607269D01*
X87707055Y-108554766D01*
X87667274Y-108495231D01*
X87667268Y-108495225D01*
X87607733Y-108455444D01*
X87567035Y-108447349D01*
X87514988Y-108415766D01*
X87495419Y-108358118D01*
X87517484Y-108301377D01*
X87567035Y-108272769D01*
X87600124Y-108266187D01*
X87653214Y-108230714D01*
X87688687Y-108177624D01*
X87698000Y-108130806D01*
X87698000Y-107339194D01*
X87688687Y-107292376D01*
X87653214Y-107239286D01*
X87648555Y-107236173D01*
X87600126Y-107203814D01*
X87600121Y-107203812D01*
X87553310Y-107194500D01*
X87553306Y-107194500D01*
X84821694Y-107194500D01*
X84821689Y-107194500D01*
X84774878Y-107203812D01*
X84774876Y-107203813D01*
X84726445Y-107236173D01*
X84667309Y-107250642D01*
X84612709Y-107223715D01*
X84588190Y-107167991D01*
X84588000Y-107162171D01*
X84588000Y-107037828D01*
X84608822Y-106980620D01*
X84661545Y-106950180D01*
X84721500Y-106960752D01*
X84726431Y-106963818D01*
X84774876Y-106996187D01*
X84821694Y-107005500D01*
X84821698Y-107005500D01*
X87553302Y-107005500D01*
X87553306Y-107005500D01*
X87600124Y-106996187D01*
X87653214Y-106960714D01*
X87688687Y-106907624D01*
X87698000Y-106860806D01*
X87698000Y-106512365D01*
X87701102Y-106491962D01*
X87700619Y-106491863D01*
X87708824Y-106452125D01*
X87719082Y-106425324D01*
X87746660Y-106377982D01*
X87749844Y-106372916D01*
X87809492Y-106284763D01*
X87813923Y-106278773D01*
X87869188Y-106210298D01*
X87875503Y-106203274D01*
X87924266Y-106154501D01*
X87933254Y-106146647D01*
X87965783Y-106121880D01*
X87993849Y-106107531D01*
X88059507Y-106087612D01*
X88076609Y-106084209D01*
X88210788Y-106070988D01*
X88211387Y-106070929D01*
X88220114Y-106070500D01*
X88888000Y-106070500D01*
X88945208Y-106091322D01*
G37*
%TD.AperFunction*%
%TA.AperFunction,Conductor*%
G36*
X101090358Y-97919805D02*
G01*
X101123155Y-97952766D01*
X101145351Y-97991657D01*
X101147611Y-97995876D01*
X101160185Y-98020950D01*
X101166580Y-98037754D01*
X101170892Y-98053804D01*
X101173749Y-98071073D01*
X101175030Y-98090620D01*
X101177602Y-98129838D01*
X101180297Y-98140599D01*
X101182965Y-98162222D01*
X101182965Y-101294580D01*
X101182963Y-101294606D01*
X101182964Y-101339797D01*
X101182536Y-101348519D01*
X101169235Y-101483619D01*
X101165831Y-101500733D01*
X101127704Y-101626430D01*
X101121028Y-101642549D01*
X101059108Y-101758398D01*
X101049414Y-101772906D01*
X100963407Y-101877706D01*
X100957543Y-101884176D01*
X100930527Y-101911193D01*
X100930526Y-101911195D01*
X100930525Y-101911196D01*
X97504657Y-105337063D01*
X97504656Y-105337064D01*
X97504654Y-105337065D01*
X97496600Y-105345121D01*
X97496593Y-105345128D01*
X97477762Y-105363957D01*
X97471296Y-105369818D01*
X97366351Y-105455948D01*
X97351844Y-105465641D01*
X97236000Y-105527564D01*
X97219882Y-105534241D01*
X97162124Y-105551764D01*
X97101335Y-105548447D01*
X97056900Y-105506832D01*
X97049610Y-105446390D01*
X97073353Y-105403665D01*
X97092424Y-105384595D01*
X97147863Y-105275790D01*
X97147943Y-105275290D01*
X97166966Y-105155181D01*
X97166966Y-105155176D01*
X97147864Y-105034571D01*
X97147863Y-105034569D01*
X97147863Y-105034568D01*
X97092424Y-104925763D01*
X97006077Y-104839416D01*
X96897272Y-104783977D01*
X96897271Y-104783976D01*
X96897270Y-104783976D01*
X96897268Y-104783975D01*
X96776663Y-104764874D01*
X96776659Y-104764874D01*
X96649131Y-104785072D01*
X96648883Y-104783511D01*
X96595802Y-104781652D01*
X96550563Y-104740911D01*
X96542097Y-104680623D01*
X96544262Y-104672544D01*
X96563413Y-104551627D01*
X96563413Y-104551622D01*
X96544311Y-104431017D01*
X96544310Y-104431015D01*
X96544310Y-104431014D01*
X96488871Y-104322209D01*
X96402524Y-104235862D01*
X96293719Y-104180423D01*
X96293718Y-104180422D01*
X96293717Y-104180422D01*
X96293715Y-104180421D01*
X96173110Y-104161320D01*
X96173106Y-104161320D01*
X96052500Y-104180421D01*
X96052498Y-104180422D01*
X95943693Y-104235861D01*
X95857344Y-104322210D01*
X95801905Y-104431015D01*
X95801904Y-104431017D01*
X95782803Y-104551622D01*
X95782803Y-104551627D01*
X95801904Y-104672232D01*
X95801905Y-104672234D01*
X95801905Y-104672235D01*
X95801906Y-104672236D01*
X95857345Y-104781041D01*
X95943692Y-104867388D01*
X96052497Y-104922827D01*
X96052498Y-104922827D01*
X96052500Y-104922828D01*
X96173106Y-104941930D01*
X96173108Y-104941930D01*
X96173110Y-104941930D01*
X96300638Y-104921732D01*
X96300885Y-104923296D01*
X96353950Y-104925144D01*
X96399196Y-104965877D01*
X96407675Y-105026163D01*
X96405507Y-105034253D01*
X96386356Y-105155176D01*
X96386356Y-105155181D01*
X96405457Y-105275786D01*
X96405458Y-105275788D01*
X96405458Y-105275789D01*
X96405459Y-105275790D01*
X96460898Y-105384595D01*
X96513871Y-105437568D01*
X96539599Y-105492743D01*
X96523843Y-105551548D01*
X96473973Y-105586467D01*
X96450938Y-105589500D01*
X92087000Y-105589500D01*
X92029792Y-105568678D01*
X91999352Y-105515955D01*
X91998000Y-105500500D01*
X91998000Y-104799197D01*
X91997999Y-104799189D01*
X91994880Y-104783511D01*
X91988687Y-104752376D01*
X91953214Y-104699286D01*
X91948555Y-104696173D01*
X91900126Y-104663814D01*
X91900121Y-104663812D01*
X91853310Y-104654500D01*
X91853306Y-104654500D01*
X89121694Y-104654500D01*
X89121689Y-104654500D01*
X89074878Y-104663812D01*
X89074873Y-104663814D01*
X89021789Y-104699283D01*
X89021783Y-104699289D01*
X88986314Y-104752373D01*
X88986312Y-104752378D01*
X88977000Y-104799189D01*
X88977000Y-105500500D01*
X88956178Y-105557708D01*
X88903455Y-105588148D01*
X88888000Y-105589500D01*
X88266949Y-105589500D01*
X88266929Y-105589498D01*
X88252937Y-105589498D01*
X88252849Y-105589466D01*
X88118415Y-105589471D01*
X87925550Y-105620027D01*
X87814506Y-105656113D01*
X87753663Y-105653991D01*
X87708419Y-105613256D01*
X87698000Y-105571470D01*
X87698000Y-104799197D01*
X87697999Y-104799189D01*
X87694880Y-104783511D01*
X87688687Y-104752376D01*
X87653214Y-104699286D01*
X87648555Y-104696173D01*
X87600126Y-104663814D01*
X87600121Y-104663812D01*
X87553310Y-104654500D01*
X87553306Y-104654500D01*
X84821694Y-104654500D01*
X84821689Y-104654500D01*
X84774878Y-104663812D01*
X84774876Y-104663813D01*
X84726445Y-104696173D01*
X84667309Y-104710642D01*
X84612709Y-104683715D01*
X84588190Y-104627991D01*
X84588000Y-104622171D01*
X84588000Y-104550709D01*
X92189106Y-104550709D01*
X92189106Y-104550714D01*
X92208207Y-104671319D01*
X92208208Y-104671321D01*
X92208208Y-104671322D01*
X92208209Y-104671323D01*
X92263648Y-104780128D01*
X92349995Y-104866475D01*
X92458800Y-104921914D01*
X92458801Y-104921914D01*
X92458803Y-104921915D01*
X92579409Y-104941017D01*
X92579411Y-104941017D01*
X92579413Y-104941017D01*
X92700018Y-104921915D01*
X92700019Y-104921914D01*
X92700022Y-104921914D01*
X92808827Y-104866475D01*
X92895174Y-104780128D01*
X92950613Y-104671323D01*
X92951803Y-104663814D01*
X92969716Y-104550714D01*
X92969716Y-104550709D01*
X92950614Y-104430104D01*
X92950613Y-104430102D01*
X92950613Y-104430101D01*
X92895174Y-104321296D01*
X92808827Y-104234949D01*
X92700022Y-104179510D01*
X92700021Y-104179509D01*
X92700020Y-104179509D01*
X92700018Y-104179508D01*
X92579413Y-104160407D01*
X92579409Y-104160407D01*
X92458803Y-104179508D01*
X92458801Y-104179509D01*
X92349996Y-104234948D01*
X92263647Y-104321297D01*
X92208208Y-104430102D01*
X92208207Y-104430104D01*
X92189106Y-104550709D01*
X84588000Y-104550709D01*
X84588000Y-104497828D01*
X84608822Y-104440620D01*
X84661545Y-104410180D01*
X84721500Y-104420752D01*
X84726431Y-104423818D01*
X84774876Y-104456187D01*
X84821694Y-104465500D01*
X84821698Y-104465500D01*
X87553302Y-104465500D01*
X87553306Y-104465500D01*
X87600124Y-104456187D01*
X87653214Y-104420714D01*
X87688687Y-104367624D01*
X87698000Y-104320806D01*
X87698000Y-103942491D01*
X87710145Y-103897610D01*
X87724560Y-103872927D01*
X87747070Y-103834379D01*
X87750272Y-103829299D01*
X87773233Y-103795456D01*
X87810426Y-103740632D01*
X87814895Y-103734610D01*
X87829095Y-103717065D01*
X87870614Y-103665766D01*
X87876939Y-103658749D01*
X87926178Y-103609653D01*
X87935200Y-103601796D01*
X87965347Y-103578925D01*
X87993294Y-103564666D01*
X88049508Y-103547612D01*
X88066609Y-103544209D01*
X88201386Y-103530928D01*
X88210114Y-103530500D01*
X88888000Y-103530500D01*
X88945208Y-103551322D01*
X88975648Y-103604045D01*
X88977000Y-103619500D01*
X88977000Y-104320810D01*
X88986312Y-104367621D01*
X88986314Y-104367626D01*
X89014815Y-104410281D01*
X89021786Y-104420714D01*
X89074876Y-104456187D01*
X89121694Y-104465500D01*
X89121698Y-104465500D01*
X91853302Y-104465500D01*
X91853306Y-104465500D01*
X91900124Y-104456187D01*
X91953214Y-104420714D01*
X91988687Y-104367624D01*
X91998000Y-104320806D01*
X91998000Y-103619500D01*
X92018822Y-103562292D01*
X92071545Y-103531852D01*
X92087000Y-103530500D01*
X95985223Y-103530500D01*
X95985226Y-103530501D01*
X95990744Y-103530500D01*
X95990794Y-103530518D01*
X96027632Y-103530517D01*
X96027632Y-103530518D01*
X96125262Y-103530516D01*
X96318117Y-103499966D01*
X96372249Y-103482376D01*
X96503808Y-103439627D01*
X96503813Y-103439625D01*
X96503813Y-103439624D01*
X96503819Y-103439623D01*
X96677795Y-103350973D01*
X96790554Y-103269045D01*
X96835756Y-103236203D01*
X96835757Y-103236201D01*
X96835761Y-103236199D01*
X96885772Y-103186187D01*
X100567448Y-99504509D01*
X100567472Y-99504498D01*
X100593529Y-99478441D01*
X100593530Y-99478442D01*
X100662566Y-99409407D01*
X100777338Y-99251437D01*
X100865984Y-99077456D01*
X100926320Y-98891750D01*
X100956861Y-98698891D01*
X100956858Y-98601260D01*
X100956858Y-98585538D01*
X100956858Y-97996881D01*
X100977680Y-97939673D01*
X101030403Y-97909233D01*
X101090358Y-97919805D01*
G37*
%TD.AperFunction*%
%TD*%
%TA.AperFunction,Conductor*%
%TO.N,+3V3*%
G36*
X105021446Y-108325822D02*
G01*
X105027171Y-108331067D01*
X105795457Y-109099353D01*
X105821185Y-109154529D01*
X105805429Y-109213334D01*
X105795457Y-109225219D01*
X103797059Y-111223617D01*
X103741883Y-111249345D01*
X103683078Y-111233589D01*
X103671193Y-111223617D01*
X103163567Y-110715991D01*
X103137839Y-110660815D01*
X103137500Y-110653058D01*
X103137500Y-109541866D01*
X103158322Y-109484658D01*
X103163567Y-109478933D01*
X104311433Y-108331067D01*
X104366609Y-108305339D01*
X104374366Y-108305000D01*
X104964238Y-108305000D01*
X105021446Y-108325822D01*
G37*
%TD.AperFunction*%
%TD*%
%TA.AperFunction,Conductor*%
%TO.N,AGND*%
G36*
X89646708Y-111185822D02*
G01*
X89677148Y-111238545D01*
X89678500Y-111254000D01*
X89678500Y-111836000D01*
X89657678Y-111893208D01*
X89604955Y-111923648D01*
X89589500Y-111925000D01*
X86922500Y-111925000D01*
X86865292Y-111904178D01*
X86834852Y-111851455D01*
X86833500Y-111836000D01*
X86833500Y-111254000D01*
X86854322Y-111196792D01*
X86907045Y-111166352D01*
X86922500Y-111165000D01*
X89589500Y-111165000D01*
X89646708Y-111185822D01*
G37*
%TD.AperFunction*%
%TD*%
%TA.AperFunction,Conductor*%
%TO.N,AVDD*%
G36*
X89646708Y-109914822D02*
G01*
X89677148Y-109967545D01*
X89678500Y-109983000D01*
X89678500Y-110565000D01*
X89657678Y-110622208D01*
X89604955Y-110652648D01*
X89589500Y-110654000D01*
X86922500Y-110654000D01*
X86865292Y-110633178D01*
X86834852Y-110580455D01*
X86833500Y-110565000D01*
X86833500Y-109983000D01*
X86854322Y-109925792D01*
X86907045Y-109895352D01*
X86922500Y-109894000D01*
X89589500Y-109894000D01*
X89646708Y-109914822D01*
G37*
%TD.AperFunction*%
%TD*%
%TA.AperFunction,Conductor*%
%TO.N,AGND*%
G36*
X92715884Y-110194233D02*
G01*
X92908617Y-110273142D01*
X92914975Y-110279448D01*
X92915012Y-110279537D01*
X92993908Y-110472239D01*
X92993871Y-110481194D01*
X92987513Y-110487500D01*
X92987008Y-110487693D01*
X92907472Y-110516037D01*
X92906628Y-110516302D01*
X92838457Y-110534931D01*
X92780815Y-110554070D01*
X92780812Y-110554072D01*
X92722244Y-110587834D01*
X92722235Y-110587840D01*
X92659057Y-110643247D01*
X92650578Y-110646126D01*
X92643070Y-110642724D01*
X92545430Y-110545084D01*
X92542003Y-110536811D01*
X92544905Y-110529099D01*
X92600319Y-110465910D01*
X92634084Y-110407336D01*
X92653219Y-110349701D01*
X92671854Y-110281512D01*
X92672111Y-110280692D01*
X92700462Y-110201143D01*
X92706466Y-110194503D01*
X92715410Y-110194052D01*
X92715884Y-110194233D01*
G37*
%TD.AperFunction*%
%TD*%
%TA.AperFunction,Conductor*%
%TO.N,AGND*%
G36*
X92989763Y-109829134D02*
G01*
X92993165Y-109836642D01*
X92998661Y-109920500D01*
X92998662Y-109920511D01*
X93016200Y-109985785D01*
X93016203Y-109985793D01*
X93016204Y-109985796D01*
X93043426Y-110040081D01*
X93043431Y-110040089D01*
X93078462Y-110101468D01*
X93078870Y-110102251D01*
X93115067Y-110178531D01*
X93115518Y-110187475D01*
X93109513Y-110194117D01*
X93109019Y-110194338D01*
X92916970Y-110274812D01*
X92908015Y-110274849D01*
X92907926Y-110274812D01*
X92715876Y-110194338D01*
X92709570Y-110187980D01*
X92709607Y-110179025D01*
X92709816Y-110178556D01*
X92746030Y-110102236D01*
X92746424Y-110101481D01*
X92781468Y-110040081D01*
X92808691Y-109985796D01*
X92826234Y-109920503D01*
X92831731Y-109836641D01*
X92835692Y-109828610D01*
X92843406Y-109825707D01*
X92981490Y-109825707D01*
X92989763Y-109829134D01*
G37*
%TD.AperFunction*%
%TD*%
%TA.AperFunction,Conductor*%
%TO.N,AGND*%
G36*
X93109019Y-108772333D02*
G01*
X93115325Y-108778691D01*
X93115288Y-108787646D01*
X93115067Y-108788140D01*
X93078870Y-108864418D01*
X93078462Y-108865201D01*
X93043428Y-108926586D01*
X93016203Y-108980876D01*
X93016200Y-108980884D01*
X92998662Y-109046159D01*
X92998661Y-109046170D01*
X92993165Y-109130030D01*
X92989204Y-109138061D01*
X92981490Y-109140965D01*
X92843406Y-109140965D01*
X92835133Y-109137538D01*
X92831731Y-109130030D01*
X92826234Y-109046168D01*
X92808691Y-108980874D01*
X92781468Y-108926589D01*
X92746430Y-108865198D01*
X92746023Y-108864418D01*
X92709828Y-108788140D01*
X92709377Y-108779196D01*
X92715382Y-108772554D01*
X92715854Y-108772342D01*
X92907928Y-108691858D01*
X92916879Y-108691822D01*
X93109019Y-108772333D01*
G37*
%TD.AperFunction*%
%TD*%
%TA.AperFunction,Conductor*%
%TO.N,AGND*%
G36*
X87613500Y-111254048D02*
G01*
X87689500Y-111328572D01*
X87765499Y-111388572D01*
X87841499Y-111434048D01*
X87917500Y-111465000D01*
X87917500Y-111625000D01*
X87841499Y-111655951D01*
X87765499Y-111701427D01*
X87689500Y-111761427D01*
X87613500Y-111835951D01*
X87537500Y-111925000D01*
X86833500Y-111726983D01*
X86833499Y-111726982D01*
X86226542Y-111556262D01*
X86219506Y-111550723D01*
X86218447Y-111541831D01*
X86223986Y-111534795D01*
X86226532Y-111533739D01*
X86470921Y-111465000D01*
X87537500Y-111165000D01*
X87613500Y-111254048D01*
G37*
%TD.AperFunction*%
%TD*%
%TA.AperFunction,Conductor*%
%TO.N,AGND*%
G36*
X90448458Y-111533737D02*
G01*
X90455493Y-111539275D01*
X90456552Y-111548167D01*
X90451013Y-111555203D01*
X90448457Y-111556262D01*
X89678500Y-111772830D01*
X89678500Y-111772831D01*
X89137500Y-111925000D01*
X89061499Y-111835951D01*
X88985499Y-111761427D01*
X88909500Y-111701427D01*
X88833500Y-111655951D01*
X88757500Y-111625000D01*
X88757500Y-111465000D01*
X88833500Y-111434048D01*
X88909500Y-111388572D01*
X88985499Y-111328572D01*
X89061499Y-111254048D01*
X89137500Y-111165000D01*
X90448458Y-111533737D01*
G37*
%TD.AperFunction*%
%TD*%
%TA.AperFunction,Conductor*%
%TO.N,AGND*%
G36*
X92058210Y-111022411D02*
G01*
X92060002Y-111023879D01*
X92159348Y-111123225D01*
X92162775Y-111131498D01*
X92159348Y-111139771D01*
X92158270Y-111140724D01*
X92102468Y-111184236D01*
X92102455Y-111184248D01*
X92036226Y-111251897D01*
X92036220Y-111251903D01*
X91969984Y-111335566D01*
X91903740Y-111435245D01*
X91903735Y-111435253D01*
X91840885Y-111545016D01*
X91833800Y-111550492D01*
X91830687Y-111550902D01*
X90496980Y-111545746D01*
X90488720Y-111542287D01*
X90485431Y-111535612D01*
X90437261Y-111178550D01*
X90439551Y-111169894D01*
X90447292Y-111165392D01*
X90449096Y-111165290D01*
X90643206Y-111169417D01*
X90759441Y-111171889D01*
X90759448Y-111171888D01*
X90759460Y-111171889D01*
X90939257Y-111165723D01*
X91083470Y-111160779D01*
X91083484Y-111160778D01*
X91083487Y-111160778D01*
X91083489Y-111160777D01*
X91083502Y-111160777D01*
X91212227Y-111149212D01*
X91407515Y-111131668D01*
X91731542Y-111084557D01*
X92049426Y-111020681D01*
X92058210Y-111022411D01*
G37*
%TD.AperFunction*%
%TD*%
%TA.AperFunction,Conductor*%
%TO.N,+3V3*%
G36*
X111541686Y-94657291D02*
G01*
X111589712Y-94683579D01*
X111613512Y-94696606D01*
X111689488Y-94730394D01*
X111689495Y-94730397D01*
X111689500Y-94730399D01*
X111765499Y-94756400D01*
X111841495Y-94774599D01*
X111841498Y-94774600D01*
X111907386Y-94783616D01*
X111915118Y-94788133D01*
X111917500Y-94795208D01*
X111917500Y-95274791D01*
X111914073Y-95283064D01*
X111907386Y-95286383D01*
X111841498Y-95295398D01*
X111841495Y-95295399D01*
X111765504Y-95313597D01*
X111765494Y-95313600D01*
X111689503Y-95339598D01*
X111689488Y-95339604D01*
X111613512Y-95373392D01*
X111541689Y-95412707D01*
X111532903Y-95413707D01*
X110226541Y-95046262D01*
X110219506Y-95040724D01*
X110218447Y-95031832D01*
X110223986Y-95024796D01*
X110226540Y-95023737D01*
X111532905Y-94656292D01*
X111541686Y-94657291D01*
G37*
%TD.AperFunction*%
%TD*%
%TA.AperFunction,Conductor*%
%TO.N,+3V3*%
G36*
X103648465Y-109630052D02*
G01*
X103640665Y-109742545D01*
X103622065Y-109821298D01*
X103599865Y-109888804D01*
X103581265Y-109967557D01*
X103573465Y-110080052D01*
X103273465Y-110080052D01*
X103265665Y-109967557D01*
X103247065Y-109888804D01*
X103224865Y-109821298D01*
X103206265Y-109742545D01*
X103198465Y-109630052D01*
X103423465Y-109629052D01*
X103648465Y-109630052D01*
G37*
%TD.AperFunction*%
%TD*%
%TA.AperFunction,Conductor*%
%TO.N,+3V3*%
G36*
X114413706Y-95013962D02*
G01*
X114448457Y-95023737D01*
X114455493Y-95029276D01*
X114456552Y-95038168D01*
X114451013Y-95045204D01*
X114448457Y-95046263D01*
X113142096Y-95413707D01*
X113133311Y-95412707D01*
X113109319Y-95399575D01*
X113061486Y-95373392D01*
X112985510Y-95339604D01*
X112985495Y-95339598D01*
X112909504Y-95313600D01*
X112909494Y-95313597D01*
X112833503Y-95295399D01*
X112833500Y-95295398D01*
X112767614Y-95286383D01*
X112759882Y-95281866D01*
X112757500Y-95274791D01*
X112757500Y-94795208D01*
X112760927Y-94786935D01*
X112767614Y-94783616D01*
X112833500Y-94774600D01*
X112909500Y-94756400D01*
X112985499Y-94730399D01*
X112991690Y-94727645D01*
X113061486Y-94696606D01*
X113061499Y-94696599D01*
X113133313Y-94657291D01*
X113142094Y-94656292D01*
X114413706Y-95013962D01*
G37*
%TD.AperFunction*%
%TD*%
%TA.AperFunction,Conductor*%
%TO.N,+3V3*%
G36*
X104675234Y-108400987D02*
G01*
X104751930Y-108424331D01*
X104818145Y-108444420D01*
X104891707Y-108474121D01*
X104990445Y-108526302D01*
X104840436Y-108786103D01*
X104761225Y-108752747D01*
X104699668Y-108750526D01*
X104642084Y-108765811D01*
X104574796Y-108784975D01*
X104484125Y-108794392D01*
X104483259Y-108568892D01*
X104570229Y-108361519D01*
X104675234Y-108400987D01*
G37*
%TD.AperFunction*%
%TD*%
%TA.AperFunction,Conductor*%
%TO.N,AVDD*%
G36*
X90448458Y-110263737D02*
G01*
X90455493Y-110269275D01*
X90456552Y-110278167D01*
X90451013Y-110285203D01*
X90448457Y-110286262D01*
X89678500Y-110502830D01*
X89678500Y-110502831D01*
X89141055Y-110654000D01*
X89140252Y-110654000D01*
X89140252Y-110653880D01*
X89139216Y-110653726D01*
X89139216Y-110654000D01*
X89136647Y-110654000D01*
X89061499Y-110565951D01*
X88985499Y-110491427D01*
X88909500Y-110431427D01*
X88833500Y-110385951D01*
X88757500Y-110355000D01*
X88757500Y-110195000D01*
X88833500Y-110164048D01*
X88909500Y-110118572D01*
X88985499Y-110058572D01*
X89061499Y-109984048D01*
X89137500Y-109895000D01*
X90448458Y-110263737D01*
G37*
%TD.AperFunction*%
%TD*%
%TA.AperFunction,Conductor*%
%TO.N,AVDD*%
G36*
X91977979Y-109693079D02*
G01*
X91978431Y-109693366D01*
X92095480Y-109771573D01*
X92100455Y-109779017D01*
X92098708Y-109787800D01*
X92097359Y-109789466D01*
X92053240Y-109834738D01*
X92053237Y-109834741D01*
X91999316Y-109905260D01*
X91999297Y-109905286D01*
X91945375Y-109990994D01*
X91891433Y-110091926D01*
X91840473Y-110201636D01*
X91833880Y-110207695D01*
X91830449Y-110208392D01*
X90497402Y-110275306D01*
X90488967Y-110272299D01*
X90485266Y-110265497D01*
X90427250Y-109908359D01*
X90429306Y-109899644D01*
X90436923Y-109894935D01*
X90438601Y-109894786D01*
X90734892Y-109890100D01*
X91044705Y-109867200D01*
X91230592Y-109842660D01*
X91354506Y-109826303D01*
X91354507Y-109826303D01*
X91354518Y-109826301D01*
X91664331Y-109767401D01*
X91969126Y-109691747D01*
X91977979Y-109693079D01*
G37*
%TD.AperFunction*%
%TD*%
%TA.AperFunction,Conductor*%
%TO.N,AVDD*%
G36*
X87613500Y-109984048D02*
G01*
X87689500Y-110058572D01*
X87765499Y-110118572D01*
X87841499Y-110164048D01*
X87917500Y-110195000D01*
X87917500Y-110355000D01*
X87841499Y-110385951D01*
X87765499Y-110431427D01*
X87689500Y-110491427D01*
X87613500Y-110565951D01*
X87538353Y-110654000D01*
X87535784Y-110654000D01*
X87535784Y-110653727D01*
X87534748Y-110653881D01*
X87534748Y-110654000D01*
X87533945Y-110654000D01*
X86833500Y-110456983D01*
X86833499Y-110456982D01*
X86226542Y-110286262D01*
X86219506Y-110280723D01*
X86218447Y-110271831D01*
X86223986Y-110264795D01*
X86226532Y-110263739D01*
X86470921Y-110195000D01*
X87537500Y-109895000D01*
X87613500Y-109984048D01*
G37*
%TD.AperFunction*%
%TD*%
%TA.AperFunction,Conductor*%
%TO.N,AVDD*%
G36*
X93265884Y-106359491D02*
G01*
X93458617Y-106438400D01*
X93464975Y-106444706D01*
X93465012Y-106444795D01*
X93543908Y-106637497D01*
X93543871Y-106646452D01*
X93537513Y-106652758D01*
X93537008Y-106652951D01*
X93457472Y-106681295D01*
X93456628Y-106681560D01*
X93388457Y-106700189D01*
X93330815Y-106719328D01*
X93330812Y-106719330D01*
X93272244Y-106753092D01*
X93272235Y-106753098D01*
X93209057Y-106808505D01*
X93200578Y-106811384D01*
X93193070Y-106807982D01*
X93095430Y-106710342D01*
X93092003Y-106702069D01*
X93094905Y-106694357D01*
X93150319Y-106631168D01*
X93184084Y-106572594D01*
X93203219Y-106514959D01*
X93221854Y-106446770D01*
X93222111Y-106445950D01*
X93250462Y-106366401D01*
X93256466Y-106359761D01*
X93265410Y-106359310D01*
X93265884Y-106359491D01*
G37*
%TD.AperFunction*%
%TD*%
%TA.AperFunction,Conductor*%
%TO.N,AVDD*%
G36*
X90448458Y-110263737D02*
G01*
X90455493Y-110269275D01*
X90456552Y-110278167D01*
X90451013Y-110285203D01*
X90448457Y-110286262D01*
X89678500Y-110502830D01*
X89678500Y-110502831D01*
X89141055Y-110654000D01*
X89140252Y-110654000D01*
X89140252Y-110653880D01*
X89139216Y-110653726D01*
X89139216Y-110654000D01*
X89136647Y-110654000D01*
X89061499Y-110565951D01*
X88985499Y-110491427D01*
X88909500Y-110431427D01*
X88833500Y-110385951D01*
X88757500Y-110355000D01*
X88757500Y-110195000D01*
X88833500Y-110164048D01*
X88909500Y-110118572D01*
X88985499Y-110058572D01*
X89061499Y-109984048D01*
X89137500Y-109895000D01*
X90448458Y-110263737D01*
G37*
%TD.AperFunction*%
%TD*%
%TA.AperFunction,Conductor*%
%TO.N,AVDD*%
G36*
X87613500Y-109984048D02*
G01*
X87689500Y-110058572D01*
X87765499Y-110118572D01*
X87841499Y-110164048D01*
X87917500Y-110195000D01*
X87917500Y-110355000D01*
X87841499Y-110385951D01*
X87765499Y-110431427D01*
X87689500Y-110491427D01*
X87613500Y-110565951D01*
X87538353Y-110654000D01*
X87535784Y-110654000D01*
X87535784Y-110653727D01*
X87534748Y-110653881D01*
X87534748Y-110654000D01*
X87533945Y-110654000D01*
X86833500Y-110456983D01*
X86833499Y-110456982D01*
X86226542Y-110286262D01*
X86219506Y-110280723D01*
X86218447Y-110271831D01*
X86223986Y-110264795D01*
X86226532Y-110263739D01*
X86470921Y-110195000D01*
X87537500Y-109895000D01*
X87613500Y-109984048D01*
G37*
%TD.AperFunction*%
%TD*%
%TA.AperFunction,Conductor*%
%TO.N,/USB_P*%
G36*
X110178438Y-109004849D02*
G01*
X110186658Y-109008399D01*
X110189855Y-109014972D01*
X110238336Y-109371685D01*
X110236055Y-109380345D01*
X110228319Y-109384854D01*
X110226710Y-109384961D01*
X109886771Y-109383999D01*
X109886725Y-109384000D01*
X109533417Y-109400997D01*
X109533367Y-109401001D01*
X109180055Y-109435996D01*
X109180030Y-109435999D01*
X109180021Y-109436000D01*
X108908210Y-109476766D01*
X108826645Y-109489000D01*
X108487277Y-109557186D01*
X108478491Y-109555456D01*
X108473501Y-109548020D01*
X108473272Y-109545715D01*
X108473272Y-109406167D01*
X108476699Y-109397894D01*
X108478354Y-109396518D01*
X108546117Y-109350103D01*
X108618963Y-109283638D01*
X108691808Y-109200604D01*
X108764654Y-109101002D01*
X108834000Y-108990411D01*
X108841298Y-108985224D01*
X108844084Y-108984929D01*
X110178438Y-109004849D01*
G37*
%TD.AperFunction*%
%TD*%
%TA.AperFunction,Conductor*%
%TO.N,/USB_P*%
G36*
X102326929Y-106754243D02*
G01*
X102333243Y-106760592D01*
X102333219Y-106769547D01*
X102332907Y-106770232D01*
X102301595Y-106833463D01*
X102301234Y-106834135D01*
X102268251Y-106891081D01*
X102268244Y-106891095D01*
X102247442Y-106941830D01*
X102247553Y-106996937D01*
X102247553Y-106996939D01*
X102247554Y-106996941D01*
X102270527Y-107051623D01*
X102273130Y-107057819D01*
X102273175Y-107066774D01*
X102268193Y-107072484D01*
X102148509Y-107141583D01*
X102139631Y-107142751D01*
X102132636Y-107137486D01*
X102090052Y-107066774D01*
X102081624Y-107052778D01*
X102039104Y-106986691D01*
X102039048Y-106986602D01*
X102003636Y-106929328D01*
X102003227Y-106928611D01*
X101983552Y-106891090D01*
X101967304Y-106860104D01*
X101966975Y-106859422D01*
X101927507Y-106769951D01*
X101927305Y-106761001D01*
X101933491Y-106754526D01*
X101933658Y-106754453D01*
X102125561Y-106673971D01*
X102134512Y-106673933D01*
X102326929Y-106754243D01*
G37*
%TD.AperFunction*%
%TD*%
%TA.AperFunction,Conductor*%
%TO.N,/USB_N*%
G36*
X101623829Y-107073348D02*
G01*
X101623992Y-107073418D01*
X101713475Y-107112868D01*
X101714177Y-107113206D01*
X101782699Y-107149072D01*
X101783401Y-107149472D01*
X101840729Y-107184837D01*
X101840821Y-107184894D01*
X101906905Y-107227344D01*
X101980372Y-107271563D01*
X101991607Y-107278325D01*
X101996928Y-107285527D01*
X101995706Y-107294199D01*
X101926608Y-107413885D01*
X101919503Y-107419336D01*
X101911946Y-107418823D01*
X101851047Y-107393257D01*
X101795991Y-107393200D01*
X101795934Y-107393200D01*
X101795933Y-107393200D01*
X101745187Y-107414076D01*
X101688214Y-107447133D01*
X101687537Y-107447496D01*
X101624306Y-107478829D01*
X101615371Y-107479432D01*
X101608628Y-107473541D01*
X101608314Y-107472853D01*
X101528036Y-107280516D01*
X101528013Y-107271563D01*
X101528017Y-107271552D01*
X101608514Y-107079612D01*
X101614874Y-107073309D01*
X101623829Y-107073348D01*
G37*
%TD.AperFunction*%
%TD*%
%TA.AperFunction,Conductor*%
%TO.N,/USB_N*%
G36*
X108487268Y-109722812D02*
G01*
X108826646Y-109790999D01*
X109180021Y-109843999D01*
X109533396Y-109879000D01*
X109533417Y-109879001D01*
X109886725Y-109895998D01*
X109886733Y-109895998D01*
X109886771Y-109896000D01*
X110226710Y-109895038D01*
X110234993Y-109898441D01*
X110238443Y-109906705D01*
X110238336Y-109908314D01*
X110189855Y-110265027D01*
X110185346Y-110272763D01*
X110178437Y-110275150D01*
X108844087Y-110295069D01*
X108835763Y-110291766D01*
X108834000Y-110289586D01*
X108764662Y-110179010D01*
X108764654Y-110178997D01*
X108691808Y-110079394D01*
X108618963Y-109996361D01*
X108546117Y-109929896D01*
X108478360Y-109883485D01*
X108473471Y-109875982D01*
X108473272Y-109873832D01*
X108473272Y-109734284D01*
X108476699Y-109726011D01*
X108484972Y-109722584D01*
X108487268Y-109722812D01*
G37*
%TD.AperFunction*%
%TD*%
%TA.AperFunction,Conductor*%
%TO.N,/~{PFC_FLT}*%
G36*
X91839185Y-98468086D02*
G01*
X91842360Y-98470695D01*
X91913490Y-98554038D01*
X91913498Y-98554046D01*
X91913500Y-98554048D01*
X91989500Y-98628572D01*
X91989504Y-98628575D01*
X91989508Y-98628579D01*
X92024787Y-98656430D01*
X92065499Y-98688572D01*
X92141499Y-98734048D01*
X92210213Y-98762032D01*
X92216583Y-98768326D01*
X92217500Y-98772868D01*
X92217500Y-98917131D01*
X92214073Y-98925404D01*
X92210213Y-98927967D01*
X92141500Y-98955950D01*
X92065500Y-99001426D01*
X91989508Y-99061419D01*
X91989500Y-99061427D01*
X91913490Y-99135960D01*
X91842360Y-99219304D01*
X91834383Y-99223373D01*
X91830293Y-99222972D01*
X90829121Y-98941370D01*
X90526541Y-98856262D01*
X90519506Y-98850724D01*
X90518447Y-98841832D01*
X90523986Y-98834796D01*
X90526540Y-98833737D01*
X91830293Y-98467027D01*
X91839185Y-98468086D01*
G37*
%TD.AperFunction*%
%TD*%
%TA.AperFunction,Conductor*%
%TO.N,/~{PFC_FLT}*%
G36*
X100127052Y-96175775D02*
G01*
X100127273Y-96176269D01*
X100207747Y-96368319D01*
X100207784Y-96377274D01*
X100207747Y-96377363D01*
X100127273Y-96569412D01*
X100120915Y-96575718D01*
X100111960Y-96575681D01*
X100111466Y-96575460D01*
X100035186Y-96539263D01*
X100034403Y-96538855D01*
X99973016Y-96503819D01*
X99918731Y-96476597D01*
X99918728Y-96476596D01*
X99918720Y-96476593D01*
X99853446Y-96459055D01*
X99853439Y-96459054D01*
X99853438Y-96459054D01*
X99834796Y-96457832D01*
X99769577Y-96453557D01*
X99761545Y-96449596D01*
X99758642Y-96441882D01*
X99758642Y-96303799D01*
X99762069Y-96295526D01*
X99769576Y-96292124D01*
X99853438Y-96286627D01*
X99853445Y-96286625D01*
X99853446Y-96286625D01*
X99918720Y-96269087D01*
X99918720Y-96269086D01*
X99918731Y-96269084D01*
X99973016Y-96241861D01*
X100034416Y-96206817D01*
X100035171Y-96206423D01*
X100111467Y-96170220D01*
X100120410Y-96169770D01*
X100127052Y-96175775D01*
G37*
%TD.AperFunction*%
%TD*%
%TA.AperFunction,Conductor*%
%TO.N,/PGD*%
G36*
X112932075Y-110851764D02*
G01*
X113252038Y-110948784D01*
X113578708Y-111029838D01*
X113578715Y-111029839D01*
X113578717Y-111029840D01*
X113698177Y-111052897D01*
X113905379Y-111092892D01*
X114232049Y-111137946D01*
X114545825Y-111163932D01*
X114553787Y-111168030D01*
X114556519Y-111176558D01*
X114556363Y-111177723D01*
X114490152Y-111535205D01*
X114485276Y-111542715D01*
X114477572Y-111544724D01*
X113143863Y-111421529D01*
X113135940Y-111417356D01*
X113134555Y-111415269D01*
X113072458Y-111295639D01*
X113072453Y-111295631D01*
X113072451Y-111295627D01*
X113072446Y-111295618D01*
X113007392Y-111187149D01*
X112942338Y-111095534D01*
X112942332Y-111095525D01*
X112877288Y-111020778D01*
X112877281Y-111020771D01*
X112853783Y-110999855D01*
X112821491Y-110971111D01*
X112817591Y-110963052D01*
X112820532Y-110954594D01*
X112820981Y-110954117D01*
X112920410Y-110854688D01*
X112928682Y-110851262D01*
X112932075Y-110851764D01*
G37*
%TD.AperFunction*%
%TD*%
%TA.AperFunction,Conductor*%
%TO.N,/PGD*%
G36*
X112442987Y-110193575D02*
G01*
X112449293Y-110199933D01*
X112449486Y-110200438D01*
X112477830Y-110279973D01*
X112478095Y-110280817D01*
X112496724Y-110348988D01*
X112515863Y-110406630D01*
X112515865Y-110406633D01*
X112549627Y-110465201D01*
X112549628Y-110465204D01*
X112605041Y-110528390D01*
X112607919Y-110536869D01*
X112604517Y-110544377D01*
X112506877Y-110642017D01*
X112498604Y-110645444D01*
X112490890Y-110642541D01*
X112490292Y-110642017D01*
X112474670Y-110628316D01*
X112427704Y-110587128D01*
X112427701Y-110587127D01*
X112369133Y-110553365D01*
X112369130Y-110553363D01*
X112311488Y-110534224D01*
X112243317Y-110515595D01*
X112242473Y-110515330D01*
X112162938Y-110486986D01*
X112156296Y-110480981D01*
X112155845Y-110472037D01*
X112156020Y-110471577D01*
X112234935Y-110278829D01*
X112241241Y-110272472D01*
X112241257Y-110272465D01*
X112434035Y-110193538D01*
X112442987Y-110193575D01*
G37*
%TD.AperFunction*%
%TD*%
%TA.AperFunction,Conductor*%
%TO.N,/PFC_PWM_A*%
G36*
X91839185Y-99738086D02*
G01*
X91842360Y-99740695D01*
X91913490Y-99824038D01*
X91913498Y-99824046D01*
X91913500Y-99824048D01*
X91989500Y-99898572D01*
X91989504Y-99898575D01*
X91989508Y-99898579D01*
X92024787Y-99926430D01*
X92065499Y-99958572D01*
X92141499Y-100004048D01*
X92210213Y-100032032D01*
X92216583Y-100038326D01*
X92217500Y-100042868D01*
X92217500Y-100187131D01*
X92214073Y-100195404D01*
X92210213Y-100197967D01*
X92141500Y-100225950D01*
X92065500Y-100271426D01*
X91989508Y-100331419D01*
X91989500Y-100331427D01*
X91913490Y-100405960D01*
X91842360Y-100489304D01*
X91834383Y-100493373D01*
X91830293Y-100492972D01*
X90829121Y-100211370D01*
X90526541Y-100126262D01*
X90519506Y-100120724D01*
X90518447Y-100111832D01*
X90523986Y-100104796D01*
X90526540Y-100103737D01*
X91830293Y-99737027D01*
X91839185Y-99738086D01*
G37*
%TD.AperFunction*%
%TD*%
%TA.AperFunction,Conductor*%
%TO.N,/PFC_PWM_A*%
G36*
X99773498Y-96879328D02*
G01*
X99773719Y-96879822D01*
X99854193Y-97071872D01*
X99854230Y-97080827D01*
X99854193Y-97080916D01*
X99773719Y-97272965D01*
X99767361Y-97279271D01*
X99758406Y-97279234D01*
X99757912Y-97279013D01*
X99681632Y-97242816D01*
X99680849Y-97242408D01*
X99619462Y-97207372D01*
X99565177Y-97180150D01*
X99565174Y-97180149D01*
X99565166Y-97180146D01*
X99499892Y-97162608D01*
X99499885Y-97162607D01*
X99499884Y-97162607D01*
X99481242Y-97161385D01*
X99416023Y-97157110D01*
X99407991Y-97153149D01*
X99405088Y-97145435D01*
X99405088Y-97007352D01*
X99408515Y-96999079D01*
X99416022Y-96995677D01*
X99499884Y-96990180D01*
X99499891Y-96990178D01*
X99499892Y-96990178D01*
X99565166Y-96972640D01*
X99565166Y-96972639D01*
X99565177Y-96972637D01*
X99619462Y-96945414D01*
X99680862Y-96910370D01*
X99681617Y-96909976D01*
X99757913Y-96873773D01*
X99766856Y-96873323D01*
X99773498Y-96879328D01*
G37*
%TD.AperFunction*%
%TD*%
%TA.AperFunction,Conductor*%
%TO.N,/SDI*%
G36*
X89144701Y-102277025D02*
G01*
X90204079Y-102575000D01*
X90448457Y-102643737D01*
X90455493Y-102649276D01*
X90456552Y-102658168D01*
X90451013Y-102665204D01*
X90448457Y-102666263D01*
X89144706Y-103032972D01*
X89135814Y-103031913D01*
X89132639Y-103029304D01*
X89061508Y-102945960D01*
X89061499Y-102945951D01*
X88985499Y-102871427D01*
X88985494Y-102871423D01*
X88985490Y-102871419D01*
X88939354Y-102834996D01*
X88909500Y-102811427D01*
X88833500Y-102765951D01*
X88833498Y-102765950D01*
X88764787Y-102737967D01*
X88758417Y-102731673D01*
X88757500Y-102727131D01*
X88757500Y-102582868D01*
X88760927Y-102574595D01*
X88764785Y-102572032D01*
X88833500Y-102544048D01*
X88909500Y-102498572D01*
X88985499Y-102438572D01*
X89061499Y-102364048D01*
X89132641Y-102280692D01*
X89140616Y-102276625D01*
X89144701Y-102277025D01*
G37*
%TD.AperFunction*%
%TD*%
%TA.AperFunction,Conductor*%
%TO.N,/SDI*%
G36*
X88834181Y-102452159D02*
G01*
X88834662Y-102452374D01*
X88910953Y-102488575D01*
X88911733Y-102488982D01*
X88973124Y-102524020D01*
X89027409Y-102551243D01*
X89027416Y-102551244D01*
X89027419Y-102551246D01*
X89092694Y-102568784D01*
X89092696Y-102568784D01*
X89092703Y-102568786D01*
X89176565Y-102574283D01*
X89184597Y-102578244D01*
X89187500Y-102585958D01*
X89187500Y-102724041D01*
X89184073Y-102732314D01*
X89176565Y-102735716D01*
X89106250Y-102740325D01*
X89092703Y-102741213D01*
X89092701Y-102741213D01*
X89092694Y-102741214D01*
X89027419Y-102758752D01*
X89027411Y-102758755D01*
X89027409Y-102758755D01*
X89027409Y-102758756D01*
X88973124Y-102785978D01*
X88947720Y-102800476D01*
X88911736Y-102821014D01*
X88910953Y-102821422D01*
X88834675Y-102857619D01*
X88825732Y-102858070D01*
X88819089Y-102852065D01*
X88818868Y-102851571D01*
X88779976Y-102758756D01*
X88738393Y-102659519D01*
X88738357Y-102650568D01*
X88818869Y-102458426D01*
X88825226Y-102452122D01*
X88834181Y-102452159D01*
G37*
%TD.AperFunction*%
%TD*%
%TA.AperFunction,Conductor*%
%TO.N,/PWR_RELAY*%
G36*
X101620036Y-97761316D02*
G01*
X101626342Y-97767674D01*
X101626305Y-97776629D01*
X101626084Y-97777123D01*
X101589887Y-97853401D01*
X101589479Y-97854184D01*
X101554445Y-97915569D01*
X101527220Y-97969859D01*
X101527217Y-97969867D01*
X101509679Y-98035142D01*
X101509678Y-98035153D01*
X101504182Y-98119013D01*
X101500221Y-98127044D01*
X101492507Y-98129948D01*
X101354423Y-98129948D01*
X101346150Y-98126521D01*
X101342748Y-98119013D01*
X101337251Y-98035151D01*
X101319708Y-97969857D01*
X101292485Y-97915572D01*
X101257447Y-97854181D01*
X101257040Y-97853401D01*
X101220845Y-97777123D01*
X101220394Y-97768179D01*
X101226399Y-97761537D01*
X101226871Y-97761325D01*
X101418945Y-97680841D01*
X101427896Y-97680805D01*
X101620036Y-97761316D01*
G37*
%TD.AperFunction*%
%TD*%
%TA.AperFunction,Conductor*%
%TO.N,/PWR_RELAY*%
G36*
X87522066Y-106002293D02*
G01*
X87523772Y-106003704D01*
X87627103Y-106107035D01*
X87630530Y-106115308D01*
X87629720Y-106119586D01*
X87613517Y-106160832D01*
X87594514Y-106220114D01*
X87594505Y-106220142D01*
X87575505Y-106290316D01*
X87556506Y-106371395D01*
X87539424Y-106454104D01*
X87534395Y-106461513D01*
X87527986Y-106463437D01*
X86197007Y-106465689D01*
X86188728Y-106462276D01*
X86185398Y-106455589D01*
X86136272Y-106099247D01*
X86138537Y-106090584D01*
X86146264Y-106086060D01*
X86148656Y-106085977D01*
X86411323Y-106103863D01*
X86673725Y-106104681D01*
X86688322Y-106104727D01*
X86688322Y-106104726D01*
X86688339Y-106104727D01*
X86965354Y-106087590D01*
X86965359Y-106087589D01*
X86965364Y-106087589D01*
X87057692Y-106075878D01*
X87242370Y-106052454D01*
X87513295Y-106000486D01*
X87522066Y-106002293D01*
G37*
%TD.AperFunction*%
%TD*%
%TA.AperFunction,Conductor*%
%TO.N,/PWR_RELAY*%
G36*
X87827607Y-105827684D02*
G01*
X87832481Y-105833289D01*
X87886372Y-105963381D01*
X87886373Y-105972336D01*
X87882651Y-105977167D01*
X87819357Y-106025357D01*
X87819355Y-106025358D01*
X87819355Y-106025359D01*
X87819353Y-106025360D01*
X87748900Y-106095827D01*
X87748893Y-106095835D01*
X87678426Y-106183144D01*
X87607968Y-106287274D01*
X87607960Y-106287286D01*
X87540721Y-106402716D01*
X87533595Y-106408140D01*
X87531105Y-106408517D01*
X86196959Y-106464942D01*
X86188549Y-106461867D01*
X86184916Y-106455123D01*
X86127080Y-106097932D01*
X86129141Y-106089219D01*
X86136760Y-106084513D01*
X86138058Y-106084377D01*
X86465706Y-106068778D01*
X86465733Y-106068775D01*
X86465737Y-106068775D01*
X86806408Y-106034558D01*
X86806411Y-106034557D01*
X86806426Y-106034556D01*
X87147147Y-105982334D01*
X87487867Y-105912112D01*
X87818739Y-105826441D01*
X87827607Y-105827684D01*
G37*
%TD.AperFunction*%
%TD*%
%TA.AperFunction,Conductor*%
%TO.N,/PFC_PWM_B*%
G36*
X99169952Y-97482874D02*
G01*
X99170111Y-97483236D01*
X99250619Y-97675233D01*
X99250658Y-97684187D01*
X99250622Y-97684274D01*
X99170468Y-97875785D01*
X99164113Y-97882094D01*
X99155158Y-97882061D01*
X99154013Y-97881507D01*
X99095575Y-97849193D01*
X99093797Y-97847984D01*
X99045956Y-97808569D01*
X99003942Y-97775404D01*
X99003940Y-97775403D01*
X99003937Y-97775401D01*
X98953125Y-97757067D01*
X98953123Y-97757067D01*
X98936744Y-97758023D01*
X98888207Y-97760856D01*
X98879748Y-97757917D01*
X98876050Y-97751458D01*
X98849012Y-97615496D01*
X98850759Y-97606713D01*
X98857691Y-97601853D01*
X98929637Y-97584165D01*
X98986170Y-97562378D01*
X99033159Y-97537526D01*
X99086995Y-97508155D01*
X99087682Y-97507810D01*
X99154435Y-97477128D01*
X99163383Y-97476788D01*
X99169952Y-97482874D01*
G37*
%TD.AperFunction*%
%TD*%
%TA.AperFunction,Conductor*%
%TO.N,/PFC_PWM_B*%
G36*
X91839185Y-101008086D02*
G01*
X91842360Y-101010695D01*
X91913490Y-101094038D01*
X91913498Y-101094046D01*
X91913500Y-101094048D01*
X91989500Y-101168572D01*
X91989504Y-101168575D01*
X91989508Y-101168579D01*
X92024787Y-101196430D01*
X92065499Y-101228572D01*
X92141499Y-101274048D01*
X92210213Y-101302032D01*
X92216583Y-101308326D01*
X92217500Y-101312868D01*
X92217500Y-101457131D01*
X92214073Y-101465404D01*
X92210213Y-101467967D01*
X92141500Y-101495950D01*
X92065500Y-101541426D01*
X91989508Y-101601419D01*
X91989500Y-101601427D01*
X91913490Y-101675960D01*
X91842360Y-101759304D01*
X91834383Y-101763373D01*
X91830293Y-101762972D01*
X90829121Y-101481370D01*
X90526541Y-101396262D01*
X90519506Y-101390724D01*
X90518447Y-101381832D01*
X90523986Y-101374796D01*
X90526540Y-101373737D01*
X91830293Y-101007027D01*
X91839185Y-101008086D01*
G37*
%TD.AperFunction*%
%TD*%
%TA.AperFunction,Conductor*%
%TO.N,/~{CS}*%
G36*
X100912929Y-97054209D02*
G01*
X100919235Y-97060567D01*
X100919198Y-97069522D01*
X100918977Y-97070016D01*
X100882780Y-97146294D01*
X100882372Y-97147077D01*
X100847338Y-97208462D01*
X100820113Y-97262752D01*
X100820110Y-97262760D01*
X100802572Y-97328035D01*
X100802571Y-97328046D01*
X100797075Y-97411906D01*
X100793114Y-97419937D01*
X100785400Y-97422841D01*
X100647316Y-97422841D01*
X100639043Y-97419414D01*
X100635641Y-97411906D01*
X100630144Y-97328044D01*
X100612601Y-97262750D01*
X100585378Y-97208465D01*
X100550340Y-97147074D01*
X100549933Y-97146294D01*
X100513738Y-97070016D01*
X100513287Y-97061072D01*
X100519292Y-97054430D01*
X100519764Y-97054218D01*
X100711838Y-96973734D01*
X100720789Y-96973698D01*
X100912929Y-97054209D01*
G37*
%TD.AperFunction*%
%TD*%
%TA.AperFunction,Conductor*%
%TO.N,/~{CS}*%
G36*
X87830262Y-103282444D02*
G01*
X87835160Y-103288063D01*
X87889037Y-103418117D01*
X87889038Y-103427072D01*
X87885300Y-103431916D01*
X87821488Y-103480328D01*
X87821486Y-103480330D01*
X87750497Y-103551114D01*
X87679492Y-103638844D01*
X87608500Y-103743483D01*
X87608481Y-103743514D01*
X87540713Y-103859560D01*
X87533582Y-103864976D01*
X87531132Y-103865348D01*
X86196970Y-103924917D01*
X86188552Y-103921863D01*
X86184902Y-103915115D01*
X86126629Y-103557906D01*
X86128679Y-103549191D01*
X86136292Y-103544477D01*
X86137582Y-103544339D01*
X86465870Y-103527728D01*
X86807217Y-103492456D01*
X87148564Y-103439185D01*
X87489911Y-103367913D01*
X87821392Y-103281222D01*
X87830262Y-103282444D01*
G37*
%TD.AperFunction*%
%TD*%
%TA.AperFunction,Conductor*%
%TO.N,/DV_CTS*%
G36*
X112931918Y-104552029D02*
G01*
X113052198Y-104584892D01*
X113250897Y-104639181D01*
X113250925Y-104639188D01*
X113250936Y-104639191D01*
X113576505Y-104710143D01*
X113576521Y-104710145D01*
X113576523Y-104710146D01*
X113902060Y-104763094D01*
X113902062Y-104763094D01*
X113902073Y-104763096D01*
X114227642Y-104798048D01*
X114227661Y-104798049D01*
X114227673Y-104798050D01*
X114328016Y-104803274D01*
X114540072Y-104814315D01*
X114548155Y-104818167D01*
X114551147Y-104826607D01*
X114550996Y-104827968D01*
X114489979Y-105185324D01*
X114485209Y-105192903D01*
X114477695Y-105195031D01*
X113144010Y-105109286D01*
X113135974Y-105105335D01*
X113134433Y-105103108D01*
X113072446Y-104986674D01*
X113007392Y-104881028D01*
X112942338Y-104791930D01*
X112877284Y-104719379D01*
X112821784Y-104671601D01*
X112817751Y-104663607D01*
X112820551Y-104655102D01*
X112821132Y-104654475D01*
X112920565Y-104555042D01*
X112928837Y-104551616D01*
X112931918Y-104552029D01*
G37*
%TD.AperFunction*%
%TD*%
%TA.AperFunction,Conductor*%
%TO.N,/DV_CTS*%
G36*
X96917359Y-108659481D02*
G01*
X97014999Y-108757121D01*
X97018426Y-108765394D01*
X97015522Y-108773108D01*
X96960115Y-108836286D01*
X96960109Y-108836295D01*
X96926347Y-108894863D01*
X96926345Y-108894866D01*
X96907206Y-108952508D01*
X96888577Y-109020679D01*
X96888312Y-109021523D01*
X96859968Y-109101059D01*
X96853963Y-109107701D01*
X96845019Y-109108152D01*
X96844514Y-109107959D01*
X96651812Y-109029063D01*
X96645454Y-109022757D01*
X96645417Y-109022668D01*
X96616690Y-108952503D01*
X96566520Y-108829963D01*
X96566557Y-108821011D01*
X96572915Y-108814705D01*
X96573396Y-108814520D01*
X96652967Y-108786162D01*
X96653787Y-108785905D01*
X96700615Y-108773108D01*
X96721970Y-108767272D01*
X96722650Y-108767046D01*
X96779611Y-108748135D01*
X96838185Y-108714370D01*
X96901374Y-108658956D01*
X96909851Y-108656079D01*
X96917359Y-108659481D01*
G37*
%TD.AperFunction*%
%TD*%
%TA.AperFunction,Conductor*%
%TO.N,/DV_RTS*%
G36*
X110178545Y-105194617D02*
G01*
X110186688Y-105198340D01*
X110189732Y-105204860D01*
X110234238Y-105561407D01*
X110231862Y-105570041D01*
X110224077Y-105574466D01*
X110222244Y-105574550D01*
X109904930Y-105564142D01*
X109893255Y-105563759D01*
X109893254Y-105563759D01*
X109550576Y-105570517D01*
X109207891Y-105595278D01*
X108865211Y-105638037D01*
X108865177Y-105638042D01*
X108535951Y-105696418D01*
X108527206Y-105694488D01*
X108522388Y-105686941D01*
X108522211Y-105685177D01*
X108518863Y-105544839D01*
X108522092Y-105536487D01*
X108523506Y-105535226D01*
X108582476Y-105490662D01*
X108646232Y-105427308D01*
X108709988Y-105348783D01*
X108773744Y-105255086D01*
X108833968Y-105152247D01*
X108841106Y-105146841D01*
X108844485Y-105146469D01*
X110178545Y-105194617D01*
G37*
%TD.AperFunction*%
%TD*%
%TA.AperFunction,Conductor*%
%TO.N,/DV_RTS*%
G36*
X98035957Y-109890586D02*
G01*
X98039359Y-109898094D01*
X98044855Y-109981952D01*
X98044856Y-109981963D01*
X98062394Y-110047237D01*
X98062397Y-110047245D01*
X98062398Y-110047248D01*
X98089620Y-110101533D01*
X98089625Y-110101541D01*
X98124656Y-110162920D01*
X98125064Y-110163703D01*
X98161261Y-110239983D01*
X98161712Y-110248927D01*
X98155707Y-110255569D01*
X98155213Y-110255790D01*
X97963164Y-110336264D01*
X97954209Y-110336301D01*
X97954120Y-110336264D01*
X97762070Y-110255790D01*
X97755764Y-110249432D01*
X97755801Y-110240477D01*
X97756010Y-110240008D01*
X97792224Y-110163688D01*
X97792618Y-110162933D01*
X97827662Y-110101533D01*
X97854885Y-110047248D01*
X97872428Y-109981955D01*
X97877925Y-109898093D01*
X97881886Y-109890062D01*
X97889600Y-109887159D01*
X98027684Y-109887159D01*
X98035957Y-109890586D01*
G37*
%TD.AperFunction*%
%TD*%
%TA.AperFunction,Conductor*%
%TO.N,/DV_RTS*%
G36*
X110178545Y-105194617D02*
G01*
X110186688Y-105198340D01*
X110189732Y-105204860D01*
X110234238Y-105561407D01*
X110231862Y-105570041D01*
X110224077Y-105574466D01*
X110222244Y-105574550D01*
X109904930Y-105564142D01*
X109893255Y-105563759D01*
X109893254Y-105563759D01*
X109550576Y-105570517D01*
X109207891Y-105595278D01*
X108865211Y-105638037D01*
X108865177Y-105638042D01*
X108535951Y-105696418D01*
X108527206Y-105694488D01*
X108522388Y-105686941D01*
X108522211Y-105685177D01*
X108518863Y-105544839D01*
X108522092Y-105536487D01*
X108523506Y-105535226D01*
X108582476Y-105490662D01*
X108646232Y-105427308D01*
X108709988Y-105348783D01*
X108773744Y-105255086D01*
X108833968Y-105152247D01*
X108841106Y-105146841D01*
X108844485Y-105146469D01*
X110178545Y-105194617D01*
G37*
%TD.AperFunction*%
%TD*%
M02*
