%TF.GenerationSoftware,KiCad,Pcbnew,8.0.6*%
%TF.CreationDate,2024-11-10T20:51:06+07:00*%
%TF.ProjectId,HW.ACIM-MCU-32MK,48572e41-4349-44d2-9d4d-43552d33324d,0.1*%
%TF.SameCoordinates,Original*%
%TF.FileFunction,Copper,L2,Inr*%
%TF.FilePolarity,Positive*%
%FSLAX46Y46*%
G04 Gerber Fmt 4.6, Leading zero omitted, Abs format (unit mm)*
G04 Created by KiCad (PCBNEW 8.0.6) date 2024-11-10 20:51:06*
%MOMM*%
%LPD*%
G01*
G04 APERTURE LIST*
%TA.AperFunction,ViaPad*%
%ADD10C,0.450000*%
%TD*%
%TA.AperFunction,Conductor*%
%ADD11C,0.160000*%
%TD*%
G04 APERTURE END LIST*
D10*
%TO.N,GND*%
X108380215Y-110551268D03*
X97380215Y-99551268D03*
X101237500Y-95105000D03*
X88337500Y-103925000D03*
X107737500Y-102705000D03*
X112336793Y-98845707D03*
X88337500Y-109005000D03*
X99437500Y-95105000D03*
X92437500Y-96605000D03*
X102898181Y-105155386D03*
X94137500Y-98305000D03*
X99337500Y-98955000D03*
X100337500Y-93405000D03*
X88337500Y-97575000D03*
X90487500Y-109005000D03*
X88337500Y-106465000D03*
X88337500Y-93765000D03*
X114487500Y-93765000D03*
X97337500Y-93405000D03*
X88337500Y-95035000D03*
X110187500Y-93765000D03*
X112337500Y-100405000D03*
X112338207Y-105245707D03*
X112338207Y-96285000D03*
X96630215Y-101551268D03*
X102337500Y-101955000D03*
X112338207Y-107735707D03*
X100337500Y-103955000D03*
X94337500Y-93405000D03*
X97337500Y-111955000D03*
X112337500Y-106465000D03*
X88337500Y-105195000D03*
X103337500Y-93405000D03*
X103337500Y-111955000D03*
X112337500Y-97585000D03*
X106337500Y-93405000D03*
X88337500Y-107735000D03*
X100337500Y-109955000D03*
X100337500Y-111955000D03*
X112337500Y-93765000D03*
X86187500Y-109005000D03*
X88337500Y-98845000D03*
%TO.N,/VAC_DIV*%
X86187500Y-98845000D03*
%TO.N,AGND*%
X92912448Y-110275707D03*
X92912448Y-108690965D03*
%TO.N,/VBUS*%
X101069912Y-107983606D03*
X110187500Y-111545000D03*
%TO.N,+3V3*%
X112338207Y-95035000D03*
X104484125Y-108569392D03*
X114487500Y-95035000D03*
X103423465Y-109630052D03*
X110187500Y-95035000D03*
%TO.N,AVDD*%
X90487500Y-110275000D03*
X93462448Y-106440965D03*
%TO.N,/USB_P*%
X102130572Y-106672946D03*
%TO.N,/USB_N*%
X101527018Y-107276499D03*
%TO.N,/MC_VR_DIV*%
X97251535Y-109630052D03*
X114487500Y-98845000D03*
%TO.N,/VDC_DIV*%
X86187500Y-97575000D03*
%TO.N,/ENC_IDX*%
X96190875Y-96740608D03*
X86187500Y-93765000D03*
%TO.N,/~{INV_FLT}*%
X110187500Y-103925000D03*
%TO.N,/~{PFC_FLT}*%
X100208642Y-96372841D03*
%TO.N,/ENC_HOME*%
X86187500Y-95035000D03*
X95233768Y-97697715D03*
%TO.N,/PGD*%
X112237500Y-110275000D03*
%TO.N,/PFC_PWM_A*%
X99855088Y-97076394D03*
%TO.N,/MC_PWM_VL*%
X114487500Y-101385000D03*
%TO.N,/MC_PWM_UH*%
X110187500Y-100115000D03*
%TO.N,/SCK*%
X86187500Y-102655000D03*
X103777018Y-96033501D03*
%TO.N,/PGC*%
X114487500Y-110275000D03*
%TO.N,/MC_PWM_VH*%
X110187500Y-101385000D03*
%TO.N,/ENC_B*%
X98544428Y-98387054D03*
X90487500Y-93765000D03*
%TO.N,/MC_PWM_UL*%
X114487500Y-100115000D03*
%TO.N,/SDI*%
X88737500Y-102655000D03*
X102130572Y-98387054D03*
%TO.N,/PFC_PWM_ENA*%
X86187500Y-100115000D03*
X96319554Y-100611928D03*
%TO.N,/ENC_A*%
X96897982Y-96033501D03*
X90487500Y-95035000D03*
%TO.N,/PWR_RELAY*%
X101423465Y-97679948D03*
%TO.N,/MC_PWM_WL*%
X114487500Y-102655000D03*
%TO.N,/PFC_PWM_ENB*%
X86187500Y-101385000D03*
X95716727Y-101216169D03*
%TO.N,/MC_PWM_WH*%
X110187500Y-102655000D03*
%TO.N,/IDC_SEN*%
X86187500Y-96305000D03*
%TO.N,/~{MCLR}*%
X114487500Y-109005000D03*
X103897474Y-105154679D03*
%TO.N,/PFC_PWM_B*%
X99251535Y-97679948D03*
%TO.N,/~{CS}*%
X100716358Y-96972841D03*
%TO.N,/PFC_IA_SEN*%
X90487500Y-96305000D03*
%TO.N,/PFC_IB_SEN*%
X90487500Y-97575000D03*
%TO.N,/MC_IU_SEN*%
X114487500Y-97575000D03*
X102116358Y-110587159D03*
%TO.N,/MC_TEMP_SEN*%
X110187500Y-98845000D03*
X108119659Y-100826142D03*
%TO.N,/MC_IV_SEN*%
X99605088Y-107983606D03*
X114487500Y-96305000D03*
%TO.N,/MC_VU_DIV*%
X94655341Y-102276142D03*
X110187500Y-97575000D03*
%TO.N,/MC_VV_DIV*%
X96776661Y-105155179D03*
X110187500Y-96305000D03*
%TO.N,/DEV_RELAY*%
X92579411Y-104550712D03*
X90487500Y-106465000D03*
%TO.N,/SDO*%
X103069912Y-95326394D03*
X90487500Y-103925000D03*
%TO.N,/IO2*%
X96173108Y-104551625D03*
X90487500Y-107735000D03*
%TO.N,/SCL*%
X86187500Y-105195000D03*
X99294428Y-105172946D03*
%TO.N,/IO1*%
X86187500Y-107735000D03*
X95130215Y-107508732D03*
%TO.N,/SDA*%
X98794428Y-105922946D03*
X90487500Y-105195000D03*
%TO.N,/DV_TXD*%
X114487500Y-106465000D03*
X104958999Y-104094518D03*
%TO.N,/DV_CTS*%
X96647982Y-109026499D03*
%TO.N,/DB_RXD*%
X110937500Y-107735000D03*
%TO.N,/DV_RTS*%
X97958642Y-110337159D03*
%TO.N,/DV_RXD*%
X110937500Y-106465000D03*
%TO.N,/DB_TXD*%
X114487500Y-107735000D03*
%TO.N,/~{BUTTON}*%
X114487500Y-103925000D03*
X104587679Y-96844161D03*
%TD*%
D11*
%TO.N,/MC_VR_DIV*%
X114806053Y-95893553D02*
X114733946Y-95821446D01*
X114380393Y-95675000D02*
X110351714Y-95675000D01*
X97251535Y-108775179D02*
X97251535Y-109630052D01*
X114487500Y-98845000D02*
X114806054Y-98526446D01*
X109644607Y-95967893D02*
X97544428Y-108068072D01*
X114952500Y-98172893D02*
X114952500Y-96247107D01*
X110351714Y-95675000D02*
G75*
G03*
X109644600Y-95967886I-14J-1000000D01*
G01*
X97251535Y-108775179D02*
G75*
G02*
X97544446Y-108068090I999965J-21D01*
G01*
X114806054Y-98526446D02*
G75*
G03*
X114952495Y-98172893I-353554J353546D01*
G01*
X114380393Y-95675000D02*
G75*
G02*
X114733949Y-95821443I7J-500000D01*
G01*
X114952500Y-96247107D02*
G75*
G03*
X114806056Y-95893550I-500000J7D01*
G01*
%TO.N,/SCK*%
X91040761Y-102594695D02*
X90768906Y-102322840D01*
X96862270Y-102741142D02*
X91394315Y-102741142D01*
X90415353Y-102176394D02*
X86873213Y-102176394D01*
X86519659Y-102322841D02*
X86187500Y-102655000D01*
X103777018Y-96033501D02*
X97215823Y-102594696D01*
X86519659Y-102322841D02*
G75*
G02*
X86873213Y-102176405I353541J-353559D01*
G01*
X91394315Y-102741142D02*
G75*
G02*
X91040745Y-102594711I-15J500042D01*
G01*
X96862270Y-102741142D02*
G75*
G03*
X97215847Y-102594720I30J500042D01*
G01*
X90415353Y-102176394D02*
G75*
G02*
X90768931Y-102322815I47J-500006D01*
G01*
%TO.N,/SDI*%
X102130572Y-98387054D02*
X97602930Y-102914696D01*
X90908213Y-102914695D02*
X90794964Y-102801446D01*
X90441411Y-102655000D02*
X88737500Y-102655000D01*
X97249377Y-103061142D02*
X91261767Y-103061142D01*
X90794964Y-102801446D02*
G75*
G03*
X90441411Y-102654992I-353564J-353554D01*
G01*
X97249377Y-103061142D02*
G75*
G03*
X97602950Y-102914716I23J500042D01*
G01*
X91261767Y-103061142D02*
G75*
G02*
X90908221Y-102914687I33J500042D01*
G01*
%TO.N,/MC_IU_SEN*%
X102116358Y-110587159D02*
X100380393Y-108851194D01*
X100380393Y-106137203D02*
X108049703Y-98467893D01*
X100087500Y-108144087D02*
X100087500Y-106844310D01*
X108756810Y-98175000D02*
X113473286Y-98175000D01*
X114180393Y-97882107D02*
X114487500Y-97575000D01*
X108756810Y-98175000D02*
G75*
G03*
X108049698Y-98467888I-10J-1000000D01*
G01*
X113473286Y-98175000D02*
G75*
G03*
X114180400Y-97882114I14J1000000D01*
G01*
X100380393Y-106137203D02*
G75*
G03*
X100087507Y-106844310I707107J-707097D01*
G01*
X100380393Y-108851194D02*
G75*
G02*
X100087509Y-108144087I707107J707094D01*
G01*
%TO.N,/MC_IV_SEN*%
X109554262Y-96925000D02*
X113453286Y-96925000D01*
X114160393Y-96632107D02*
X114487500Y-96305000D01*
X99605088Y-107983606D02*
X99605088Y-106874174D01*
X99897981Y-106167067D02*
X108847155Y-97217893D01*
X113453286Y-96925000D02*
G75*
G03*
X114160400Y-96632114I14J1000000D01*
G01*
X109554262Y-96925000D02*
G75*
G03*
X108847174Y-97217912I38J-1000000D01*
G01*
X99897981Y-106167067D02*
G75*
G03*
X99605073Y-106874174I707119J-707133D01*
G01*
%TO.N,/DEV_RELAY*%
X90487500Y-106465000D02*
X91152626Y-106465000D01*
X91859733Y-106172107D02*
X92286518Y-105745322D01*
X92579411Y-105038215D02*
X92579411Y-104550712D01*
X91859733Y-106172107D02*
G75*
G02*
X91152626Y-106465019I-707133J707107D01*
G01*
X92579411Y-105038215D02*
G75*
G02*
X92286513Y-105745317I-1000011J15D01*
G01*
%TO.N,/SDO*%
X97608057Y-103381142D02*
X91238465Y-103381142D01*
X102523465Y-98672841D02*
X97961610Y-103234696D01*
X104269912Y-96033501D02*
X104269912Y-96069287D01*
X103069912Y-95326394D02*
X103562805Y-95326394D01*
X103916359Y-95472841D02*
X104123466Y-95679948D01*
X90884911Y-103527589D02*
X90487500Y-103925000D01*
X104123465Y-96422841D02*
X102816358Y-97729948D01*
X102669912Y-98083501D02*
X102669912Y-98319287D01*
X104123466Y-95679948D02*
G75*
G02*
X104269908Y-96033501I-353566J-353552D01*
G01*
X103916359Y-95472841D02*
G75*
G03*
X103562805Y-95326392I-353559J-353559D01*
G01*
X102669912Y-98319287D02*
G75*
G02*
X102523474Y-98672850I-500012J-13D01*
G01*
X104123465Y-96422841D02*
G75*
G03*
X104269899Y-96069287I-353565J353541D01*
G01*
X97608057Y-103381142D02*
G75*
G03*
X97961640Y-103234726I43J500042D01*
G01*
X90884911Y-103527589D02*
G75*
G02*
X91238465Y-103381105I353589J-353511D01*
G01*
X102669912Y-98083501D02*
G75*
G02*
X102816360Y-97729950I499988J1D01*
G01*
%TO.N,/IO2*%
X92575519Y-107735000D02*
X90487500Y-107735000D01*
X96173108Y-104551625D02*
X93282626Y-107442107D01*
X92575519Y-107735000D02*
G75*
G03*
X93282616Y-107442097I-19J1000000D01*
G01*
%TO.N,/SCL*%
X90466959Y-104555886D02*
X87033721Y-104555886D01*
X99294428Y-105172946D02*
X97969070Y-103847588D01*
X86680167Y-104702333D02*
X86187500Y-105195000D01*
X97615517Y-103701142D02*
X91735917Y-103701142D01*
X91382363Y-103847589D02*
X90820512Y-104409440D01*
X90820512Y-104409440D02*
G75*
G02*
X90466959Y-104555861I-353512J353540D01*
G01*
X87033721Y-104555886D02*
G75*
G03*
X86680154Y-104702320I-21J-500014D01*
G01*
X97615517Y-103701142D02*
G75*
G02*
X97969053Y-103847605I-17J-499958D01*
G01*
X91735917Y-103701142D02*
G75*
G03*
X91382363Y-103847589I-17J-499958D01*
G01*
%TO.N,/IO1*%
X95130215Y-107508732D02*
X94559428Y-108079519D01*
X86532018Y-108079518D02*
X86187500Y-107735000D01*
X94205875Y-108225965D02*
X86885572Y-108225965D01*
X94205875Y-108225965D02*
G75*
G03*
X94559433Y-108079524I25J499965D01*
G01*
X86532018Y-108079518D02*
G75*
G03*
X86885572Y-108225995I353582J353518D01*
G01*
%TO.N,/SDA*%
X97836523Y-104167589D02*
X98647982Y-104979048D01*
X98794428Y-105332601D02*
X98794428Y-105922946D01*
X91868465Y-104021142D02*
X97482969Y-104021142D01*
X90487500Y-105195000D02*
X91514912Y-104167588D01*
X91514912Y-104167588D02*
G75*
G02*
X91868465Y-104021105I353588J-353512D01*
G01*
X98647982Y-104979048D02*
G75*
G02*
X98794419Y-105332601I-353582J-353552D01*
G01*
X97836523Y-104167589D02*
G75*
G03*
X97482969Y-104021151I-353523J-353511D01*
G01*
%TD*%
%TA.AperFunction,Conductor*%
%TO.N,GND*%
G36*
X114654002Y-96682021D02*
G01*
X114700374Y-96721467D01*
X114712000Y-96765447D01*
X114712000Y-97116046D01*
X114691178Y-97173254D01*
X114638455Y-97203694D01*
X114609078Y-97203950D01*
X114487502Y-97184695D01*
X114487498Y-97184695D01*
X114366892Y-97203796D01*
X114366890Y-97203797D01*
X114258085Y-97259236D01*
X114171736Y-97345585D01*
X114129098Y-97429265D01*
X114126647Y-97433750D01*
X114119146Y-97446591D01*
X114119144Y-97446595D01*
X114119142Y-97446601D01*
X114118790Y-97447621D01*
X114117542Y-97450558D01*
X114114142Y-97461022D01*
X114114045Y-97460990D01*
X114113623Y-97462585D01*
X114092942Y-97522498D01*
X114091811Y-97526050D01*
X114090518Y-97530112D01*
X114090512Y-97530133D01*
X114090216Y-97531142D01*
X114088198Y-97538709D01*
X114073561Y-97599303D01*
X114072503Y-97603279D01*
X114065624Y-97626910D01*
X114058125Y-97644978D01*
X114054492Y-97651573D01*
X114042871Y-97667968D01*
X114008887Y-97705957D01*
X114007603Y-97708040D01*
X113988315Y-97730114D01*
X113902018Y-97800936D01*
X113887511Y-97810629D01*
X113771667Y-97872548D01*
X113755547Y-97879225D01*
X113629849Y-97917353D01*
X113612738Y-97920757D01*
X113530726Y-97928833D01*
X113477528Y-97934072D01*
X113468816Y-97934500D01*
X110582217Y-97934500D01*
X110525009Y-97913678D01*
X110494569Y-97860955D01*
X110502917Y-97805095D01*
X110505230Y-97800555D01*
X110558702Y-97695611D01*
X110561183Y-97679950D01*
X110577805Y-97575002D01*
X110577805Y-97574997D01*
X110558703Y-97454392D01*
X110558702Y-97454390D01*
X110558702Y-97454389D01*
X110503263Y-97345584D01*
X110475110Y-97317431D01*
X110449383Y-97262257D01*
X110465139Y-97203452D01*
X110515009Y-97168533D01*
X110538044Y-97165500D01*
X113510609Y-97165500D01*
X113510698Y-97165490D01*
X113550912Y-97165491D01*
X113743767Y-97134949D01*
X113929469Y-97074613D01*
X114103447Y-96985970D01*
X114261415Y-96871201D01*
X114288068Y-96844547D01*
X114288075Y-96844543D01*
X114296624Y-96835993D01*
X114296626Y-96835993D01*
X114317009Y-96815608D01*
X114335436Y-96801469D01*
X114343232Y-96796968D01*
X114379173Y-96765447D01*
X114387498Y-96758146D01*
X114401731Y-96747953D01*
X114416146Y-96739643D01*
X114432532Y-96732291D01*
X114459180Y-96723442D01*
X114463741Y-96722064D01*
X114525313Y-96705239D01*
X114526444Y-96704907D01*
X114531258Y-96703495D01*
X114532102Y-96703230D01*
X114538080Y-96701227D01*
X114593124Y-96681611D01*
X114654002Y-96682021D01*
G37*
%TD.AperFunction*%
%TA.AperFunction,Conductor*%
G36*
X114174164Y-95936322D02*
G01*
X114204604Y-95989045D01*
X114194032Y-96049000D01*
X114179892Y-96067428D01*
X114171737Y-96075584D01*
X114171736Y-96075585D01*
X114131323Y-96154899D01*
X114128419Y-96160152D01*
X114119622Y-96174869D01*
X114119618Y-96174878D01*
X114091265Y-96254431D01*
X114089228Y-96260519D01*
X114088986Y-96261291D01*
X114087258Y-96267181D01*
X114070424Y-96328775D01*
X114069039Y-96333355D01*
X114060206Y-96359959D01*
X114052848Y-96376361D01*
X114044550Y-96390757D01*
X114034357Y-96404991D01*
X113995524Y-96449272D01*
X113993418Y-96452787D01*
X113973544Y-96475824D01*
X113961127Y-96486015D01*
X113882020Y-96550935D01*
X113867514Y-96560627D01*
X113751667Y-96622548D01*
X113735547Y-96629225D01*
X113609849Y-96667353D01*
X113592738Y-96670757D01*
X113510726Y-96678833D01*
X113457528Y-96684072D01*
X113448816Y-96684500D01*
X110568044Y-96684500D01*
X110510836Y-96663678D01*
X110480396Y-96610955D01*
X110490968Y-96551000D01*
X110499274Y-96540174D01*
X110499147Y-96540082D01*
X110503261Y-96534419D01*
X110503264Y-96534414D01*
X110558702Y-96425611D01*
X110558824Y-96424845D01*
X110577805Y-96305002D01*
X110577805Y-96304997D01*
X110558703Y-96184392D01*
X110558702Y-96184390D01*
X110558702Y-96184389D01*
X110503263Y-96075584D01*
X110495110Y-96067431D01*
X110469383Y-96012257D01*
X110485139Y-95953452D01*
X110535009Y-95918533D01*
X110558044Y-95915500D01*
X114116956Y-95915500D01*
X114174164Y-95936322D01*
G37*
%TD.AperFunction*%
%TA.AperFunction,Conductor*%
G36*
X114890980Y-92905775D02*
G01*
X115068166Y-92919719D01*
X115081948Y-92921903D01*
X115251359Y-92962575D01*
X115264640Y-92966891D01*
X115425583Y-93033555D01*
X115438027Y-93039895D01*
X115586577Y-93130926D01*
X115597871Y-93139131D01*
X115656178Y-93188930D01*
X115730347Y-93252277D01*
X115740222Y-93262152D01*
X115762261Y-93287956D01*
X115852658Y-93393797D01*
X115853364Y-93394623D01*
X115861573Y-93405922D01*
X115952604Y-93554472D01*
X115958944Y-93566916D01*
X116025608Y-93727859D01*
X116029924Y-93741140D01*
X116070595Y-93910545D01*
X116072780Y-93924339D01*
X116086725Y-94101519D01*
X116086999Y-94108502D01*
X116086999Y-111201497D01*
X116086725Y-111208480D01*
X116072780Y-111385660D01*
X116070595Y-111399454D01*
X116029924Y-111568859D01*
X116025608Y-111582140D01*
X115958944Y-111743083D01*
X115952604Y-111755527D01*
X115861573Y-111904077D01*
X115853364Y-111915376D01*
X115740222Y-112047847D01*
X115730347Y-112057722D01*
X115597876Y-112170864D01*
X115586577Y-112179073D01*
X115438027Y-112270104D01*
X115425583Y-112276444D01*
X115264640Y-112343108D01*
X115251359Y-112347424D01*
X115081954Y-112388095D01*
X115068160Y-112390280D01*
X114890980Y-112404225D01*
X114883997Y-112404499D01*
X85791000Y-112404499D01*
X85784017Y-112404225D01*
X85606838Y-112390281D01*
X85593044Y-112388096D01*
X85423642Y-112347426D01*
X85410360Y-112343110D01*
X85249409Y-112276442D01*
X85236966Y-112270102D01*
X85088425Y-112179076D01*
X85077126Y-112170867D01*
X84944651Y-112057723D01*
X84934776Y-112047848D01*
X84821632Y-111915373D01*
X84813423Y-111904074D01*
X84722397Y-111755533D01*
X84716057Y-111743090D01*
X84683963Y-111665609D01*
X84649388Y-111582136D01*
X84645073Y-111568857D01*
X84639346Y-111545002D01*
X84639345Y-111544997D01*
X109797195Y-111544997D01*
X109797195Y-111545002D01*
X109816296Y-111665607D01*
X109816297Y-111665609D01*
X109816297Y-111665610D01*
X109816298Y-111665611D01*
X109871737Y-111774416D01*
X109958084Y-111860763D01*
X110066889Y-111916202D01*
X110066890Y-111916202D01*
X110066892Y-111916203D01*
X110187498Y-111935305D01*
X110187500Y-111935305D01*
X110187502Y-111935305D01*
X110308107Y-111916203D01*
X110308108Y-111916202D01*
X110308111Y-111916202D01*
X110416916Y-111860763D01*
X110503263Y-111774416D01*
X110558702Y-111665611D01*
X110574027Y-111568857D01*
X110577805Y-111545002D01*
X110577805Y-111544997D01*
X110558703Y-111424392D01*
X110558702Y-111424390D01*
X110558702Y-111424389D01*
X110503263Y-111315584D01*
X110416916Y-111229237D01*
X110308111Y-111173798D01*
X110308110Y-111173797D01*
X110308109Y-111173797D01*
X110308107Y-111173796D01*
X110187502Y-111154695D01*
X110187498Y-111154695D01*
X110066892Y-111173796D01*
X110066890Y-111173797D01*
X109958085Y-111229236D01*
X109871736Y-111315585D01*
X109816297Y-111424390D01*
X109816296Y-111424392D01*
X109797195Y-111544997D01*
X84639345Y-111544997D01*
X84604402Y-111399449D01*
X84602218Y-111385661D01*
X84589907Y-111229237D01*
X84588274Y-111208480D01*
X84588000Y-111201498D01*
X84588000Y-110274997D01*
X90097195Y-110274997D01*
X90097195Y-110275002D01*
X90116296Y-110395607D01*
X90116297Y-110395609D01*
X90116297Y-110395610D01*
X90116298Y-110395611D01*
X90171737Y-110504416D01*
X90258084Y-110590763D01*
X90366889Y-110646202D01*
X90366890Y-110646202D01*
X90366892Y-110646203D01*
X90487498Y-110665305D01*
X90487500Y-110665305D01*
X90487502Y-110665305D01*
X90608107Y-110646203D01*
X90608108Y-110646202D01*
X90608111Y-110646202D01*
X90716916Y-110590763D01*
X90803263Y-110504416D01*
X90858702Y-110395611D01*
X90867961Y-110337156D01*
X90877694Y-110275704D01*
X92522143Y-110275704D01*
X92522143Y-110275709D01*
X92541244Y-110396314D01*
X92541245Y-110396316D01*
X92541245Y-110396317D01*
X92541246Y-110396318D01*
X92596685Y-110505123D01*
X92683032Y-110591470D01*
X92791837Y-110646909D01*
X92791838Y-110646909D01*
X92791840Y-110646910D01*
X92912446Y-110666012D01*
X92912448Y-110666012D01*
X92912450Y-110666012D01*
X93033055Y-110646910D01*
X93033056Y-110646909D01*
X93033059Y-110646909D01*
X93141864Y-110591470D01*
X93228211Y-110505123D01*
X93283650Y-110396318D01*
X93283763Y-110395609D01*
X93293021Y-110337156D01*
X97568337Y-110337156D01*
X97568337Y-110337161D01*
X97587438Y-110457766D01*
X97587439Y-110457768D01*
X97587439Y-110457769D01*
X97587440Y-110457770D01*
X97642879Y-110566575D01*
X97729226Y-110652922D01*
X97838031Y-110708361D01*
X97838032Y-110708361D01*
X97838034Y-110708362D01*
X97958640Y-110727464D01*
X97958642Y-110727464D01*
X97958644Y-110727464D01*
X98079249Y-110708362D01*
X98079250Y-110708361D01*
X98079253Y-110708361D01*
X98188058Y-110652922D01*
X98274405Y-110566575D01*
X98329844Y-110457770D01*
X98336355Y-110416666D01*
X98348947Y-110337161D01*
X98348947Y-110337156D01*
X98329845Y-110216551D01*
X98329844Y-110216549D01*
X98329844Y-110216548D01*
X98274405Y-110107743D01*
X98188058Y-110021396D01*
X98079253Y-109965957D01*
X98079252Y-109965956D01*
X98079251Y-109965956D01*
X98079249Y-109965955D01*
X97958644Y-109946854D01*
X97958640Y-109946854D01*
X97838034Y-109965955D01*
X97838032Y-109965956D01*
X97729227Y-110021395D01*
X97642878Y-110107744D01*
X97587439Y-110216549D01*
X97587438Y-110216551D01*
X97568337Y-110337156D01*
X93293021Y-110337156D01*
X93302753Y-110275709D01*
X93302753Y-110275704D01*
X93283651Y-110155099D01*
X93283650Y-110155097D01*
X93283650Y-110155096D01*
X93228211Y-110046291D01*
X93141864Y-109959944D01*
X93033059Y-109904505D01*
X93033058Y-109904504D01*
X93033057Y-109904504D01*
X93033055Y-109904503D01*
X92912450Y-109885402D01*
X92912446Y-109885402D01*
X92791840Y-109904503D01*
X92791838Y-109904504D01*
X92683033Y-109959943D01*
X92596684Y-110046292D01*
X92541245Y-110155097D01*
X92541244Y-110155099D01*
X92522143Y-110275704D01*
X90877694Y-110275704D01*
X90877805Y-110275002D01*
X90877805Y-110274997D01*
X90858703Y-110154392D01*
X90858702Y-110154390D01*
X90858702Y-110154389D01*
X90803263Y-110045584D01*
X90716916Y-109959237D01*
X90608111Y-109903798D01*
X90608110Y-109903797D01*
X90608109Y-109903797D01*
X90608107Y-109903796D01*
X90487502Y-109884695D01*
X90487498Y-109884695D01*
X90366892Y-109903796D01*
X90366890Y-109903797D01*
X90258085Y-109959236D01*
X90171736Y-110045585D01*
X90116297Y-110154390D01*
X90116296Y-110154392D01*
X90097195Y-110274997D01*
X84588000Y-110274997D01*
X84588000Y-102654997D01*
X85797195Y-102654997D01*
X85797195Y-102655002D01*
X85816296Y-102775607D01*
X85816297Y-102775609D01*
X85816297Y-102775610D01*
X85816298Y-102775611D01*
X85871737Y-102884416D01*
X85958084Y-102970763D01*
X86066889Y-103026202D01*
X86066890Y-103026202D01*
X86066892Y-103026203D01*
X86187498Y-103045305D01*
X86187500Y-103045305D01*
X86187502Y-103045305D01*
X86308107Y-103026203D01*
X86308108Y-103026202D01*
X86308111Y-103026202D01*
X86416916Y-102970763D01*
X86503263Y-102884416D01*
X86543685Y-102805081D01*
X86546582Y-102799839D01*
X86555383Y-102785116D01*
X86583727Y-102705580D01*
X86585730Y-102699602D01*
X86585995Y-102698758D01*
X86587741Y-102692806D01*
X86604564Y-102631241D01*
X86605942Y-102626680D01*
X86614791Y-102600032D01*
X86622143Y-102583646D01*
X86630453Y-102569229D01*
X86640643Y-102555000D01*
X86679468Y-102510732D01*
X86681815Y-102506815D01*
X86703969Y-102481966D01*
X86734168Y-102458795D01*
X86754284Y-102447183D01*
X86795218Y-102430229D01*
X86817659Y-102424216D01*
X86867509Y-102417655D01*
X86879122Y-102416894D01*
X86915613Y-102416895D01*
X86915616Y-102416894D01*
X88281976Y-102416894D01*
X88339184Y-102437716D01*
X88369624Y-102490439D01*
X88367038Y-102527413D01*
X88367393Y-102527470D01*
X88366751Y-102531523D01*
X88366620Y-102533397D01*
X88366296Y-102534392D01*
X88347195Y-102654997D01*
X88347195Y-102655002D01*
X88366296Y-102775607D01*
X88366297Y-102775609D01*
X88366297Y-102775610D01*
X88366298Y-102775611D01*
X88421737Y-102884416D01*
X88508084Y-102970763D01*
X88616889Y-103026202D01*
X88616890Y-103026202D01*
X88616892Y-103026203D01*
X88737498Y-103045305D01*
X88737500Y-103045305D01*
X88737501Y-103045305D01*
X88750450Y-103043253D01*
X88858111Y-103026202D01*
X88876719Y-103016720D01*
X88895381Y-103009718D01*
X88905628Y-103007138D01*
X88981906Y-102970941D01*
X88982315Y-102970737D01*
X88987428Y-102968194D01*
X88988225Y-102967778D01*
X88993737Y-102964770D01*
X88993774Y-102964750D01*
X89029758Y-102944212D01*
X89029757Y-102944211D01*
X89041688Y-102937402D01*
X89049201Y-102933114D01*
X89053382Y-102930873D01*
X89078518Y-102918268D01*
X89095295Y-102911884D01*
X89111360Y-102907567D01*
X89128606Y-102904714D01*
X89187390Y-102900862D01*
X89198144Y-102898167D01*
X89219771Y-102895500D01*
X90435574Y-102895500D01*
X90447193Y-102896262D01*
X90496949Y-102902814D01*
X90519389Y-102908827D01*
X90560329Y-102925785D01*
X90580449Y-102937401D01*
X90589325Y-102944212D01*
X90620306Y-102967985D01*
X90629058Y-102975660D01*
X90778138Y-103124739D01*
X90778228Y-103124812D01*
X90789733Y-103136317D01*
X90794261Y-103139343D01*
X90830263Y-103188436D01*
X90826285Y-103249186D01*
X90794275Y-103287341D01*
X90766397Y-103305973D01*
X90719528Y-103352853D01*
X90719520Y-103352861D01*
X90657994Y-103414385D01*
X90639568Y-103428524D01*
X90631772Y-103433025D01*
X90631770Y-103433027D01*
X90587492Y-103471856D01*
X90573261Y-103482047D01*
X90558863Y-103490347D01*
X90542455Y-103497708D01*
X90515826Y-103506548D01*
X90511252Y-103507931D01*
X90496509Y-103511961D01*
X90496503Y-103511963D01*
X90449668Y-103524761D01*
X90443821Y-103526476D01*
X90443004Y-103526732D01*
X90436919Y-103528769D01*
X90357377Y-103557117D01*
X90353460Y-103558568D01*
X90353022Y-103558736D01*
X90353017Y-103558739D01*
X90341389Y-103566261D01*
X90333456Y-103570832D01*
X90258085Y-103609236D01*
X90171736Y-103695585D01*
X90116297Y-103804390D01*
X90116296Y-103804392D01*
X90097195Y-103924997D01*
X90097195Y-103925002D01*
X90116296Y-104045607D01*
X90116297Y-104045609D01*
X90116297Y-104045610D01*
X90116298Y-104045611D01*
X90171737Y-104154416D01*
X90180775Y-104163454D01*
X90206503Y-104218629D01*
X90190747Y-104277434D01*
X90140877Y-104312353D01*
X90117842Y-104315386D01*
X86977387Y-104315386D01*
X86977213Y-104315402D01*
X86960798Y-104315402D01*
X86817736Y-104343852D01*
X86817733Y-104343853D01*
X86682976Y-104399664D01*
X86682970Y-104399668D01*
X86561691Y-104480695D01*
X86561687Y-104480699D01*
X86548139Y-104494245D01*
X86548110Y-104494270D01*
X86500119Y-104542261D01*
X86477021Y-104565356D01*
X86477022Y-104565357D01*
X86357993Y-104684386D01*
X86339564Y-104698527D01*
X86331769Y-104703027D01*
X86287492Y-104741856D01*
X86273261Y-104752047D01*
X86258863Y-104760347D01*
X86242455Y-104767708D01*
X86215826Y-104776548D01*
X86211252Y-104777931D01*
X86196509Y-104781961D01*
X86196503Y-104781963D01*
X86149668Y-104794761D01*
X86143821Y-104796476D01*
X86143004Y-104796732D01*
X86136919Y-104798769D01*
X86057377Y-104827117D01*
X86053460Y-104828568D01*
X86053022Y-104828736D01*
X86053017Y-104828739D01*
X86041389Y-104836261D01*
X86033456Y-104840832D01*
X85958085Y-104879236D01*
X85871736Y-104965585D01*
X85816297Y-105074390D01*
X85816296Y-105074392D01*
X85797195Y-105194997D01*
X85797195Y-105195002D01*
X85816296Y-105315607D01*
X85816297Y-105315609D01*
X85816297Y-105315610D01*
X85816298Y-105315611D01*
X85871737Y-105424416D01*
X85958084Y-105510763D01*
X86066889Y-105566202D01*
X86066890Y-105566202D01*
X86066892Y-105566203D01*
X86187498Y-105585305D01*
X86187500Y-105585305D01*
X86187502Y-105585305D01*
X86308107Y-105566203D01*
X86308108Y-105566202D01*
X86308111Y-105566202D01*
X86416916Y-105510763D01*
X86503263Y-105424416D01*
X86543685Y-105345081D01*
X86546582Y-105339839D01*
X86555383Y-105325116D01*
X86583727Y-105245580D01*
X86585730Y-105239602D01*
X86585995Y-105238758D01*
X86587741Y-105232806D01*
X86598072Y-105194997D01*
X86604564Y-105171241D01*
X86605942Y-105166680D01*
X86614791Y-105140032D01*
X86622143Y-105123646D01*
X86630453Y-105109229D01*
X86640647Y-105094997D01*
X86679462Y-105050739D01*
X86679462Y-105050738D01*
X86679468Y-105050732D01*
X86685172Y-105041215D01*
X86698570Y-105024047D01*
X86846100Y-104876518D01*
X86854833Y-104868859D01*
X86894675Y-104838291D01*
X86914784Y-104826683D01*
X86955725Y-104809727D01*
X86978165Y-104803715D01*
X87028075Y-104797146D01*
X87039682Y-104796386D01*
X87076118Y-104796388D01*
X87076120Y-104796386D01*
X87084596Y-104796387D01*
X87084617Y-104796386D01*
X90126070Y-104796386D01*
X90183278Y-104817208D01*
X90213718Y-104869931D01*
X90203146Y-104929886D01*
X90189006Y-104948314D01*
X90173493Y-104963828D01*
X90171736Y-104965585D01*
X90116297Y-105074390D01*
X90116296Y-105074392D01*
X90097195Y-105194997D01*
X90097195Y-105195002D01*
X90116296Y-105315607D01*
X90116297Y-105315609D01*
X90116297Y-105315610D01*
X90116298Y-105315611D01*
X90171737Y-105424416D01*
X90258084Y-105510763D01*
X90366889Y-105566202D01*
X90366890Y-105566202D01*
X90366892Y-105566203D01*
X90487498Y-105585305D01*
X90487500Y-105585305D01*
X90487502Y-105585305D01*
X90608107Y-105566203D01*
X90608108Y-105566202D01*
X90608111Y-105566202D01*
X90716916Y-105510763D01*
X90803263Y-105424416D01*
X90843685Y-105345081D01*
X90846582Y-105339839D01*
X90855383Y-105325116D01*
X90883727Y-105245580D01*
X90885730Y-105239602D01*
X90885995Y-105238758D01*
X90887741Y-105232806D01*
X90898072Y-105194997D01*
X90904564Y-105171241D01*
X90905942Y-105166680D01*
X90914791Y-105140032D01*
X90922143Y-105123646D01*
X90930453Y-105109229D01*
X90940647Y-105094997D01*
X90979463Y-105050738D01*
X90979464Y-105050737D01*
X90979464Y-105050735D01*
X90979468Y-105050732D01*
X90985169Y-105041219D01*
X90998568Y-105024049D01*
X91648830Y-104373787D01*
X91648870Y-104373755D01*
X91655004Y-104367618D01*
X91655007Y-104367618D01*
X91680871Y-104341747D01*
X91689603Y-104334087D01*
X91729440Y-104303513D01*
X91749552Y-104291899D01*
X91790496Y-104274935D01*
X91812927Y-104268923D01*
X91848243Y-104264271D01*
X91862419Y-104262404D01*
X91874041Y-104261642D01*
X92148808Y-104261642D01*
X92206016Y-104282464D01*
X92236456Y-104335187D01*
X92228108Y-104391047D01*
X92208208Y-104430102D01*
X92208207Y-104430104D01*
X92189106Y-104550709D01*
X92189106Y-104550712D01*
X92208209Y-104671323D01*
X92212948Y-104680623D01*
X92217683Y-104689916D01*
X92224687Y-104708583D01*
X92227268Y-104718830D01*
X92227270Y-104718838D01*
X92255311Y-104777931D01*
X92263465Y-104795115D01*
X92265284Y-104798767D01*
X92266274Y-104800754D01*
X92266653Y-104801480D01*
X92269648Y-104806968D01*
X92301297Y-104862420D01*
X92303557Y-104866640D01*
X92316131Y-104891714D01*
X92322526Y-104908518D01*
X92326838Y-104924568D01*
X92329695Y-104941837D01*
X92333547Y-105000593D01*
X92333548Y-105000600D01*
X92333548Y-105000602D01*
X92336243Y-105011363D01*
X92338911Y-105032986D01*
X92338911Y-105033840D01*
X92338482Y-105042565D01*
X92325174Y-105177655D01*
X92321771Y-105194766D01*
X92283638Y-105320471D01*
X92276961Y-105336590D01*
X92215039Y-105452435D01*
X92205346Y-105466941D01*
X92119182Y-105571932D01*
X92113317Y-105578403D01*
X91719657Y-105972063D01*
X91719656Y-105972064D01*
X91719654Y-105972065D01*
X91710515Y-105981206D01*
X91710508Y-105981213D01*
X91692762Y-105998957D01*
X91686296Y-106004818D01*
X91581351Y-106090948D01*
X91566844Y-106100641D01*
X91451000Y-106162564D01*
X91434882Y-106169241D01*
X91309181Y-106207376D01*
X91292069Y-106210780D01*
X91187380Y-106221093D01*
X91157156Y-106224071D01*
X91148433Y-106224500D01*
X90969122Y-106224500D01*
X90946085Y-106221467D01*
X90937390Y-106219137D01*
X90878623Y-106215284D01*
X90861353Y-106212427D01*
X90845304Y-106208115D01*
X90828500Y-106201719D01*
X90803435Y-106189149D01*
X90799217Y-106186890D01*
X90743779Y-106155250D01*
X90738294Y-106152256D01*
X90737495Y-106151839D01*
X90731920Y-106149062D01*
X90655594Y-106112844D01*
X90652213Y-106111287D01*
X90651716Y-106111065D01*
X90651713Y-106111064D01*
X90646208Y-106109878D01*
X90624557Y-106102177D01*
X90608111Y-106093798D01*
X90608110Y-106093797D01*
X90608107Y-106093796D01*
X90487502Y-106074695D01*
X90487498Y-106074695D01*
X90366892Y-106093796D01*
X90366890Y-106093797D01*
X90258085Y-106149236D01*
X90171736Y-106235585D01*
X90116297Y-106344390D01*
X90116296Y-106344392D01*
X90097195Y-106464997D01*
X90097195Y-106465002D01*
X90116296Y-106585607D01*
X90116297Y-106585609D01*
X90116297Y-106585610D01*
X90116298Y-106585611D01*
X90171737Y-106694416D01*
X90258084Y-106780763D01*
X90366889Y-106836202D01*
X90366890Y-106836202D01*
X90366892Y-106836203D01*
X90487498Y-106855305D01*
X90487500Y-106855305D01*
X90487501Y-106855305D01*
X90500450Y-106853253D01*
X90608111Y-106836202D01*
X90626719Y-106826720D01*
X90645381Y-106819718D01*
X90655628Y-106817138D01*
X90731906Y-106780941D01*
X90734079Y-106779860D01*
X90737428Y-106778194D01*
X90738225Y-106777778D01*
X90738296Y-106777738D01*
X90743774Y-106774750D01*
X90779758Y-106754212D01*
X90779757Y-106754211D01*
X90786890Y-106750140D01*
X90799201Y-106743114D01*
X90803382Y-106740873D01*
X90828518Y-106728268D01*
X90845295Y-106721884D01*
X90861360Y-106717567D01*
X90878606Y-106714714D01*
X90937390Y-106710862D01*
X90948144Y-106708167D01*
X90969771Y-106705500D01*
X91110223Y-106705500D01*
X91110226Y-106705501D01*
X91115744Y-106705500D01*
X91115794Y-106705518D01*
X91152632Y-106705517D01*
X91152632Y-106705518D01*
X91250262Y-106705516D01*
X91443117Y-106674966D01*
X91471099Y-106665873D01*
X91628808Y-106614627D01*
X91628813Y-106614625D01*
X91628813Y-106614624D01*
X91628819Y-106614623D01*
X91802795Y-106525973D01*
X91954740Y-106415574D01*
X91960756Y-106411203D01*
X91960757Y-106411201D01*
X91960761Y-106411199D01*
X92009513Y-106362446D01*
X92490404Y-105881555D01*
X92490404Y-105881553D01*
X92497209Y-105874749D01*
X92497251Y-105874695D01*
X92525606Y-105846343D01*
X92569445Y-105786004D01*
X92640372Y-105688382D01*
X92640373Y-105688379D01*
X92640376Y-105688376D01*
X92729022Y-105514401D01*
X92789362Y-105328701D01*
X92819910Y-105135847D01*
X92819911Y-105038219D01*
X92819911Y-105032329D01*
X92822945Y-105009290D01*
X92825273Y-105000603D01*
X92825273Y-105000602D01*
X92825274Y-105000600D01*
X92829125Y-104941819D01*
X92831981Y-104924563D01*
X92836294Y-104908509D01*
X92842686Y-104891717D01*
X92855261Y-104866642D01*
X92857521Y-104862422D01*
X92889163Y-104806983D01*
X92891410Y-104802863D01*
X92892215Y-104801390D01*
X92892598Y-104800654D01*
X92894342Y-104797147D01*
X92895352Y-104795118D01*
X92931549Y-104718840D01*
X92933101Y-104715472D01*
X92933322Y-104714978D01*
X92934513Y-104709450D01*
X92942213Y-104687806D01*
X92950613Y-104671323D01*
X92969716Y-104550712D01*
X92969716Y-104550709D01*
X92950614Y-104430104D01*
X92950613Y-104430102D01*
X92950613Y-104430101D01*
X92932056Y-104393681D01*
X92930714Y-104391047D01*
X92923295Y-104330621D01*
X92956452Y-104279563D01*
X93010014Y-104261642D01*
X95742970Y-104261642D01*
X95800178Y-104282464D01*
X95830618Y-104335187D01*
X95822269Y-104391048D01*
X95816931Y-104401524D01*
X95814027Y-104406777D01*
X95805230Y-104421494D01*
X95805226Y-104421503D01*
X95776873Y-104501056D01*
X95774836Y-104507144D01*
X95774594Y-104507916D01*
X95772866Y-104513806D01*
X95756032Y-104575400D01*
X95754647Y-104579980D01*
X95745814Y-104606584D01*
X95738456Y-104622986D01*
X95730158Y-104637382D01*
X95719967Y-104651614D01*
X95681134Y-104695897D01*
X95681132Y-104695899D01*
X95681132Y-104695900D01*
X95675431Y-104705411D01*
X95662029Y-104722584D01*
X93988693Y-106395920D01*
X93933517Y-106421648D01*
X93874712Y-106405892D01*
X93839793Y-106356022D01*
X93837857Y-106346922D01*
X93833650Y-106320354D01*
X93778211Y-106211549D01*
X93691864Y-106125202D01*
X93583059Y-106069763D01*
X93583058Y-106069762D01*
X93583057Y-106069762D01*
X93583055Y-106069761D01*
X93462450Y-106050660D01*
X93462446Y-106050660D01*
X93341840Y-106069761D01*
X93341838Y-106069762D01*
X93233033Y-106125201D01*
X93146684Y-106211550D01*
X93091245Y-106320355D01*
X93091244Y-106320357D01*
X93072143Y-106440962D01*
X93072143Y-106440967D01*
X93091244Y-106561572D01*
X93091245Y-106561574D01*
X93091245Y-106561575D01*
X93091246Y-106561576D01*
X93146685Y-106670381D01*
X93233032Y-106756728D01*
X93341837Y-106812167D01*
X93368392Y-106816373D01*
X93421638Y-106845886D01*
X93443456Y-106902722D01*
X93423637Y-106960285D01*
X93417403Y-106967210D01*
X93115649Y-107268964D01*
X93109178Y-107274828D01*
X93004246Y-107360946D01*
X92989739Y-107370639D01*
X92873895Y-107432561D01*
X92857777Y-107439238D01*
X92732074Y-107477372D01*
X92714962Y-107480776D01*
X92580001Y-107494071D01*
X92571276Y-107494500D01*
X90969122Y-107494500D01*
X90946085Y-107491467D01*
X90937390Y-107489137D01*
X90878623Y-107485284D01*
X90861353Y-107482427D01*
X90845304Y-107478115D01*
X90828500Y-107471719D01*
X90803435Y-107459149D01*
X90799217Y-107456890D01*
X90743779Y-107425250D01*
X90738294Y-107422256D01*
X90737495Y-107421839D01*
X90731920Y-107419062D01*
X90655594Y-107382844D01*
X90652213Y-107381287D01*
X90651716Y-107381065D01*
X90651713Y-107381064D01*
X90646208Y-107379878D01*
X90624557Y-107372177D01*
X90608111Y-107363798D01*
X90608110Y-107363797D01*
X90608107Y-107363796D01*
X90487502Y-107344695D01*
X90487498Y-107344695D01*
X90366892Y-107363796D01*
X90366890Y-107363797D01*
X90258085Y-107419236D01*
X90171736Y-107505585D01*
X90116297Y-107614390D01*
X90116296Y-107614392D01*
X90097195Y-107734997D01*
X90097195Y-107735002D01*
X90116296Y-107855607D01*
X90116297Y-107855610D01*
X90116525Y-107856057D01*
X90116575Y-107856464D01*
X90118462Y-107862272D01*
X90117333Y-107862638D01*
X90123947Y-107916483D01*
X90090791Y-107967542D01*
X90037227Y-107985465D01*
X86891423Y-107985465D01*
X86879800Y-107984703D01*
X86830044Y-107978149D01*
X86807605Y-107972134D01*
X86766672Y-107955176D01*
X86746553Y-107943558D01*
X86706789Y-107913041D01*
X86683896Y-107886934D01*
X86679472Y-107879271D01*
X86679471Y-107879270D01*
X86679470Y-107879268D01*
X86640638Y-107834989D01*
X86630452Y-107820763D01*
X86622144Y-107806350D01*
X86614788Y-107789954D01*
X86605947Y-107763329D01*
X86604567Y-107758770D01*
X86587741Y-107697191D01*
X86585995Y-107691239D01*
X86585730Y-107690395D01*
X86583726Y-107684416D01*
X86555382Y-107604881D01*
X86554081Y-107601355D01*
X86553888Y-107600850D01*
X86546450Y-107589326D01*
X86541928Y-107581469D01*
X86519314Y-107537087D01*
X86503263Y-107505584D01*
X86416916Y-107419237D01*
X86308111Y-107363798D01*
X86308110Y-107363797D01*
X86308109Y-107363797D01*
X86308107Y-107363796D01*
X86187502Y-107344695D01*
X86187498Y-107344695D01*
X86066892Y-107363796D01*
X86066890Y-107363797D01*
X85958085Y-107419236D01*
X85871736Y-107505585D01*
X85816297Y-107614390D01*
X85816296Y-107614392D01*
X85797195Y-107734997D01*
X85797195Y-107735002D01*
X85816296Y-107855607D01*
X85816297Y-107855609D01*
X85816297Y-107855610D01*
X85816298Y-107855611D01*
X85871737Y-107964416D01*
X85958084Y-108050763D01*
X86000959Y-108072608D01*
X86037411Y-108091182D01*
X86042666Y-108094087D01*
X86057381Y-108102882D01*
X86136916Y-108131226D01*
X86142895Y-108133230D01*
X86143739Y-108133495D01*
X86143756Y-108133500D01*
X86143772Y-108133505D01*
X86148325Y-108134840D01*
X86149691Y-108135241D01*
X86211270Y-108152067D01*
X86215812Y-108153441D01*
X86242456Y-108162288D01*
X86258851Y-108169645D01*
X86273260Y-108177951D01*
X86287492Y-108188141D01*
X86315548Y-108212746D01*
X86315548Y-108212745D01*
X86321252Y-108217748D01*
X86331166Y-108226443D01*
X86331221Y-108226491D01*
X86331248Y-108226515D01*
X86331247Y-108226515D01*
X86331341Y-108226597D01*
X86331381Y-108226632D01*
X86354037Y-108246500D01*
X86365695Y-108253315D01*
X86401916Y-108289535D01*
X86402115Y-108289698D01*
X86413531Y-108301116D01*
X86413534Y-108301118D01*
X86413535Y-108301119D01*
X86534796Y-108382159D01*
X86534804Y-108382163D01*
X86534807Y-108382165D01*
X86669565Y-108437995D01*
X86812626Y-108466461D01*
X86828682Y-108466461D01*
X86828711Y-108466465D01*
X86837734Y-108466465D01*
X86885558Y-108466465D01*
X86885559Y-108466465D01*
X86927965Y-108466467D01*
X86927967Y-108466465D01*
X86936443Y-108466466D01*
X86936464Y-108466465D01*
X92453494Y-108466465D01*
X92510702Y-108487287D01*
X92541142Y-108540010D01*
X92541398Y-108569387D01*
X92522143Y-108690962D01*
X92522143Y-108690967D01*
X92541244Y-108811572D01*
X92541245Y-108811574D01*
X92541245Y-108811575D01*
X92541246Y-108811576D01*
X92596685Y-108920381D01*
X92683032Y-109006728D01*
X92791837Y-109062167D01*
X92791838Y-109062167D01*
X92791840Y-109062168D01*
X92912446Y-109081270D01*
X92912448Y-109081270D01*
X92912450Y-109081270D01*
X93033055Y-109062168D01*
X93033056Y-109062167D01*
X93033059Y-109062167D01*
X93141864Y-109006728D01*
X93228211Y-108920381D01*
X93283650Y-108811576D01*
X93285673Y-108798808D01*
X93302753Y-108690967D01*
X93302753Y-108690962D01*
X93283498Y-108569387D01*
X93295114Y-108509626D01*
X93342427Y-108471314D01*
X93371402Y-108466465D01*
X94264058Y-108466465D01*
X94264104Y-108466458D01*
X94278797Y-108466460D01*
X94421865Y-108438008D01*
X94556631Y-108382188D01*
X94677917Y-108301148D01*
X94683136Y-108295927D01*
X94683144Y-108295924D01*
X94683143Y-108295923D01*
X94752434Y-108226632D01*
X94959719Y-108019344D01*
X94978151Y-108005201D01*
X94985947Y-108000700D01*
X95018519Y-107972134D01*
X95030213Y-107961878D01*
X95044446Y-107951685D01*
X95046167Y-107950693D01*
X95058861Y-107943375D01*
X95075247Y-107936023D01*
X95101895Y-107927174D01*
X95106456Y-107925796D01*
X95157236Y-107911920D01*
X95168021Y-107908973D01*
X95173973Y-107907227D01*
X95174817Y-107906962D01*
X95180795Y-107904959D01*
X95260331Y-107876615D01*
X95260454Y-107876569D01*
X95263829Y-107875324D01*
X95263858Y-107875313D01*
X95264363Y-107875120D01*
X95275889Y-107867679D01*
X95283711Y-107863177D01*
X95359631Y-107824495D01*
X95445978Y-107738148D01*
X95501417Y-107629343D01*
X95503786Y-107614390D01*
X95520520Y-107508734D01*
X95520520Y-107508729D01*
X95501418Y-107388124D01*
X95501417Y-107388122D01*
X95501417Y-107388121D01*
X95445978Y-107279316D01*
X95359631Y-107192969D01*
X95250826Y-107137530D01*
X95250825Y-107137529D01*
X95250824Y-107137529D01*
X95250822Y-107137528D01*
X95130217Y-107118427D01*
X95130213Y-107118427D01*
X95009607Y-107137528D01*
X95009605Y-107137529D01*
X94900800Y-107192968D01*
X94814451Y-107279317D01*
X94774038Y-107358631D01*
X94771134Y-107363884D01*
X94762337Y-107378601D01*
X94762333Y-107378610D01*
X94733980Y-107458163D01*
X94731943Y-107464251D01*
X94731701Y-107465023D01*
X94729973Y-107470913D01*
X94713139Y-107532507D01*
X94711754Y-107537087D01*
X94702921Y-107563691D01*
X94695563Y-107580093D01*
X94688549Y-107592262D01*
X94687265Y-107594489D01*
X94677074Y-107608721D01*
X94638241Y-107653004D01*
X94638239Y-107653005D01*
X94638238Y-107653008D01*
X94632537Y-107662519D01*
X94619135Y-107679692D01*
X94393490Y-107905337D01*
X94384738Y-107913011D01*
X94344925Y-107943562D01*
X94324799Y-107955182D01*
X94283868Y-107972134D01*
X94261427Y-107978146D01*
X94211609Y-107984703D01*
X94199993Y-107985464D01*
X94171037Y-107985463D01*
X94163480Y-107985463D01*
X94163479Y-107985463D01*
X94155001Y-107985463D01*
X94154981Y-107985465D01*
X93224499Y-107985465D01*
X93167291Y-107964643D01*
X93136851Y-107911920D01*
X93147423Y-107851965D01*
X93184090Y-107817167D01*
X93225687Y-107795972D01*
X93383653Y-107681199D01*
X93406336Y-107658513D01*
X93406340Y-107658512D01*
X93418859Y-107645993D01*
X96002616Y-105062233D01*
X96021038Y-105048097D01*
X96028840Y-105043593D01*
X96073106Y-105004771D01*
X96087339Y-104994578D01*
X96101754Y-104986268D01*
X96118140Y-104978916D01*
X96144788Y-104970067D01*
X96149349Y-104968689D01*
X96210921Y-104951864D01*
X96212052Y-104951532D01*
X96216866Y-104950120D01*
X96217710Y-104949855D01*
X96223688Y-104947852D01*
X96290697Y-104923972D01*
X96351575Y-104924382D01*
X96397947Y-104963828D01*
X96408115Y-105023852D01*
X96405547Y-105034006D01*
X96386356Y-105155176D01*
X96386356Y-105155181D01*
X96405457Y-105275786D01*
X96405458Y-105275788D01*
X96405458Y-105275789D01*
X96405459Y-105275790D01*
X96460898Y-105384595D01*
X96547245Y-105470942D01*
X96656050Y-105526381D01*
X96656051Y-105526381D01*
X96656053Y-105526382D01*
X96776659Y-105545484D01*
X96776661Y-105545484D01*
X96776663Y-105545484D01*
X96897268Y-105526382D01*
X96897269Y-105526381D01*
X96897272Y-105526381D01*
X97006077Y-105470942D01*
X97092424Y-105384595D01*
X97147863Y-105275790D01*
X97147943Y-105275290D01*
X97166966Y-105155181D01*
X97166966Y-105155176D01*
X97147864Y-105034571D01*
X97147863Y-105034569D01*
X97147863Y-105034568D01*
X97092424Y-104925763D01*
X97006077Y-104839416D01*
X96897272Y-104783977D01*
X96897271Y-104783976D01*
X96897270Y-104783976D01*
X96897268Y-104783975D01*
X96776663Y-104764874D01*
X96776659Y-104764874D01*
X96649131Y-104785072D01*
X96648883Y-104783511D01*
X96595802Y-104781652D01*
X96550563Y-104740911D01*
X96542097Y-104680623D01*
X96544262Y-104672544D01*
X96563413Y-104551627D01*
X96563413Y-104551622D01*
X96544311Y-104431017D01*
X96544310Y-104431015D01*
X96544310Y-104431014D01*
X96528336Y-104399664D01*
X96523946Y-104391047D01*
X96516527Y-104330621D01*
X96549685Y-104279563D01*
X96603246Y-104261642D01*
X97432556Y-104261642D01*
X97432600Y-104261645D01*
X97440575Y-104261644D01*
X97440577Y-104261645D01*
X97477156Y-104261642D01*
X97488763Y-104262402D01*
X97538526Y-104268951D01*
X97560965Y-104274962D01*
X97601902Y-104291918D01*
X97622022Y-104303535D01*
X97661778Y-104334041D01*
X97670531Y-104341716D01*
X98473792Y-105144977D01*
X98481469Y-105153733D01*
X98512021Y-105193552D01*
X98523637Y-105213671D01*
X98536853Y-105245580D01*
X98540593Y-105254608D01*
X98546606Y-105277050D01*
X98553167Y-105326888D01*
X98553928Y-105338504D01*
X98553928Y-105441324D01*
X98550896Y-105464355D01*
X98549489Y-105469604D01*
X98548564Y-105473058D01*
X98544712Y-105531821D01*
X98541854Y-105549093D01*
X98537543Y-105565137D01*
X98531149Y-105581938D01*
X98518575Y-105607012D01*
X98516315Y-105611231D01*
X98484682Y-105666656D01*
X98481676Y-105672159D01*
X98481338Y-105672808D01*
X98481287Y-105672907D01*
X98481235Y-105673012D01*
X98478476Y-105678551D01*
X98442292Y-105754809D01*
X98440633Y-105758415D01*
X98440418Y-105758899D01*
X98439253Y-105764318D01*
X98431545Y-105786004D01*
X98423225Y-105802334D01*
X98423224Y-105802337D01*
X98404123Y-105922944D01*
X98404123Y-105922948D01*
X98423224Y-106043553D01*
X98423225Y-106043555D01*
X98423225Y-106043556D01*
X98423226Y-106043557D01*
X98478665Y-106152362D01*
X98565012Y-106238709D01*
X98673817Y-106294148D01*
X98673818Y-106294148D01*
X98673820Y-106294149D01*
X98764087Y-106308446D01*
X98817334Y-106337961D01*
X98839151Y-106394797D01*
X98819331Y-106452359D01*
X98813098Y-106459282D01*
X97334656Y-107937724D01*
X97334501Y-107937912D01*
X97305358Y-107967053D01*
X97305356Y-107967056D01*
X97190586Y-108125009D01*
X97190576Y-108125025D01*
X97101932Y-108298986D01*
X97101926Y-108299000D01*
X97041588Y-108484686D01*
X97041586Y-108484696D01*
X97015251Y-108650941D01*
X96985734Y-108704187D01*
X96928898Y-108726002D01*
X96884598Y-108712032D01*
X96883639Y-108713916D01*
X96768591Y-108655296D01*
X96768589Y-108655295D01*
X96647984Y-108636194D01*
X96647980Y-108636194D01*
X96527374Y-108655295D01*
X96527372Y-108655296D01*
X96418567Y-108710735D01*
X96332218Y-108797084D01*
X96276779Y-108905889D01*
X96276778Y-108905891D01*
X96257677Y-109026496D01*
X96257677Y-109026501D01*
X96276778Y-109147106D01*
X96276779Y-109147108D01*
X96276779Y-109147109D01*
X96276780Y-109147110D01*
X96332219Y-109255915D01*
X96418566Y-109342262D01*
X96527371Y-109397701D01*
X96527372Y-109397701D01*
X96527374Y-109397702D01*
X96647980Y-109416804D01*
X96647982Y-109416804D01*
X96647984Y-109416804D01*
X96775512Y-109396606D01*
X96775759Y-109398169D01*
X96828829Y-109400020D01*
X96874073Y-109440754D01*
X96882549Y-109501041D01*
X96880381Y-109509130D01*
X96861230Y-109630050D01*
X96861230Y-109630054D01*
X96880331Y-109750659D01*
X96880332Y-109750661D01*
X96880332Y-109750662D01*
X96880333Y-109750663D01*
X96935772Y-109859468D01*
X97022119Y-109945815D01*
X97130924Y-110001254D01*
X97130925Y-110001254D01*
X97130927Y-110001255D01*
X97251533Y-110020357D01*
X97251535Y-110020357D01*
X97251537Y-110020357D01*
X97372142Y-110001255D01*
X97372143Y-110001254D01*
X97372146Y-110001254D01*
X97480951Y-109945815D01*
X97567298Y-109859468D01*
X97622737Y-109750663D01*
X97641840Y-109630052D01*
X97622737Y-109509441D01*
X97613257Y-109490835D01*
X97606254Y-109472170D01*
X97603674Y-109461925D01*
X97603672Y-109461922D01*
X97603671Y-109461917D01*
X97567479Y-109385648D01*
X97564730Y-109380123D01*
X97564327Y-109379350D01*
X97562609Y-109376202D01*
X97561286Y-109373777D01*
X97529633Y-109318316D01*
X97527387Y-109314123D01*
X97514808Y-109289039D01*
X97508413Y-109272234D01*
X97504817Y-109258850D01*
X97504105Y-109256200D01*
X97501250Y-109238946D01*
X97497398Y-109180163D01*
X97494700Y-109169395D01*
X97492035Y-109147775D01*
X97492035Y-108779555D01*
X97492464Y-108770830D01*
X97498071Y-108713916D01*
X97505772Y-108635737D01*
X97509174Y-108618635D01*
X97547312Y-108492924D01*
X97553982Y-108476823D01*
X97615918Y-108360957D01*
X97625593Y-108346478D01*
X97711906Y-108241314D01*
X97717745Y-108234873D01*
X97728513Y-108224106D01*
X97744468Y-108208153D01*
X97744468Y-108208152D01*
X97753012Y-108199609D01*
X97753020Y-108199597D01*
X99212656Y-106739961D01*
X99267831Y-106714234D01*
X99326636Y-106729990D01*
X99361555Y-106779860D01*
X99364588Y-106802895D01*
X99364588Y-106814164D01*
X99364588Y-106826333D01*
X99364588Y-106826336D01*
X99364588Y-106855305D01*
X99364588Y-106874168D01*
X99364588Y-106899041D01*
X99364587Y-106926930D01*
X99364588Y-106926939D01*
X99364588Y-107501984D01*
X99361556Y-107525018D01*
X99359224Y-107533718D01*
X99355372Y-107592481D01*
X99352514Y-107609753D01*
X99348203Y-107625797D01*
X99341809Y-107642598D01*
X99329235Y-107667672D01*
X99326975Y-107671891D01*
X99295342Y-107727316D01*
X99292336Y-107732819D01*
X99291998Y-107733468D01*
X99291947Y-107733567D01*
X99291235Y-107734997D01*
X99289136Y-107739211D01*
X99252952Y-107815469D01*
X99251293Y-107819075D01*
X99251078Y-107819559D01*
X99249913Y-107824978D01*
X99242205Y-107846664D01*
X99233885Y-107862994D01*
X99233884Y-107862997D01*
X99214783Y-107983604D01*
X99214783Y-107983608D01*
X99233884Y-108104213D01*
X99233885Y-108104215D01*
X99233885Y-108104216D01*
X99233886Y-108104217D01*
X99289325Y-108213022D01*
X99375672Y-108299369D01*
X99484477Y-108354808D01*
X99484478Y-108354808D01*
X99484480Y-108354809D01*
X99605086Y-108373911D01*
X99605088Y-108373911D01*
X99605090Y-108373911D01*
X99725695Y-108354809D01*
X99725697Y-108354808D01*
X99725699Y-108354808D01*
X99745372Y-108344783D01*
X99805797Y-108337362D01*
X99856856Y-108370518D01*
X99873683Y-108410159D01*
X99877549Y-108434566D01*
X99877549Y-108434568D01*
X99937880Y-108620257D01*
X99937884Y-108620267D01*
X99937886Y-108620271D01*
X100017021Y-108775585D01*
X100026531Y-108794249D01*
X100026532Y-108794251D01*
X100132854Y-108940594D01*
X100141299Y-108952217D01*
X100171437Y-108982356D01*
X100171441Y-108982361D01*
X101605745Y-110416666D01*
X101619885Y-110435092D01*
X101624388Y-110442890D01*
X101624392Y-110442896D01*
X101663212Y-110487162D01*
X101673403Y-110501394D01*
X101681706Y-110515797D01*
X101689066Y-110532200D01*
X101697904Y-110558819D01*
X101699281Y-110563371D01*
X101716115Y-110624968D01*
X101717861Y-110630917D01*
X101718126Y-110631761D01*
X101720130Y-110637740D01*
X101729578Y-110664252D01*
X101748489Y-110717317D01*
X101749764Y-110720772D01*
X101749969Y-110721309D01*
X101757403Y-110732825D01*
X101761927Y-110740686D01*
X101800595Y-110816575D01*
X101886942Y-110902922D01*
X101995747Y-110958361D01*
X101995748Y-110958361D01*
X101995750Y-110958362D01*
X102116356Y-110977464D01*
X102116358Y-110977464D01*
X102116360Y-110977464D01*
X102236965Y-110958362D01*
X102236966Y-110958361D01*
X102236969Y-110958361D01*
X102345774Y-110902922D01*
X102432121Y-110816575D01*
X102487560Y-110707770D01*
X102497200Y-110646910D01*
X102506663Y-110587161D01*
X102506663Y-110587156D01*
X102487561Y-110466551D01*
X102487560Y-110466549D01*
X102487560Y-110466548D01*
X102432121Y-110357743D01*
X102349375Y-110274997D01*
X111847195Y-110274997D01*
X111847195Y-110275002D01*
X111866296Y-110395607D01*
X111866297Y-110395609D01*
X111866297Y-110395610D01*
X111866298Y-110395611D01*
X111921737Y-110504416D01*
X112008084Y-110590763D01*
X112116889Y-110646202D01*
X112116890Y-110646202D01*
X112116892Y-110646203D01*
X112237498Y-110665305D01*
X112237500Y-110665305D01*
X112237502Y-110665305D01*
X112358107Y-110646203D01*
X112358108Y-110646202D01*
X112358111Y-110646202D01*
X112466916Y-110590763D01*
X112553263Y-110504416D01*
X112608702Y-110395611D01*
X112617961Y-110337156D01*
X112627805Y-110275002D01*
X112627805Y-110274997D01*
X114097195Y-110274997D01*
X114097195Y-110275002D01*
X114116296Y-110395607D01*
X114116297Y-110395609D01*
X114116297Y-110395610D01*
X114116298Y-110395611D01*
X114171737Y-110504416D01*
X114258084Y-110590763D01*
X114366889Y-110646202D01*
X114366890Y-110646202D01*
X114366892Y-110646203D01*
X114487498Y-110665305D01*
X114487500Y-110665305D01*
X114487502Y-110665305D01*
X114608107Y-110646203D01*
X114608108Y-110646202D01*
X114608111Y-110646202D01*
X114716916Y-110590763D01*
X114803263Y-110504416D01*
X114858702Y-110395611D01*
X114867961Y-110337156D01*
X114877805Y-110275002D01*
X114877805Y-110274997D01*
X114858703Y-110154392D01*
X114858702Y-110154390D01*
X114858702Y-110154389D01*
X114803263Y-110045584D01*
X114716916Y-109959237D01*
X114608111Y-109903798D01*
X114608110Y-109903797D01*
X114608109Y-109903797D01*
X114608107Y-109903796D01*
X114487502Y-109884695D01*
X114487498Y-109884695D01*
X114366892Y-109903796D01*
X114366890Y-109903797D01*
X114258085Y-109959236D01*
X114171736Y-110045585D01*
X114116297Y-110154390D01*
X114116296Y-110154392D01*
X114097195Y-110274997D01*
X112627805Y-110274997D01*
X112608703Y-110154392D01*
X112608702Y-110154390D01*
X112608702Y-110154389D01*
X112553263Y-110045584D01*
X112466916Y-109959237D01*
X112358111Y-109903798D01*
X112358110Y-109903797D01*
X112358109Y-109903797D01*
X112358107Y-109903796D01*
X112237502Y-109884695D01*
X112237498Y-109884695D01*
X112116892Y-109903796D01*
X112116890Y-109903797D01*
X112008085Y-109959236D01*
X111921736Y-110045585D01*
X111866297Y-110154390D01*
X111866296Y-110154392D01*
X111847195Y-110274997D01*
X102349375Y-110274997D01*
X102345774Y-110271396D01*
X102342894Y-110269928D01*
X102266459Y-110230982D01*
X102261208Y-110228080D01*
X102246476Y-110219275D01*
X102185535Y-110197557D01*
X102166935Y-110190929D01*
X102166925Y-110190925D01*
X102166912Y-110190921D01*
X102160973Y-110188930D01*
X102160159Y-110188675D01*
X102154198Y-110186924D01*
X102154181Y-110186919D01*
X102154173Y-110186917D01*
X102137224Y-110182285D01*
X102137223Y-110182285D01*
X102131489Y-110180718D01*
X102131489Y-110180717D01*
X102131482Y-110180716D01*
X102092587Y-110170086D01*
X102088017Y-110168705D01*
X102073803Y-110163986D01*
X102073787Y-110163979D01*
X102061393Y-110159864D01*
X102044995Y-110152508D01*
X102030589Y-110144203D01*
X102016364Y-110134017D01*
X101972089Y-110095189D01*
X101972085Y-110095186D01*
X101972082Y-110095184D01*
X101962577Y-110089487D01*
X101945402Y-110076084D01*
X101499367Y-109630049D01*
X103033160Y-109630049D01*
X103033160Y-109630054D01*
X103052261Y-109750659D01*
X103052262Y-109750661D01*
X103052262Y-109750662D01*
X103052263Y-109750663D01*
X103107702Y-109859468D01*
X103194049Y-109945815D01*
X103302854Y-110001254D01*
X103302855Y-110001254D01*
X103302857Y-110001255D01*
X103423463Y-110020357D01*
X103423465Y-110020357D01*
X103423467Y-110020357D01*
X103544072Y-110001255D01*
X103544073Y-110001254D01*
X103544076Y-110001254D01*
X103652881Y-109945815D01*
X103739228Y-109859468D01*
X103794667Y-109750663D01*
X103813770Y-109630052D01*
X103813770Y-109630049D01*
X103794668Y-109509444D01*
X103794667Y-109509442D01*
X103794667Y-109509441D01*
X103739228Y-109400636D01*
X103652881Y-109314289D01*
X103544076Y-109258850D01*
X103544075Y-109258849D01*
X103544074Y-109258849D01*
X103544072Y-109258848D01*
X103423467Y-109239747D01*
X103423463Y-109239747D01*
X103302857Y-109258848D01*
X103302855Y-109258849D01*
X103194050Y-109314288D01*
X103107701Y-109400637D01*
X103052262Y-109509442D01*
X103052261Y-109509444D01*
X103033160Y-109630049D01*
X101499367Y-109630049D01*
X100874315Y-109004997D01*
X114097195Y-109004997D01*
X114097195Y-109005002D01*
X114116296Y-109125607D01*
X114116297Y-109125609D01*
X114116297Y-109125610D01*
X114116298Y-109125611D01*
X114171737Y-109234416D01*
X114258084Y-109320763D01*
X114366889Y-109376202D01*
X114366890Y-109376202D01*
X114366892Y-109376203D01*
X114487498Y-109395305D01*
X114487500Y-109395305D01*
X114487502Y-109395305D01*
X114608107Y-109376203D01*
X114608108Y-109376202D01*
X114608111Y-109376202D01*
X114716916Y-109320763D01*
X114803263Y-109234416D01*
X114858702Y-109125611D01*
X114868751Y-109062168D01*
X114877805Y-109005002D01*
X114877805Y-109004997D01*
X114858703Y-108884392D01*
X114858702Y-108884390D01*
X114858702Y-108884389D01*
X114803263Y-108775584D01*
X114716916Y-108689237D01*
X114608111Y-108633798D01*
X114608110Y-108633797D01*
X114608109Y-108633797D01*
X114608107Y-108633796D01*
X114487502Y-108614695D01*
X114487498Y-108614695D01*
X114366892Y-108633796D01*
X114366890Y-108633797D01*
X114258085Y-108689236D01*
X114171736Y-108775585D01*
X114116297Y-108884390D01*
X114116296Y-108884392D01*
X114097195Y-109004997D01*
X100874315Y-109004997D01*
X100553536Y-108684218D01*
X100547681Y-108677757D01*
X100461560Y-108572816D01*
X100459269Y-108569387D01*
X104093820Y-108569387D01*
X104093820Y-108569394D01*
X104112921Y-108689999D01*
X104112922Y-108690001D01*
X104112922Y-108690002D01*
X104112923Y-108690003D01*
X104168362Y-108798808D01*
X104254709Y-108885155D01*
X104363514Y-108940594D01*
X104363515Y-108940594D01*
X104363517Y-108940595D01*
X104484123Y-108959697D01*
X104484125Y-108959697D01*
X104484127Y-108959697D01*
X104604732Y-108940595D01*
X104604733Y-108940594D01*
X104604736Y-108940594D01*
X104713541Y-108885155D01*
X104799888Y-108798808D01*
X104855327Y-108690003D01*
X104855449Y-108689237D01*
X104874430Y-108569394D01*
X104874430Y-108569387D01*
X104855328Y-108448784D01*
X104855327Y-108448782D01*
X104855327Y-108448781D01*
X104799888Y-108339976D01*
X104713541Y-108253629D01*
X104604736Y-108198190D01*
X104604735Y-108198189D01*
X104604734Y-108198189D01*
X104604732Y-108198188D01*
X104484127Y-108179087D01*
X104484123Y-108179087D01*
X104363517Y-108198188D01*
X104363515Y-108198189D01*
X104254710Y-108253628D01*
X104168361Y-108339977D01*
X104112922Y-108448782D01*
X104112921Y-108448784D01*
X104093820Y-108569387D01*
X100459269Y-108569387D01*
X100451872Y-108558316D01*
X100389950Y-108442465D01*
X100383275Y-108426352D01*
X100345146Y-108300650D01*
X100341742Y-108283539D01*
X100338796Y-108253629D01*
X100328427Y-108148343D01*
X100328000Y-108139623D01*
X100328000Y-107983603D01*
X100679607Y-107983603D01*
X100679607Y-107983608D01*
X100698708Y-108104213D01*
X100698709Y-108104215D01*
X100698709Y-108104216D01*
X100698710Y-108104217D01*
X100754149Y-108213022D01*
X100840496Y-108299369D01*
X100949301Y-108354808D01*
X100949302Y-108354808D01*
X100949304Y-108354809D01*
X101069910Y-108373911D01*
X101069912Y-108373911D01*
X101069914Y-108373911D01*
X101190519Y-108354809D01*
X101190520Y-108354808D01*
X101190523Y-108354808D01*
X101299328Y-108299369D01*
X101385675Y-108213022D01*
X101441114Y-108104217D01*
X101441326Y-108102882D01*
X101460217Y-107983608D01*
X101460217Y-107983603D01*
X101441115Y-107862998D01*
X101441114Y-107862994D01*
X101404133Y-107790416D01*
X101397328Y-107734997D01*
X110547195Y-107734997D01*
X110547195Y-107735002D01*
X110566296Y-107855607D01*
X110566297Y-107855609D01*
X110566297Y-107855610D01*
X110566298Y-107855611D01*
X110621737Y-107964416D01*
X110708084Y-108050763D01*
X110816889Y-108106202D01*
X110816890Y-108106202D01*
X110816892Y-108106203D01*
X110937498Y-108125305D01*
X110937500Y-108125305D01*
X110937502Y-108125305D01*
X111058107Y-108106203D01*
X111058108Y-108106202D01*
X111058111Y-108106202D01*
X111166916Y-108050763D01*
X111253263Y-107964416D01*
X111308702Y-107855611D01*
X111309280Y-107851965D01*
X111327805Y-107735002D01*
X111327805Y-107734997D01*
X114097195Y-107734997D01*
X114097195Y-107735002D01*
X114116296Y-107855607D01*
X114116297Y-107855609D01*
X114116297Y-107855610D01*
X114116298Y-107855611D01*
X114171737Y-107964416D01*
X114258084Y-108050763D01*
X114366889Y-108106202D01*
X114366890Y-108106202D01*
X114366892Y-108106203D01*
X114487498Y-108125305D01*
X114487500Y-108125305D01*
X114487502Y-108125305D01*
X114608107Y-108106203D01*
X114608108Y-108106202D01*
X114608111Y-108106202D01*
X114716916Y-108050763D01*
X114803263Y-107964416D01*
X114858702Y-107855611D01*
X114859280Y-107851965D01*
X114877805Y-107735002D01*
X114877805Y-107734997D01*
X114858703Y-107614392D01*
X114858702Y-107614390D01*
X114858702Y-107614389D01*
X114803263Y-107505584D01*
X114716916Y-107419237D01*
X114608111Y-107363798D01*
X114608110Y-107363797D01*
X114608109Y-107363797D01*
X114608107Y-107363796D01*
X114487502Y-107344695D01*
X114487498Y-107344695D01*
X114366892Y-107363796D01*
X114366890Y-107363797D01*
X114258085Y-107419236D01*
X114171736Y-107505585D01*
X114116297Y-107614390D01*
X114116296Y-107614392D01*
X114097195Y-107734997D01*
X111327805Y-107734997D01*
X111308703Y-107614392D01*
X111308702Y-107614390D01*
X111308702Y-107614389D01*
X111253263Y-107505584D01*
X111166916Y-107419237D01*
X111058111Y-107363798D01*
X111058110Y-107363797D01*
X111058109Y-107363797D01*
X111058107Y-107363796D01*
X110937502Y-107344695D01*
X110937498Y-107344695D01*
X110816892Y-107363796D01*
X110816890Y-107363797D01*
X110708085Y-107419236D01*
X110621736Y-107505585D01*
X110566297Y-107614390D01*
X110566296Y-107614392D01*
X110547195Y-107734997D01*
X101397328Y-107734997D01*
X101396713Y-107729990D01*
X101429870Y-107678932D01*
X101488089Y-107661132D01*
X101497355Y-107662106D01*
X101527017Y-107666804D01*
X101527018Y-107666804D01*
X101527020Y-107666804D01*
X101647625Y-107647702D01*
X101647626Y-107647701D01*
X101647629Y-107647701D01*
X101756434Y-107592262D01*
X101842781Y-107505915D01*
X101898220Y-107397110D01*
X101899644Y-107388124D01*
X101917323Y-107276501D01*
X101917323Y-107276496D01*
X101897125Y-107148969D01*
X101898688Y-107148721D01*
X101900539Y-107095652D01*
X101941273Y-107050408D01*
X102001560Y-107041932D01*
X102009649Y-107044099D01*
X102130570Y-107063251D01*
X102130572Y-107063251D01*
X102130574Y-107063251D01*
X102251179Y-107044149D01*
X102251180Y-107044148D01*
X102251183Y-107044148D01*
X102359988Y-106988709D01*
X102446335Y-106902362D01*
X102501774Y-106793557D01*
X102503773Y-106780941D01*
X102520877Y-106672948D01*
X102520877Y-106672943D01*
X102501775Y-106552338D01*
X102501774Y-106552336D01*
X102501774Y-106552335D01*
X102457273Y-106464997D01*
X110547195Y-106464997D01*
X110547195Y-106465002D01*
X110566296Y-106585607D01*
X110566297Y-106585609D01*
X110566297Y-106585610D01*
X110566298Y-106585611D01*
X110621737Y-106694416D01*
X110708084Y-106780763D01*
X110816889Y-106836202D01*
X110816890Y-106836202D01*
X110816892Y-106836203D01*
X110937498Y-106855305D01*
X110937500Y-106855305D01*
X110937502Y-106855305D01*
X111058107Y-106836203D01*
X111058108Y-106836202D01*
X111058111Y-106836202D01*
X111166916Y-106780763D01*
X111253263Y-106694416D01*
X111308702Y-106585611D01*
X111312510Y-106561572D01*
X111327805Y-106465002D01*
X111327805Y-106464997D01*
X114097195Y-106464997D01*
X114097195Y-106465002D01*
X114116296Y-106585607D01*
X114116297Y-106585609D01*
X114116297Y-106585610D01*
X114116298Y-106585611D01*
X114171737Y-106694416D01*
X114258084Y-106780763D01*
X114366889Y-106836202D01*
X114366890Y-106836202D01*
X114366892Y-106836203D01*
X114487498Y-106855305D01*
X114487500Y-106855305D01*
X114487502Y-106855305D01*
X114608107Y-106836203D01*
X114608108Y-106836202D01*
X114608111Y-106836202D01*
X114716916Y-106780763D01*
X114803263Y-106694416D01*
X114858702Y-106585611D01*
X114862510Y-106561572D01*
X114877805Y-106465002D01*
X114877805Y-106464997D01*
X114858703Y-106344392D01*
X114858702Y-106344390D01*
X114858702Y-106344389D01*
X114803263Y-106235584D01*
X114716916Y-106149237D01*
X114608111Y-106093798D01*
X114608110Y-106093797D01*
X114608109Y-106093797D01*
X114608107Y-106093796D01*
X114487502Y-106074695D01*
X114487498Y-106074695D01*
X114366892Y-106093796D01*
X114366890Y-106093797D01*
X114258085Y-106149236D01*
X114171736Y-106235585D01*
X114116297Y-106344390D01*
X114116296Y-106344392D01*
X114097195Y-106464997D01*
X111327805Y-106464997D01*
X111308703Y-106344392D01*
X111308702Y-106344390D01*
X111308702Y-106344389D01*
X111253263Y-106235584D01*
X111166916Y-106149237D01*
X111058111Y-106093798D01*
X111058110Y-106093797D01*
X111058109Y-106093797D01*
X111058107Y-106093796D01*
X110937502Y-106074695D01*
X110937498Y-106074695D01*
X110816892Y-106093796D01*
X110816890Y-106093797D01*
X110708085Y-106149236D01*
X110621736Y-106235585D01*
X110566297Y-106344390D01*
X110566296Y-106344392D01*
X110547195Y-106464997D01*
X102457273Y-106464997D01*
X102446335Y-106443530D01*
X102359988Y-106357183D01*
X102251183Y-106301744D01*
X102251182Y-106301743D01*
X102251181Y-106301743D01*
X102251179Y-106301742D01*
X102130574Y-106282641D01*
X102130570Y-106282641D01*
X102009964Y-106301742D01*
X102009962Y-106301743D01*
X101901157Y-106357182D01*
X101814808Y-106443531D01*
X101759369Y-106552336D01*
X101759368Y-106552338D01*
X101740267Y-106672943D01*
X101740267Y-106672948D01*
X101760465Y-106800476D01*
X101758903Y-106800723D01*
X101757047Y-106853800D01*
X101716308Y-106899041D01*
X101656020Y-106907510D01*
X101647939Y-106905345D01*
X101527020Y-106886194D01*
X101527016Y-106886194D01*
X101406410Y-106905295D01*
X101406408Y-106905296D01*
X101297603Y-106960735D01*
X101211254Y-107047084D01*
X101155815Y-107155889D01*
X101155814Y-107155891D01*
X101136713Y-107276496D01*
X101136713Y-107276501D01*
X101155814Y-107397106D01*
X101155816Y-107397113D01*
X101192796Y-107469689D01*
X101200216Y-107530114D01*
X101167059Y-107581172D01*
X101108839Y-107598972D01*
X101099576Y-107597999D01*
X101084235Y-107595569D01*
X101069912Y-107593301D01*
X101069911Y-107593301D01*
X101069910Y-107593301D01*
X100949304Y-107612402D01*
X100949302Y-107612403D01*
X100840497Y-107667842D01*
X100754148Y-107754191D01*
X100698709Y-107862996D01*
X100698708Y-107862998D01*
X100679607Y-107983603D01*
X100328000Y-107983603D01*
X100328000Y-106848684D01*
X100328428Y-106839962D01*
X100341733Y-106704858D01*
X100345137Y-106687745D01*
X100349014Y-106674966D01*
X100383267Y-106562042D01*
X100389944Y-106545925D01*
X100390512Y-106544863D01*
X100451866Y-106430074D01*
X100461550Y-106415580D01*
X100547639Y-106310678D01*
X100553486Y-106304227D01*
X101703037Y-105154676D01*
X103507169Y-105154676D01*
X103507169Y-105154681D01*
X103526270Y-105275286D01*
X103526271Y-105275288D01*
X103526271Y-105275289D01*
X103526272Y-105275290D01*
X103581711Y-105384095D01*
X103668058Y-105470442D01*
X103776863Y-105525881D01*
X103776864Y-105525881D01*
X103776866Y-105525882D01*
X103897472Y-105544984D01*
X103897474Y-105544984D01*
X103897476Y-105544984D01*
X104018081Y-105525882D01*
X104018082Y-105525881D01*
X104018085Y-105525881D01*
X104126890Y-105470442D01*
X104213237Y-105384095D01*
X104268676Y-105275290D01*
X104273381Y-105245589D01*
X104287779Y-105154681D01*
X104287779Y-105154676D01*
X104268677Y-105034071D01*
X104268676Y-105034069D01*
X104268676Y-105034068D01*
X104213237Y-104925263D01*
X104126890Y-104838916D01*
X104018085Y-104783477D01*
X104018084Y-104783476D01*
X104018083Y-104783476D01*
X104018081Y-104783475D01*
X103897476Y-104764374D01*
X103897472Y-104764374D01*
X103776866Y-104783475D01*
X103776864Y-104783476D01*
X103668059Y-104838915D01*
X103581710Y-104925264D01*
X103526271Y-105034069D01*
X103526270Y-105034071D01*
X103507169Y-105154676D01*
X101703037Y-105154676D01*
X102763198Y-104094515D01*
X104568694Y-104094515D01*
X104568694Y-104094520D01*
X104587795Y-104215125D01*
X104587796Y-104215127D01*
X104587796Y-104215128D01*
X104587797Y-104215129D01*
X104643236Y-104323934D01*
X104729583Y-104410281D01*
X104838388Y-104465720D01*
X104838389Y-104465720D01*
X104838391Y-104465721D01*
X104958997Y-104484823D01*
X104958999Y-104484823D01*
X104959001Y-104484823D01*
X105079606Y-104465721D01*
X105079607Y-104465720D01*
X105079610Y-104465720D01*
X105188415Y-104410281D01*
X105274762Y-104323934D01*
X105330201Y-104215129D01*
X105339818Y-104154414D01*
X105349304Y-104094520D01*
X105349304Y-104094515D01*
X105330202Y-103973910D01*
X105330201Y-103973908D01*
X105330201Y-103973907D01*
X105305280Y-103924997D01*
X109797195Y-103924997D01*
X109797195Y-103925002D01*
X109816296Y-104045607D01*
X109816297Y-104045609D01*
X109816297Y-104045610D01*
X109816298Y-104045611D01*
X109871737Y-104154416D01*
X109958084Y-104240763D01*
X110066889Y-104296202D01*
X110066890Y-104296202D01*
X110066892Y-104296203D01*
X110187498Y-104315305D01*
X110187500Y-104315305D01*
X110187502Y-104315305D01*
X110308107Y-104296203D01*
X110308108Y-104296202D01*
X110308111Y-104296202D01*
X110416916Y-104240763D01*
X110503263Y-104154416D01*
X110558702Y-104045611D01*
X110570059Y-103973910D01*
X110577805Y-103925002D01*
X110577805Y-103924997D01*
X114097195Y-103924997D01*
X114097195Y-103925002D01*
X114116296Y-104045607D01*
X114116297Y-104045609D01*
X114116297Y-104045610D01*
X114116298Y-104045611D01*
X114171737Y-104154416D01*
X114258084Y-104240763D01*
X114366889Y-104296202D01*
X114366890Y-104296202D01*
X114366892Y-104296203D01*
X114487498Y-104315305D01*
X114487500Y-104315305D01*
X114487502Y-104315305D01*
X114608107Y-104296203D01*
X114608108Y-104296202D01*
X114608111Y-104296202D01*
X114716916Y-104240763D01*
X114803263Y-104154416D01*
X114858702Y-104045611D01*
X114870059Y-103973910D01*
X114877805Y-103925002D01*
X114877805Y-103924997D01*
X114858703Y-103804392D01*
X114858702Y-103804390D01*
X114858702Y-103804389D01*
X114803263Y-103695584D01*
X114716916Y-103609237D01*
X114608111Y-103553798D01*
X114608110Y-103553797D01*
X114608109Y-103553797D01*
X114608107Y-103553796D01*
X114487502Y-103534695D01*
X114487498Y-103534695D01*
X114366892Y-103553796D01*
X114366890Y-103553797D01*
X114258085Y-103609236D01*
X114171736Y-103695585D01*
X114116297Y-103804390D01*
X114116296Y-103804392D01*
X114097195Y-103924997D01*
X110577805Y-103924997D01*
X110558703Y-103804392D01*
X110558702Y-103804390D01*
X110558702Y-103804389D01*
X110503263Y-103695584D01*
X110416916Y-103609237D01*
X110308111Y-103553798D01*
X110308110Y-103553797D01*
X110308109Y-103553797D01*
X110308107Y-103553796D01*
X110187502Y-103534695D01*
X110187498Y-103534695D01*
X110066892Y-103553796D01*
X110066890Y-103553797D01*
X109958085Y-103609236D01*
X109871736Y-103695585D01*
X109816297Y-103804390D01*
X109816296Y-103804392D01*
X109797195Y-103924997D01*
X105305280Y-103924997D01*
X105274762Y-103865102D01*
X105188415Y-103778755D01*
X105079610Y-103723316D01*
X105079609Y-103723315D01*
X105079608Y-103723315D01*
X105079606Y-103723314D01*
X104959001Y-103704213D01*
X104958997Y-103704213D01*
X104838391Y-103723314D01*
X104838389Y-103723315D01*
X104729584Y-103778754D01*
X104643235Y-103865103D01*
X104587796Y-103973908D01*
X104587795Y-103973910D01*
X104568694Y-104094515D01*
X102763198Y-104094515D01*
X104202717Y-102654997D01*
X109797195Y-102654997D01*
X109797195Y-102655002D01*
X109816296Y-102775607D01*
X109816297Y-102775609D01*
X109816297Y-102775610D01*
X109816298Y-102775611D01*
X109871737Y-102884416D01*
X109958084Y-102970763D01*
X110066889Y-103026202D01*
X110066890Y-103026202D01*
X110066892Y-103026203D01*
X110187498Y-103045305D01*
X110187500Y-103045305D01*
X110187502Y-103045305D01*
X110308107Y-103026203D01*
X110308108Y-103026202D01*
X110308111Y-103026202D01*
X110416916Y-102970763D01*
X110503263Y-102884416D01*
X110558702Y-102775611D01*
X110563611Y-102744621D01*
X110577805Y-102655002D01*
X110577805Y-102654997D01*
X114097195Y-102654997D01*
X114097195Y-102655002D01*
X114116296Y-102775607D01*
X114116297Y-102775609D01*
X114116297Y-102775610D01*
X114116298Y-102775611D01*
X114171737Y-102884416D01*
X114258084Y-102970763D01*
X114366889Y-103026202D01*
X114366890Y-103026202D01*
X114366892Y-103026203D01*
X114487498Y-103045305D01*
X114487500Y-103045305D01*
X114487502Y-103045305D01*
X114608107Y-103026203D01*
X114608108Y-103026202D01*
X114608111Y-103026202D01*
X114716916Y-102970763D01*
X114803263Y-102884416D01*
X114858702Y-102775611D01*
X114863611Y-102744621D01*
X114877805Y-102655002D01*
X114877805Y-102654997D01*
X114858703Y-102534392D01*
X114858702Y-102534390D01*
X114858702Y-102534389D01*
X114803263Y-102425584D01*
X114716916Y-102339237D01*
X114608111Y-102283798D01*
X114608110Y-102283797D01*
X114608109Y-102283797D01*
X114608107Y-102283796D01*
X114487502Y-102264695D01*
X114487498Y-102264695D01*
X114366892Y-102283796D01*
X114366890Y-102283797D01*
X114258085Y-102339236D01*
X114171736Y-102425585D01*
X114116297Y-102534390D01*
X114116296Y-102534392D01*
X114097195Y-102654997D01*
X110577805Y-102654997D01*
X110558703Y-102534392D01*
X110558702Y-102534390D01*
X110558702Y-102534389D01*
X110503263Y-102425584D01*
X110416916Y-102339237D01*
X110308111Y-102283798D01*
X110308110Y-102283797D01*
X110308109Y-102283797D01*
X110308107Y-102283796D01*
X110187502Y-102264695D01*
X110187498Y-102264695D01*
X110066892Y-102283796D01*
X110066890Y-102283797D01*
X109958085Y-102339236D01*
X109871736Y-102425585D01*
X109816297Y-102534390D01*
X109816296Y-102534392D01*
X109797195Y-102654997D01*
X104202717Y-102654997D01*
X105472717Y-101384997D01*
X109797195Y-101384997D01*
X109797195Y-101385002D01*
X109816296Y-101505607D01*
X109816297Y-101505609D01*
X109816297Y-101505610D01*
X109816298Y-101505611D01*
X109871737Y-101614416D01*
X109958084Y-101700763D01*
X110066889Y-101756202D01*
X110066890Y-101756202D01*
X110066892Y-101756203D01*
X110187498Y-101775305D01*
X110187500Y-101775305D01*
X110187502Y-101775305D01*
X110308107Y-101756203D01*
X110308108Y-101756202D01*
X110308111Y-101756202D01*
X110416916Y-101700763D01*
X110503263Y-101614416D01*
X110558702Y-101505611D01*
X110568210Y-101445585D01*
X110577805Y-101385002D01*
X110577805Y-101384997D01*
X114097195Y-101384997D01*
X114097195Y-101385002D01*
X114116296Y-101505607D01*
X114116297Y-101505609D01*
X114116297Y-101505610D01*
X114116298Y-101505611D01*
X114171737Y-101614416D01*
X114258084Y-101700763D01*
X114366889Y-101756202D01*
X114366890Y-101756202D01*
X114366892Y-101756203D01*
X114487498Y-101775305D01*
X114487500Y-101775305D01*
X114487502Y-101775305D01*
X114608107Y-101756203D01*
X114608108Y-101756202D01*
X114608111Y-101756202D01*
X114716916Y-101700763D01*
X114803263Y-101614416D01*
X114858702Y-101505611D01*
X114868210Y-101445585D01*
X114877805Y-101385002D01*
X114877805Y-101384997D01*
X114858703Y-101264392D01*
X114858702Y-101264390D01*
X114858702Y-101264389D01*
X114803263Y-101155584D01*
X114716916Y-101069237D01*
X114608111Y-101013798D01*
X114608110Y-101013797D01*
X114608109Y-101013797D01*
X114608107Y-101013796D01*
X114487502Y-100994695D01*
X114487498Y-100994695D01*
X114366892Y-101013796D01*
X114366890Y-101013797D01*
X114258085Y-101069236D01*
X114171736Y-101155585D01*
X114116297Y-101264390D01*
X114116296Y-101264392D01*
X114097195Y-101384997D01*
X110577805Y-101384997D01*
X110558703Y-101264392D01*
X110558702Y-101264390D01*
X110558702Y-101264389D01*
X110503263Y-101155584D01*
X110416916Y-101069237D01*
X110308111Y-101013798D01*
X110308110Y-101013797D01*
X110308109Y-101013797D01*
X110308107Y-101013796D01*
X110187502Y-100994695D01*
X110187498Y-100994695D01*
X110066892Y-101013796D01*
X110066890Y-101013797D01*
X109958085Y-101069236D01*
X109871736Y-101155585D01*
X109816297Y-101264390D01*
X109816296Y-101264392D01*
X109797195Y-101384997D01*
X105472717Y-101384997D01*
X106031575Y-100826139D01*
X107729354Y-100826139D01*
X107729354Y-100826144D01*
X107748455Y-100946749D01*
X107748456Y-100946751D01*
X107748456Y-100946752D01*
X107748457Y-100946753D01*
X107803896Y-101055558D01*
X107890243Y-101141905D01*
X107999048Y-101197344D01*
X107999049Y-101197344D01*
X107999051Y-101197345D01*
X108119657Y-101216447D01*
X108119659Y-101216447D01*
X108119661Y-101216447D01*
X108240266Y-101197345D01*
X108240267Y-101197344D01*
X108240270Y-101197344D01*
X108349075Y-101141905D01*
X108435422Y-101055558D01*
X108490861Y-100946753D01*
X108506983Y-100844967D01*
X108509964Y-100826144D01*
X108509964Y-100826139D01*
X108490862Y-100705534D01*
X108490861Y-100705532D01*
X108490861Y-100705531D01*
X108435422Y-100596726D01*
X108349075Y-100510379D01*
X108240270Y-100454940D01*
X108240269Y-100454939D01*
X108240268Y-100454939D01*
X108240266Y-100454938D01*
X108119661Y-100435837D01*
X108119657Y-100435837D01*
X107999051Y-100454938D01*
X107999049Y-100454939D01*
X107890244Y-100510378D01*
X107803895Y-100596727D01*
X107748456Y-100705532D01*
X107748455Y-100705534D01*
X107729354Y-100826139D01*
X106031575Y-100826139D01*
X106742717Y-100114997D01*
X109797195Y-100114997D01*
X109797195Y-100115002D01*
X109816296Y-100235607D01*
X109816297Y-100235609D01*
X109816297Y-100235610D01*
X109816298Y-100235611D01*
X109871737Y-100344416D01*
X109958084Y-100430763D01*
X110066889Y-100486202D01*
X110066890Y-100486202D01*
X110066892Y-100486203D01*
X110187498Y-100505305D01*
X110187500Y-100505305D01*
X110187502Y-100505305D01*
X110308107Y-100486203D01*
X110308108Y-100486202D01*
X110308111Y-100486202D01*
X110416916Y-100430763D01*
X110503263Y-100344416D01*
X110558702Y-100235611D01*
X110560918Y-100221623D01*
X110577805Y-100115002D01*
X110577805Y-100114997D01*
X114097195Y-100114997D01*
X114097195Y-100115002D01*
X114116296Y-100235607D01*
X114116297Y-100235609D01*
X114116297Y-100235610D01*
X114116298Y-100235611D01*
X114171737Y-100344416D01*
X114258084Y-100430763D01*
X114366889Y-100486202D01*
X114366890Y-100486202D01*
X114366892Y-100486203D01*
X114487498Y-100505305D01*
X114487500Y-100505305D01*
X114487502Y-100505305D01*
X114608107Y-100486203D01*
X114608108Y-100486202D01*
X114608111Y-100486202D01*
X114716916Y-100430763D01*
X114803263Y-100344416D01*
X114858702Y-100235611D01*
X114860918Y-100221623D01*
X114877805Y-100115002D01*
X114877805Y-100114997D01*
X114858703Y-99994392D01*
X114858702Y-99994390D01*
X114858702Y-99994389D01*
X114803263Y-99885584D01*
X114716916Y-99799237D01*
X114608111Y-99743798D01*
X114608110Y-99743797D01*
X114608109Y-99743797D01*
X114608107Y-99743796D01*
X114487502Y-99724695D01*
X114487498Y-99724695D01*
X114366892Y-99743796D01*
X114366890Y-99743797D01*
X114258085Y-99799236D01*
X114171736Y-99885585D01*
X114116297Y-99994390D01*
X114116296Y-99994392D01*
X114097195Y-100114997D01*
X110577805Y-100114997D01*
X110558703Y-99994392D01*
X110558702Y-99994390D01*
X110558702Y-99994389D01*
X110503263Y-99885584D01*
X110416916Y-99799237D01*
X110308111Y-99743798D01*
X110308110Y-99743797D01*
X110308109Y-99743797D01*
X110308107Y-99743796D01*
X110187502Y-99724695D01*
X110187498Y-99724695D01*
X110066892Y-99743796D01*
X110066890Y-99743797D01*
X109958085Y-99799236D01*
X109871736Y-99885585D01*
X109816297Y-99994390D01*
X109816296Y-99994392D01*
X109797195Y-100114997D01*
X106742717Y-100114997D01*
X108216679Y-98641035D01*
X108223128Y-98635189D01*
X108328082Y-98549057D01*
X108342578Y-98539371D01*
X108458435Y-98477446D01*
X108474543Y-98470774D01*
X108600248Y-98432643D01*
X108617354Y-98429240D01*
X108752535Y-98415927D01*
X108761254Y-98415500D01*
X109856956Y-98415500D01*
X109914164Y-98436322D01*
X109944604Y-98489045D01*
X109934032Y-98549000D01*
X109919892Y-98567428D01*
X109871737Y-98615584D01*
X109871736Y-98615585D01*
X109816297Y-98724390D01*
X109816296Y-98724392D01*
X109797195Y-98844997D01*
X109797195Y-98845002D01*
X109816296Y-98965607D01*
X109816297Y-98965609D01*
X109816297Y-98965610D01*
X109816298Y-98965611D01*
X109871737Y-99074416D01*
X109958084Y-99160763D01*
X110066889Y-99216202D01*
X110066890Y-99216202D01*
X110066892Y-99216203D01*
X110187498Y-99235305D01*
X110187500Y-99235305D01*
X110187502Y-99235305D01*
X110308107Y-99216203D01*
X110308108Y-99216202D01*
X110308111Y-99216202D01*
X110416916Y-99160763D01*
X110503263Y-99074416D01*
X110558702Y-98965611D01*
X110569793Y-98895589D01*
X110577805Y-98845002D01*
X110577805Y-98844997D01*
X110558703Y-98724392D01*
X110558702Y-98724390D01*
X110558702Y-98724389D01*
X110503263Y-98615584D01*
X110455110Y-98567431D01*
X110429383Y-98512257D01*
X110445139Y-98453452D01*
X110495009Y-98418533D01*
X110518044Y-98415500D01*
X113530609Y-98415500D01*
X113530698Y-98415490D01*
X113570912Y-98415491D01*
X113763767Y-98384949D01*
X113949469Y-98324613D01*
X114123447Y-98235970D01*
X114281415Y-98121201D01*
X114308069Y-98094546D01*
X114308082Y-98094537D01*
X114316625Y-98085993D01*
X114316626Y-98085993D01*
X114324986Y-98077632D01*
X114345075Y-98062555D01*
X114350605Y-98059518D01*
X114393274Y-98023675D01*
X114407645Y-98013831D01*
X114413582Y-98010568D01*
X114420893Y-98006549D01*
X114436957Y-97999679D01*
X114463293Y-97991368D01*
X114467138Y-97990251D01*
X114491397Y-97983808D01*
X114491397Y-97983807D01*
X114527324Y-97974264D01*
X114533814Y-97972398D01*
X114534721Y-97972117D01*
X114534736Y-97972111D01*
X114534749Y-97972108D01*
X114537716Y-97971122D01*
X114541060Y-97970012D01*
X114593252Y-97951503D01*
X114654129Y-97952006D01*
X114700441Y-97991522D01*
X114712000Y-98035384D01*
X114712000Y-98167062D01*
X114711239Y-98178679D01*
X114704687Y-98228447D01*
X114698674Y-98250888D01*
X114681720Y-98291820D01*
X114670101Y-98311943D01*
X114654766Y-98331927D01*
X114634672Y-98349565D01*
X114635327Y-98350478D01*
X114631772Y-98353025D01*
X114587492Y-98391856D01*
X114573261Y-98402047D01*
X114558863Y-98410347D01*
X114542455Y-98417708D01*
X114515826Y-98426548D01*
X114511252Y-98427931D01*
X114496509Y-98431961D01*
X114496503Y-98431963D01*
X114449668Y-98444761D01*
X114443821Y-98446476D01*
X114443004Y-98446732D01*
X114436919Y-98448769D01*
X114366693Y-98473797D01*
X114357355Y-98477125D01*
X114353503Y-98478552D01*
X114353460Y-98478568D01*
X114353022Y-98478736D01*
X114353017Y-98478739D01*
X114341389Y-98486261D01*
X114333456Y-98490832D01*
X114258085Y-98529236D01*
X114171736Y-98615585D01*
X114116297Y-98724390D01*
X114116296Y-98724392D01*
X114097195Y-98844997D01*
X114097195Y-98845002D01*
X114116296Y-98965607D01*
X114116297Y-98965609D01*
X114116297Y-98965610D01*
X114116298Y-98965611D01*
X114171737Y-99074416D01*
X114258084Y-99160763D01*
X114366889Y-99216202D01*
X114366890Y-99216202D01*
X114366892Y-99216203D01*
X114487498Y-99235305D01*
X114487500Y-99235305D01*
X114487502Y-99235305D01*
X114608107Y-99216203D01*
X114608108Y-99216202D01*
X114608111Y-99216202D01*
X114716916Y-99160763D01*
X114803263Y-99074416D01*
X114843685Y-98995081D01*
X114846582Y-98989839D01*
X114855383Y-98975116D01*
X114883727Y-98895580D01*
X114885730Y-98889602D01*
X114885995Y-98888758D01*
X114887741Y-98882806D01*
X114904564Y-98821241D01*
X114905942Y-98816680D01*
X114914791Y-98790032D01*
X114922143Y-98773646D01*
X114930453Y-98759229D01*
X114940647Y-98744997D01*
X114979463Y-98700738D01*
X114979464Y-98700737D01*
X114979464Y-98700735D01*
X114979468Y-98700732D01*
X114985160Y-98691234D01*
X114998559Y-98674064D01*
X115027689Y-98644935D01*
X115108727Y-98523650D01*
X115164546Y-98388887D01*
X115193001Y-98245823D01*
X115193000Y-98172890D01*
X115193000Y-98152420D01*
X115193000Y-96199269D01*
X115193000Y-96189758D01*
X115192995Y-96189714D01*
X115192995Y-96187283D01*
X115192996Y-96174177D01*
X115164541Y-96031114D01*
X115108722Y-95896351D01*
X115027684Y-95775067D01*
X115018163Y-95765546D01*
X115018162Y-95765544D01*
X114976113Y-95723495D01*
X114976114Y-95723495D01*
X114946128Y-95693509D01*
X114946126Y-95693508D01*
X114936219Y-95683601D01*
X114936213Y-95683587D01*
X114852436Y-95599812D01*
X114852435Y-95599811D01*
X114831196Y-95585620D01*
X114731150Y-95518773D01*
X114719777Y-95514062D01*
X114674893Y-95472934D01*
X114666947Y-95412575D01*
X114699657Y-95361230D01*
X114713433Y-95352538D01*
X114714745Y-95351868D01*
X114716916Y-95350763D01*
X114803263Y-95264416D01*
X114858702Y-95155611D01*
X114867989Y-95096979D01*
X114877805Y-95035002D01*
X114877805Y-95034997D01*
X114858703Y-94914392D01*
X114858702Y-94914390D01*
X114858702Y-94914389D01*
X114803263Y-94805584D01*
X114716916Y-94719237D01*
X114608111Y-94663798D01*
X114608110Y-94663797D01*
X114608109Y-94663797D01*
X114608107Y-94663796D01*
X114487502Y-94644695D01*
X114487498Y-94644695D01*
X114366892Y-94663796D01*
X114366890Y-94663797D01*
X114258085Y-94719236D01*
X114171736Y-94805585D01*
X114116297Y-94914390D01*
X114116296Y-94914392D01*
X114097195Y-95034997D01*
X114097195Y-95035002D01*
X114116296Y-95155607D01*
X114116297Y-95155609D01*
X114116297Y-95155610D01*
X114116298Y-95155611D01*
X114171737Y-95264416D01*
X114189889Y-95282568D01*
X114215617Y-95337743D01*
X114199861Y-95396548D01*
X114149991Y-95431467D01*
X114126956Y-95434500D01*
X112698751Y-95434500D01*
X112641543Y-95413678D01*
X112611103Y-95360955D01*
X112621675Y-95301000D01*
X112635814Y-95282571D01*
X112653970Y-95264416D01*
X112709409Y-95155611D01*
X112718696Y-95096979D01*
X112728512Y-95035002D01*
X112728512Y-95034997D01*
X112709410Y-94914392D01*
X112709409Y-94914390D01*
X112709409Y-94914389D01*
X112653970Y-94805584D01*
X112567623Y-94719237D01*
X112458818Y-94663798D01*
X112458817Y-94663797D01*
X112458816Y-94663797D01*
X112458814Y-94663796D01*
X112338209Y-94644695D01*
X112338205Y-94644695D01*
X112217599Y-94663796D01*
X112217597Y-94663797D01*
X112108792Y-94719236D01*
X112022443Y-94805585D01*
X111967004Y-94914390D01*
X111967003Y-94914392D01*
X111947902Y-95034997D01*
X111947902Y-95035002D01*
X111967003Y-95155607D01*
X111967004Y-95155609D01*
X111967004Y-95155610D01*
X111967005Y-95155611D01*
X112022444Y-95264416D01*
X112040596Y-95282568D01*
X112066324Y-95337743D01*
X112050568Y-95396548D01*
X112000698Y-95431467D01*
X111977663Y-95434500D01*
X110548044Y-95434500D01*
X110490836Y-95413678D01*
X110460396Y-95360955D01*
X110470968Y-95301000D01*
X110485107Y-95282571D01*
X110503263Y-95264416D01*
X110558702Y-95155611D01*
X110567989Y-95096979D01*
X110577805Y-95035002D01*
X110577805Y-95034997D01*
X110558703Y-94914392D01*
X110558702Y-94914390D01*
X110558702Y-94914389D01*
X110503263Y-94805584D01*
X110416916Y-94719237D01*
X110308111Y-94663798D01*
X110308110Y-94663797D01*
X110308109Y-94663797D01*
X110308107Y-94663796D01*
X110187502Y-94644695D01*
X110187498Y-94644695D01*
X110066892Y-94663796D01*
X110066890Y-94663797D01*
X109958085Y-94719236D01*
X109871736Y-94805585D01*
X109816297Y-94914390D01*
X109816296Y-94914392D01*
X109797195Y-95034997D01*
X109797195Y-95035002D01*
X109816296Y-95155607D01*
X109816297Y-95155609D01*
X109816297Y-95155610D01*
X109816298Y-95155611D01*
X109871737Y-95264416D01*
X109958084Y-95350763D01*
X109958086Y-95350764D01*
X109963037Y-95355715D01*
X109961846Y-95356905D01*
X109991380Y-95400688D01*
X109985019Y-95461235D01*
X109941228Y-95503527D01*
X109932528Y-95506867D01*
X109875529Y-95525387D01*
X109701557Y-95614027D01*
X109543590Y-95728794D01*
X109543587Y-95728797D01*
X109511488Y-95760892D01*
X109511489Y-95760893D01*
X109508377Y-95764005D01*
X109508374Y-95764007D01*
X104371976Y-100900405D01*
X99330764Y-105941617D01*
X99275588Y-105967345D01*
X99216783Y-105951589D01*
X99181864Y-105901719D01*
X99179929Y-105892616D01*
X99165630Y-105802335D01*
X99156150Y-105783729D01*
X99149147Y-105765064D01*
X99148959Y-105764318D01*
X99146567Y-105754819D01*
X99146565Y-105754816D01*
X99146564Y-105754811D01*
X99110382Y-105678563D01*
X99109253Y-105676294D01*
X99102414Y-105615799D01*
X99136061Y-105565062D01*
X99194448Y-105547823D01*
X99202860Y-105548748D01*
X99294427Y-105563251D01*
X99294428Y-105563251D01*
X99294430Y-105563251D01*
X99415035Y-105544149D01*
X99415036Y-105544148D01*
X99415039Y-105544148D01*
X99523844Y-105488709D01*
X99610191Y-105402362D01*
X99665630Y-105293557D01*
X99668245Y-105277050D01*
X99684733Y-105172948D01*
X99684733Y-105172943D01*
X99665631Y-105052338D01*
X99665630Y-105052336D01*
X99665630Y-105052335D01*
X99610191Y-104943530D01*
X99523844Y-104857183D01*
X99488973Y-104839415D01*
X99444529Y-104816769D01*
X99439278Y-104813867D01*
X99424546Y-104805062D01*
X99359728Y-104781963D01*
X99345005Y-104776716D01*
X99344995Y-104776712D01*
X99344982Y-104776708D01*
X99339043Y-104774717D01*
X99338229Y-104774462D01*
X99332268Y-104772711D01*
X99332251Y-104772706D01*
X99332243Y-104772704D01*
X99315294Y-104768072D01*
X99315293Y-104768072D01*
X99309559Y-104766505D01*
X99309559Y-104766504D01*
X99309552Y-104766503D01*
X99270657Y-104755873D01*
X99266087Y-104754492D01*
X99251873Y-104749773D01*
X99251857Y-104749766D01*
X99239463Y-104745651D01*
X99223065Y-104738295D01*
X99208659Y-104729990D01*
X99194434Y-104719804D01*
X99150159Y-104680976D01*
X99150155Y-104680973D01*
X99150152Y-104680971D01*
X99140647Y-104675274D01*
X99123473Y-104661871D01*
X98099406Y-103637805D01*
X98099243Y-103637670D01*
X98087560Y-103625985D01*
X98087558Y-103625983D01*
X98067613Y-103612655D01*
X98031618Y-103563557D01*
X98035604Y-103502808D01*
X98067627Y-103464652D01*
X98080073Y-103456338D01*
X98090769Y-103445643D01*
X98090825Y-103445599D01*
X98097841Y-103438582D01*
X98097843Y-103438582D01*
X98135932Y-103400492D01*
X98161638Y-103374793D01*
X98161638Y-103374792D01*
X98167771Y-103368661D01*
X98167808Y-103368615D01*
X102651029Y-98885395D01*
X102651035Y-98885391D01*
X102663544Y-98872881D01*
X102663545Y-98872881D01*
X102667452Y-98868972D01*
X102667485Y-98868957D01*
X102693538Y-98842902D01*
X102693539Y-98842903D01*
X102745109Y-98791330D01*
X102826144Y-98670044D01*
X102881961Y-98535279D01*
X102910414Y-98392214D01*
X102910412Y-98319281D01*
X102910412Y-98302647D01*
X102910412Y-98089337D01*
X102911173Y-98077722D01*
X102914671Y-98051150D01*
X102917725Y-98027949D01*
X102923735Y-98005519D01*
X102940696Y-97964573D01*
X102952308Y-97944461D01*
X102982878Y-97904624D01*
X102990544Y-97895880D01*
X103016401Y-97870024D01*
X103016401Y-97870023D01*
X104052655Y-96833767D01*
X104107829Y-96808040D01*
X104166634Y-96823796D01*
X104201553Y-96873666D01*
X104203490Y-96882779D01*
X104216475Y-96964768D01*
X104216476Y-96964770D01*
X104216476Y-96964771D01*
X104216477Y-96964772D01*
X104271916Y-97073577D01*
X104358263Y-97159924D01*
X104467068Y-97215363D01*
X104467069Y-97215363D01*
X104467071Y-97215364D01*
X104587677Y-97234466D01*
X104587679Y-97234466D01*
X104587681Y-97234466D01*
X104708286Y-97215364D01*
X104708287Y-97215363D01*
X104708290Y-97215363D01*
X104817095Y-97159924D01*
X104903442Y-97073577D01*
X104958881Y-96964772D01*
X104960305Y-96955786D01*
X104977984Y-96844163D01*
X104977984Y-96844158D01*
X104958882Y-96723553D01*
X104958881Y-96723551D01*
X104958881Y-96723550D01*
X104903442Y-96614745D01*
X104817095Y-96528398D01*
X104708290Y-96472959D01*
X104708289Y-96472958D01*
X104708288Y-96472958D01*
X104708286Y-96472957D01*
X104587681Y-96453856D01*
X104587675Y-96453856D01*
X104556773Y-96458750D01*
X104497012Y-96447133D01*
X104458700Y-96399820D01*
X104459764Y-96338950D01*
X104460610Y-96336826D01*
X104481961Y-96285279D01*
X104485561Y-96267181D01*
X104501451Y-96187283D01*
X104510414Y-96142214D01*
X104510412Y-96069281D01*
X104510412Y-96057078D01*
X104510412Y-95985663D01*
X104510412Y-95977497D01*
X104510407Y-95977443D01*
X104510407Y-95960575D01*
X104510407Y-95960570D01*
X104481952Y-95817508D01*
X104481950Y-95817504D01*
X104481949Y-95817499D01*
X104426133Y-95682747D01*
X104426131Y-95682744D01*
X104345098Y-95561464D01*
X104335576Y-95551941D01*
X104335575Y-95551939D01*
X104293528Y-95509892D01*
X104293529Y-95509892D01*
X104263543Y-95479906D01*
X104263541Y-95479905D01*
X104258469Y-95474832D01*
X104258465Y-95474829D01*
X104047532Y-95263895D01*
X104047515Y-95263881D01*
X104034846Y-95251212D01*
X103913564Y-95170173D01*
X103913560Y-95170170D01*
X103778802Y-95114353D01*
X103778801Y-95114352D01*
X103635739Y-95085894D01*
X103610644Y-95085894D01*
X103610643Y-95085894D01*
X103551534Y-95085894D01*
X103528497Y-95082861D01*
X103519802Y-95080531D01*
X103461035Y-95076678D01*
X103443765Y-95073821D01*
X103427716Y-95069509D01*
X103410912Y-95063113D01*
X103385847Y-95050543D01*
X103381629Y-95048284D01*
X103326191Y-95016644D01*
X103320706Y-95013650D01*
X103319907Y-95013233D01*
X103314332Y-95010456D01*
X103238006Y-94974238D01*
X103234625Y-94972681D01*
X103234128Y-94972459D01*
X103234125Y-94972458D01*
X103228620Y-94971272D01*
X103206969Y-94963571D01*
X103190523Y-94955192D01*
X103190522Y-94955191D01*
X103190519Y-94955190D01*
X103069914Y-94936089D01*
X103069910Y-94936089D01*
X102949304Y-94955190D01*
X102949302Y-94955191D01*
X102840497Y-95010630D01*
X102754148Y-95096979D01*
X102698709Y-95205784D01*
X102698708Y-95205786D01*
X102679607Y-95326391D01*
X102679607Y-95326396D01*
X102698708Y-95447001D01*
X102698709Y-95447003D01*
X102698709Y-95447004D01*
X102698710Y-95447005D01*
X102754149Y-95555810D01*
X102840496Y-95642157D01*
X102949301Y-95697596D01*
X102949302Y-95697596D01*
X102949304Y-95697597D01*
X103069910Y-95716699D01*
X103069912Y-95716699D01*
X103069913Y-95716699D01*
X103082862Y-95714647D01*
X103190523Y-95697596D01*
X103209131Y-95688114D01*
X103227793Y-95681112D01*
X103238040Y-95678532D01*
X103314318Y-95642335D01*
X103314727Y-95642131D01*
X103319840Y-95639588D01*
X103320637Y-95639172D01*
X103326149Y-95636164D01*
X103326186Y-95636144D01*
X103362170Y-95615606D01*
X103362169Y-95615605D01*
X103369302Y-95611534D01*
X103381613Y-95604508D01*
X103385794Y-95602267D01*
X103410930Y-95589662D01*
X103427707Y-95583278D01*
X103443772Y-95578961D01*
X103461021Y-95576108D01*
X103469284Y-95575566D01*
X103527728Y-95592605D01*
X103561548Y-95643226D01*
X103554918Y-95703744D01*
X103538031Y-95727308D01*
X103461255Y-95804083D01*
X103420841Y-95883400D01*
X103417937Y-95888653D01*
X103409140Y-95903370D01*
X103409136Y-95903379D01*
X103380783Y-95982932D01*
X103378746Y-95989020D01*
X103378504Y-95989792D01*
X103376776Y-95995682D01*
X103359942Y-96057276D01*
X103358557Y-96061856D01*
X103349724Y-96088460D01*
X103342366Y-96104862D01*
X103334068Y-96119258D01*
X103323875Y-96133492D01*
X103285044Y-96177772D01*
X103279343Y-96187283D01*
X103265940Y-96204458D01*
X101920574Y-97549824D01*
X101865398Y-97575552D01*
X101806593Y-97559796D01*
X101778341Y-97527296D01*
X101775910Y-97522525D01*
X101739228Y-97450532D01*
X101652881Y-97364185D01*
X101544076Y-97308746D01*
X101544075Y-97308745D01*
X101544074Y-97308745D01*
X101544072Y-97308744D01*
X101423467Y-97289643D01*
X101423463Y-97289643D01*
X101302857Y-97308744D01*
X101302855Y-97308745D01*
X101194050Y-97364184D01*
X101107701Y-97450533D01*
X101052262Y-97559338D01*
X101052261Y-97559340D01*
X101033160Y-97679945D01*
X101033160Y-97679950D01*
X101052261Y-97800555D01*
X101052262Y-97800557D01*
X101052262Y-97800558D01*
X101052263Y-97800559D01*
X101107702Y-97909364D01*
X101194049Y-97995711D01*
X101270815Y-98034825D01*
X101312334Y-98079348D01*
X101315520Y-98140145D01*
X101293342Y-98177056D01*
X97049911Y-102420488D01*
X97041151Y-102428170D01*
X97001328Y-102458721D01*
X96981207Y-102470335D01*
X96940271Y-102487287D01*
X96917830Y-102493298D01*
X96867808Y-102499880D01*
X96856195Y-102500641D01*
X96827498Y-102500640D01*
X96819878Y-102500640D01*
X96819877Y-102500640D01*
X96811399Y-102500640D01*
X96811379Y-102500642D01*
X95114295Y-102500642D01*
X95057087Y-102479820D01*
X95026647Y-102427097D01*
X95026391Y-102397720D01*
X95045646Y-102276144D01*
X95045646Y-102276139D01*
X95026544Y-102155534D01*
X95026543Y-102155532D01*
X95026543Y-102155531D01*
X94971104Y-102046726D01*
X94884757Y-101960379D01*
X94775952Y-101904940D01*
X94775951Y-101904939D01*
X94775950Y-101904939D01*
X94775948Y-101904938D01*
X94655343Y-101885837D01*
X94655339Y-101885837D01*
X94534733Y-101904938D01*
X94534731Y-101904939D01*
X94425926Y-101960378D01*
X94339577Y-102046727D01*
X94284138Y-102155532D01*
X94284137Y-102155534D01*
X94265036Y-102276139D01*
X94265036Y-102276144D01*
X94284291Y-102397720D01*
X94272675Y-102457481D01*
X94225362Y-102495793D01*
X94196387Y-102500642D01*
X91443893Y-102500642D01*
X91443881Y-102500641D01*
X91400139Y-102500641D01*
X91388525Y-102499880D01*
X91338751Y-102493329D01*
X91316312Y-102487318D01*
X91303377Y-102481961D01*
X91275366Y-102470360D01*
X91255250Y-102458748D01*
X91215555Y-102428293D01*
X91206805Y-102420620D01*
X90975334Y-102189149D01*
X90975318Y-102189129D01*
X90965423Y-102179235D01*
X90965378Y-102179139D01*
X90887403Y-102101176D01*
X90766106Y-102020142D01*
X90631336Y-101964332D01*
X90631325Y-101964329D01*
X90488277Y-101935888D01*
X90488267Y-101935887D01*
X90488266Y-101935887D01*
X90488263Y-101935887D01*
X90415329Y-101935894D01*
X86817422Y-101935894D01*
X86817321Y-101935903D01*
X86800286Y-101935903D01*
X86657229Y-101964355D01*
X86657220Y-101964357D01*
X86522464Y-102020171D01*
X86522459Y-102020174D01*
X86401175Y-102101209D01*
X86401174Y-102101210D01*
X86386539Y-102115844D01*
X86386525Y-102115856D01*
X86357997Y-102144383D01*
X86339571Y-102158522D01*
X86331772Y-102163024D01*
X86287492Y-102201856D01*
X86273261Y-102212047D01*
X86258863Y-102220347D01*
X86242455Y-102227708D01*
X86215826Y-102236548D01*
X86211252Y-102237931D01*
X86196509Y-102241961D01*
X86196503Y-102241963D01*
X86149668Y-102254761D01*
X86143821Y-102256476D01*
X86143004Y-102256732D01*
X86136919Y-102258769D01*
X86057377Y-102287117D01*
X86053460Y-102288568D01*
X86053022Y-102288736D01*
X86053017Y-102288739D01*
X86041389Y-102296261D01*
X86033456Y-102300832D01*
X85958085Y-102339236D01*
X85871736Y-102425585D01*
X85816297Y-102534390D01*
X85816296Y-102534392D01*
X85797195Y-102654997D01*
X84588000Y-102654997D01*
X84588000Y-101384997D01*
X85797195Y-101384997D01*
X85797195Y-101385002D01*
X85816296Y-101505607D01*
X85816297Y-101505609D01*
X85816297Y-101505610D01*
X85816298Y-101505611D01*
X85871737Y-101614416D01*
X85958084Y-101700763D01*
X86066889Y-101756202D01*
X86066890Y-101756202D01*
X86066892Y-101756203D01*
X86187498Y-101775305D01*
X86187500Y-101775305D01*
X86187502Y-101775305D01*
X86308107Y-101756203D01*
X86308108Y-101756202D01*
X86308111Y-101756202D01*
X86416916Y-101700763D01*
X86503263Y-101614416D01*
X86558702Y-101505611D01*
X86568210Y-101445585D01*
X86577805Y-101385002D01*
X86577805Y-101384997D01*
X86558703Y-101264392D01*
X86558702Y-101264390D01*
X86558702Y-101264389D01*
X86534131Y-101216166D01*
X95326422Y-101216166D01*
X95326422Y-101216171D01*
X95345523Y-101336776D01*
X95345524Y-101336778D01*
X95345524Y-101336779D01*
X95345525Y-101336780D01*
X95400964Y-101445585D01*
X95487311Y-101531932D01*
X95596116Y-101587371D01*
X95596117Y-101587371D01*
X95596119Y-101587372D01*
X95716725Y-101606474D01*
X95716727Y-101606474D01*
X95716729Y-101606474D01*
X95837334Y-101587372D01*
X95837335Y-101587371D01*
X95837338Y-101587371D01*
X95946143Y-101531932D01*
X96032490Y-101445585D01*
X96087929Y-101336780D01*
X96099395Y-101264392D01*
X96107032Y-101216171D01*
X96107032Y-101216166D01*
X96086834Y-101088639D01*
X96088213Y-101088420D01*
X96090086Y-101034811D01*
X96130823Y-100989569D01*
X96191110Y-100981097D01*
X96198343Y-100983035D01*
X96319552Y-101002233D01*
X96319554Y-101002233D01*
X96319556Y-101002233D01*
X96440161Y-100983131D01*
X96440162Y-100983130D01*
X96440165Y-100983130D01*
X96548970Y-100927691D01*
X96635317Y-100841344D01*
X96690756Y-100732539D01*
X96695034Y-100705534D01*
X96709859Y-100611930D01*
X96709859Y-100611925D01*
X96690757Y-100491320D01*
X96690756Y-100491318D01*
X96690756Y-100491317D01*
X96635317Y-100382512D01*
X96548970Y-100296165D01*
X96440165Y-100240726D01*
X96440164Y-100240725D01*
X96440163Y-100240725D01*
X96440161Y-100240724D01*
X96319556Y-100221623D01*
X96319552Y-100221623D01*
X96198946Y-100240724D01*
X96198944Y-100240725D01*
X96090139Y-100296164D01*
X96003790Y-100382513D01*
X95948351Y-100491318D01*
X95948350Y-100491320D01*
X95929249Y-100611925D01*
X95929249Y-100611930D01*
X95949447Y-100739458D01*
X95948068Y-100739676D01*
X95946191Y-100793293D01*
X95905450Y-100838531D01*
X95845162Y-100846997D01*
X95837939Y-100845061D01*
X95716729Y-100825864D01*
X95716725Y-100825864D01*
X95596119Y-100844965D01*
X95596117Y-100844966D01*
X95487312Y-100900405D01*
X95400963Y-100986754D01*
X95345524Y-101095559D01*
X95345523Y-101095561D01*
X95326422Y-101216166D01*
X86534131Y-101216166D01*
X86503263Y-101155584D01*
X86416916Y-101069237D01*
X86308111Y-101013798D01*
X86308110Y-101013797D01*
X86308109Y-101013797D01*
X86308107Y-101013796D01*
X86187502Y-100994695D01*
X86187498Y-100994695D01*
X86066892Y-101013796D01*
X86066890Y-101013797D01*
X85958085Y-101069236D01*
X85871736Y-101155585D01*
X85816297Y-101264390D01*
X85816296Y-101264392D01*
X85797195Y-101384997D01*
X84588000Y-101384997D01*
X84588000Y-100114997D01*
X85797195Y-100114997D01*
X85797195Y-100115002D01*
X85816296Y-100235607D01*
X85816297Y-100235609D01*
X85816297Y-100235610D01*
X85816298Y-100235611D01*
X85871737Y-100344416D01*
X85958084Y-100430763D01*
X86066889Y-100486202D01*
X86066890Y-100486202D01*
X86066892Y-100486203D01*
X86187498Y-100505305D01*
X86187500Y-100505305D01*
X86187502Y-100505305D01*
X86308107Y-100486203D01*
X86308108Y-100486202D01*
X86308111Y-100486202D01*
X86416916Y-100430763D01*
X86503263Y-100344416D01*
X86558702Y-100235611D01*
X86560918Y-100221623D01*
X86577805Y-100115002D01*
X86577805Y-100114997D01*
X86558703Y-99994392D01*
X86558702Y-99994390D01*
X86558702Y-99994389D01*
X86503263Y-99885584D01*
X86416916Y-99799237D01*
X86308111Y-99743798D01*
X86308110Y-99743797D01*
X86308109Y-99743797D01*
X86308107Y-99743796D01*
X86187502Y-99724695D01*
X86187498Y-99724695D01*
X86066892Y-99743796D01*
X86066890Y-99743797D01*
X85958085Y-99799236D01*
X85871736Y-99885585D01*
X85816297Y-99994390D01*
X85816296Y-99994392D01*
X85797195Y-100114997D01*
X84588000Y-100114997D01*
X84588000Y-98844997D01*
X85797195Y-98844997D01*
X85797195Y-98845002D01*
X85816296Y-98965607D01*
X85816297Y-98965609D01*
X85816297Y-98965610D01*
X85816298Y-98965611D01*
X85871737Y-99074416D01*
X85958084Y-99160763D01*
X86066889Y-99216202D01*
X86066890Y-99216202D01*
X86066892Y-99216203D01*
X86187498Y-99235305D01*
X86187500Y-99235305D01*
X86187502Y-99235305D01*
X86308107Y-99216203D01*
X86308108Y-99216202D01*
X86308111Y-99216202D01*
X86416916Y-99160763D01*
X86503263Y-99074416D01*
X86558702Y-98965611D01*
X86569793Y-98895589D01*
X86577805Y-98845002D01*
X86577805Y-98844997D01*
X86558703Y-98724392D01*
X86558702Y-98724390D01*
X86558702Y-98724389D01*
X86503263Y-98615584D01*
X86416916Y-98529237D01*
X86308111Y-98473798D01*
X86308110Y-98473797D01*
X86308109Y-98473797D01*
X86308107Y-98473796D01*
X86187502Y-98454695D01*
X86187498Y-98454695D01*
X86066892Y-98473796D01*
X86066890Y-98473797D01*
X85958085Y-98529236D01*
X85871736Y-98615585D01*
X85816297Y-98724390D01*
X85816296Y-98724392D01*
X85797195Y-98844997D01*
X84588000Y-98844997D01*
X84588000Y-98387051D01*
X98154123Y-98387051D01*
X98154123Y-98387056D01*
X98173224Y-98507661D01*
X98173225Y-98507663D01*
X98173225Y-98507664D01*
X98173226Y-98507665D01*
X98228665Y-98616470D01*
X98315012Y-98702817D01*
X98423817Y-98758256D01*
X98423818Y-98758256D01*
X98423820Y-98758257D01*
X98544426Y-98777359D01*
X98544428Y-98777359D01*
X98544430Y-98777359D01*
X98665035Y-98758257D01*
X98665036Y-98758256D01*
X98665039Y-98758256D01*
X98773844Y-98702817D01*
X98860191Y-98616470D01*
X98915630Y-98507665D01*
X98918627Y-98488748D01*
X98934733Y-98387056D01*
X98934733Y-98387051D01*
X98915631Y-98266446D01*
X98915630Y-98266444D01*
X98915630Y-98266443D01*
X98860191Y-98157638D01*
X98773844Y-98071291D01*
X98665039Y-98015852D01*
X98665038Y-98015851D01*
X98665037Y-98015851D01*
X98665035Y-98015850D01*
X98544430Y-97996749D01*
X98544426Y-97996749D01*
X98423820Y-98015850D01*
X98423818Y-98015851D01*
X98315013Y-98071290D01*
X98228664Y-98157639D01*
X98173225Y-98266444D01*
X98173224Y-98266446D01*
X98154123Y-98387051D01*
X84588000Y-98387051D01*
X84588000Y-97574997D01*
X85797195Y-97574997D01*
X85797195Y-97575002D01*
X85816296Y-97695607D01*
X85816297Y-97695609D01*
X85816297Y-97695610D01*
X85816298Y-97695611D01*
X85871737Y-97804416D01*
X85958084Y-97890763D01*
X86066889Y-97946202D01*
X86066890Y-97946202D01*
X86066892Y-97946203D01*
X86187498Y-97965305D01*
X86187500Y-97965305D01*
X86187502Y-97965305D01*
X86308107Y-97946203D01*
X86308108Y-97946202D01*
X86308111Y-97946202D01*
X86416916Y-97890763D01*
X86503263Y-97804416D01*
X86558702Y-97695611D01*
X86561183Y-97679950D01*
X86577805Y-97575002D01*
X86577805Y-97574997D01*
X90097195Y-97574997D01*
X90097195Y-97575002D01*
X90116296Y-97695607D01*
X90116297Y-97695609D01*
X90116297Y-97695610D01*
X90116298Y-97695611D01*
X90171737Y-97804416D01*
X90258084Y-97890763D01*
X90366889Y-97946202D01*
X90366890Y-97946202D01*
X90366892Y-97946203D01*
X90487498Y-97965305D01*
X90487500Y-97965305D01*
X90487502Y-97965305D01*
X90608107Y-97946203D01*
X90608108Y-97946202D01*
X90608111Y-97946202D01*
X90716916Y-97890763D01*
X90803263Y-97804416D01*
X90857631Y-97697712D01*
X94843463Y-97697712D01*
X94843463Y-97697717D01*
X94862564Y-97818322D01*
X94862565Y-97818324D01*
X94862565Y-97818325D01*
X94862566Y-97818326D01*
X94918005Y-97927131D01*
X95004352Y-98013478D01*
X95113157Y-98068917D01*
X95113158Y-98068917D01*
X95113160Y-98068918D01*
X95233766Y-98088020D01*
X95233768Y-98088020D01*
X95233770Y-98088020D01*
X95354375Y-98068918D01*
X95354376Y-98068917D01*
X95354379Y-98068917D01*
X95463184Y-98013478D01*
X95549531Y-97927131D01*
X95604970Y-97818326D01*
X95607174Y-97804414D01*
X95624073Y-97697717D01*
X95624073Y-97697712D01*
X95621259Y-97679945D01*
X98861230Y-97679945D01*
X98861230Y-97679950D01*
X98880331Y-97800555D01*
X98880332Y-97800557D01*
X98880332Y-97800558D01*
X98880333Y-97800559D01*
X98935772Y-97909364D01*
X99022119Y-97995711D01*
X99130924Y-98051150D01*
X99130925Y-98051150D01*
X99130927Y-98051151D01*
X99251533Y-98070253D01*
X99251535Y-98070253D01*
X99251537Y-98070253D01*
X99372142Y-98051151D01*
X99372143Y-98051150D01*
X99372146Y-98051150D01*
X99480951Y-97995711D01*
X99567298Y-97909364D01*
X99622737Y-97800559D01*
X99633479Y-97732742D01*
X99641840Y-97679950D01*
X99641840Y-97679945D01*
X99621642Y-97552418D01*
X99623204Y-97552170D01*
X99625058Y-97499096D01*
X99665794Y-97453854D01*
X99726081Y-97445381D01*
X99734168Y-97447547D01*
X99734476Y-97447595D01*
X99734477Y-97447596D01*
X99734635Y-97447621D01*
X99855086Y-97466699D01*
X99855088Y-97466699D01*
X99855090Y-97466699D01*
X99975695Y-97447597D01*
X99975696Y-97447596D01*
X99975699Y-97447596D01*
X100084504Y-97392157D01*
X100170851Y-97305810D01*
X100226290Y-97197005D01*
X100226290Y-97196999D01*
X100226719Y-97195684D01*
X100227421Y-97194785D01*
X100229470Y-97190764D01*
X100230251Y-97191161D01*
X100264194Y-97147706D01*
X100323742Y-97135041D01*
X100377499Y-97163615D01*
X100390665Y-97182770D01*
X100400592Y-97202253D01*
X100400593Y-97202254D01*
X100400595Y-97202257D01*
X100486942Y-97288604D01*
X100595747Y-97344043D01*
X100595748Y-97344043D01*
X100595750Y-97344044D01*
X100716356Y-97363146D01*
X100716358Y-97363146D01*
X100716360Y-97363146D01*
X100836965Y-97344044D01*
X100836966Y-97344043D01*
X100836969Y-97344043D01*
X100945774Y-97288604D01*
X101032121Y-97202257D01*
X101087560Y-97093452D01*
X101090262Y-97076396D01*
X101106663Y-96972843D01*
X101106663Y-96972838D01*
X101087561Y-96852233D01*
X101087560Y-96852231D01*
X101087560Y-96852230D01*
X101032121Y-96743425D01*
X100945774Y-96657078D01*
X100836969Y-96601639D01*
X100836968Y-96601638D01*
X100836967Y-96601638D01*
X100836965Y-96601637D01*
X100716360Y-96582536D01*
X100716359Y-96582536D01*
X100716358Y-96582536D01*
X100710852Y-96583407D01*
X100682846Y-96587843D01*
X100623085Y-96576225D01*
X100584774Y-96528911D01*
X100581022Y-96486015D01*
X100598947Y-96372841D01*
X100598947Y-96372838D01*
X100579845Y-96252233D01*
X100579844Y-96252231D01*
X100579844Y-96252230D01*
X100524405Y-96143425D01*
X100438058Y-96057078D01*
X100329253Y-96001639D01*
X100329252Y-96001638D01*
X100329251Y-96001638D01*
X100329249Y-96001637D01*
X100208644Y-95982536D01*
X100208640Y-95982536D01*
X100088034Y-96001637D01*
X100088032Y-96001638D01*
X99979227Y-96057077D01*
X99892878Y-96143426D01*
X99837439Y-96252231D01*
X99837438Y-96252233D01*
X99818337Y-96372838D01*
X99818337Y-96372843D01*
X99837438Y-96493448D01*
X99837439Y-96493450D01*
X99873968Y-96565143D01*
X99881387Y-96625569D01*
X99848229Y-96676627D01*
X99808592Y-96693452D01*
X99734478Y-96705191D01*
X99625673Y-96760630D01*
X99539324Y-96846979D01*
X99483885Y-96955784D01*
X99483884Y-96955786D01*
X99464783Y-97076391D01*
X99464783Y-97076396D01*
X99484981Y-97203924D01*
X99483420Y-97204171D01*
X99481561Y-97257253D01*
X99440820Y-97302492D01*
X99380532Y-97310958D01*
X99372453Y-97308793D01*
X99251537Y-97289643D01*
X99251533Y-97289643D01*
X99130927Y-97308744D01*
X99130925Y-97308745D01*
X99022120Y-97364184D01*
X98935771Y-97450533D01*
X98880332Y-97559338D01*
X98880331Y-97559340D01*
X98861230Y-97679945D01*
X95621259Y-97679945D01*
X95604971Y-97577107D01*
X95604970Y-97577105D01*
X95604970Y-97577104D01*
X95549531Y-97468299D01*
X95463184Y-97381952D01*
X95354379Y-97326513D01*
X95354378Y-97326512D01*
X95354377Y-97326512D01*
X95354375Y-97326511D01*
X95233770Y-97307410D01*
X95233766Y-97307410D01*
X95113160Y-97326511D01*
X95113158Y-97326512D01*
X95004353Y-97381951D01*
X94918004Y-97468300D01*
X94862565Y-97577105D01*
X94862564Y-97577107D01*
X94843463Y-97697712D01*
X90857631Y-97697712D01*
X90858702Y-97695611D01*
X90861183Y-97679950D01*
X90877805Y-97575002D01*
X90877805Y-97574997D01*
X90858703Y-97454392D01*
X90858702Y-97454390D01*
X90858702Y-97454389D01*
X90803263Y-97345584D01*
X90716916Y-97259237D01*
X90608111Y-97203798D01*
X90608110Y-97203797D01*
X90608109Y-97203797D01*
X90608107Y-97203796D01*
X90487502Y-97184695D01*
X90487498Y-97184695D01*
X90366892Y-97203796D01*
X90366890Y-97203797D01*
X90258085Y-97259236D01*
X90171736Y-97345585D01*
X90116297Y-97454390D01*
X90116296Y-97454392D01*
X90097195Y-97574997D01*
X86577805Y-97574997D01*
X86558703Y-97454392D01*
X86558702Y-97454390D01*
X86558702Y-97454389D01*
X86503263Y-97345584D01*
X86416916Y-97259237D01*
X86308111Y-97203798D01*
X86308110Y-97203797D01*
X86308109Y-97203797D01*
X86308107Y-97203796D01*
X86187502Y-97184695D01*
X86187498Y-97184695D01*
X86066892Y-97203796D01*
X86066890Y-97203797D01*
X85958085Y-97259236D01*
X85871736Y-97345585D01*
X85816297Y-97454390D01*
X85816296Y-97454392D01*
X85797195Y-97574997D01*
X84588000Y-97574997D01*
X84588000Y-96740605D01*
X95800570Y-96740605D01*
X95800570Y-96740610D01*
X95819671Y-96861215D01*
X95819672Y-96861217D01*
X95819672Y-96861218D01*
X95819673Y-96861219D01*
X95875112Y-96970024D01*
X95961459Y-97056371D01*
X96070264Y-97111810D01*
X96070265Y-97111810D01*
X96070267Y-97111811D01*
X96190873Y-97130913D01*
X96190875Y-97130913D01*
X96190877Y-97130913D01*
X96311482Y-97111811D01*
X96311483Y-97111810D01*
X96311486Y-97111810D01*
X96420291Y-97056371D01*
X96506638Y-96970024D01*
X96562077Y-96861219D01*
X96563501Y-96852233D01*
X96581180Y-96740610D01*
X96581180Y-96740605D01*
X96562078Y-96620000D01*
X96562077Y-96619998D01*
X96562077Y-96619997D01*
X96506638Y-96511192D01*
X96420291Y-96424845D01*
X96311486Y-96369406D01*
X96311485Y-96369405D01*
X96311484Y-96369405D01*
X96311482Y-96369404D01*
X96190877Y-96350303D01*
X96190873Y-96350303D01*
X96070267Y-96369404D01*
X96070265Y-96369405D01*
X95961460Y-96424844D01*
X95875111Y-96511193D01*
X95819672Y-96619998D01*
X95819671Y-96620000D01*
X95800570Y-96740605D01*
X84588000Y-96740605D01*
X84588000Y-96304997D01*
X85797195Y-96304997D01*
X85797195Y-96305002D01*
X85816296Y-96425607D01*
X85816297Y-96425609D01*
X85816297Y-96425610D01*
X85816298Y-96425611D01*
X85871737Y-96534416D01*
X85958084Y-96620763D01*
X86066889Y-96676202D01*
X86066890Y-96676202D01*
X86066892Y-96676203D01*
X86187498Y-96695305D01*
X86187500Y-96695305D01*
X86187502Y-96695305D01*
X86308107Y-96676203D01*
X86308108Y-96676202D01*
X86308111Y-96676202D01*
X86416916Y-96620763D01*
X86503263Y-96534416D01*
X86558702Y-96425611D01*
X86558824Y-96424845D01*
X86577805Y-96305002D01*
X86577805Y-96304997D01*
X90097195Y-96304997D01*
X90097195Y-96305002D01*
X90116296Y-96425607D01*
X90116297Y-96425609D01*
X90116297Y-96425610D01*
X90116298Y-96425611D01*
X90171737Y-96534416D01*
X90258084Y-96620763D01*
X90366889Y-96676202D01*
X90366890Y-96676202D01*
X90366892Y-96676203D01*
X90487498Y-96695305D01*
X90487500Y-96695305D01*
X90487502Y-96695305D01*
X90608107Y-96676203D01*
X90608108Y-96676202D01*
X90608111Y-96676202D01*
X90716916Y-96620763D01*
X90803263Y-96534416D01*
X90858702Y-96425611D01*
X90858824Y-96424845D01*
X90877805Y-96305002D01*
X90877805Y-96304997D01*
X90858703Y-96184392D01*
X90858702Y-96184390D01*
X90858702Y-96184389D01*
X90803263Y-96075584D01*
X90761177Y-96033498D01*
X96507677Y-96033498D01*
X96507677Y-96033503D01*
X96526778Y-96154108D01*
X96526779Y-96154110D01*
X96526779Y-96154111D01*
X96526780Y-96154112D01*
X96582219Y-96262917D01*
X96668566Y-96349264D01*
X96777371Y-96404703D01*
X96777372Y-96404703D01*
X96777374Y-96404704D01*
X96897980Y-96423806D01*
X96897982Y-96423806D01*
X96897984Y-96423806D01*
X97018589Y-96404704D01*
X97018590Y-96404703D01*
X97018593Y-96404703D01*
X97127398Y-96349264D01*
X97213745Y-96262917D01*
X97269184Y-96154112D01*
X97271069Y-96142214D01*
X97288287Y-96033503D01*
X97288287Y-96033498D01*
X97269185Y-95912893D01*
X97269184Y-95912891D01*
X97269184Y-95912890D01*
X97213745Y-95804085D01*
X97127398Y-95717738D01*
X97018593Y-95662299D01*
X97018592Y-95662298D01*
X97018591Y-95662298D01*
X97018589Y-95662297D01*
X96897984Y-95643196D01*
X96897980Y-95643196D01*
X96777374Y-95662297D01*
X96777372Y-95662298D01*
X96668567Y-95717737D01*
X96582218Y-95804086D01*
X96526779Y-95912891D01*
X96526778Y-95912893D01*
X96507677Y-96033498D01*
X90761177Y-96033498D01*
X90716916Y-95989237D01*
X90608111Y-95933798D01*
X90608110Y-95933797D01*
X90608109Y-95933797D01*
X90608107Y-95933796D01*
X90487502Y-95914695D01*
X90487498Y-95914695D01*
X90366892Y-95933796D01*
X90366890Y-95933797D01*
X90258085Y-95989236D01*
X90171736Y-96075585D01*
X90116297Y-96184390D01*
X90116296Y-96184392D01*
X90097195Y-96304997D01*
X86577805Y-96304997D01*
X86558703Y-96184392D01*
X86558702Y-96184390D01*
X86558702Y-96184389D01*
X86503263Y-96075584D01*
X86416916Y-95989237D01*
X86308111Y-95933798D01*
X86308110Y-95933797D01*
X86308109Y-95933797D01*
X86308107Y-95933796D01*
X86187502Y-95914695D01*
X86187498Y-95914695D01*
X86066892Y-95933796D01*
X86066890Y-95933797D01*
X85958085Y-95989236D01*
X85871736Y-96075585D01*
X85816297Y-96184390D01*
X85816296Y-96184392D01*
X85797195Y-96304997D01*
X84588000Y-96304997D01*
X84588000Y-95034997D01*
X85797195Y-95034997D01*
X85797195Y-95035002D01*
X85816296Y-95155607D01*
X85816297Y-95155609D01*
X85816297Y-95155610D01*
X85816298Y-95155611D01*
X85871737Y-95264416D01*
X85958084Y-95350763D01*
X86066889Y-95406202D01*
X86066890Y-95406202D01*
X86066892Y-95406203D01*
X86187498Y-95425305D01*
X86187500Y-95425305D01*
X86187502Y-95425305D01*
X86308107Y-95406203D01*
X86308108Y-95406202D01*
X86308111Y-95406202D01*
X86416916Y-95350763D01*
X86503263Y-95264416D01*
X86558702Y-95155611D01*
X86567989Y-95096979D01*
X86577805Y-95035002D01*
X86577805Y-95034997D01*
X90097195Y-95034997D01*
X90097195Y-95035002D01*
X90116296Y-95155607D01*
X90116297Y-95155609D01*
X90116297Y-95155610D01*
X90116298Y-95155611D01*
X90171737Y-95264416D01*
X90258084Y-95350763D01*
X90366889Y-95406202D01*
X90366890Y-95406202D01*
X90366892Y-95406203D01*
X90487498Y-95425305D01*
X90487500Y-95425305D01*
X90487502Y-95425305D01*
X90608107Y-95406203D01*
X90608108Y-95406202D01*
X90608111Y-95406202D01*
X90716916Y-95350763D01*
X90803263Y-95264416D01*
X90858702Y-95155611D01*
X90867989Y-95096979D01*
X90877805Y-95035002D01*
X90877805Y-95034997D01*
X90858703Y-94914392D01*
X90858702Y-94914390D01*
X90858702Y-94914389D01*
X90803263Y-94805584D01*
X90716916Y-94719237D01*
X90608111Y-94663798D01*
X90608110Y-94663797D01*
X90608109Y-94663797D01*
X90608107Y-94663796D01*
X90487502Y-94644695D01*
X90487498Y-94644695D01*
X90366892Y-94663796D01*
X90366890Y-94663797D01*
X90258085Y-94719236D01*
X90171736Y-94805585D01*
X90116297Y-94914390D01*
X90116296Y-94914392D01*
X90097195Y-95034997D01*
X86577805Y-95034997D01*
X86558703Y-94914392D01*
X86558702Y-94914390D01*
X86558702Y-94914389D01*
X86503263Y-94805584D01*
X86416916Y-94719237D01*
X86308111Y-94663798D01*
X86308110Y-94663797D01*
X86308109Y-94663797D01*
X86308107Y-94663796D01*
X86187502Y-94644695D01*
X86187498Y-94644695D01*
X86066892Y-94663796D01*
X86066890Y-94663797D01*
X85958085Y-94719236D01*
X85871736Y-94805585D01*
X85816297Y-94914390D01*
X85816296Y-94914392D01*
X85797195Y-95034997D01*
X84588000Y-95034997D01*
X84588000Y-94108476D01*
X84588272Y-94101545D01*
X84602220Y-93924331D01*
X84604402Y-93910553D01*
X84639347Y-93764997D01*
X85797195Y-93764997D01*
X85797195Y-93765002D01*
X85816296Y-93885607D01*
X85816297Y-93885609D01*
X85816297Y-93885610D01*
X85816298Y-93885611D01*
X85871737Y-93994416D01*
X85958084Y-94080763D01*
X86066889Y-94136202D01*
X86066890Y-94136202D01*
X86066892Y-94136203D01*
X86187498Y-94155305D01*
X86187500Y-94155305D01*
X86187502Y-94155305D01*
X86308107Y-94136203D01*
X86308108Y-94136202D01*
X86308111Y-94136202D01*
X86416916Y-94080763D01*
X86503263Y-93994416D01*
X86558702Y-93885611D01*
X86577805Y-93765000D01*
X86577805Y-93764997D01*
X90097195Y-93764997D01*
X90097195Y-93765002D01*
X90116296Y-93885607D01*
X90116297Y-93885609D01*
X90116297Y-93885610D01*
X90116298Y-93885611D01*
X90171737Y-93994416D01*
X90258084Y-94080763D01*
X90366889Y-94136202D01*
X90366890Y-94136202D01*
X90366892Y-94136203D01*
X90487498Y-94155305D01*
X90487500Y-94155305D01*
X90487502Y-94155305D01*
X90608107Y-94136203D01*
X90608108Y-94136202D01*
X90608111Y-94136202D01*
X90716916Y-94080763D01*
X90803263Y-93994416D01*
X90858702Y-93885611D01*
X90877805Y-93765000D01*
X90874026Y-93741140D01*
X90858703Y-93644392D01*
X90858702Y-93644390D01*
X90858702Y-93644389D01*
X90803263Y-93535584D01*
X90716916Y-93449237D01*
X90608111Y-93393798D01*
X90608110Y-93393797D01*
X90608109Y-93393797D01*
X90608107Y-93393796D01*
X90487502Y-93374695D01*
X90487498Y-93374695D01*
X90366892Y-93393796D01*
X90366890Y-93393797D01*
X90258085Y-93449236D01*
X90171736Y-93535585D01*
X90116297Y-93644390D01*
X90116296Y-93644392D01*
X90097195Y-93764997D01*
X86577805Y-93764997D01*
X86574026Y-93741140D01*
X86558703Y-93644392D01*
X86558702Y-93644390D01*
X86558702Y-93644389D01*
X86503263Y-93535584D01*
X86416916Y-93449237D01*
X86308111Y-93393798D01*
X86308110Y-93393797D01*
X86308109Y-93393797D01*
X86308107Y-93393796D01*
X86187502Y-93374695D01*
X86187498Y-93374695D01*
X86066892Y-93393796D01*
X86066890Y-93393797D01*
X85958085Y-93449236D01*
X85871736Y-93535585D01*
X85816297Y-93644390D01*
X85816296Y-93644392D01*
X85797195Y-93764997D01*
X84639347Y-93764997D01*
X84645076Y-93741136D01*
X84649391Y-93727859D01*
X84716055Y-93566916D01*
X84722395Y-93554472D01*
X84786883Y-93449237D01*
X84813429Y-93405917D01*
X84821627Y-93394633D01*
X84934778Y-93262150D01*
X84944652Y-93252277D01*
X85077133Y-93139127D01*
X85088417Y-93130929D01*
X85175143Y-93077783D01*
X85236972Y-93039895D01*
X85249416Y-93033555D01*
X85410363Y-92966889D01*
X85423636Y-92962576D01*
X85593053Y-92921902D01*
X85606831Y-92919720D01*
X85784020Y-92905775D01*
X85791003Y-92905501D01*
X85831671Y-92905501D01*
X114843329Y-92905501D01*
X114883997Y-92905501D01*
X114890980Y-92905775D01*
G37*
%TD.AperFunction*%
%TD*%
%TA.AperFunction,Conductor*%
%TO.N,/MC_VR_DIV*%
G36*
X97328850Y-109183479D02*
G01*
X97332252Y-109190987D01*
X97337748Y-109274845D01*
X97337749Y-109274856D01*
X97355287Y-109340130D01*
X97355290Y-109340138D01*
X97355291Y-109340141D01*
X97382513Y-109394426D01*
X97382518Y-109394434D01*
X97417549Y-109455813D01*
X97417957Y-109456596D01*
X97454154Y-109532876D01*
X97454605Y-109541820D01*
X97448600Y-109548462D01*
X97448106Y-109548683D01*
X97256057Y-109629157D01*
X97247102Y-109629194D01*
X97247013Y-109629157D01*
X97054963Y-109548683D01*
X97048657Y-109542325D01*
X97048694Y-109533370D01*
X97048903Y-109532901D01*
X97085117Y-109456581D01*
X97085511Y-109455826D01*
X97120555Y-109394426D01*
X97147778Y-109340141D01*
X97165321Y-109274848D01*
X97170818Y-109190986D01*
X97174779Y-109182955D01*
X97182493Y-109180052D01*
X97320577Y-109180052D01*
X97328850Y-109183479D01*
G37*
%TD.AperFunction*%
%TD*%
%TA.AperFunction,Conductor*%
%TO.N,/MC_VR_DIV*%
G36*
X114756877Y-98477982D02*
G01*
X114854517Y-98575622D01*
X114857944Y-98583895D01*
X114855040Y-98591609D01*
X114799633Y-98654787D01*
X114799627Y-98654796D01*
X114765865Y-98713364D01*
X114765863Y-98713367D01*
X114746724Y-98771009D01*
X114728095Y-98839180D01*
X114727830Y-98840024D01*
X114699486Y-98919560D01*
X114693481Y-98926202D01*
X114684537Y-98926653D01*
X114684032Y-98926460D01*
X114491330Y-98847564D01*
X114484972Y-98841258D01*
X114484935Y-98841169D01*
X114456208Y-98771004D01*
X114406038Y-98648464D01*
X114406075Y-98639512D01*
X114412433Y-98633206D01*
X114412914Y-98633021D01*
X114492485Y-98604663D01*
X114493305Y-98604406D01*
X114540133Y-98591609D01*
X114561488Y-98585773D01*
X114562168Y-98585547D01*
X114619129Y-98566636D01*
X114677703Y-98532871D01*
X114740892Y-98477457D01*
X114749369Y-98474580D01*
X114756877Y-98477982D01*
G37*
%TD.AperFunction*%
%TD*%
%TA.AperFunction,Conductor*%
%TO.N,/SCK*%
G36*
X86456877Y-102287982D02*
G01*
X86554517Y-102385622D01*
X86557944Y-102393895D01*
X86555040Y-102401609D01*
X86499633Y-102464787D01*
X86499627Y-102464796D01*
X86465865Y-102523364D01*
X86465863Y-102523367D01*
X86446724Y-102581009D01*
X86428095Y-102649180D01*
X86427830Y-102650024D01*
X86399486Y-102729560D01*
X86393481Y-102736202D01*
X86384537Y-102736653D01*
X86384032Y-102736460D01*
X86191330Y-102657564D01*
X86184972Y-102651258D01*
X86184935Y-102651169D01*
X86156208Y-102581004D01*
X86106038Y-102458464D01*
X86106075Y-102449512D01*
X86112433Y-102443206D01*
X86112914Y-102443021D01*
X86192485Y-102414663D01*
X86193305Y-102414406D01*
X86240133Y-102401609D01*
X86261488Y-102395773D01*
X86262168Y-102395547D01*
X86319129Y-102376636D01*
X86377703Y-102342871D01*
X86440892Y-102287457D01*
X86449369Y-102284580D01*
X86456877Y-102287982D01*
G37*
%TD.AperFunction*%
%TD*%
%TA.AperFunction,Conductor*%
%TO.N,/SCK*%
G36*
X103580454Y-95952027D02*
G01*
X103773187Y-96030936D01*
X103779545Y-96037242D01*
X103779582Y-96037331D01*
X103858478Y-96230033D01*
X103858441Y-96238988D01*
X103852083Y-96245294D01*
X103851578Y-96245487D01*
X103772042Y-96273831D01*
X103771198Y-96274096D01*
X103703027Y-96292725D01*
X103645385Y-96311864D01*
X103645382Y-96311866D01*
X103586814Y-96345628D01*
X103586805Y-96345634D01*
X103523627Y-96401041D01*
X103515148Y-96403920D01*
X103507640Y-96400518D01*
X103410000Y-96302878D01*
X103406573Y-96294605D01*
X103409475Y-96286893D01*
X103464889Y-96223704D01*
X103498654Y-96165130D01*
X103517789Y-96107495D01*
X103536424Y-96039306D01*
X103536681Y-96038486D01*
X103565032Y-95958937D01*
X103571036Y-95952297D01*
X103579980Y-95951846D01*
X103580454Y-95952027D01*
G37*
%TD.AperFunction*%
%TD*%
%TA.AperFunction,Conductor*%
%TO.N,/SDI*%
G36*
X101934008Y-98305580D02*
G01*
X102126741Y-98384489D01*
X102133099Y-98390795D01*
X102133136Y-98390884D01*
X102212032Y-98583586D01*
X102211995Y-98592541D01*
X102205637Y-98598847D01*
X102205132Y-98599040D01*
X102125596Y-98627384D01*
X102124752Y-98627649D01*
X102056581Y-98646278D01*
X101998939Y-98665417D01*
X101998936Y-98665419D01*
X101940368Y-98699181D01*
X101940359Y-98699187D01*
X101877181Y-98754594D01*
X101868702Y-98757473D01*
X101861194Y-98754071D01*
X101763554Y-98656431D01*
X101760127Y-98648158D01*
X101763029Y-98640446D01*
X101818443Y-98577257D01*
X101852208Y-98518683D01*
X101871343Y-98461048D01*
X101889978Y-98392859D01*
X101890235Y-98392039D01*
X101918586Y-98312490D01*
X101924590Y-98305850D01*
X101933534Y-98305399D01*
X101934008Y-98305580D01*
G37*
%TD.AperFunction*%
%TD*%
%TA.AperFunction,Conductor*%
%TO.N,/SDI*%
G36*
X88834181Y-102452159D02*
G01*
X88834662Y-102452374D01*
X88910953Y-102488575D01*
X88911733Y-102488982D01*
X88973124Y-102524020D01*
X89027409Y-102551243D01*
X89027416Y-102551244D01*
X89027419Y-102551246D01*
X89092694Y-102568784D01*
X89092696Y-102568784D01*
X89092703Y-102568786D01*
X89176565Y-102574283D01*
X89184597Y-102578244D01*
X89187500Y-102585958D01*
X89187500Y-102724041D01*
X89184073Y-102732314D01*
X89176565Y-102735716D01*
X89106250Y-102740325D01*
X89092703Y-102741213D01*
X89092701Y-102741213D01*
X89092694Y-102741214D01*
X89027419Y-102758752D01*
X89027411Y-102758755D01*
X89027409Y-102758755D01*
X89027409Y-102758756D01*
X88973124Y-102785978D01*
X88947720Y-102800476D01*
X88911736Y-102821014D01*
X88910953Y-102821422D01*
X88834675Y-102857619D01*
X88825732Y-102858070D01*
X88819089Y-102852065D01*
X88818868Y-102851571D01*
X88779976Y-102758756D01*
X88738393Y-102659519D01*
X88738357Y-102650568D01*
X88818869Y-102458426D01*
X88825226Y-102452122D01*
X88834181Y-102452159D01*
G37*
%TD.AperFunction*%
%TD*%
%TA.AperFunction,Conductor*%
%TO.N,/MC_IU_SEN*%
G36*
X101862967Y-110219618D02*
G01*
X101926145Y-110275024D01*
X101926149Y-110275027D01*
X101926153Y-110275030D01*
X101984727Y-110308795D01*
X102011793Y-110317781D01*
X102042367Y-110327932D01*
X102093594Y-110341931D01*
X102110543Y-110346563D01*
X102111377Y-110346825D01*
X102190919Y-110375172D01*
X102197561Y-110381177D01*
X102198012Y-110390121D01*
X102197819Y-110390626D01*
X102118922Y-110583328D01*
X102112616Y-110589686D01*
X102112527Y-110589723D01*
X101919825Y-110668620D01*
X101910870Y-110668583D01*
X101904564Y-110662225D01*
X101904371Y-110661720D01*
X101876026Y-110582183D01*
X101875761Y-110581339D01*
X101857131Y-110513168D01*
X101837993Y-110455526D01*
X101837991Y-110455523D01*
X101804229Y-110396954D01*
X101804226Y-110396950D01*
X101804223Y-110396946D01*
X101748817Y-110333768D01*
X101745938Y-110325289D01*
X101749339Y-110317782D01*
X101846981Y-110220140D01*
X101855253Y-110216714D01*
X101862967Y-110219618D01*
G37*
%TD.AperFunction*%
%TD*%
%TA.AperFunction,Conductor*%
%TO.N,/MC_IU_SEN*%
G36*
X114291080Y-97493585D02*
G01*
X114483682Y-97572449D01*
X114490040Y-97578755D01*
X114490077Y-97578843D01*
X114516701Y-97643877D01*
X114562917Y-97756769D01*
X114568954Y-97771514D01*
X114568917Y-97780469D01*
X114562559Y-97786775D01*
X114562037Y-97786974D01*
X114485744Y-97814030D01*
X114484837Y-97814311D01*
X114448910Y-97823854D01*
X114419059Y-97831783D01*
X114419055Y-97831783D01*
X114419037Y-97831789D01*
X114363200Y-97849411D01*
X114323427Y-97871268D01*
X114306002Y-97880845D01*
X114306000Y-97880846D01*
X114305999Y-97880847D01*
X114244157Y-97932794D01*
X114235618Y-97935491D01*
X114228189Y-97931934D01*
X114132517Y-97832196D01*
X114129263Y-97823854D01*
X114132239Y-97816297D01*
X114185490Y-97756769D01*
X114216662Y-97700196D01*
X114233055Y-97643877D01*
X114249073Y-97577565D01*
X114249376Y-97576528D01*
X114275588Y-97500594D01*
X114281527Y-97493893D01*
X114290466Y-97493353D01*
X114291080Y-97493585D01*
G37*
%TD.AperFunction*%
%TD*%
%TA.AperFunction,Conductor*%
%TO.N,/MC_IV_SEN*%
G36*
X114290936Y-96223526D02*
G01*
X114483669Y-96302435D01*
X114490027Y-96308741D01*
X114490064Y-96308830D01*
X114568960Y-96501532D01*
X114568923Y-96510487D01*
X114562565Y-96516793D01*
X114562060Y-96516986D01*
X114482524Y-96545330D01*
X114481680Y-96545595D01*
X114413509Y-96564224D01*
X114355867Y-96583363D01*
X114355864Y-96583365D01*
X114297296Y-96617127D01*
X114297287Y-96617133D01*
X114234109Y-96672540D01*
X114225630Y-96675419D01*
X114218122Y-96672017D01*
X114120482Y-96574377D01*
X114117055Y-96566104D01*
X114119957Y-96558392D01*
X114175371Y-96495203D01*
X114209136Y-96436629D01*
X114228271Y-96378994D01*
X114246906Y-96310805D01*
X114247163Y-96309985D01*
X114275514Y-96230436D01*
X114281518Y-96223796D01*
X114290462Y-96223345D01*
X114290936Y-96223526D01*
G37*
%TD.AperFunction*%
%TD*%
%TA.AperFunction,Conductor*%
%TO.N,/MC_IV_SEN*%
G36*
X99682403Y-107537033D02*
G01*
X99685805Y-107544541D01*
X99691301Y-107628399D01*
X99691302Y-107628410D01*
X99708840Y-107693684D01*
X99708843Y-107693692D01*
X99708844Y-107693695D01*
X99736066Y-107747980D01*
X99736071Y-107747988D01*
X99771102Y-107809367D01*
X99771510Y-107810150D01*
X99807707Y-107886430D01*
X99808158Y-107895374D01*
X99802153Y-107902016D01*
X99801659Y-107902237D01*
X99609610Y-107982711D01*
X99600655Y-107982748D01*
X99600566Y-107982711D01*
X99408516Y-107902237D01*
X99402210Y-107895879D01*
X99402247Y-107886924D01*
X99402456Y-107886455D01*
X99438670Y-107810135D01*
X99439064Y-107809380D01*
X99474108Y-107747980D01*
X99501331Y-107693695D01*
X99518874Y-107628402D01*
X99524371Y-107544540D01*
X99528332Y-107536509D01*
X99536046Y-107533606D01*
X99674130Y-107533606D01*
X99682403Y-107537033D01*
G37*
%TD.AperFunction*%
%TD*%
%TA.AperFunction,Conductor*%
%TO.N,/DEV_RELAY*%
G36*
X90584181Y-106262159D02*
G01*
X90584662Y-106262374D01*
X90660953Y-106298575D01*
X90661733Y-106298982D01*
X90723124Y-106334020D01*
X90777409Y-106361243D01*
X90777416Y-106361244D01*
X90777419Y-106361246D01*
X90842694Y-106378784D01*
X90842696Y-106378784D01*
X90842703Y-106378786D01*
X90926565Y-106384283D01*
X90934597Y-106388244D01*
X90937500Y-106395958D01*
X90937500Y-106534041D01*
X90934073Y-106542314D01*
X90926565Y-106545716D01*
X90856250Y-106550325D01*
X90842703Y-106551213D01*
X90842701Y-106551213D01*
X90842694Y-106551214D01*
X90777419Y-106568752D01*
X90777411Y-106568755D01*
X90777409Y-106568755D01*
X90777409Y-106568756D01*
X90723124Y-106595978D01*
X90697720Y-106610476D01*
X90661736Y-106631014D01*
X90660953Y-106631422D01*
X90584675Y-106667619D01*
X90575732Y-106668070D01*
X90569089Y-106662065D01*
X90568868Y-106661571D01*
X90529976Y-106568756D01*
X90488393Y-106469519D01*
X90488357Y-106460568D01*
X90568869Y-106268426D01*
X90575226Y-106262122D01*
X90584181Y-106262159D01*
G37*
%TD.AperFunction*%
%TD*%
%TA.AperFunction,Conductor*%
%TO.N,/DEV_RELAY*%
G36*
X92775982Y-104632080D02*
G01*
X92782288Y-104638438D01*
X92782251Y-104647393D01*
X92782030Y-104647887D01*
X92745833Y-104724165D01*
X92745425Y-104724948D01*
X92710391Y-104786333D01*
X92683166Y-104840623D01*
X92683163Y-104840631D01*
X92665625Y-104905906D01*
X92665624Y-104905917D01*
X92660128Y-104989777D01*
X92656167Y-104997808D01*
X92648453Y-105000712D01*
X92510369Y-105000712D01*
X92502096Y-104997285D01*
X92498694Y-104989777D01*
X92493197Y-104905915D01*
X92475654Y-104840621D01*
X92448431Y-104786336D01*
X92413393Y-104724945D01*
X92412986Y-104724165D01*
X92376791Y-104647887D01*
X92376340Y-104638943D01*
X92382345Y-104632301D01*
X92382817Y-104632089D01*
X92574891Y-104551605D01*
X92583842Y-104551569D01*
X92775982Y-104632080D01*
G37*
%TD.AperFunction*%
%TD*%
%TA.AperFunction,Conductor*%
%TO.N,/SDO*%
G36*
X103166593Y-95123553D02*
G01*
X103167074Y-95123768D01*
X103243365Y-95159969D01*
X103244145Y-95160376D01*
X103305536Y-95195414D01*
X103359821Y-95222637D01*
X103359828Y-95222638D01*
X103359831Y-95222640D01*
X103425106Y-95240178D01*
X103425108Y-95240178D01*
X103425115Y-95240180D01*
X103508977Y-95245677D01*
X103517009Y-95249638D01*
X103519912Y-95257352D01*
X103519912Y-95395435D01*
X103516485Y-95403708D01*
X103508977Y-95407110D01*
X103438662Y-95411719D01*
X103425115Y-95412607D01*
X103425113Y-95412607D01*
X103425106Y-95412608D01*
X103359831Y-95430146D01*
X103359823Y-95430149D01*
X103359821Y-95430149D01*
X103359821Y-95430150D01*
X103305536Y-95457372D01*
X103280132Y-95471870D01*
X103244148Y-95492408D01*
X103243365Y-95492816D01*
X103167087Y-95529013D01*
X103158144Y-95529464D01*
X103151501Y-95523459D01*
X103151280Y-95522965D01*
X103112388Y-95430150D01*
X103070805Y-95330913D01*
X103070769Y-95321962D01*
X103151281Y-95129820D01*
X103157638Y-95123516D01*
X103166593Y-95123553D01*
G37*
%TD.AperFunction*%
%TD*%
%TA.AperFunction,Conductor*%
%TO.N,/SDO*%
G36*
X90756877Y-103557982D02*
G01*
X90854517Y-103655622D01*
X90857944Y-103663895D01*
X90855040Y-103671609D01*
X90799633Y-103734787D01*
X90799627Y-103734796D01*
X90765865Y-103793364D01*
X90765863Y-103793367D01*
X90746724Y-103851009D01*
X90728095Y-103919180D01*
X90727830Y-103920024D01*
X90699486Y-103999560D01*
X90693481Y-104006202D01*
X90684537Y-104006653D01*
X90684032Y-104006460D01*
X90491330Y-103927564D01*
X90484972Y-103921258D01*
X90484935Y-103921169D01*
X90456208Y-103851004D01*
X90406038Y-103728464D01*
X90406075Y-103719512D01*
X90412433Y-103713206D01*
X90412914Y-103713021D01*
X90492485Y-103684663D01*
X90493305Y-103684406D01*
X90540133Y-103671609D01*
X90561488Y-103665773D01*
X90562168Y-103665547D01*
X90619129Y-103646636D01*
X90677703Y-103612871D01*
X90740892Y-103557457D01*
X90749369Y-103554580D01*
X90756877Y-103557982D01*
G37*
%TD.AperFunction*%
%TD*%
%TA.AperFunction,Conductor*%
%TO.N,/IO2*%
G36*
X90584181Y-107532159D02*
G01*
X90584662Y-107532374D01*
X90660953Y-107568575D01*
X90661733Y-107568982D01*
X90723124Y-107604020D01*
X90777409Y-107631243D01*
X90777416Y-107631244D01*
X90777419Y-107631246D01*
X90842694Y-107648784D01*
X90842696Y-107648784D01*
X90842703Y-107648786D01*
X90926565Y-107654283D01*
X90934597Y-107658244D01*
X90937500Y-107665958D01*
X90937500Y-107804041D01*
X90934073Y-107812314D01*
X90926565Y-107815716D01*
X90856250Y-107820325D01*
X90842703Y-107821213D01*
X90842701Y-107821213D01*
X90842694Y-107821214D01*
X90777419Y-107838752D01*
X90777411Y-107838755D01*
X90777409Y-107838755D01*
X90777409Y-107838756D01*
X90723124Y-107865978D01*
X90697720Y-107880476D01*
X90661736Y-107901014D01*
X90660953Y-107901422D01*
X90584675Y-107937619D01*
X90575732Y-107938070D01*
X90569089Y-107932065D01*
X90568868Y-107931571D01*
X90529976Y-107838756D01*
X90488393Y-107739519D01*
X90488357Y-107730568D01*
X90568869Y-107538426D01*
X90575226Y-107532122D01*
X90584181Y-107532159D01*
G37*
%TD.AperFunction*%
%TD*%
%TA.AperFunction,Conductor*%
%TO.N,/IO2*%
G36*
X95976544Y-104470151D02*
G01*
X96169277Y-104549060D01*
X96175635Y-104555366D01*
X96175672Y-104555455D01*
X96254568Y-104748157D01*
X96254531Y-104757112D01*
X96248173Y-104763418D01*
X96247668Y-104763611D01*
X96168132Y-104791955D01*
X96167288Y-104792220D01*
X96099117Y-104810849D01*
X96041475Y-104829988D01*
X96041472Y-104829990D01*
X95982904Y-104863752D01*
X95982895Y-104863758D01*
X95919717Y-104919165D01*
X95911238Y-104922044D01*
X95903730Y-104918642D01*
X95806090Y-104821002D01*
X95802663Y-104812729D01*
X95805565Y-104805017D01*
X95860979Y-104741828D01*
X95894744Y-104683254D01*
X95913879Y-104625619D01*
X95932514Y-104557430D01*
X95932771Y-104556610D01*
X95961122Y-104477061D01*
X95967126Y-104470421D01*
X95976070Y-104469970D01*
X95976544Y-104470151D01*
G37*
%TD.AperFunction*%
%TD*%
%TA.AperFunction,Conductor*%
%TO.N,/SCL*%
G36*
X99041037Y-104805405D02*
G01*
X99104215Y-104860811D01*
X99104219Y-104860814D01*
X99104223Y-104860817D01*
X99162797Y-104894582D01*
X99189863Y-104903568D01*
X99220437Y-104913719D01*
X99271664Y-104927718D01*
X99288613Y-104932350D01*
X99289447Y-104932612D01*
X99368989Y-104960959D01*
X99375631Y-104966964D01*
X99376082Y-104975908D01*
X99375889Y-104976413D01*
X99296992Y-105169115D01*
X99290686Y-105175473D01*
X99290597Y-105175510D01*
X99097895Y-105254407D01*
X99088940Y-105254370D01*
X99082634Y-105248012D01*
X99082441Y-105247507D01*
X99054096Y-105167970D01*
X99053831Y-105167126D01*
X99035201Y-105098955D01*
X99016063Y-105041313D01*
X99016061Y-105041310D01*
X98982299Y-104982741D01*
X98982296Y-104982737D01*
X98982293Y-104982733D01*
X98926887Y-104919555D01*
X98924008Y-104911076D01*
X98927409Y-104903569D01*
X99025051Y-104805927D01*
X99033323Y-104802501D01*
X99041037Y-104805405D01*
G37*
%TD.AperFunction*%
%TD*%
%TA.AperFunction,Conductor*%
%TO.N,/SCL*%
G36*
X86456877Y-104827982D02*
G01*
X86554517Y-104925622D01*
X86557944Y-104933895D01*
X86555040Y-104941609D01*
X86499633Y-105004787D01*
X86499627Y-105004796D01*
X86465865Y-105063364D01*
X86465863Y-105063367D01*
X86446724Y-105121009D01*
X86428095Y-105189180D01*
X86427830Y-105190024D01*
X86399486Y-105269560D01*
X86393481Y-105276202D01*
X86384537Y-105276653D01*
X86384032Y-105276460D01*
X86191330Y-105197564D01*
X86184972Y-105191258D01*
X86184935Y-105191169D01*
X86156208Y-105121004D01*
X86106038Y-104998464D01*
X86106075Y-104989512D01*
X86112433Y-104983206D01*
X86112914Y-104983021D01*
X86192485Y-104954663D01*
X86193305Y-104954406D01*
X86240133Y-104941609D01*
X86261488Y-104935773D01*
X86262168Y-104935547D01*
X86319129Y-104916636D01*
X86377703Y-104882871D01*
X86440892Y-104827457D01*
X86449369Y-104824580D01*
X86456877Y-104827982D01*
G37*
%TD.AperFunction*%
%TD*%
%TA.AperFunction,Conductor*%
%TO.N,/IO1*%
G36*
X94933651Y-107427258D02*
G01*
X95126384Y-107506167D01*
X95132742Y-107512473D01*
X95132779Y-107512562D01*
X95211675Y-107705264D01*
X95211638Y-107714219D01*
X95205280Y-107720525D01*
X95204775Y-107720718D01*
X95125239Y-107749062D01*
X95124395Y-107749327D01*
X95056224Y-107767956D01*
X94998582Y-107787095D01*
X94998579Y-107787097D01*
X94940011Y-107820859D01*
X94940002Y-107820865D01*
X94876824Y-107876272D01*
X94868345Y-107879151D01*
X94860837Y-107875749D01*
X94763197Y-107778109D01*
X94759770Y-107769836D01*
X94762672Y-107762124D01*
X94818086Y-107698935D01*
X94851851Y-107640361D01*
X94870986Y-107582726D01*
X94889621Y-107514537D01*
X94889878Y-107513717D01*
X94918229Y-107434168D01*
X94924233Y-107427528D01*
X94933177Y-107427077D01*
X94933651Y-107427258D01*
G37*
%TD.AperFunction*%
%TD*%
%TA.AperFunction,Conductor*%
%TO.N,/IO1*%
G36*
X86392987Y-107653575D02*
G01*
X86399293Y-107659933D01*
X86399486Y-107660438D01*
X86427830Y-107739973D01*
X86428095Y-107740817D01*
X86446724Y-107808988D01*
X86465863Y-107866630D01*
X86465865Y-107866633D01*
X86499627Y-107925201D01*
X86499628Y-107925204D01*
X86555041Y-107988390D01*
X86557919Y-107996869D01*
X86554517Y-108004377D01*
X86456877Y-108102017D01*
X86448604Y-108105444D01*
X86440890Y-108102541D01*
X86440292Y-108102017D01*
X86424670Y-108088316D01*
X86377704Y-108047128D01*
X86377701Y-108047127D01*
X86319133Y-108013365D01*
X86319130Y-108013363D01*
X86261488Y-107994224D01*
X86193317Y-107975595D01*
X86192473Y-107975330D01*
X86112938Y-107946986D01*
X86106296Y-107940981D01*
X86105845Y-107932037D01*
X86106020Y-107931577D01*
X86184935Y-107738829D01*
X86191241Y-107732472D01*
X86191257Y-107732465D01*
X86384035Y-107653538D01*
X86392987Y-107653575D01*
G37*
%TD.AperFunction*%
%TD*%
%TA.AperFunction,Conductor*%
%TO.N,/SDA*%
G36*
X98871743Y-105476373D02*
G01*
X98875145Y-105483881D01*
X98880641Y-105567739D01*
X98880642Y-105567750D01*
X98898180Y-105633024D01*
X98898183Y-105633032D01*
X98898184Y-105633035D01*
X98925406Y-105687320D01*
X98925411Y-105687328D01*
X98960442Y-105748707D01*
X98960850Y-105749490D01*
X98997047Y-105825770D01*
X98997498Y-105834714D01*
X98991493Y-105841356D01*
X98990999Y-105841577D01*
X98798950Y-105922051D01*
X98789995Y-105922088D01*
X98789906Y-105922051D01*
X98597856Y-105841577D01*
X98591550Y-105835219D01*
X98591587Y-105826264D01*
X98591796Y-105825795D01*
X98628010Y-105749475D01*
X98628404Y-105748720D01*
X98663448Y-105687320D01*
X98690671Y-105633035D01*
X98708214Y-105567742D01*
X98713711Y-105483880D01*
X98717672Y-105475849D01*
X98725386Y-105472946D01*
X98863470Y-105472946D01*
X98871743Y-105476373D01*
G37*
%TD.AperFunction*%
%TD*%
%TA.AperFunction,Conductor*%
%TO.N,/SDA*%
G36*
X90756877Y-104827982D02*
G01*
X90854517Y-104925622D01*
X90857944Y-104933895D01*
X90855040Y-104941609D01*
X90799633Y-105004787D01*
X90799627Y-105004796D01*
X90765865Y-105063364D01*
X90765863Y-105063367D01*
X90746724Y-105121009D01*
X90728095Y-105189180D01*
X90727830Y-105190024D01*
X90699486Y-105269560D01*
X90693481Y-105276202D01*
X90684537Y-105276653D01*
X90684032Y-105276460D01*
X90491330Y-105197564D01*
X90484972Y-105191258D01*
X90484935Y-105191169D01*
X90456208Y-105121004D01*
X90406038Y-104998464D01*
X90406075Y-104989512D01*
X90412433Y-104983206D01*
X90412914Y-104983021D01*
X90492485Y-104954663D01*
X90493305Y-104954406D01*
X90540133Y-104941609D01*
X90561488Y-104935773D01*
X90562168Y-104935547D01*
X90619129Y-104916636D01*
X90677703Y-104882871D01*
X90740892Y-104827457D01*
X90749369Y-104824580D01*
X90756877Y-104827982D01*
G37*
%TD.AperFunction*%
%TD*%
M02*
