%TF.GenerationSoftware,KiCad,Pcbnew,8.0.6*%
%TF.CreationDate,2024-11-10T20:51:06+07:00*%
%TF.ProjectId,HW.ACIM-MCU-32MK,48572e41-4349-44d2-9d4d-43552d33324d,0.1*%
%TF.SameCoordinates,Original*%
%TF.FileFunction,Paste,Bot*%
%TF.FilePolarity,Positive*%
%FSLAX46Y46*%
G04 Gerber Fmt 4.6, Leading zero omitted, Abs format (unit mm)*
G04 Created by KiCad (PCBNEW 8.0.6) date 2024-11-10 20:51:06*
%MOMM*%
%LPD*%
G01*
G04 APERTURE LIST*
G04 Aperture macros list*
%AMRotRect*
0 Rectangle, with rotation*
0 The origin of the aperture is its center*
0 $1 length*
0 $2 width*
0 $3 Rotation angle, in degrees counterclockwise*
0 Add horizontal line*
21,1,$1,$2,0,0,$3*%
G04 Aperture macros list end*
%ADD10RotRect,0.500000X0.600000X135.000000*%
%ADD11R,2.700000X0.760000*%
G04 APERTURE END LIST*
D10*
%TO.C,C23*%
X106105877Y-109834037D03*
X105469481Y-109197641D03*
%TD*%
D11*
%TO.C,J1*%
X86187500Y-111545000D03*
X90487500Y-111545000D03*
X86187500Y-110275000D03*
X90487500Y-110275000D03*
X86187500Y-109005000D03*
X90487500Y-109005000D03*
X86187500Y-107735000D03*
X90487500Y-107735000D03*
X86187500Y-106465000D03*
X90487500Y-106465000D03*
X86187500Y-105195000D03*
X90487500Y-105195000D03*
X86187500Y-103925000D03*
X90487500Y-103925000D03*
X86187500Y-102655000D03*
X90487500Y-102655000D03*
X86187500Y-101385000D03*
X90487500Y-101385000D03*
X86187500Y-100115000D03*
X90487500Y-100115000D03*
X86187500Y-98845000D03*
X90487500Y-98845000D03*
X86187500Y-97575000D03*
X90487500Y-97575000D03*
X86187500Y-96305000D03*
X90487500Y-96305000D03*
X86187500Y-95035000D03*
X90487500Y-95035000D03*
X86187500Y-93765000D03*
X90487500Y-93765000D03*
%TD*%
%TO.C,J2*%
X110187500Y-111545000D03*
X114487500Y-111545000D03*
X110187500Y-110275000D03*
X114487500Y-110275000D03*
X110187500Y-109005000D03*
X114487500Y-109005000D03*
X110187500Y-107735000D03*
X114487500Y-107735000D03*
X110187500Y-106465000D03*
X114487500Y-106465000D03*
X110187500Y-105195000D03*
X114487500Y-105195000D03*
X110187500Y-103925000D03*
X114487500Y-103925000D03*
X110187500Y-102655000D03*
X114487500Y-102655000D03*
X110187500Y-101385000D03*
X114487500Y-101385000D03*
X110187500Y-100115000D03*
X114487500Y-100115000D03*
X110187500Y-98845000D03*
X114487500Y-98845000D03*
X110187500Y-97575000D03*
X114487500Y-97575000D03*
X110187500Y-96305000D03*
X114487500Y-96305000D03*
X110187500Y-95035000D03*
X114487500Y-95035000D03*
X110187500Y-93765000D03*
X114487500Y-93765000D03*
%TD*%
D10*
%TO.C,C24*%
X105255877Y-110684037D03*
X104619481Y-110047641D03*
%TD*%
%TO.C,C10*%
X104405877Y-111534037D03*
X103769481Y-110897641D03*
%TD*%
M02*
