%TF.GenerationSoftware,KiCad,Pcbnew,8.0.6*%
%TF.CreationDate,2024-11-10T20:51:15+07:00*%
%TF.ProjectId,HW.ACIM-MCU-32MK,48572e41-4349-44d2-9d4d-43552d33324d,0.1*%
%TF.SameCoordinates,Original*%
%TF.FileFunction,Drillmap*%
%TF.FilePolarity,Positive*%
%FSLAX45Y45*%
G04 Gerber Fmt 4.5, Leading zero omitted, Abs format (unit mm)*
G04 Created by KiCad (PCBNEW 8.0.6) date 2024-11-10 20:51:15*
%MOMM*%
%LPD*%
G01*
G04 APERTURE LIST*
%ADD10C,0.050000*%
%ADD11C,0.200000*%
G04 APERTURE END LIST*
D10*
X8578750Y-11265500D02*
X11488750Y-11265500D01*
X11633750Y-11120500D02*
G75*
G02*
X11488750Y-11265500I-145000J0D01*
G01*
X8578750Y-9265500D02*
X11488750Y-9265500D01*
X8433750Y-11120500D02*
X8433750Y-9410500D01*
X11488750Y-9265500D02*
G75*
G02*
X11633750Y-9410500I0J-145000D01*
G01*
X8578750Y-11265500D02*
G75*
G02*
X8433750Y-11120500I0J145000D01*
G01*
X8433750Y-9410500D02*
G75*
G02*
X8578750Y-9265500I145000J0D01*
G01*
X11633750Y-11120500D02*
X11633750Y-9410500D01*
D11*
X8692027Y-11579484D02*
X8692027Y-11379484D01*
X8692027Y-11379484D02*
X8739646Y-11379484D01*
X8739646Y-11379484D02*
X8768217Y-11389008D01*
X8768217Y-11389008D02*
X8787265Y-11408055D01*
X8787265Y-11408055D02*
X8796789Y-11427103D01*
X8796789Y-11427103D02*
X8806313Y-11465198D01*
X8806313Y-11465198D02*
X8806313Y-11493769D01*
X8806313Y-11493769D02*
X8796789Y-11531865D01*
X8796789Y-11531865D02*
X8787265Y-11550912D01*
X8787265Y-11550912D02*
X8768217Y-11569960D01*
X8768217Y-11569960D02*
X8739646Y-11579484D01*
X8739646Y-11579484D02*
X8692027Y-11579484D01*
X8892027Y-11579484D02*
X8892027Y-11446150D01*
X8892027Y-11484246D02*
X8901551Y-11465198D01*
X8901551Y-11465198D02*
X8911074Y-11455674D01*
X8911074Y-11455674D02*
X8930122Y-11446150D01*
X8930122Y-11446150D02*
X8949170Y-11446150D01*
X9015836Y-11579484D02*
X9015836Y-11446150D01*
X9015836Y-11379484D02*
X9006313Y-11389008D01*
X9006313Y-11389008D02*
X9015836Y-11398531D01*
X9015836Y-11398531D02*
X9025360Y-11389008D01*
X9025360Y-11389008D02*
X9015836Y-11379484D01*
X9015836Y-11379484D02*
X9015836Y-11398531D01*
X9139646Y-11579484D02*
X9120598Y-11569960D01*
X9120598Y-11569960D02*
X9111074Y-11550912D01*
X9111074Y-11550912D02*
X9111074Y-11379484D01*
X9244408Y-11579484D02*
X9225360Y-11569960D01*
X9225360Y-11569960D02*
X9215836Y-11550912D01*
X9215836Y-11550912D02*
X9215836Y-11379484D01*
X9472979Y-11579484D02*
X9472979Y-11379484D01*
X9472979Y-11379484D02*
X9539646Y-11522341D01*
X9539646Y-11522341D02*
X9606313Y-11379484D01*
X9606313Y-11379484D02*
X9606313Y-11579484D01*
X9787265Y-11579484D02*
X9787265Y-11474722D01*
X9787265Y-11474722D02*
X9777741Y-11455674D01*
X9777741Y-11455674D02*
X9758694Y-11446150D01*
X9758694Y-11446150D02*
X9720598Y-11446150D01*
X9720598Y-11446150D02*
X9701551Y-11455674D01*
X9787265Y-11569960D02*
X9768217Y-11579484D01*
X9768217Y-11579484D02*
X9720598Y-11579484D01*
X9720598Y-11579484D02*
X9701551Y-11569960D01*
X9701551Y-11569960D02*
X9692027Y-11550912D01*
X9692027Y-11550912D02*
X9692027Y-11531865D01*
X9692027Y-11531865D02*
X9701551Y-11512817D01*
X9701551Y-11512817D02*
X9720598Y-11503293D01*
X9720598Y-11503293D02*
X9768217Y-11503293D01*
X9768217Y-11503293D02*
X9787265Y-11493769D01*
X9882503Y-11446150D02*
X9882503Y-11646150D01*
X9882503Y-11455674D02*
X9901551Y-11446150D01*
X9901551Y-11446150D02*
X9939646Y-11446150D01*
X9939646Y-11446150D02*
X9958694Y-11455674D01*
X9958694Y-11455674D02*
X9968217Y-11465198D01*
X9968217Y-11465198D02*
X9977741Y-11484246D01*
X9977741Y-11484246D02*
X9977741Y-11541388D01*
X9977741Y-11541388D02*
X9968217Y-11560436D01*
X9968217Y-11560436D02*
X9958694Y-11569960D01*
X9958694Y-11569960D02*
X9939646Y-11579484D01*
X9939646Y-11579484D02*
X9901551Y-11579484D01*
X9901551Y-11579484D02*
X9882503Y-11569960D01*
X10063455Y-11560436D02*
X10072979Y-11569960D01*
X10072979Y-11569960D02*
X10063455Y-11579484D01*
X10063455Y-11579484D02*
X10053932Y-11569960D01*
X10053932Y-11569960D02*
X10063455Y-11560436D01*
X10063455Y-11560436D02*
X10063455Y-11579484D01*
X10063455Y-11455674D02*
X10072979Y-11465198D01*
X10072979Y-11465198D02*
X10063455Y-11474722D01*
X10063455Y-11474722D02*
X10053932Y-11465198D01*
X10053932Y-11465198D02*
X10063455Y-11455674D01*
X10063455Y-11455674D02*
X10063455Y-11474722D01*
M02*
