%TF.GenerationSoftware,KiCad,Pcbnew,8.0.6*%
%TF.CreationDate,2024-11-10T20:51:06+07:00*%
%TF.ProjectId,HW.ACIM-MCU-32MK,48572e41-4349-44d2-9d4d-43552d33324d,0.1*%
%TF.SameCoordinates,Original*%
%TF.FileFunction,Soldermask,Top*%
%TF.FilePolarity,Negative*%
%FSLAX46Y46*%
G04 Gerber Fmt 4.6, Leading zero omitted, Abs format (unit mm)*
G04 Created by KiCad (PCBNEW 8.0.6) date 2024-11-10 20:51:06*
%MOMM*%
%LPD*%
G01*
G04 APERTURE LIST*
G04 Aperture macros list*
%AMRoundRect*
0 Rectangle with rounded corners*
0 $1 Rounding radius*
0 $2 $3 $4 $5 $6 $7 $8 $9 X,Y pos of 4 corners*
0 Add a 4 corners polygon primitive as box body*
4,1,4,$2,$3,$4,$5,$6,$7,$8,$9,$2,$3,0*
0 Add four circle primitives for the rounded corners*
1,1,$1+$1,$2,$3*
1,1,$1+$1,$4,$5*
1,1,$1+$1,$6,$7*
1,1,$1+$1,$8,$9*
0 Add four rect primitives between the rounded corners*
20,1,$1+$1,$2,$3,$4,$5,0*
20,1,$1+$1,$4,$5,$6,$7,0*
20,1,$1+$1,$6,$7,$8,$9,0*
20,1,$1+$1,$8,$9,$2,$3,0*%
%AMRotRect*
0 Rectangle, with rotation*
0 The origin of the aperture is its center*
0 $1 length*
0 $2 width*
0 $3 Rotation angle, in degrees counterclockwise*
0 Add horizontal line*
21,1,$1,$2,0,0,$3*%
G04 Aperture macros list end*
%ADD10C,1.000000*%
%ADD11R,0.800000X0.800000*%
%ADD12RotRect,0.500000X0.600000X315.000000*%
%ADD13RotRect,0.500000X0.600000X45.000000*%
%ADD14RotRect,0.500000X0.600000X135.000000*%
%ADD15RotRect,0.500000X0.600000X225.000000*%
%ADD16R,0.500000X0.600000*%
%ADD17RoundRect,0.150000X-0.053033X-0.548008X0.548008X0.053033X0.053033X0.548008X-0.548008X-0.053033X0*%
%ADD18RotRect,0.300000X1.500000X225.000000*%
%ADD19RotRect,0.300000X1.500000X315.000000*%
G04 APERTURE END LIST*
D10*
%TO.C,TP3*%
X92912448Y-110275707D03*
%TD*%
D11*
%TO.C,D1*%
X113737500Y-111545000D03*
X115237500Y-111545000D03*
%TD*%
D12*
%TO.C,C1*%
X95146940Y-95122513D03*
X95783336Y-95758909D03*
%TD*%
D13*
%TO.C,C12*%
X92869123Y-107884037D03*
X93505519Y-107247641D03*
%TD*%
D14*
%TO.C,C20*%
X108318009Y-107947031D03*
X107681613Y-107310635D03*
%TD*%
D15*
%TO.C,C26*%
X106509430Y-96129517D03*
X105873034Y-96765913D03*
%TD*%
D13*
%TO.C,C22*%
X94519123Y-109534037D03*
X95155519Y-108897641D03*
%TD*%
D15*
%TO.C,C25*%
X105659430Y-95279517D03*
X105023034Y-95915913D03*
%TD*%
D13*
%TO.C,C21*%
X95369123Y-110384037D03*
X96005519Y-109747641D03*
%TD*%
%TO.C,R2*%
X96219123Y-111234037D03*
X96855519Y-110597641D03*
%TD*%
D10*
%TO.C,TP2*%
X114487500Y-95035000D03*
%TD*%
D14*
%TO.C,R3*%
X94933336Y-96608909D03*
X94296940Y-95972513D03*
%TD*%
D12*
%TO.C,C19*%
X103910902Y-111039062D03*
X104547298Y-111675458D03*
%TD*%
D10*
%TO.C,TP4*%
X90487500Y-110275000D03*
%TD*%
D16*
%TO.C,R1*%
X112437500Y-111545000D03*
X111537500Y-111545000D03*
%TD*%
D17*
%TO.C,U2*%
X106178580Y-110794177D03*
X107416017Y-109556740D03*
X106496778Y-108637501D03*
X105259341Y-109874938D03*
%TD*%
D13*
%TO.C,C13*%
X92019123Y-107034037D03*
X92655519Y-106397641D03*
%TD*%
D12*
%TO.C,C27*%
X93446940Y-96822513D03*
X94083336Y-97458909D03*
%TD*%
D11*
%TO.C,D2*%
X86937500Y-111545000D03*
X85437500Y-111545000D03*
%TD*%
D12*
%TO.C,C28*%
X92596940Y-97672513D03*
X93233336Y-98308909D03*
%TD*%
D18*
%TO.C,U1*%
X98958642Y-95972841D03*
X98605088Y-96326394D03*
X98251535Y-96679948D03*
X97897982Y-97033501D03*
X97544428Y-97387054D03*
X97190875Y-97740608D03*
X96837321Y-98094161D03*
X96483768Y-98447715D03*
X96130215Y-98801268D03*
X95776661Y-99154821D03*
X95423108Y-99508375D03*
X95069554Y-99861928D03*
X94716001Y-100215482D03*
X94362448Y-100569035D03*
X94008894Y-100922588D03*
X93655341Y-101276142D03*
D19*
X93655341Y-104033858D03*
X94008894Y-104387412D03*
X94362448Y-104740965D03*
X94716001Y-105094518D03*
X95069554Y-105448072D03*
X95423108Y-105801625D03*
X95776661Y-106155179D03*
X96130215Y-106508732D03*
X96483768Y-106862285D03*
X96837321Y-107215839D03*
X97190875Y-107569392D03*
X97544428Y-107922946D03*
X97897982Y-108276499D03*
X98251535Y-108630052D03*
X98605088Y-108983606D03*
X98958642Y-109337159D03*
D18*
X101716358Y-109337159D03*
X102069912Y-108983606D03*
X102423465Y-108630052D03*
X102777018Y-108276499D03*
X103130572Y-107922946D03*
X103484125Y-107569392D03*
X103837679Y-107215839D03*
X104191232Y-106862285D03*
X104544785Y-106508732D03*
X104898339Y-106155179D03*
X105251892Y-105801625D03*
X105605446Y-105448072D03*
X105958999Y-105094518D03*
X106312552Y-104740965D03*
X106666106Y-104387412D03*
X107019659Y-104033858D03*
D19*
X107019659Y-101276142D03*
X106666106Y-100922588D03*
X106312552Y-100569035D03*
X105958999Y-100215482D03*
X105605446Y-99861928D03*
X105251892Y-99508375D03*
X104898339Y-99154821D03*
X104544785Y-98801268D03*
X104191232Y-98447715D03*
X103837679Y-98094161D03*
X103484125Y-97740608D03*
X103130572Y-97387054D03*
X102777018Y-97033501D03*
X102423465Y-96679948D03*
X102069912Y-96326394D03*
X101716358Y-95972841D03*
%TD*%
D10*
%TO.C,TP1*%
X114488207Y-105195707D03*
%TD*%
M02*
