%TF.GenerationSoftware,KiCad,Pcbnew,8.0.6*%
%TF.CreationDate,2024-11-10T20:51:15+07:00*%
%TF.ProjectId,HW.ACIM-MCU-32MK,48572e41-4349-44d2-9d4d-43552d33324d,0.1*%
%TF.SameCoordinates,Original*%
%TF.FileFunction,Drillmap*%
%TF.FilePolarity,Positive*%
%FSLAX45Y45*%
G04 Gerber Fmt 4.5, Leading zero omitted, Abs format (unit mm)*
G04 Created by KiCad (PCBNEW 8.0.6) date 2024-11-10 20:51:15*
%MOMM*%
%LPD*%
G01*
G04 APERTURE LIST*
%ADD10C,0.050000*%
%ADD11C,0.200000*%
%ADD12C,0.100000*%
G04 APERTURE END LIST*
D10*
X8578750Y-11265500D02*
X11488750Y-11265500D01*
X11633750Y-11120500D02*
G75*
G02*
X11488750Y-11265500I-145000J0D01*
G01*
X8578750Y-9265500D02*
X11488750Y-9265500D01*
X8433750Y-11120500D02*
X8433750Y-9410500D01*
X11488750Y-9265500D02*
G75*
G02*
X11633750Y-9410500I0J-145000D01*
G01*
X8578750Y-11265500D02*
G75*
G02*
X8433750Y-11120500I0J145000D01*
G01*
X8433750Y-9410500D02*
G75*
G02*
X8578750Y-9265500I145000J0D01*
G01*
X11633750Y-11120500D02*
X11633750Y-9410500D01*
D11*
D12*
X8603750Y-9361500D02*
X8633750Y-9391500D01*
X8633750Y-9361500D02*
X8603750Y-9391500D01*
X8603750Y-9488500D02*
X8633750Y-9518500D01*
X8633750Y-9488500D02*
X8603750Y-9518500D01*
X8603750Y-9615500D02*
X8633750Y-9645500D01*
X8633750Y-9615500D02*
X8603750Y-9645500D01*
X8603750Y-9742500D02*
X8633750Y-9772500D01*
X8633750Y-9742500D02*
X8603750Y-9772500D01*
X8603750Y-9869500D02*
X8633750Y-9899500D01*
X8633750Y-9869500D02*
X8603750Y-9899500D01*
X8603750Y-9996500D02*
X8633750Y-10026500D01*
X8633750Y-9996500D02*
X8603750Y-10026500D01*
X8603750Y-10123500D02*
X8633750Y-10153500D01*
X8633750Y-10123500D02*
X8603750Y-10153500D01*
X8603750Y-10250500D02*
X8633750Y-10280500D01*
X8633750Y-10250500D02*
X8603750Y-10280500D01*
X8603750Y-10504500D02*
X8633750Y-10534500D01*
X8633750Y-10504500D02*
X8603750Y-10534500D01*
X8603750Y-10758500D02*
X8633750Y-10788500D01*
X8633750Y-10758500D02*
X8603750Y-10788500D01*
X8603750Y-10885500D02*
X8633750Y-10915500D01*
X8633750Y-10885500D02*
X8603750Y-10915500D01*
X8818750Y-9361500D02*
X8848750Y-9391500D01*
X8848750Y-9361500D02*
X8818750Y-9391500D01*
X8818750Y-9488500D02*
X8848750Y-9518500D01*
X8848750Y-9488500D02*
X8818750Y-9518500D01*
X8818750Y-9742500D02*
X8848750Y-9772500D01*
X8848750Y-9742500D02*
X8818750Y-9772500D01*
X8818750Y-9869500D02*
X8848750Y-9899500D01*
X8848750Y-9869500D02*
X8818750Y-9899500D01*
X8818750Y-10377500D02*
X8848750Y-10407500D01*
X8848750Y-10377500D02*
X8818750Y-10407500D01*
X8818750Y-10504500D02*
X8848750Y-10534500D01*
X8848750Y-10504500D02*
X8818750Y-10534500D01*
X8818750Y-10631500D02*
X8848750Y-10661500D01*
X8848750Y-10631500D02*
X8818750Y-10661500D01*
X8818750Y-10758500D02*
X8848750Y-10788500D01*
X8848750Y-10758500D02*
X8818750Y-10788500D01*
X8818750Y-10885500D02*
X8848750Y-10915500D01*
X8848750Y-10885500D02*
X8818750Y-10915500D01*
X8858750Y-10250500D02*
X8888750Y-10280500D01*
X8888750Y-10250500D02*
X8858750Y-10280500D01*
X9033750Y-9361500D02*
X9063750Y-9391500D01*
X9063750Y-9361500D02*
X9033750Y-9391500D01*
X9033750Y-9488500D02*
X9063750Y-9518500D01*
X9063750Y-9488500D02*
X9033750Y-9518500D01*
X9033750Y-9615500D02*
X9063750Y-9645500D01*
X9063750Y-9615500D02*
X9033750Y-9645500D01*
X9033750Y-9742500D02*
X9063750Y-9772500D01*
X9063750Y-9742500D02*
X9033750Y-9772500D01*
X9033750Y-10377500D02*
X9063750Y-10407500D01*
X9063750Y-10377500D02*
X9033750Y-10407500D01*
X9033750Y-10504500D02*
X9063750Y-10534500D01*
X9063750Y-10504500D02*
X9033750Y-10534500D01*
X9033750Y-10631500D02*
X9063750Y-10661500D01*
X9063750Y-10631500D02*
X9033750Y-10661500D01*
X9033750Y-10758500D02*
X9063750Y-10788500D01*
X9063750Y-10758500D02*
X9033750Y-10788500D01*
X9033750Y-10885500D02*
X9063750Y-10915500D01*
X9063750Y-10885500D02*
X9033750Y-10915500D01*
X9033750Y-11012500D02*
X9063750Y-11042500D01*
X9063750Y-11012500D02*
X9033750Y-11042500D01*
X9228750Y-9645500D02*
X9258750Y-9675500D01*
X9258750Y-9645500D02*
X9228750Y-9675500D01*
X9242941Y-10440071D02*
X9272941Y-10470071D01*
X9272941Y-10440071D02*
X9242941Y-10470071D01*
X9276245Y-10854097D02*
X9306245Y-10884097D01*
X9306245Y-10854097D02*
X9276245Y-10884097D01*
X9276245Y-11012571D02*
X9306245Y-11042571D01*
X9306245Y-11012571D02*
X9276245Y-11042571D01*
X9331245Y-10629097D02*
X9361245Y-10659097D01*
X9361245Y-10629097D02*
X9331245Y-10659097D01*
X9398750Y-9815500D02*
X9428750Y-9845500D01*
X9428750Y-9815500D02*
X9398750Y-9845500D01*
X9418750Y-9325500D02*
X9448750Y-9355500D01*
X9448750Y-9325500D02*
X9418750Y-9355500D01*
X9450534Y-10212614D02*
X9480534Y-10242614D01*
X9480534Y-10212614D02*
X9450534Y-10242614D01*
X9498022Y-10735873D02*
X9528022Y-10765873D01*
X9528022Y-10735873D02*
X9498022Y-10765873D01*
X9508377Y-9754772D02*
X9538377Y-9784772D01*
X9538377Y-9754772D02*
X9508377Y-9784772D01*
X9556673Y-10106617D02*
X9586673Y-10136617D01*
X9586673Y-10106617D02*
X9556673Y-10136617D01*
X9602311Y-10440163D02*
X9632311Y-10470163D01*
X9632311Y-10440163D02*
X9602311Y-10470163D01*
X9604088Y-9659061D02*
X9634088Y-9689061D01*
X9634088Y-9659061D02*
X9604088Y-9689061D01*
X9616955Y-10046193D02*
X9646955Y-10076193D01*
X9646955Y-10046193D02*
X9616955Y-10076193D01*
X9648022Y-10140127D02*
X9678022Y-10170127D01*
X9678022Y-10140127D02*
X9648022Y-10170127D01*
X9649798Y-10887650D02*
X9679798Y-10917650D01*
X9679798Y-10887650D02*
X9649798Y-10917650D01*
X9662666Y-10500518D02*
X9692666Y-10530518D01*
X9692666Y-10500518D02*
X9662666Y-10530518D01*
X9674798Y-9588350D02*
X9704798Y-9618350D01*
X9704798Y-9588350D02*
X9674798Y-9618350D01*
X9710154Y-10948005D02*
X9740154Y-10978005D01*
X9740154Y-10948005D02*
X9710154Y-10978005D01*
X9718750Y-9325500D02*
X9748750Y-9355500D01*
X9748750Y-9325500D02*
X9718750Y-9355500D01*
X9718750Y-11180500D02*
X9748750Y-11210500D01*
X9748750Y-11180500D02*
X9718750Y-11210500D01*
X9723022Y-9940127D02*
X9753022Y-9970127D01*
X9753022Y-9940127D02*
X9723022Y-9970127D01*
X9780864Y-11018716D02*
X9810864Y-11048716D01*
X9810864Y-11018716D02*
X9780864Y-11048716D01*
X9839443Y-9823705D02*
X9869443Y-9853705D01*
X9869443Y-9823705D02*
X9839443Y-9853705D01*
X9864443Y-10577295D02*
X9894443Y-10607295D01*
X9894443Y-10577295D02*
X9864443Y-10607295D01*
X9910154Y-9752995D02*
X9940154Y-9782995D01*
X9940154Y-9752995D02*
X9910154Y-9782995D01*
X9914443Y-10502295D02*
X9944443Y-10532295D01*
X9944443Y-10502295D02*
X9914443Y-10532295D01*
X9918750Y-9880500D02*
X9948750Y-9910500D01*
X9948750Y-9880500D02*
X9918750Y-9910500D01*
X9928750Y-9495500D02*
X9958750Y-9525500D01*
X9958750Y-9495500D02*
X9928750Y-9525500D01*
X9945509Y-10783361D02*
X9975509Y-10813361D01*
X9975509Y-10783361D02*
X9945509Y-10813361D01*
X9970509Y-9692639D02*
X10000509Y-9722639D01*
X10000509Y-9692639D02*
X9970509Y-9722639D01*
X10005864Y-9622284D02*
X10035864Y-9652284D01*
X10035864Y-9622284D02*
X10005864Y-9652284D01*
X10018750Y-9325500D02*
X10048750Y-9355500D01*
X10048750Y-9325500D02*
X10018750Y-9355500D01*
X10018750Y-10380500D02*
X10048750Y-10410500D01*
X10048750Y-10380500D02*
X10018750Y-10410500D01*
X10018750Y-10980500D02*
X10048750Y-11010500D01*
X10048750Y-10980500D02*
X10018750Y-11010500D01*
X10018750Y-11180500D02*
X10048750Y-11210500D01*
X10048750Y-11180500D02*
X10018750Y-11210500D01*
X10056636Y-9682284D02*
X10086636Y-9712284D01*
X10086636Y-9682284D02*
X10056636Y-9712284D01*
X10091991Y-10783361D02*
X10121991Y-10813361D01*
X10121991Y-10783361D02*
X10091991Y-10813361D01*
X10108750Y-9495500D02*
X10138750Y-9525500D01*
X10138750Y-9495500D02*
X10108750Y-9525500D01*
X10127347Y-9752995D02*
X10157347Y-9782995D01*
X10157347Y-9752995D02*
X10127347Y-9782995D01*
X10137702Y-10712650D02*
X10167702Y-10742650D01*
X10167702Y-10712650D02*
X10137702Y-10742650D01*
X10196636Y-11043716D02*
X10226636Y-11073716D01*
X10226636Y-11043716D02*
X10196636Y-11073716D01*
X10198057Y-9823705D02*
X10228057Y-9853705D01*
X10228057Y-9823705D02*
X10198057Y-9853705D01*
X10198057Y-10652295D02*
X10228057Y-10682295D01*
X10228057Y-10652295D02*
X10198057Y-10682295D01*
X10218750Y-10180500D02*
X10248750Y-10210500D01*
X10248750Y-10180500D02*
X10218750Y-10210500D01*
X10274818Y-10500539D02*
X10304818Y-10530539D01*
X10304818Y-10500539D02*
X10274818Y-10530539D01*
X10291991Y-9517639D02*
X10321991Y-9547639D01*
X10321991Y-9517639D02*
X10291991Y-9547639D01*
X10318750Y-9325500D02*
X10348750Y-9355500D01*
X10348750Y-9325500D02*
X10318750Y-9355500D01*
X10318750Y-11180500D02*
X10348750Y-11210500D01*
X10348750Y-11180500D02*
X10318750Y-11210500D01*
X10327347Y-10948005D02*
X10357347Y-10978005D01*
X10357347Y-10948005D02*
X10327347Y-10978005D01*
X10362702Y-9588350D02*
X10392702Y-9618350D01*
X10392702Y-9588350D02*
X10362702Y-9618350D01*
X10374747Y-10500468D02*
X10404747Y-10530468D01*
X10404747Y-10500468D02*
X10374747Y-10530468D01*
X10433413Y-10841939D02*
X10463413Y-10871939D01*
X10463413Y-10841939D02*
X10433413Y-10871939D01*
X10443768Y-9669416D02*
X10473768Y-9699416D01*
X10473768Y-9669416D02*
X10443768Y-9699416D01*
X10480900Y-10394452D02*
X10510900Y-10424452D01*
X10510900Y-10394452D02*
X10480900Y-10424452D01*
X10618750Y-9325500D02*
X10648750Y-9355500D01*
X10648750Y-9325500D02*
X10618750Y-9355500D01*
X10758750Y-10255500D02*
X10788750Y-10285500D01*
X10788750Y-10255500D02*
X10758750Y-10285500D01*
X10796966Y-10067614D02*
X10826966Y-10097614D01*
X10826966Y-10067614D02*
X10796966Y-10097614D01*
X10823022Y-11040127D02*
X10853022Y-11070127D01*
X10853022Y-11040127D02*
X10823022Y-11070127D01*
X11003750Y-9361500D02*
X11033750Y-9391500D01*
X11033750Y-9361500D02*
X11003750Y-9391500D01*
X11003750Y-9488500D02*
X11033750Y-9518500D01*
X11033750Y-9488500D02*
X11003750Y-9518500D01*
X11003750Y-9615500D02*
X11033750Y-9645500D01*
X11033750Y-9615500D02*
X11003750Y-9645500D01*
X11003750Y-9742500D02*
X11033750Y-9772500D01*
X11033750Y-9742500D02*
X11003750Y-9772500D01*
X11003750Y-9869500D02*
X11033750Y-9899500D01*
X11033750Y-9869500D02*
X11003750Y-9899500D01*
X11003750Y-9996500D02*
X11033750Y-10026500D01*
X11033750Y-9996500D02*
X11003750Y-10026500D01*
X11003750Y-10123500D02*
X11033750Y-10153500D01*
X11033750Y-10123500D02*
X11003750Y-10153500D01*
X11003750Y-10250500D02*
X11033750Y-10280500D01*
X11033750Y-10250500D02*
X11003750Y-10280500D01*
X11003750Y-10377500D02*
X11033750Y-10407500D01*
X11033750Y-10377500D02*
X11003750Y-10407500D01*
X11003750Y-11139500D02*
X11033750Y-11169500D01*
X11033750Y-11139500D02*
X11003750Y-11169500D01*
X11078750Y-10631500D02*
X11108750Y-10661500D01*
X11108750Y-10631500D02*
X11078750Y-10661500D01*
X11078750Y-10758500D02*
X11108750Y-10788500D01*
X11108750Y-10758500D02*
X11078750Y-10788500D01*
X11208750Y-11012500D02*
X11238750Y-11042500D01*
X11238750Y-11012500D02*
X11208750Y-11042500D01*
X11218679Y-9869571D02*
X11248679Y-9899571D01*
X11248679Y-9869571D02*
X11218679Y-9899571D01*
X11218750Y-9361500D02*
X11248750Y-9391500D01*
X11248750Y-9361500D02*
X11218750Y-9391500D01*
X11218750Y-9743500D02*
X11248750Y-9773500D01*
X11248750Y-9743500D02*
X11218750Y-9773500D01*
X11218750Y-10025500D02*
X11248750Y-10055500D01*
X11248750Y-10025500D02*
X11218750Y-10055500D01*
X11218750Y-10631500D02*
X11248750Y-10661500D01*
X11248750Y-10631500D02*
X11218750Y-10661500D01*
X11218821Y-9488500D02*
X11248821Y-9518500D01*
X11248821Y-9488500D02*
X11218821Y-9518500D01*
X11218821Y-9613500D02*
X11248821Y-9643500D01*
X11248821Y-9613500D02*
X11218821Y-9643500D01*
X11218821Y-10509571D02*
X11248821Y-10539571D01*
X11248821Y-10509571D02*
X11218821Y-10539571D01*
X11218821Y-10758571D02*
X11248821Y-10788571D01*
X11248821Y-10758571D02*
X11218821Y-10788571D01*
X11433750Y-9361500D02*
X11463750Y-9391500D01*
X11463750Y-9361500D02*
X11433750Y-9391500D01*
X11433750Y-9488500D02*
X11463750Y-9518500D01*
X11463750Y-9488500D02*
X11433750Y-9518500D01*
X11433750Y-9615500D02*
X11463750Y-9645500D01*
X11463750Y-9615500D02*
X11433750Y-9645500D01*
X11433750Y-9742500D02*
X11463750Y-9772500D01*
X11463750Y-9742500D02*
X11433750Y-9772500D01*
X11433750Y-9869500D02*
X11463750Y-9899500D01*
X11463750Y-9869500D02*
X11433750Y-9899500D01*
X11433750Y-9996500D02*
X11463750Y-10026500D01*
X11463750Y-9996500D02*
X11433750Y-10026500D01*
X11433750Y-10123500D02*
X11463750Y-10153500D01*
X11463750Y-10123500D02*
X11433750Y-10153500D01*
X11433750Y-10250500D02*
X11463750Y-10280500D01*
X11463750Y-10250500D02*
X11433750Y-10280500D01*
X11433750Y-10377500D02*
X11463750Y-10407500D01*
X11463750Y-10377500D02*
X11433750Y-10407500D01*
X11433750Y-10631500D02*
X11463750Y-10661500D01*
X11463750Y-10631500D02*
X11433750Y-10661500D01*
X11433750Y-10758500D02*
X11463750Y-10788500D01*
X11463750Y-10758500D02*
X11433750Y-10788500D01*
X11433750Y-10885500D02*
X11463750Y-10915500D01*
X11463750Y-10885500D02*
X11433750Y-10915500D01*
X11433750Y-11012500D02*
X11463750Y-11042500D01*
X11463750Y-11012500D02*
X11433750Y-11042500D01*
D11*
X8692027Y-11579484D02*
X8692027Y-11379484D01*
X8692027Y-11379484D02*
X8739646Y-11379484D01*
X8739646Y-11379484D02*
X8768217Y-11389008D01*
X8768217Y-11389008D02*
X8787265Y-11408055D01*
X8787265Y-11408055D02*
X8796789Y-11427103D01*
X8796789Y-11427103D02*
X8806313Y-11465198D01*
X8806313Y-11465198D02*
X8806313Y-11493769D01*
X8806313Y-11493769D02*
X8796789Y-11531865D01*
X8796789Y-11531865D02*
X8787265Y-11550912D01*
X8787265Y-11550912D02*
X8768217Y-11569960D01*
X8768217Y-11569960D02*
X8739646Y-11579484D01*
X8739646Y-11579484D02*
X8692027Y-11579484D01*
X8892027Y-11579484D02*
X8892027Y-11446150D01*
X8892027Y-11484246D02*
X8901551Y-11465198D01*
X8901551Y-11465198D02*
X8911074Y-11455674D01*
X8911074Y-11455674D02*
X8930122Y-11446150D01*
X8930122Y-11446150D02*
X8949170Y-11446150D01*
X9015836Y-11579484D02*
X9015836Y-11446150D01*
X9015836Y-11379484D02*
X9006313Y-11389008D01*
X9006313Y-11389008D02*
X9015836Y-11398531D01*
X9015836Y-11398531D02*
X9025360Y-11389008D01*
X9025360Y-11389008D02*
X9015836Y-11379484D01*
X9015836Y-11379484D02*
X9015836Y-11398531D01*
X9139646Y-11579484D02*
X9120598Y-11569960D01*
X9120598Y-11569960D02*
X9111074Y-11550912D01*
X9111074Y-11550912D02*
X9111074Y-11379484D01*
X9244408Y-11579484D02*
X9225360Y-11569960D01*
X9225360Y-11569960D02*
X9215836Y-11550912D01*
X9215836Y-11550912D02*
X9215836Y-11379484D01*
X9472979Y-11579484D02*
X9472979Y-11379484D01*
X9472979Y-11379484D02*
X9539646Y-11522341D01*
X9539646Y-11522341D02*
X9606313Y-11379484D01*
X9606313Y-11379484D02*
X9606313Y-11579484D01*
X9787265Y-11579484D02*
X9787265Y-11474722D01*
X9787265Y-11474722D02*
X9777741Y-11455674D01*
X9777741Y-11455674D02*
X9758694Y-11446150D01*
X9758694Y-11446150D02*
X9720598Y-11446150D01*
X9720598Y-11446150D02*
X9701551Y-11455674D01*
X9787265Y-11569960D02*
X9768217Y-11579484D01*
X9768217Y-11579484D02*
X9720598Y-11579484D01*
X9720598Y-11579484D02*
X9701551Y-11569960D01*
X9701551Y-11569960D02*
X9692027Y-11550912D01*
X9692027Y-11550912D02*
X9692027Y-11531865D01*
X9692027Y-11531865D02*
X9701551Y-11512817D01*
X9701551Y-11512817D02*
X9720598Y-11503293D01*
X9720598Y-11503293D02*
X9768217Y-11503293D01*
X9768217Y-11503293D02*
X9787265Y-11493769D01*
X9882503Y-11446150D02*
X9882503Y-11646150D01*
X9882503Y-11455674D02*
X9901551Y-11446150D01*
X9901551Y-11446150D02*
X9939646Y-11446150D01*
X9939646Y-11446150D02*
X9958694Y-11455674D01*
X9958694Y-11455674D02*
X9968217Y-11465198D01*
X9968217Y-11465198D02*
X9977741Y-11484246D01*
X9977741Y-11484246D02*
X9977741Y-11541388D01*
X9977741Y-11541388D02*
X9968217Y-11560436D01*
X9968217Y-11560436D02*
X9958694Y-11569960D01*
X9958694Y-11569960D02*
X9939646Y-11579484D01*
X9939646Y-11579484D02*
X9901551Y-11579484D01*
X9901551Y-11579484D02*
X9882503Y-11569960D01*
X10063455Y-11560436D02*
X10072979Y-11569960D01*
X10072979Y-11569960D02*
X10063455Y-11579484D01*
X10063455Y-11579484D02*
X10053932Y-11569960D01*
X10053932Y-11569960D02*
X10063455Y-11560436D01*
X10063455Y-11560436D02*
X10063455Y-11579484D01*
X10063455Y-11455674D02*
X10072979Y-11465198D01*
X10072979Y-11465198D02*
X10063455Y-11474722D01*
X10063455Y-11474722D02*
X10053932Y-11465198D01*
X10053932Y-11465198D02*
X10063455Y-11455674D01*
X10063455Y-11455674D02*
X10063455Y-11474722D01*
D12*
X8401250Y-11893000D02*
X8431250Y-11923000D01*
X8431250Y-11893000D02*
X8401250Y-11923000D01*
D11*
X8730122Y-11799484D02*
X8749170Y-11799484D01*
X8749170Y-11799484D02*
X8768217Y-11809008D01*
X8768217Y-11809008D02*
X8777741Y-11818531D01*
X8777741Y-11818531D02*
X8787265Y-11837579D01*
X8787265Y-11837579D02*
X8796789Y-11875674D01*
X8796789Y-11875674D02*
X8796789Y-11923293D01*
X8796789Y-11923293D02*
X8787265Y-11961388D01*
X8787265Y-11961388D02*
X8777741Y-11980436D01*
X8777741Y-11980436D02*
X8768217Y-11989960D01*
X8768217Y-11989960D02*
X8749170Y-11999484D01*
X8749170Y-11999484D02*
X8730122Y-11999484D01*
X8730122Y-11999484D02*
X8711074Y-11989960D01*
X8711074Y-11989960D02*
X8701551Y-11980436D01*
X8701551Y-11980436D02*
X8692027Y-11961388D01*
X8692027Y-11961388D02*
X8682503Y-11923293D01*
X8682503Y-11923293D02*
X8682503Y-11875674D01*
X8682503Y-11875674D02*
X8692027Y-11837579D01*
X8692027Y-11837579D02*
X8701551Y-11818531D01*
X8701551Y-11818531D02*
X8711074Y-11809008D01*
X8711074Y-11809008D02*
X8730122Y-11799484D01*
X8882503Y-11980436D02*
X8892027Y-11989960D01*
X8892027Y-11989960D02*
X8882503Y-11999484D01*
X8882503Y-11999484D02*
X8872979Y-11989960D01*
X8872979Y-11989960D02*
X8882503Y-11980436D01*
X8882503Y-11980436D02*
X8882503Y-11999484D01*
X8958694Y-11799484D02*
X9082503Y-11799484D01*
X9082503Y-11799484D02*
X9015836Y-11875674D01*
X9015836Y-11875674D02*
X9044408Y-11875674D01*
X9044408Y-11875674D02*
X9063455Y-11885198D01*
X9063455Y-11885198D02*
X9072979Y-11894722D01*
X9072979Y-11894722D02*
X9082503Y-11913769D01*
X9082503Y-11913769D02*
X9082503Y-11961388D01*
X9082503Y-11961388D02*
X9072979Y-11980436D01*
X9072979Y-11980436D02*
X9063455Y-11989960D01*
X9063455Y-11989960D02*
X9044408Y-11999484D01*
X9044408Y-11999484D02*
X8987265Y-11999484D01*
X8987265Y-11999484D02*
X8968217Y-11989960D01*
X8968217Y-11989960D02*
X8958694Y-11980436D01*
X9206313Y-11799484D02*
X9225360Y-11799484D01*
X9225360Y-11799484D02*
X9244408Y-11809008D01*
X9244408Y-11809008D02*
X9253932Y-11818531D01*
X9253932Y-11818531D02*
X9263455Y-11837579D01*
X9263455Y-11837579D02*
X9272979Y-11875674D01*
X9272979Y-11875674D02*
X9272979Y-11923293D01*
X9272979Y-11923293D02*
X9263455Y-11961388D01*
X9263455Y-11961388D02*
X9253932Y-11980436D01*
X9253932Y-11980436D02*
X9244408Y-11989960D01*
X9244408Y-11989960D02*
X9225360Y-11999484D01*
X9225360Y-11999484D02*
X9206313Y-11999484D01*
X9206313Y-11999484D02*
X9187265Y-11989960D01*
X9187265Y-11989960D02*
X9177741Y-11980436D01*
X9177741Y-11980436D02*
X9168217Y-11961388D01*
X9168217Y-11961388D02*
X9158694Y-11923293D01*
X9158694Y-11923293D02*
X9158694Y-11875674D01*
X9158694Y-11875674D02*
X9168217Y-11837579D01*
X9168217Y-11837579D02*
X9177741Y-11818531D01*
X9177741Y-11818531D02*
X9187265Y-11809008D01*
X9187265Y-11809008D02*
X9206313Y-11799484D01*
X9396789Y-11799484D02*
X9415836Y-11799484D01*
X9415836Y-11799484D02*
X9434884Y-11809008D01*
X9434884Y-11809008D02*
X9444408Y-11818531D01*
X9444408Y-11818531D02*
X9453932Y-11837579D01*
X9453932Y-11837579D02*
X9463455Y-11875674D01*
X9463455Y-11875674D02*
X9463455Y-11923293D01*
X9463455Y-11923293D02*
X9453932Y-11961388D01*
X9453932Y-11961388D02*
X9444408Y-11980436D01*
X9444408Y-11980436D02*
X9434884Y-11989960D01*
X9434884Y-11989960D02*
X9415836Y-11999484D01*
X9415836Y-11999484D02*
X9396789Y-11999484D01*
X9396789Y-11999484D02*
X9377741Y-11989960D01*
X9377741Y-11989960D02*
X9368217Y-11980436D01*
X9368217Y-11980436D02*
X9358694Y-11961388D01*
X9358694Y-11961388D02*
X9349170Y-11923293D01*
X9349170Y-11923293D02*
X9349170Y-11875674D01*
X9349170Y-11875674D02*
X9358694Y-11837579D01*
X9358694Y-11837579D02*
X9368217Y-11818531D01*
X9368217Y-11818531D02*
X9377741Y-11809008D01*
X9377741Y-11809008D02*
X9396789Y-11799484D01*
X9549170Y-11999484D02*
X9549170Y-11866150D01*
X9549170Y-11885198D02*
X9558694Y-11875674D01*
X9558694Y-11875674D02*
X9577741Y-11866150D01*
X9577741Y-11866150D02*
X9606313Y-11866150D01*
X9606313Y-11866150D02*
X9625360Y-11875674D01*
X9625360Y-11875674D02*
X9634884Y-11894722D01*
X9634884Y-11894722D02*
X9634884Y-11999484D01*
X9634884Y-11894722D02*
X9644408Y-11875674D01*
X9644408Y-11875674D02*
X9663455Y-11866150D01*
X9663455Y-11866150D02*
X9692027Y-11866150D01*
X9692027Y-11866150D02*
X9711075Y-11875674D01*
X9711075Y-11875674D02*
X9720598Y-11894722D01*
X9720598Y-11894722D02*
X9720598Y-11999484D01*
X9815836Y-11999484D02*
X9815836Y-11866150D01*
X9815836Y-11885198D02*
X9825360Y-11875674D01*
X9825360Y-11875674D02*
X9844408Y-11866150D01*
X9844408Y-11866150D02*
X9872979Y-11866150D01*
X9872979Y-11866150D02*
X9892027Y-11875674D01*
X9892027Y-11875674D02*
X9901551Y-11894722D01*
X9901551Y-11894722D02*
X9901551Y-11999484D01*
X9901551Y-11894722D02*
X9911075Y-11875674D01*
X9911075Y-11875674D02*
X9930122Y-11866150D01*
X9930122Y-11866150D02*
X9958694Y-11866150D01*
X9958694Y-11866150D02*
X9977741Y-11875674D01*
X9977741Y-11875674D02*
X9987265Y-11894722D01*
X9987265Y-11894722D02*
X9987265Y-11999484D01*
X10377741Y-11789960D02*
X10206313Y-12047103D01*
X10634884Y-11799484D02*
X10653932Y-11799484D01*
X10653932Y-11799484D02*
X10672979Y-11809008D01*
X10672979Y-11809008D02*
X10682503Y-11818531D01*
X10682503Y-11818531D02*
X10692027Y-11837579D01*
X10692027Y-11837579D02*
X10701551Y-11875674D01*
X10701551Y-11875674D02*
X10701551Y-11923293D01*
X10701551Y-11923293D02*
X10692027Y-11961388D01*
X10692027Y-11961388D02*
X10682503Y-11980436D01*
X10682503Y-11980436D02*
X10672979Y-11989960D01*
X10672979Y-11989960D02*
X10653932Y-11999484D01*
X10653932Y-11999484D02*
X10634884Y-11999484D01*
X10634884Y-11999484D02*
X10615837Y-11989960D01*
X10615837Y-11989960D02*
X10606313Y-11980436D01*
X10606313Y-11980436D02*
X10596789Y-11961388D01*
X10596789Y-11961388D02*
X10587265Y-11923293D01*
X10587265Y-11923293D02*
X10587265Y-11875674D01*
X10587265Y-11875674D02*
X10596789Y-11837579D01*
X10596789Y-11837579D02*
X10606313Y-11818531D01*
X10606313Y-11818531D02*
X10615837Y-11809008D01*
X10615837Y-11809008D02*
X10634884Y-11799484D01*
X10787265Y-11980436D02*
X10796789Y-11989960D01*
X10796789Y-11989960D02*
X10787265Y-11999484D01*
X10787265Y-11999484D02*
X10777741Y-11989960D01*
X10777741Y-11989960D02*
X10787265Y-11980436D01*
X10787265Y-11980436D02*
X10787265Y-11999484D01*
X10920598Y-11799484D02*
X10939646Y-11799484D01*
X10939646Y-11799484D02*
X10958694Y-11809008D01*
X10958694Y-11809008D02*
X10968218Y-11818531D01*
X10968218Y-11818531D02*
X10977741Y-11837579D01*
X10977741Y-11837579D02*
X10987265Y-11875674D01*
X10987265Y-11875674D02*
X10987265Y-11923293D01*
X10987265Y-11923293D02*
X10977741Y-11961388D01*
X10977741Y-11961388D02*
X10968218Y-11980436D01*
X10968218Y-11980436D02*
X10958694Y-11989960D01*
X10958694Y-11989960D02*
X10939646Y-11999484D01*
X10939646Y-11999484D02*
X10920598Y-11999484D01*
X10920598Y-11999484D02*
X10901551Y-11989960D01*
X10901551Y-11989960D02*
X10892027Y-11980436D01*
X10892027Y-11980436D02*
X10882503Y-11961388D01*
X10882503Y-11961388D02*
X10872979Y-11923293D01*
X10872979Y-11923293D02*
X10872979Y-11875674D01*
X10872979Y-11875674D02*
X10882503Y-11837579D01*
X10882503Y-11837579D02*
X10892027Y-11818531D01*
X10892027Y-11818531D02*
X10901551Y-11809008D01*
X10901551Y-11809008D02*
X10920598Y-11799484D01*
X11177741Y-11999484D02*
X11063456Y-11999484D01*
X11120598Y-11999484D02*
X11120598Y-11799484D01*
X11120598Y-11799484D02*
X11101551Y-11828055D01*
X11101551Y-11828055D02*
X11082503Y-11847103D01*
X11082503Y-11847103D02*
X11063456Y-11856627D01*
X11368217Y-11999484D02*
X11253932Y-11999484D01*
X11311075Y-11999484D02*
X11311075Y-11799484D01*
X11311075Y-11799484D02*
X11292027Y-11828055D01*
X11292027Y-11828055D02*
X11272979Y-11847103D01*
X11272979Y-11847103D02*
X11253932Y-11856627D01*
X11482503Y-11885198D02*
X11463456Y-11875674D01*
X11463456Y-11875674D02*
X11453932Y-11866150D01*
X11453932Y-11866150D02*
X11444408Y-11847103D01*
X11444408Y-11847103D02*
X11444408Y-11837579D01*
X11444408Y-11837579D02*
X11453932Y-11818531D01*
X11453932Y-11818531D02*
X11463456Y-11809008D01*
X11463456Y-11809008D02*
X11482503Y-11799484D01*
X11482503Y-11799484D02*
X11520598Y-11799484D01*
X11520598Y-11799484D02*
X11539646Y-11809008D01*
X11539646Y-11809008D02*
X11549170Y-11818531D01*
X11549170Y-11818531D02*
X11558694Y-11837579D01*
X11558694Y-11837579D02*
X11558694Y-11847103D01*
X11558694Y-11847103D02*
X11549170Y-11866150D01*
X11549170Y-11866150D02*
X11539646Y-11875674D01*
X11539646Y-11875674D02*
X11520598Y-11885198D01*
X11520598Y-11885198D02*
X11482503Y-11885198D01*
X11482503Y-11885198D02*
X11463456Y-11894722D01*
X11463456Y-11894722D02*
X11453932Y-11904246D01*
X11453932Y-11904246D02*
X11444408Y-11923293D01*
X11444408Y-11923293D02*
X11444408Y-11961388D01*
X11444408Y-11961388D02*
X11453932Y-11980436D01*
X11453932Y-11980436D02*
X11463456Y-11989960D01*
X11463456Y-11989960D02*
X11482503Y-11999484D01*
X11482503Y-11999484D02*
X11520598Y-11999484D01*
X11520598Y-11999484D02*
X11539646Y-11989960D01*
X11539646Y-11989960D02*
X11549170Y-11980436D01*
X11549170Y-11980436D02*
X11558694Y-11961388D01*
X11558694Y-11961388D02*
X11558694Y-11923293D01*
X11558694Y-11923293D02*
X11549170Y-11904246D01*
X11549170Y-11904246D02*
X11539646Y-11894722D01*
X11539646Y-11894722D02*
X11520598Y-11885198D01*
X11634884Y-11799484D02*
X11634884Y-11837579D01*
X11711075Y-11799484D02*
X11711075Y-11837579D01*
X12006313Y-12075674D02*
X11996789Y-12066150D01*
X11996789Y-12066150D02*
X11977741Y-12037579D01*
X11977741Y-12037579D02*
X11968218Y-12018531D01*
X11968218Y-12018531D02*
X11958694Y-11989960D01*
X11958694Y-11989960D02*
X11949170Y-11942341D01*
X11949170Y-11942341D02*
X11949170Y-11904246D01*
X11949170Y-11904246D02*
X11958694Y-11856627D01*
X11958694Y-11856627D02*
X11968218Y-11828055D01*
X11968218Y-11828055D02*
X11977741Y-11809008D01*
X11977741Y-11809008D02*
X11996789Y-11780436D01*
X11996789Y-11780436D02*
X12006313Y-11770912D01*
X12187265Y-11999484D02*
X12072979Y-11999484D01*
X12130122Y-11999484D02*
X12130122Y-11799484D01*
X12130122Y-11799484D02*
X12111075Y-11828055D01*
X12111075Y-11828055D02*
X12092027Y-11847103D01*
X12092027Y-11847103D02*
X12072979Y-11856627D01*
X12263456Y-11818531D02*
X12272979Y-11809008D01*
X12272979Y-11809008D02*
X12292027Y-11799484D01*
X12292027Y-11799484D02*
X12339646Y-11799484D01*
X12339646Y-11799484D02*
X12358694Y-11809008D01*
X12358694Y-11809008D02*
X12368218Y-11818531D01*
X12368218Y-11818531D02*
X12377741Y-11837579D01*
X12377741Y-11837579D02*
X12377741Y-11856627D01*
X12377741Y-11856627D02*
X12368218Y-11885198D01*
X12368218Y-11885198D02*
X12253932Y-11999484D01*
X12253932Y-11999484D02*
X12377741Y-11999484D01*
X12558694Y-11799484D02*
X12463456Y-11799484D01*
X12463456Y-11799484D02*
X12453932Y-11894722D01*
X12453932Y-11894722D02*
X12463456Y-11885198D01*
X12463456Y-11885198D02*
X12482503Y-11875674D01*
X12482503Y-11875674D02*
X12530122Y-11875674D01*
X12530122Y-11875674D02*
X12549170Y-11885198D01*
X12549170Y-11885198D02*
X12558694Y-11894722D01*
X12558694Y-11894722D02*
X12568218Y-11913769D01*
X12568218Y-11913769D02*
X12568218Y-11961388D01*
X12568218Y-11961388D02*
X12558694Y-11980436D01*
X12558694Y-11980436D02*
X12549170Y-11989960D01*
X12549170Y-11989960D02*
X12530122Y-11999484D01*
X12530122Y-11999484D02*
X12482503Y-11999484D01*
X12482503Y-11999484D02*
X12463456Y-11989960D01*
X12463456Y-11989960D02*
X12453932Y-11980436D01*
X12806313Y-11999484D02*
X12806313Y-11799484D01*
X12892027Y-11999484D02*
X12892027Y-11894722D01*
X12892027Y-11894722D02*
X12882503Y-11875674D01*
X12882503Y-11875674D02*
X12863456Y-11866150D01*
X12863456Y-11866150D02*
X12834884Y-11866150D01*
X12834884Y-11866150D02*
X12815837Y-11875674D01*
X12815837Y-11875674D02*
X12806313Y-11885198D01*
X13015837Y-11999484D02*
X12996789Y-11989960D01*
X12996789Y-11989960D02*
X12987265Y-11980436D01*
X12987265Y-11980436D02*
X12977741Y-11961388D01*
X12977741Y-11961388D02*
X12977741Y-11904246D01*
X12977741Y-11904246D02*
X12987265Y-11885198D01*
X12987265Y-11885198D02*
X12996789Y-11875674D01*
X12996789Y-11875674D02*
X13015837Y-11866150D01*
X13015837Y-11866150D02*
X13044408Y-11866150D01*
X13044408Y-11866150D02*
X13063456Y-11875674D01*
X13063456Y-11875674D02*
X13072980Y-11885198D01*
X13072980Y-11885198D02*
X13082503Y-11904246D01*
X13082503Y-11904246D02*
X13082503Y-11961388D01*
X13082503Y-11961388D02*
X13072980Y-11980436D01*
X13072980Y-11980436D02*
X13063456Y-11989960D01*
X13063456Y-11989960D02*
X13044408Y-11999484D01*
X13044408Y-11999484D02*
X13015837Y-11999484D01*
X13196789Y-11999484D02*
X13177741Y-11989960D01*
X13177741Y-11989960D02*
X13168218Y-11970912D01*
X13168218Y-11970912D02*
X13168218Y-11799484D01*
X13349170Y-11989960D02*
X13330122Y-11999484D01*
X13330122Y-11999484D02*
X13292027Y-11999484D01*
X13292027Y-11999484D02*
X13272980Y-11989960D01*
X13272980Y-11989960D02*
X13263456Y-11970912D01*
X13263456Y-11970912D02*
X13263456Y-11894722D01*
X13263456Y-11894722D02*
X13272980Y-11875674D01*
X13272980Y-11875674D02*
X13292027Y-11866150D01*
X13292027Y-11866150D02*
X13330122Y-11866150D01*
X13330122Y-11866150D02*
X13349170Y-11875674D01*
X13349170Y-11875674D02*
X13358694Y-11894722D01*
X13358694Y-11894722D02*
X13358694Y-11913769D01*
X13358694Y-11913769D02*
X13263456Y-11932817D01*
X13434884Y-11989960D02*
X13453932Y-11999484D01*
X13453932Y-11999484D02*
X13492027Y-11999484D01*
X13492027Y-11999484D02*
X13511075Y-11989960D01*
X13511075Y-11989960D02*
X13520599Y-11970912D01*
X13520599Y-11970912D02*
X13520599Y-11961388D01*
X13520599Y-11961388D02*
X13511075Y-11942341D01*
X13511075Y-11942341D02*
X13492027Y-11932817D01*
X13492027Y-11932817D02*
X13463456Y-11932817D01*
X13463456Y-11932817D02*
X13444408Y-11923293D01*
X13444408Y-11923293D02*
X13434884Y-11904246D01*
X13434884Y-11904246D02*
X13434884Y-11894722D01*
X13434884Y-11894722D02*
X13444408Y-11875674D01*
X13444408Y-11875674D02*
X13463456Y-11866150D01*
X13463456Y-11866150D02*
X13492027Y-11866150D01*
X13492027Y-11866150D02*
X13511075Y-11875674D01*
X13587265Y-12075674D02*
X13596789Y-12066150D01*
X13596789Y-12066150D02*
X13615837Y-12037579D01*
X13615837Y-12037579D02*
X13625361Y-12018531D01*
X13625361Y-12018531D02*
X13634884Y-11989960D01*
X13634884Y-11989960D02*
X13644408Y-11942341D01*
X13644408Y-11942341D02*
X13644408Y-11904246D01*
X13644408Y-11904246D02*
X13634884Y-11856627D01*
X13634884Y-11856627D02*
X13625361Y-11828055D01*
X13625361Y-11828055D02*
X13615837Y-11809008D01*
X13615837Y-11809008D02*
X13596789Y-11780436D01*
X13596789Y-11780436D02*
X13587265Y-11770912D01*
M02*
